<svg width="150" height="35" viewBox="0 0 150 35" fill="none" xmlns="http://www.w3.org/2000/svg">
<g clip-path="url(#clip0_2568_12749)">
<g clip-path="url(#clip1_2568_12749)">
<g clip-path="url(#clip2_2568_12749)">
<path d="M1.00781 1.22656H7.43538V33.1993H1.00781V1.22656Z" stroke="white" stroke-width="0.993378"/>
<path d="M40.2909 20.1861V1.22656H46.671V33.1993H41.226C39.1346 29.5002 36.876 25.847 34.4505 22.2399C31.9665 18.5458 29.3229 15.058 26.5193 11.7765L25.645 10.7532V12.0992V33.1993H19.3125V1.22656H24.6507C25.6459 2.23287 26.7449 3.45705 27.9483 4.90103C29.2106 6.41576 30.4894 8.0419 31.7849 9.77964L31.791 9.78773C33.1173 11.4929 34.428 13.2775 35.7235 15.1417L35.7258 15.1449C37.0236 16.9809 38.2421 18.7531 39.381 20.4616L40.2909 21.8265V20.1861Z" stroke="white" stroke-width="0.993378"/>
<path d="M64.9823 27.6289V28.0824L65.434 28.1236C65.7868 28.1557 66.1865 28.1875 66.6328 28.2194L66.6505 28.2207H66.6682H66.671H66.6739H66.6766H66.6794H66.6822H66.685H66.6878H66.6905H66.6934H66.6962H66.699H66.7018H66.7047H66.7074H66.7102H66.7131H66.7159H66.7187H66.7215H66.7243H66.7272H66.73H66.7329H66.7356H66.7385H66.7413H66.7442H66.747H66.7499H66.7526H66.7555H66.7584H66.7612H66.7641H66.7669H66.7697H66.7726H66.7755H66.7784H66.7811H66.784H66.7869H66.7898H66.7927H66.7954H66.7983H66.8012H66.8041H66.807H66.8099H66.8127H66.8156H66.8185H66.8214H66.8243H66.8271H66.83H66.8329H66.8359H66.8388H66.8416H66.8445H66.8474H66.8504H66.8533H66.8561H66.859H66.862H66.8649H66.8678H66.8707H66.8736H66.8765H66.8795H66.8824H66.8853H66.8882H66.8912H66.8941H66.8971H66.9H66.9029H66.9058H66.9088H66.9117H66.9147H66.9176H66.9205H66.9235H66.9265H66.9294H66.9323H66.9353H66.9383H66.9412H66.9442H66.9471H66.9501H66.9531H66.9561H66.959H66.9619H66.9649H66.9679H66.9709H66.9739H66.9768H66.9798H66.9828H66.9858H66.9888H66.9918H66.9948H66.9978H67.0008H67.0038H67.0067H67.0097H67.0128H67.0158H67.0188H67.0217H67.0248H67.0278H67.0308H67.0339H67.0368H67.0399H67.0429H67.0459H67.049H67.0519H67.055H67.058H67.0611H67.0641H67.0671H67.0701H67.0732H67.0763H67.0793H67.0823H67.0854H67.0884H67.0915H67.0946H67.0975H67.1006H67.1037H67.1068H67.1099H67.1128H67.1159H67.119H67.1221H67.1251H67.1282H67.1313H67.1344H67.1375H67.1405H67.1436H67.1467H67.1498H67.1529H67.1559H67.159H67.1621H67.1652H67.1683H67.1714H67.1745H67.1776H67.1807H67.1838H67.1869H67.19H67.1931H67.1963H67.1994H67.2024H67.2056H67.2087H67.2118H67.215H67.218H67.2212H67.2243H67.2275H67.2305H67.2337H67.2368H67.24H67.2432H67.2462H67.2494H67.2525H67.2557H67.2589H67.2619H67.2651H67.2683H67.2715H67.2746H67.2777H67.2809H67.2841H67.2873H67.2905H67.2936H67.2967H67.2999H67.3031H67.3062H67.3094H67.3126H67.3158H67.319H67.3221H67.3253H67.3285H67.3318H67.335H67.3381H67.3413H67.3445H67.3477H67.3509H67.3541H67.3573H67.3605H67.3638H67.3669H67.3701H67.3734H67.3766H67.3798H67.383H67.3862H67.3895H67.3927H67.3959H67.3991H67.4024H67.4056H67.4089H67.412H67.4153H67.4185H67.4218H67.4251H67.4282H67.4315H67.4348H67.438H67.4412H67.4445H67.4478H67.451H67.4543H67.4575H67.4608H67.4641H67.4673H67.4705H67.4738H67.4771H67.4804H67.4837H67.4869H67.4902H67.4935H67.4968H67.5001H67.5033H67.5066H67.51H67.5133H67.5165H67.5198H67.5231H67.5264H67.5298H67.533H67.5363H67.5396H67.543H67.5462H67.5495H67.5529H67.5562H67.5595H67.5628H67.5661H67.5695H67.5728H67.5761H67.5794H67.5828H67.5861H67.5895H67.5927H67.5961H67.5994H67.6028H67.6061H67.6094H67.6128H67.6162H67.6195H67.6228H67.6262H67.6296H67.6329H67.6362H67.6396H67.643H67.6464H67.6498H67.6531H67.6564H67.6598H67.6632H67.6665H67.6699H67.6733H67.6767H67.6801H67.6834H67.6868H67.6903H67.6937H67.697H67.7004H67.7038H67.7072H67.7106H67.714H67.7174H67.7208H67.7243H67.7276H67.731H67.7344H67.7379H67.7412H67.7447H67.7481H67.7515H67.755H67.7583H67.7618H67.7652H67.7687H67.772H67.7755H67.7789H67.7824H67.7858H67.7892H67.7927H67.7962H67.7996H67.803H67.8065H67.8099H67.8134H67.8168H67.8203H67.8238H67.8272H67.8307H67.8341H67.8376H67.8411H67.8446H67.848H67.8515H67.855H67.8585H67.8619H67.8654H67.8689H67.8724H67.8758H67.8793H67.8828H67.8863H67.8898H67.8933H67.8968H67.9003H67.9038H67.9072H67.9108H67.9143H67.9178H67.9213H67.9248H67.9283H67.9319H67.9354H67.9389H67.9424H67.9459H67.9495H67.9529H67.9565H67.96H67.9636H67.967H67.9706H67.9742H67.9777H67.9812H67.9848H67.9883H67.9919H67.9954H67.9989H68.0025H68.0061H68.0097H68.0131H68.0167H68.0203H68.0239H68.0274H68.031H68.0346H68.0381H68.0416H68.0452H68.0488H68.0524H68.0559H68.0595H68.0631H68.0667H68.0703H68.0739H68.0775H68.0811H68.0847H68.0882H68.0918H68.0955H68.0991H68.1026H68.1062H68.1099H68.1135H68.117H68.1207H68.1243H68.1279H68.1315H68.1351H68.1388H68.1424H68.146H68.1496H68.1533H68.1569H68.1606H68.1641H68.1678H68.1714H68.175H68.1787H68.1823H68.186H68.1897H68.1932H68.1969H68.2006H68.2043H68.2078H68.2115H68.2152H68.2189H68.2225H68.2262H68.2299H68.2335H68.2371H68.2408H68.2445H68.2482H68.2518H68.2555H68.2592H68.2629H68.2665H68.2703H68.274H68.2777H68.2813H68.285H68.2887H68.2924H68.2961H68.2998H68.3035H68.3072H68.3109H68.3146H68.3183H68.3221H68.3257H68.3294H68.3332C72.1184 28.2207 75.017 27.2664 76.9215 25.261C78.84 23.2743 79.771 20.5534 79.771 17.1634C79.771 13.6302 78.8955 10.8698 77.0631 8.96962C75.2187 7.05689 72.3489 6.15377 68.571 6.15377C68.0578 6.15377 67.5297 6.16966 66.9866 6.20134C66.4335 6.20192 65.9089 6.23476 65.4134 6.30084L64.9823 6.35832V6.79317V27.6289ZM81.4747 29.5331L81.4711 29.5363C79.9142 30.8794 77.997 31.8952 75.7077 32.5758C73.4147 33.2575 70.8312 33.6018 67.9526 33.6018C66.6356 33.6018 65.094 33.5391 63.3262 33.4127L63.3173 33.4122C61.7026 33.3257 60.1152 33.133 58.5547 32.8341V1.54779C60.1191 1.2759 61.738 1.0965 63.4115 1.00993L63.4195 1.00946C65.2835 0.883081 66.8732 0.820312 68.1904 0.820312C70.9764 0.820312 73.4836 1.13338 75.7164 1.75359L75.7181 1.75406C77.9735 2.372 79.8904 3.34107 81.4791 4.65472C83.0614 5.96322 84.2836 7.63988 85.1429 9.69619C85.9992 11.7454 86.4364 14.2297 86.4364 17.1634C86.4364 19.9671 86.0002 22.389 85.1429 24.4404C84.2832 26.4976 83.0598 28.1918 81.4747 29.5331Z" stroke="white" stroke-width="0.993378"/>
<path d="M98.3125 1.22656H104.74V33.1993H98.3125V1.22656Z" stroke="white" stroke-width="0.993378"/>
<path d="M139.472 26.3573L139.387 26.1129H139.129H126.267H126.008L125.924 26.3573C125.512 27.5487 125.084 28.7403 124.64 29.9318L124.637 29.9399C124.255 31.0479 123.898 32.1292 123.57 33.1839H116.633C117.808 29.851 118.926 26.7616 119.985 23.9156C121.096 20.9329 122.175 18.1233 123.221 15.4866C124.3 12.8498 125.347 10.3545 126.362 8.00069C127.376 5.68862 128.42 3.43579 129.494 1.24219H136.137C137.181 3.43617 138.211 5.68933 139.225 8.00169L139.226 8.00331C140.272 10.3554 141.318 12.8492 142.364 15.485L142.365 15.4884C143.444 18.1243 144.538 20.9333 145.648 23.9156C146.708 26.7616 147.826 29.851 149.001 33.1839H141.826C141.494 32.1275 141.122 31.0448 140.709 29.9358L139.472 26.3573ZM132.987 8.14407L132.619 7.23497L132.306 8.16423C132.15 8.62787 131.914 9.26615 131.597 10.0813C131.279 10.8986 130.915 11.8417 130.501 12.9103C130.089 13.9779 129.629 15.1557 129.121 16.4435L129.119 16.4507C128.642 17.7403 128.149 19.0927 127.64 20.5079L127.466 20.9936H127.982H137.367H137.882L137.708 20.5079C137.2 19.0927 136.707 17.7403 136.23 16.4507C135.753 15.1602 135.291 13.9786 134.845 12.906C134.433 11.8392 134.068 10.8975 133.751 10.0813C133.433 9.26363 133.179 8.61767 132.987 8.14407Z" stroke="white" stroke-width="0.725946"/>
</g>
</g>
</g>
<defs>
<clipPath id="clip0_2568_12749">
<rect width="150" height="34.77" fill="white"/>
</clipPath>
<clipPath id="clip1_2568_12749">
<rect width="150" height="34.77" fill="white"/>
</clipPath>
<clipPath id="clip2_2568_12749">
<rect width="150" height="34.7682" fill="white"/>
</clipPath>
</defs>
</svg>
