<svg width="62" height="63" viewBox="0 0 62 63" fill="none" xmlns="http://www.w3.org/2000/svg">
<g clip-path="url(#clip0_2568_12762)">
<g clip-path="url(#clip1_2568_12762)">
<g clip-path="url(#clip2_2568_12762)">
<path d="M37.7424 39.7077C37.9152 39.6272 38.1099 39.5951 38.3024 39.6152C38.4948 39.6353 38.6767 39.7068 38.8256 39.8208L60.6737 56.5536C60.8194 56.6653 60.9274 56.8129 60.9848 56.9792C61.0421 57.1455 61.0465 57.3234 60.9974 57.4919C60.9484 57.6605 60.8479 57.8125 60.7078 57.9301C60.5677 58.0477 60.394 58.126 60.2071 58.1556L32.1927 62.5961C32.0018 62.6264 31.8054 62.6046 31.6278 62.5335C31.4502 62.4623 31.299 62.3449 31.1931 62.1958C31.0871 62.0466 31.0308 61.8721 31.0313 61.6939C31.0317 61.5157 31.0888 61.3415 31.1956 61.1928L37.9322 51.8059L37.2001 40.5777C37.1884 40.3998 37.2335 40.2227 37.3298 40.0681C37.4262 39.9135 37.5696 39.7882 37.7424 39.7077ZM34.1167 60.4376L57.7504 56.6914L39.3189 42.5756L39.8909 51.3436L48.7882 53.5369C48.9145 53.5676 49.033 53.6209 49.1369 53.6938C49.2408 53.7668 49.328 53.8578 49.3936 53.9618C49.4591 54.0658 49.5017 54.1807 49.5189 54.2999C49.5361 54.4191 49.5275 54.5402 49.4937 54.6563C49.4599 54.7724 49.4015 54.8813 49.3219 54.9766C49.2422 55.0719 49.1429 55.1518 49.0297 55.2117C48.9164 55.2717 48.7914 55.3104 48.6618 55.3258C48.5322 55.3412 48.4005 55.3329 48.2744 55.3013L39.3775 53.1078L34.1167 60.4376Z" fill="white"/>
<path d="M17.7344 4.96875V22.6875C17.7359 23.9924 18.2549 25.2435 19.1776 26.1662C20.1003 27.0889 21.3514 27.6079 22.6563 27.6094H48.25C49.5549 27.6079 50.806 27.0889 51.7287 26.1662C52.6514 25.2435 53.1704 23.9924 53.1719 22.6875V4.96875C53.1704 3.66384 52.6514 2.41279 51.7287 1.49008C50.806 0.567364 49.5549 0.0483406 48.25 0.046875H22.6563C21.3514 0.0483406 20.1003 0.567364 19.1776 1.49008C18.2549 2.41279 17.7359 3.66384 17.7344 4.96875ZM48.25 25.6406H22.6563C21.8733 25.6397 21.1227 25.3283 20.5691 24.7747C20.0155 24.221 19.7041 23.4704 19.7032 22.6875V6.77828L32.7793 15.2393C33.5762 15.7538 34.5046 16.0275 35.4532 16.0275C36.4017 16.0275 37.3301 15.7538 38.127 15.2393L51.2032 6.77828V22.6875C51.2022 23.4704 50.8908 24.221 50.3372 24.7747C49.7836 25.3283 49.033 25.6397 48.25 25.6406ZM51.1587 4.46192L37.0576 13.5863C36.5794 13.895 36.0224 14.0592 35.4532 14.0592C34.8841 14.0592 34.327 13.895 33.8489 13.5863L19.7477 4.46192C19.8678 3.77741 20.2251 3.15705 20.757 2.70972C21.2889 2.26238 21.9613 2.01665 22.6563 2.01563H48.25C48.945 2.01659 49.6175 2.26231 50.1494 2.70965C50.6813 3.15699 51.0386 3.77737 51.1587 4.46192Z" fill="white"/>
<path d="M24.8799 47.6099C24.9807 47.6098 25.0808 47.6241 25.1754 47.652C25.9211 47.8729 26.6872 48.09 27.4519 48.2962C27.5578 48.3243 27.6557 48.3687 27.7399 48.427C27.8242 48.4852 27.8931 48.5561 27.9428 48.6357C27.9925 48.7152 28.0219 48.8017 28.0294 48.8903C28.0369 48.9789 28.0222 49.0679 27.9864 49.1519C27.9505 49.236 27.8941 49.3137 27.8205 49.3804C27.7468 49.4471 27.6572 49.5015 27.557 49.5406C27.4567 49.5797 27.3478 49.6026 27.2364 49.6081C27.125 49.6136 27.0133 49.6015 26.9078 49.5725C26.1269 49.3619 25.3449 49.1405 24.5836 48.915C24.3972 48.8599 24.2411 48.7545 24.1426 48.6172C24.0441 48.4798 24.0094 48.3193 24.0447 48.1637C24.08 48.0081 24.1829 47.8673 24.3355 47.7659C24.4881 47.6646 24.6811 47.6097 24.8799 47.6099Z" fill="white"/>
<path d="M4.28079 20.3521C4.19754 20.2745 4.13271 20.1833 4.08999 20.0839C4.04727 19.9845 4.02751 19.8788 4.03183 19.7727C4.03614 19.6667 4.06446 19.5624 4.11515 19.4659C4.16585 19.3694 4.23793 19.2825 4.32728 19.2101C5.03014 18.6415 5.80288 18.1418 6.63155 17.72C6.8444 17.6118 7.09802 17.5814 7.33663 17.6357C7.57523 17.6899 7.77927 17.8243 7.90386 18.0092C8.02845 18.1941 8.06339 18.4145 8.00098 18.6218C7.93857 18.8292 7.78393 19.0064 7.57108 19.1147C6.86043 19.4764 6.19777 19.9049 5.59507 20.3926C5.50571 20.4649 5.40084 20.5212 5.28643 20.5583C5.17202 20.5955 5.05032 20.6126 4.92828 20.6089C4.80623 20.6051 4.68624 20.5805 4.57514 20.5364C4.46404 20.4924 4.36402 20.4297 4.28079 20.3521Z" fill="white"/>
<path d="M30.0737 50.1275C30.1123 50.0365 30.1763 49.9517 30.2623 49.8779C30.3482 49.8041 30.4544 49.7427 30.5746 49.6974C30.6948 49.652 30.8268 49.6235 30.9629 49.6134C31.0991 49.6034 31.2368 49.612 31.3681 49.6389C32.6573 49.9017 33.6388 50.0816 34.235 50.1864C34.3689 50.2089 34.495 50.2496 34.606 50.3061C34.7171 50.3625 34.8108 50.4337 34.8819 50.5154C34.953 50.5971 34.9999 50.6878 35.0201 50.7821C35.0402 50.8765 35.0331 50.9727 34.9993 51.0651C34.9654 51.1576 34.9054 51.2445 34.8227 51.3208C34.74 51.3971 34.6363 51.4613 34.5176 51.5096C34.3988 51.558 34.2674 51.5896 34.1309 51.6026C33.9944 51.6156 33.8556 51.6098 33.7223 51.5854C33.1086 51.4771 32.0998 51.2927 30.7794 51.0236C30.648 50.9969 30.5256 50.9525 30.4191 50.8929C30.3125 50.8334 30.224 50.76 30.1584 50.6767C30.0929 50.5935 30.0517 50.5022 30.0372 50.4079C30.0226 50.3137 30.0351 50.2184 30.0737 50.1275Z" fill="white"/>
<path d="M0.365755 30.9833C0.157419 30.1543 0.0452398 29.3048 0.03135 28.451C0.0279037 28.2312 0.113668 28.019 0.269777 27.8612C0.425885 27.7033 0.63955 27.6127 0.863768 27.6094H0.877085C1.09909 27.6093 1.31221 27.6949 1.47041 27.8477C1.6286 28.0004 1.71919 28.208 1.7226 28.4256C1.73443 29.1544 1.83016 29.8795 2.00797 30.5872C2.06001 30.8001 2.024 31.0246 1.90781 31.2116C1.79162 31.3987 1.60467 31.533 1.3878 31.5853C1.17093 31.6377 0.941754 31.6038 0.750303 31.491C0.558851 31.3782 0.420471 31.1957 0.365755 30.9833Z" fill="white"/>
<path d="M20.825 47.5309C20.0412 47.1663 19.2681 46.7885 18.5274 46.4082C18.4249 46.3555 18.3328 46.2813 18.2565 46.1897C18.1802 46.0981 18.1211 45.991 18.0826 45.8744C18.0441 45.7578 18.027 45.634 18.0322 45.5102C18.0374 45.3863 18.0648 45.2648 18.1129 45.1526C18.21 44.9259 18.3853 44.7507 18.6004 44.6656C18.7069 44.6234 18.8199 44.6047 18.933 44.6104C19.0461 44.616 19.1571 44.6461 19.2596 44.6987C19.9811 45.0694 20.7347 45.4376 21.4991 45.7931C21.6043 45.8409 21.6999 45.9109 21.7802 45.9993C21.8605 46.0877 21.924 46.1926 21.9671 46.308C22.0102 46.4234 22.032 46.547 22.0313 46.6717C22.0305 46.7963 22.0072 46.9196 21.9627 47.0344C21.9181 47.1491 21.8533 47.2531 21.7719 47.3403C21.6905 47.4274 21.5941 47.4961 21.4883 47.5423C21.3826 47.5884 21.2695 47.6112 21.1556 47.6093C21.0418 47.6073 20.9294 47.5807 20.825 47.5309Z" fill="white"/>
<path d="M12.9223 41.6094C13.0869 41.6093 13.2484 41.6542 13.3884 41.739C14.0785 42.1547 14.8113 42.5699 15.5671 42.9731C15.7744 43.0837 15.9284 43.2704 15.995 43.4921C16.0617 43.7138 16.0357 43.9523 15.9226 44.1552C15.8096 44.358 15.6188 44.5087 15.3922 44.5739C15.1657 44.6392 14.9219 44.6137 14.7145 44.5031C13.9314 44.0852 13.1709 43.6544 12.455 43.2226C12.2898 43.1232 12.1624 42.9737 12.092 42.7968C12.0216 42.62 12.0121 42.4255 12.065 42.243C12.118 42.0604 12.2303 41.8997 12.3851 41.7854C12.5399 41.671 12.7284 41.6092 12.9223 41.6094Z" fill="white"/>
<path d="M10.0562 16.9338C10.0266 16.823 10.0233 16.7084 10.0466 16.5965C10.0698 16.4847 10.1191 16.3778 10.1916 16.2819C10.2641 16.1861 10.3584 16.1031 10.4691 16.0378C10.5799 15.9725 10.7048 15.9261 10.8369 15.9013C11.8755 15.707 12.9364 15.6091 14.0005 15.6094C14.2739 15.6094 14.5361 15.7004 14.7294 15.8626C14.9227 16.0247 15.0313 16.2446 15.0313 16.4738C15.0313 16.7031 14.9227 16.923 14.7294 17.0851C14.5361 17.2473 14.2739 17.3383 14.0005 17.3383C13.0879 17.338 12.1779 17.4219 11.2871 17.5885C11.0204 17.6386 10.7408 17.5977 10.51 17.4749C10.2791 17.3521 10.1159 17.1575 10.0562 16.9338Z" fill="white"/>
<path d="M8.51016 41.4508C7.73478 40.9674 7.00214 40.4698 6.33302 39.9718C6.15113 39.8311 6.04311 39.6369 6.03217 39.431C6.02124 39.2251 6.10827 39.0238 6.27455 38.8704C6.44083 38.7171 6.6731 38.6239 6.92141 38.6109C7.16973 38.598 7.41428 38.6662 7.6025 38.801C8.23112 39.2688 8.92054 39.7373 9.65246 40.1934C9.85378 40.3189 9.98667 40.5055 10.0219 40.7122C10.0572 40.9189 9.99185 41.1287 9.84037 41.2955C9.68889 41.4623 9.46365 41.5724 9.21419 41.6016C8.96472 41.6308 8.71148 41.5763 8.51016 41.4508Z" fill="white"/>
<path d="M4.72282 37.4077C4.55214 37.5596 4.33394 37.6302 4.1162 37.604C3.89847 37.5779 3.69905 37.4571 3.56179 37.2682C3.03727 36.5506 2.56417 35.7887 2.14682 34.9895C2.09097 34.8853 2.05439 34.7699 2.03922 34.6499C2.02404 34.5299 2.03058 34.4078 2.05844 34.2907C2.0863 34.1735 2.13493 34.0637 2.20151 33.9675C2.26808 33.8713 2.35127 33.7908 2.44624 33.7305C2.5412 33.6702 2.64605 33.6314 2.75468 33.6164C2.86331 33.6014 2.97355 33.6104 3.079 33.643C3.18444 33.6755 3.28299 33.731 3.3689 33.806C3.45482 33.8811 3.52639 33.9744 3.57945 34.0803C3.9541 34.7967 4.37863 35.4796 4.84918 36.123C4.98634 36.3119 5.05009 36.5534 5.0264 36.7943C5.0027 37.0352 4.8935 37.2559 4.72282 37.4077Z" fill="white"/>
<path d="M2.911 24.9905C2.8754 25.0995 2.81613 25.2011 2.7366 25.2895C2.65708 25.3778 2.55888 25.4512 2.44764 25.5053C2.33641 25.5594 2.21435 25.5933 2.08849 25.6049C1.96263 25.6165 1.83546 25.6056 1.7143 25.5729C1.59313 25.5402 1.48037 25.4863 1.38251 25.4143C1.28465 25.3423 1.20362 25.2536 1.14408 25.1534C1.08455 25.0532 1.04768 24.9434 1.03562 24.8303C1.02355 24.7172 1.03652 24.6032 1.07378 24.4946C1.35926 23.6425 1.74936 22.8215 2.23688 22.0468C2.29887 21.9483 2.38185 21.8618 2.48108 21.7921C2.58032 21.7225 2.69387 21.671 2.81524 21.6408C2.93662 21.6105 3.06345 21.602 3.18849 21.6157C3.31353 21.6295 3.43433 21.6652 3.544 21.7208C3.65366 21.7765 3.75005 21.851 3.82765 21.9401C3.90524 22.0292 3.96254 22.1311 3.99625 22.2401C4.02997 22.349 4.03944 22.4629 4.02414 22.5751C4.00884 22.6874 3.96907 22.7959 3.90708 22.8943C3.48954 23.5577 3.15547 24.2608 2.911 24.9905Z" fill="white"/>
</g>
</g>
</g>
<defs>
<clipPath id="clip0_2568_12762">
<rect width="62" height="63" fill="white"/>
</clipPath>
<clipPath id="clip1_2568_12762">
<rect width="62" height="63" fill="white"/>
</clipPath>
<clipPath id="clip2_2568_12762">
<rect width="62" height="63" fill="white"/>
</clipPath>
</defs>
</svg>
