<?xml version="1.0" encoding="utf-8"?>
<!-- Uploaded to: SVG Repo, www.svgrepo.com, Generator: SVG Repo Mixer Tools -->
<svg fill="#000000" width="800px" height="800px" viewBox="0 0 32 32" version="1.1" xmlns="http://www.w3.org/2000/svg">
<title>mariadbfoundation</title>
<path d="M27.213 7.641c-0.035-0.004-0.076-0.006-0.117-0.006-0.517 0-0.949 0.364-1.054 0.849l-0.001 0.007c0.156 0.133 0.36 0.215 0.584 0.215 0.497 0 0.901-0.403 0.901-0.901 0-0.054-0.005-0.108-0.014-0.159l0.001 0.005c-0.073-0.007-0.157-0.011-0.242-0.011-0.020 0-0.041 0-0.061 0.001l0.003-0zM29.792 7.274c-0.023 0.006-0.052 0.037-0.089 0.102-0.262 0.424-0.417 0.938-0.417 1.488 0 0.004 0 0.008 0 0.012v-0.001c0.003 0.204 0.1 0.112 0.101-0.019 0.004-0.54 0.159-1.043 0.425-1.469l-0.007 0.012c0.032-0.079 0.023-0.137-0.014-0.125zM29.659 7.16c-0.021 0.005-0.055 0.032-0.096 0.095-0.334 0.453-0.565 1.003-0.647 1.6l-0.002 0.018c-0.016 0.202 0.091 0.121 0.104-0.010 0.085-0.601 0.313-1.136 0.65-1.586l-0.006 0.009c0.040-0.075 0.035-0.134-0.003-0.125zM29.536 7.010c-0.021 0.003-0.057 0.027-0.105 0.086-0.432 0.468-0.762 1.038-0.95 1.669l-0.008 0.030c-0.034 0.2 0.080 0.129 0.102-0.001 0.194-0.647 0.523-1.203 0.955-1.66l-0.002 0.002c0.046-0.072 0.045-0.131 0.008-0.126zM29.436 6.844c-0.047 0.011-0.087 0.036-0.116 0.070l-0 0c-0.511 0.506-0.924 1.11-1.211 1.78l-0.014 0.037c-0.062 0.194 0.060 0.137 0.102 0.012 0.303-0.69 0.712-1.278 1.213-1.774l0-0c0.056-0.065 0.064-0.124 0.025-0.125zM29.624 6.598c0.112 0.384 0.289 0.56 1.051 0.63-0.167 0.876-0.716 1.597-1.463 1.995l-0.015 0.007c-0.704 0.413-1.295 0.938-1.769 1.557l-0.011 0.015c-0.731 1.474-1.381 3.202-1.856 5.002l-0.044 0.196c-0.431 1.914-1.441 3.547-2.833 4.748l-0.011 0.009c-0.187-0.45 0.212-0.71 0.037-1.121-0.336 0.83-0.667 1.513-1.036 2.171l0.050-0.096c-0.939 1.919-2.712 3.306-4.834 3.695l-0.041 0.006c1.335-1.561 2.203-3.557 2.367-5.748l0.002-0.034c-0.5 0.109-0.54 1.455-1.347 1.949-0.065 0.002-0.142 0.002-0.218 0.002-0.617 0-1.222-0.055-1.809-0.162l0.062 0.009c-0.748-0.132-1.609-0.208-2.488-0.208-1.376 0-2.708 0.185-3.974 0.533l0.105-0.025c-1.65 0.823-2.996 1.592-4.298 2.426l0.184-0.11c-0.815 0.404-1.775 0.641-2.79 0.641-0.28 0-0.556-0.018-0.827-0.053l0.032 0.003c-0.217-0.292 1.252-0.67 1.17-1.308-0.67-0.072-1.060 0.089-1.642-0.175 0.070-0.122 0.164-0.222 0.276-0.298l0.003-0.002c1.067-0.737 4.096-0.175 4.907-0.971 0.428-0.445 0.814-0.938 1.146-1.467l0.022-0.038c0.337-0.53 0.731-0.984 1.183-1.374l0.008-0.007c0.192-0.156 0.492-0.426 0.714-0.579 0.853-0.564 1.835-1.043 2.877-1.39l0.089-0.026c1.467-0.516 2.95-0.69 4.515-1.287 1.045-0.349 1.952-0.81 2.776-1.383l-0.035 0.023c0.254-0.193 0.478-0.383 0.691-0.585l-0.004 0.004c2.774-2.739 2.95-6.469 6.767-6.861 0.462-0.048 0.84-0.032 1.185-0.043 0.013 0 0.028 0 0.044 0 0.397 0 0.77-0.101 1.096-0.279l-0.012 0.006zM30.34 6.042c-0.461 0.016-0.327 0.224-1.325 0.47-1.226 0.099-2.353 0.294-3.443 0.582l0.136-0.030c-2.833 1.187-3.292 5.778-6.667 7.554-1.859 0.895-4.026 1.642-6.289 2.133l-0.196 0.036c-1.465 0.493-2.732 1.209-3.833 2.119l0.020-0.016c-0.921 0.794-1.146 1.565-2.108 2.562-0.977 1.327-4.679 0.147-5.631 1.812 0.321 0.231 0.722 0.369 1.155 0.369 0.185 0 0.364-0.025 0.533-0.072l-0.014 0.003c-0.182 0.345-1.342 0.8-1.132 1.31 0.367 0.058 0.79 0.091 1.221 0.091 1.448 0 2.808-0.373 3.991-1.028l-0.042 0.021c1.107-0.703 2.39-1.262 3.758-1.606l0.091-0.019c0.027-0 0.058-0 0.090-0 2.586 0 5.115 0.247 7.564 0.72l-0.249-0.040c-0.57 1.015-1.145 1.88-1.776 2.7l0.038-0.052c-0.19 0.204 0.162 0.384 0.812 0.261 1.084-0.226 2.043-0.638 2.89-1.205l-0.029 0.019c0.961-0.727 1.785-1.567 2.472-2.514l0.024-0.034c0.805 1.29 3.641 1.575 4.224 0.459-1.083-0.459-1.315-2.845-0.943-3.875 0.39-0.988 0.77-2.21 1.068-3.464l0.039-0.195c0.32-1.162 0.516-2.935 0.897-3.843 0.456-1.128 1.341-1.481 2.006-2.079 0.791-0.515 1.307-1.395 1.307-2.396 0-0.025-0-0.050-0.001-0.074l0 0.004c-0.008-0.445-0.237-0.691-0.656-0.679z"></path>
</svg>