<svg width="1440" height="919" viewBox="0 0 1440 919" fill="none" xmlns="http://www.w3.org/2000/svg">
<g clip-path="url(#clip0_9_13583)">
<rect width="1440" height="919" fill="white"/>
<rect x="-9.5" y="0.5" width="73" height="73" stroke="#EBEBEB"/>
<rect x="63.5" y="0.5" width="73" height="73" stroke="#EBEBEB"/>
<rect x="136.5" y="0.5" width="73" height="73" stroke="#EBEBEB"/>
<rect x="209.5" y="0.5" width="73" height="73" stroke="#EBEBEB"/>
<rect x="282.5" y="0.5" width="73" height="73" stroke="#EBEBEB"/>
<rect x="355.5" y="0.5" width="73" height="73" stroke="#EBEBEB"/>
<rect x="428.5" y="0.5" width="73" height="73" stroke="#EBEBEB"/>
<rect x="501.5" y="0.5" width="73" height="73" stroke="#EBEBEB"/>
<rect x="574.5" y="0.5" width="73" height="73" stroke="#EBEBEB"/>
<rect x="647.5" y="0.5" width="73" height="73" stroke="#EBEBEB"/>
<rect x="720.5" y="0.5" width="73" height="73" stroke="#EBEBEB"/>
<rect x="793.5" y="0.5" width="73" height="73" stroke="#EBEBEB"/>
<rect x="866.5" y="0.5" width="73" height="73" stroke="#EBEBEB"/>
<rect x="939.5" y="0.5" width="73" height="73" stroke="#EBEBEB"/>
<rect x="1012.5" y="0.5" width="73" height="73" stroke="#EBEBEB"/>
<rect x="1085.5" y="0.5" width="73" height="73" stroke="#EBEBEB"/>
<rect x="1158.5" y="0.5" width="73" height="73" stroke="#EBEBEB"/>
<rect x="1231.5" y="0.5" width="73" height="73" stroke="#EBEBEB"/>
<rect x="1304.5" y="0.5" width="73" height="73" stroke="#EBEBEB"/>
<rect x="1377.5" y="0.5" width="73" height="73" stroke="#EBEBEB"/>
<rect x="-9.5" y="73.5" width="73" height="73" stroke="#EBEBEB"/>
<rect x="63.5" y="73.5" width="73" height="73" stroke="#EBEBEB"/>
<rect x="136.5" y="73.5" width="73" height="73" stroke="#EBEBEB"/>
<rect x="209.5" y="73.5" width="73" height="73" stroke="#EBEBEB"/>
<rect x="282.5" y="73.5" width="73" height="73" stroke="#EBEBEB"/>
<rect x="355.5" y="73.5" width="73" height="73" stroke="#EBEBEB"/>
<rect x="428.5" y="73.5" width="73" height="73" stroke="#EBEBEB"/>
<rect x="501.5" y="73.5" width="73" height="73" stroke="#EBEBEB"/>
<rect x="574.5" y="73.5" width="73" height="73" stroke="#EBEBEB"/>
<rect x="647.5" y="73.5" width="73" height="73" stroke="#EBEBEB"/>
<rect x="720.5" y="73.5" width="73" height="73" stroke="#EBEBEB"/>
<rect x="793.5" y="73.5" width="73" height="73" stroke="#EBEBEB"/>
<rect x="866.5" y="73.5" width="73" height="73" stroke="#EBEBEB"/>
<rect x="939.5" y="73.5" width="73" height="73" stroke="#EBEBEB"/>
<rect x="1012.5" y="73.5" width="73" height="73" stroke="#EBEBEB"/>
<rect x="1085.5" y="73.5" width="73" height="73" stroke="#EBEBEB"/>
<rect x="1158.5" y="73.5" width="73" height="73" stroke="#EBEBEB"/>
<rect x="1231.5" y="73.5" width="73" height="73" stroke="#EBEBEB"/>
<rect x="1304.5" y="73.5" width="73" height="73" stroke="#EBEBEB"/>
<rect x="1377.5" y="73.5" width="73" height="73" stroke="#EBEBEB"/>
<rect x="-9.5" y="146.5" width="73" height="73" stroke="#EBEBEB"/>
<rect x="63.5" y="146.5" width="73" height="73" stroke="#EBEBEB"/>
<rect x="136.5" y="146.5" width="73" height="73" fill="#F7F7F7" stroke="#EBEBEB"/>
<rect x="209.5" y="146.5" width="73" height="73" fill="#F7F7F7" stroke="#EBEBEB"/>
<rect x="282.5" y="146.5" width="73" height="73" fill="#F7F7F7" stroke="#EBEBEB"/>
<rect x="355.5" y="146.5" width="73" height="73" stroke="#EBEBEB"/>
<rect x="428.5" y="146.5" width="73" height="73" stroke="#EBEBEB"/>
<rect x="501.5" y="146.5" width="73" height="73" fill="#F2F2F2" stroke="#EBEBEB"/>
<rect x="574.5" y="146.5" width="73" height="73" stroke="#EBEBEB"/>
<rect x="647.5" y="146.5" width="73" height="73" fill="#F2F2F2" stroke="#EBEBEB"/>
<rect x="720.5" y="146.5" width="73" height="73" stroke="#EBEBEB"/>
<rect x="793.5" y="146.5" width="73" height="73" fill="#F2F2F2" stroke="#EBEBEB"/>
<rect x="866.5" y="146.5" width="73" height="73" stroke="#EBEBEB"/>
<rect x="939.5" y="146.5" width="73" height="73" stroke="#EBEBEB"/>
<rect x="1012.5" y="146.5" width="73" height="73" stroke="#EBEBEB"/>
<rect x="1085.5" y="146.5" width="73" height="73" stroke="#EBEBEB"/>
<rect x="1158.5" y="146.5" width="73" height="73" fill="#F7F7F7" stroke="#EBEBEB"/>
<rect x="1231.5" y="146.5" width="73" height="73" fill="#F7F7F7" stroke="#EBEBEB"/>
<rect x="1304.5" y="146.5" width="73" height="73" fill="#F7F7F7" stroke="#EBEBEB"/>
<rect x="1377.5" y="146.5" width="73" height="73" stroke="#EBEBEB"/>
<rect x="-9.5" y="219.5" width="73" height="73" stroke="#EBEBEB"/>
<rect x="63.5" y="219.5" width="73" height="73" stroke="#EBEBEB"/>
<rect x="136.5" y="219.5" width="73" height="73" fill="#F7F7F7" stroke="#EBEBEB"/>
<rect x="209.5" y="219.5" width="73" height="73" stroke="#EBEBEB"/>
<rect x="282.5" y="219.5" width="73" height="73" stroke="#EBEBEB"/>
<rect x="355.5" y="219.5" width="73" height="73" stroke="#EBEBEB"/>
<rect x="428.5" y="219.5" width="73" height="73" stroke="#EBEBEB"/>
<rect x="501.5" y="219.5" width="73" height="73" stroke="#EBEBEB"/>
<rect x="574.5" y="219.5" width="73" height="73" stroke="#EBEBEB"/>
<rect x="647.5" y="219.5" width="73" height="73" stroke="#EBEBEB"/>
<rect x="720.5" y="219.5" width="73" height="73" stroke="#EBEBEB"/>
<rect x="793.5" y="219.5" width="73" height="73" stroke="#EBEBEB"/>
<rect x="866.5" y="219.5" width="73" height="73" stroke="#EBEBEB"/>
<rect x="939.5" y="219.5" width="73" height="73" stroke="#EBEBEB"/>
<rect x="1012.5" y="219.5" width="73" height="73" stroke="#EBEBEB"/>
<rect x="1085.5" y="219.5" width="73" height="73" stroke="#EBEBEB"/>
<rect x="1158.5" y="219.5" width="73" height="73" stroke="#EBEBEB"/>
<rect x="1231.5" y="219.5" width="73" height="73" stroke="#EBEBEB"/>
<rect x="1304.5" y="219.5" width="73" height="73" fill="#F7F7F7" stroke="#EBEBEB"/>
<rect x="1377.5" y="219.5" width="73" height="73" stroke="#EBEBEB"/>
<rect x="-9.5" y="292.5" width="73" height="73" stroke="#EBEBEB"/>
<rect x="63.5" y="292.5" width="73" height="73" stroke="#EBEBEB"/>
<rect x="136.5" y="292.5" width="73" height="73" stroke="#EBEBEB"/>
<rect x="209.5" y="292.5" width="73" height="73" stroke="#EBEBEB"/>
<rect x="282.5" y="292.5" width="73" height="73" stroke="#EBEBEB"/>
<rect x="355.5" y="292.5" width="73" height="73" stroke="#EBEBEB"/>
<rect x="428.5" y="292.5" width="73" height="73" stroke="#EBEBEB"/>
<rect x="501.5" y="292.5" width="73" height="73" stroke="#EBEBEB"/>
<rect x="574.5" y="292.5" width="73" height="73" stroke="#EBEBEB"/>
<rect x="647.5" y="292.5" width="73" height="73" stroke="#EBEBEB"/>
<rect x="720.5" y="292.5" width="73" height="73" stroke="#EBEBEB"/>
<rect x="793.5" y="292.5" width="73" height="73" stroke="#EBEBEB"/>
<rect x="866.5" y="292.5" width="73" height="73" stroke="#EBEBEB"/>
<rect x="939.5" y="292.5" width="73" height="73" stroke="#EBEBEB"/>
<rect x="1012.5" y="292.5" width="73" height="73" stroke="#EBEBEB"/>
<rect x="1085.5" y="292.5" width="73" height="73" stroke="#EBEBEB"/>
<rect x="1158.5" y="292.5" width="73" height="73" stroke="#EBEBEB"/>
<rect x="1231.5" y="292.5" width="73" height="73" stroke="#EBEBEB"/>
<rect x="1304.5" y="292.5" width="73" height="73" stroke="#EBEBEB"/>
<rect x="1377.5" y="292.5" width="73" height="73" stroke="#EBEBEB"/>
<rect x="-9.5" y="365.5" width="73" height="73" stroke="#EBEBEB"/>
<rect x="63.5" y="365.5" width="73" height="73" stroke="#EBEBEB"/>
<rect x="136.5" y="365.5" width="73" height="73" stroke="#EBEBEB"/>
<rect x="209.5" y="365.5" width="73" height="73" stroke="#EBEBEB"/>
<rect x="282.5" y="365.5" width="73" height="73" stroke="#EBEBEB"/>
<rect x="355.5" y="365.5" width="73" height="73" stroke="#EBEBEB"/>
<rect x="428.5" y="365.5" width="73" height="73" stroke="#EBEBEB"/>
<rect x="501.5" y="365.5" width="73" height="73" stroke="#EBEBEB"/>
<rect x="574.5" y="365.5" width="73" height="73" stroke="#EBEBEB"/>
<rect x="647.5" y="365.5" width="73" height="73" stroke="#EBEBEB"/>
<rect x="720.5" y="365.5" width="73" height="73" stroke="#EBEBEB"/>
<rect x="793.5" y="365.5" width="73" height="73" stroke="#EBEBEB"/>
<rect x="866.5" y="365.5" width="73" height="73" stroke="#EBEBEB"/>
<rect x="939.5" y="365.5" width="73" height="73" stroke="#EBEBEB"/>
<rect x="1012.5" y="365.5" width="73" height="73" stroke="#EBEBEB"/>
<rect x="1085.5" y="365.5" width="73" height="73" stroke="#EBEBEB"/>
<rect x="1158.5" y="365.5" width="73" height="73" stroke="#EBEBEB"/>
<rect x="1231.5" y="365.5" width="73" height="73" stroke="#EBEBEB"/>
<rect x="1304.5" y="365.5" width="73" height="73" stroke="#EBEBEB"/>
<rect x="1377.5" y="365.5" width="73" height="73" stroke="#EBEBEB"/>
<rect x="-9.5" y="438.5" width="73" height="73" stroke="#EBEBEB"/>
<rect x="63.5" y="438.5" width="73" height="73" stroke="#EBEBEB"/>
<rect x="136.5" y="438.5" width="73" height="73" fill="#F7F7F7" stroke="#EBEBEB"/>
<rect x="209.5" y="438.5" width="73" height="73" stroke="#EBEBEB"/>
<rect x="282.5" y="438.5" width="73" height="73" stroke="#EBEBEB"/>
<rect x="355.5" y="438.5" width="73" height="73" stroke="#EBEBEB"/>
<rect x="428.5" y="438.5" width="73" height="73" stroke="#EBEBEB"/>
<rect x="501.5" y="438.5" width="73" height="73" stroke="#EBEBEB"/>
<rect x="574.5" y="438.5" width="73" height="73" fill="#F7F7F7" stroke="#EBEBEB"/>
<rect x="647.5" y="438.5" width="73" height="73" fill="#F7F7F7" stroke="#EBEBEB"/>
<rect x="720.5" y="438.5" width="73" height="73" stroke="#EBEBEB"/>
<rect x="793.5" y="438.5" width="73" height="73" stroke="#EBEBEB"/>
<rect x="866.5" y="438.5" width="73" height="73" stroke="#EBEBEB"/>
<rect x="939.5" y="438.5" width="73" height="73" stroke="#EBEBEB"/>
<rect x="1012.5" y="438.5" width="73" height="73" stroke="#EBEBEB"/>
<rect x="1085.5" y="438.5" width="73" height="73" stroke="#EBEBEB"/>
<rect x="1158.5" y="438.5" width="73" height="73" stroke="#EBEBEB"/>
<rect x="1231.5" y="438.5" width="73" height="73" fill="#F7F7F7" stroke="#EBEBEB"/>
<rect x="1304.5" y="438.5" width="73" height="73" stroke="#EBEBEB"/>
<rect x="1377.5" y="438.5" width="73" height="73" stroke="#EBEBEB"/>
<rect x="-9.5" y="511.5" width="73" height="73" stroke="#EBEBEB"/>
<rect x="63.5" y="511.5" width="73" height="73" stroke="#EBEBEB"/>
<rect x="136.5" y="511.5" width="73" height="73" stroke="#EBEBEB"/>
<rect x="209.5" y="511.5" width="73" height="73" stroke="#EBEBEB"/>
<rect x="282.5" y="511.5" width="73" height="73" stroke="#EBEBEB"/>
<rect x="355.5" y="511.5" width="73" height="73" stroke="#EBEBEB"/>
<rect x="428.5" y="511.5" width="73" height="73" stroke="#EBEBEB"/>
<rect x="501.5" y="511.5" width="73" height="73" stroke="#EBEBEB"/>
<rect x="574.5" y="511.5" width="73" height="73" stroke="#EBEBEB"/>
<rect x="647.5" y="511.5" width="73" height="73" stroke="#EBEBEB"/>
<rect x="720.5" y="511.5" width="73" height="73" stroke="#EBEBEB"/>
<rect x="793.5" y="511.5" width="73" height="73" stroke="#EBEBEB"/>
<rect x="866.5" y="511.5" width="73" height="73" stroke="#EBEBEB"/>
<rect x="939.5" y="511.5" width="73" height="73" stroke="#EBEBEB"/>
<rect x="1012.5" y="511.5" width="73" height="73" stroke="#EBEBEB"/>
<rect x="1085.5" y="511.5" width="73" height="73" stroke="#EBEBEB"/>
<rect x="1158.5" y="511.5" width="73" height="73" stroke="#EBEBEB"/>
<rect x="1231.5" y="511.5" width="73" height="73" stroke="#EBEBEB"/>
<rect x="1304.5" y="511.5" width="73" height="73" stroke="#EBEBEB"/>
<rect x="1377.5" y="511.5" width="73" height="73" stroke="#EBEBEB"/>
<rect x="-9.5" y="584.5" width="73" height="73" stroke="#EBEBEB"/>
<rect x="63.5" y="584.5" width="73" height="73" stroke="#EBEBEB"/>
<rect x="136.5" y="584.5" width="73" height="73" stroke="#EBEBEB"/>
<rect x="209.5" y="584.5" width="73" height="73" stroke="#EBEBEB"/>
<rect x="282.5" y="584.5" width="73" height="73" stroke="#EBEBEB"/>
<rect x="355.5" y="584.5" width="73" height="73" stroke="#EBEBEB"/>
<rect x="428.5" y="584.5" width="73" height="73" stroke="#EBEBEB"/>
<rect x="501.5" y="584.5" width="73" height="73" stroke="#EBEBEB"/>
<rect x="574.5" y="584.5" width="73" height="73" stroke="#EBEBEB"/>
<rect x="647.5" y="584.5" width="73" height="73" stroke="#EBEBEB"/>
<rect x="720.5" y="584.5" width="73" height="73" stroke="#EBEBEB"/>
<rect x="793.5" y="584.5" width="73" height="73" stroke="#EBEBEB"/>
<rect x="866.5" y="584.5" width="73" height="73" stroke="#EBEBEB"/>
<rect x="939.5" y="584.5" width="73" height="73" stroke="#EBEBEB"/>
<rect x="1012.5" y="584.5" width="73" height="73" stroke="#EBEBEB"/>
<rect x="1085.5" y="584.5" width="73" height="73" stroke="#EBEBEB"/>
<rect x="1158.5" y="584.5" width="73" height="73" stroke="#EBEBEB"/>
<rect x="1231.5" y="584.5" width="73" height="73" stroke="#EBEBEB"/>
<rect x="1304.5" y="584.5" width="73" height="73" stroke="#EBEBEB"/>
<rect x="1377.5" y="584.5" width="73" height="73" stroke="#EBEBEB"/>
<rect x="-9.5" y="657.5" width="73" height="73" stroke="#EBEBEB"/>
<rect x="63.5" y="657.5" width="73" height="73" stroke="#EBEBEB"/>
<rect x="136.5" y="657.5" width="73" height="73" fill="#F7F7F7" stroke="#EBEBEB"/>
<rect x="209.5" y="657.5" width="73" height="73" stroke="#EBEBEB"/>
<rect x="282.5" y="657.5" width="73" height="73" stroke="#EBEBEB"/>
<rect x="355.5" y="657.5" width="73" height="73" stroke="#EBEBEB"/>
<rect x="428.5" y="657.5" width="73" height="73" stroke="#EBEBEB"/>
<rect x="501.5" y="657.5" width="73" height="73" stroke="#EBEBEB"/>
<rect x="574.5" y="657.5" width="73" height="73" stroke="#EBEBEB"/>
<rect x="647.5" y="657.5" width="73" height="73" stroke="#EBEBEB"/>
<rect x="720.5" y="657.5" width="73" height="73" stroke="#EBEBEB"/>
<rect x="793.5" y="657.5" width="73" height="73" stroke="#EBEBEB"/>
<rect x="866.5" y="657.5" width="73" height="73" stroke="#EBEBEB"/>
<rect x="939.5" y="657.5" width="73" height="73" stroke="#EBEBEB"/>
<rect x="1012.5" y="657.5" width="73" height="73" stroke="#EBEBEB"/>
<rect x="1085.5" y="657.5" width="73" height="73" stroke="#EBEBEB"/>
<rect x="1158.5" y="657.5" width="73" height="73" stroke="#EBEBEB"/>
<rect x="1231.5" y="657.5" width="73" height="73" fill="#F7F7F7" stroke="#EBEBEB"/>
<rect x="1304.5" y="657.5" width="73" height="73" stroke="#EBEBEB"/>
<rect x="1377.5" y="657.5" width="73" height="73" stroke="#EBEBEB"/>
<rect x="-9.5" y="730.5" width="73" height="73" stroke="#EBEBEB"/>
<rect x="63.5" y="730.5" width="73" height="73" stroke="#EBEBEB"/>
<rect x="136.5" y="730.5" width="73" height="73" fill="#F7F7F7" stroke="#EBEBEB"/>
<rect x="209.5" y="730.5" width="73" height="73" fill="#F7F7F7" stroke="#EBEBEB"/>
<rect x="282.5" y="730.5" width="73" height="73" stroke="#EBEBEB"/>
<rect x="355.5" y="730.5" width="73" height="73" stroke="#EBEBEB"/>
<rect x="428.5" y="730.5" width="73" height="73" stroke="#EBEBEB"/>
<rect x="501.5" y="730.5" width="73" height="73" stroke="#EBEBEB"/>
<rect x="574.5" y="730.5" width="73" height="73" stroke="#EBEBEB"/>
<rect x="647.5" y="730.5" width="73" height="73" fill="#F2F2F2" stroke="#EBEBEB"/>
<rect x="720.5" y="730.5" width="73" height="73" stroke="#EBEBEB"/>
<rect x="793.5" y="730.5" width="73" height="73" fill="#F2F2F2" stroke="#EBEBEB"/>
<rect x="866.5" y="730.5" width="73" height="73" stroke="#EBEBEB"/>
<rect x="939.5" y="730.5" width="73" height="73" fill="#F2F2F2" stroke="#EBEBEB"/>
<rect x="1012.5" y="730.5" width="73" height="73" stroke="#EBEBEB"/>
<rect x="1085.5" y="730.5" width="73" height="73" stroke="#EBEBEB"/>
<rect x="1158.5" y="730.5" width="73" height="73" fill="#F7F7F7" stroke="#EBEBEB"/>
<rect x="1231.5" y="730.5" width="73" height="73" fill="#F7F7F7" stroke="#EBEBEB"/>
<rect x="1304.5" y="730.5" width="73" height="73" stroke="#EBEBEB"/>
<rect x="1377.5" y="730.5" width="73" height="73" stroke="#EBEBEB"/>
<rect x="-9.5" y="803.5" width="73" height="73" stroke="#EBEBEB"/>
<rect x="63.5" y="803.5" width="73" height="73" stroke="#EBEBEB"/>
<rect x="136.5" y="803.5" width="73" height="73" stroke="#EBEBEB"/>
<rect x="209.5" y="803.5" width="73" height="73" fill="#F7F7F7" stroke="#EBEBEB"/>
<rect x="282.5" y="803.5" width="73" height="73" stroke="#EBEBEB"/>
<rect x="355.5" y="803.5" width="73" height="73" stroke="#EBEBEB"/>
<rect x="428.5" y="803.5" width="73" height="73" stroke="#EBEBEB"/>
<rect x="501.5" y="803.5" width="73" height="73" stroke="#EBEBEB"/>
<rect x="574.5" y="803.5" width="73" height="73" stroke="#EBEBEB"/>
<rect x="647.5" y="803.5" width="73" height="73" stroke="#EBEBEB"/>
<rect x="720.5" y="803.5" width="73" height="73" stroke="#EBEBEB"/>
<rect x="793.5" y="803.5" width="73" height="73" stroke="#EBEBEB"/>
<rect x="866.5" y="803.5" width="73" height="73" stroke="#EBEBEB"/>
<rect x="939.5" y="803.5" width="73" height="73" stroke="#EBEBEB"/>
<rect x="1012.5" y="803.5" width="73" height="73" stroke="#EBEBEB"/>
<rect x="1085.5" y="803.5" width="73" height="73" stroke="#EBEBEB"/>
<rect x="1158.5" y="803.5" width="73" height="73" fill="#F7F7F7" stroke="#EBEBEB"/>
<rect x="1231.5" y="803.5" width="73" height="73" stroke="#EBEBEB"/>
<rect x="1304.5" y="803.5" width="73" height="73" stroke="#EBEBEB"/>
<rect x="1377.5" y="803.5" width="73" height="73" stroke="#EBEBEB"/>
<rect x="-9.5" y="876.5" width="73" height="73" stroke="#EBEBEB"/>
<rect x="63.5" y="876.5" width="73" height="73" stroke="#EBEBEB"/>
<rect x="136.5" y="876.5" width="73" height="73" stroke="#EBEBEB"/>
<rect x="209.5" y="876.5" width="73" height="73" stroke="#EBEBEB"/>
<rect x="282.5" y="876.5" width="73" height="73" stroke="#EBEBEB"/>
<rect x="355.5" y="876.5" width="73" height="73" stroke="#EBEBEB"/>
<rect x="428.5" y="876.5" width="73" height="73" stroke="#EBEBEB"/>
<rect x="501.5" y="876.5" width="73" height="73" stroke="#EBEBEB"/>
<rect x="574.5" y="876.5" width="73" height="73" stroke="#EBEBEB"/>
<rect x="647.5" y="876.5" width="73" height="73" stroke="#EBEBEB"/>
<rect x="720.5" y="876.5" width="73" height="73" stroke="#EBEBEB"/>
<rect x="793.5" y="876.5" width="73" height="73" stroke="#EBEBEB"/>
<rect x="866.5" y="876.5" width="73" height="73" stroke="#EBEBEB"/>
<rect x="939.5" y="876.5" width="73" height="73" stroke="#EBEBEB"/>
<rect x="1012.5" y="876.5" width="73" height="73" stroke="#EBEBEB"/>
<rect x="1085.5" y="876.5" width="73" height="73" stroke="#EBEBEB"/>
<rect x="1158.5" y="876.5" width="73" height="73" stroke="#EBEBEB"/>
<rect x="1231.5" y="876.5" width="73" height="73" stroke="#EBEBEB"/>
<rect x="1304.5" y="876.5" width="73" height="73" stroke="#EBEBEB"/>
<rect x="1377.5" y="876.5" width="73" height="73" stroke="#EBEBEB"/>
</g>
<defs>
<clipPath id="clip0_9_13583">
<rect width="1440" height="919" fill="white"/>
</clipPath>
</defs>
</svg>
