<svg xmlns="http://www.w3.org/2000/svg" width="50" height="50" viewBox="0 0 50 50" fill="none"><path d="M11.5037 33.0753C9.0426 28.691 7.01596 25.08 7.00009 25.0508C6.98425 25.0214 9.00096 21.3868 11.4817 16.9737L15.9922 8.94971H25.0146H34.0369L38.4986 16.892C40.9526 21.2603 42.9781 24.8806 42.9998 24.9372C43.0224 24.996 41.1217 28.4541 38.5541 33.0253L34.069 41.0107L25.0238 41.0287L15.9785 41.0467L11.5037 33.0753ZM32.4306 34.5213C33.11 34.2539 33.6464 33.7161 33.9045 33.0435C34.0096 32.7695 34.0232 32.0635 34.0407 25.9636L34.0601 19.1881L32.2111 17.2856L30.3621 15.3831H24.1526C17.9749 15.3831 17.941 15.3831 17.5375 15.5349C17.0497 15.7174 16.5064 16.2018 16.2731 16.6622C15.9582 17.2837 15.9511 17.4875 15.9729 25.316L15.9936 32.7392L16.2166 33.2099C16.5812 33.9795 17.2114 34.4776 17.9895 34.6112C18.1749 34.6431 21.4284 34.6639 25.2195 34.658C31.6331 34.6477 32.1346 34.6377 32.4306 34.5213ZM18.0085 33.2607C17.7779 33.1687 17.5292 32.9332 17.3832 32.6685C17.2769 32.4759 17.2641 31.807 17.2443 25.3867C17.2323 21.4984 17.2428 18.1193 17.2674 17.8777C17.3193 17.3686 17.5026 17.0505 17.8673 16.8363C18.1113 16.6929 18.191 16.691 23.9116 16.691H29.7088L29.7278 18.264L29.7468 19.837H31.2655H32.7841L32.7837 26.0406C32.7835 29.8939 32.7569 32.3392 32.7137 32.4948C32.6347 32.7791 32.2801 33.1535 31.9841 33.265C31.7175 33.3656 18.261 33.3614 18.0085 33.2599L18.0085 33.2607ZM23.6424 31.3852C23.9815 31.2443 24.3491 30.8247 24.5234 30.3794C24.7379 29.8311 24.7981 28.0131 24.6244 27.3252C24.3912 26.4014 23.8861 25.9876 22.992 25.9876C22.203 25.9876 21.8249 26.1632 21.4644 26.6967C21.1677 27.1358 21.0363 27.8022 21.0395 28.8508C21.0447 30.5851 21.4424 31.3348 22.4432 31.4973C22.8403 31.5618 23.3266 31.5164 23.6424 31.3852ZM22.5289 30.6238C22.4295 30.5678 22.3094 30.4371 22.2621 30.3333C21.9994 29.7566 21.9847 27.8787 22.2385 27.3063C22.4088 26.9222 22.5626 26.8038 22.8915 26.8038C23.4885 26.8038 23.6999 27.3243 23.694 28.7801C23.6898 29.7721 23.607 30.1954 23.3613 30.4781C23.1697 30.6986 22.7822 30.7664 22.5289 30.6238ZM28.8251 31.0424V30.6536H28.3302H27.8353V28.3636C27.8353 25.8072 27.8748 25.9876 27.3164 25.9876C27.0705 25.9876 26.9057 26.0648 26.3287 26.4507L25.6363 26.9138L25.6577 27.2461C25.6834 27.6464 25.7536 27.6508 26.3684 27.2908L26.7749 27.0527V28.8532V30.6538H26.2522C25.6959 30.6538 25.6437 30.6872 25.6437 31.0426C25.6437 31.4413 25.6023 31.4314 27.2773 31.4314H28.8251L28.8251 31.0424ZM27.9439 23.8729C28.5282 23.6145 28.8505 22.9973 28.9755 21.8977C29.0556 21.1939 28.9893 20.1759 28.8272 19.617C28.615 18.8856 28.0433 18.4928 27.1944 18.4953C26.3133 18.5005 25.827 18.8347 25.4945 19.6722C25.3465 20.045 25.3306 20.1994 25.3282 21.2863C25.3251 22.5988 25.4104 23.0343 25.7598 23.4957C26.1794 24.0497 27.1609 24.2193 27.9439 23.8729ZM26.7165 23.0533C26.4293 22.8116 26.3336 22.3629 26.3336 21.2569C26.3336 19.8142 26.5563 19.3039 27.1781 19.3215C27.4796 19.3303 27.7379 19.5573 27.8385 19.9025C27.9651 20.337 28.0037 21.6633 27.9064 22.2392C27.8321 22.6792 27.7783 22.8068 27.5858 22.9992C27.2989 23.2861 27.0143 23.3038 26.7165 23.0533ZM24.5693 23.5663L24.5479 23.1951L24.0707 23.174L23.5935 23.1529V20.8664V18.5799L23.3401 18.5326C22.9469 18.4588 22.6914 18.5495 22.0217 18.9996L21.4019 19.4164V19.768C21.4019 19.9742 21.4337 20.1197 21.4788 20.1197C21.521 20.1197 21.7548 20.0084 21.9981 19.8723C22.2415 19.7362 22.4614 19.6248 22.4868 19.6248C22.5122 19.6248 22.533 20.4188 22.533 21.3893V23.1537L21.9851 23.1743L21.4372 23.1949L21.4149 23.4674C21.3746 23.9577 21.304 23.9372 23.0294 23.9372H24.5906L24.5693 23.5663Z" fill="#2E2E2E"></path></svg>