<svg xmlns="http://www.w3.org/2000/svg" width="50" height="50" viewBox="0 0 50 50" fill="none"><g style="mix-blend-mode:luminosity"><path d="M21.0126 34.406L24.4932 37.9235H30.1427C30.8268 37.9235 31.384 37.361 31.384 36.6703V23.4976L21.0126 33.9717C20.8927 34.0856 20.8891 34.2779 21.002 34.3989C21.0055 34.4025 21.009 34.406 21.0126 34.406Z" fill="#315DA8"></path><path d="M12.1543 19.7628V25.4662L15.635 28.9801C15.7513 29.1012 15.9382 29.1047 16.0581 28.9873C16.0617 28.9837 16.0617 28.9837 16.0652 28.9801L26.4436 18.5024H13.3956C12.708 18.506 12.1508 19.0685 12.1543 19.7628Z" fill="#416BB3"></path><path d="M25.214 13.3762L16.8386 26.3175C16.5565 26.7554 16.6129 27.3357 16.9796 27.706L22.347 33.1246C22.7137 33.4949 23.2885 33.5519 23.7223 33.267L36.5411 24.8044C37.3557 24.2633 37.8459 23.3447 37.8459 22.3621V13.337C37.8459 12.6285 37.2746 12.0518 36.5728 12.0518H27.6402C26.6634 12.0518 25.7535 12.5502 25.214 13.3762Z" fill="#6389C6"></path><path d="M14.0371 36.1432V31.5684H12.1504V37.9483H18.5651V36.1432H14.0371Z" fill="#A0B9E1"></path><path d="M31.4161 21.6354C33.1793 21.6354 34.6076 20.1935 34.6076 18.4134C34.6076 16.6333 33.1793 15.1914 31.4161 15.1914C29.6528 15.1914 28.2246 16.6333 28.2246 18.4134C28.2246 20.1935 29.6528 21.6354 31.4161 21.6354Z" fill="#AFC4E7"></path><path d="M25.7027 22.7319L18.8789 29.6209L20.4517 31.2088L27.2755 24.3198L25.7027 22.7319Z" fill="#7296CE"></path><path d="M19.0943 32.5834L20.452 31.2163L18.8792 29.6284L17.5215 30.9955L19.0943 32.5834Z" fill="#8BA9D9"></path></g></svg>