<svg xmlns="http://www.w3.org/2000/svg" width="50" height="50" viewBox="0 0 50 50" fill="none"><g style="mix-blend-mode:luminosity"><path d="M23.3476 42.9769C19.9778 42.734 16.6473 41.8858 14.6047 40.7503C13.4412 40.1035 12.5548 39.3087 12.2069 38.6002L12 38.1787V24.9575V11.7363L12.1638 11.4038C12.8956 9.91799 15.2311 8.57856 18.4914 7.77489C19.5981 7.50207 21.1958 7.23037 22.4992 7.09337C23.8302 6.95343 27.358 6.97472 28.6856 7.13091C32.2142 7.54547 35.2169 8.47358 37.0672 9.72169C37.7808 10.203 38.5131 10.9732 38.7611 11.5033L38.9738 11.9578L38.9556 25.139L38.9374 38.3203L38.7667 38.6672C38.6728 38.8579 38.3892 39.2332 38.1364 39.5011C36.5978 41.1322 33.2974 42.3388 28.9685 42.8528C28.0861 42.9576 24.2529 43.0422 23.3476 42.9769ZM29.5576 31.6481C29.5446 31.6143 29.0409 31.1655 28.4382 30.6508C27.8354 30.136 27.3163 29.6907 27.2846 29.6611C27.2528 29.6315 27.3642 29.5269 27.532 29.4285C27.6999 29.3301 28.0214 29.0564 28.2466 28.8203C28.9052 28.1297 29.2159 27.2767 29.2159 26.1594C29.2159 25.0595 28.8808 24.172 28.2096 23.4945C27.5331 22.8117 26.7564 22.5182 25.6254 22.5182C23.8819 22.5182 22.5429 23.5356 22.1156 25.1849C21.9685 25.7522 21.9693 26.8985 22.1171 27.4015C22.5025 28.7136 23.5522 29.6666 24.8586 29.8904C25.3006 29.9661 25.3605 29.9987 25.6619 30.3283C25.841 30.5241 26.2086 30.915 26.4787 31.1969L26.9699 31.7095H28.2755C28.9936 31.7095 29.5706 31.6819 29.5576 31.6481ZM25.08 27.9923C24.7656 27.8284 24.6468 27.7012 24.4676 27.3369C24.3291 27.0554 24.3055 26.8953 24.3039 26.2301C24.3024 25.5542 24.3239 25.4081 24.4684 25.1146C24.7049 24.6344 25.0308 24.407 25.535 24.3705C26.2367 24.3196 26.6418 24.664 26.8541 25.4917C27.1144 26.5065 26.8281 27.5854 26.2036 27.9435C25.876 28.1313 25.3873 28.1526 25.08 27.9923ZM19.2927 29.876C20.6616 29.6164 21.4387 28.8203 21.4387 27.6775C21.4387 26.6636 20.937 26.0729 19.5504 25.4539C18.7567 25.0995 18.4692 24.8771 18.4692 24.6173C18.4692 24.4019 18.742 24.1658 19.0597 24.1065C19.3698 24.0486 20.1923 24.1915 20.678 24.3877L21.0852 24.5522V23.651V22.7497L20.6433 22.6517C20.3702 22.5911 19.7963 22.5547 19.1409 22.5566C18.2124 22.5566 18.0306 22.5792 17.6813 22.7179C16.6607 23.1231 16.1764 23.8133 16.1841 24.8514C16.1914 25.8233 16.7041 26.4296 17.9801 26.975C18.733 27.2968 19.0348 27.5418 19.0348 27.8314C19.0348 28.4467 18.0095 28.5224 16.924 27.9873C16.6267 27.8407 16.3596 27.7089 16.3305 27.6943C16.3013 27.6797 16.2775 28.1006 16.2775 28.6298C16.2775 29.5876 16.2785 29.5922 16.4519 29.6583C17.1049 29.9065 18.5482 30.0172 19.2927 29.876ZM34.9427 28.9875V28.1744H33.7054H32.4681V25.3817V22.589H31.3723H30.2764V26.1948V29.8005H32.6096H34.9427V28.9875ZM27.3069 14.7392C29.4846 14.5882 31.117 14.303 32.5535 13.8227C33.9846 13.3443 34.83 12.7653 35.0191 12.1342C35.0919 11.8909 35.0867 11.7987 34.9849 11.532C34.5283 10.3366 31.9779 9.41812 28.0807 9.04572C26.4136 8.8864 23.3818 8.93805 21.7923 9.15276C19.3669 9.48046 17.3986 10.0892 16.5234 10.7821C14.753 12.1841 16.6252 13.726 20.9791 14.4518C22.867 14.7665 25.3128 14.8776 27.3069 14.7392Z" fill="#2E2E2E"></path></g></svg>