<svg xmlns="http://www.w3.org/2000/svg" width="50" height="50" viewBox="0 0 50 50" fill="none"><g style="mix-blend-mode:luminosity"><g clip-path="url(#clip0_57627_10747)"><path d="M29.8399 18.9785H30.9377L34.0668 15.8493L34.2202 14.5203C28.3964 9.37914 19.5084 9.93453 14.3675 15.7585C12.9392 17.375 11.9041 19.3005 11.3379 21.3837C11.6858 21.2411 12.0726 21.2173 12.4357 21.3189L18.6938 20.2859C18.6938 20.2859 19.0114 19.7586 19.1778 19.791C21.9611 16.7332 26.6461 16.3766 29.8616 18.9785H29.8399Z" fill="#EA4335"></path><path d="M38.5287 21.3822C37.8091 18.7328 36.3332 16.3513 34.2803 14.5317L29.8893 18.923C31.7433 20.4379 32.8001 22.7221 32.7547 25.1165V25.8967C34.9135 25.8967 36.6638 27.6471 36.6638 29.806C36.6638 31.9649 34.9135 33.7153 32.7547 33.7153H24.9364L24.1562 34.5063V39.1957L24.9364 39.9759H32.7547C38.3688 40.0191 42.9565 35.5025 42.9997 29.8881C43.0257 26.478 41.3466 23.2883 38.5287 21.3822Z" fill="#4285F4"></path><path d="M17.1019 39.9236H24.9203V33.6652H17.1019C16.5444 33.6652 15.9955 33.5442 15.4877 33.313L14.39 33.6544L11.2393 36.7836L10.9648 37.8814C12.7303 39.217 14.887 39.9344 17.1019 39.9236Z" fill="#34A853"></path><path d="M17.1069 19.6231C11.4906 19.6555 6.96776 24.2348 7.00017 29.8514C7.01962 32.987 8.48259 35.939 10.9698 37.8494L15.5035 33.3155C13.537 32.4273 12.6619 30.1107 13.55 28.1441C14.4382 26.1776 16.7547 25.3024 18.7212 26.1905C19.5877 26.5817 20.2814 27.2775 20.6747 28.1441L25.2083 23.6103C23.2808 21.0862 20.2814 19.6102 17.1069 19.6231Z" fill="#FBBC05"></path></g></g><defs><clipPath id="clip0_57627_10747"><rect width="36" height="36" fill="white" transform="translate(7 7)"></rect></clipPath></defs></svg>