<svg xmlns="http://www.w3.org/2000/svg" width="50" height="50" viewBox="0 0 50 50" fill="none"><g style="mix-blend-mode:luminosity"><path d="M24.8752 7.00317C24.557 7.0197 24.2451 7.10102 23.958 7.24237L11.4427 13.4054C11.1187 13.5649 10.8341 13.7968 10.6099 14.0842C10.3858 14.3715 10.2278 14.7067 10.1478 15.065L7.06013 28.9088C6.98883 29.2277 6.98085 29.5581 7.03666 29.8802C7.09247 30.2024 7.21094 30.5099 7.38506 30.7844C7.42728 30.8515 7.47268 30.9165 7.52111 30.9791L16.1838 42.0795C16.408 42.3667 16.6926 42.5986 17.0166 42.758C17.3405 42.9174 17.6954 43.0001 18.0549 43L31.9468 42.9967C32.3062 42.997 32.661 42.9145 32.9849 42.7554C33.3088 42.5964 33.5936 42.3648 33.818 42.0779L42.4774 30.9758C42.7017 30.6884 42.8598 30.353 42.9399 29.9946C43.02 29.6362 43.02 29.2639 42.94 28.9055L39.8475 15.0617C39.7675 14.7034 39.6095 14.3682 39.3854 14.0809C39.1612 13.7935 38.8766 13.5616 38.5526 13.4021L26.0357 7.24237C25.6745 7.06456 25.2755 6.98231 24.8752 7.00317Z" fill="#326CE5"></path><path d="M24.9998 11.7144C24.5861 11.7144 24.2507 12.0984 24.2507 12.5722C24.2507 12.5794 24.2522 12.5864 24.2523 12.5936C24.2517 12.658 24.2487 12.7355 24.2507 12.7916C24.2606 13.0648 24.3184 13.2739 24.3532 13.5257C24.4162 14.0645 24.469 14.5111 24.4364 14.9262C24.4047 15.0827 24.2928 15.2259 24.1931 15.3254L24.1755 15.6521C23.7259 15.6904 23.2734 15.7607 22.8214 15.8665C20.8763 16.3217 19.2016 17.3542 17.9266 18.7484C17.8439 18.6903 17.6991 18.5832 17.6561 18.5505C17.5224 18.5691 17.3872 18.6116 17.2111 18.5059C16.8759 18.2734 16.5706 17.9523 16.2011 17.5656C16.0318 17.3807 15.9092 17.2045 15.7081 17.0262C15.6624 16.9857 15.5927 16.9309 15.5417 16.8893C15.3844 16.7601 15.199 16.6927 15.0199 16.6864C14.7896 16.6782 14.5679 16.771 14.4228 16.9586C14.1649 17.2919 14.2475 17.8015 14.6069 18.0968C14.6105 18.0998 14.6144 18.1021 14.6181 18.1051C14.6675 18.1463 14.728 18.1992 14.7734 18.2337C14.9868 18.3961 15.1817 18.4793 15.3944 18.6082C15.8424 18.8934 16.2138 19.1298 16.5084 19.4149C16.6235 19.5413 16.6436 19.764 16.6589 19.8603L16.899 20.0813C15.6137 22.0748 15.0189 24.5372 15.3704 27.0461L15.0567 27.1402C14.974 27.2502 14.8571 27.4234 14.7349 27.475C14.3495 27.6002 13.9157 27.6461 13.392 27.7027C13.1461 27.7238 12.934 27.7112 12.6733 27.7621C12.6159 27.7733 12.536 27.7947 12.4732 27.8099C12.4711 27.8104 12.469 27.811 12.4668 27.8116C12.4634 27.8124 12.4589 27.8141 12.4556 27.8149C12.0141 27.9248 11.7305 28.3431 11.8218 28.7551C11.9131 29.1673 12.3444 29.418 12.7886 29.3193C12.7918 29.3186 12.7964 29.3184 12.7998 29.3177C12.8048 29.3165 12.8092 29.314 12.8142 29.3127C12.8761 29.2987 12.9537 29.2831 13.0079 29.2682C13.2641 29.1975 13.4497 29.0936 13.6801 29.0026C14.1758 28.8194 14.5863 28.6663 14.9862 28.6067C15.1533 28.5932 15.3293 28.7129 15.4168 28.7634L15.7433 28.7057C16.4947 31.1066 18.0695 33.0473 20.0635 34.265L19.9274 34.6015C19.9764 34.7322 20.0305 34.909 19.994 35.038C19.8486 35.4266 19.5996 35.8368 19.316 36.294C19.1786 36.5053 19.0381 36.6692 18.9142 36.911C18.8845 36.9688 18.8468 37.0577 18.8182 37.1188C18.6256 37.5434 18.7669 38.0324 19.1367 38.2159C19.5088 38.4005 19.9708 38.2057 20.1707 37.7803L20.1723 37.7787V37.7771C20.2008 37.7167 20.2411 37.6375 20.2651 37.5807C20.3713 37.3302 20.4066 37.1154 20.4812 36.873C20.6794 36.3599 20.7883 35.8216 21.0612 35.4861C21.1359 35.3942 21.2577 35.3589 21.384 35.324L21.5536 35.0073C23.292 35.695 25.2378 35.8795 27.1815 35.4247C27.6249 35.3209 28.053 35.1866 28.4668 35.0254C28.5145 35.1126 28.6031 35.2802 28.6269 35.3224C28.7552 35.3654 28.8953 35.3876 29.0094 35.5616C29.2135 35.921 29.3531 36.3462 29.5232 36.8598C29.5979 37.1022 29.6347 37.317 29.7409 37.5675C29.7651 37.6247 29.8052 37.7051 29.8337 37.7655C30.0332 38.1923 30.4966 38.3877 30.8693 38.2027C31.2391 38.0191 31.3805 37.5301 31.1879 37.1056C31.1592 37.0445 31.1199 36.9556 31.0902 36.8978C30.9663 36.656 30.8258 36.4937 30.6885 36.2825C30.4049 35.8252 30.1696 35.4454 30.0242 35.0568C29.9634 34.8564 30.0345 34.7317 30.0818 34.6015C30.0535 34.568 29.9928 34.3787 29.957 34.2897C32.0292 33.0287 33.5577 31.0157 34.2755 28.6908C34.3724 28.7065 34.5409 28.7372 34.5956 28.7486C34.7083 28.672 34.8119 28.5721 35.015 28.5885C35.4149 28.6482 35.8254 28.8013 36.3211 28.9845C36.5515 29.0754 36.7371 29.181 36.9934 29.2517C37.0475 29.2666 37.1251 29.2806 37.1871 29.2946C37.192 29.2958 37.1964 29.2984 37.2015 29.2995C37.2048 29.3003 37.2095 29.3004 37.2127 29.3012C37.6569 29.3997 38.0882 29.1492 38.1794 28.737C38.2707 28.3249 37.9872 27.9065 37.5456 27.7967C37.4814 27.7817 37.3903 27.7561 37.3279 27.7439C37.0672 27.6931 36.8551 27.7056 36.6092 27.6845C36.0855 27.628 35.6517 27.582 35.2663 27.4569C35.1091 27.3941 34.9973 27.2013 34.943 27.122L34.6404 27.0313C34.7973 25.8618 34.755 24.6446 34.4836 23.4268C34.2096 22.1976 33.7255 21.0735 33.0798 20.083C33.1574 20.0103 33.304 19.8765 33.3455 19.8372C33.3577 19.6987 33.3472 19.5534 33.4864 19.4C33.781 19.1149 34.1524 18.8785 34.6004 18.5934C34.8131 18.4644 35.0096 18.3813 35.2231 18.2189C35.2713 18.1822 35.3372 18.124 35.3879 18.082C35.7473 17.7866 35.83 17.277 35.572 16.9437C35.314 16.6104 34.8141 16.579 34.4548 16.8744C34.4036 16.9162 34.3342 16.9706 34.2883 17.0114C34.0872 17.1897 33.963 17.3658 33.7937 17.5508C33.4243 17.9375 33.1189 18.2601 32.7837 18.4927C32.6384 18.5799 32.4257 18.5497 32.3291 18.5439L32.0442 18.7534C30.4196 16.9976 28.2076 15.8751 25.8257 15.657C25.8191 15.5541 25.8104 15.3682 25.8081 15.3122C25.7106 15.2161 25.5928 15.134 25.5632 14.9262C25.5307 14.5111 25.5851 14.0645 25.6481 13.5257C25.6829 13.2739 25.7406 13.0648 25.7505 12.7916C25.7528 12.7295 25.7492 12.6393 25.7489 12.5722C25.7489 12.0984 25.4135 11.7143 24.9998 11.7144ZM24.0618 17.7026L23.8394 21.7524L23.8233 21.7607C23.8084 22.123 23.5191 22.4123 23.1639 22.4123C23.0184 22.4123 22.8841 22.3641 22.7749 22.282L22.7685 22.2853L19.5465 19.9312C20.5367 18.9276 21.8034 18.186 23.2631 17.8444C23.5298 17.782 23.7963 17.7357 24.0618 17.7026ZM25.9394 17.7026C27.6437 17.9186 29.2198 18.7139 30.4276 19.9329L27.2263 22.2721L27.2151 22.2671C26.931 22.481 26.5306 22.4279 26.3091 22.1417C26.2184 22.0245 26.1708 21.8866 26.1651 21.7475L26.1619 21.7458L25.9394 17.7026ZM18.378 21.4439L21.32 24.156L21.3168 24.1724C21.5823 24.4104 21.6215 24.8232 21.4 25.1094C21.3093 25.2267 21.1878 25.3053 21.0575 25.342L21.0542 25.3552L17.2832 26.477C17.0912 24.6682 17.5049 22.9099 18.378 21.4439ZM31.6008 21.4456C32.038 22.1758 32.369 22.9914 32.566 23.8755C32.7607 24.7491 32.8096 25.6211 32.7293 26.4638L28.939 25.3387L28.9358 25.3222C28.5964 25.2266 28.3878 24.8708 28.4668 24.5139C28.4992 24.3677 28.5745 24.244 28.6765 24.1527L28.6749 24.1444L31.6008 21.4456ZM24.3964 24.3655H25.6017L26.3508 25.3305L26.0818 26.5347L24.9998 27.0709L23.9146 26.5331L23.6457 25.3288L24.3964 24.3655ZM28.2603 27.668C28.3115 27.6654 28.3625 27.6701 28.4124 27.6796L28.4188 27.6713L32.3195 28.351C31.7486 30.004 30.6563 31.436 29.1967 32.3943L27.6825 28.6248L27.6873 28.6182C27.5482 28.2851 27.6874 27.8945 28.0074 27.7357C28.0893 27.695 28.1749 27.6725 28.2603 27.668ZM21.7089 27.6845C22.0066 27.6888 22.2736 27.9018 22.3428 28.2141C22.3751 28.3603 22.3594 28.5051 22.3059 28.6331L22.3172 28.6479L20.819 32.3794C19.4182 31.453 18.3025 30.066 17.7057 28.3642L21.5729 27.6878L21.5793 27.6961C21.6225 27.6879 21.6664 27.6839 21.7089 27.6845ZM24.9758 29.3193C25.0795 29.3154 25.1847 29.3373 25.2847 29.387C25.4158 29.452 25.5171 29.5545 25.5808 29.6773H25.5953L27.5016 33.2273C27.2542 33.3128 26.9999 33.3859 26.7397 33.4467C25.2817 33.7879 23.8284 33.6845 22.5124 33.2224L24.414 29.679H24.4172C24.5313 29.4591 24.7477 29.328 24.9758 29.3193Z" fill="white" stroke="white" stroke-width="0.0128211"></path></g></svg>