<svg xmlns="http://www.w3.org/2000/svg" width="50" height="50" viewBox="0 0 50 50" fill="none"><g style="mix-blend-mode:luminosity"><path d="M41.7991 8H8.20086C7.88237 8 7.57693 8.12651 7.35172 8.35171C7.12652 8.5769 7 8.88232 7 9.2008V30.7997C7 31.4605 7.53743 31.9979 8.20086 31.9979H41.7991C42.1172 31.9979 42.4222 31.8717 42.6474 31.6471C42.8725 31.4225 42.9993 31.1177 43 30.7997V9.2008C43 9.0431 42.9689 8.88696 42.9086 8.74127C42.8482 8.59558 42.7598 8.46321 42.6483 8.35171C42.5368 8.2402 42.4044 8.15175 42.2587 8.0914C42.113 8.03106 41.9568 8 41.7991 8Z" fill="url(#paint0_linear_57627_10823)"></path><path d="M30.9991 16.5005V23.479L25 26.9991V20L30.9991 16.5005Z" fill="#4DDBFB"></path><path d="M30.9983 16.5021L24.9991 20.0196L19 16.5021L24.9991 13L30.9983 16.5021Z" fill="#C3F1FF"></path><path d="M24.9991 20.018V27.0017L19 23.479V16.5005L24.9991 20.018Z" fill="#9CEBFF"></path><path d="M19 23.4809L24.9991 20.002V27.001L19 23.4809Z" fill="#C3F1FF"></path><path opacity="0.43" d="M30.9991 23.4809L25 20.002V27.001L30.9991 23.4809Z" fill="#9CEBFF"></path><path d="M32.22 39.2608C28.6585 38.7003 28.5171 36.1393 28.5171 31.9995H21.4611C21.4611 36.1393 21.3428 38.7003 17.784 39.2608C17.2926 39.3149 16.8386 39.5489 16.5095 39.9178C16.1805 40.2867 15.9997 40.7644 16.002 41.2587H34.002C34.0049 40.7647 33.8247 40.287 33.4961 39.918C33.1674 39.549 32.7137 39.3149 32.2225 39.2608H32.22Z" fill="url(#paint1_linear_57627_10823)"></path></g><defs><linearGradient id="paint0_linear_57627_10823" x1="25" y1="31.9979" x2="25" y2="8" gradientUnits="userSpaceOnUse"><stop stop-color="#0379D5"></stop><stop offset="0.680121" stop-color="#4E99EB"></stop><stop offset="0.82" stop-color="#5EA0EF"></stop></linearGradient><linearGradient id="paint1_linear_57627_10823" x1="24.9994" y1="41.2587" x2="24.9994" y2="31.9995" gradientUnits="userSpaceOnUse"><stop offset="0.15" stop-color="#CCCCCC"></stop><stop offset="1" stop-color="#707070"></stop></linearGradient></defs></svg>