<svg fill="none" height="556" viewBox="0 0 450 556" width="450" xmlns="http://www.w3.org/2000/svg" xmlns:xlink="http://www.w3.org/1999/xlink"><linearGradient id="a"><stop offset="0" stop-color="#4a6cf7"/><stop offset="1" stop-color="#4a6cf7" stop-opacity="0"/></linearGradient><linearGradient id="b" gradientUnits="userSpaceOnUse" x1="-54.5003" x2="222" xlink:href="#a" y1="-178" y2="288"/><linearGradient id="c"><stop offset=".145833" stop-color="#4a6cf7" stop-opacity="0"/><stop offset="1" stop-color="#4a6cf7" stop-opacity=".08"/></linearGradient><radialGradient id="d" cx="0" cy="0" gradientTransform="matrix(0 18 -18 0 17.9997 182)" gradientUnits="userSpaceOnUse" r="1" xlink:href="#c"/><radialGradient id="e" cx="0" cy="0" gradientTransform="matrix(0 34 -34 0 76.9997 288)" gradientUnits="userSpaceOnUse" r="1" xlink:href="#c"/><linearGradient id="f" gradientUnits="userSpaceOnUse" x1="226.775" x2="292.157" xlink:href="#a" y1="-66.1548" y2="351.421"/><linearGradient id="g"><stop offset="0" stop-color="#4a6cf7"/><stop offset="1" stop-color="#fff" stop-opacity="0"/></linearGradient><linearGradient id="h" gradientUnits="userSpaceOnUse" x1="184.521" x2="184.521" xlink:href="#g" y1="182.159" y2="448.882"/><linearGradient id="i" gradientUnits="userSpaceOnUse" x1="356" x2="356" xlink:href="#g" y1="110" y2="470"/><linearGradient id="j" gradientUnits="userSpaceOnUse" x1="118.524" x2="166.965" xlink:href="#a" y1="29.2497" y2="338.63"/><circle cx="277" cy="63" fill="url(#b)" r="225"/><circle cx="17.9997" cy="182" fill="url(#d)" r="18"/><circle cx="76.9997" cy="288" fill="url(#e)" r="34"/><circle cx="325.486" cy="302.87" fill="url(#f)" r="180" transform="matrix(.79138147 -.61132264 .61132264 .79138147 -117.248877 262.161255)"/><circle cx="184.521" cy="315.521" opacity=".8" r="132.862" stroke="url(#h)" transform="matrix(-.42062417 .90723498 -.90723498 -.42062417 548.38668 280.832852)"/><circle cx="356" cy="290" opacity=".8" r="179.5" stroke="url(#i)" transform="matrix(.8660254 -.5 .5 .8660254 -97.305044 216.852633)"/><circle cx="191.659" cy="302.659" fill="url(#j)" opacity=".8" r="133.362" transform="matrix(-.68605965 .72754529 -.72754529 -.68605965 543.346638 370.860526)"/></svg>