<svg fill="none" height="201" viewBox="0 0 364 201" width="364" xmlns="http://www.w3.org/2000/svg" xmlns:xlink="http://www.w3.org/1999/xlink"><linearGradient id="a"><stop offset="0" stop-color="#4a6cf7" stop-opacity="0"/><stop offset="1" stop-color="#4a6cf7"/></linearGradient><linearGradient id="b" gradientUnits="userSpaceOnUse" x1="184.389" x2="184.389" xlink:href="#a" y1="69.2405" y2="212.24"/><linearGradient id="c" gradientUnits="userSpaceOnUse" x1="156.389" x2="156.389" xlink:href="#a" y1="69.2405" y2="212.24"/><linearGradient id="d" gradientUnits="userSpaceOnUse" x1="125.389" x2="125.389" xlink:href="#a" y1="69.2405" y2="212.24"/><linearGradient id="e" gradientUnits="userSpaceOnUse" x1="93.8507" x2="89.9278" xlink:href="#a" y1="67.2674" y2="210.214"/><linearGradient id="f" gradientUnits="userSpaceOnUse" x1="214.505" x2="212.684" y1="10.2849" y2="99.5816"><stop offset="0" stop-color="#4a6cf7"/><stop offset="1" stop-color="#4a6cf7" stop-opacity="0"/></linearGradient><radialGradient id="g" cx="0" cy="0" gradientTransform="matrix(0 43 -43 0 220 63)" gradientUnits="userSpaceOnUse" r="1"><stop offset=".145833" stop-color="#fff" stop-opacity="0"/><stop offset="1" stop-color="#fff" stop-opacity=".08"/></radialGradient><path d="m5.88928 72.3303c27.77062-5.8505 95.50772-7.4217 144.28872 33.0967 60.977 50.649 79.412 56.666 114.155 61.18 34.743 4.513 73.385 17.05 98.556 45.633" stroke="url(#b)"/><path d="m-22.1107 72.3303c27.77059-5.8505 95.5072-7.4217 144.2887 33.0967 60.977 50.649 79.412 56.666 114.155 61.18 34.743 4.513 73.385 17.05 98.556 45.633" stroke="url(#c)"/><path d="m-53.1107 72.3303c27.7706-5.8505 95.5072-7.4217 144.289 33.0967 60.9767 50.649 79.4117 56.666 114.1547 61.18 34.743 4.513 73.385 17.05 98.556 45.633" stroke="url(#d)"/><path d="m-98.1618 65.0889c30.0202-5.0288 102.89544-4.6007 154.2352 37.3421 64.1746 52.429 83.8316 58.988 121.0636 64.525 37.233 5.537 78.438 19.209 104.719 48.525" stroke="url(#e)"/><circle cx="214.505" cy="60.5054" opacity=".8" r="49.7205" stroke="url(#f)" transform="matrix(.97269087 -.23210443 .23210443 .97269087 -8.185627 51.43991)"/><circle cx="220" cy="63" fill="url(#g)" r="43"/></svg>