<svg width="500" height="480" viewBox="0 0 500 480" fill="none" xmlns="http://www.w3.org/2000/svg">
<rect opacity="0.05" x="330" y="310" width="170" height="170" rx="2" fill="#4A6CF7"/>
<rect x="362" y="365.831" width="80.7651" height="80.7651" rx="2" transform="rotate(-13.9128 362 365.831)" fill="#4A6CF7"/>
<path d="M412.572 402.039C411.235 402.37 409.822 402.156 408.643 401.445C407.464 400.734 406.615 399.584 406.284 398.247C405.818 396.366 406.435 394.466 407.718 393.239L421.691 379.757L416.388 398.152C415.956 400.006 414.538 401.552 412.572 402.039ZM407.162 380.2C410.203 379.447 413.25 379.583 416.061 380.349L413.037 383.256C411.434 383.047 409.675 383.144 407.995 383.56C404.43 384.443 401.363 386.705 399.467 389.85C397.571 392.995 397.002 396.764 397.884 400.328C398.804 404.041 401.131 407.03 404.167 408.846L404.183 408.842C405.001 409.334 405.263 410.393 404.77 411.21C404.277 412.028 403.202 412.294 402.389 411.818C398.595 409.531 395.673 405.797 394.525 401.16C393.421 396.705 394.132 391.994 396.502 388.063C398.873 384.132 402.707 381.304 407.162 380.2V380.2ZM428.123 392.838C429.271 397.474 428.43 402.14 426.143 405.934C425.646 406.735 424.587 406.997 423.77 406.504C422.952 406.011 422.69 404.953 423.183 404.135C425.016 401.096 425.683 397.382 424.763 393.67C424.347 391.99 423.612 390.389 422.649 389.023L423.808 384.992C425.826 387.166 427.365 389.78 428.123 392.838Z" fill="white"/>
<rect width="300" height="480" rx="2" fill="#151A3E"/>
<rect opacity="0.35" x="35" y="35" width="230" height="134" rx="2" fill="#4A6CF7"/>
<rect opacity="0.1" x="35" y="194" width="230" height="27" rx="2" fill="white"/>
<rect opacity="0.1" x="35" y="246" width="137" height="199" rx="2" fill="white"/>
<rect opacity="0.08" x="187" y="246" width="78" height="64" rx="2" fill="white"/>
<rect opacity="0.2" x="187" y="322" width="78" height="55" rx="2" fill="white"/>
<rect opacity="0.2" x="187" y="389" width="78" height="56" rx="2" fill="#4A6CF7"/>
<path d="M377.423 371.629C377.607 371.835 377.923 371.852 378.129 371.667C378.334 371.483 378.351 371.167 378.167 370.961L377.423 371.629ZM378.835 235.674C379.01 235.46 378.979 235.145 378.766 234.97C378.552 234.795 378.237 234.826 378.062 235.039L378.835 235.674ZM377.416 235.832C377.242 236.047 377.275 236.362 377.49 236.535C377.705 236.709 378.02 236.676 378.193 236.461L377.416 235.832ZM376.938 238.036C377.109 237.818 377.071 237.504 376.854 237.333C376.636 237.163 376.322 237.201 376.152 237.418L376.938 238.036ZM374.924 239.004C374.757 239.223 374.799 239.537 375.019 239.704C375.239 239.872 375.552 239.829 375.72 239.61L374.924 239.004ZM374.533 241.19C374.697 240.968 374.65 240.655 374.428 240.491C374.206 240.327 373.893 240.374 373.729 240.596L374.533 241.19ZM372.531 242.242C372.37 242.467 372.422 242.779 372.647 242.94C372.871 243.101 373.184 243.049 373.344 242.824L372.531 242.242ZM372.194 244.458C372.352 244.231 372.295 243.919 372.068 243.762C371.841 243.605 371.529 243.661 371.372 243.888L372.194 244.458ZM370.252 245.533C370.098 245.763 370.16 246.073 370.389 246.227C370.618 246.381 370.929 246.319 371.083 246.09L370.252 245.533ZM369.976 247.772C370.125 247.54 370.059 247.231 369.827 247.081C369.595 246.931 369.286 246.997 369.136 247.229L369.976 247.772ZM368.054 248.933C367.908 249.167 367.979 249.476 368.214 249.622C368.448 249.768 368.757 249.696 368.903 249.462L368.054 248.933ZM367.869 251.15C368.012 250.913 367.935 250.606 367.698 250.464C367.462 250.322 367.154 250.398 367.012 250.635L367.869 251.15ZM365.985 252.378C365.847 252.617 365.929 252.923 366.168 253.061C366.407 253.199 366.713 253.117 366.851 252.878L365.985 252.378ZM365.864 254.621C365.998 254.38 365.911 254.075 365.67 253.941C365.428 253.807 365.124 253.894 364.99 254.136L365.864 254.621ZM364.036 255.892C363.906 256.136 363.998 256.438 364.242 256.568C364.486 256.698 364.788 256.605 364.918 256.362L364.036 255.892ZM363.993 258.138C364.118 257.892 364.021 257.591 363.775 257.465C363.528 257.34 363.227 257.438 363.102 257.684L363.993 258.138ZM362.201 259.492C362.08 259.741 362.183 260.04 362.432 260.161C362.68 260.282 362.979 260.178 363.1 259.93L362.201 259.492ZM362.249 261.719C362.366 261.468 362.257 261.171 362.006 261.055C361.756 260.938 361.459 261.047 361.342 261.298L362.249 261.719ZM360.507 263.14C360.396 263.393 360.51 263.688 360.763 263.8C361.015 263.911 361.31 263.797 361.422 263.544L360.507 263.14ZM360.631 265.381C360.738 265.126 360.618 264.833 360.363 264.726C360.109 264.619 359.816 264.739 359.709 264.994L360.631 265.381ZM358.953 266.843C358.851 267.1 358.977 267.391 359.233 267.493C359.49 267.595 359.781 267.469 359.883 267.213L358.953 266.843ZM359.159 269.086C359.256 268.828 359.125 268.54 358.866 268.443C358.608 268.346 358.32 268.477 358.223 268.735L359.159 269.086ZM357.534 270.629C357.442 270.889 357.578 271.175 357.839 271.266C358.099 271.358 358.385 271.222 358.477 270.961L357.534 270.629ZM357.836 272.836C357.922 272.574 357.78 272.291 357.518 272.204C357.256 272.117 356.973 272.26 356.886 272.522L357.836 272.836ZM356.268 274.455C356.186 274.718 356.334 274.998 356.598 275.08C356.862 275.161 357.142 275.014 357.223 274.75L356.268 274.455ZM356.655 276.657C356.731 276.391 356.578 276.114 356.312 276.038C356.047 275.962 355.77 276.116 355.694 276.381L356.655 276.657ZM355.158 278.32C355.088 278.587 355.247 278.861 355.513 278.931C355.78 279.002 356.054 278.843 356.125 278.576L355.158 278.32ZM355.631 280.517C355.697 280.248 355.532 279.978 355.264 279.913C354.995 279.847 354.725 280.012 354.66 280.28L355.631 280.517ZM354.205 282.232C354.145 282.502 354.315 282.769 354.585 282.829C354.855 282.889 355.122 282.719 355.181 282.449L354.205 282.232ZM354.768 284.408C354.822 284.137 354.646 283.874 354.376 283.819C354.105 283.765 353.841 283.941 353.787 284.211L354.768 284.408ZM353.412 286.191C353.363 286.463 353.544 286.723 353.816 286.772C354.087 286.82 354.347 286.64 354.396 286.368L353.412 286.191ZM354.066 288.327C354.109 288.054 353.923 287.798 353.65 287.755C353.377 287.712 353.121 287.898 353.078 288.171L354.066 288.327ZM352.783 290.174C352.746 290.447 352.938 290.699 353.211 290.737C353.485 290.774 353.737 290.583 353.774 290.309L352.783 290.174ZM353.526 292.281C353.558 292.006 353.361 291.758 353.087 291.727C352.812 291.695 352.564 291.892 352.533 292.166L353.526 292.281ZM352.322 294.174C352.296 294.449 352.498 294.693 352.773 294.719C353.048 294.745 353.292 294.543 353.317 294.268L352.322 294.174ZM353.151 296.257C353.171 295.981 352.964 295.742 352.689 295.722C352.413 295.701 352.174 295.908 352.153 296.184L353.151 296.257ZM352.027 298.188C352.013 298.464 352.224 298.699 352.5 298.714C352.776 298.728 353.011 298.517 353.026 298.241L352.027 298.188ZM352.941 300.241C352.95 299.965 352.733 299.734 352.457 299.725C352.181 299.717 351.95 299.933 351.942 300.209L352.941 300.241ZM351.899 302.217C351.895 302.493 352.117 302.719 352.393 302.722C352.669 302.725 352.895 302.504 352.898 302.228L351.899 302.217ZM352.897 304.228C352.894 303.952 352.668 303.73 352.392 303.733C352.116 303.736 351.894 303.962 351.897 304.238L352.897 304.228ZM351.936 306.251C351.945 306.527 352.175 306.744 352.451 306.736C352.727 306.728 352.944 306.497 352.936 306.221L351.936 306.251ZM353.016 308.212C353.002 307.937 352.767 307.724 352.491 307.738C352.216 307.752 352.003 307.987 352.017 308.263L353.016 308.212ZM352.139 310.278C352.158 310.553 352.398 310.761 352.673 310.741C352.948 310.722 353.156 310.483 353.137 310.207L352.139 310.278ZM353.297 312.188C353.272 311.913 353.028 311.71 352.753 311.735C352.478 311.76 352.276 312.003 352.301 312.278L353.297 312.188ZM352.504 314.291C352.535 314.566 352.782 314.764 353.056 314.733C353.331 314.702 353.528 314.455 353.498 314.181L352.504 314.291ZM353.737 316.155C353.701 315.881 353.45 315.689 353.177 315.725C352.903 315.76 352.71 316.012 352.746 316.285L353.737 316.155ZM353.029 318.286C353.07 318.559 353.325 318.746 353.598 318.705C353.871 318.664 354.059 318.409 354.018 318.136L353.029 318.286ZM354.335 320.103C354.289 319.831 354.03 319.648 353.758 319.695C353.486 319.742 353.303 320 353.35 320.272L354.335 320.103ZM353.71 322.255C353.762 322.526 354.024 322.704 354.295 322.652C354.566 322.6 354.744 322.338 354.692 322.067L353.71 322.255ZM355.087 324.024C355.03 323.754 354.764 323.581 354.494 323.639C354.224 323.696 354.052 323.961 354.109 324.231L355.087 324.024ZM354.544 326.194C354.607 326.463 354.875 326.631 355.144 326.569C355.413 326.506 355.581 326.238 355.518 325.969L354.544 326.194ZM355.989 327.913C355.921 327.645 355.649 327.483 355.382 327.55C355.114 327.618 354.952 327.889 355.019 328.157L355.989 327.913ZM355.528 330.098C355.6 330.365 355.875 330.522 356.141 330.45C356.408 330.377 356.565 330.102 356.493 329.836L355.528 330.098ZM357.037 331.764C356.959 331.499 356.682 331.347 356.417 331.425C356.152 331.502 356 331.78 356.077 332.045L357.037 331.764ZM356.657 333.964C356.74 334.227 357.02 334.374 357.284 334.292C357.547 334.209 357.694 333.929 357.612 333.665L356.657 333.964ZM358.228 335.574C358.141 335.312 357.858 335.171 357.596 335.258C357.334 335.345 357.192 335.628 357.279 335.89L358.228 335.574ZM357.93 337.788C358.023 338.048 358.308 338.184 358.569 338.092C358.829 338 358.965 337.715 358.873 337.454L357.93 337.788ZM359.559 339.338C359.462 339.079 359.174 338.948 358.915 339.045C358.656 339.142 358.525 339.43 358.622 339.688L359.559 339.338ZM359.343 341.561C359.444 341.818 359.734 341.944 359.991 341.843C360.248 341.741 360.374 341.451 360.273 341.194L359.343 341.561ZM361.026 343.051C360.92 342.796 360.627 342.675 360.372 342.781C360.117 342.887 359.996 343.18 360.103 343.435L361.026 343.051ZM360.89 345.28C361.001 345.533 361.296 345.649 361.549 345.538C361.802 345.427 361.917 345.132 361.807 344.879L360.89 345.28ZM362.627 346.708C362.511 346.457 362.214 346.347 361.963 346.462C361.713 346.578 361.603 346.875 361.718 347.126L362.627 346.708ZM362.571 348.94C362.691 349.189 362.99 349.293 363.239 349.174C363.488 349.054 363.592 348.755 363.472 348.506L362.571 348.94ZM364.359 350.305C364.235 350.059 363.934 349.96 363.687 350.084C363.441 350.208 363.342 350.509 363.466 350.756L364.359 350.305ZM364.383 352.535C364.512 352.779 364.814 352.873 365.059 352.744C365.303 352.615 365.397 352.313 365.268 352.069L364.383 352.535ZM366.221 353.837C366.088 353.595 365.784 353.507 365.542 353.641C365.3 353.774 365.212 354.078 365.345 354.32L366.221 353.837ZM366.328 356.064C366.465 356.304 366.771 356.386 367.01 356.248C367.25 356.111 367.332 355.805 367.194 355.566L366.328 356.064ZM368.212 357.296C368.07 357.06 367.763 356.983 367.526 357.125C367.289 357.268 367.213 357.575 367.355 357.811L368.212 357.296ZM368.406 359.524C368.553 359.758 368.862 359.828 369.096 359.681C369.33 359.535 369.4 359.226 369.254 358.992L368.406 359.524ZM370.332 360.674C370.18 360.443 369.87 360.378 369.639 360.53C369.408 360.681 369.344 360.991 369.495 361.222L370.332 360.674ZM370.619 362.9C370.775 363.128 371.086 363.186 371.314 363.03C371.542 362.874 371.6 362.563 371.444 362.335L370.619 362.9ZM372.579 363.957C372.418 363.732 372.106 363.68 371.882 363.841C371.657 364.002 371.605 364.314 371.766 364.539L372.579 363.957ZM372.967 366.179C373.132 366.4 373.446 366.445 373.667 366.279C373.888 366.113 373.933 365.8 373.767 365.579L372.967 366.179ZM374.979 367.158C374.808 366.941 374.494 366.903 374.277 367.074C374.06 367.245 374.022 367.559 374.193 367.776L374.979 367.158ZM375.452 369.339C375.628 369.551 375.943 369.581 376.156 369.405C376.368 369.23 376.398 368.914 376.223 368.702L375.452 369.339ZM377.521 370.232C377.34 370.023 377.024 370.002 376.816 370.183C376.608 370.365 376.586 370.681 376.768 370.889L377.521 370.232ZM378.062 235.039C377.845 235.304 377.63 235.568 377.416 235.832L378.193 236.461C378.406 236.199 378.619 235.936 378.835 235.674L378.062 235.039ZM376.152 237.418C375.736 237.946 375.327 238.475 374.924 239.004L375.72 239.61C376.12 239.085 376.526 238.56 376.938 238.036L376.152 237.418ZM373.729 240.596C373.323 241.145 372.924 241.694 372.531 242.242L373.344 242.824C373.734 242.28 374.13 241.735 374.533 241.19L373.729 240.596ZM371.372 243.888C370.992 244.437 370.619 244.985 370.252 245.533L371.083 246.09C371.447 245.546 371.817 245.002 372.194 244.458L371.372 243.888ZM369.136 247.229C368.768 247.797 368.408 248.365 368.054 248.933L368.903 249.462C369.254 248.899 369.611 248.336 369.976 247.772L369.136 247.229ZM367.012 250.635C366.663 251.216 366.321 251.797 365.985 252.378L366.851 252.878C367.184 252.302 367.523 251.726 367.869 251.15L367.012 250.635ZM364.99 254.136C364.665 254.722 364.347 255.307 364.036 255.892L364.918 256.362C365.227 255.782 365.542 255.202 365.864 254.621L364.99 254.136ZM363.102 257.684C362.795 258.287 362.494 258.89 362.201 259.492L363.1 259.93C363.391 259.333 363.688 258.736 363.993 258.138L363.102 257.684ZM361.342 261.298C361.057 261.912 360.778 262.527 360.507 263.14L361.422 263.544C361.691 262.937 361.966 262.328 362.249 261.719L361.342 261.298ZM359.709 264.994C359.45 265.611 359.198 266.228 358.953 266.843L359.883 267.213C360.125 266.603 360.374 265.992 360.631 265.381L359.709 264.994ZM358.223 268.735C357.986 269.367 357.756 269.998 357.534 270.629L358.477 270.961C358.697 270.337 358.924 269.712 359.159 269.086L358.223 268.735ZM356.886 272.522C356.673 273.167 356.467 273.811 356.268 274.455L357.223 274.75C357.42 274.113 357.624 273.475 357.836 272.836L356.886 272.522ZM355.694 276.381C355.508 277.028 355.33 277.675 355.158 278.32L356.125 278.576C356.294 277.938 356.471 277.298 356.655 276.657L355.694 276.381ZM354.66 280.28C354.501 280.932 354.349 281.583 354.205 282.232L355.181 282.449C355.324 281.806 355.474 281.162 355.631 280.517L354.66 280.28ZM353.787 284.211C353.655 284.873 353.529 285.533 353.412 286.191L354.396 286.368C354.513 285.716 354.636 285.063 354.768 284.408L353.787 284.211ZM353.078 288.171C352.973 288.84 352.874 289.508 352.783 290.174L353.774 290.309C353.864 289.65 353.961 288.989 354.066 288.327L353.078 288.171ZM352.533 292.166C352.455 292.837 352.385 293.507 352.322 294.174L353.317 294.268C353.38 293.608 353.449 292.945 353.526 292.281L352.533 292.166ZM352.153 296.184C352.104 296.854 352.062 297.522 352.027 298.188L353.026 298.241C353.06 297.582 353.102 296.92 353.151 296.257L352.153 296.184ZM351.942 300.209C351.92 300.881 351.906 301.55 351.899 302.217L352.898 302.228C352.906 301.568 352.92 300.906 352.941 300.241L351.942 300.209ZM351.897 304.238C351.903 304.911 351.916 305.583 351.936 306.251L352.936 306.221C352.916 305.559 352.903 304.895 352.897 304.228L351.897 304.238ZM352.017 308.263C352.051 308.937 352.092 309.609 352.139 310.278L353.137 310.207C353.09 309.545 353.049 308.88 353.016 308.212L352.017 308.263ZM352.301 312.278C352.362 312.952 352.43 313.623 352.504 314.291L353.498 314.181C353.424 313.519 353.357 312.855 353.297 312.188L352.301 312.278ZM352.746 316.285C352.834 316.956 352.928 317.622 353.029 318.286L354.018 318.136C353.918 317.479 353.825 316.819 353.737 316.155L352.746 316.285ZM353.35 320.272C353.464 320.937 353.584 321.598 353.71 322.255L354.692 322.067C354.567 321.416 354.448 320.761 354.335 320.103L353.35 320.272ZM354.109 324.231C354.248 324.89 354.393 325.544 354.544 326.194L355.518 325.969C355.369 325.324 355.225 324.676 355.087 324.024L354.109 324.231ZM355.019 328.157C355.183 328.809 355.353 329.456 355.528 330.098L356.493 329.836C356.319 329.199 356.151 328.558 355.989 327.913L355.019 328.157ZM356.077 332.045C356.265 332.689 356.459 333.329 356.657 333.964L357.612 333.665C357.415 333.036 357.223 332.403 357.037 331.764L356.077 332.045ZM357.279 335.89C357.492 336.528 357.709 337.16 357.93 337.788L358.873 337.454C358.654 336.833 358.438 336.206 358.228 335.574L357.279 335.89ZM358.622 339.688C358.858 340.318 359.098 340.943 359.343 341.561L360.273 341.194C360.03 340.581 359.792 339.962 359.559 339.338L358.622 339.688ZM360.103 343.435C360.361 344.056 360.624 344.671 360.89 345.28L361.807 344.879C361.542 344.276 361.282 343.666 361.026 343.051L360.103 343.435ZM361.718 347.126C361.999 347.737 362.283 348.342 362.571 348.94L363.472 348.506C363.187 347.914 362.905 347.314 362.627 346.708L361.718 347.126ZM363.466 350.756C363.769 351.356 364.075 351.949 364.383 352.535L365.268 352.069C364.962 351.488 364.659 350.901 364.359 350.305L363.466 350.756ZM365.345 354.32C365.67 354.91 365.998 355.491 366.328 356.064L367.194 355.566C366.868 354.998 366.543 354.422 366.221 353.837L365.345 354.32ZM367.355 357.811C367.704 358.392 368.054 358.962 368.406 359.524L369.254 358.992C368.905 358.436 368.558 357.871 368.212 357.296L367.355 357.811ZM369.495 361.222C369.869 361.792 370.244 362.352 370.619 362.9L371.444 362.335C371.073 361.792 370.702 361.238 370.332 360.674L369.495 361.222ZM371.766 364.539C372.166 365.098 372.567 365.645 372.967 366.179L373.767 365.579C373.372 365.051 372.975 364.511 372.579 363.957L371.766 364.539ZM374.193 367.776C374.614 368.312 375.034 368.833 375.452 369.339L376.223 368.702C375.81 368.202 375.395 367.688 374.979 367.158L374.193 367.776ZM376.768 370.889C376.987 371.14 377.205 371.387 377.423 371.629L378.167 370.961C377.953 370.723 377.737 370.479 377.521 370.232L376.768 370.889Z" fill="url(#paint0_linear_50_445)"/>
<path d="M375.753 233.513L380.883 233V237.617" stroke="url(#paint1_linear_50_445)" stroke-linecap="round" stroke-linejoin="round" stroke-dasharray="2 2"/>
<rect x="330" width="170" height="280" rx="2" fill="#0C133E" fill-opacity="0.6"/>
<rect x="384" y="213" width="69" height="19.5283" rx="9.76415" fill="#36A269"/>
<path d="M399.37 219.509V223.177C399.37 223.948 398.838 224.502 397.972 224.502C397.109 224.502 396.574 223.948 396.574 223.177V219.509H395.717V223.246C395.717 224.439 396.61 225.285 397.972 225.285C399.334 225.285 400.23 224.439 400.23 223.246V219.509H399.37Z" fill="white"/>
<path d="M401.41 226.788H402.239V224.527H402.289C402.439 224.799 402.744 225.274 403.521 225.274C404.553 225.274 405.302 224.447 405.302 223.068C405.302 221.687 404.541 220.874 403.512 220.874C402.722 220.874 402.436 221.357 402.289 221.62H402.22V220.93H401.41V226.788ZM402.222 223.06C402.222 222.17 402.611 221.579 403.335 221.579C404.087 221.579 404.464 222.214 404.464 223.06C404.464 223.914 404.075 224.566 403.335 224.566C402.622 224.566 402.222 223.956 402.222 223.06Z" fill="white"/>
<path d="M407.826 225.274C408.602 225.274 408.908 224.799 409.057 224.527H409.127V225.19H409.937V219.509H409.107V221.62H409.057C408.908 221.357 408.625 220.874 407.831 220.874C406.802 220.874 406.045 221.687 406.045 223.068C406.045 224.447 406.791 225.274 407.826 225.274ZM408.009 224.566C407.268 224.566 406.883 223.914 406.883 223.06C406.883 222.214 407.26 221.579 408.009 221.579C408.733 221.579 409.121 222.17 409.121 223.06C409.121 223.956 408.725 224.566 408.009 224.566Z" fill="white"/>
<path d="M412.36 225.285C413.065 225.285 413.462 224.927 413.62 224.608H413.653V225.19H414.463V222.361C414.463 221.121 413.487 220.874 412.81 220.874C412.039 220.874 411.329 221.185 411.051 221.962L411.831 222.139C411.953 221.837 412.263 221.545 412.821 221.545C413.356 221.545 413.631 221.826 413.631 222.308V222.328C413.631 222.63 413.32 222.624 412.555 222.713C411.747 222.808 410.921 223.018 410.921 223.986C410.921 224.824 411.55 225.285 412.36 225.285ZM412.541 224.619C412.072 224.619 411.734 224.408 411.734 223.998C411.734 223.554 412.127 223.396 412.607 223.332C412.876 223.296 413.514 223.224 413.634 223.104V223.654C413.634 224.158 413.231 224.619 412.541 224.619Z" fill="white"/>
<path d="M417.557 220.93H416.683V219.909H415.853V220.93H415.229V221.595H415.853V224.111C415.851 224.885 416.442 225.26 417.096 225.246C417.36 225.243 417.537 225.193 417.634 225.157L417.485 224.472C417.429 224.483 417.326 224.508 417.193 224.508C416.924 224.508 416.683 224.419 416.683 223.939V221.595H417.557V220.93Z" fill="white"/>
<path d="M420.265 225.276C421.194 225.276 421.851 224.819 422.04 224.125L421.255 223.984C421.105 224.386 420.745 224.591 420.273 224.591C419.563 224.591 419.086 224.131 419.064 223.31H422.093V223.016C422.093 221.476 421.172 220.874 420.206 220.874C419.019 220.874 418.237 221.778 418.237 223.088C418.237 224.411 419.008 225.276 420.265 225.276ZM419.066 222.688C419.1 222.084 419.538 221.559 420.212 221.559C420.856 221.559 421.277 222.036 421.28 222.688H419.066Z" fill="white"/>
<path d="M429.732 219.509H428.883V223.681H428.83L425.94 219.509H425.147V225.19H426.004V221.024H426.057L428.944 225.19H429.732V219.509Z" fill="white"/>
<path d="M432.71 225.276C433.912 225.276 434.697 224.397 434.697 223.079C434.697 221.753 433.912 220.874 432.71 220.874C431.509 220.874 430.724 221.753 430.724 223.079C430.724 224.397 431.509 225.276 432.71 225.276ZM432.713 224.58C431.928 224.58 431.562 223.895 431.562 223.077C431.562 222.261 431.928 221.568 432.713 221.568C433.493 221.568 433.859 222.261 433.859 223.077C433.859 223.895 433.493 224.58 432.713 224.58Z" fill="white"/>
<path d="M436.416 225.19H437.26L438.125 222.114H438.189L439.054 225.19H439.9L441.151 220.93H440.294L439.465 224.045H439.423L438.591 220.93H437.734L436.896 224.059H436.855L436.02 220.93H435.163L436.416 225.19Z" fill="white"/>
<path d="M429.686 209.334C429.501 209.539 429.185 209.557 428.98 209.372C428.774 209.188 428.757 208.872 428.941 208.666L429.686 209.334ZM428.383 96.2768C428.208 96.0634 428.239 95.7483 428.453 95.5731C428.666 95.3979 428.981 95.4288 429.156 95.6423L428.383 96.2768ZM429.797 96.4297C429.971 96.6446 429.937 96.9594 429.722 97.1328C429.507 97.3062 429.192 97.2725 429.019 97.0576L429.797 96.4297ZM430.257 98.6191C430.087 98.4012 430.126 98.0871 430.344 97.9174C430.562 97.7477 430.876 97.7868 431.046 98.0047L430.257 98.6191ZM432.25 99.5796C432.416 99.8004 432.372 100.114 432.151 100.28C431.93 100.446 431.617 100.401 431.451 100.18L432.25 99.5796ZM432.631 101.781C432.469 101.557 432.519 101.244 432.743 101.082C432.967 100.921 433.279 100.971 433.441 101.195L432.631 101.781ZM434.601 102.83C434.758 103.056 434.702 103.368 434.476 103.525C434.249 103.683 433.937 103.627 433.78 103.401L434.601 102.83ZM434.884 105.019C434.73 104.79 434.792 104.479 435.021 104.326C435.251 104.172 435.562 104.234 435.715 104.464L434.884 105.019ZM436.82 106.153C436.969 106.385 436.901 106.694 436.669 106.843C436.436 106.992 436.127 106.925 435.978 106.692L436.82 106.153ZM437.028 108.367C436.884 108.132 436.958 107.824 437.193 107.68C437.428 107.535 437.736 107.609 437.881 107.844L437.028 108.367ZM438.904 109.552C439.044 109.79 438.964 110.096 438.726 110.236C438.487 110.376 438.181 110.296 438.041 110.057L438.904 109.552ZM439.031 111.786C438.896 111.545 438.982 111.241 439.223 111.106C439.465 110.971 439.769 111.058 439.904 111.299L439.031 111.786ZM440.854 113.043C440.984 113.287 440.891 113.59 440.648 113.719C440.404 113.849 440.101 113.756 439.971 113.513L440.854 113.043ZM440.886 115.278C440.762 115.032 440.861 114.731 441.107 114.607C441.354 114.482 441.654 114.581 441.779 114.828L440.886 115.278ZM442.66 116.623C442.779 116.873 442.674 117.171 442.424 117.29C442.175 117.409 441.877 117.303 441.758 117.054L442.66 116.623ZM442.587 118.842C442.474 118.59 442.586 118.294 442.838 118.18C443.089 118.067 443.386 118.179 443.499 118.431L442.587 118.842ZM444.305 120.274C444.413 120.528 444.294 120.821 444.04 120.929C443.785 121.037 443.492 120.918 443.384 120.664L444.305 120.274ZM444.13 122.481C444.028 122.224 444.153 121.934 444.41 121.832C444.667 121.73 444.957 121.855 445.059 122.112L444.13 122.481ZM445.781 123.992C445.877 124.25 445.745 124.538 445.486 124.634C445.228 124.73 444.94 124.598 444.844 124.339L445.781 123.992ZM445.508 126.197C445.418 125.936 445.557 125.651 445.818 125.561C446.079 125.471 446.364 125.61 446.453 125.871L445.508 126.197ZM447.083 127.773C447.167 128.036 447.022 128.317 446.759 128.401C446.495 128.485 446.214 128.339 446.13 128.076L447.083 127.773ZM446.708 129.969C446.631 129.704 446.783 129.426 447.048 129.349C447.313 129.271 447.59 129.424 447.668 129.689L446.708 129.969ZM448.204 131.612C448.275 131.878 448.116 132.152 447.85 132.223C447.583 132.294 447.309 132.136 447.238 131.869L448.204 131.612ZM447.725 133.792C447.66 133.524 447.825 133.254 448.094 133.189C448.363 133.125 448.632 133.29 448.697 133.559L447.725 133.792ZM449.138 135.501C449.196 135.771 449.024 136.037 448.754 136.095C448.484 136.153 448.218 135.981 448.16 135.711L449.138 135.501ZM448.553 137.659C448.502 137.387 448.68 137.126 448.952 137.075C449.223 137.023 449.485 137.202 449.536 137.473L448.553 137.659ZM449.881 139.435C449.925 139.707 449.741 139.964 449.468 140.009C449.195 140.053 448.938 139.868 448.894 139.596L449.881 139.435ZM449.19 141.561C449.152 141.287 449.343 141.035 449.617 140.997C449.89 140.96 450.143 141.151 450.18 141.424L449.19 141.561ZM450.428 143.403C450.459 143.678 450.262 143.925 449.988 143.956C449.713 143.987 449.466 143.79 449.435 143.515L450.428 143.403ZM449.632 145.49C449.608 145.215 449.812 144.972 450.087 144.948C450.362 144.924 450.605 145.127 450.629 145.403L449.632 145.49ZM450.778 147.393C450.795 147.669 450.586 147.906 450.31 147.924C450.035 147.941 449.797 147.732 449.78 147.456L450.778 147.393ZM449.88 149.436C449.869 149.16 450.084 148.928 450.36 148.917C450.636 148.907 450.868 149.122 450.879 149.398L449.88 149.436ZM450.93 151.395C450.933 151.671 450.713 151.898 450.436 151.902C450.16 151.905 449.934 151.684 449.93 151.408L450.93 151.395ZM449.932 153.39C449.935 153.114 450.161 152.893 450.437 152.896C450.713 152.899 450.935 153.125 450.932 153.401L449.932 153.39ZM450.884 155.399C450.875 155.675 450.643 155.89 450.367 155.88C450.091 155.871 449.875 155.639 449.885 155.363L450.884 155.399ZM449.79 157.343C449.807 157.067 450.044 156.857 450.319 156.873C450.595 156.89 450.805 157.127 450.788 157.403L449.79 157.343ZM450.644 159.395C450.621 159.67 450.379 159.874 450.104 159.851C449.829 159.828 449.625 159.586 449.648 159.311L450.644 159.395ZM449.457 161.284C449.487 161.009 449.734 160.811 450.008 160.841C450.283 160.871 450.481 161.117 450.451 161.392L449.457 161.284ZM450.212 163.374C450.176 163.647 449.925 163.84 449.651 163.804C449.377 163.767 449.185 163.516 449.221 163.242L450.212 163.374ZM448.937 165.206C448.98 164.933 449.236 164.746 449.508 164.789C449.781 164.832 449.968 165.088 449.925 165.361L448.937 165.206ZM449.593 167.327C449.544 167.599 449.284 167.779 449.012 167.73C448.741 167.681 448.56 167.421 448.609 167.149L449.593 167.327ZM448.234 169.099C448.289 168.829 448.553 168.654 448.824 168.71C449.094 168.765 449.269 169.029 449.213 169.3L448.234 169.099ZM448.791 171.25C448.729 171.519 448.461 171.687 448.192 171.626C447.923 171.564 447.754 171.296 447.816 171.027L448.791 171.25ZM447.352 172.956C447.419 172.689 447.691 172.526 447.959 172.594C448.227 172.662 448.389 172.933 448.321 173.201L447.352 172.956ZM447.81 175.132C447.736 175.399 447.461 175.555 447.195 175.481C446.929 175.407 446.773 175.132 446.846 174.866L447.81 175.132ZM446.297 176.769C446.376 176.505 446.655 176.355 446.92 176.435C447.184 176.514 447.334 176.793 447.254 177.057L446.297 176.769ZM446.657 178.967C446.571 179.23 446.289 179.373 446.027 179.288C445.764 179.203 445.62 178.921 445.706 178.658L446.657 178.967ZM445.074 180.531C445.165 180.27 445.45 180.133 445.711 180.224C445.972 180.315 446.109 180.6 446.018 180.861L445.074 180.531ZM445.336 182.746C445.239 183.005 444.951 183.136 444.692 183.039C444.433 182.943 444.302 182.655 444.399 182.396L445.336 182.746ZM443.689 184.233C443.791 183.977 444.082 183.852 444.338 183.954C444.595 184.057 444.72 184.347 444.617 184.604L443.689 184.233ZM443.852 186.463C443.744 186.717 443.45 186.836 443.196 186.728C442.942 186.62 442.823 186.326 442.931 186.072L443.852 186.463ZM442.14 187.883C442.253 187.631 442.549 187.519 442.801 187.632C443.053 187.745 443.165 188.041 443.051 188.293L442.14 187.883ZM442.21 190.109C442.092 190.358 441.793 190.464 441.544 190.345C441.295 190.226 441.189 189.928 441.308 189.679L442.21 190.109ZM440.435 191.46C440.559 191.213 440.86 191.114 441.107 191.238C441.353 191.362 441.452 191.663 441.328 191.909L440.435 191.46ZM440.413 193.679C440.284 193.923 439.981 194.015 439.737 193.886C439.494 193.756 439.401 193.454 439.53 193.21L440.413 193.679ZM438.579 194.954C438.714 194.713 439.019 194.627 439.26 194.762C439.501 194.897 439.587 195.202 439.452 195.443L438.579 194.954ZM438.454 197.179C438.314 197.417 438.008 197.497 437.77 197.356C437.532 197.216 437.453 196.91 437.593 196.672L438.454 197.179ZM436.575 198.356C436.72 198.121 437.029 198.049 437.263 198.194C437.498 198.34 437.57 198.648 437.424 198.883L436.575 198.356ZM436.344 200.58C436.193 200.811 435.883 200.876 435.652 200.725C435.421 200.574 435.356 200.264 435.507 200.033L436.344 200.58ZM434.403 201.678C434.56 201.451 434.871 201.393 435.099 201.55C435.326 201.707 435.384 202.018 435.227 202.245L434.403 201.678ZM434.074 203.876C433.912 204.099 433.599 204.149 433.376 203.986C433.153 203.824 433.103 203.511 433.265 203.288L434.074 203.876ZM432.086 204.868C432.254 204.648 432.568 204.607 432.787 204.775C433.006 204.944 433.047 205.257 432.879 205.476L432.086 204.868ZM431.63 207.056C431.456 207.271 431.141 207.303 430.927 207.128C430.713 206.954 430.681 206.639 430.855 206.425L431.63 207.056ZM429.582 207.94C429.763 207.731 430.079 207.709 430.287 207.89C430.496 208.071 430.518 208.387 430.337 208.595L429.582 207.94ZM429.156 95.6423C429.372 95.9047 429.585 96.1672 429.797 96.4297L429.019 97.0576C428.809 96.7974 428.597 96.5371 428.383 96.2768L429.156 95.6423ZM431.046 98.0047C431.455 98.5297 431.856 99.0547 432.25 99.5796L431.451 100.18C431.06 99.6599 430.662 99.1395 430.257 98.6191L431.046 98.0047ZM433.441 101.195C433.835 101.74 434.222 102.285 434.601 102.83L433.78 103.401C433.404 102.861 433.021 102.321 432.631 101.781L433.441 101.195ZM435.715 104.464C436.091 105.027 436.46 105.59 436.82 106.153L435.978 106.692C435.621 106.135 435.256 105.577 434.884 105.019L435.715 104.464ZM437.881 107.844C438.23 108.414 438.571 108.983 438.904 109.552L438.041 110.057C437.711 109.494 437.374 108.931 437.028 108.367L437.881 107.844ZM439.904 111.299C440.229 111.881 440.546 112.462 440.854 113.043L439.971 113.513C439.666 112.938 439.352 112.362 439.031 111.786L439.904 111.299ZM441.779 114.828C442.081 115.427 442.375 116.025 442.66 116.623L441.758 117.054C441.475 116.463 441.185 115.871 440.886 115.278L441.779 114.828ZM443.499 118.431C443.776 119.046 444.045 119.66 444.305 120.274L443.384 120.664C443.127 120.057 442.861 119.45 442.587 118.842L443.499 118.431ZM445.059 122.112C445.309 122.739 445.549 123.366 445.781 123.992L444.844 124.339C444.615 123.721 444.377 123.101 444.13 122.481L445.059 122.112ZM446.453 125.871C446.672 126.506 446.882 127.14 447.083 127.773L446.13 128.076C445.932 127.451 445.724 126.824 445.508 126.197L446.453 125.871ZM447.668 129.689C447.855 130.331 448.034 130.972 448.204 131.612L447.238 131.869C447.07 131.237 446.893 130.604 446.708 129.969L447.668 129.689ZM448.697 133.559C448.853 134.208 449 134.855 449.138 135.501L448.16 135.711C448.024 135.073 447.878 134.433 447.725 133.792L448.697 133.559ZM449.536 137.473C449.659 138.129 449.774 138.783 449.881 139.435L448.894 139.596C448.789 138.952 448.675 138.306 448.553 137.659L449.536 137.473ZM450.18 141.424C450.272 142.086 450.354 142.746 450.428 143.403L449.435 143.515C449.361 142.866 449.28 142.215 449.19 141.561L450.18 141.424ZM450.629 145.403C450.687 146.069 450.737 146.732 450.778 147.393L449.78 147.456C449.739 146.803 449.69 146.148 449.632 145.49L450.629 145.403ZM450.879 149.398C450.904 150.067 450.921 150.732 450.93 151.395L449.93 151.408C449.921 150.754 449.905 150.096 449.88 149.436L450.879 149.398ZM450.932 153.401C450.924 154.07 450.908 154.736 450.884 155.399L449.885 155.363C449.909 154.708 449.924 154.051 449.932 153.39L450.932 153.401ZM450.788 157.403C450.748 158.07 450.7 158.734 450.644 159.395L449.648 159.311C449.703 158.658 449.75 158.002 449.79 157.343L450.788 157.403ZM450.451 161.392C450.379 162.056 450.299 162.717 450.212 163.374L449.221 163.242C449.307 162.593 449.386 161.94 449.457 161.284L450.451 161.392ZM449.925 165.361C449.822 166.02 449.711 166.676 449.593 167.327L448.609 167.149C448.725 166.505 448.835 165.858 448.937 165.206L449.925 165.361ZM449.213 169.3C449.079 169.954 448.938 170.604 448.791 171.25L447.816 171.027C447.962 170.389 448.101 169.746 448.234 169.099L449.213 169.3ZM448.321 173.201C448.157 173.85 447.987 174.494 447.81 175.132L446.846 174.866C447.021 174.234 447.19 173.598 447.352 172.956L448.321 173.201ZM447.254 177.057C447.061 177.7 446.862 178.336 446.657 178.967L445.706 178.658C445.908 178.034 446.106 177.405 446.297 176.769L447.254 177.057ZM446.018 180.861C445.796 181.496 445.568 182.124 445.336 182.746L444.399 182.396C444.629 181.781 444.854 181.159 445.074 180.531L446.018 180.861ZM444.617 184.604C444.367 185.231 444.112 185.85 443.852 186.463L442.931 186.072C443.189 185.466 443.441 184.853 443.689 184.233L444.617 184.604ZM443.051 188.293C442.775 188.906 442.495 189.512 442.21 190.109L441.308 189.679C441.589 189.088 441.867 188.489 442.14 187.883L443.051 188.293ZM441.328 191.909C441.027 192.508 440.722 193.098 440.413 193.679L439.53 193.21C439.835 192.635 440.137 192.052 440.435 191.46L441.328 191.909ZM439.452 195.443C439.122 196.032 438.79 196.611 438.454 197.179L437.593 196.672C437.924 196.11 438.253 195.537 438.579 194.954L439.452 195.443ZM437.424 198.883C437.066 199.46 436.706 200.026 436.344 200.58L435.507 200.033C435.864 199.486 436.221 198.927 436.575 198.356L437.424 198.883ZM435.227 202.245C434.843 202.803 434.459 203.346 434.074 203.876L433.265 203.288C433.645 202.766 434.024 202.229 434.403 201.678L435.227 202.245ZM432.879 205.476C432.462 206.021 432.045 206.547 431.63 207.056L430.855 206.425C431.263 205.924 431.674 205.404 432.086 204.868L432.879 205.476ZM430.337 208.595C430.119 208.847 429.902 209.093 429.686 209.334L428.941 208.666C429.154 208.429 429.367 208.187 429.582 207.94L430.337 208.595Z" fill="url(#paint2_linear_50_445)"/>
<path d="M431.011 94.4266L426.746 94V97.8392" stroke="url(#paint3_linear_50_445)" stroke-linecap="round" stroke-linejoin="round" stroke-dasharray="2 2"/>
<path d="M426.229 209.716C426.138 209.887 425.926 209.951 425.755 209.861C425.585 209.77 425.52 209.558 425.61 209.387L426.229 209.716ZM417.279 176.509C417.124 176.393 417.092 176.174 417.207 176.019C417.323 175.864 417.542 175.832 417.697 175.947L417.279 176.509ZM418.538 176.593C418.689 176.713 418.715 176.934 418.595 177.085C418.475 177.237 418.255 177.262 418.103 177.142L418.538 176.593ZM419.676 178.469C419.532 178.34 419.521 178.119 419.65 177.975C419.779 177.831 420 177.819 420.144 177.949L419.676 178.469ZM421.663 179.409C421.798 179.548 421.795 179.77 421.656 179.904C421.517 180.039 421.296 180.036 421.161 179.897L421.663 179.409ZM422.543 181.426C422.418 181.278 422.438 181.057 422.586 180.933C422.734 180.809 422.955 180.828 423.079 180.976L422.543 181.426ZM424.37 182.64C424.483 182.797 424.446 183.015 424.289 183.128C424.132 183.24 423.913 183.204 423.801 183.047L424.37 182.64ZM424.931 184.768C424.832 184.602 424.885 184.387 425.051 184.288C425.217 184.188 425.432 184.242 425.531 184.408L424.931 184.768ZM426.54 186.259C426.625 186.433 426.554 186.643 426.381 186.728C426.207 186.813 425.997 186.742 425.912 186.568L426.54 186.259ZM426.74 188.451C426.67 188.271 426.759 188.068 426.939 187.998C427.119 187.928 427.322 188.017 427.393 188.197L426.74 188.451ZM428.075 190.196C428.13 190.382 428.024 190.576 427.838 190.631C427.653 190.685 427.458 190.579 427.404 190.394L428.075 190.196ZM427.899 192.385C427.861 192.196 427.983 192.011 428.172 191.972C428.361 191.933 428.546 192.056 428.585 192.245L427.899 192.385ZM428.923 194.332C428.945 194.524 428.808 194.698 428.617 194.721C428.425 194.744 428.25 194.607 428.227 194.415L428.923 194.332ZM428.389 196.465C428.381 196.272 428.532 196.109 428.725 196.102C428.918 196.094 429.081 196.245 429.088 196.438L428.389 196.465ZM429.087 198.549C429.079 198.742 428.917 198.893 428.724 198.885C428.53 198.878 428.38 198.715 428.388 198.522L429.087 198.549ZM428.229 200.573C428.251 200.381 428.424 200.243 428.616 200.266C428.808 200.288 428.946 200.461 428.924 200.653L428.229 200.573ZM428.603 202.739C428.567 202.929 428.384 203.053 428.194 203.017C428.004 202.981 427.88 202.797 427.916 202.607L428.603 202.739ZM427.453 204.612C427.503 204.426 427.696 204.315 427.882 204.366C428.069 204.417 428.179 204.609 428.128 204.795L427.453 204.612ZM427.498 206.807C427.433 206.989 427.233 207.084 427.051 207.019C426.869 206.954 426.774 206.754 426.839 206.572L427.498 206.807ZM426.062 208.476C426.144 208.3 426.352 208.224 426.527 208.305C426.702 208.387 426.779 208.595 426.698 208.77L426.062 208.476ZM417.697 175.947C417.984 176.161 418.264 176.376 418.538 176.593L418.103 177.142C417.835 176.929 417.56 176.718 417.279 176.509L417.697 175.947ZM420.144 177.949C420.679 178.429 421.185 178.917 421.663 179.409L421.161 179.897C420.694 179.416 420.199 178.939 419.676 178.469L420.144 177.949ZM423.079 180.976C423.54 181.526 423.97 182.08 424.37 182.64L423.801 183.047C423.411 182.503 422.992 181.962 422.543 181.426L423.079 180.976ZM425.531 184.408C425.9 185.022 426.236 185.64 426.54 186.259L425.912 186.568C425.616 185.966 425.29 185.366 424.931 184.768L425.531 184.408ZM427.393 188.197C427.653 188.864 427.879 189.531 428.075 190.196L427.404 190.394C427.213 189.748 426.993 189.099 426.74 188.451L427.393 188.197ZM428.585 192.245C428.729 192.946 428.84 193.643 428.923 194.332L428.227 194.415C428.147 193.744 428.039 193.067 427.899 192.385L428.585 192.245ZM429.088 196.438C429.116 197.154 429.114 197.858 429.087 198.549L428.388 198.522C428.414 197.848 428.416 197.162 428.389 196.465L429.088 196.438ZM428.924 200.653C428.841 201.369 428.733 202.066 428.603 202.739L427.916 202.607C428.042 201.95 428.148 201.271 428.229 200.573L428.924 200.653ZM428.128 204.795C427.937 205.502 427.724 206.175 427.498 206.807L426.839 206.572C427.059 205.956 427.266 205.301 427.453 204.612L428.128 204.795ZM426.698 208.77C426.543 209.103 426.386 209.419 426.229 209.716L425.61 209.387C425.762 209.102 425.913 208.798 426.062 208.476L426.698 208.77Z" fill="url(#paint4_linear_50_445)"/>
<rect x="348" y="72" width="76" height="19" rx="1" fill="white" fill-opacity="0.15"/>
<rect x="348.1" y="72.1" width="75.8" height="18.8" rx="0.9" stroke="white" stroke-opacity="0.19" stroke-width="0.2"/>
<path d="M371 83.5384H371.658V81.6357H373.512V81.071H371.658V79.7415H373.706V79.1747H371V83.5384Z" fill="white"/>
<path d="M376.333 82.1811C376.335 82.7372 375.921 83.0014 375.563 83.0014C375.169 83.0014 374.896 82.7159 374.896 82.2706V80.2656H374.259V82.3473C374.259 83.1591 374.705 83.581 375.333 83.581C375.825 83.581 376.16 83.321 376.311 82.9716H376.345V83.5384H376.972V80.2656H376.333V82.1811Z" fill="white"/>
<path d="M378.465 79.1747H377.828V83.5384H378.465V79.1747Z" fill="white"/>
<path d="M379.959 79.1747H379.322V83.5384H379.959V79.1747Z" fill="white"/>
<path d="M381.219 84.7656C381.745 84.7656 382.077 84.4908 382.267 83.9751L383.62 80.272L382.932 80.2656L382.103 82.8054H382.069L381.24 80.2656H380.558L381.756 83.581L381.677 83.7983C381.515 84.233 381.287 84.2692 380.938 84.1733L380.784 84.6953C380.861 84.7294 381.027 84.7656 381.219 84.7656Z" fill="white"/>
<path d="M385.859 83.5384H386.518V81.8871H387.413C387.428 81.8871 387.44 81.8871 387.455 81.8871L388.342 83.5384H389.092L388.124 81.772C388.659 81.5739 388.925 81.1286 388.925 80.5426C388.925 79.7393 388.427 79.1747 387.415 79.1747H385.859V83.5384ZM386.518 81.3203V79.7393H387.344C387.994 79.7393 388.263 80.0483 388.263 80.5426C388.263 81.0348 387.994 81.3203 387.353 81.3203H386.518Z" fill="white"/>
<path d="M391.045 83.6044C391.759 83.6044 392.264 83.2528 392.409 82.7202L391.806 82.6115C391.691 82.9205 391.414 83.0781 391.051 83.0781C390.506 83.0781 390.139 82.7244 390.122 82.0938H392.449V81.8679C392.449 80.6854 391.742 80.223 391 80.223C390.088 80.223 389.487 80.9176 389.487 81.9233C389.487 82.9396 390.08 83.6044 391.045 83.6044ZM390.124 81.6165C390.15 81.152 390.487 80.7493 391.004 80.7493C391.499 80.7493 391.823 81.1158 391.825 81.6165H390.124Z" fill="white"/>
<path d="M395.608 81.0646C395.476 80.5554 395.078 80.223 394.37 80.223C393.631 80.223 393.107 80.6129 393.107 81.1925C393.107 81.657 393.388 81.9659 394.002 82.1023L394.556 82.2237C394.871 82.294 395.018 82.4347 395.018 82.6392C395.018 82.8928 394.748 83.0909 394.33 83.0909C393.949 83.0909 393.703 82.9268 393.627 82.6051L393.011 82.6989C393.118 83.2784 393.599 83.6044 394.334 83.6044C395.125 83.6044 395.672 83.1847 395.672 82.5923C395.672 82.13 395.378 81.8445 394.777 81.706L394.257 81.5866C393.897 81.5014 393.742 81.38 393.744 81.1584C393.742 80.907 394.015 80.728 394.377 80.728C394.773 80.728 394.956 80.9474 395.031 81.1669L395.608 81.0646Z" fill="white"/>
<path d="M396.373 84.7656H397.01V83.0291H397.048C397.163 83.2379 397.398 83.6023 397.994 83.6023C398.787 83.6023 399.362 82.9673 399.362 81.9084C399.362 80.8473 398.778 80.223 397.988 80.223C397.381 80.223 397.161 80.5938 397.048 80.7962H396.995V80.2656H396.373V84.7656ZM396.997 81.902C396.997 81.218 397.295 80.7642 397.851 80.7642C398.429 80.7642 398.719 81.2521 398.719 81.902C398.719 82.5582 398.42 83.0589 397.851 83.0589C397.304 83.0589 396.997 82.5902 396.997 81.902Z" fill="white"/>
<path d="M401.454 83.6044C402.377 83.6044 402.98 82.929 402.98 81.9169C402.98 80.8984 402.377 80.223 401.454 80.223C400.532 80.223 399.929 80.8984 399.929 81.9169C399.929 82.929 400.532 83.6044 401.454 83.6044ZM401.456 83.0696C400.854 83.0696 400.572 82.5433 400.572 81.9148C400.572 81.2884 400.854 80.7557 401.456 80.7557C402.055 80.7557 402.336 81.2884 402.336 81.9148C402.336 82.5433 402.055 83.0696 401.456 83.0696Z" fill="white"/>
<path d="M404.328 81.5952C404.328 81.0732 404.648 80.7749 405.091 80.7749C405.523 80.7749 405.786 81.0582 405.786 81.5334V83.5384H406.423V81.4567C406.423 80.647 405.977 80.223 405.308 80.223C404.816 80.223 404.494 80.451 404.343 80.7983H404.303V80.2656H403.691V83.5384H404.328V81.5952Z" fill="white"/>
<path d="M409.729 81.0646C409.597 80.5554 409.199 80.223 408.491 80.223C407.752 80.223 407.228 80.6129 407.228 81.1925C407.228 81.657 407.509 81.9659 408.123 82.1023L408.677 82.2237C408.992 82.294 409.139 82.4347 409.139 82.6392C409.139 82.8928 408.869 83.0909 408.451 83.0909C408.07 83.0909 407.825 82.9268 407.748 82.6051L407.132 82.6989C407.239 83.2784 407.72 83.6044 408.455 83.6044C409.246 83.6044 409.793 83.1847 409.793 82.5923C409.793 82.13 409.499 81.8445 408.898 81.706L408.379 81.5866C408.018 81.5014 407.863 81.38 407.865 81.1584C407.863 80.907 408.136 80.728 408.498 80.728C408.894 80.728 409.077 80.9474 409.152 81.1669L409.729 81.0646Z" fill="white"/>
<path d="M410.494 83.5384H411.131V80.2656H410.494V83.5384ZM410.816 79.7607C411.035 79.7607 411.218 79.5902 411.218 79.3814C411.218 79.1726 411.035 79 410.816 79C410.594 79 410.413 79.1726 410.413 79.3814C410.413 79.5902 410.594 79.7607 410.816 79.7607Z" fill="white"/>
<path d="M414.788 80.2656H414.104L413.277 82.7841H413.243L412.414 80.2656H411.73L412.919 83.5384H413.601L414.788 80.2656Z" fill="white"/>
<path d="M416.68 83.6044C417.393 83.6044 417.898 83.2528 418.043 82.7202L417.44 82.6115C417.325 82.9205 417.048 83.0781 416.686 83.0781C416.141 83.0781 415.774 82.7244 415.757 82.0938H418.084V81.8679C418.084 80.6854 417.376 80.223 416.635 80.223C415.723 80.223 415.122 80.9176 415.122 81.9233C415.122 82.9396 415.714 83.6044 416.68 83.6044ZM415.759 81.6165C415.785 81.152 416.121 80.7493 416.639 80.7493C417.134 80.7493 417.457 81.1158 417.46 81.6165H415.759Z" fill="white"/>
<circle cx="359.5" cy="81.5" r="6.5" fill="#4A6CF7"/>
<path d="M357.167 79.75H361.833V82.6666H357.167V79.75ZM361.833 83.25C361.988 83.25 362.136 83.1885 362.246 83.0791C362.355 82.9697 362.417 82.8213 362.417 82.6666V79.75C362.417 79.4262 362.154 79.1666 361.833 79.1666H357.167C356.843 79.1666 356.583 79.4262 356.583 79.75V82.6666C356.583 82.8213 356.645 82.9697 356.754 83.0791C356.864 83.1885 357.012 83.25 357.167 83.25H356V83.8333H363V83.25H361.833Z" fill="white"/>
<rect x="373" y="148.4" width="34" height="34" rx="1" transform="rotate(-12.5713 373 148.4)" fill="#4A6CF7"/>
<circle cx="393.293" cy="161.293" r="10" transform="rotate(-12.5713 393.293 161.293)" fill="white"/>
<g clip-path="url(#clip0_50_445)">
<path d="M398.281 159.94L396.256 158.654C396.106 158.558 396.015 158.621 396.054 158.796L396.433 160.496L394.539 160.919C394.355 160.293 393.738 159.901 393.094 160L392.675 158.119L394.375 157.74C394.55 157.701 394.569 157.593 394.418 157.497L392.393 156.21C392.242 156.115 392.043 156.159 391.948 156.309L390.661 158.335C390.565 158.485 390.629 158.576 390.803 158.537L392.504 158.158L392.923 160.037C392.298 160.222 391.905 160.838 392.005 161.483L390.111 161.905L389.732 160.206C389.693 160.031 389.584 160.012 389.489 160.163L388.202 162.188C388.106 162.338 388.151 162.538 388.301 162.633L390.326 163.92C390.477 164.015 390.567 163.952 390.528 163.778L390.149 162.076L392.04 161.654C392.225 162.279 392.842 162.672 393.486 162.572L393.908 164.464L392.208 164.843C392.034 164.882 392.015 164.991 392.165 165.086L394.191 166.373C394.341 166.468 394.54 166.424 394.636 166.274L395.923 164.248C396.018 164.098 395.955 164.007 395.78 164.046L394.082 164.425L393.661 162.536C394.286 162.351 394.678 161.735 394.579 161.091L396.471 160.669L396.85 162.369C396.889 162.544 396.997 162.563 397.093 162.412L398.38 160.387C398.476 160.236 398.432 160.036 398.281 159.94Z" fill="#4A6CF7"/>
</g>
<g opacity="0.08">
<rect x="398" y="32" width="81" height="20" rx="1" fill="white"/>
<rect x="398.1" y="32.1" width="80.8" height="19.8" rx="0.9" stroke="white" stroke-opacity="0.19" stroke-width="0.2"/>
</g>
<rect x="462" y="35" width="14" height="14" rx="1" fill="#4A6CF7"/>
<path d="M468.998 38C466.791 38 465 39.7911 465 41.9982C465 44.2089 466.791 46 468.998 46C471.209 46 473 44.2089 473 41.9982C473 39.7911 471.209 38 468.998 38ZM469 45.5237C467.054 45.5237 465.476 43.9456 465.476 42C465.476 40.0544 467.054 38.4763 469 38.4763C470.946 38.4763 472.524 40.0544 472.524 42C472.524 43.9456 470.946 45.5237 469 45.5237ZM469 38.928V45.0693C470.694 45.0693 472.071 43.6923 472.071 41.9982C472.071 40.3077 470.694 38.928 469 38.928Z" fill="white"/>
<path d="M405.699 43.3636L406.099 42.2088H407.804L408.202 43.3636H408.901L407.331 39H406.57L405 43.3636H405.699ZM406.291 41.6548L406.935 39.7926H406.969L407.612 41.6548H406.291Z" fill="white"/>
<path d="M410.117 39H409.48V43.3636H410.117V39Z" fill="white"/>
<path d="M411.684 43.3636H412.332L412.996 41.0007H413.045L413.71 43.3636H414.36L415.321 40.0909H414.663L414.026 42.4837H413.994L413.354 40.0909H412.696L412.053 42.4943H412.021L411.379 40.0909H410.721L411.684 43.3636Z" fill="white"/>
<path d="M416.878 43.4361C417.419 43.4361 417.724 43.1612 417.845 42.9162H417.871V43.3636H418.493V41.1903C418.493 40.2379 417.743 40.0483 417.223 40.0483C416.631 40.0483 416.085 40.2869 415.872 40.8835L416.471 41.0199C416.565 40.7876 416.803 40.5639 417.232 40.5639C417.643 40.5639 417.854 40.7791 417.854 41.1499V41.1648C417.854 41.397 417.615 41.3928 417.027 41.4609C416.407 41.5334 415.772 41.6953 415.772 42.4389C415.772 43.0824 416.256 43.4361 416.878 43.4361ZM417.017 42.9247C416.656 42.9247 416.396 42.7628 416.396 42.4474C416.396 42.1065 416.699 41.9851 417.068 41.9361C417.274 41.9084 417.764 41.853 417.856 41.7614V42.1832C417.856 42.571 417.547 42.9247 417.017 42.9247Z" fill="white"/>
<path d="M419.627 44.5909C420.153 44.5909 420.486 44.3161 420.675 43.8004L422.028 40.0973L421.34 40.0909L420.511 42.6307H420.477L419.648 40.0909H418.967L420.164 43.4062L420.085 43.6236C419.923 44.0582 419.695 44.0945 419.346 43.9986L419.192 44.5206C419.269 44.5547 419.435 44.5909 419.627 44.5909Z" fill="white"/>
<path d="M425.081 40.8899C424.949 40.3807 424.551 40.0483 423.843 40.0483C423.104 40.0483 422.58 40.4382 422.58 41.0178C422.58 41.4822 422.861 41.7912 423.475 41.9276L424.029 42.049C424.344 42.1193 424.491 42.2599 424.491 42.4645C424.491 42.718 424.22 42.9162 423.803 42.9162C423.421 42.9162 423.176 42.7521 423.1 42.4304L422.484 42.5241C422.59 43.1037 423.072 43.4297 423.807 43.4297C424.597 43.4297 425.145 43.0099 425.145 42.4176C425.145 41.9553 424.851 41.6697 424.25 41.5312L423.73 41.4119C423.37 41.3267 423.215 41.2053 423.217 40.9837C423.215 40.7322 423.487 40.5533 423.85 40.5533C424.246 40.5533 424.429 40.7727 424.504 40.9922L425.081 40.8899Z" fill="white"/>
<path d="M429.507 42.0064C429.509 42.5625 429.095 42.8267 428.737 42.8267C428.343 42.8267 428.07 42.5412 428.07 42.0959V40.0909H427.433V42.1726C427.433 42.9844 427.879 43.4062 428.507 43.4062C428.999 43.4062 429.334 43.1463 429.485 42.7969H429.519V43.3636H430.146V40.0909H429.507V42.0064Z" fill="white"/>
<path d="M431.002 44.5909H431.639V42.8544H431.677C431.792 43.0632 432.027 43.4276 432.623 43.4276C433.416 43.4276 433.991 42.7926 433.991 41.7337C433.991 40.6726 433.407 40.0483 432.617 40.0483C432.01 40.0483 431.79 40.419 431.677 40.6214H431.624V40.0909H431.002V44.5909ZM431.626 41.7273C431.626 41.0433 431.924 40.5895 432.48 40.5895C433.058 40.5895 433.348 41.0774 433.348 41.7273C433.348 42.3835 433.049 42.8842 432.48 42.8842C431.933 42.8842 431.626 42.4155 431.626 41.7273Z" fill="white"/>
<path d="M437.82 40.0909H437.149V39.3068H436.512V40.0909H436.033V40.6023H436.512V42.5348C436.51 43.1293 436.964 43.4169 437.467 43.4062C437.669 43.4041 437.806 43.3658 437.88 43.3381L437.765 42.8118C437.722 42.8203 437.644 42.8395 437.541 42.8395C437.335 42.8395 437.149 42.7713 437.149 42.4027V40.6023H437.82V40.0909Z" fill="white"/>
<path d="M439.869 43.4297C440.791 43.4297 441.394 42.7543 441.394 41.7422C441.394 40.7237 440.791 40.0483 439.869 40.0483C438.946 40.0483 438.343 40.7237 438.343 41.7422C438.343 42.7543 438.946 43.4297 439.869 43.4297ZM439.871 42.8949C439.268 42.8949 438.987 42.3686 438.987 41.7401C438.987 41.1136 439.268 40.581 439.871 40.581C440.469 40.581 440.751 41.1136 440.751 41.7401C440.751 42.3686 440.469 42.8949 439.871 42.8949Z" fill="white"/>
<path d="M444.918 43.4276C445.515 43.4276 445.749 43.0632 445.864 42.8544H445.918V43.3636H446.54V39H445.903V40.6214H445.864C445.749 40.419 445.532 40.0483 444.923 40.0483C444.132 40.0483 443.55 40.6726 443.55 41.7337C443.55 42.7926 444.124 43.4276 444.918 43.4276ZM445.059 42.8842C444.49 42.8842 444.194 42.3835 444.194 41.7273C444.194 41.0774 444.484 40.5895 445.059 40.5895C445.615 40.5895 445.913 41.0433 445.913 41.7273C445.913 42.4155 445.609 42.8842 445.059 42.8842Z" fill="white"/>
<path d="M448.401 43.4361C448.943 43.4361 449.247 43.1612 449.369 42.9162H449.394V43.3636H450.017V41.1903C450.017 40.2379 449.267 40.0483 448.747 40.0483C448.154 40.0483 447.609 40.2869 447.396 40.8835L447.994 41.0199C448.088 40.7876 448.327 40.5639 448.755 40.5639C449.166 40.5639 449.377 40.7791 449.377 41.1499V41.1648C449.377 41.397 449.139 41.3928 448.551 41.4609C447.931 41.5334 447.296 41.6953 447.296 42.4389C447.296 43.0824 447.779 43.4361 448.401 43.4361ZM448.54 42.9247C448.18 42.9247 447.92 42.7628 447.92 42.4474C447.92 42.1065 448.222 41.9851 448.591 41.9361C448.798 41.9084 449.288 41.853 449.379 41.7614V42.1832C449.379 42.571 449.07 42.9247 448.54 42.9247Z" fill="white"/>
<path d="M452.393 40.0909H451.722V39.3068H451.085V40.0909H450.605V40.6023H451.085V42.5348C451.082 43.1293 451.536 43.4169 452.039 43.4062C452.241 43.4041 452.378 43.3658 452.452 43.3381L452.337 42.8118C452.295 42.8203 452.216 42.8395 452.114 42.8395C451.907 42.8395 451.722 42.7713 451.722 42.4027V40.6023H452.393V40.0909Z" fill="white"/>
<path d="M454.473 43.4297C455.187 43.4297 455.692 43.0781 455.836 42.5455L455.233 42.4368C455.118 42.7457 454.841 42.9034 454.479 42.9034C453.934 42.9034 453.567 42.5497 453.55 41.919H455.877V41.6932C455.877 40.5107 455.17 40.0483 454.428 40.0483C453.516 40.0483 452.915 40.7429 452.915 41.7486C452.915 42.7649 453.508 43.4297 454.473 43.4297ZM453.552 41.4418C453.578 40.9773 453.915 40.5746 454.432 40.5746C454.927 40.5746 455.251 40.9411 455.253 41.4418H453.552Z" fill="white"/>
<circle opacity="0.5" cx="398" cy="42" r="1.75" fill="#282C4D" stroke="white" stroke-width="0.5"/>
<line x1="347" y1="41.75" x2="396" y2="41.75" stroke="url(#paint5_linear_50_445)" stroke-width="0.5"/>
<defs>
<linearGradient id="paint0_linear_50_445" x1="374.3" y1="234.975" x2="361.897" y2="369.833" gradientUnits="userSpaceOnUse">
<stop stop-color="white" stop-opacity="0.48"/>
<stop offset="1" stop-color="white" stop-opacity="0"/>
</linearGradient>
<linearGradient id="paint1_linear_50_445" x1="378.318" y1="233" x2="378.318" y2="237.617" gradientUnits="userSpaceOnUse">
<stop stop-color="white" stop-opacity="0.55"/>
<stop offset="1" stop-color="white" stop-opacity="0.62"/>
</linearGradient>
<linearGradient id="paint2_linear_50_445" x1="432.22" y1="95.6423" x2="442.533" y2="207.784" gradientUnits="userSpaceOnUse">
<stop stop-color="white" stop-opacity="0.48"/>
<stop offset="1" stop-color="white" stop-opacity="0"/>
</linearGradient>
<linearGradient id="paint3_linear_50_445" x1="428.878" y1="94" x2="428.878" y2="97.8392" gradientUnits="userSpaceOnUse">
<stop stop-color="white" stop-opacity="0.55"/>
<stop offset="1" stop-color="white" stop-opacity="0.62"/>
</linearGradient>
<linearGradient id="paint4_linear_50_445" x1="418.483" y1="175.882" x2="429.732" y2="208.225" gradientUnits="userSpaceOnUse">
<stop stop-color="white" stop-opacity="0.48"/>
<stop offset="1" stop-color="white" stop-opacity="0"/>
</linearGradient>
<linearGradient id="paint5_linear_50_445" x1="396" y1="42" x2="359.25" y2="42" gradientUnits="userSpaceOnUse">
<stop stop-color="white" stop-opacity="0.28"/>
<stop offset="1" stop-color="white" stop-opacity="0"/>
</linearGradient>
<clipPath id="clip0_50_445">
<rect width="12" height="12" fill="white" transform="translate(386.13 156.742) rotate(-12.5713)"/>
</clipPath>
</defs>
</svg>
