<svg width="500" height="480" viewBox="0 0 500 480" fill="none" xmlns="http://www.w3.org/2000/svg">
<rect x="330" y="310" width="170" height="170" rx="2" fill="#1D2430"/>
<rect x="362" y="365.831" width="80.7651" height="80.7651" rx="2" transform="rotate(-13.9128 362 365.831)" fill="#4A6CF7"/>
<path d="M412.572 402.039C411.235 402.37 409.822 402.156 408.643 401.445C407.464 400.734 406.615 399.584 406.284 398.247C405.818 396.366 406.435 394.466 407.718 393.239L421.691 379.757L416.388 398.152C415.956 400.006 414.538 401.552 412.572 402.039ZM407.162 380.2C410.203 379.447 413.25 379.583 416.061 380.349L413.037 383.256C411.434 383.047 409.675 383.144 407.995 383.56C404.43 384.443 401.363 386.705 399.467 389.85C397.571 392.995 397.002 396.764 397.884 400.328C398.804 404.041 401.131 407.03 404.167 408.846L404.183 408.842C405.001 409.334 405.263 410.393 404.77 411.21C404.277 412.028 403.202 412.294 402.389 411.818C398.595 409.531 395.673 405.797 394.525 401.16C393.421 396.705 394.132 391.994 396.502 388.063C398.873 384.132 402.707 381.304 407.162 380.2ZM428.123 392.838C429.271 397.474 428.43 402.14 426.143 405.934C425.646 406.735 424.587 406.997 423.77 406.504C422.952 406.011 422.69 404.953 423.183 404.135C425.016 401.096 425.683 397.382 424.763 393.67C424.347 391.99 423.612 390.389 422.649 389.023L423.808 384.992C425.826 387.166 427.365 389.78 428.123 392.838Z" fill="white"/>
<rect width="300" height="480" rx="2" fill="#1D2430"/>
<rect x="35" y="35" width="230" height="134" rx="2" fill="white" fill-opacity="0.17"/>
<rect opacity="0.1" x="35" y="194" width="230" height="27" rx="2" fill="white"/>
<rect opacity="0.1" x="35" y="246" width="137" height="199" rx="2" fill="white"/>
<rect opacity="0.08" x="187" y="246" width="78" height="64" rx="2" fill="white"/>
<rect opacity="0.2" x="187" y="322" width="78" height="55" rx="2" fill="white"/>
<rect opacity="0.2" x="187" y="389" width="78" height="56" rx="2" fill="white" fill-opacity="0.65"/>
<path d="M377.795 371.295C358.482 349.772 331.574 292.451 378.448 235.357" stroke="url(#paint0_linear_50_445)" stroke-linecap="round" stroke-linejoin="round" stroke-dasharray="2 2"/>
<path d="M375.753 233.513L380.883 233V237.617" stroke="url(#paint1_linear_50_445)" stroke-linecap="round" stroke-linejoin="round" stroke-dasharray="2 2"/>
<rect x="330" width="170" height="280" rx="2" fill="#1D2430"/>
<rect x="384" y="213" width="69" height="19.5283" rx="9.76415" fill="#36A269"/>
<path d="M399.37 219.509V223.177C399.37 223.948 398.838 224.502 397.972 224.502C397.109 224.502 396.574 223.948 396.574 223.177V219.509H395.717V223.246C395.717 224.439 396.61 225.285 397.972 225.285C399.334 225.285 400.23 224.439 400.23 223.246V219.509H399.37Z" fill="white"/>
<path d="M401.41 226.788H402.239V224.527H402.289C402.439 224.799 402.744 225.274 403.521 225.274C404.553 225.274 405.302 224.447 405.302 223.068C405.302 221.687 404.541 220.874 403.512 220.874C402.722 220.874 402.436 221.357 402.289 221.62H402.22V220.93H401.41V226.788ZM402.222 223.06C402.222 222.17 402.611 221.579 403.335 221.579C404.087 221.579 404.464 222.214 404.464 223.06C404.464 223.914 404.075 224.566 403.335 224.566C402.622 224.566 402.222 223.956 402.222 223.06Z" fill="white"/>
<path d="M407.826 225.274C408.602 225.274 408.908 224.799 409.057 224.527H409.127V225.19H409.937V219.509H409.107V221.62H409.057C408.908 221.357 408.625 220.874 407.831 220.874C406.802 220.874 406.045 221.687 406.045 223.068C406.045 224.447 406.791 225.274 407.826 225.274ZM408.009 224.566C407.268 224.566 406.883 223.914 406.883 223.06C406.883 222.214 407.26 221.579 408.009 221.579C408.733 221.579 409.121 222.17 409.121 223.06C409.121 223.956 408.725 224.566 408.009 224.566Z" fill="white"/>
<path d="M412.36 225.285C413.065 225.285 413.462 224.927 413.62 224.608H413.653V225.19H414.463V222.361C414.463 221.121 413.487 220.874 412.81 220.874C412.039 220.874 411.329 221.185 411.051 221.962L411.831 222.139C411.953 221.837 412.263 221.545 412.821 221.545C413.356 221.545 413.631 221.826 413.631 222.308V222.328C413.631 222.63 413.32 222.624 412.555 222.713C411.747 222.808 410.921 223.018 410.921 223.986C410.921 224.824 411.55 225.285 412.36 225.285ZM412.541 224.619C412.072 224.619 411.734 224.408 411.734 223.998C411.734 223.554 412.127 223.396 412.607 223.332C412.876 223.296 413.514 223.224 413.634 223.104V223.654C413.634 224.158 413.231 224.619 412.541 224.619Z" fill="white"/>
<path d="M417.557 220.93H416.683V219.909H415.853V220.93H415.229V221.595H415.853V224.111C415.851 224.885 416.442 225.26 417.096 225.246C417.36 225.243 417.537 225.193 417.634 225.157L417.485 224.472C417.429 224.483 417.326 224.508 417.193 224.508C416.924 224.508 416.683 224.419 416.683 223.939V221.595H417.557V220.93Z" fill="white"/>
<path d="M420.265 225.276C421.194 225.276 421.851 224.819 422.04 224.125L421.255 223.984C421.105 224.386 420.745 224.591 420.273 224.591C419.563 224.591 419.086 224.131 419.064 223.31H422.093V223.016C422.093 221.476 421.172 220.874 420.206 220.874C419.019 220.874 418.237 221.778 418.237 223.088C418.237 224.411 419.008 225.276 420.265 225.276ZM419.066 222.688C419.1 222.084 419.538 221.559 420.212 221.559C420.856 221.559 421.277 222.036 421.28 222.688H419.066Z" fill="white"/>
<path d="M429.732 219.509H428.883V223.681H428.83L425.94 219.509H425.147V225.19H426.004V221.024H426.057L428.944 225.19H429.732V219.509Z" fill="white"/>
<path d="M432.71 225.276C433.912 225.276 434.697 224.397 434.697 223.079C434.697 221.753 433.912 220.874 432.71 220.874C431.509 220.874 430.724 221.753 430.724 223.079C430.724 224.397 431.509 225.276 432.71 225.276ZM432.713 224.58C431.928 224.58 431.562 223.895 431.562 223.077C431.562 222.261 431.928 221.568 432.713 221.568C433.493 221.568 433.859 222.261 433.859 223.077C433.859 223.895 433.493 224.58 432.713 224.58Z" fill="white"/>
<path d="M436.416 225.19H437.26L438.125 222.114H438.189L439.054 225.19H439.9L441.151 220.93H440.294L439.465 224.045H439.423L438.591 220.93H437.734L436.896 224.059H436.855L436.02 220.93H435.163L436.416 225.19Z" fill="white"/>
<path d="M429.313 209C445.373 191.102 467.749 143.437 428.77 95.9595" stroke="url(#paint2_linear_50_445)" stroke-linecap="round" stroke-linejoin="round" stroke-dasharray="2 2"/>
<path d="M431.011 94.4266L426.746 94V97.8392" stroke="url(#paint3_linear_50_445)" stroke-linecap="round" stroke-linejoin="round" stroke-dasharray="2 2"/>
<path d="M425.919 209.552C429.35 203.094 432.466 187.389 417.488 176.228" stroke="url(#paint4_linear_50_445)" stroke-width="0.7" stroke-linecap="round" stroke-linejoin="round" stroke-dasharray="2 2"/>
<rect x="348" y="72" width="76" height="19" rx="1" fill="white" fill-opacity="0.15"/>
<rect x="348.1" y="72.1" width="75.8" height="18.8" rx="0.9" stroke="white" stroke-opacity="0.19" stroke-width="0.2"/>
<path d="M371 83.5384H371.658V81.6357H373.512V81.071H371.658V79.7415H373.706V79.1747H371V83.5384Z" fill="white"/>
<path d="M376.333 82.1811C376.335 82.7372 375.921 83.0014 375.563 83.0014C375.169 83.0014 374.896 82.7159 374.896 82.2706V80.2656H374.259V82.3473C374.259 83.1591 374.705 83.581 375.333 83.581C375.825 83.581 376.16 83.321 376.311 82.9716H376.345V83.5384H376.972V80.2656H376.333V82.1811Z" fill="white"/>
<path d="M378.465 79.1747H377.828V83.5384H378.465V79.1747Z" fill="white"/>
<path d="M379.959 79.1747H379.322V83.5384H379.959V79.1747Z" fill="white"/>
<path d="M381.219 84.7656C381.745 84.7656 382.077 84.4908 382.267 83.9751L383.62 80.272L382.932 80.2656L382.103 82.8054H382.069L381.24 80.2656H380.558L381.756 83.581L381.677 83.7983C381.515 84.233 381.287 84.2692 380.938 84.1733L380.784 84.6953C380.861 84.7294 381.027 84.7656 381.219 84.7656Z" fill="white"/>
<path d="M385.859 83.5384H386.518V81.8871H387.413C387.428 81.8871 387.44 81.8871 387.455 81.8871L388.342 83.5384H389.092L388.124 81.772C388.659 81.5739 388.925 81.1286 388.925 80.5426C388.925 79.7393 388.427 79.1747 387.415 79.1747H385.859V83.5384ZM386.518 81.3203V79.7393H387.344C387.994 79.7393 388.263 80.0483 388.263 80.5426C388.263 81.0348 387.994 81.3203 387.353 81.3203H386.518Z" fill="white"/>
<path d="M391.045 83.6044C391.759 83.6044 392.264 83.2528 392.409 82.7202L391.806 82.6115C391.691 82.9205 391.414 83.0781 391.051 83.0781C390.506 83.0781 390.139 82.7244 390.122 82.0938H392.449V81.8679C392.449 80.6854 391.742 80.223 391 80.223C390.088 80.223 389.487 80.9176 389.487 81.9233C389.487 82.9396 390.08 83.6044 391.045 83.6044ZM390.124 81.6165C390.15 81.152 390.487 80.7493 391.004 80.7493C391.499 80.7493 391.823 81.1158 391.825 81.6165H390.124Z" fill="white"/>
<path d="M395.608 81.0646C395.476 80.5554 395.078 80.223 394.37 80.223C393.631 80.223 393.107 80.6129 393.107 81.1925C393.107 81.657 393.388 81.9659 394.002 82.1023L394.556 82.2237C394.871 82.294 395.018 82.4347 395.018 82.6392C395.018 82.8928 394.748 83.0909 394.33 83.0909C393.949 83.0909 393.703 82.9268 393.627 82.6051L393.011 82.6989C393.118 83.2784 393.599 83.6044 394.334 83.6044C395.125 83.6044 395.672 83.1847 395.672 82.5923C395.672 82.13 395.378 81.8445 394.777 81.706L394.257 81.5866C393.897 81.5014 393.742 81.38 393.744 81.1584C393.742 80.907 394.015 80.728 394.377 80.728C394.773 80.728 394.956 80.9474 395.031 81.1669L395.608 81.0646Z" fill="white"/>
<path d="M396.373 84.7656H397.01V83.0291H397.048C397.163 83.2379 397.398 83.6023 397.994 83.6023C398.787 83.6023 399.362 82.9673 399.362 81.9084C399.362 80.8473 398.778 80.223 397.988 80.223C397.381 80.223 397.161 80.5938 397.048 80.7962H396.995V80.2656H396.373V84.7656ZM396.997 81.902C396.997 81.218 397.295 80.7642 397.851 80.7642C398.429 80.7642 398.719 81.2521 398.719 81.902C398.719 82.5582 398.42 83.0589 397.851 83.0589C397.304 83.0589 396.997 82.5902 396.997 81.902Z" fill="white"/>
<path d="M401.454 83.6044C402.377 83.6044 402.98 82.929 402.98 81.9169C402.98 80.8984 402.377 80.223 401.454 80.223C400.532 80.223 399.929 80.8984 399.929 81.9169C399.929 82.929 400.532 83.6044 401.454 83.6044ZM401.456 83.0696C400.854 83.0696 400.572 82.5433 400.572 81.9148C400.572 81.2884 400.854 80.7557 401.456 80.7557C402.055 80.7557 402.336 81.2884 402.336 81.9148C402.336 82.5433 402.055 83.0696 401.456 83.0696Z" fill="white"/>
<path d="M404.328 81.5952C404.328 81.0732 404.648 80.7749 405.091 80.7749C405.523 80.7749 405.786 81.0582 405.786 81.5334V83.5384H406.423V81.4567C406.423 80.647 405.977 80.223 405.308 80.223C404.816 80.223 404.494 80.451 404.343 80.7983H404.303V80.2656H403.691V83.5384H404.328V81.5952Z" fill="white"/>
<path d="M409.729 81.0646C409.597 80.5554 409.199 80.223 408.491 80.223C407.752 80.223 407.228 80.6129 407.228 81.1925C407.228 81.657 407.509 81.9659 408.123 82.1023L408.677 82.2237C408.992 82.294 409.139 82.4347 409.139 82.6392C409.139 82.8928 408.869 83.0909 408.451 83.0909C408.07 83.0909 407.825 82.9268 407.748 82.6051L407.132 82.6989C407.239 83.2784 407.72 83.6044 408.455 83.6044C409.246 83.6044 409.793 83.1847 409.793 82.5923C409.793 82.13 409.499 81.8445 408.898 81.706L408.379 81.5866C408.018 81.5014 407.863 81.38 407.865 81.1584C407.863 80.907 408.136 80.728 408.498 80.728C408.894 80.728 409.077 80.9474 409.152 81.1669L409.729 81.0646Z" fill="white"/>
<path d="M410.494 83.5384H411.131V80.2656H410.494V83.5384ZM410.816 79.7607C411.035 79.7607 411.218 79.5902 411.218 79.3814C411.218 79.1726 411.035 79 410.816 79C410.594 79 410.413 79.1726 410.413 79.3814C410.413 79.5902 410.594 79.7607 410.816 79.7607Z" fill="white"/>
<path d="M414.788 80.2656H414.104L413.277 82.7841H413.243L412.414 80.2656H411.73L412.919 83.5384H413.601L414.788 80.2656Z" fill="white"/>
<path d="M416.68 83.6044C417.393 83.6044 417.898 83.2528 418.043 82.7202L417.44 82.6115C417.325 82.9205 417.048 83.0781 416.686 83.0781C416.141 83.0781 415.774 82.7244 415.757 82.0938H418.084V81.8679C418.084 80.6854 417.376 80.223 416.635 80.223C415.723 80.223 415.122 80.9176 415.122 81.9233C415.122 82.9396 415.714 83.6044 416.68 83.6044ZM415.759 81.6165C415.785 81.152 416.121 80.7493 416.639 80.7493C417.134 80.7493 417.457 81.1158 417.46 81.6165H415.759Z" fill="white"/>
<circle cx="359.5" cy="81.5" r="6.5" fill="#4A6CF7"/>
<path d="M357.167 79.75H361.833V82.6666H357.167V79.75ZM361.833 83.25C361.988 83.25 362.136 83.1885 362.246 83.0791C362.355 82.9697 362.417 82.8213 362.417 82.6666V79.75C362.417 79.4262 362.154 79.1666 361.833 79.1666H357.167C356.843 79.1666 356.583 79.4262 356.583 79.75V82.6666C356.583 82.8213 356.645 82.9697 356.754 83.0791C356.864 83.1885 357.012 83.25 357.167 83.25H356V83.8333H363V83.25H361.833Z" fill="white"/>
<rect x="373" y="148.4" width="34" height="34" rx="1" transform="rotate(-12.5713 373 148.4)" fill="#4A6CF7"/>
<circle cx="393.293" cy="161.293" r="10" transform="rotate(-12.5713 393.293 161.293)" fill="white"/>
<g clip-path="url(#clip0_50_445)">
<path d="M398.281 159.94L396.256 158.654C396.106 158.558 396.015 158.621 396.054 158.796L396.433 160.496L394.539 160.919C394.355 160.293 393.738 159.901 393.094 160L392.675 158.119L394.375 157.74C394.55 157.701 394.569 157.593 394.418 157.497L392.393 156.21C392.242 156.115 392.043 156.159 391.948 156.309L390.661 158.335C390.565 158.485 390.629 158.576 390.803 158.537L392.504 158.158L392.923 160.037C392.298 160.222 391.905 160.838 392.005 161.483L390.111 161.905L389.732 160.206C389.693 160.031 389.584 160.012 389.489 160.163L388.202 162.188C388.106 162.338 388.151 162.538 388.301 162.633L390.326 163.92C390.477 164.015 390.567 163.952 390.528 163.778L390.149 162.076L392.04 161.654C392.225 162.279 392.842 162.672 393.486 162.572L393.908 164.464L392.208 164.843C392.034 164.882 392.015 164.991 392.165 165.086L394.191 166.373C394.341 166.468 394.54 166.424 394.636 166.274L395.923 164.248C396.018 164.098 395.955 164.007 395.78 164.046L394.082 164.425L393.661 162.536C394.286 162.351 394.678 161.735 394.579 161.091L396.471 160.669L396.85 162.369C396.889 162.544 396.997 162.563 397.093 162.412L398.38 160.387C398.476 160.236 398.432 160.036 398.281 159.94Z" fill="#4A6CF7"/>
</g>
<g opacity="0.08">
<rect x="398" y="32" width="81" height="20" rx="1" fill="white"/>
<rect x="398.1" y="32.1" width="80.8" height="19.8" rx="0.9" stroke="white" stroke-opacity="0.19" stroke-width="0.2"/>
</g>
<rect x="462" y="35" width="14" height="14" rx="1" fill="#4A6CF7"/>
<path d="M468.998 38C466.791 38 465 39.7911 465 41.9982C465 44.2089 466.791 46 468.998 46C471.209 46 473 44.2089 473 41.9982C473 39.7911 471.209 38 468.998 38ZM469 45.5237C467.054 45.5237 465.476 43.9456 465.476 42C465.476 40.0544 467.054 38.4763 469 38.4763C470.946 38.4763 472.524 40.0544 472.524 42C472.524 43.9456 470.946 45.5237 469 45.5237ZM469 38.928V45.0693C470.694 45.0693 472.071 43.6923 472.071 41.9982C472.071 40.3077 470.694 38.928 469 38.928Z" fill="white"/>
<path d="M405.699 43.3636L406.099 42.2088H407.804L408.202 43.3636H408.901L407.331 39H406.57L405 43.3636H405.699ZM406.291 41.6548L406.935 39.7926H406.969L407.612 41.6548H406.291Z" fill="white"/>
<path d="M410.117 39H409.48V43.3636H410.117V39Z" fill="white"/>
<path d="M411.684 43.3636H412.332L412.996 41.0007H413.045L413.71 43.3636H414.36L415.321 40.0909H414.663L414.026 42.4837H413.994L413.354 40.0909H412.696L412.053 42.4943H412.021L411.379 40.0909H410.721L411.684 43.3636Z" fill="white"/>
<path d="M416.878 43.4361C417.419 43.4361 417.724 43.1612 417.845 42.9162H417.871V43.3636H418.493V41.1903C418.493 40.2379 417.743 40.0483 417.223 40.0483C416.631 40.0483 416.085 40.2869 415.872 40.8835L416.471 41.0199C416.565 40.7876 416.803 40.5639 417.232 40.5639C417.643 40.5639 417.854 40.7791 417.854 41.1499V41.1648C417.854 41.397 417.615 41.3928 417.027 41.4609C416.407 41.5334 415.772 41.6953 415.772 42.4389C415.772 43.0824 416.256 43.4361 416.878 43.4361ZM417.017 42.9247C416.656 42.9247 416.396 42.7628 416.396 42.4474C416.396 42.1065 416.699 41.9851 417.068 41.9361C417.274 41.9084 417.764 41.853 417.856 41.7614V42.1832C417.856 42.571 417.547 42.9247 417.017 42.9247Z" fill="white"/>
<path d="M419.627 44.5909C420.153 44.5909 420.486 44.3161 420.675 43.8004L422.028 40.0973L421.34 40.0909L420.511 42.6307H420.477L419.648 40.0909H418.967L420.164 43.4062L420.085 43.6236C419.923 44.0582 419.695 44.0945 419.346 43.9986L419.192 44.5206C419.269 44.5547 419.435 44.5909 419.627 44.5909Z" fill="white"/>
<path d="M425.081 40.8899C424.949 40.3807 424.551 40.0483 423.843 40.0483C423.104 40.0483 422.58 40.4382 422.58 41.0178C422.58 41.4822 422.861 41.7912 423.475 41.9276L424.029 42.049C424.344 42.1193 424.491 42.2599 424.491 42.4645C424.491 42.718 424.22 42.9162 423.803 42.9162C423.421 42.9162 423.176 42.7521 423.1 42.4304L422.484 42.5241C422.59 43.1037 423.072 43.4297 423.807 43.4297C424.597 43.4297 425.145 43.0099 425.145 42.4176C425.145 41.9553 424.851 41.6697 424.25 41.5312L423.73 41.4119C423.37 41.3267 423.215 41.2053 423.217 40.9837C423.215 40.7322 423.487 40.5533 423.85 40.5533C424.246 40.5533 424.429 40.7727 424.504 40.9922L425.081 40.8899Z" fill="white"/>
<path d="M429.507 42.0064C429.509 42.5625 429.095 42.8267 428.737 42.8267C428.343 42.8267 428.07 42.5412 428.07 42.0959V40.0909H427.433V42.1726C427.433 42.9844 427.879 43.4062 428.507 43.4062C428.999 43.4062 429.334 43.1463 429.485 42.7969H429.519V43.3636H430.146V40.0909H429.507V42.0064Z" fill="white"/>
<path d="M431.002 44.5909H431.639V42.8544H431.677C431.792 43.0632 432.027 43.4276 432.623 43.4276C433.416 43.4276 433.991 42.7926 433.991 41.7337C433.991 40.6726 433.407 40.0483 432.617 40.0483C432.01 40.0483 431.79 40.419 431.677 40.6214H431.624V40.0909H431.002V44.5909ZM431.626 41.7273C431.626 41.0433 431.924 40.5895 432.48 40.5895C433.058 40.5895 433.348 41.0774 433.348 41.7273C433.348 42.3835 433.049 42.8842 432.48 42.8842C431.933 42.8842 431.626 42.4155 431.626 41.7273Z" fill="white"/>
<path d="M437.82 40.0909H437.149V39.3068H436.512V40.0909H436.033V40.6023H436.512V42.5348C436.51 43.1293 436.964 43.4169 437.467 43.4062C437.669 43.4041 437.806 43.3658 437.88 43.3381L437.765 42.8118C437.722 42.8203 437.644 42.8395 437.541 42.8395C437.335 42.8395 437.149 42.7713 437.149 42.4027V40.6023H437.82V40.0909Z" fill="white"/>
<path d="M439.869 43.4297C440.791 43.4297 441.394 42.7543 441.394 41.7422C441.394 40.7237 440.791 40.0483 439.869 40.0483C438.946 40.0483 438.343 40.7237 438.343 41.7422C438.343 42.7543 438.946 43.4297 439.869 43.4297ZM439.871 42.8949C439.268 42.8949 438.987 42.3686 438.987 41.7401C438.987 41.1136 439.268 40.581 439.871 40.581C440.469 40.581 440.751 41.1136 440.751 41.7401C440.751 42.3686 440.469 42.8949 439.871 42.8949Z" fill="white"/>
<path d="M444.918 43.4276C445.515 43.4276 445.749 43.0632 445.864 42.8544H445.918V43.3636H446.54V39H445.903V40.6214H445.864C445.749 40.419 445.532 40.0483 444.923 40.0483C444.132 40.0483 443.55 40.6726 443.55 41.7337C443.55 42.7926 444.124 43.4276 444.918 43.4276ZM445.059 42.8842C444.49 42.8842 444.194 42.3835 444.194 41.7273C444.194 41.0774 444.484 40.5895 445.059 40.5895C445.615 40.5895 445.913 41.0433 445.913 41.7273C445.913 42.4155 445.609 42.8842 445.059 42.8842Z" fill="white"/>
<path d="M448.401 43.4361C448.943 43.4361 449.247 43.1612 449.369 42.9162H449.394V43.3636H450.017V41.1903C450.017 40.2379 449.267 40.0483 448.747 40.0483C448.154 40.0483 447.609 40.2869 447.396 40.8835L447.994 41.0199C448.088 40.7876 448.327 40.5639 448.755 40.5639C449.166 40.5639 449.377 40.7791 449.377 41.1499V41.1648C449.377 41.397 449.139 41.3928 448.551 41.4609C447.931 41.5334 447.296 41.6953 447.296 42.4389C447.296 43.0824 447.779 43.4361 448.401 43.4361ZM448.54 42.9247C448.18 42.9247 447.92 42.7628 447.92 42.4474C447.92 42.1065 448.222 41.9851 448.591 41.9361C448.798 41.9084 449.288 41.853 449.379 41.7614V42.1832C449.379 42.571 449.07 42.9247 448.54 42.9247Z" fill="white"/>
<path d="M452.393 40.0909H451.722V39.3068H451.085V40.0909H450.605V40.6023H451.085V42.5348C451.082 43.1293 451.536 43.4169 452.039 43.4062C452.241 43.4041 452.378 43.3658 452.452 43.3381L452.337 42.8118C452.295 42.8203 452.216 42.8395 452.114 42.8395C451.907 42.8395 451.722 42.7713 451.722 42.4027V40.6023H452.393V40.0909Z" fill="white"/>
<path d="M454.473 43.4297C455.187 43.4297 455.692 43.0781 455.836 42.5455L455.233 42.4368C455.118 42.7457 454.841 42.9034 454.479 42.9034C453.934 42.9034 453.567 42.5497 453.55 41.919H455.877V41.6932C455.877 40.5107 455.17 40.0483 454.428 40.0483C453.516 40.0483 452.915 40.7429 452.915 41.7486C452.915 42.7649 453.508 43.4297 454.473 43.4297ZM453.552 41.4418C453.578 40.9773 453.915 40.5746 454.432 40.5746C454.927 40.5746 455.251 40.9411 455.253 41.4418H453.552Z" fill="white"/>
<circle opacity="0.5" cx="398" cy="42" r="1.75" fill="#282C4D" stroke="white" stroke-width="0.5"/>
<line x1="347" y1="41.75" x2="396" y2="41.75" stroke="url(#paint5_linear_50_445)" stroke-width="0.5"/>
<defs>
<linearGradient id="paint0_linear_50_445" x1="374.3" y1="234.975" x2="361.897" y2="369.833" gradientUnits="userSpaceOnUse">
<stop stop-color="white" stop-opacity="0.48"/>
<stop offset="1" stop-color="white" stop-opacity="0"/>
</linearGradient>
<linearGradient id="paint1_linear_50_445" x1="378.318" y1="233" x2="378.318" y2="237.617" gradientUnits="userSpaceOnUse">
<stop stop-color="white" stop-opacity="0.55"/>
<stop offset="1" stop-color="white" stop-opacity="0.62"/>
</linearGradient>
<linearGradient id="paint2_linear_50_445" x1="432.22" y1="95.6423" x2="442.533" y2="207.784" gradientUnits="userSpaceOnUse">
<stop stop-color="white" stop-opacity="0.48"/>
<stop offset="1" stop-color="white" stop-opacity="0"/>
</linearGradient>
<linearGradient id="paint3_linear_50_445" x1="428.878" y1="94" x2="428.878" y2="97.8392" gradientUnits="userSpaceOnUse">
<stop stop-color="white" stop-opacity="0.55"/>
<stop offset="1" stop-color="white" stop-opacity="0.62"/>
</linearGradient>
<linearGradient id="paint4_linear_50_445" x1="418.483" y1="175.882" x2="429.732" y2="208.225" gradientUnits="userSpaceOnUse">
<stop stop-color="white" stop-opacity="0.48"/>
<stop offset="1" stop-color="white" stop-opacity="0"/>
</linearGradient>
<linearGradient id="paint5_linear_50_445" x1="396" y1="42" x2="359.25" y2="42" gradientUnits="userSpaceOnUse">
<stop stop-color="white" stop-opacity="0.28"/>
<stop offset="1" stop-color="white" stop-opacity="0"/>
</linearGradient>
<clipPath id="clip0_50_445">
<rect width="12" height="12" fill="white" transform="translate(386.13 156.742) rotate(-12.5713)"/>
</clipPath>
</defs>
</svg>
