<svg enable-background="new 0 0 2500 1297.7" viewBox="0 0 2500 1297.7" xmlns="http://www.w3.org/2000/svg"><g fill="#007ac2"><path d="m1691.1 498.1c-15.7-11.7-40.3-18.8-64.2-18.4-26 .4-50.8 8.7-68 22.5v-163.9h-81.1v534.5h81.1v-279c0-19.5 16.3-40.9 46.5-42.2 13.5-.6 32.1 5.3 41.6 19.4 10.1 15 9.5 34.9 9.5 56.6l-.1 245.1h81.1v-248.1c-.1-73.2-9.6-99.3-46.4-126.5m-659.4 183.5c0 52.3-1.7 67-2.1 71.6-2.8 29-15.2 59.7-49 59.7-33.7 0-47.4-32.8-48.9-61.1-.1-.2-2.1-17.9-2.1-70.2 0-52.4 2.1-74.2 2.1-74.4.4-29.5 15.7-59.1 48.9-59.1s48.5 29.5 49 58.7c.1.6 2.1 22.4 2.1 74.8m78.5-63.1c-11.5-114.3-76.4-138.8-129.6-138.8-75.5 0-121.4 48-129.7 138.6-.7 7.2-1.8 20.5-2.2 63.2-.3 31.1 1.7 56.5 2.1 63 5.1 84.6 53.8 136.8 129.8 136.8 76.1 0 124.5-53 129.8-136.8.4-6 2.1-31.9 2.1-63 0-14-1.3-52.3-2.3-63zm762.5 15c.6-17.7.6-21.4 1-26.5 2.3-32 16.6-58.5 49.4-58.8 38.9-.3 48 37.8 49.4 58.9.7 11.1 1.5 18.5 1.4 26.4zm100.2 107.1s.1 6-.8 13.2c-2.3 18.9-9.7 59.2-49.2 59.2-33.6 0-46.6-30.5-48.8-61-.4-8.6-2-18.3-1.9-51.1h180.8s.3-26.9-.2-43.1c-.3-6.4-.6-16.9-2.1-39.2-2.5-34.3-15.3-71.7-34.9-96-22.7-28-54.8-42.8-92.8-42.8-73 0-118.7 47.6-127.6 138.7-.8 8.2-2.1 19.5-2.1 63.2 0 31.1 1.8 57.1 2.1 63 4.9 83.2 54.1 136.8 127.7 136.8 73.4 0 122.6-52.1 127.8-140.8z"/><path d="m592.2 65.5h1317.5l503.9 589.5-503.7 581.4h-1317.7l-505.7-583.4zm1349.4-65.5h-1381.2l-560.4 650.9 560.5 646.8h1381.1l558.4-644.7z"/><path d="m608.5 410.8h38.4c41.7 0 64.3 22.1 65.3 61.6.1 2.9.4 6.2.4 12.3 0 7.2-.1 9.8-.4 12.5-2.3 23.5-12.6 64.4-61.5 64.4h-42.3zm192 428.8-8.3-131.2c-3.6-58.7-18.9-93.3-49.3-111 21.9-13.2 50.3-45.8 50-113.9-.4-103.8-64.8-140.2-140.6-141h-123.8v530.2h80v-242.6h44.5c25.8 0 54.8 22.5 59.2 85.8l8.3 124.2c.7 17.6 4 32.6 4 32.6h80.1c.1.1-3.4-14.6-4.1-33.1zm546.5-102.7c-.3 5.8-.7 11.1-1 14.9-2.3 29.6-12.7 61.1-48.9 61.1-33.8 0-47.1-34.1-49.6-59.3-1.5-15.3-1.1-27.1-1.4-72-.4-52.4 1.3-65.9 2.1-74.4 2.9-33.1 15.7-58.8 48.9-59 34.2-.2 48.5 29.5 48.9 58.7 0 .3.7 7.4 1.2 22.9h80.2c-.3-5.4-.5-9.8-.7-12.4-9.1-110.8-76.6-137.6-129.8-137.6-75.4 0-121.4 48-129.7 138.6-.7 7.2-1.8 20.5-2.2 63.2-.4 31.1 1.6 56.5 2.1 63 5.2 84.6 53.8 136.6 129.8 136.8 78.8.3 122.3-47.8 129.8-136.8.2-3.2.7-5.5.5-7.7z"/></g></svg>