<svg xmlns="http://www.w3.org/2000/svg" width="2500" height="2500" viewBox="0 0 192.756 192.756"><g fill-rule="evenodd" clip-rule="evenodd"><path fill="#fff" d="M0 0h192.756v192.756H0V0z"/><path d="M112.291 86.487c-6.053 2.711-11.238 2.908-11.238 2.908V77.214h4.793l-2.828-4.126-5.266.04-1.14 1.619-1.139-1.619-5.265-.04-2.829 4.126h4.794v12.181s-5.187-.197-11.238-2.908l-3.536 4.873s.904.432 4.715 1.768l1.14-1.729s5.829 2.094 13.359 2.045c7.531.048 13.361-2.045 13.361-2.045l1.139 1.729c3.812-1.336 4.715-1.768 4.715-1.768l-3.537-4.873zM96.18 92.42c-6.562.197-13.242-2.122-13.242-2.122l-1.139 1.65c-2.201-.668-2.986-1.101-2.986-1.101l2.357-3.261c5.855 2.515 11.788 2.75 11.788 2.75V76.311h-4.047l1.689-2.358h4.362l1.218 1.769V92.42zm14.107-2.121s-6.68 2.318-13.242 2.122v-16.7l1.217-1.769h4.363l1.689 2.358h-4.049v14.027s5.934-.235 11.789-2.75l2.357 3.261s-.785.433-2.986 1.101l-1.138-1.65zM185.861 105.505s-1.834.996-4.795 4.506h-1.781s-.471.131-.471-.472v-4.531s-.078-.42.393-.42h1.336s.367-.052.654.551l.184.393s.105.445.656.314c0 0 .523.078.365-.523-.156-.603-.025-.079-.025-.079l-.76-2.331s-.053-.314-.445-.314l-.367-.026s-.393-.026-.314.445c0 0 .105.498-.445.498h-.785s-.42.104-.42-.655v-1.336s-.078-.393.498-.393h2.725s.629-.21 1.021.681l.209.445s0 .445.629.314c0 0 .682.078.473-.55l-.498-1.52s-.027-.341-.473-.341h-7.779s-.445-.104-.445.394v.262s-.078.235.445.366c0 0 .576.026.576.786l-.053 7.413s0 .682-.445.812c0 0-.498-.157-.523.419 0 0-.209.472.498.498h3.746s.654-.026.314.419c0 0-1.311 2.175-3.877 3.693 0 0-1.65 1.048-4.559 1.074H20.252s-3.196.314-4.873-1.362l-2.541-2.803s-.209-.341.158-.445c0 0 3.117-.603 4.217-2.698s1.231-3.615 1.231-5.135v-7.02s-.104-.498.524-.524h.629s.314.131.314-.498v-.289s.209-.419-.393-.419h-5.422s-.393-.131-.419.367v.34s-.157.471.472.471h.445s.708-.104.681.786v8.487s.341 4.427-3.615 5.003c0 0-2.593-3.798-4.217-4.715 0 0-2.279-1.729-4.061-.131 0 0-1.755 1.991.917 4.296 0 0 2.698 2.148 7.021 2.018 0 0 2.305 3.483 2.803 4.06 0 0 1.703 2.044 3.117 2.62 1.415.576 1.65.942 6.549.942h144.573s3.721.236 5.842-1.021c0 0 1.73-.812 3.615-2.96l3.799-4.558s3.902.104 5.998-1.258c0 0 2.148-1.1 2.307-2.855.155-1.753-1.548-2.696-4.062-1.491zM7.207 110.247c-1.677-.76-1.205-1.887-1.205-1.887.367-.812 1.493-.262 1.493-.262 1.389.603 2.855 2.803 2.855 2.803-1.912.237-3.143-.654-3.143-.654zm178.627-.865c-1.125.76-3.51.655-3.51.655.393-.681 1.887-2.096 1.887-2.096 1.205-1.048 2.018-.55 2.018-.55 1.152 1.048-.395 1.991-.395 1.991z"/><path d="M30.783 110.482s.026-.288-.419-.393c0 0-.498-.026-.786-.76l-3.013-8.854s.026-.419-.452-.419h-2.384s-.334 0-.543.498l-3.354 8.933s.026.603-1.074.576c0 0-.445.026-.367.472v.314s-.052.34.465.34h2.882s.373.026.399-.288v-.314s.104-.393-.341-.472c0 0-.786-.104-.523-.812l.419-.97h4.715l.445 1.127s.183.55-.184.629c0 0-.55.025-.55.314v.393s-.157.393.544.393h3.72s.426.131.426-.34l-.025-.367zm-5.109-3.353h-2.986c-.76 0-.367-.707-.367-.707l1.572-4.086c.314-.629.629 0 .629 0l1.31 4.008c.314.995-.158.785-.158.785zM100.463 109.984h-1.781s-.471.131-.471-.472v-4.531s-.08-.419.393-.419h1.336s.367-.053.654.55l.184.393s.105.445.654.314c0 0 .525.079.367-.523-.156-.603-.025-.079-.025-.079l-.76-2.331s-.053-.314-.445-.314l-.367-.026s-.393-.026-.314.445c0 0 .105.498-.445.498h-.785s-.42.104-.42-.655v-1.336s-.078-.393.498-.393h2.725s.629-.21 1.021.681l.209.445s0 .445.629.314c0 0 .682.079.471-.55l-.496-1.52s-.027-.341-.473-.341h-7.78s-.445-.104-.445.394v.262s-.079.235.445.367c0 0 .576.025.576.785l-.052 7.414s0 .681-.445.812c0 0-.498-.157-.524.419 0 0-.209.472.498.498H102.953s.289.104.473-.235l.654-1.572s.236-.498-.262-.498h-.498s-.262-.078-.393.236l-.289.497s-.053.446-.812.472h-1.363v-.001zM37.855 109.984h-1.781s-.472.131-.472-.472v-4.531s-.079-.419.393-.419h1.336s.367-.053.655.55l.184.393s.104.445.655.314c0 0 .524.079.367-.523-.157-.603-.026-.079-.026-.079l-.76-2.331s-.053-.314-.445-.314l-.367-.026s-.393-.026-.314.445c0 0 .105.498-.445.498h-.786s-.419.104-.419-.655v-1.336s-.079-.393.498-.393h2.725s.628-.21 1.021.681l.209.445s0 .445.629.314c0 0 .681.079.471-.55l-.497-1.52s-.026-.341-.472-.341h-7.78s-.445-.104-.445.394v.262s-.079.235.445.367c0 0 .576.025.576.785l-.052 7.414s0 .681-.445.812c0 0-.498-.157-.524.419 0 0-.21.472.498.498h7.859s.288.104.472-.235l.654-1.572s.236-.498-.262-.498h-.498s-.262-.078-.393.236l-.288.497s-.053.446-.812.472h-1.364v-.001zM60.201 110.076H58.42s-.472.131-.472-.472v-4.531s-.079-.419.393-.419h1.336s.366-.053.655.55l.183.393s.105.445.655.314c0 0 .524.079.367-.523-.158-.603-.026-.079-.026-.079l-.76-2.331s-.052-.314-.445-.314l-.367-.026s-.393-.026-.314.445c0 0 .105.498-.445.498h-.786s-.419.104-.419-.655v-1.336s-.079-.393.498-.393h2.724s.629-.21 1.021.681l.21.445s0 .445.628.314c0 0 .681.078.471-.55l-.498-1.52s-.026-.341-.471-.341h-7.78s-.445-.104-.445.393v.263s-.079.235.445.366c0 0 .576.026.576.786l-.052 7.413s0 .682-.445.812c0 0-.498-.157-.524.419 0 0-.209.472.498.498h7.859s.288.104.472-.235l.655-1.572s.236-.498-.262-.498h-.498s-.262-.078-.393.236l-.288.497s-.052.445-.812.472h-1.363zM47.653 99.899s-5.053-.021-5.423 5.605c-.373 5.685 5.187 5.764 5.187 5.764s1.887.235 4.323-1.415c0 0 .367-.262.393-.785l.104-1.049s-.235-.863.708-.863c0 0 .34-.027.367-.42v-.184s.026-.34-.576-.34h-3.982s-.445-.079-.445.288v.262s-.026.366.445.366c0 0 .969-.078.969.891 0 0 .209 2.306-2.227 2.306s-2.384-2.279-2.462-5.213c-.078-2.907.838-4.322 2.829-4.296 1.991.026 2.672 1.624 2.882 1.99 0 0 .131.367.603.314l.498-.209s.314.078.184-.394l-.681-2.147s-.007-.394-.373-.314c0 0-.229-.026-.36.235 0 0 .085.603-.891.184-.003.001-.789-.576-2.072-.576zM77.339 110.535s.053-.288-.445-.314l-.223-.014s-.638.06-1.218-.851c0 0-1.46-2.771-2.377-3.399 0 0-.288-.216 0-.321 0 0 1.231-.235 1.965-.942 0 0 .838-.341.812-2.044 0 0 .184-2.488-3.438-2.515H65.76l.001.001-.007-.001s-.445-.104-.445.394v.262s-.079.235.445.367c0 0 .576.025.576.785l-.052 7.414s.059.795-.55.814c0 0-.531-.059-.492.452 0 0-.177.541.531.566h3.664s.54.099.55-.265l-.01-.419s.026-.332-.492-.334c-.167-.047-.514-.198-.556-.659v-3.064s-.078-.419.393-.419l.001-.013.743.009s.933-.059 1.417.868l1.618 3.039s.524 1.231 1.86 1.257h2.096s.314.079.314-.366l-.026-.288zm-6.061-5.551l-1.909-.028v-.001l-.003.001-.052-.001v.005c-.114-.002-.363-.073-.363-.66v-2.803s-.077-.388.488-.392l2.197.052s1.765.006 1.781 1.676c.015 1.599-.855 2.151-2.139 2.151zM174.58 110.535s.053-.288-.445-.314l-.223-.014s-.639.06-1.219-.851c0 0-1.459-2.771-2.377-3.399 0 0-.287-.216 0-.321 0 0 1.232-.235 1.965-.942 0 0 .838-.341.812-2.044 0 0 .184-2.488-3.438-2.515h-6.654v.001l-.006-.001s-.445-.104-.445.394v.262s-.08.235.445.367c0 0 .576.025.576.785l-.053 7.414s.059.795-.551.814c0 0-.529-.059-.49.452 0 0-.178.541.529.566h3.664s.541.099.551-.265l-.01-.419s.025-.332-.492-.334c-.168-.047-.514-.198-.557-.659v-3.064s-.078-.419.395-.419v-.013l.742.009s.934-.059 1.418.868l1.617 3.039s.525 1.231 1.861 1.257h2.096s.312.079.312-.366l-.023-.288zm-6.06-5.551l-1.91-.028.002-.001-.004.001-.053-.001v.005c-.115-.002-.363-.073-.363-.66v-2.803s-.078-.388.488-.392l2.197.052s1.764.006 1.781 1.676c.016 1.599-.855 2.151-2.138 2.151zM82.807 106.501c.246 0 .445-.2.445-.446v-.942a.445.445 0 0 0-.445-.445h-4.27a.445.445 0 0 0-.445.445v.942c0 .246.199.446.445.446h4.27zM85.237 100.057s-.324.026-.324.321v.333s-.049.403.462.314c0 0 .845-.078.845.786v7.613s.079.569-.589.589c0 0-.432-.02-.452.314v.442s0 .394.354.419h7.073s.236.111.511-.438l.708-1.552s.177-.433-.236-.433h-.511s-.275 0-.373.236l-.255.49s-.265.6-.923.511h-2.103s-.619.079-.628-.511v-7.721s-.079-.707.53-.728h.295s.285.04.275-.373v-.274s.059-.341-.373-.341h-4.286v.003zM144.125 100.057s-.324.026-.324.321v.333s-.049.403.461.314c0 0 .846-.078.846.786v7.613s.078.569-.59.589c0 0-.432-.02-.451.314v.442s0 .394.354.419h7.072s.236.111.51-.438l.709-1.552s.176-.433-.236-.433h-.512s-.273 0-.373.236l-.254.49s-.266.6-.924.511h-2.104s-.617.079-.627-.511v-7.721s-.08-.707.529-.728h.295s.285.04.275-.373v-.274s.059-.341-.373-.341h-4.283v.003zM112.172 95.001s-6.994-.367-7.072 8.251c0 0-.314 7.519 6.916 7.886 0 0 1.676.104 3.17-.839 0 0 .471-.209.576.184 0 0 .078.523.629.472 0 0 .549-.026.602-.524l.969-2.96s.184-.497-.234-.497l-.367-.026s-.289 0-.445.366c0 0-.523 1.205-1.152 1.65 0 0-.99 1.169-3.223 1.101 0 0-4.191.104-4.033-6.812 0 0-.367-7.15 4.164-7.125 0 0 2.174-.157 3.746 2.175 0 0 .184.445.654.445h.445s.367.025.236-.576l-.707-2.725s-.078-.341-.367-.341h-.523s-.236.079-.184.367c0 0 .078.34-.105.445 0 0-.131.209-.496 0-.002 0-1.287-.865-3.199-.917zM122.094 107.7l.006.032-.006-.032zM130.221 105.479c-.131-5.553-5.527-5.533-5.527-5.533s-5.396-.02-5.527 5.533c0 0-.078 5.476 5.527 5.711 5.605-.236 5.527-5.711 5.527-5.711zm-2.934 2.332c-.498 2.725-2.594 2.324-2.594 2.324s-2.096.4-2.594-2.324c-.465-2.548-.059-.4-.006-.11-.051-.286-.424-2.513.139-5.129 0 0 .471-1.762 2.461-1.709 1.992-.053 2.463 1.709 2.463 1.709.562 2.616.189 4.843.137 5.129.055-.291.459-2.438-.006.11zM127.293 107.7l-.006.032.006-.032zM131.74 100.057s-.373.007-.373.321v.333s-.02.334.471.334l.236-.02s.492-.078.492.747v5.6s.195 3.851 4.537 3.87c0 0 4.461.236 4.322-4.008v-5.561s-.098-.648.57-.668h.197s.254 0 .254-.295v-.294s.1-.354-.293-.36h-2.613s-.354-.014-.354.281l-.02.256s-.08.412.373.412c0 0 .707-.117.727.825v5.442s.275 2.849-2.299 2.849c0 0-2.869.491-2.869-3.025v-5.462s.08-.609.629-.629h.158s.254.039.275-.334v-.274s.078-.334-.256-.341h-4.164v.001zM152 100.057s-.311-.014-.455.288l-.682 1.65s-.17.366.236.366h.523s.197.079.406-.301l.379-.747s.184-.262.547-.248h1.572s.461-.065.475.576v7.924s.08.55-.248.603h-.42s-.236.026-.248.288v.419s-.057.314.311.314h4.074s.277.053.277-.288v-.314s.066-.393-.236-.393l-.484-.013s-.51.131-.457-.747v-7.767s-.162-.603.441-.603h1.559s.305-.092.541.327l.379.655s.17.301.51.313h.498s.367 0 .211-.419l-.695-1.65s-.025-.235-.553-.235H152v.002z"/></g></svg>