<svg xmlns="http://www.w3.org/2000/svg" width="2500" height="2500" viewBox="0 0 192.756 192.756"><g fill-rule="evenodd" clip-rule="evenodd"><path fill="#fff" d="M0 0h192.756v192.756H0V0z"/><path d="M33.956 103.895c.493 0 .432-.282.432-.806v-2.543c0-.525-.052-.693.249-.693 1.046 0 1.333-.095 1.333-1.029V89.37c0-2.574-1.819-2.149-2.333-3.089-.727-1.272 1.361-1.272.604-4.029-.192-.623-.683-1.011-1.625-1.011s-1.434.389-1.626 1.011c-.758 2.756 1.333 2.756.603 4.029-.515.94-2.33.515-2.33 3.089v9.453c0 .935.282 1.029 1.333 1.029.296 0 .247.168.247.693v2.543c0 .523-.062.806.434.806l2.679.001zM25.68 83.385c-.928.989-2.399 3.298-1.441 5.218 1.951.75 1.803-6.179 4.229-6.059 1.203 1.111-.357 4.38-.838 5.82-.602 1.771-1.079 5.489-2.221 7.288-.957 1.5-.238 6.209-.541 7.829-.808.81-3 .239-3.928.089 0-1.857-.242-3.326-.541-6.296-.029-.6-.661-9.78-.151-10.889 1.05-2.31 6.778-6.719 7.561-7.559.689-.751 3.116-3.241 4.048-3.241.658.451.27 1.502.119 1.919-.926 2.311-4.948 4.591-6.296 5.881zM39.656 83.385c.898.989 2.369 3.298 1.439 5.218-1.979.75-1.83-6.179-4.258-6.059-1.17 1.111.387 4.38.869 5.82.599 1.771 1.079 5.489 2.219 7.288.932 1.5.239 6.209.509 7.829.839.81 3.001.239 3.958.089 0-1.857.212-3.326.51-6.296.061-.6.692-9.78.181-10.889-1.048-2.31-6.779-6.719-7.557-7.559-.721-.751-3.12-3.241-4.05-3.241-.691.451-.27 1.502-.12 1.919.933 2.311 4.95 4.591 6.3 5.881zM17.348 80.275c-.512.479-1.654.81-2.437 1.861-.299-.57.481-1.951 1.412-2.764.692-.573 2.044-1.503 2.435-1.593.302.693-.779 1.744-1.41 2.496z" fill="#1879bf"/><path d="M15.755 84.03c-.872.813-1.802 1.144-3.007 2.616a8.862 8.862 0 0 1-.151-4.388c.423-1.382 1.112-2.915 2.286-3.397-.239.782-.634 1.865-.724 3.337-.509 2.014-.81 2.075-.688 2.344.118 0 .778-1.052 1.592-1.863.96-.962 2.162-1.174 2.943-1.743-.119.391-.809 1.622-2.251 3.094z" fill="#1879bf"/><path d="M11.516 92.356c-1.169-2.104-1.292-3.638-1.382-5.411.061-1.233.661-4.087 1.562-4.507-.27 2.583.422 2.825.15 4.958 0 .12-.3 2.344-.3 2.463.361-.059.03-2.044 4.148-4.897-.902 1.561-.482 2.043-2.104 4.117-1.894 1.864-2.164 3.698-2.074 3.277z" fill="#1879bf"/><path d="M13.171 94.339c-.874 1.263-.723 1.895-.932 2.495-2.076-1.203-4.419-5.98-3.549-8.354.541 1.802 1.293 2.193 1.834 3.695.932 2.256.783 2.948 1.383 3.457-.123-1.171.271-2.554.661-3.576.573-.87 1.021-2.014 1.444-2.406.448 1.655.119 3.008-.841 4.689z" fill="#1879bf"/><path d="M15.034 98.426c0 1.835-.333 2.645-.481 3.998-3.578-1.171-5.442-5.259-5.442-7.272 1.084 2.465 2.674 2.434 4.75 5.919.18-1.32-.361-.329-.422-2.823.061-2.616.602-2.706.692-4.327.661.72.903 3.605.903 4.505z" fill="#1879bf"/><path d="M18.007 103.626c.273 1.354.393 2.946.602 4.117-2.044-.75-2.556-.18-4.989-1.712-1.11-.601-3.096-3.126-2.974-4.929 2.402 2.675 2.825 2.373 3.998 3.365 1.079.871 1.949 2.166 2.734 1.985.057-.722-1.773-2.286-1.534-6.793.48.511 1.802 2.555 2.163 3.967z" fill="#1879bf"/><path d="M22.064 106.993c.632.901.483 1.292 2.103 3.155-.392.182-2.702.78-4.236.842-1.02 0-4.627-.961-5.829-3.427 2.07 1.112 2.103.842 4.868 1.443 1.982.45 3.396 1.081 3.937 1.022-.12-.271-1.654-.902-2.704-2.226-1.054-1.412-.812-3.004-1.745-4.178.632-.178 3.094 2.708 3.606 3.369zM47.819 80.275c.482.479 1.655.81 2.405 1.861.33-.57-.48-1.951-1.411-2.764-.66-.573-2.013-1.503-2.435-1.593-.299.693.781 1.744 1.441 2.496z" fill="#1879bf"/><path d="M49.413 84.03c.841.813 1.773 1.144 2.976 2.616a8.85 8.85 0 0 0 .151-4.388c-.39-1.382-1.111-2.915-2.285-3.397.271.782.632 1.865.722 3.337.511 2.014.812 2.075.693 2.344-.121 0-.783-1.052-1.593-1.863-.933-.962-2.136-1.174-2.945-1.743.118.391.84 1.622 2.281 3.094z" fill="#1879bf"/><path d="M53.623 92.356c1.2-2.104 1.29-3.638 1.381-5.411-.061-1.233-.66-4.087-1.531-4.507.239 2.583-.451 2.825-.152 4.958 0 .12.272 2.344.272 2.463-.331-.059-.03-2.044-4.118-4.897.872 1.561.449 2.043 2.074 4.117 1.923 1.864 2.162 3.698 2.074 3.277z" fill="#1879bf"/><path d="M51.999 94.339c.841 1.263.69 1.895.902 2.495 2.073-1.203 4.446-5.98 3.546-8.354-.511 1.802-1.292 2.193-1.802 3.695-.963 2.256-.812 2.948-1.383 3.457.12-1.171-.302-2.554-.691-3.576-.542-.87-1.022-2.014-1.444-2.406-.421 1.655-.121 3.008.872 4.689z" fill="#1879bf"/><path d="M50.104 98.426c0 1.835.36 2.645.512 3.998 3.546-1.171 5.44-5.259 5.44-7.272-1.114 2.465-2.675 2.434-4.777 5.919-.182-1.32.359-.329.42-2.823-.061-2.616-.602-2.706-.693-4.327-.66.72-.902 3.605-.902 4.505z" fill="#1879bf"/><path d="M47.13 103.626c-.271 1.354-.36 2.946-.571 4.117 2.013-.75 2.522-.18 4.958-1.712 1.111-.601 3.126-3.126 3.004-4.929-2.403 2.675-2.853 2.373-3.996 3.365-1.082.871-1.982 2.166-2.767 1.985-.058-.722 1.776-2.286 1.564-6.793-.508.511-1.833 2.555-2.192 3.967z" fill="#1879bf"/><path d="M43.072 106.993c-.601.901-.451 1.292-2.105 3.155.421.182 2.707.78 4.271.842.99 0 4.597-.961 5.796-3.427-2.072 1.112-2.102.842-4.867 1.443-1.984.45-3.366 1.081-3.937 1.022.12-.271 1.684-.902 2.706-2.226 1.05-1.412.811-3.004 1.773-4.178-.662-.178-3.125 2.708-3.637 3.369zM27.445 115.469l-.602-.301s3.819-4.659 10.371-4.298c6.551.36 6.1 1.893 9.617 1.654.39-.03-.302.479-.302.479s-3.424 1.321-7.661-.121c-4.21-1.442-6.947-2.314-11.423 2.587z" fill="#1879bf"/><path d="M37.813 115.469l.604-.301s-3.791-4.659-10.342-4.298c-6.58.36-6.131 1.893-9.646 1.654-.389-.03.3.479.3.479s3.427 1.321 7.666-.121c4.235-1.442 6.971-2.314 11.418 2.587zM67.769 108.859h-2.287v-1.411h6.25v1.411h-2.286v6.218h-1.677v-6.218zM72.255 107.448h1.519v2.875h.031a1.938 1.938 0 0 1 1.613-.919c1.614 0 2.02.907 2.02 2.276v3.396H75.92v-3.12c0-.907-.266-1.357-.971-1.357-.823 0-1.175.459-1.175 1.583v2.895h-1.519v-7.629zM79.605 112.684c.043.961.514 1.4 1.357 1.4.61 0 1.1-.374 1.196-.717h1.336c-.427 1.304-1.336 1.86-2.585 1.86-1.741 0-2.821-1.197-2.821-2.906 0-1.656 1.145-2.917 2.821-2.917 1.881 0 2.789 1.58 2.682 3.279h-3.986v.001zm2.469-.962c-.139-.768-.47-1.174-1.208-1.174-.96 0-1.239.748-1.261 1.174h2.469zM93.325 112.192c0 2.062-1.22 3.066-3.259 3.066-2.051 0-3.249-.994-3.249-3.066v-4.744h1.678v4.744c0 .833.214 1.656 1.571 1.656 1.196 0 1.581-.523 1.581-1.656v-4.744h1.678v4.744zM94.445 107.448h1.667l3.183 5.118h.023v-5.118h1.571v7.629h-1.678l-3.174-5.106h-.022v5.106h-1.57v-7.629zM105.984 108.751h1.836c.748 0 1.156.321 1.156 1.059 0 .771-.408 1.091-1.156 1.091h-1.836v-2.15zm-1.677 6.326h1.678v-2.98h1.678c.844 0 1.152.352 1.271 1.154.084.608.062 1.346.266 1.826h1.678c-.299-.428-.287-1.325-.32-1.806-.053-.769-.289-1.57-1.111-1.783v-.022c.844-.342 1.207-1.016 1.207-1.911 0-1.154-.863-2.106-2.232-2.106h-4.113v7.628h-.002zM112.92 111.722c.02-.426.297-1.174 1.258-1.174.738 0 1.07.406 1.209 1.174h-2.467zm3.982.962c.107-1.699-.801-3.279-2.682-3.279-1.678 0-2.82 1.261-2.82 2.917 0 1.709 1.078 2.906 2.82 2.906 1.252 0 2.158-.557 2.586-1.86h-1.334c-.098.343-.59.717-1.197.717-.844 0-1.314-.439-1.355-1.4h3.982v-.001zM117.939 110.568h-.908v-1.014h.908v-.429c0-.972.609-1.678 1.848-1.678.268 0 .547.032.803.045v1.131a4.798 4.798 0 0 0-.557-.031c-.404 0-.576.17-.576.631v.331h1.047v1.014h-1.047v4.509h-1.518v-4.509zM126.156 115.077h-1.443v-.77h-.033a1.97 1.97 0 0 1-1.688.92c-1.613 0-2.018-.909-2.018-2.277v-3.396h1.516v3.118c0 .909.268 1.357.973 1.357.822 0 1.174-.46 1.174-1.582v-2.894h1.52v5.524h-.001zM129.648 113.773c-.93 0-1.229-.866-1.229-1.656 0-.821.373-1.569 1.229-1.569.984 0 1.293.801 1.293 1.698 0 .79-.425 1.527-1.293 1.527zm2.735-4.218h-1.441v.737h-.021c-.361-.643-.918-.888-1.645-.888-1.551 0-2.371 1.304-2.371 2.734 0 1.518.703 2.778 2.359 2.778.662 0 1.324-.278 1.656-.855h.021v.727c.01.791-.375 1.368-1.219 1.368-.533 0-.992-.192-1.131-.758h-1.508c.074 1.26 1.348 1.772 2.436 1.772 2.543 0 2.863-1.538 2.863-2.446v-5.169h.001zM134.66 111.722c.02-.426.299-1.174 1.26-1.174.738 0 1.068.406 1.207 1.174h-2.467zm3.985.962c.107-1.699-.801-3.279-2.682-3.279-1.676 0-2.82 1.261-2.82 2.917 0 1.709 1.078 2.906 2.82 2.906 1.25 0 2.158-.557 2.584-1.86h-1.334c-.096.343-.588.717-1.195.717-.844 0-1.316-.439-1.357-1.4h3.984v-.001zM140.602 111.722c.02-.426.297-1.174 1.258-1.174.738 0 1.07.406 1.207 1.174h-2.465zm3.982.962c.107-1.699-.801-3.279-2.682-3.279-1.678 0-2.82 1.261-2.82 2.917 0 1.709 1.078 2.906 2.82 2.906 1.252 0 2.16-.557 2.586-1.86h-1.334c-.098.343-.59.717-1.197.717-.846 0-1.314-.439-1.355-1.4h3.982v-.001zM150.717 109.328h.021l.963 2.8h-1.977l.993-2.8zm-3.729 5.749h1.699l.598-1.697h2.854l.576 1.697h1.742l-2.854-7.629h-1.719l-2.896 7.629zM157.299 113.773c-.93 0-1.229-.866-1.229-1.656 0-.821.373-1.569 1.229-1.569.982 0 1.293.801 1.293 1.698 0 .79-.428 1.527-1.293 1.527zm2.734-4.218h-1.441v.737h-.021c-.363-.643-.92-.888-1.645-.888-1.551 0-2.373 1.304-2.373 2.734 0 1.518.705 2.778 2.361 2.778.66 0 1.326-.278 1.656-.855h.021v.727c.01.791-.375 1.368-1.219 1.368-.533 0-.994-.192-1.133-.758h-1.508c.076 1.26 1.348 1.772 2.439 1.772 2.541 0 2.861-1.538 2.861-2.446v-5.169h.002zM162.309 111.722c.021-.426.299-1.174 1.262-1.174.736 0 1.068.406 1.205 1.174h-2.467zm3.986.962c.105-1.699-.803-3.279-2.682-3.279-1.68 0-2.82 1.261-2.82 2.917 0 1.709 1.078 2.906 2.82 2.906 1.25 0 2.158-.557 2.584-1.86h-1.334c-.096.343-.59.717-1.197.717-.844 0-1.314-.439-1.357-1.4h3.986v-.001zM166.957 109.555h1.441v.769h.031c.385-.621 1.049-.919 1.689-.919 1.611 0 2.02.907 2.02 2.276v3.396h-1.518v-3.12c0-.907-.268-1.357-.973-1.357-.822 0-1.176.459-1.176 1.583v2.895h-1.516v-5.523h.002zM176.816 111.498c-.094-.62-.49-.95-1.119-.95-.973 0-1.295.982-1.295 1.794 0 .792.311 1.742 1.262 1.742.705 0 1.109-.448 1.207-1.122h1.463c-.191 1.463-1.207 2.266-2.66 2.266-1.666 0-2.789-1.176-2.789-2.832 0-1.721 1.027-2.991 2.82-2.991 1.305 0 2.502.684 2.596 2.094h-1.485v-.001zM181.723 115.771c-.334.887-.855 1.249-1.904 1.249-.309 0-.619-.02-.928-.052v-1.251c.289.021.586.064.887.054.521-.054.693-.6.521-1.036l-1.943-5.181h1.625l1.25 3.782h.021l1.205-3.782h1.572l-2.306 6.217zM86.12 95.081c0 6.263-3.385 9.269-10.282 9.269-6.898 0-10.315-3.006-10.315-9.269V81.225h6.959V93.53c0 2.309 0 5.188 3.387 5.188 3.29 0 3.29-2.879 3.29-5.188V81.225h6.96v13.856h.001zM90.294 81.225h7.118l6.58 12.083h.063V81.225h6.58v22.586h-6.768l-6.93-12.337h-.062v12.337h-6.581V81.225zM114.906 81.225h6.959v7.845h6.52v-7.845h6.959v22.586h-6.959v-8.952h-6.52v8.952h-6.959V81.225zM153.154 89.64c-.127-.824-.76-3.322-3.639-3.322-3.26 0-4.305 3.162-4.305 6.2 0 3.037 1.045 6.201 4.305 6.201 2.34 0 3.258-1.645 3.67-3.765h6.832c0 4.555-3.701 9.396-10.312 9.396-7.307 0-11.453-5.157-11.453-11.832 0-7.118 4.494-11.831 11.453-11.831 6.199.03 9.619 3.289 10.219 8.952h-6.77v.001zM169.887 86.6h3.26c2.656 0 3.447.823 3.447 2.249 0 2.023-1.771 2.246-3.066 2.246h-3.641V86.6zm-6.959 17.211h6.959v-7.876h3.703c2.752 0 2.939 2.247 3.133 4.4.094 1.17.219 2.34.568 3.477h6.961c-.635-1.043-.664-3.732-.762-4.838-.252-2.817-1.422-4.905-3.322-5.632 2.311-.855 3.387-3.322 3.387-5.663 0-4.273-3.418-6.453-7.371-6.453h-13.256v22.585z" fill="#1879bf"/></g></svg>