<svg fill="none" height="210" viewBox="0 0 474 210" width="474" xmlns="http://www.w3.org/2000/svg" xmlns:xlink="http://www.w3.org/1999/xlink"><filter id="a" color-interpolation-filters="sRGB" filterUnits="userSpaceOnUse" height="116.412" width="116.412" x="175.337" y="-8.94141"><feFlood flood-opacity="0" result="BackgroundImageFix"/><feBlend in="SourceGraphic" in2="BackgroundImageFix" mode="normal" result="shape"/><feGaussianBlur result="effect1_foregroundBlur_116:1137" stdDeviation="15"/></filter><linearGradient id="b"><stop offset="0" stop-color="#4a6cf7" stop-opacity="0"/><stop offset="1" stop-color="#4a6cf7"/></linearGradient><linearGradient id="c" gradientUnits="userSpaceOnUse" x1="25" x2="126.155" xlink:href="#b" y1="183" y2="27.0837"/><linearGradient id="d" gradientUnits="userSpaceOnUse" x1="307" x2="408.155" xlink:href="#b" y1="153" y2="-2.91631"/><radialGradient id="e" cx="0" cy="0" gradientTransform="matrix(0 73.5368 -73.5368 0 227.5 81.5)" gradientUnits="userSpaceOnUse" r="1"><stop offset="0" stop-opacity=".47"/><stop offset="1" stop-opacity="0"/></radialGradient><mask id="f" height="137" maskUnits="userSpaceOnUse" width="137" x="159" y="13"><circle cx="227.5" cy="81.5" fill="#4a6cf7" opacity=".8" r="68.5"/></mask><path d="m25 163.051h76.211v27.949h32.097v-27.949h19.692v-26.94h-19.692v-104.111h-42.0209l-66.2871 104.577zm76.831-26.94h-43.0285v-1.242l41.7885-66.2245h1.24z" opacity=".5" stroke="url(#c)" stroke-width="3"/><path d="m307 133.051h76.211v27.949h32.097v-27.949h19.692v-26.94h-19.692v-104.111h-42.021l-66.287 104.577zm76.831-26.94h-43.028v-1.242l41.788-66.2245h1.24z" opacity=".5" stroke="url(#d)" stroke-width="3"/><circle cx="227.5" cy="81.5" fill="#4a6cf7" opacity=".8" r="68.5"/><g mask="url(#f)"><circle cx="227.5" cy="81.5" fill="url(#e)" opacity=".8" r="68.5"/><g filter="url(#a)" opacity=".8"><circle cx="233.543" cy="49.2645" fill="#fff" r="28.2059"/></g></g><path d="m0 182h83.5v27h67v-31h19v-29.5s24.5 16.5 60 16.5 64.5-30.5 64.5-30.5v17.5h12.5 54.5v26h74v-26h39" stroke="#fff" stroke-opacity=".08" stroke-width="2"/></svg>