<svg xmlns="http://www.w3.org/2000/svg" width="50" height="50" viewBox="0 0 50 50" fill="none"><g style="mix-blend-mode:luminosity"><path d="M15.3443 23L16.8535 18.5193H18.2124L19.638 23H18.5129L18.2691 22.212H16.7232L16.4795 23H15.3443ZM16.9937 21.4207H18.0254L17.5179 19.7814L16.9937 21.4207ZM20.9616 23V18.5193H22.6811C23.1976 18.5193 23.6071 18.6439 23.9098 18.8932C24.2126 19.1403 24.3639 19.5065 24.3639 19.9917C24.3639 20.4747 24.2126 20.842 23.9098 21.0935C23.6071 21.3428 23.1976 21.4675 22.6811 21.4675H22.0367V23H20.9616ZM22.0367 20.5326H22.6811C22.8748 20.5326 23.0206 20.4792 23.1185 20.3723C23.2187 20.2633 23.2688 20.1364 23.2688 19.9917C23.2688 19.8448 23.2187 19.7168 23.1185 19.6077C23.0206 19.4987 22.8748 19.4441 22.6811 19.4441H22.0367V20.5326ZM25.7187 23V18.5193H28.7136V19.4441H26.7871V20.3056H28.5934V21.2338H26.7871V22.0651H28.7136V23H25.7187ZM30.0412 23L31.6238 20.7663L30.0412 18.5193H31.3667L32.3416 19.9283L33.1229 18.5193H34.4117L32.9426 20.7463L34.6588 23H33.3066L32.2415 21.5977L31.3366 23H30.0412ZM17.2368 31.1068C16.8451 31.1068 16.5001 31.0189 16.2018 30.8431C15.9058 30.6672 15.6743 30.4057 15.5073 30.0584C15.3404 29.7112 15.2569 29.2805 15.2569 28.7663C15.2569 28.2499 15.3393 27.8181 15.504 27.4708C15.6709 27.1236 15.9035 26.8621 16.2018 26.6862C16.5001 26.5081 16.8451 26.4191 17.2368 26.4191C17.8022 26.4191 18.2329 26.5527 18.529 26.8198C18.825 27.0869 19.0009 27.433 19.0565 27.8581L17.9213 28.0551C17.8701 27.8637 17.7889 27.7057 17.6776 27.581C17.5685 27.4541 17.4216 27.3907 17.2368 27.3907C17.0721 27.3907 16.9263 27.4408 16.7995 27.541C16.6748 27.6389 16.578 27.7891 16.509 27.9917C16.44 28.1943 16.4055 28.4525 16.4055 28.7663C16.4055 29.0735 16.4411 29.3284 16.5123 29.5309C16.5835 29.7312 16.6815 29.8804 16.8061 29.9783C16.933 30.0763 17.0766 30.1252 17.2368 30.1252C17.4661 30.1252 17.6375 30.0651 17.751 29.9449C17.8645 29.8225 17.9213 29.6745 17.9213 29.5009H19.0498C19.0498 29.8459 18.9797 30.1386 18.8395 30.379C18.7015 30.6171 18.4978 30.7986 18.2285 30.9232C17.9591 31.0456 17.6286 31.1068 17.2368 31.1068ZM22.4172 31.1068C21.9921 31.1068 21.6203 31.0178 21.302 30.8397C20.986 30.6594 20.74 30.3946 20.5642 30.0451C20.3883 29.6934 20.3004 29.2605 20.3004 28.7463C20.3004 28.2187 20.3883 27.7836 20.5642 27.4408C20.74 27.0958 20.986 26.8398 21.302 26.6729C21.6203 26.5037 21.9921 26.4191 22.4172 26.4191C22.8468 26.4191 23.2208 26.507 23.5391 26.6829C23.8596 26.8587 24.1078 27.1191 24.2836 27.4642C24.4595 27.8092 24.5474 28.2365 24.5474 28.7463C24.5474 29.2694 24.4595 29.7068 24.2836 30.0584C24.1078 30.4079 23.8596 30.6706 23.5391 30.8464C23.2208 31.02 22.8468 31.1068 22.4172 31.1068ZM22.4172 30.1486C22.7288 30.1486 22.9781 30.0262 23.1651 29.7813C23.3521 29.5342 23.4456 29.187 23.4456 28.7396C23.4456 28.3189 23.3521 27.9872 23.1651 27.7446C22.9781 27.4998 22.7288 27.3774 22.4172 27.3774C22.1145 27.3774 21.8696 27.4998 21.6827 27.7446C21.4957 27.9872 21.4022 28.3211 21.4022 28.7463C21.4022 29.1892 21.4957 29.5342 21.6827 29.7813C21.8696 30.0262 22.1145 30.1486 22.4172 30.1486ZM26.0644 26.5193H27.6504C28.1112 26.5193 28.5174 26.6105 28.8691 26.7931C29.2208 26.9756 29.4957 27.2349 29.6938 27.571C29.8941 27.9049 29.9943 28.3033 29.9943 28.7663C29.9943 29.2226 29.8941 29.6188 29.6938 29.9549C29.4957 30.2888 29.2208 30.547 28.8691 30.7296C28.5174 30.9099 28.1112 31 27.6504 31H26.0644V26.5193ZM27.1329 27.5009V30.0251H27.6504C27.893 30.0251 28.1022 29.9705 28.2781 29.8615C28.4562 29.7502 28.5931 29.5999 28.6888 29.4107C28.7867 29.2215 28.8357 29.0067 28.8357 28.7663C28.8357 28.517 28.7867 28.2978 28.6888 28.1086C28.5931 27.9194 28.4562 27.7713 28.2781 27.6645C28.1022 27.5554 27.893 27.5009 27.6504 27.5009H27.1329ZM31.499 31V26.5193H34.494V27.4441H32.5675V28.3056H34.3738V29.2338H32.5675V30.0651H34.494V31H31.499Z" fill="#2E2E2E"></path></g></svg>