<svg xmlns="http://www.w3.org/2000/svg" width="50" height="50" viewBox="0 0 50 50" fill="none"><g style="mix-blend-mode:luminosity"><path d="M7.19336 40.9986V38.4743C8.11845 37.4105 10.3191 34.9006 11.7211 33.3711C13.4736 31.4593 18.6798 23.1761 19.653 21.0352C22.8784 13.9389 23.0874 11.4104 24.1504 7.83838L24.7463 8.00564C24.9028 16.7529 24.9686 34.0326 24.7463 34.1888C24.359 34.4608 18.9932 35.0693 15.4122 36.2435C12.5473 37.1828 8.73928 39.805 7.19336 40.9986Z" fill="#00188F"></path><path d="M34.5139 13.7893V36.999C28.3477 34.4802 15.1195 36.977 7.1582 41.0188C7.1582 41.0188 11.1023 38.0303 16.0993 36.5116C21.0963 34.9929 25.4481 34.6223 25.4481 34.6223L25.5266 26.5374C27.7006 24.7011 30.4538 20.4168 31.4669 19.0238C32.2774 17.9093 33.5361 14.9137 34.0642 13.5552L34.5139 13.7893Z" fill="#00188F"></path><path d="M23.0309 39.2153C16.3484 39.563 9.41121 40.3282 7 41.1484C12.4703 37.8115 19.246 37.1215 24.3587 36.6255C28.4489 36.2287 33.112 37.1777 34.9323 37.7018L35.0219 37.4451L34.9578 25.6489C36.5802 24.9712 40.8342 21.0133 42.4181 19.1191L43 19.48L42.9997 41.9181L42.3448 42.1608C38.6912 41.0341 29.7133 38.8677 23.0309 39.2153Z" fill="#00188F"></path></g></svg>