<svg xmlns="http://www.w3.org/2000/svg" width="50" height="50" viewBox="0 0 50 50" fill="none"><g style="mix-blend-mode:luminosity"><path d="M11.9922 39.3438L9.10938 7H40.8203L37.9375 39.3438L24.9297 43" fill="#E34F26"></path><path d="M25 40.1875L35.4766 37.3047L37.9375 9.60156H25" fill="#EF652A"></path><path d="M25 21.625H19.7266L19.375 17.5469H25V13.6094H24.9297H15.0156L15.0859 14.6641L16.0703 25.6328H25V21.625ZM25 31.9609H24.9297L20.5 30.7656L20.2188 27.6016H18.1094H16.2812L16.7734 33.8594L24.9297 36.1094H25V31.9609Z" fill="#EBEBEB"></path><path d="M24.9297 21.625V25.6328H29.8516L29.3594 30.7656L24.9297 31.9609V36.1094L33.0859 33.8594L33.1562 33.1562L34.0703 22.6797L34.2109 21.625H33.0859H24.9297ZM24.9297 13.6094V16.0703V17.5469H34.5625L34.6328 16.7031L34.8438 14.6641L34.9141 13.6094H24.9297Z" fill="white"></path></g></svg>