<svg xmlns="http://www.w3.org/2000/svg" width="50" height="50" viewBox="0 0 50 50" fill="none"><g style="mix-blend-mode:luminosity"><g clip-path="url(#clip0_57570_3287)"><path d="M7 7H43V43H7V7Z" fill="#F0DB4F"></path><path d="M40.0516 34.4138C39.7881 32.7712 38.717 31.3922 35.5447 30.1055C34.4428 29.599 33.2143 29.2363 32.8482 28.4013C32.7181 27.9153 32.701 27.6416 32.7832 27.3473C33.0193 26.3925 34.1588 26.0948 35.0622 26.3686C35.644 26.5636 36.1949 27.012 36.5269 27.7271C38.0805 26.7211 38.0771 26.7279 39.1619 26.0367C38.7649 25.4207 38.5527 25.1366 38.2927 24.8732C37.3584 23.8294 36.0854 23.2922 34.0493 23.3332C33.6968 23.3777 33.341 23.4256 32.9885 23.4701C31.9722 23.7268 31.0037 24.2606 30.4356 24.9758C28.7314 26.9093 29.2174 30.2937 31.2911 31.6865C33.3341 33.2196 36.3352 33.5686 36.7185 35.0025C37.0915 36.758 35.4284 37.326 33.7755 37.1241C32.5573 36.8709 31.8798 36.2515 31.1474 35.1257C29.7992 35.9059 29.7992 35.9059 28.4132 36.7032C28.7417 37.4219 29.0873 37.7469 29.6383 38.3698C32.2459 41.015 38.7717 40.885 39.9421 36.8812C39.99 36.7443 40.3049 35.8271 40.0516 34.4138ZM26.5687 23.5454H23.2014C23.2014 26.4541 23.1878 29.3423 23.1878 32.2511C23.1878 34.1024 23.2836 35.7998 22.9824 36.3199C22.4897 37.3431 21.2132 37.2165 20.6315 37.018C20.0395 36.7271 19.7383 36.313 19.3893 35.7279C19.2935 35.5602 19.2216 35.4302 19.1976 35.4199C18.2839 35.9777 17.3736 36.5389 16.46 37.0967C16.9151 38.0309 17.5858 38.842 18.4448 39.3689C19.728 40.1389 21.4527 40.375 23.2562 39.961C24.43 39.6187 25.4428 38.9104 25.9733 37.8325C26.7398 36.4192 26.5755 34.7081 26.5687 32.8157C26.5858 29.729 26.5687 26.6423 26.5687 23.5454Z" fill="#323330"></path></g></g><defs><clipPath id="clip0_57570_3287"><rect width="36" height="36" fill="white" transform="translate(7 7)"></rect></clipPath></defs></svg>