<svg xmlns="http://www.w3.org/2000/svg" width="50" height="50" viewBox="0 0 50 50" fill="none"><g style="mix-blend-mode:luminosity"><path d="M24.9689 33.7972C32.9339 44.6549 40.7278 30.7668 40.7162 22.4149C40.7033 12.542 30.6954 7.02246 24.9625 7.02246C20.2057 7.07119 15.6581 8.98563 12.2987 12.3537C8.93922 15.7218 7.03648 20.2743 7 25.0313C7 36.5948 17.0439 43.0002 24.9625 43.0002C23.1702 42.7431 17.1982 41.4574 17.1197 27.7081C17.0657 18.4048 20.154 14.6891 24.9509 16.3232C26.607 17.0887 27.9959 18.3325 28.9389 19.8943C29.8818 21.4562 30.3355 23.2646 30.2416 25.0865C30.3218 26.897 29.8638 28.6906 28.9254 30.241C27.987 31.7913 26.6102 33.0288 24.9689 33.7972Z" fill="url(#paint0_linear_57627_9531)"></path><path d="M24.9602 16.3153C19.6978 14.5012 13.25 18.8391 13.25 27.5266C13.2513 41.7143 23.7632 43 25.0373 43C29.7939 42.9513 34.3413 41.037 37.7007 37.6692C41.0601 34.3014 42.963 29.7492 42.9998 24.9925C42.9998 13.4289 32.9559 7.02226 25.0373 7.02226C27.2307 6.71884 36.8593 9.39567 36.8593 22.5548C36.8593 31.1368 29.6697 35.8078 24.9936 33.8124C23.3375 33.0469 21.9486 31.8031 21.0057 30.2413C20.0627 28.6794 19.609 26.871 19.7029 25.0491C19.6232 23.2376 20.0794 21.4429 21.0145 19.8894C21.9496 18.3359 23.3221 17.0927 24.9602 16.3153Z" fill="url(#paint1_linear_57627_9531)"></path></g><defs><linearGradient id="paint0_linear_57627_9531" x1="11.8598" y1="12.8687" x2="37.2244" y2="38.2371" gradientUnits="userSpaceOnUse"><stop></stop><stop offset="1" stop-color="white"></stop></linearGradient><linearGradient id="paint1_linear_57627_9531" x1="38.3729" y1="37.0887" x2="13.0083" y2="11.7202" gradientUnits="userSpaceOnUse"><stop></stop><stop offset="1" stop-color="white"></stop></linearGradient></defs></svg>