<svg xmlns="http://www.w3.org/2000/svg" width="50" height="50" viewBox="0 0 50 50" fill="none"><g style="mix-blend-mode:luminosity"><g clip-path="url(#clip0_57627_9546)"><path d="M19.0663 8.22453H29.6032L18.6648 40.6338C18.5524 40.9669 18.3384 41.2562 18.0529 41.4613C17.7674 41.6663 17.4247 41.7766 17.0732 41.7766H8.87289C8.60658 41.7767 8.34408 41.7133 8.10712 41.5917C7.87016 41.4702 7.66555 41.294 7.51021 41.0776C7.35488 40.8613 7.25328 40.6111 7.21382 40.3478C7.17437 40.0844 7.19819 39.8154 7.28332 39.5631L17.4743 9.36733C17.5867 9.03416 17.8007 8.74464 18.0863 8.53955C18.3719 8.33447 18.7147 8.22455 19.0663 8.22453Z" fill="url(#paint0_linear_57627_9546)"></path><path d="M34.3778 29.9629H17.6687C17.5134 29.9627 17.3616 30.0093 17.2331 30.0967C17.1046 30.184 17.0054 30.308 16.9485 30.4525C16.8915 30.597 16.8793 30.7553 16.9136 30.9069C16.9479 31.0584 17.027 31.1961 17.1406 31.302L27.8775 41.3234C28.1901 41.615 28.6017 41.7771 29.0292 41.777H38.4905L34.3778 29.9629Z" fill="#0078D4"></path><path d="M19.0661 8.22511C18.7106 8.22375 18.3641 8.33607 18.077 8.54568C17.7899 8.75529 17.5774 9.05119 17.4705 9.39017L7.29568 39.5361C7.20482 39.7894 7.1763 40.0608 7.21252 40.3274C7.24874 40.594 7.34864 40.848 7.50377 41.0678C7.65891 41.2877 7.8647 41.4669 8.10376 41.5904C8.34281 41.7139 8.60809 41.7779 8.87715 41.7772H17.2892C17.6025 41.7212 17.8953 41.5831 18.1377 41.3769C18.3802 41.1707 18.5635 40.9039 18.6691 40.6037L20.6981 34.6238L27.9459 41.3839C28.2496 41.6351 28.6306 41.774 29.0248 41.7772H38.4509L34.3167 29.9631L22.2651 29.9659L29.6411 8.22511H19.0661Z" fill="url(#paint1_linear_57627_9546)"></path><path d="M32.5243 9.36628C32.4121 9.03365 32.1983 8.74461 31.9131 8.53989C31.628 8.33516 31.2858 8.22506 30.9347 8.2251H19.1914C19.5424 8.22512 19.8846 8.33524 20.1698 8.53996C20.4549 8.74468 20.6687 9.03369 20.781 9.36628L30.9723 39.5632C31.0575 39.8156 31.0814 40.0847 31.042 40.3481C31.0026 40.6116 30.901 40.8618 30.7457 41.0782C30.5903 41.2946 30.3857 41.4709 30.1487 41.5925C29.9117 41.7142 29.6492 41.7776 29.3828 41.7776H41.1265C41.3928 41.7775 41.6553 41.714 41.8923 41.5924C42.1292 41.4708 42.3338 41.2944 42.4891 41.0781C42.6444 40.8617 42.7459 40.6114 42.7853 40.348C42.8247 40.0846 42.8008 39.8156 42.7156 39.5632L32.5243 9.36628Z" fill="url(#paint2_linear_57627_9546)"></path></g></g><defs><linearGradient id="paint0_linear_57627_9546" x1="22.9067" y1="10.7109" x2="11.9638" y2="43.0388" gradientUnits="userSpaceOnUse"><stop stop-color="#114A8B"></stop><stop offset="1" stop-color="#0669BC"></stop></linearGradient><linearGradient id="paint1_linear_57627_9546" x1="26.3248" y1="25.7771" x2="23.7935" y2="26.633" gradientUnits="userSpaceOnUse"><stop stop-opacity="0.3"></stop><stop offset="0.071" stop-opacity="0.2"></stop><stop offset="0.321" stop-opacity="0.1"></stop><stop offset="0.623" stop-opacity="0.05"></stop><stop offset="1" stop-opacity="0"></stop></linearGradient><linearGradient id="paint2_linear_57627_9546" x1="24.9325" y1="9.76853" x2="36.9446" y2="41.7707" gradientUnits="userSpaceOnUse"><stop stop-color="#3CCBF4"></stop><stop offset="1" stop-color="#2892DF"></stop></linearGradient><clipPath id="clip0_57627_9546"><rect width="36" height="33.6691" fill="white" transform="translate(7 8.16602)"></rect></clipPath></defs></svg>