<svg xmlns="http://www.w3.org/2000/svg" width="50" height="50" viewBox="0 0 50 50" fill="none"><g style="mix-blend-mode:luminosity"><mask id="mask0_57627_9493" style="mask-type:alpha" maskUnits="userSpaceOnUse" x="6" y="11" width="39" height="28"><path d="M6.11328 11.5518H44.8896V38.6382H6.11328V11.5518Z" fill="white"></path></mask><g mask="url(#mask0_57627_9493)"><path fill-rule="evenodd" clip-rule="evenodd" d="M22.2138 14.5169C23.4655 13.2139 25.2076 12.407 27.1322 12.407C29.6982 12.407 31.9222 13.8326 33.1197 15.9568C34.1827 15.4816 35.334 15.2363 36.4984 15.2368C41.1173 15.2368 44.8666 19.0147 44.8666 23.6764C44.8666 28.3381 41.1173 32.116 36.4984 32.116C35.9338 32.116 35.3835 32.0592 34.8447 31.952C33.7968 33.8196 31.7939 35.0884 29.5129 35.0884C28.5842 35.0902 27.6675 34.8795 26.8328 34.4725C25.7707 36.9673 23.2973 38.7208 20.4176 38.7208C17.4095 38.7208 14.8577 36.8247 13.8741 34.1589C13.4363 34.2513 12.99 34.2977 12.5425 34.2974C8.96428 34.2974 6.07031 31.3607 6.07031 27.7539C6.07031 25.3304 7.37331 23.2205 9.30643 22.08C8.89632 21.1353 8.68522 20.1162 8.68629 19.0863C8.68629 14.9235 12.065 11.5591 16.2277 11.5591C18.6655 11.5591 20.8467 12.7209 22.2153 14.5243" fill="#00A1E0"></path><path fill-rule="evenodd" clip-rule="evenodd" d="M11.7198 25.6345C11.6954 25.6981 11.7285 25.7114 11.7363 25.7226C11.8091 25.7754 11.8831 25.8136 11.9573 25.8565C12.3536 26.0661 12.7271 26.1274 13.1177 26.1274C13.9132 26.1274 14.4079 25.704 14.4079 25.0225V25.0091C14.4079 24.379 13.849 24.1495 13.3273 23.9855L13.259 23.9634C12.8641 23.8354 12.5234 23.7239 12.5234 23.4645V23.4512C12.5234 23.2288 12.723 23.0649 13.0309 23.0649C13.373 23.0649 13.7807 23.1788 14.0416 23.3229C14.0416 23.3229 14.1189 23.3728 14.147 23.2983C14.1622 23.2579 14.2952 22.9019 14.3095 22.862C14.3246 22.8202 14.2981 22.7887 14.2709 22.7725C13.9715 22.59 13.5581 22.466 13.1304 22.466L13.051 22.4663C12.3225 22.4663 11.8136 22.9068 11.8136 23.5369V23.5504C11.8136 24.2148 12.3752 24.4315 12.8999 24.5811L12.9843 24.6074C13.3663 24.7248 13.6971 24.8269 13.6971 25.0949V25.1083C13.6971 25.355 13.4818 25.5389 13.1368 25.5389C13.0027 25.5389 12.5751 25.5366 12.1118 25.2438C12.0558 25.2111 12.0238 25.1876 11.9806 25.1612C11.9578 25.1474 11.9008 25.1225 11.876 25.1972L11.7192 25.6334M23.3663 25.6334C23.342 25.697 23.375 25.7102 23.3832 25.7215C23.4557 25.7742 23.53 25.8124 23.6041 25.8554C24.0005 26.0649 24.374 26.1262 24.7646 26.1262C25.5601 26.1262 26.0547 25.7028 26.0547 25.0214V25.008C26.0547 24.3779 25.4973 24.1483 24.9741 23.9844L24.9059 23.9623C24.511 23.8343 24.1702 23.7228 24.1702 23.4633V23.4501C24.1702 23.2277 24.3698 23.0637 24.6778 23.0637C25.0199 23.0637 25.4262 23.1776 25.6885 23.3218C25.6885 23.3218 25.7658 23.3717 25.794 23.2971C25.8091 23.2568 25.9423 22.9008 25.9551 22.8609C25.9704 22.8191 25.9437 22.7876 25.9166 22.7713C25.6172 22.5889 25.2038 22.4648 24.7761 22.4648L24.6966 22.4651C23.9681 22.4651 23.4592 22.9056 23.4592 23.5358V23.5493C23.4592 24.2136 24.0208 24.4303 24.5455 24.58L24.6297 24.6062C25.0132 24.7237 25.3425 24.8258 25.3425 25.0938V25.1072C25.3425 25.3538 25.1273 25.5377 24.7823 25.5377C24.6478 25.5377 24.2191 25.5354 23.7572 25.2426C23.7012 25.21 23.6684 25.1875 23.626 25.1601C23.6116 25.151 23.5444 25.1247 23.5215 25.196L23.3646 25.6322M31.3195 24.2979C31.3195 24.6828 31.2476 24.9864 31.1071 25.2017C30.9668 25.4141 30.755 25.5182 30.4599 25.5182C30.1648 25.5182 29.9538 25.415 29.8155 25.2031C29.6762 24.9893 29.6059 24.6842 29.6059 24.2993C29.6059 23.9144 29.6766 23.6122 29.8155 23.3998C29.9535 23.1888 30.1633 23.0875 30.4599 23.0875C30.7564 23.0875 30.9674 23.1898 31.1071 23.3998C31.2485 23.6122 31.3195 23.9144 31.3195 24.2993M31.9838 23.5851C31.9184 23.3641 31.817 23.1702 31.6816 23.0077C31.546 22.8452 31.3751 22.714 31.1712 22.6199C30.9688 22.5251 30.7293 22.4774 30.4584 22.4774C30.1876 22.4774 29.9495 22.5254 29.7456 22.6199C29.5432 22.7146 29.3707 22.8452 29.2353 23.0077C29.1001 23.1702 28.9986 23.3641 28.933 23.5851C28.8682 23.8046 28.8352 24.0441 28.8352 24.2993C28.8352 24.5545 28.8682 24.794 28.933 25.0135C28.9982 25.2345 29.0998 25.4284 29.2353 25.5909C29.3708 25.7534 29.5432 25.8832 29.7456 25.9758C29.9495 26.0682 30.189 26.1152 30.4584 26.1152C30.7279 26.1152 30.9674 26.0682 31.1698 25.9758C31.3722 25.8834 31.5447 25.7534 31.6802 25.5909C31.8155 25.4284 31.9168 25.2345 31.9824 25.0135C32.0471 24.794 32.0801 24.5545 32.0801 24.2993C32.0801 24.0456 32.0471 23.8046 31.9824 23.5851M37.4425 25.4099C37.4206 25.3453 37.3576 25.3696 37.3576 25.3696C37.2611 25.4066 37.158 25.4408 37.0483 25.4579C36.9377 25.4753 36.8145 25.484 36.6847 25.484C36.364 25.484 36.1074 25.3883 35.9249 25.1989C35.741 25.0093 35.6384 24.7042 35.6398 24.2908C35.6408 23.9144 35.7317 23.6321 35.895 23.4154C36.0561 23.2016 36.3041 23.0904 36.632 23.0904C36.9057 23.0904 37.1153 23.1222 37.3348 23.1909C37.3348 23.1909 37.3869 23.2136 37.4118 23.145C37.4701 22.9839 37.5132 22.8684 37.5758 22.6917C37.5934 22.641 37.5501 22.6197 37.5343 22.6135C37.4482 22.5799 37.2449 22.5247 37.0909 22.5015C36.9469 22.4795 36.7801 22.4681 36.5919 22.4681C36.3125 22.4681 36.0645 22.5159 35.8521 22.6105C35.6396 22.7051 35.46 22.8358 35.3175 22.9983C35.1749 23.1608 35.0665 23.3547 34.9938 23.5757C34.9219 23.7952 34.8855 24.0361 34.8855 24.2913C34.8855 24.8416 35.0338 25.2878 35.3274 25.6143C35.6211 25.9422 36.063 26.1075 36.639 26.1075C36.9797 26.1075 37.329 26.0387 37.5799 25.9393C37.5799 25.9393 37.6278 25.9162 37.607 25.8603L37.443 25.4099M38.6049 23.9272C38.6367 23.7134 38.6953 23.5352 38.7874 23.3969C38.9252 23.1859 39.1352 23.0704 39.4303 23.0704C39.7254 23.0704 39.9207 23.1865 40.0604 23.3969C40.1531 23.5359 40.1936 23.7205 40.2087 23.9272L38.5978 23.9269L38.6049 23.9272ZM40.8431 23.4568C40.7865 23.2444 40.6464 23.0291 40.5551 22.9307C40.4097 22.7753 40.2686 22.6656 40.1274 22.6057C39.9237 22.5191 39.7045 22.4746 39.4831 22.475C39.2022 22.475 38.947 22.5224 38.7403 22.619C38.5336 22.7162 38.3597 22.8485 38.2228 23.0138C38.0861 23.1792 37.9833 23.3745 37.9178 23.5983C37.8522 23.8193 37.8191 24.0617 37.8191 24.3154C37.8191 24.5749 37.8535 24.8158 37.921 25.0339C37.9893 25.2535 38.0992 25.4459 38.2475 25.6056C38.3958 25.7667 38.5854 25.8921 38.8135 25.9805C39.0401 26.0682 39.3153 26.1137 39.6303 26.1127C40.2804 26.1105 40.6225 25.9658 40.7623 25.8874C40.7872 25.8735 40.8107 25.8494 40.7814 25.7799L40.6345 25.3679C40.612 25.3065 40.5498 25.3287 40.5498 25.3287C40.3887 25.3889 40.1607 25.497 39.6261 25.4955C39.2768 25.495 39.0187 25.3919 38.8562 25.2304C38.6909 25.065 38.6082 24.8241 38.5953 24.4819L40.8478 24.4836C40.8478 24.4836 40.9071 24.4831 40.9132 24.4252C40.9156 24.4012 40.9904 23.9633 40.8461 23.4572L40.8431 23.4568ZM20.5995 23.9272C20.6313 23.7134 20.6901 23.5352 20.782 23.3969C20.92 23.1859 21.1299 23.0704 21.425 23.0704C21.7201 23.0704 21.9154 23.1865 22.0551 23.3969C22.1476 23.5359 22.1881 23.7205 22.2033 23.9272L20.5924 23.9269L20.5995 23.9272ZM22.8377 23.4568C22.7813 23.2444 22.641 23.0291 22.5498 22.9307C22.4044 22.7753 22.2632 22.6656 22.1221 22.6057C21.9183 22.5191 21.6991 22.4746 21.4777 22.475C21.1969 22.475 20.9417 22.5224 20.735 22.619C20.5283 22.7162 20.3543 22.8485 20.2175 23.0138C20.0811 23.1792 19.978 23.3745 19.9124 23.5983C19.847 23.8193 19.814 24.0617 19.814 24.3154C19.814 24.5749 19.8481 24.8158 19.9161 25.0339C19.9843 25.2535 20.0943 25.4459 20.2411 25.6056C20.3894 25.7667 20.579 25.8921 20.8071 25.9805C21.0338 26.0682 21.3075 26.1137 21.624 26.1127C22.2741 26.1105 22.6162 25.9658 22.7559 25.8874C22.7807 25.8735 22.8044 25.8494 22.7749 25.7799L22.628 25.3679C22.6054 25.3065 22.5432 25.3287 22.5432 25.3287C22.3821 25.3889 22.154 25.497 21.6194 25.4955C21.2716 25.495 21.0121 25.3919 20.8496 25.2304C20.6842 25.065 20.6015 24.8241 20.5887 24.4819L22.8412 24.4836C22.8412 24.4836 22.9005 24.4831 22.9066 24.4252C22.909 24.4012 22.9837 23.9633 22.8393 23.4572L22.8377 23.4568ZM15.7382 25.3956C15.65 25.3252 15.6377 25.3079 15.6085 25.2622C15.5639 25.1933 15.5411 25.0954 15.5411 24.9699C15.5411 24.7732 15.6067 24.6306 15.7421 24.5351C15.7407 24.5354 15.936 24.3669 16.395 24.3726C16.5993 24.3762 16.8032 24.3936 17.0052 24.4246V25.4468H17.0055C17.0055 25.4468 16.7203 25.5082 16.3982 25.5276C15.9405 25.5551 15.7381 25.3959 15.7395 25.3963L15.7382 25.3956ZM16.6335 23.8132C16.5423 23.8065 16.424 23.8032 16.2828 23.8032C16.0904 23.8032 15.9036 23.8271 15.7297 23.8742C15.5543 23.9215 15.3961 23.9948 15.2607 24.0923C15.1249 24.1892 15.0132 24.316 14.9342 24.463C14.8545 24.6112 14.8139 24.7852 14.8139 24.9819C14.8139 25.1815 14.8485 25.354 14.917 25.4951C14.984 25.6351 15.0849 25.7561 15.2106 25.8472C15.3357 25.9382 15.49 26.0055 15.6682 26.0454C15.845 26.0857 16.0446 26.1061 16.2641 26.1061C16.4951 26.1061 16.7246 26.0867 16.947 26.0492C17.1364 26.0166 17.3251 25.9799 17.513 25.9392C17.588 25.9219 17.6712 25.8993 17.6712 25.8993C17.7268 25.8851 17.7225 25.8257 17.7225 25.8257L17.7213 23.7728C17.7213 23.3223 17.6009 22.9873 17.3634 22.7806C17.1268 22.5739 16.7804 22.4698 16.3313 22.4698C16.1631 22.4698 15.8908 22.4926 15.7283 22.5253C15.7283 22.5253 15.2379 22.6205 15.0354 22.779C15.0354 22.779 14.9909 22.8064 15.0152 22.8684L15.1748 23.2961C15.1947 23.3516 15.2487 23.3326 15.2487 23.3326C15.2487 23.3326 15.2657 23.3259 15.2856 23.3141C15.7176 23.0789 16.265 23.086 16.265 23.086C16.5074 23.086 16.6955 23.1352 16.821 23.2314C16.9437 23.3256 17.0063 23.468 17.0063 23.7674V23.8625C16.8139 23.8346 16.6357 23.8185 16.6357 23.8185L16.6335 23.8132ZM34.7387 22.6542C34.7419 22.6466 34.7436 22.6386 34.7436 22.6304C34.7437 22.6222 34.7421 22.6141 34.7389 22.6065C34.7358 22.599 34.7311 22.5921 34.7253 22.5864C34.7194 22.5807 34.7125 22.5762 34.7049 22.5732C34.6665 22.5586 34.4754 22.5183 34.3285 22.5092C34.0462 22.4915 33.8894 22.5391 33.7483 22.6024C33.6089 22.6653 33.4546 22.7664 33.3691 22.8833L33.3688 22.6095C33.3688 22.5719 33.3421 22.5415 33.3042 22.5415H32.7283C32.6909 22.5415 32.6638 22.5719 32.6638 22.6095V25.9597C32.6639 25.9778 32.6711 25.9952 32.6839 26.0079C32.6967 26.0207 32.714 26.028 32.7321 26.028H33.3223C33.3404 26.028 33.3577 26.0207 33.3705 26.0079C33.3833 25.9951 33.3905 25.9778 33.3905 25.9597V24.2775C33.3905 24.0523 33.4153 23.8284 33.4647 23.6873C33.5135 23.5477 33.5798 23.4364 33.6615 23.3566C33.7394 23.2794 33.8348 23.2222 33.9395 23.1898C34.0377 23.1616 34.1395 23.1473 34.2417 23.1473C34.3593 23.1473 34.4883 23.1775 34.4883 23.1775C34.5317 23.1823 34.5558 23.1558 34.5704 23.1168C34.6091 23.014 34.7187 22.7062 34.7401 22.6449" fill="#FFFFFE"></path><path fill-rule="evenodd" clip-rule="evenodd" d="M29.2272 21.1087C29.1543 21.0867 29.08 21.0691 29.005 21.056C28.904 21.0391 28.8017 21.0312 28.6993 21.0323C28.2926 21.0323 27.972 21.1472 27.7469 21.3742C27.5233 21.5994 27.3712 21.9426 27.2949 22.3941L27.2674 22.5465H26.7569C26.7569 22.5465 26.6946 22.5439 26.6815 22.6119L26.5977 23.0795C26.5918 23.1243 26.6111 23.1522 26.671 23.1519H27.1679L26.6637 25.9665C26.6242 26.1931 26.579 26.3796 26.529 26.5209C26.4796 26.6603 26.4315 26.7648 26.3722 26.8407C26.3147 26.9141 26.2602 26.9681 26.1663 26.9996C26.0887 27.0257 25.9995 27.0377 25.9017 27.0377C25.8472 27.0377 25.7748 27.0286 25.7214 27.0179C25.6679 27.0073 25.6401 26.9953 25.6 26.9785C25.6 26.9785 25.5417 26.9563 25.5188 27.0147C25.5001 27.0625 25.3677 27.4267 25.352 27.4718C25.336 27.5163 25.3584 27.5513 25.3866 27.5614C25.4528 27.5851 25.502 27.6002 25.5921 27.6215C25.7172 27.651 25.8227 27.6528 25.9215 27.6528C26.1285 27.6528 26.3171 27.6237 26.4735 27.5673C26.6309 27.5104 26.7679 27.4113 26.8891 27.2772C27.0201 27.1325 27.1025 26.9809 27.1813 26.7742C27.2593 26.5694 27.3257 26.315 27.3789 26.0187L27.8856 23.1519H28.6263C28.6263 23.1519 28.6888 23.1542 28.7017 23.0865L28.7856 22.6189C28.7914 22.5741 28.7723 22.5462 28.7121 22.5465H27.9932C27.9968 22.5302 28.0294 22.2773 28.112 22.0392C28.1472 21.9376 28.2135 21.8556 28.2696 21.7993C28.3221 21.7457 28.3867 21.7055 28.458 21.6821C28.5361 21.658 28.6175 21.6462 28.6993 21.6473C28.767 21.6473 28.8335 21.6555 28.8841 21.666C28.9538 21.6808 28.9809 21.6887 28.9991 21.6941C29.0724 21.7165 29.0822 21.6948 29.0966 21.6593L29.2685 21.1871C29.2862 21.1364 29.2432 21.115 29.2272 21.1087ZM19.1804 25.9725C19.1804 26.0101 19.1536 26.0408 19.116 26.0408H18.5197C18.4819 26.0408 18.4551 26.0101 18.4551 25.9725V21.1728C18.4551 21.1353 18.4819 21.1049 18.5197 21.1049H19.116C19.1536 21.1049 19.1804 21.1353 19.1804 21.1728V25.9725Z" fill="#FFFFFE"></path></g></g></svg>