<svg xmlns="http://www.w3.org/2000/svg" width="50" height="50" viewBox="0 0 50 50" fill="none"><g style="mix-blend-mode:luminosity"><path d="M9.52819 29V21.9055H14.1539V23.3699H11.2199V24.7602H13.8473V26.2034H11.2199V29H9.52819ZM16.6154 29V21.9055H18.3071V29H16.6154ZM24.0755 29.1692C23.4023 29.1692 22.8138 29.0282 22.3098 28.7462C21.8093 28.4608 21.4199 28.0414 21.1415 27.4881C20.8631 26.9312 20.7238 26.2457 20.7238 25.4316C20.7238 24.5963 20.8631 23.9073 21.1415 23.3646C21.4199 22.8183 21.8093 22.413 22.3098 22.1487C22.8138 21.8808 23.4023 21.7469 24.0755 21.7469C24.7557 21.7469 25.3478 21.8861 25.8518 22.1645C26.3593 22.443 26.7522 22.8553 27.0307 23.4016C27.3091 23.9479 27.4483 24.6245 27.4483 25.4316C27.4483 26.2598 27.3091 26.9524 27.0307 27.5092C26.7522 28.0625 26.3593 28.4784 25.8518 28.7568C25.3478 29.0317 24.7557 29.1692 24.0755 29.1692ZM24.0755 27.6519C24.5689 27.6519 24.9636 27.4581 25.2597 27.0704C25.5557 26.6792 25.7037 26.1294 25.7037 25.421C25.7037 24.7549 25.5557 24.2298 25.2597 23.8457C24.9636 23.458 24.5689 23.2641 24.0755 23.2641C23.5962 23.2641 23.2085 23.458 22.9125 23.8457C22.6164 24.2298 22.4684 24.7585 22.4684 25.4316C22.4684 26.133 22.6164 26.6792 22.9125 27.0704C23.2085 27.4581 23.5962 27.6519 24.0755 27.6519ZM29.8503 29V21.9055H32.6204C33.5085 21.9055 34.1975 22.1099 34.6874 22.5187C35.1808 22.924 35.4275 23.4686 35.4275 24.1523C35.4275 24.8219 35.1808 25.3594 34.6874 25.7647C34.1975 26.1664 33.5085 26.3673 32.6204 26.3673H31.5419V29H29.8503ZM33.5508 29L31.8221 25.5743H33.609L35.7659 29H33.5508ZM31.5419 25.2677H32.4301C32.8495 25.2677 33.1631 25.1814 33.3711 25.0087C33.5825 24.8325 33.6883 24.6087 33.6883 24.3373C33.6883 24.0554 33.5984 23.8245 33.4187 23.6448C33.2424 23.4615 32.9763 23.3699 32.6204 23.3699H31.5419V25.2677ZM38.0526 29V21.9055H39.7443V29H38.0526Z" fill="#2E2E2E"></path></g></svg>