<svg fill="none" height="52" viewBox="0 0 200 52" width="200" xmlns="http://www.w3.org/2000/svg"><path d="m19.3545 4.27083c0-2.35963 1.9247-4.27083 4.3011-4.27083h2.1505c14.2527 0 25.8065 11.4725 25.8065 25.625v21.3542c0 2.3596-1.9247 4.2708-4.3011 4.2708h-2.1505c-14.2527 0-25.8065-11.4725-25.8065-25.625z" fill="#4a6cf7" opacity=".56"/><path d="m21.5054 51.25c11.8771 0 21.5054-9.5606 21.5054-21.3542s-9.6283-21.35417-21.5054-21.35417c-11.87711 0-21.5054 9.56057-21.5054 21.35417s9.62829 21.3542 21.5054 21.3542z" fill="#4a6cf7" opacity=".88"/><path d="m81.0229 40.7165h7.1753l-10.0737-27.904h-7.8441l-10.0656 27.904h7.0931l1.6677-4.9289h10.379zm-3.4102-10.1758h-6.8532l3.4016-10.2156zm23.8303 1.8681-5.1115-13.8724h-7.5715l9 21.4248-5.0779 11.2888h7.2989l13.872-32.7136h-7.332zm21.633-1.9874c0-3.8159 1.866-4.9289 5.079-4.9289h1.857v-7.1946c-2.972 0-5.392 1.59-6.936 3.9352v-3.6967h-6.779v22.1801h6.779zm31.815-.795c0-7.0356-4.987-11.408-11.494-11.408-6.457 0-11.494 4.3724-11.494 11.408 0 7.0357 4.922 11.408 11.42 11.408s11.568-4.3723 11.568-11.408zm-16.085 0c0-3.7762 2.139-5.5251 4.591-5.5251 2.378 0 4.6 1.7489 4.6 5.5251 0 3.7364-2.255 5.5252-4.674 5.5252-2.461 0-4.517-1.7888-4.517-5.5252zm30.766.8745c0 7.1946 4.674 10.4938 10.388 10.4938 5.705 0 10.421-3.2992 10.421-10.4938v-17.4896h-3.609v17.5294c0 5.0879-2.692 7.2741-6.779 7.2741-4.079 0-6.812-2.1862-6.812-7.2741v-17.5294h-3.609zm26.828 10.2156h3.6v-27.7052h-3.6z" fill="#fff"/></svg>