<?xml version="1.0" encoding="UTF-8"?>
<svg version="1.1" xmlns="http://www.w3.org/2000/svg" width="600" height="128">
<path d="M0 0 C1.62320492 0.0151775 3.24635116 0.03762982 4.86938477 0.06567383 C6.16344994 0.08686028 6.16344994 0.08686028 7.48365784 0.10847473 C9.31891584 0.14168023 11.15411884 0.17804883 12.98925781 0.21728516 C15.76769473 0.27185859 18.545654 0.30087684 21.32446289 0.3293457 C34.00671395 0.54325007 43.74002704 1.60775881 53.32641602 10.66723633 C61.71609973 20.57795048 63.12833048 31.53702622 62.5480957 44.06665039 C61.76850214 53.06899612 57.72489301 60.78199624 51.37329102 67.08520508 C41.44346835 75.39515455 31.82863163 78.23647205 18.90844727 78.18286133 C17.89118813 78.18073891 17.89118813 78.18073891 16.8533783 78.17857361 C14.71413523 78.17303253 12.57500177 78.16049161 10.43579102 78.14770508 C8.974204 78.14268244 7.51261532 78.13812088 6.05102539 78.1340332 C2.49174575 78.12308252 -1.0674709 78.10585953 -4.62670898 78.08520508 C-4.64983308 68.06292744 -4.66762441 58.04065611 -4.67852116 48.01835728 C-4.68374984 43.36509321 -4.69084721 38.71184734 -4.70214844 34.05859375 C-4.71297785 29.57175962 -4.71898593 25.08494303 -4.72158623 20.59809685 C-4.72344038 18.88240215 -4.72706081 17.16670846 -4.73243904 15.45102119 C-4.7396502 13.05635595 -4.7406999 10.66176412 -4.74023438 8.26708984 C-4.74382965 7.55067825 -4.74742493 6.83426666 -4.75112915 6.09614563 C-4.7384577 0.11132425 -4.7384577 0.11132425 0 0 Z M7.37329102 12.08520508 C7.37329102 30.23520508 7.37329102 48.38520508 7.37329102 67.08520508 C26.96076607 67.71962314 26.96076607 67.71962314 42.52954102 58.27270508 C48.3788641 51.33283024 49.75056651 43.90563196 49.65454102 34.99926758 C48.93377379 27.53131826 45.61909238 21.33100644 40.37329102 16.08520508 C30.32989937 8.9813427 20.41618439 12.08520508 7.37329102 12.08520508 Z " fill="#F8F8F8" transform="translate(11.626708984375,19.914794921875)"/>
<path d="M0 0 C0.70801758 0.00008057 1.41603516 0.00016113 2.14550781 0.00024414 C4.26128283 -0.00190895 6.37650725 -0.01995985 8.4921875 -0.0390625 C30.06107246 -0.13040888 30.06107246 -0.13040888 37.4296875 6.18554688 C42.44742883 11.39470068 43.81311029 15.49964869 43.69921875 22.62304688 C43.18166064 27.54359932 41.22624405 30.6246043 37.5234375 33.84179688 C35.53124754 35.35823998 33.499977 36.77839698 31.4296875 38.18554688 C30.09190816 39.17959125 28.75730944 40.17797665 27.4296875 41.18554688 C27.88569336 41.50410645 28.34169922 41.82266602 28.81152344 42.15087891 C34.29498089 46.34657659 36.39332989 50.64921907 38.6796875 57.06054688 C39.00453125 57.92035156 39.329375 58.78015625 39.6640625 59.66601562 C40.30144932 61.35971689 40.92870697 63.05727059 41.54492188 64.75878906 C42.3851959 67.06351418 43.27180758 69.34589275 44.1640625 71.63085938 C45.4296875 75.18554688 45.4296875 75.18554688 45.4296875 78.18554688 C41.1396875 78.18554688 36.8496875 78.18554688 32.4296875 78.18554688 C31.81480469 76.43886719 31.19992188 74.6921875 30.56640625 72.89257812 C29.75028316 70.59430047 28.93386128 68.2961289 28.1171875 65.99804688 C27.71306641 64.84755859 27.30894531 63.69707031 26.89257812 62.51171875 C26.49619141 61.39990234 26.09980469 60.28808594 25.69140625 59.14257812 C25.33006592 58.12139893 24.96872559 57.10021973 24.59643555 56.0480957 C22.53420376 50.98852934 21.4371289 48.68926757 16.4296875 46.18554688 C11.1496875 45.85554688 5.8696875 45.52554688 0.4296875 45.18554688 C0.4296875 56.07554688 0.4296875 66.96554688 0.4296875 78.18554688 C-3.5303125 78.18554688 -7.4903125 78.18554688 -11.5703125 78.18554688 C-11.5934366 68.16326924 -11.61122793 58.14099791 -11.62212467 48.11869907 C-11.62735335 43.46543501 -11.63445073 38.81218914 -11.64575195 34.15893555 C-11.65658136 29.67210142 -11.66258945 25.18528483 -11.66518974 20.69843864 C-11.6670439 18.98274395 -11.67066432 17.26705026 -11.67604256 15.55136299 C-11.68325371 13.15669775 -11.68430341 10.76210591 -11.68383789 8.36743164 C-11.68743317 7.65102005 -11.69102844 6.93460846 -11.69473267 6.19648743 C-11.67723736 -2.06667884 -7.03675919 0.02539021 0 0 Z M0.4296875 12.18554688 C0.4296875 19.44554688 0.4296875 26.70554688 0.4296875 34.18554688 C15.15149686 34.57727237 15.15149686 34.57727237 28.4296875 29.18554688 C30.72432215 25.47186185 30.9633249 22.53088002 30.4296875 18.18554688 C27.88831591 15.02600382 26.28346091 13.47013801 22.4296875 12.18554688 C20.72951906 12.10376573 19.02632453 12.07805186 17.32421875 12.08789062 C16.43839111 12.09038818 15.55256348 12.09288574 14.63989258 12.09545898 C12.95802856 12.10911499 12.95802856 12.10911499 11.2421875 12.12304688 C7.6740625 12.14367188 4.1059375 12.16429687 0.4296875 12.18554688 Z " fill="#F6F6F6" transform="translate(179.5703125,19.814453125)"/>
<path d="M0 0 C0.495 0.99 0.495 0.99 1 2 C0.34 2 -0.32 2 -1 2 C-1 5.63 -1 9.26 -1 13 C-13.54 13 -26.08 13 -39 13 C-39 19.6 -39 26.2 -39 33 C-27.12 33 -15.24 33 -3 33 C-3 36.63 -3 40.26 -3 44 C-14.88 44 -26.76 44 -39 44 C-39 51.92 -39 59.84 -39 68 C-26.46 68 -13.92 68 -1 68 C-1 71.63 -1 75.26 -1 79 C-17.5 79 -34 79 -51 79 C-51 53.59 -51 28.18 -51 2 C-48.68433298 0.84216649 -47.38816783 0.88465069 -44.81323242 0.90234375 C-43.51629707 0.90729858 -43.51629707 0.90729858 -42.19316101 0.91235352 C-41.25672256 0.92065186 -40.32028412 0.9289502 -39.35546875 0.9375 C-38.39353104 0.94128662 -37.43159332 0.94507324 -36.44050598 0.94897461 C-32.31567243 0.96535319 -28.19093694 0.99340722 -24.06616211 1.02050781 C-21.05843566 1.03860513 -18.05072543 1.05069533 -15.04296875 1.0625 C-14.112603 1.07079834 -13.18223724 1.07909668 -12.22367859 1.08764648 C-8.0170156 1.10354382 -4.09966011 1.08625757 0 0 Z " fill="#F5F5F5" transform="translate(572,19)"/>
<path d="M0 0 C1 1 1 1 1.09765625 3.94140625 C1.08605469 5.13636719 1.07445312 6.33132812 1.0625 7.5625 C1.05347656 8.76003906 1.04445312 9.95757812 1.03515625 11.19140625 C1.02355469 12.11824219 1.01195312 13.04507813 1 14 C-2.05907898 12.81447458 -4.97863115 11.53832039 -7.875 10 C-13.77992593 7.03091904 -19.34183829 5.31122465 -26 6 C-31.94763689 7.80287075 -31.94763689 7.80287075 -36 12 C-36.06950541 13.54023996 -36.08452357 15.08334988 -36.0625 16.625 C-36.04896484 17.85089844 -36.04896484 17.85089844 -36.03515625 19.1015625 C-36.02355469 19.72804688 -36.01195313 20.35453125 -36 21 C-32.69734297 22.36421311 -29.40504874 23.53317497 -25.98046875 24.55078125 C-25.04009766 24.83759766 -24.09972656 25.12441406 -23.13085938 25.41992188 C-21.18259172 26.01073695 -19.23207405 26.59418703 -17.27929688 27.16992188 C-8.36305773 29.91478457 -1.50709322 33.32344581 4 41 C5.94658589 46.83975768 6.02507879 53.5657918 3.5 59.25 C-0.73448317 66.45009682 -7.07603628 70.82211133 -14.9453125 73.33984375 C-28.00505638 76.16221807 -38.93307342 72.88608765 -50 66 C-50 61.38 -50 56.76 -50 52 C-46.22505576 53.5099777 -43.56433468 54.83376818 -40.25 57 C-33.37078402 61.16829531 -27.08366519 62.71242432 -19.078125 61.55078125 C-14.9203926 60.44882586 -11.98251607 57.98251607 -9 55 C-8.24053567 49.327381 -8.24053567 49.327381 -10.84765625 44.4609375 C-15.18277488 41.07664415 -19.62984061 39.90988622 -24.875 38.4375 C-41.27869869 33.73044665 -41.27869869 33.73044665 -46.375 27.4375 C-47.09816406 26.56931641 -47.09816406 26.56931641 -47.8359375 25.68359375 C-50.70816594 21.5294647 -50.44325357 16.83549346 -50 12 C-47.7415903 4.86817988 -43.68445177 0.36784586 -37.06640625 -3.1484375 C-24.4560387 -8.34514851 -11.8145938 -5.937385 0 0 Z " fill="#F5F5F5" transform="translate(155,25)"/>
<path d="M0 0 C0.9075 0.00257812 1.815 0.00515625 2.75 0.0078125 C4.11125 0.00394531 4.11125 0.00394531 5.5 0 C7.75 0.1328125 7.75 0.1328125 8.75 1.1328125 C8.86217287 2.64995435 8.90673717 4.1721696 8.92358398 5.69335938 C8.93707382 6.66527222 8.95056366 7.63718506 8.96446228 8.6385498 C8.97490067 9.69884399 8.98533905 10.75913818 8.99609375 11.8515625 C9.0290588 14.08594103 9.06226996 16.32031593 9.09570312 18.5546875 C9.14294385 22.08525859 9.18730989 25.61581789 9.22680664 29.14648438 C9.26676938 32.54834271 9.31828478 35.94988262 9.37109375 39.3515625 C9.3795079 40.39566284 9.38792206 41.43976318 9.39659119 42.51550293 C9.51653792 49.70229018 9.75031084 56.77619142 13.5 63.0703125 C17.91603359 67.11834329 22.80095136 67.53806003 28.57421875 67.3828125 C33.19677238 66.85167528 35.96041448 64.98641847 39.0625 61.6328125 C41.56518699 57.92512807 41.88532682 55.1131238 41.95532227 50.7434082 C41.97526749 49.64249344 41.99521271 48.54157867 42.01576233 47.40730286 C42.03247482 46.21972885 42.04918732 45.03215485 42.06640625 43.80859375 C42.08718735 42.59205612 42.10796844 41.37551849 42.12937927 40.12211609 C42.19484717 36.22990654 42.25374715 32.33762865 42.3125 28.4453125 C42.35568782 25.80923768 42.3993022 23.17316981 42.44335938 20.53710938 C42.55052578 14.06908299 42.65229745 7.60098839 42.75 1.1328125 C47.04727397 -0.17379107 50.35215865 0.4731363 54.75 1.1328125 C54.84310178 8.5395234 54.91396685 15.946106 54.95724869 23.35328579 C54.97803277 26.79359699 55.00617889 30.23350485 55.05175781 33.67358398 C55.10394646 37.63780722 55.12302121 41.60187298 55.140625 45.56640625 C55.17159271 47.3997477 55.17159271 47.3997477 55.20318604 49.27012634 C55.20555682 58.37682862 53.6606068 64.95615989 47.6875 71.9453125 C40.46583401 78.52437261 31.67191107 79.84662329 22.1796875 79.50390625 C14.53832188 78.67710701 8.74248676 76.6352856 3.25 71.1328125 C-3.45377526 62.50031831 -3.69705722 51.94273567 -3.578125 41.40234375 C-3.57625183 40.24530441 -3.57437866 39.08826508 -3.57244873 37.89616394 C-3.56577975 35.47688875 -3.55196978 33.05762339 -3.53125 30.63842773 C-3.49976089 26.91705424 -3.49023908 23.19610364 -3.484375 19.47460938 C-3.47521711 17.11718227 -3.46484525 14.7597595 -3.453125 12.40234375 C-3.44887512 11.28583939 -3.44462524 10.16933502 -3.44024658 9.01899719 C-3.43063904 7.99670517 -3.42103149 6.97441315 -3.41113281 5.92114258 C-3.40430481 5.01801834 -3.39747681 4.1148941 -3.39044189 3.18440247 C-3.19179899 0.28260598 -2.90847095 0.17168058 0 0 Z " fill="#FBFBFB" transform="translate(233.25,19.8671875)"/>
<path d="M0 0 C40.5 0 40.5 0 48 6 C52.59622197 10.70068156 54.81495242 14.71543672 55.1015625 21.3515625 C54.82778145 28.15396859 52.57975345 32.98407955 48 38 C40.10498673 44.55254138 31.95475021 45.29942838 22.0625 45.125 C18.741875 45.08375 15.42125 45.0425 12 45 C12 55.89 12 66.78 12 78 C8.04 78 4.08 78 0 78 C0 52.26 0 26.52 0 0 Z M12 12 C12 19.26 12 26.52 12 34 C15.50625 33.9175 19.0125 33.835 22.625 33.75 C24.265896 33.72631348 24.265896 33.72631348 25.93994141 33.70214844 C31.88400987 33.49496205 35.46851012 32.95014743 40 29 C42.35062814 25.794598 42.39807915 22.90117562 42 19 C40.27707074 15.20955564 38.85148933 13.50567421 35 12 C32.3895369 11.72620714 32.3895369 11.72620714 29.578125 11.8046875 C28.55332031 11.81113281 27.52851563 11.81757813 26.47265625 11.82421875 C24.87744141 11.84935547 24.87744141 11.84935547 23.25 11.875 C22.17105469 11.88402344 21.09210938 11.89304687 19.98046875 11.90234375 C17.32021751 11.9258858 14.66008051 11.96175603 12 12 Z " fill="#F6F6F6" transform="translate(300,20)"/>
<path d="M0 0 C3.96 0 7.92 0 12 0 C14.91883088 6.33449257 17.36860771 12.67729477 19.56640625 19.29296875 C19.88657211 20.24263016 20.20673798 21.19229156 20.53660583 22.17073059 C21.89240755 26.19264528 23.23811762 30.21791664 24.5847168 34.24291992 C25.57508541 37.19830185 26.57061843 40.15190925 27.56640625 43.10546875 C27.86648087 44.00871384 28.16655548 44.91195892 28.47572327 45.84257507 C30.02463831 50.43478457 31.69704775 54.73308656 34 59 C34.20631546 58.39136108 34.41263092 57.78272217 34.62519836 57.15563965 C36.78138923 50.79561966 38.93937714 44.43621145 41.09838867 38.07714844 C41.90288227 35.70686084 42.70692438 33.33641995 43.51049805 30.96582031 C44.66855844 27.54972143 45.82826512 24.13418518 46.98828125 20.71875 C47.34465164 19.66635132 47.70102203 18.61395264 48.06819153 17.52966309 C48.7350067 15.56832005 49.40773937 13.60897462 50.08755493 11.65209961 C50.67244327 9.95207165 51.23704415 8.2448468 51.77548218 6.52954102 C52.50073242 4.33007813 52.50073242 4.33007813 54 1 C57.23380411 -0.18308213 60.32901894 -0.10322596 63.75 -0.0625 C64.73484375 -0.05347656 65.7196875 -0.04445313 66.734375 -0.03515625 C67.85585938 -0.01775391 67.85585938 -0.01775391 69 0 C62.5606758 17.71460673 55.99058268 35.36599353 49.17871094 52.94140625 C47.98465778 56.03981097 46.80600093 59.1436393 45.6328125 62.25 C45.2618042 63.23154053 44.8907959 64.21308105 44.50854492 65.22436523 C43.81127716 67.07203738 43.1160221 68.92047074 42.4230957 70.76977539 C42.11718506 71.57922607 41.81127441 72.38867676 41.49609375 73.22265625 C41.22982178 73.93172119 40.9635498 74.64078613 40.68920898 75.37133789 C40 77 40 77 39 78 C35.33344805 78.14300125 31.66855781 78.04216733 28 78 C23.02452469 66.60745685 18.8434156 54.91561096 14.5625 43.25 C13.44908109 40.22270295 12.33493605 37.1956747 11.2203064 34.16882324 C10.49800975 32.20610233 9.7768218 30.24297303 9.05679321 28.27941895 C7.44239818 23.88258068 5.81426748 19.49304253 4.12841797 15.12304688 C3.84530258 14.38544128 3.56218719 13.64783569 3.27049255 12.88787842 C2.52290539 10.94756981 1.76751581 9.01027233 1.01147461 7.07324219 C0 4 0 4 0 0 Z " fill="#F6F6F6" transform="translate(446,20)"/>
<path d="M0 0 C1.09783813 -0.00315216 2.19567627 -0.00630432 3.32678223 -0.009552 C5.11892151 -0.00651566 5.11892151 -0.00651566 6.94726562 -0.00341797 C8.16426147 -0.00437469 9.38125732 -0.00533142 10.63513184 -0.00631714 C13.21427461 -0.00699919 15.79341909 -0.00514319 18.37255859 -0.00097656 C22.33630198 0.00437131 26.29993204 -0.00092076 30.26367188 -0.00732422 C32.76237004 -0.00666344 35.26106814 -0.00538229 37.75976562 -0.00341797 C38.95452515 -0.0054422 40.14928467 -0.00746643 41.38024902 -0.009552 C42.47808716 -0.00639984 43.57592529 -0.00324768 44.70703125 0 C46.16477966 0.00119339 46.16477966 0.00119339 47.65197754 0.00241089 C49.85351562 0.12939453 49.85351562 0.12939453 50.85351562 1.12939453 C50.85351562 4.75939453 50.85351562 8.38939453 50.85351562 12.12939453 C43.59351563 12.12939453 36.33351563 12.12939453 28.85351562 12.12939453 C28.85351562 33.90939453 28.85351562 55.68939453 28.85351562 78.12939453 C24.89351563 78.12939453 20.93351562 78.12939453 16.85351562 78.12939453 C16.85351562 56.34939453 16.85351562 34.56939453 16.85351562 12.12939453 C4.43390078 11.51659981 4.43390078 11.51659981 -7.14648438 14.12939453 C-6.98148437 13.56607422 -6.81648438 13.00275391 -6.64648438 12.42236328 C-6.11921765 10.00435104 -6.08118182 7.91114745 -6.14648438 5.44189453 C-6.18411468 4.00488715 -6.19311297 2.56613808 -6.14648438 1.12939453 C-4.45353093 -0.56355892 -2.31751954 0.00189724 0 0 Z " fill="#FDFDFD" transform="translate(361.146484375,19.87060546875)"/>
<path d="M0 0 C7 0 7 0 12 1 C12 26.41 12 51.82 12 78 C8.04 78 4.08 78 0 78 C0 52.26 0 26.52 0 0 Z " fill="#F5F5F5" transform="translate(84,20)"/>
<path d="M0 0 C3.96 0 7.92 0 12 0 C12 18.15 12 36.3 12 55 C7.71220838 55.71463194 4.26045278 56.19816059 0 56 C-1.68012342 54.31987658 -1.12747339 52.24912808 -1.12939453 49.9453125 C-1.13254669 48.86749512 -1.13569885 47.78967773 -1.13894653 46.67919922 C-1.1369223 45.50631348 -1.13489807 44.33342773 -1.1328125 43.125 C-1.13376923 41.9302002 -1.13472595 40.73540039 -1.13571167 39.50439453 C-1.13639371 36.9723302 -1.13453778 34.44026412 -1.13037109 31.90820312 C-1.12502321 28.0168874 -1.13031533 24.12568711 -1.13671875 20.234375 C-1.13605797 17.78124974 -1.13477682 15.32812456 -1.1328125 12.875 C-1.13483673 11.70211426 -1.13686096 10.52922852 -1.13894653 9.32080078 C-1.13579437 8.2429834 -1.13264221 7.16516602 -1.12939453 6.0546875 C-1.12859894 5.10062012 -1.12780334 4.14655273 -1.12698364 3.16357422 C-1 1 -1 1 0 0 Z " fill="#EC2B2C" transform="translate(426,44)"/>
<path d="M0 0 C1.09783813 -0.00315216 2.19567627 -0.00630432 3.32678223 -0.009552 C5.11892151 -0.00651566 5.11892151 -0.00651566 6.94726562 -0.00341797 C8.16426147 -0.00437469 9.38125732 -0.00533142 10.63513184 -0.00631714 C13.21427461 -0.00699919 15.79341909 -0.00514319 18.37255859 -0.00097656 C22.33630198 0.00437131 26.29993204 -0.00092076 30.26367188 -0.00732422 C32.76237004 -0.00666344 35.26106814 -0.00538229 37.75976562 -0.00341797 C38.95452515 -0.0054422 40.14928467 -0.00746643 41.38024902 -0.009552 C42.47808716 -0.00639984 43.57592529 -0.00324768 44.70703125 0 C46.16477966 0.00119339 46.16477966 0.00119339 47.65197754 0.00241089 C49.85351562 0.12939453 49.85351562 0.12939453 50.85351562 1.12939453 C50.85351562 4.75939453 50.85351562 8.38939453 50.85351562 12.12939453 C43.59351563 12.12939453 36.33351563 12.12939453 28.85351562 12.12939453 C28.85351562 33.90939453 28.85351562 55.68939453 28.85351562 78.12939453 C24.89351563 78.12939453 20.93351562 78.12939453 16.85351562 78.12939453 C16.85351562 56.34939453 16.85351562 34.56939453 16.85351562 12.12939453 C4.43390078 11.51659981 4.43390078 11.51659981 -7.14648438 14.12939453 C-6.98148437 13.56607422 -6.81648438 13.00275391 -6.64648438 12.42236328 C-6.11921765 10.00435104 -6.08118182 7.91114745 -6.14648438 5.44189453 C-6.18411468 4.00488715 -6.19311297 2.56613808 -6.14648438 1.12939453 C-4.45353093 -0.56355892 -2.31751954 0.00189724 0 0 Z M-4.14648438 2.12939453 C-4.14648438 5.09939453 -4.14648438 8.06939453 -4.14648438 11.12939453 C3.11351562 11.12939453 10.37351562 11.12939453 17.85351562 11.12939453 C17.85351562 32.57939453 17.85351562 54.02939453 17.85351562 76.12939453 C22.85351562 77.46272786 22.85351562 77.46272786 27.85351562 76.12939453 C27.85351562 54.67939453 27.85351562 33.22939453 27.85351562 11.12939453 C35.11351562 11.12939453 42.37351562 11.12939453 49.85351562 11.12939453 C49.85351562 8.15939453 49.85351562 5.18939453 49.85351562 2.12939453 C32.03351563 2.12939453 14.21351563 2.12939453 -4.14648438 2.12939453 Z " fill="#D7D7D7" transform="translate(361.146484375,19.87060546875)"/>
<path d="M0 0 C1.66824541 0.02876651 3.33638666 0.06399898 5.00439453 0.10424805 C5.88370636 0.12311569 6.76301819 0.14198334 7.66897583 0.16142273 C9.53361167 0.20338701 11.39818663 0.24813234 13.26269531 0.29541016 C16.11787731 0.36549234 18.97307862 0.41988746 21.82861328 0.47338867 C23.63723 0.51604558 25.44582502 0.55963475 27.25439453 0.60424805 C28.11072479 0.61893631 28.96705505 0.63362457 29.84933472 0.64875793 C30.64671051 0.67185532 31.4440863 0.6949527 32.265625 0.71875 C32.96654266 0.73508987 33.66746033 0.75142975 34.38961792 0.76826477 C36.26220703 1.0534668 36.26220703 1.0534668 39.26220703 3.0534668 C25.40220703 2.7234668 11.54220703 2.3934668 -2.73779297 2.0534668 C-2.73779297 26.4734668 -2.73779297 50.8934668 -2.73779297 76.0534668 C28.6382055 77.16953013 28.6382055 77.16953013 42.26220703 71.0534668 C43.25220703 71.5484668 43.25220703 71.5484668 44.26220703 72.0534668 C33.2071981 78.19513843 22.49654488 78.32891349 10.13720703 78.1784668 C8.68929659 78.16841186 7.24137935 78.15929048 5.79345703 78.15112305 C2.28289667 78.12932024 -1.22740325 78.0949306 -4.73779297 78.0534668 C-4.76091707 68.03118916 -4.7787084 58.00891783 -4.78960514 47.986619 C-4.79483382 43.33335493 -4.8019312 38.68010906 -4.81323242 34.02685547 C-4.82406183 29.54002134 -4.83006992 25.05320475 -4.83267021 20.56635857 C-4.83452436 18.85066387 -4.83814479 17.13497018 -4.84352303 15.41928291 C-4.85073418 13.02461767 -4.85178388 10.63002584 -4.85131836 8.23535156 C-4.85491364 7.51893997 -4.85850891 6.80252838 -4.86221313 6.06440735 C-4.84952006 0.06936936 -4.84952006 0.06936936 0 0 Z " fill="#E8E8E8" transform="translate(11.73779296875,19.946533203125)"/>
<path d="M0 0 C1.134375 0.020625 2.26875 0.04125 3.4375 0.0625 C4.63672024 2.82878111 5.82210499 5.599655 7 8.375 C7.34224609 9.16068359 7.68449219 9.94636719 8.03710938 10.75585938 C8.35615234 11.51318359 8.67519531 12.27050781 9.00390625 13.05078125 C9.30240479 13.74727783 9.60090332 14.44377441 9.90844727 15.16137695 C10.4375 17.0625 10.4375 17.0625 9.4375 20.0625 C7.4575 20.0625 5.4775 20.0625 3.4375 20.0625 C3.1075 19.4025 2.7775 18.7425 2.4375 18.0625 C-0.08983235 17.40694881 -0.08983235 17.40694881 -2.5625 17.0625 C-3.2225 18.0525 -3.8825 19.0425 -4.5625 20.0625 C-6.5425 19.7325 -8.5225 19.4025 -10.5625 19.0625 C-9.87721486 14.91963983 -8.58359557 11.22136187 -7.0625 7.3125 C-6.6190625 6.16265625 -6.175625 5.0128125 -5.71875 3.828125 C-4.14872067 0.07278457 -4.14872067 0.07278457 0 0 Z " fill="#E61011" transform="translate(431.5625,17.9375)"/>
<path d="M0 0 C0.9075 0.00257812 1.815 0.00515625 2.75 0.0078125 C4.11125 0.00394531 4.11125 0.00394531 5.5 0 C7.75 0.1328125 7.75 0.1328125 8.75 1.1328125 C8.8731517 2.88120085 8.92787811 4.63445754 8.95532227 6.38696289 C8.97526749 7.50804947 8.99521271 8.62913605 9.01576233 9.78419495 C9.03247482 11.0039653 9.04918732 12.22373566 9.06640625 13.48046875 C9.08718735 14.72203232 9.10796844 15.96359589 9.12937927 17.24278259 C9.18383609 20.54880373 9.23404205 23.85483495 9.28222656 27.16094971 C9.33239856 30.53248741 9.38810701 33.90393303 9.44335938 37.27539062 C9.55070038 43.89445801 9.65244198 50.5135941 9.75 57.1328125 C7.54651464 53.82758446 7.50436615 52.85620251 7.52294922 49.01879883 C7.52310028 47.97794632 7.52325134 46.93709381 7.52340698 45.86470032 C7.53372955 44.74274765 7.54405212 43.62079498 7.5546875 42.46484375 C7.5575174 41.31489426 7.56034729 40.16494476 7.56326294 38.98014832 C7.57447167 35.30176454 7.59957776 31.62362288 7.625 27.9453125 C7.63502889 25.45377955 7.6441549 22.9622428 7.65234375 20.47070312 C7.67441327 14.35799009 7.70789776 8.24541859 7.75 2.1328125 C4.78 2.1328125 1.81 2.1328125 -1.25 2.1328125 C-1.25 20.9428125 -1.25 39.7528125 -1.25 59.1328125 C-1.58 59.1328125 -1.91 59.1328125 -2.25 59.1328125 C-3.05428275 55.59883828 -3.37628788 52.3372289 -3.37939453 48.71582031 C-3.38254669 47.65832581 -3.38569885 46.6008313 -3.38894653 45.5112915 C-3.3869223 44.38092468 -3.38489807 43.25055786 -3.3828125 42.0859375 C-3.38376923 40.91899353 -3.38472595 39.75204956 -3.38571167 38.54974365 C-3.3863912 36.08866319 -3.38455277 33.62758091 -3.38037109 31.16650391 C-3.3750004 27.38309759 -3.38033367 23.59980896 -3.38671875 19.81640625 C-3.38605831 17.42708307 -3.38477785 15.03775996 -3.3828125 12.6484375 C-3.38483673 11.50997375 -3.38686096 10.37151001 -3.38894653 9.19854736 C-3.38579437 8.1536615 -3.38264221 7.10877563 -3.37939453 6.03222656 C-3.37859894 5.10798889 -3.37780334 4.18375122 -3.37698364 3.23150635 C-3.19932849 0.29535041 -2.9395773 0.17351672 0 0 Z " fill="#DCDCDC" transform="translate(233.25,19.8671875)"/>
<path d="M0 0 C2.0078125 0.1328125 2.0078125 0.1328125 5.0078125 1.1328125 C5.0541054 8.6605003 5.08966615 16.18817338 5.11143684 23.71597099 C5.12188448 27.21125177 5.13606133 30.70643533 5.15869141 34.20166016 C5.18453203 38.21778306 5.19427716 42.23380347 5.203125 46.25 C5.21344757 47.50835663 5.22377014 48.76671326 5.23440552 50.0632019 C5.23455658 51.22425446 5.23470764 52.38530701 5.23486328 53.58154297 C5.2393045 54.60746552 5.24374573 55.63338806 5.24832153 56.69039917 C5.0078125 59.1328125 5.0078125 59.1328125 3.0078125 61.1328125 C3.3378125 41.6628125 3.6678125 22.1928125 4.0078125 2.1328125 C1.0378125 2.1328125 -1.9321875 2.1328125 -4.9921875 2.1328125 C-4.98695068 3.59098389 -4.98171387 5.04915527 -4.97631836 6.55151367 C-4.95820791 11.96540716 -4.94673334 17.37929797 -4.93725586 22.79321289 C-4.93222949 25.13566539 -4.92540742 27.47811475 -4.91674805 29.82055664 C-4.90460832 33.18897272 -4.89894219 36.55734728 -4.89453125 39.92578125 C-4.88936996 40.97179001 -4.88420868 42.01779877 -4.87889099 43.09550476 C-4.87881546 44.07614395 -4.87873993 45.05678314 -4.87866211 46.06713867 C-4.8764415 46.92651535 -4.87422089 47.78589203 -4.87193298 48.67131042 C-4.99761014 51.24380911 -5.42570324 53.62348521 -5.9921875 56.1328125 C-6.3221875 56.1328125 -6.6521875 56.1328125 -6.9921875 56.1328125 C-7.01745313 48.31828498 -7.03501855 40.50376792 -7.04711914 32.68920898 C-7.05216133 30.02839769 -7.05899486 27.36758918 -7.06762695 24.70678711 C-7.07969759 20.89175734 -7.08541679 17.07676406 -7.08984375 13.26171875 C-7.09500504 12.06382217 -7.10016632 10.8659256 -7.10548401 9.63172913 C-7.10555954 8.5306633 -7.10563507 7.42959747 -7.10571289 6.29516602 C-7.1079335 5.32031754 -7.11015411 4.34546906 -7.11244202 3.34107971 C-6.86484402 -1.2056313 -3.87383349 0.01429459 0 0 Z " fill="#DFDFDF" transform="translate(282.9921875,19.8671875)"/>
<path d="M0 0 C1.95766281 -0.08082094 3.91626728 -0.13910778 5.875 -0.1875 C7.51082031 -0.23970703 7.51082031 -0.23970703 9.1796875 -0.29296875 C10.11039063 -0.19628906 11.04109375 -0.09960938 12 0 C12.66 0.99 13.32 1.98 14 3 C14.66 2.01 15.32 1.02 16 0 C17.32 0 18.64 0 20 0 C20.33 3.63 20.66 7.26 21 11 C18.525 10.505 18.525 10.505 16 10 C15.01 10.33 14.02 10.66 13 11 C12.67 10.34 12.34 9.68 12 9 C11.67 9.66 11.34 10.32 11 11 C9.68 11 8.36 11 7 11 C7.33 8.36 7.66 5.72 8 3 C7.01 3.495 7.01 3.495 6 4 C6 6.31 6 8.62 6 11 C4.68 11 3.36 11 2 11 C2 8.36 2 5.72 2 3 C1.34 3 0.68 3 0 3 C0 2.01 0 1.02 0 0 Z " fill="#D9D9D9" transform="translate(573,10)"/>
<path d="M0 0 C1.134375 0.020625 2.26875 0.04125 3.4375 0.0625 C4.63672024 2.82878111 5.82210499 5.599655 7 8.375 C7.34224609 9.16068359 7.68449219 9.94636719 8.03710938 10.75585938 C8.35615234 11.51318359 8.67519531 12.27050781 9.00390625 13.05078125 C9.30240479 13.74727783 9.60090332 14.44377441 9.90844727 15.16137695 C10.4375 17.0625 10.4375 17.0625 9.4375 20.0625 C7.4575 20.0625 5.4775 20.0625 3.4375 20.0625 C3.1075 19.4025 2.7775 18.7425 2.4375 18.0625 C-0.08983235 17.40694881 -0.08983235 17.40694881 -2.5625 17.0625 C-3.2225 18.0525 -3.8825 19.0425 -4.5625 20.0625 C-6.5425 19.7325 -8.5225 19.4025 -10.5625 19.0625 C-9.87721486 14.91963983 -8.58359557 11.22136187 -7.0625 7.3125 C-6.6190625 6.16265625 -6.175625 5.0128125 -5.71875 3.828125 C-4.14872067 0.07278457 -4.14872067 0.07278457 0 0 Z M-2.5625 2.0625 C-3.40834998 3.61825978 -4.23868399 5.1824612 -5.0625 6.75 C-5.5265625 7.62011719 -5.990625 8.49023438 -6.46875 9.38671875 C-7.87780812 12.35209696 -7.87780812 12.35209696 -7.5625 17.0625 C-3.2725 16.4025 1.0175 15.7425 5.4375 15.0625 C5.88644334 9.27549069 5.88644334 9.27549069 3.6875 4.0625 C1.44096023 1.61959077 1.44096023 1.61959077 -2.5625 2.0625 Z " fill="#D79FA1" transform="translate(431.5625,17.9375)"/>
<path d="M0 0 C1.79068573 2.6860286 2.66055791 4.6626589 3.625 7.6875 C3.88539063 8.49574219 4.14578125 9.30398437 4.4140625 10.13671875 C4.60742188 10.75160156 4.80078125 11.36648437 5 12 C0.25 13 0.25 13 -2 13 C-2.33 11.35 -2.66 9.7 -3 8 C-2.01 8 -1.02 8 0 8 C0 5.36 0 2.72 0 0 Z " fill="#D97778" transform="translate(437,25)"/>
<path d="M0 0 C0.061875 0.61875 0.12375 1.2375 0.1875 1.875 C0.828919 4.27761141 0.828919 4.27761141 3.5625 5.25 C4.366875 5.4975 5.17125 5.745 6 6 C6 4.35 6 2.7 6 1 C7.5 2.25 7.5 2.25 9 4 C9 5.32 9 6.64 9 8 C5.7 8 2.4 8 -1 8 C-2 4 -2 4 -1.0625 1.75 C-0.711875 1.1725 -0.36125 0.595 0 0 Z " fill="#EF0806" transform="translate(428,25)"/>
<path d="M0 0 C2.0625 1.75 2.0625 1.75 4 4 C3.75 6.25 3.75 6.25 3 8 C2.67 7.67 2.34 7.34 2 7 C1.67 7.99 1.34 8.98 1 10 C-0.32 10 -1.64 10 -3 10 C-3 8.02 -3 6.04 -3 4 C-2.34 3.67 -1.68 3.34 -1 3 C-0.67 2.01 -0.34 1.02 0 0 Z " fill="#D74140" transform="translate(433,21)"/>
<path d="M0 0 C0.66 0.33 1.32 0.66 2 1 C2.33 2.98 2.66 4.96 3 7 C-1.29 7 -5.58 7 -10 7 C-10.33 5.02 -10.66 3.04 -11 1 C-10.01 2.485 -10.01 2.485 -9 4 C-6.57478506 4.58189266 -6.57478506 4.58189266 -3.875 4.6875 C-2.50988281 4.78611328 -2.50988281 4.78611328 -1.1171875 4.88671875 C-0.41851562 4.92410156 0.28015625 4.96148437 1 5 C0.67 3.35 0.34 1.7 0 0 Z " fill="#E5E5E5" transform="translate(222,91)"/>
<path d="M0 0 C1.32 0 2.64 0 4 0 C4.33 2.97 4.66 5.94 5 9 C4.01 9.33 3.02 9.66 2 10 C2 8.35 2 6.7 2 5 C1.34 5 0.68 5 0 5 C0 3.35 0 1.7 0 0 Z " fill="#EFEFEF" transform="translate(589,10)"/>
<path d="M0 0 C0.98484375 0.00902344 1.9696875 0.01804687 2.984375 0.02734375 C4.10585938 0.04474609 4.10585938 0.04474609 5.25 0.0625 C4.59 1.7125 3.93 3.3625 3.25 5.0625 C2.92 4.0725 2.59 3.0825 2.25 2.0625 C-1.38 2.0625 -5.01 2.0625 -8.75 2.0625 C-9.08 2.7225 -9.41 3.3825 -9.75 4.0625 C-9.75 3.0725 -9.75 2.0825 -9.75 1.0625 C-6.43929162 0.06140485 -3.44915231 -0.04106134 0 0 Z " fill="#E5E5E5" transform="translate(509.75,19.9375)"/>
<path d="M0 0 C0.99 0 1.98 0 3 0 C3 1.65 3 3.3 3 5 C2.67 5 2.34 5 2 5 C1.67 6.65 1.34 8.3 1 10 C-0.32 10 -1.64 10 -3 10 C-3 9.34 -3 8.68 -3 8 C-2.34 8 -1.68 8 -1 8 C-0.67 5.36 -0.34 2.72 0 0 Z " fill="#EDEDED" transform="translate(583,11)"/>
<path d="M0 0 C1.98 0 3.96 0 6 0 C5.01 0.495 5.01 0.495 4 1 C4.33 1.66 4.66 2.32 5 3 C5.04022391 5.3329866 5.04320247 7.66706666 5 10 C4.01 9.67 3.02 9.34 2 9 C2 6.36 2 3.72 2 1 C1.34 0.67 0.68 0.34 0 0 Z " fill="#F9F9F9" transform="translate(574,11)"/>
<path d="M0 0 C2.31 0 4.62 0 7 0 C8.0625 1.8125 8.0625 1.8125 9 4 C8.67 4.99 8.34 5.98 8 7 C7.4121875 6.01 7.4121875 6.01 6.8125 5 C5.14583333 2.70833333 5.14583333 2.70833333 2.3125 2.75 C1.549375 2.8325 0.78625 2.915 0 3 C0 2.01 0 1.02 0 0 Z " fill="#CA7677" transform="translate(428,18)"/>
<path d="" fill="#FDFDFD" transform="translate(0,0)"/>
</svg>
