<svg fill="none" height="52" viewBox="0 0 200 52" width="200" xmlns="http://www.w3.org/2000/svg" xmlns:xlink="http://www.w3.org/1999/xlink"><clipPath id="a"><path d="m0 0h200v51.2821h-200z"/></clipPath><g clip-path="url(#a)"><g fill="#542ded"><path d="m20.3634 38.4615c-.8453 0-1.6716.2507-2.3743.7203-.7028.4695-1.2505 1.1369-1.5739 1.9178-.3235.7809-.4081 1.6402-.2433 2.4691.1649.829.572 1.5905 1.1697 2.1882.5975.5976 1.3591 1.0046 2.188 1.1695.829.1649 1.6882.0803 2.4691-.2432.7809-.3234 1.4484-.8711 1.918-1.574.4695-.7027.7201-1.5289.7201-2.3742 0-1.1333-.4502-2.2204-1.2516-3.0218-.8015-.8014-1.8885-1.2517-3.0218-1.2517z" opacity=".64"/><path d="m37.4788 38.4615c-.8452 0-1.6715.2507-2.3742.7203-.7028.4695-1.2505 1.1369-1.574 1.9178-.3234.7809-.408 1.6402-.2432 2.4691.1649.829.572 1.5905 1.1695 2.1882.5977.5976 1.3592 1.0046 2.1882 1.1695s1.6882.0803 2.4691-.2432c.7809-.3234 1.4484-.8711 1.9178-1.574.4697-.7027.7203-1.5289.7203-2.3742 0-1.1333-.4503-2.2204-1.2517-3.0218s-1.8884-1.2517-3.0218-1.2517z" opacity=".64"/><path d="m41.6666 8.54675h-27.9061c-.2638.00914-.5151.11571-.7051.29916l4.2736 18.63249c0 .1495 0 .2777.1495.4273.4982.605 1.1249 1.0916 1.8345 1.4243.7096.3325 1.4845.503 2.2681.4988h15.8974c2.5226-.0278 4.9336-1.0437 6.7154-2.8296 1.7819-1.7858 2.7923-4.1991 2.8146-6.7217v-6.4102c-.0056-1.4131-.571-2.7663-1.5722-3.7635-1.0011-.99719-2.3566-1.55705-3.7697-1.55705z"/><path d="m38.7607 35.8761h-14.53c-2.254.0094-4.4435-.7527-6.2044-2.1598-1.7609-1.4072-2.9872-3.3746-3.4751-5.5752l-4.2735-18.8676c-.1432-.6337-.49458-1.20115-.99811-1.61172-.50351-.41056-1.13009-.64055-1.77965-.65324h-1.85898c-.36269 0-.71052-.14408-.96698-.40053-.25647-.25646-.40054-.60429-.40054-.96698 0-.3627.14407-.71053.40054-.96699.25646-.25646.60429-.40054.96698-.40054h1.85898c1.2834-.0061 2.53016.42727 3.53316 1.22807 1.0029.80078 1.7015 1.92074 1.9796 3.17364l4.2736 18.86749c.3554 1.5921 1.244 3.015 2.5186 4.0331s2.8587 1.5704 4.4899 1.5653h14.53c.3627 0 .7105.1439.9669.4005.2565.2564.4005.6042.4005.9669s-.144.7105-.4005.9671c-.2564.2564-.6042.4005-.9669.4005z" opacity=".8"/><path d="m73.8718 23.3333c-1.7436 0-3.1368-.5384-4.1795-1.6153-1.0427-1.094-1.6154-2.5812-1.7179-4.4616l-.0257-.8718.0257-.8461c.1025-1.8462.6752-3.3163 1.7179-4.4103s2.4359-1.64102 4.1795-1.64102c1.8804 0 3.3333.59832 4.359 1.79492 1.0427 1.1965 1.5641 2.8205 1.5641 4.8717v.4616c0 .1709-.0599.3163-.1795.4359-.1026.1025-.2394.1538-.4103.1538h-8.8974v.2308c.0513 1.1112.3932 2.0599 1.0256 2.8462.6325.7862 1.4702 1.1794 2.5129 1.1794.8034 0 1.4529-.1538 1.9487-.4615.5128-.3247.8974-.6581 1.1538-1 .1539-.2051.2735-.3247.359-.359.0855-.0513.2308-.0769.4359-.0769h1.1282c.1539 0 .2821.0427.3846.1282.1196.0855.1795.1965.1795.3333 0 .3761-.2308.8291-.6923 1.359s-1.1196.9914-1.9744 1.3846c-.8375.3761-1.8034.5641-2.8974.5641zm3.5897-7.8718v-.0769c0-1.1965-.3247-2.1709-.9743-2.9231-.6496-.7521-1.5214-1.1282-2.6154-1.1282-1.1111 0-1.9829.3761-2.6154 1.1282-.6324.7522-.9487 1.7266-.9487 2.9231v.0769zm9.7589 7.8718c-1.8291 0-3.2564-.5128-4.2821-1.5384-1.0256-1.0427-1.5641-2.4958-1.6153-4.359l-.0257-1.0256.0257-1.0257c.0512-1.8632.5897-3.3077 1.6153-4.3333 1.0257-1.0427 2.453-1.56412 4.2821-1.56412 1.2308 0 2.2649.22222 3.1026.66662.8546.4274 1.4871.9659 1.8974 1.6154.4273.6496.6581 1.2991.6923 1.9488.0171.1538-.0428.2906-.1795.4102-.1197.1196-.2564.1795-.4102.1795h-1.1282c-.1711 0-.2993-.0342-.3847-.1026-.0855-.0855-.171-.2307-.2564-.4359-.3077-.8375-.7351-1.4273-1.282-1.7692-.53-.359-1.2051-.5385-2.0257-.5385-1.0769 0-1.9316.3334-2.5641 1-.6325.6667-.9743 1.6838-1.0256 3.0513l-.0256.8975.0256.8974c.0513 1.3676.3931 2.3846 1.0256 3.0513.6325.6666 1.4872 1 2.5641 1 .8376 0 1.5213-.1709 2.0513-.5128.5299-.359.9487-.9574 1.2564-1.7949.0854-.2051.1709-.3419.2564-.4103.0854-.0855.2136-.1282.3847-.1282h1.1282c.1538 0 .2905.0599.4102.1795.1367.1196.1966.2564.1795.4103-.0342.6324-.265 1.2734-.6923 1.923-.4103.6497-1.0428 1.1966-1.8974 1.6411-.8377.4445-1.8718.6666-3.1026.6666zm13.1486 0c-1.8801 0-3.3331-.5298-4.3587-1.5897-1.0086-1.0599-1.5471-2.4701-1.6154-4.2308l-.0257-1.1025.0257-1.1026c.0683-1.7606.6154-3.1709 1.641-4.2308 1.0427-1.0598 2.4872-1.58972 4.3331-1.58972 1.846 0 3.282.52992 4.308 1.58972 1.043 1.0599 1.598 2.4702 1.667 4.2308.034.376.051.7436.051 1.1026 0 .3589-.017.7265-.051 1.1025-.069 1.7607-.616 3.1709-1.641 4.2308-1.009 1.0599-2.453 1.5897-4.334 1.5897zm0-1.923c1.094 0 1.957-.342 2.59-1.0257.649-.7009 1-1.7009 1.051-3 .017-.1709.026-.4958.026-.9743 0-.4786-.009-.8035-.026-.9744-.051-1.2991-.402-2.2906-1.051-2.9744-.633-.7008-1.496-1.0512-2.59-1.0512-1.0939 0-1.9657.3504-2.6151 1.0512-.6326.6838-.9744 1.6753-1.0257 2.9744l-.0256.9744.0256.9743c.0513 1.2991.3931 2.2991 1.0257 3 .6494.6837 1.5212 1.0257 2.6151 1.0257zm8.828 1.6666c-.171 0-.317-.0513-.436-.1538-.103-.1196-.154-.265-.154-.4359v-12.1539c0-.1709.051-.3077.154-.41022.119-.11965.265-.17949.436-.17949h1.076c.171 0 .308.05984.411.17949.102.10252.154.23932.154.41022v.8718c.923-1.1453 2.17-1.71792 3.743-1.71792 1.88 0 3.214.78632 4 2.35902.41-.718.992-1.2906 1.744-1.718.769-.42734 1.624-.64102 2.564-.64102 1.402 0 2.547.47863 3.436 1.43592.889.9572 1.333 2.3419 1.333 4.1538v7.4103c0 .1709-.06.3163-.179.4359-.103.1025-.24.1538-.411.1538h-1.102c-.171 0-.317-.0513-.436-.1538-.103-.1196-.154-.265-.154-.4359v-7.1795c0-1.3676-.282-2.3419-.846-2.9231-.564-.5983-1.308-.8974-2.231-.8974-.82 0-1.53.3077-2.128.9231-.581.5983-.872 1.5641-.872 2.8974v7.1795c0 .1709-.06.3163-.179.4359-.103.1025-.24.1538-.411.1538h-1.128c-.171 0-.316-.0513-.436-.1538-.102-.1196-.154-.265-.154-.4359v-7.1795c0-1.3504-.299-2.3247-.897-2.9231-.581-.5983-1.308-.8974-2.18-.8974-.82 0-1.53.2991-2.128.8974-.581.5984-.872 1.5641-.872 2.8975v7.2051c0 .1709-.059.3163-.179.4359-.103.1025-.239.1538-.41.1538zm21.735 0c-.17 0-.315-.0513-.436-.1538-.102-.1196-.154-.265-.154-.4359v-12.1539c0-.1709.052-.3077.154-.41022.121-.11965.266-.17949.436-.17949h1.077c.172 0 .308.05984.41.17949.103.10252.154.23932.154.41022v.8718c.923-1.1453 2.172-1.71792 3.744-1.71792 1.88 0 3.214.78632 4 2.35902.41-.718.992-1.2906 1.743-1.718.769-.42734 1.625-.64102 2.564-.64102 1.403 0 2.548.47863 3.436 1.43592.89.9572 1.334 2.3419 1.334 4.1538v7.4103c0 .1709-.059.3163-.18.4359-.102.1025-.238.1538-.41.1538h-1.103c-.17 0-.315-.0513-.436-.1538-.102-.1196-.153-.265-.153-.4359v-7.1795c0-1.3676-.283-2.3419-.847-2.9231-.564-.5983-1.307-.8974-2.23-.8974-.821 0-1.53.3077-2.129.9231-.58.5983-.871 1.5641-.871 2.8974v7.1795c0 .1709-.059.3163-.18.4359-.102.1025-.238.1538-.41.1538h-1.128c-.171 0-.316-.0513-.436-.1538-.103-.1196-.154-.265-.154-.4359v-7.1795c0-1.3504-.299-2.3247-.897-2.9231-.581-.5983-1.308-.8974-2.18-.8974-.821 0-1.529.2991-2.128.8974-.581.5984-.872 1.5641-.872 2.8975v7.2051c0 .1709-.059.3163-.179.4359-.103.1025-.239.1538-.411.1538zm26.428.2564c-1.743 0-3.137-.5384-4.179-1.6153-1.043-1.094-1.616-2.5812-1.718-4.4616l-.026-.8718.026-.8461c.102-1.8462.675-3.3163 1.718-4.4103 1.042-1.094 2.436-1.64102 4.179-1.64102 1.881 0 3.334.59832 4.359 1.79492 1.043 1.1965 1.564 2.8205 1.564 4.8717v.4616c0 .1709-.06.3163-.179.4359-.103.1025-.24.1538-.41.1538h-8.898v.2308c.051 1.1112.394 2.0599 1.026 2.8462.632.7862 1.47 1.1794 2.513 1.1794.803 0 1.452-.1538 1.948-.4615.513-.3247.898-.6581 1.154-1 .154-.2051.273-.3247.359-.359.086-.0513.231-.0769.436-.0769h1.128c.154 0 .282.0427.385.1282.119.0855.179.1965.179.3333 0 .3761-.23.8291-.692 1.359-.461.5299-1.119.9914-1.974 1.3846-.837.3761-1.804.5641-2.898.5641zm3.59-7.8718v-.0769c0-1.1965-.324-2.1709-.974-2.9231-.65-.7521-1.522-1.1282-2.616-1.1282-1.111 0-1.983.3761-2.615 1.1282-.632.7522-.949 1.7266-.949 2.9231v.0769zm5.015 7.6154c-.17 0-.316-.0513-.435-.1538-.103-.1196-.154-.265-.154-.4359v-12.1282c0-.171.051-.3163.154-.43592.119-.11965.265-.17949.435-.17949h1.077c.189 0 .334.05984.436.17949.119.10252.18.24782.18.43592v1.1282c.701-1.1624 1.888-1.74361 3.564-1.74361h1c.188 0 .333.05128.436.15385.102.10256.154.24786.154.43586v.9488c0 .1709-.052.3162-.154.4359-.103.1025-.248.1538-.436.1538h-1.462c-.939 0-1.683.2735-2.231.8205-.529.5471-.794 1.2907-.794 2.2308v7.5641c0 .1709-.061.3163-.18.4359-.119.1025-.265.1538-.436.1538zm13.108.2564c-1.828 0-3.256-.5128-4.282-1.5384-1.026-1.0427-1.564-2.4958-1.615-4.359l-.026-1.0256.026-1.0257c.051-1.8632.589-3.3077 1.615-4.3333 1.026-1.0427 2.454-1.56412 4.282-1.56412 1.231 0 2.265.22222 3.103.66662.855.4274 1.487.9659 1.897 1.6154.428.6496.659 1.2991.692 1.9488.018.1538-.042.2906-.179.4102-.119.1196-.257.1795-.41.1795h-1.129c-.17 0-.298-.0342-.384-.1026-.085-.0855-.171-.2307-.257-.4359-.307-.8375-.734-1.4273-1.282-1.7692-.529-.359-1.205-.5385-2.025-.5385-1.077 0-1.931.3334-2.564 1-.632.6667-.975 1.6838-1.026 3.0513l-.026.8975.026.8974c.051 1.3676.394 2.3846 1.026 3.0513.633.6666 1.487 1 2.564 1 .838 0 1.522-.1709 2.051-.5128.531-.359.949-.9574 1.256-1.7949.086-.2051.172-.3419.257-.4103.086-.0855.214-.1282.384-.1282h1.129c.153 0 .291.0599.41.1795.137.1196.197.2564.179.4103-.033.6324-.264 1.2734-.692 1.923-.41.6497-1.042 1.1966-1.897 1.6411-.838.4445-1.872.6666-3.103.6666zm13.021 0c-1.744 0-3.136-.5384-4.18-1.6153-1.042-1.094-1.615-2.5812-1.718-4.4616l-.025-.8718.025-.8461c.103-1.8462.676-3.3163 1.718-4.4103 1.044-1.094 2.436-1.64102 4.18-1.64102 1.88 0 3.333.59832 4.359 1.79492 1.043 1.1965 1.564 2.8205 1.564 4.8717v.4616c0 .1709-.059.3163-.18.4359-.102.1025-.238.1538-.41.1538h-8.898v.2308c.052 1.1112.394 2.0599 1.026 2.8462.633.7862 1.471 1.1794 2.513 1.1794.804 0 1.454-.1538 1.949-.4615.512-.3247.897-.6581 1.154-1 .153-.2051.274-.3247.358-.359.086-.0513.231-.0769.436-.0769h1.129c.153 0 .282.0427.384.1282.121.0855.18.1965.18.3333 0 .3761-.231.8291-.693 1.359-.461.5299-1.119.9914-1.974 1.3846-.837.3761-1.803.5641-2.897.5641zm3.589-7.8718v-.0769c0-1.1965-.324-2.1709-.974-2.9231-.649-.7521-1.521-1.1282-2.615-1.1282-1.111 0-1.982.3761-2.616 1.1282-.632.7522-.949 1.7266-.949 2.9231v.0769z"/><path clip-rule="evenodd" d="m121.795 28.2051h-46.4744l-8.6539 11.5384 8.6539 11.5385h41.3464zm2.564 0-5.128 23.0769h8.013l8.654-11.5385-8.654-11.5384z" fill-rule="evenodd"/></g><path d="m76.8077 44.8718c-.1026 0-.1897-.0359-.2615-.1077s-.1077-.159-.1077-.2616v-10.0153c0-.1129.0307-.2052.0923-.277.0718-.0718.1641-.1077.2769-.1077h1.4154c.1128 0 .2051.0359.2769.1077s.1077.1641.1077.277v3.9538h4.4923v-3.9538c0-.1129.0359-.2052.1077-.277s.159-.1077.2615-.1077h1.4308c.1128 0 .2.0359.2616.1077.0717.0718.1076.1641.1076.277v10.0153c0 .1026-.0359.1898-.1076.2616-.0616.0718-.1488.1077-.2616.1077h-1.4308c-.1025 0-.1897-.0359-.2615-.1077s-.1077-.159-.1077-.2616v-4.1077h-4.4923v4.1077c0 .1026-.0359.1898-.1077.2616s-.1641.1077-.2769.1077zm12.9918 0c-.1026 0-.1897-.0359-.2615-.1077s-.1077-.159-.1077-.2616v-8.4769h-2.8462c-.1026 0-.1897-.0359-.2615-.1077s-.1077-.1641-.1077-.2769v-1.1538c0-.1129.0308-.2052.0923-.277.0718-.0718.1641-.1077.2769-.1077h7.8616c.1128 0 .2051.0359.2769.1077s.1077.1641.1077.277v1.1538c0 .1128-.0359.2051-.1077.2769s-.1641.1077-.2769.1077h-2.8308v8.4769c0 .1026-.0359.1898-.1077.2616-.0615.0718-.1487.1077-.2615.1077zm6.3454 0c-.1026 0-.1898-.0359-.2616-.1077-.0717-.0718-.1076-.159-.1076-.2616v-10.0153c0-.1129.0307-.2052.0923-.277.0718-.0718.1641-.1077.2769-.1077h1.2461c.1949 0 .3488.0975.4616.2923l2.9694 5.5077 2.969-5.5077c.113-.1948.267-.2923.462-.2923h1.23c.113 0 .205.0359.277.1077s.108.1641.108.277v10.0153c0 .1129-.036.2052-.108.277-.072.0615-.164.0923-.277.0923h-1.323c-.102 0-.189-.0359-.261-.1077s-.108-.159-.108-.2616v-6.6153l-2.138 4.0615c-.113.2256-.282.3385-.508.3385h-.646c-.216 0-.39-.1129-.5233-.3385l-2.1385-4.0615v6.6153c0 .1026-.0359.1898-.1077.2616-.0615.0718-.1487.1077-.2615.1077zm11.8691 0c-.102 0-.189-.0359-.261-.1077s-.108-.159-.108-.2616v-10.0307c0-.1129.036-.2.108-.2616.072-.0718.159-.1077.261-.1077h1.447c.112 0 .2.0359.261.1077.072.0616.108.1487.108.2616v8.5538h4.877c.112 0 .205.0359.277.1077.071.0718.107.159.107.2615v1.1077c0 .1026-.036.1898-.107.2616-.072.0718-.165.1077-.277.1077z" fill="#fff"/></g></svg>