<svg width="219" height="40" viewBox="0 0 219 40" fill="none" xmlns="http://www.w3.org/2000/svg">
<path d="M40 0V40H15.4329V31.8708H32.4091V23.9569H15.4329V16.1507H32.4091V8.34455H7.69852V40H0V0H40Z" fill="#5750F1"/>
<path d="M73.5479 22.3755V18.0698H63.364V10.6191H75.4949V6.20101H58.5715V33.5704H63.364V22.3755H73.5479Z" fill="#0E0B3D"/>
<path d="M76.0676 24.285C76.0676 30.0509 80.2236 34.0197 85.952 34.0197C91.6805 34.0197 95.8365 30.0509 95.8365 24.285C95.8365 18.5191 91.6805 14.5504 85.952 14.5504C80.2236 14.5504 76.0676 18.5191 76.0676 24.285ZM80.6354 24.285C80.6354 20.9153 82.807 18.6314 85.952 18.6314C89.0971 18.6314 91.2687 20.9153 91.2687 24.285C91.2687 27.6547 89.0971 29.9386 85.952 29.9386C82.807 29.9386 80.6354 27.6547 80.6354 24.285Z" fill="#0E0B3D"/>
<path d="M110.502 14.9997C109.753 14.8124 109.117 14.7376 108.48 14.7376C106.009 14.7376 104.25 15.9731 103.463 17.8077L103.201 15.112H98.8955V33.5704H103.463V24.5846C103.463 20.9902 105.523 19.2305 108.817 19.2305H110.502V14.9997Z" fill="#0E0B3D"/>
<path d="M117.6 33.5704V23.0869C117.6 20.0916 119.36 18.6689 121.532 18.6689C123.703 18.6689 125.088 20.0542 125.088 22.6376V33.5704H129.656V23.0869C129.656 20.0542 131.341 18.6314 133.55 18.6314C135.722 18.6314 137.144 20.0168 137.144 22.6751V33.5704H141.675V21.477C141.675 17.2087 139.204 14.5129 134.711 14.5129C131.903 14.5129 129.731 15.8982 128.795 18.0324C127.822 15.8982 125.875 14.5129 123.067 14.5129C120.408 14.5129 118.536 15.711 117.6 17.2461L117.226 15.0745H113.032V33.5704H117.6Z" fill="#0E0B3D"/>
<path d="M146.271 33.5704H157.354C163.007 33.5704 166.265 30.8372 166.265 26.1571C166.265 22.9746 164.805 20.803 161.922 19.867C164.505 18.7812 165.853 16.6096 165.853 13.5769C165.853 9.00909 162.558 6.20101 157.167 6.20101H146.271V33.5704ZM156.755 10.4318C159.451 10.4318 160.948 11.7048 160.948 14.0636C160.948 16.4973 159.488 17.8826 156.867 17.8826H151.064V10.4318H156.755ZM157.167 21.9262C159.825 21.9262 161.36 23.2367 161.36 25.558C161.36 28.0291 159.862 29.3396 157.167 29.3396H151.064V21.9262H157.167Z" fill="#0E0B3D"/>
<path d="M168.338 24.285C168.338 30.0509 172.494 34.0197 178.222 34.0197C183.951 34.0197 188.107 30.0509 188.107 24.285C188.107 18.5191 183.951 14.5504 178.222 14.5504C172.494 14.5504 168.338 18.5191 168.338 24.285ZM172.906 24.285C172.906 20.9153 175.077 18.6314 178.222 18.6314C181.367 18.6314 183.539 20.9153 183.539 24.285C183.539 27.6547 181.367 29.9386 178.222 29.9386C175.077 29.9386 172.906 27.6547 172.906 24.285Z" fill="#0E0B3D"/>
<path d="M195.771 33.5704V5.71428H191.241V33.5704H195.771Z" fill="#0E0B3D"/>
<path d="M207.601 34.0571C210.41 34.0571 212.806 32.8216 213.929 30.6874L214.229 33.5704H218.422V5.71428H213.892V17.4333C212.731 15.5987 210.447 14.5129 207.864 14.5129C202.285 14.5129 198.915 18.6314 198.915 24.3974C198.915 30.1258 202.247 34.0571 207.601 34.0571ZM208.612 29.8637C205.43 29.8637 203.483 27.5424 203.483 24.2476C203.483 20.9528 205.43 18.594 208.612 18.594C211.795 18.594 213.854 20.9153 213.854 24.2476C213.854 27.5798 211.795 29.8637 208.612 29.8637Z" fill="#0E0B3D"/>
</svg>
