<svg width="219" height="40" viewBox="0 0 219 40" fill="none" xmlns="http://www.w3.org/2000/svg">
<path d="M40.3999 0V40H15.8328V31.8708H32.8091V23.9569H15.8328V16.1507H32.8091V8.34455H8.09842V40H0.399902V0H40.3999Z" fill="white"/>
<path d="M73.9476 22.3756V18.0698H63.7636V10.6191H75.8945V6.20103H58.9712V33.5704H63.7636V22.3756H73.9476Z" fill="white"/>
<path d="M76.4673 24.285C76.4673 30.051 80.6232 34.0197 86.3517 34.0197C92.0802 34.0197 96.2361 30.051 96.2361 24.285C96.2361 18.5191 92.0802 14.5504 86.3517 14.5504C80.6232 14.5504 76.4673 18.5191 76.4673 24.285ZM81.0351 24.285C81.0351 20.9154 83.2067 18.6314 86.3517 18.6314C89.4967 18.6314 91.6683 20.9154 91.6683 24.285C91.6683 27.6547 89.4967 29.9386 86.3517 29.9386C83.2067 29.9386 81.0351 27.6547 81.0351 24.285Z" fill="white"/>
<path d="M110.902 14.9997C110.153 14.8125 109.517 14.7376 108.88 14.7376C106.409 14.7376 104.649 15.9731 103.863 17.8077L103.601 15.112H99.2952V33.5704H103.863V24.5846C103.863 20.9902 105.922 19.2305 109.217 19.2305H110.902V14.9997Z" fill="white"/>
<path d="M118 33.5704V23.0869C118 20.0916 119.76 18.6689 121.931 18.6689C124.103 18.6689 125.488 20.0542 125.488 22.6376V33.5704H130.056V23.0869C130.056 20.0542 131.741 18.6314 133.95 18.6314C136.121 18.6314 137.544 20.0168 137.544 22.6751V33.5704H142.074V21.477C142.074 17.2087 139.603 14.5129 135.11 14.5129C132.302 14.5129 130.131 15.8983 129.195 18.0324C128.221 15.8983 126.274 14.5129 123.466 14.5129C120.808 14.5129 118.936 15.711 118 17.2461L117.625 15.0746H113.432V33.5704H118Z" fill="white"/>
<path d="M146.671 33.5704H157.753C163.407 33.5704 166.664 30.8372 166.664 26.1571C166.664 22.9746 165.204 20.803 162.321 19.867C164.905 18.7812 166.253 16.6096 166.253 13.5769C166.253 9.0091 162.958 6.20103 157.566 6.20103H146.671V33.5704ZM157.154 10.4319C159.85 10.4319 161.348 11.7049 161.348 14.0636C161.348 16.4973 159.888 17.8826 157.267 17.8826H151.463V10.4319H157.154ZM157.566 21.9263C160.225 21.9263 161.76 23.2367 161.76 25.558C161.76 28.0291 160.262 29.3396 157.566 29.3396H151.463V21.9263H157.566Z" fill="white"/>
<path d="M168.737 24.285C168.737 30.051 172.893 34.0197 178.622 34.0197C184.35 34.0197 188.506 30.051 188.506 24.285C188.506 18.5191 184.35 14.5504 178.622 14.5504C172.893 14.5504 168.737 18.5191 168.737 24.285ZM173.305 24.285C173.305 20.9154 175.477 18.6314 178.622 18.6314C181.767 18.6314 183.939 20.9154 183.939 24.285C183.939 27.6547 181.767 29.9386 178.622 29.9386C175.477 29.9386 173.305 27.6547 173.305 24.285Z" fill="white"/>
<path d="M196.171 33.5704V5.71429H191.64V33.5704H196.171Z" fill="white"/>
<path d="M208.001 34.0572C210.809 34.0572 213.205 32.8216 214.329 30.6875L214.628 33.5704H218.822V5.71429H214.291V17.4333C213.131 15.5987 210.847 14.5129 208.263 14.5129C202.684 14.5129 199.315 18.6314 199.315 24.3974C199.315 30.1258 202.647 34.0572 208.001 34.0572ZM209.012 29.8638C205.83 29.8638 203.883 27.5424 203.883 24.2476C203.883 20.9528 205.83 18.594 209.012 18.594C212.194 18.594 214.254 20.9154 214.254 24.2476C214.254 27.5799 212.194 29.8638 209.012 29.8638Z" fill="white"/>
</svg>
