<svg width="193" height="40" viewBox="0 0 193 40" fill="none" xmlns="http://www.w3.org/2000/svg">
<g clip-path="url(#clip0_2911_90)">
<path d="M40.9412 20C40.9412 8.9543 31.9869 0 20.9412 0C9.89547 0 0.941162 8.9543 0.941162 20C0.941162 31.0457 9.89547 40 20.9412 40C31.9869 40 40.9412 31.0457 40.9412 20Z" fill="url(#paint0_linear_2911_90)"/>
<path d="M40.9412 20C40.9412 8.9543 31.9869 0 20.9412 0C9.89547 0 0.941162 8.9543 0.941162 20C0.941162 31.0457 9.89547 40 20.9412 40C31.9869 40 40.9412 31.0457 40.9412 20Z" fill="url(#paint1_linear_2911_90)" fill-opacity="0.56"/>
<path d="M21.2595 7.5C24.4266 7.5 27.4164 8.67012 29.73 10.8034C29.8583 10.9217 29.8596 11.1226 29.7363 11.2459L24.8391 16.1431C24.7205 16.2618 24.5299 16.2647 24.4002 16.1583C23.5157 15.4342 22.4183 15.041 21.2615 15.041C18.5232 15.0391 16.2966 17.2657 16.2966 20H8.75366C8.75366 13.1074 14.3649 7.5 21.2595 7.5Z" fill="white"/>
<path d="M16.2966 20C16.2966 22.5663 18.2575 24.6846 20.7606 24.936C20.9275 24.9528 21.0603 25.0896 21.0603 25.2573V32.1826C21.0603 32.357 20.9165 32.4981 20.7421 32.491C14.0849 32.2182 8.75366 26.7194 8.75366 20H16.2966Z" fill="white"/>
<path opacity="0.56" d="M28.691 20.9921H25.7418C25.5691 20.9921 25.4292 21.1321 25.4292 21.3047V24.2519C25.4292 24.4246 25.5691 24.5644 25.7418 24.5644H28.691C28.8635 24.5644 29.0034 24.4246 29.0034 24.2519V21.3047C29.0034 21.1321 28.8635 20.9921 28.691 20.9921Z" fill="white"/>
<path opacity="0.4" d="M32.6594 20.9921H29.7101C29.5376 20.9921 29.3977 21.1321 29.3977 21.3047V24.2519C29.3977 24.4246 29.5376 24.5644 29.7101 24.5644H32.6594C32.8319 24.5644 32.9719 24.4246 32.9719 24.2519V21.3047C32.9719 21.1321 32.8319 20.9921 32.6594 20.9921Z" fill="white"/>
<path opacity="0.72" d="M28.691 24.9611H25.7418C25.5691 24.9611 25.4292 25.101 25.4292 25.2736V28.2209C25.4292 28.3934 25.5691 28.5333 25.7418 28.5333H28.691C28.8635 28.5333 29.0034 28.3934 29.0034 28.2209V25.2736C29.0034 25.101 28.8635 24.9611 28.691 24.9611Z" fill="white"/>
<path opacity="0.88" d="M24.7209 24.9611H21.7717C21.5991 24.9611 21.4592 25.101 21.4592 25.2736V28.2209C21.4592 28.3934 21.5991 28.5333 21.7717 28.5333H24.7209C24.8936 28.5333 25.0335 28.3934 25.0335 28.2209V25.2736C25.0335 25.101 24.8936 24.9611 24.7209 24.9611Z" fill="white"/>
<path opacity="0.56" d="M32.6594 24.9611H29.7101C29.5376 24.9611 29.3977 25.101 29.3977 25.2736V28.2209C29.3977 28.3934 29.5376 28.5333 29.7101 28.5333H32.6594C32.8319 28.5333 32.9719 28.3934 32.9719 28.2209V25.2736C32.9719 25.101 32.8319 24.9611 32.6594 24.9611Z" fill="white"/>
<path opacity="0.88" d="M28.691 28.9276H25.7418C25.5691 28.9276 25.4292 29.0674 25.4292 29.24V32.1873C25.4292 32.3599 25.5691 32.4998 25.7418 32.4998H28.691C28.8635 32.4998 29.0034 32.3599 29.0034 32.1873V29.24C29.0034 29.0674 28.8635 28.9276 28.691 28.9276Z" fill="white"/>
<path opacity="0.96" d="M24.7209 28.9276H21.7717C21.5991 28.9276 21.4592 29.0674 21.4592 29.24V32.1873C21.4592 32.3599 21.5991 32.4998 21.7717 32.4998H24.7209C24.8936 32.4998 25.0335 32.3599 25.0335 32.1873V29.24C25.0335 29.0674 24.8936 28.9276 24.7209 28.9276Z" fill="white"/>
<path opacity="0.72" d="M32.6594 28.9276H29.7101C29.5376 28.9276 29.3977 29.0674 29.3977 29.24V32.1873C29.3977 32.3599 29.5376 32.4998 29.7101 32.4998H32.6594C32.8319 32.4998 32.9719 32.3599 32.9719 32.1873V29.24C32.9719 29.0674 32.8319 28.9276 32.6594 28.9276Z" fill="white"/>
<path d="M64.2099 11.25H67.3599V29.31C67.3599 30.465 67.0912 31.5383 66.5536 32.53C66.0286 33.5333 65.3162 34.4024 64.4162 35.1376C63.5162 35.8841 62.4912 36.4617 61.3412 36.87C60.1912 37.29 58.9912 37.5 57.7412 37.5C56.4412 37.5 55.1849 37.2259 53.9724 36.6776C52.7599 36.1409 51.6974 35.4174 50.7849 34.5074C49.8849 33.6091 49.2349 32.6 48.8349 31.48L51.7224 30.255C51.9599 31.06 52.3849 31.7833 52.9974 32.425C53.6224 33.0783 54.3474 33.5917 55.1724 33.965C56.0099 34.35 56.8662 34.5424 57.7412 34.5424C58.5662 34.5424 59.3599 34.4083 60.1224 34.14C60.8974 33.8717 61.5912 33.4983 62.2036 33.02C62.8286 32.5533 63.3162 31.9992 63.6662 31.3576C64.0286 30.7276 64.2099 30.045 64.2099 29.31V25.8274C63.5724 26.8308 62.7286 27.6474 61.6786 28.2774C60.6412 28.8959 59.4286 29.205 58.0412 29.205C56.7162 29.205 55.4724 28.9659 54.3099 28.4876C53.1474 28.0092 52.1286 27.35 51.2536 26.51C50.3786 25.6583 49.6912 24.6783 49.1912 23.57C48.6912 22.4617 48.4412 21.2717 48.4412 20C48.4412 18.7283 48.6912 17.5383 49.1912 16.43C49.6912 15.31 50.3786 14.33 51.2536 13.49C52.1286 12.6383 53.1474 11.9733 54.3099 11.495C55.4724 11.0167 56.7162 10.7775 58.0412 10.7775C59.4286 10.7775 60.6412 11.0867 61.6786 11.705C62.7286 12.3233 63.5724 13.14 64.2099 14.155V11.25ZM58.0599 26.3526C59.2724 26.3526 60.3224 26.0609 61.2099 25.4776C62.1099 24.8942 62.8036 24.1183 63.2912 23.15C63.7786 22.1817 64.0224 21.1317 64.0224 20C64.0224 18.8333 63.7724 17.7717 63.2724 16.815C62.7849 15.8467 62.0912 15.0767 61.1912 14.505C60.3036 13.9217 59.2599 13.63 58.0599 13.63C56.8849 13.63 55.8099 13.9159 54.8349 14.4876C53.8599 15.0592 53.0849 15.8292 52.5099 16.7976C51.9474 17.7542 51.6662 18.8217 51.6662 20C51.6662 21.1783 51.9536 22.2517 52.5287 23.22C53.1162 24.1767 53.8912 24.9409 54.8536 25.5126C55.8286 26.0726 56.8974 26.3526 58.0599 26.3526Z" fill="#1E1983"/>
<path d="M70.3684 28.75V11.25H73.5184V13.4375C74.181 12.6209 75.0184 11.9733 76.031 11.495C77.0434 11.005 78.1434 10.76 79.331 10.76C80.056 10.76 80.756 10.8475 81.431 11.0225L80.156 13.9626C79.6434 13.8109 79.1434 13.735 78.656 13.735C77.7184 13.735 76.856 13.9509 76.0684 14.3825C75.2934 14.8025 74.6746 15.3742 74.2122 16.0975C73.7496 16.8209 73.5184 17.6259 73.5184 18.5126V28.75H70.3684Z" fill="#1E1983"/>
<path d="M96.358 11.25H99.508V28.75H96.358L96.2267 25.7925C95.6392 26.8075 94.8267 27.63 93.7892 28.26C92.7642 28.89 91.5392 29.205 90.1142 29.205C88.7392 29.205 87.4517 28.9659 86.2517 28.4875C85.0517 27.9975 83.9892 27.3267 83.0642 26.475C82.1517 25.6117 81.4392 24.62 80.9267 23.5C80.4142 22.38 80.158 21.1725 80.158 19.8775C80.158 18.6292 80.408 17.4509 80.908 16.3425C81.408 15.2342 82.1017 14.2659 82.9892 13.4375C83.8892 12.5975 84.9267 11.9442 86.1017 11.4775C87.2767 10.9992 88.5392 10.76 89.8892 10.76C91.3642 10.76 92.658 11.0867 93.7705 11.74C94.883 12.3817 95.783 13.2159 96.4705 14.2426L96.358 11.25ZM90.058 26.3525C91.2955 26.3525 92.3642 26.0725 93.2642 25.5125C94.1767 24.9409 94.8767 24.1709 95.3642 23.2025C95.8642 22.2342 96.1142 21.1667 96.1142 20C96.1142 18.81 95.8642 17.7367 95.3642 16.78C94.8642 15.8117 94.158 15.0476 93.2455 14.4876C92.3455 13.9159 91.283 13.63 90.058 13.63C88.8205 13.63 87.6955 13.9159 86.683 14.4876C85.6705 15.0592 84.8642 15.8292 84.2642 16.7975C83.6767 17.7542 83.383 18.8217 83.383 20C83.383 21.1783 83.6892 22.2517 84.3017 23.22C84.9142 24.1767 85.7267 24.9409 86.7392 25.5125C87.7517 26.0725 88.858 26.3525 90.058 26.3525Z" fill="#1E1983"/>
<path d="M114.013 11.25H117.351L107.095 37.5H103.757L107.151 28.75L100.42 11.25H103.87L108.726 24.7074L114.013 11.25Z" fill="#1E1983"/>
<path d="M133.283 11.25H136.433V29.31C136.433 30.465 136.164 31.5383 135.627 32.53C135.102 33.5333 134.389 34.4024 133.489 35.1376C132.589 35.8841 131.564 36.4617 130.414 36.87C129.264 37.29 128.064 37.5 126.814 37.5C125.514 37.5 124.258 37.2259 123.046 36.6776C121.833 36.1409 120.771 35.4174 119.858 34.5074C118.958 33.6091 118.308 32.6 117.908 31.48L120.796 30.255C121.033 31.06 121.458 31.7833 122.071 32.425C122.696 33.0783 123.421 33.5917 124.246 33.965C125.083 34.35 125.939 34.5424 126.814 34.5424C127.639 34.5424 128.433 34.4083 129.196 34.14C129.971 33.8717 130.664 33.4983 131.277 33.02C131.902 32.5533 132.389 31.9992 132.739 31.3576C133.102 30.7276 133.283 30.045 133.283 29.31V25.8274C132.646 26.8308 131.802 27.6474 130.752 28.2774C129.714 28.8959 128.502 29.205 127.114 29.205C125.789 29.205 124.546 28.9659 123.383 28.4876C122.221 28.0092 121.202 27.35 120.327 26.51C119.452 25.6583 118.764 24.6783 118.264 23.57C117.764 22.4617 117.514 21.2717 117.514 20C117.514 18.7283 117.764 17.5383 118.264 16.43C118.764 15.31 119.452 14.33 120.327 13.49C121.202 12.6383 122.221 11.9733 123.383 11.495C124.546 11.0167 125.789 10.7775 127.114 10.7775C128.502 10.7775 129.714 11.0867 130.752 11.705C131.802 12.3233 132.646 13.14 133.283 14.155V11.25ZM127.133 26.3526C128.346 26.3526 129.396 26.0609 130.283 25.4776C131.183 24.8942 131.877 24.1183 132.364 23.15C132.852 22.1817 133.096 21.1317 133.096 20C133.096 18.8333 132.846 17.7717 132.346 16.815C131.858 15.8467 131.164 15.0767 130.264 14.505C129.377 13.9217 128.333 13.63 127.133 13.63C125.958 13.63 124.883 13.9159 123.908 14.4876C122.933 15.0592 122.158 15.8292 121.583 16.7976C121.021 17.7542 120.739 18.8217 120.739 20C120.739 21.1783 121.027 22.2517 121.602 23.22C122.189 24.1767 122.964 24.9409 123.927 25.5126C124.902 26.0726 125.971 26.3526 127.133 26.3526Z" fill="#1E1983"/>
<path d="M139.441 28.75V11.25H142.591V13.4375C143.254 12.6209 144.091 11.9733 145.104 11.495C146.117 11.005 147.217 10.76 148.404 10.76C149.129 10.76 149.829 10.8475 150.504 11.0225L149.229 13.9626C148.717 13.8109 148.217 13.735 147.729 13.735C146.791 13.735 145.929 13.9509 145.141 14.3825C144.367 14.8025 143.748 15.3742 143.286 16.0975C142.823 16.8209 142.591 17.6259 142.591 18.5126V28.75H139.441Z" fill="#1E1983"/>
<path d="M151.308 11.25H154.458V28.75H151.308V11.25ZM152.921 8.39749C152.421 8.39749 152.002 8.24583 151.664 7.94249C151.327 7.63916 151.158 7.25999 151.158 6.80499C151.158 6.34999 151.327 5.97083 151.664 5.66749C152.002 5.36416 152.414 5.21249 152.902 5.21249C153.39 5.21249 153.802 5.36416 154.14 5.66749C154.477 5.97083 154.645 6.34999 154.645 6.80499C154.645 7.25999 154.477 7.63916 154.14 7.94249C153.814 8.24583 153.408 8.39749 152.921 8.39749Z" fill="#1E1983"/>
<path d="M172.3 2.5H175.45V28.75H172.3V25.775C171.662 26.8017 170.805 27.63 169.731 28.26C168.655 28.89 167.393 29.205 165.943 29.205C164.581 29.205 163.305 28.9659 162.118 28.4876C160.931 28.0092 159.881 27.35 158.968 26.51C158.068 25.6583 157.362 24.6783 156.85 23.57C156.337 22.4617 156.081 21.2717 156.081 20C156.081 18.7283 156.337 17.5383 156.85 16.43C157.362 15.31 158.068 14.33 158.968 13.49C159.881 12.6383 160.931 11.9733 162.118 11.495C163.305 11.0167 164.581 10.7775 165.943 10.7775C167.393 10.7775 168.655 11.0925 169.731 11.7226C170.805 12.3526 171.662 13.1809 172.3 14.2076V2.5ZM165.981 26.3526C167.218 26.3526 168.287 26.0726 169.187 25.5126C170.1 24.9409 170.8 24.1709 171.287 23.2026C171.787 22.2342 172.037 21.1667 172.037 20C172.037 18.81 171.787 17.7367 171.287 16.78C170.787 15.8117 170.081 15.0476 169.168 14.4876C168.268 13.9159 167.205 13.63 165.981 13.63C164.743 13.63 163.618 13.9159 162.605 14.4876C161.605 15.0592 160.805 15.8292 160.205 16.7976C159.605 17.7542 159.305 18.8217 159.305 20C159.305 21.1783 159.612 22.2517 160.224 23.22C160.837 24.1767 161.65 24.9409 162.662 25.5126C163.674 26.0726 164.781 26.3526 165.981 26.3526Z" fill="#1E1983"/>
<path d="M184.166 29.0824C183.153 29.0474 182.166 28.8726 181.203 28.5574C180.253 28.2309 179.417 27.7933 178.691 27.245C177.979 26.685 177.46 26.0433 177.134 25.32L179.834 24.235C180.022 24.6317 180.36 25.005 180.848 25.355C181.334 25.705 181.898 25.985 182.534 26.195C183.172 26.405 183.816 26.51 184.466 26.51C185.153 26.51 185.798 26.4109 186.398 26.2126C186.998 26.0142 187.484 25.7226 187.86 25.3376C188.248 24.9409 188.441 24.4683 188.441 23.92C188.441 23.3367 188.229 22.8817 187.803 22.555C187.391 22.2167 186.866 21.9541 186.229 21.7674C185.603 21.5692 184.966 21.3824 184.316 21.2076C183.029 20.9041 181.879 20.5426 180.866 20.1226C179.853 19.6909 179.053 19.1483 178.466 18.495C177.891 17.83 177.603 16.9842 177.603 15.9576C177.603 14.8726 177.922 13.9333 178.56 13.14C179.21 12.3467 180.06 11.7342 181.11 11.3026C182.16 10.8708 183.284 10.655 184.484 10.655C185.998 10.655 187.379 10.9583 188.629 11.565C189.879 12.1717 190.81 12.9942 191.422 14.0326L188.891 15.415C188.679 14.995 188.353 14.6276 187.916 14.3126C187.479 13.9859 186.979 13.7292 186.416 13.5426C185.853 13.3559 185.279 13.2567 184.691 13.245C183.966 13.2217 183.284 13.3092 182.648 13.5076C182.022 13.7059 181.517 14.0092 181.129 14.4174C180.753 14.8142 180.566 15.31 180.566 15.905C180.566 16.4883 180.766 16.9317 181.166 17.235C181.579 17.5383 182.11 17.7833 182.76 17.97C183.422 18.145 184.141 18.3492 184.916 18.5826C186.053 18.9209 187.116 19.3117 188.103 19.755C189.091 20.1983 189.884 20.7526 190.484 21.4176C191.098 22.0826 191.398 22.905 191.384 23.885C191.384 24.9583 191.041 25.8976 190.353 26.7026C189.666 27.4959 188.772 28.1024 187.672 28.5224C186.584 28.9426 185.416 29.1291 184.166 29.0824Z" fill="#1E1983"/>
</g>
<defs>
<linearGradient id="paint0_linear_2911_90" x1="20.9412" y1="0" x2="20.9412" y2="40" gradientUnits="userSpaceOnUse">
<stop stop-color="#3558EA"/>
<stop offset="1" stop-color="#0000FF"/>
</linearGradient>
<linearGradient id="paint1_linear_2911_90" x1="26.2626" y1="5.81048" x2="8.64439" y2="58.3054" gradientUnits="userSpaceOnUse">
<stop offset="0.215628" stop-color="#1E1983" stop-opacity="0"/>
<stop offset="0.447191" stop-color="#1E1983" stop-opacity="0.19"/>
<stop offset="0.619792" stop-color="#1E1983"/>
</linearGradient>
<clipPath id="clip0_2911_90">
<rect width="191.111" height="40" fill="white" transform="translate(0.941162)"/>
</clipPath>
</defs>
</svg>
