<svg width="192" height="40" viewBox="0 0 192 40" fill="none" xmlns="http://www.w3.org/2000/svg">
<path d="M40 20C40 8.9543 31.0457 0 20 0C8.9543 0 0 8.9543 0 20C0 31.0457 8.9543 40 20 40C31.0457 40 40 31.0457 40 20Z" fill="url(#paint0_linear_3031_61)"/>
<path d="M40 20C40 8.9543 31.0457 0 20 0C8.9543 0 0 8.9543 0 20C0 31.0457 8.9543 40 20 40C31.0457 40 40 31.0457 40 20Z" fill="url(#paint1_linear_3031_61)" fill-opacity="0.1"/>
<path d="M20.3183 7.5C23.4854 7.5 26.4752 8.67012 28.7889 10.8034C28.9171 10.9217 28.9184 11.1226 28.7951 11.2459L23.8979 16.1431C23.7793 16.2618 23.5888 16.2647 23.459 16.1583C22.5746 15.4342 21.4771 15.041 20.3203 15.041C17.582 15.0391 15.3554 17.2657 15.3554 20H7.8125C7.8125 13.1074 13.4238 7.5 20.3183 7.5Z" fill="white"/>
<path d="M15.3554 20C15.3554 22.5663 17.3163 24.6846 19.8194 24.936C19.9863 24.9528 20.1191 25.0896 20.1191 25.2573V32.1826C20.1191 32.357 19.9753 32.4981 19.8009 32.491C13.1438 32.2182 7.8125 26.7194 7.8125 20H15.3554Z" fill="white"/>
<path opacity="0.56" d="M27.7498 20.9921H24.8006C24.6279 20.9921 24.488 21.1321 24.488 21.3047V24.2519C24.488 24.4246 24.6279 24.5645 24.8006 24.5645H27.7498C27.9224 24.5645 28.0623 24.4246 28.0623 24.2519V21.3047C28.0623 21.1321 27.9224 20.9921 27.7498 20.9921Z" fill="white"/>
<path opacity="0.4" d="M31.7182 20.9921H28.769C28.5964 20.9921 28.4565 21.1321 28.4565 21.3047V24.2519C28.4565 24.4246 28.5964 24.5645 28.769 24.5645H31.7182C31.8908 24.5645 32.0308 24.4246 32.0308 24.2519V21.3047C32.0308 21.1321 31.8908 20.9921 31.7182 20.9921Z" fill="white"/>
<path opacity="0.72" d="M27.7498 24.9611H24.8006C24.6279 24.9611 24.488 25.101 24.488 25.2736V28.2209C24.488 28.3935 24.6279 28.5333 24.8006 28.5333H27.7498C27.9224 28.5333 28.0623 28.3935 28.0623 28.2209V25.2736C28.0623 25.101 27.9224 24.9611 27.7498 24.9611Z" fill="white"/>
<path opacity="0.88" d="M23.7797 24.9611H20.8305C20.658 24.9611 20.5181 25.101 20.5181 25.2736V28.2209C20.5181 28.3935 20.658 28.5333 20.8305 28.5333H23.7797C23.9524 28.5333 24.0923 28.3935 24.0923 28.2209V25.2736C24.0923 25.101 23.9524 24.9611 23.7797 24.9611Z" fill="white"/>
<path opacity="0.56" d="M31.7182 24.9611H28.769C28.5964 24.9611 28.4565 25.101 28.4565 25.2736V28.2209C28.4565 28.3935 28.5964 28.5333 28.769 28.5333H31.7182C31.8908 28.5333 32.0308 28.3935 32.0308 28.2209V25.2736C32.0308 25.101 31.8908 24.9611 31.7182 24.9611Z" fill="white"/>
<path opacity="0.88" d="M27.7498 28.9276H24.8006C24.6279 28.9276 24.488 29.0674 24.488 29.24V32.1873C24.488 32.3599 24.6279 32.4998 24.8006 32.4998H27.7498C27.9224 32.4998 28.0623 32.3599 28.0623 32.1873V29.24C28.0623 29.0674 27.9224 28.9276 27.7498 28.9276Z" fill="white"/>
<path opacity="0.96" d="M23.7797 28.9276H20.8305C20.658 28.9276 20.5181 29.0674 20.5181 29.24V32.1873C20.5181 32.3599 20.658 32.4998 20.8305 32.4998H23.7797C23.9524 32.4998 24.0923 32.3599 24.0923 32.1873V29.24C24.0923 29.0674 23.9524 28.9276 23.7797 28.9276Z" fill="white"/>
<path opacity="0.72" d="M31.7182 28.9276H28.769C28.5964 28.9276 28.4565 29.0674 28.4565 29.24V32.1873C28.4565 32.3599 28.5964 32.4998 28.769 32.4998H31.7182C31.8908 32.4998 32.0308 32.3599 32.0308 32.1873V29.24C32.0308 29.0674 31.8908 28.9276 31.7182 28.9276Z" fill="white"/>
<path d="M63.2688 11.25H66.4188V29.31C66.4188 30.465 66.15 31.5384 65.6124 32.53C65.0874 33.5334 64.375 34.4025 63.475 35.1376C62.575 35.8841 61.55 36.4617 60.4 36.87C59.25 37.29 58.05 37.5 56.8 37.5C55.5 37.5 54.2438 37.2259 53.0312 36.6776C51.8188 36.1409 50.7562 35.4175 49.8438 34.5075C48.9438 33.6091 48.2938 32.6 47.8938 31.48L50.7812 30.255C51.0188 31.06 51.4438 31.7834 52.0562 32.425C52.6812 33.0784 53.4062 33.5917 54.2312 33.965C55.0688 34.35 55.925 34.5425 56.8 34.5425C57.625 34.5425 58.4188 34.4084 59.1812 34.14C59.9562 33.8717 60.65 33.4984 61.2624 33.02C61.8874 32.5534 62.375 31.9992 62.725 31.3576C63.0874 30.7276 63.2688 30.045 63.2688 29.31V25.8275C62.6312 26.8308 61.7874 27.6475 60.7374 28.2775C59.7 28.8959 58.4874 29.205 57.1 29.205C55.775 29.205 54.5312 28.9659 53.3688 28.4876C52.2062 28.0092 51.1874 27.35 50.3124 26.51C49.4374 25.6584 48.75 24.6784 48.25 23.57C47.75 22.4617 47.5 21.2717 47.5 20C47.5 18.7284 47.75 17.5384 48.25 16.43C48.75 15.31 49.4374 14.33 50.3124 13.49C51.1874 12.6384 52.2062 11.9734 53.3688 11.495C54.5312 11.0167 55.775 10.7775 57.1 10.7775C58.4874 10.7775 59.7 11.0867 60.7374 11.705C61.7874 12.3234 62.6312 13.14 63.2688 14.155V11.25ZM57.1188 26.3526C58.3312 26.3526 59.3812 26.0609 60.2688 25.4776C61.1688 24.8942 61.8624 24.1184 62.35 23.15C62.8374 22.1817 63.0812 21.1317 63.0812 20C63.0812 18.8334 62.8312 17.7717 62.3312 16.815C61.8438 15.8467 61.15 15.0767 60.25 14.505C59.3624 13.9217 58.3188 13.63 57.1188 13.63C55.9438 13.63 54.8688 13.9159 53.8938 14.4876C52.9188 15.0592 52.1438 15.8292 51.5688 16.7976C51.0062 17.7542 50.725 18.8217 50.725 20C50.725 21.1784 51.0124 22.2517 51.5876 23.22C52.175 24.1767 52.95 24.9409 53.9124 25.5126C54.8874 26.0726 55.9562 26.3526 57.1188 26.3526Z" fill="white"/>
<path d="M69.4272 28.75V11.25H72.5772V13.4376C73.2398 12.6209 74.0772 11.9733 75.0898 11.495C76.1022 11.005 77.2022 10.76 78.3898 10.76C79.1148 10.76 79.8148 10.8475 80.4898 11.0225L79.2148 13.9626C78.7022 13.8109 78.2022 13.735 77.7148 13.735C76.7772 13.735 75.9148 13.9509 75.1272 14.3826C74.3522 14.8026 73.7335 15.3742 73.271 16.0976C72.8085 16.8209 72.5772 17.6259 72.5772 18.5126V28.75H69.4272Z" fill="white"/>
<path d="M95.4168 11.25H98.5668V28.75H95.4168L95.2856 25.7926C94.698 26.8076 93.8856 27.63 92.848 28.26C91.823 28.89 90.598 29.205 89.173 29.205C87.798 29.205 86.5106 28.9659 85.3106 28.4876C84.1106 27.9976 83.048 27.3267 82.123 26.475C81.2106 25.6117 80.498 24.62 79.9856 23.5C79.473 22.38 79.2168 21.1726 79.2168 19.8776C79.2168 18.6292 79.4668 17.4509 79.9668 16.3426C80.4668 15.2342 81.1606 14.2659 82.048 13.4376C82.948 12.5976 83.9856 11.9442 85.1606 11.4776C86.3356 10.9992 87.598 10.76 88.948 10.76C90.423 10.76 91.7168 11.0867 92.8294 11.74C93.9418 12.3817 94.8418 13.2159 95.5294 14.2426L95.4168 11.25ZM89.1168 26.3526C90.3544 26.3526 91.423 26.0726 92.323 25.5126C93.2356 24.9409 93.9356 24.1709 94.423 23.2026C94.923 22.2342 95.173 21.1667 95.173 20C95.173 18.81 94.923 17.7367 94.423 16.78C93.923 15.8117 93.2168 15.0476 92.3044 14.4876C91.4044 13.9159 90.3418 13.63 89.1168 13.63C87.8794 13.63 86.7544 13.9159 85.7418 14.4876C84.7294 15.0592 83.923 15.8292 83.323 16.7976C82.7356 17.7542 82.4418 18.8217 82.4418 20C82.4418 21.1783 82.748 22.2517 83.3606 23.22C83.973 24.1767 84.7856 24.9409 85.798 25.5126C86.8106 26.0726 87.9168 26.3526 89.1168 26.3526Z" fill="white"/>
<path d="M113.072 11.25H116.41L106.154 37.5H102.816L106.21 28.75L99.4785 11.25H102.929L107.785 24.7074L113.072 11.25Z" fill="white"/>
<path d="M132.342 11.25H135.492V29.31C135.492 30.465 135.223 31.5384 134.685 32.53C134.161 33.5334 133.448 34.4025 132.548 35.1376C131.648 35.8841 130.623 36.4617 129.473 36.87C128.323 37.29 127.123 37.5 125.873 37.5C124.573 37.5 123.317 37.2259 122.104 36.6776C120.892 36.1409 119.83 35.4175 118.917 34.5075C118.017 33.6091 117.367 32.6 116.967 31.48L119.854 30.255C120.092 31.06 120.517 31.7834 121.13 32.425C121.754 33.0784 122.48 33.5917 123.304 33.965C124.142 34.35 124.998 34.5425 125.873 34.5425C126.698 34.5425 127.492 34.4084 128.254 34.14C129.03 33.8717 129.723 33.4984 130.335 33.02C130.961 32.5534 131.448 31.9992 131.798 31.3576C132.161 30.7276 132.342 30.045 132.342 29.31V25.8275C131.704 26.8308 130.861 27.6475 129.811 28.2775C128.773 28.8959 127.561 29.205 126.173 29.205C124.848 29.205 123.604 28.9659 122.442 28.4876C121.28 28.0092 120.261 27.35 119.385 26.51C118.511 25.6584 117.823 24.6784 117.323 23.57C116.823 22.4617 116.573 21.2717 116.573 20C116.573 18.7284 116.823 17.5384 117.323 16.43C117.823 15.31 118.511 14.33 119.385 13.49C120.261 12.6384 121.28 11.9734 122.442 11.495C123.604 11.0167 124.848 10.7775 126.173 10.7775C127.561 10.7775 128.773 11.0867 129.811 11.705C130.861 12.3234 131.704 13.14 132.342 14.155V11.25ZM126.192 26.3526C127.404 26.3526 128.454 26.0609 129.342 25.4776C130.242 24.8942 130.935 24.1184 131.423 23.15C131.911 22.1817 132.154 21.1317 132.154 20C132.154 18.8334 131.904 17.7717 131.404 16.815C130.917 15.8467 130.223 15.0767 129.323 14.505C128.435 13.9217 127.392 13.63 126.192 13.63C125.017 13.63 123.942 13.9159 122.967 14.4876C121.992 15.0592 121.217 15.8292 120.642 16.7976C120.08 17.7542 119.798 18.8217 119.798 20C119.798 21.1784 120.085 22.2517 120.661 23.22C121.248 24.1767 122.023 24.9409 122.985 25.5126C123.961 26.0726 125.03 26.3526 126.192 26.3526Z" fill="white"/>
<path d="M138.5 28.75V11.25H141.65V13.4376C142.313 12.6209 143.15 11.9733 144.163 11.495C145.176 11.005 146.276 10.76 147.463 10.76C148.188 10.76 148.888 10.8475 149.563 11.0225L148.288 13.9626C147.776 13.8109 147.276 13.735 146.788 13.735C145.85 13.735 144.988 13.9509 144.2 14.3826C143.426 14.8026 142.807 15.3742 142.344 16.0976C141.882 16.8209 141.65 17.6259 141.65 18.5126V28.75H138.5Z" fill="white"/>
<path d="M150.367 11.25H153.517V28.75H150.367V11.25ZM151.98 8.39752C151.48 8.39752 151.061 8.24586 150.723 7.94252C150.385 7.63919 150.217 7.26002 150.217 6.80502C150.217 6.35002 150.385 5.97086 150.723 5.66752C151.061 5.36419 151.473 5.21252 151.961 5.21252C152.449 5.21252 152.861 5.36419 153.199 5.66752C153.535 5.97086 153.704 6.35002 153.704 6.80502C153.704 7.26002 153.535 7.63919 153.199 7.94252C152.873 8.24586 152.467 8.39752 151.98 8.39752Z" fill="white"/>
<path d="M171.359 2.5H174.509V28.75H171.359V25.775C170.721 26.8017 169.864 27.63 168.79 28.26C167.714 28.89 166.452 29.205 165.002 29.205C163.64 29.205 162.364 28.9659 161.177 28.4876C159.99 28.0092 158.94 27.35 158.027 26.51C157.127 25.6583 156.421 24.6783 155.909 23.57C155.395 22.4617 155.14 21.2717 155.14 20C155.14 18.7283 155.395 17.5383 155.909 16.43C156.421 15.31 157.127 14.33 158.027 13.49C158.94 12.6383 159.99 11.9733 161.177 11.495C162.364 11.0167 163.64 10.7775 165.002 10.7775C166.452 10.7775 167.714 11.0925 168.79 11.7226C169.864 12.3526 170.721 13.1809 171.359 14.2076V2.5ZM165.04 26.3526C166.277 26.3526 167.345 26.0726 168.245 25.5126C169.159 24.9409 169.859 24.1709 170.345 23.2026C170.845 22.2342 171.095 21.1667 171.095 20C171.095 18.81 170.845 17.7367 170.345 16.78C169.845 15.8117 169.14 15.0476 168.227 14.4876C167.327 13.9159 166.264 13.63 165.04 13.63C163.802 13.63 162.677 13.9159 161.664 14.4876C160.664 15.0592 159.864 15.8292 159.264 16.7976C158.664 17.7542 158.364 18.8217 158.364 20C158.364 21.1783 158.671 22.2517 159.283 23.22C159.895 24.1767 160.709 24.9409 161.721 25.5126C162.733 26.0726 163.84 26.3526 165.04 26.3526Z" fill="white"/>
<path d="M183.226 29.0825C182.212 29.0475 181.226 28.8726 180.262 28.5575C179.312 28.2309 178.476 27.7934 177.75 27.245C177.038 26.685 176.519 26.0434 176.193 25.32L178.893 24.235C179.081 24.6317 179.419 25.005 179.907 25.355C180.393 25.705 180.957 25.985 181.593 26.195C182.231 26.405 182.876 26.51 183.526 26.51C184.212 26.51 184.857 26.4109 185.457 26.2126C186.057 26.0143 186.543 25.7226 186.919 25.3376C187.307 24.9409 187.5 24.4684 187.5 23.92C187.5 23.3367 187.288 22.8817 186.862 22.555C186.45 22.2167 185.926 21.9541 185.288 21.7675C184.662 21.5693 184.026 21.3825 183.376 21.2076C182.088 20.9041 180.938 20.5426 179.926 20.1226C178.912 19.6909 178.112 19.1484 177.526 18.495C176.95 17.83 176.662 16.9843 176.662 15.9576C176.662 14.8726 176.981 13.9334 177.619 13.14C178.269 12.3467 179.119 11.7343 180.169 11.3026C181.219 10.8709 182.343 10.655 183.543 10.655C185.057 10.655 186.438 10.9584 187.688 11.565C188.938 12.1717 189.869 12.9943 190.481 14.0326L187.95 15.415C187.738 14.995 187.412 14.6276 186.976 14.3126C186.538 13.9859 186.038 13.7293 185.476 13.5426C184.912 13.3559 184.338 13.2567 183.75 13.245C183.026 13.2217 182.343 13.3093 181.707 13.5076C181.081 13.7059 180.576 14.0093 180.188 14.4175C179.812 14.8143 179.626 15.31 179.626 15.905C179.626 16.4884 179.826 16.9317 180.226 17.235C180.638 17.5384 181.169 17.7834 181.819 17.97C182.481 18.145 183.2 18.3493 183.976 18.5826C185.112 18.9209 186.176 19.3117 187.162 19.755C188.15 20.1984 188.943 20.7526 189.543 21.4176C190.157 22.0826 190.457 22.905 190.443 23.885C190.443 24.9584 190.1 25.8976 189.412 26.7026C188.726 27.4959 187.831 28.1025 186.731 28.5225C185.643 28.9426 184.476 29.1291 183.226 29.0825Z" fill="white"/>
<defs>
<linearGradient id="paint0_linear_3031_61" x1="20" y1="0" x2="20" y2="40" gradientUnits="userSpaceOnUse">
<stop stop-color="white" stop-opacity="0.1"/>
<stop offset="1" stop-color="white" stop-opacity="0.1"/>
</linearGradient>
<linearGradient id="paint1_linear_3031_61" x1="25.3214" y1="5.81048" x2="7.70323" y2="58.3054" gradientUnits="userSpaceOnUse">
<stop offset="0.215628" stop-color="white" stop-opacity="0"/>
<stop offset="0.447191" stop-color="white" stop-opacity="0.19"/>
<stop offset="0.619792" stop-color="white"/>
</linearGradient>
</defs>
</svg>
