<svg fill="none" height="47" viewBox="0 0 200 47" width="200" xmlns="http://www.w3.org/2000/svg"><g fill="#fff"><path d="m75.5301 31.8596h-3.2381v-17.7264h6.6499c.8031-.0121 1.5992.1525 2.3316.4823.6734.3052 1.2798.7407 1.7845 1.2812.4926.5265.8825 1.1404 1.1496 1.8104.4673 1.1481.5392 2.4192.204 3.6127-.137.4926-.3433.963-.6124 1.3977-.574.9186-1.3919 1.6594-2.3623 2.1394.8657 1.1811 1.7266 2.3506 2.5828 3.5085.8561 1.1579 1.7218 2.3227 2.5971 3.4942h-2.544c-.2088-.0049-.4156-.0429-.6126-.1123-.2555-.0842-.4987-.2025-.7227-.3516-.2783-.1798-.5393-.3851-.7799-.613-.2926-.2866-.5553-.6023-.7841-.942l-3.2259-4.3544h-2.4175zm3.5118-9.6366c.3095-.0018.6147-.0716.8943-.2043.2803-.1271.5329-.3084.7432-.5334.2124-.2248.3818-.4865.5003-.7723.1222-.2869.1854-.5955.1857-.9074.0003-.3172-.0628-.6311-.1857-.9236-.1195-.2852-.2889-.5468-.5003-.7723-.2109-.2238-.4633-.4043-.7432-.5313-.2792-.1337-.5847-.2036-.8943-.2044h-3.5118v4.8367z"/><path d="m95.2659 14.1326h2.9357l7.7534 17.7268h-2.019c-.446.004-.884-.1201-1.262-.3575-.378-.237-.676-.5825-.855-.9911l-1.054-2.399h-8.0626l-1.0393 2.399c-.0851.1997-.2026.384-.3478.5456-.1487.1643-.3194.3073-.5073.425-.1903.1213-.397.2149-.6137.2779-.2146.0665-.4381.1002-.6629.1001h-2.0192zm-1.1273 10.724h5.1903l-2.3159-5.3681c-.0987-.2176-.1715-.446-.2168-.6805-.0369-.2044-.0614-.3638-.0696-.47-.0151.16-.0397.319-.0736.4761-.0459.2309-.1145.4568-.2046.6744z"/><path d="m115.276 31.8596h-3.257v-7.5095c.004-.2458-.055-.4886-.172-.7048-.139-.2433-.292-.4786-.458-.705l-6.508-8.807h2.487c.499-.0107.993.0994 1.441.3208.418.2155.774.5349 1.034.9277l3.5 4.7386c.103.1373.179.2925.225.4576.041.1554.063.2555.071.2964.016-.0984.039-.1954.07-.2902.049-.1688.131-.3264.241-.4638l3.488-4.7263c.254-.4022.611-.729 1.034-.9462.449-.2173.943-.3252 1.441-.3146h2.516l-6.525 8.8192c-.098.1329-.186.2533-.258.3658-.074.1052-.142.2144-.204.327-.057.1059-.1.2184-.129.3351-.03.1208-.045.2451-.043.3697z"/><path d="m140.335 23.3506v6.8103c-.401.3693-.854.6796-1.343.9214-.501.2468-1.027.4415-1.569.581-.568.1446-1.147.2434-1.732.2955-.596.0531-1.203.0796-1.815.0796-1.221.0086-2.429-.2336-3.55-.7114-1.082-.457-2.067-1.1143-2.9-1.9365-.831-.8228-1.495-1.7967-1.954-2.8681-.472-1.1157-.715-2.3134-.715-3.5234 0-1.2099.243-2.4077.715-3.5234.462-1.075 1.128-2.0515 1.962-2.8762.835-.8217 1.818-1.4788 2.9-1.9365 2.246-.933 4.773-.9462 7.029-.0367 1.063.44 2.031 1.074 2.857 1.8693l-.123.1121c-.146.1461-.317.265-.504.3505-.192.0799-.398.1195-.605.1162-.286.002-.565-.0843-.798-.2466-.617-.4199-1.291-.7501-2.003-.9805-.744-.2374-1.522-.3558-2.303-.3506-.68-.0026-1.356.0864-2.012.265-.632.171-1.239.426-1.803.7583-.558.3267-1.074.7203-1.534 1.1721-.46.4527-.857.9632-1.183 1.5186-.33.5643-.587 1.1677-.765 1.7958-.185.648-.276 1.3184-.274 1.9916-.002.6743.092 1.3456.28 1.9935.368 1.2577 1.058 2.3992 2.005 3.3125.47.4538.994.8482 1.561 1.1741.577.331 1.196.5859 1.839.7583.658.1781 1.338.2673 2.022.265.845.0028 1.688-.1111 2.502-.3384.809-.229 1.58-.5723 2.291-1.0192v-4.2522h-1.582c-.203.0036-.404-.0346-.591-.1122-.189-.0774-.357-.1927-.498-.3382-.129-.1381-.23-.2993-.299-.4749-.07-.1816-.105-.3744-.105-.5687v-.049z"/><path d="m147.095 31.8596h-1.567v-17.7269h6.291c.676-.0053 1.346.1269 1.969.3883.596.2516 1.138.6129 1.596 1.0646.459.4525.825.9882 1.079 1.5776.265.6093.399 1.266.395 1.9289.001.6036-.106 1.2026-.315 1.7697-.2.5548-.492 1.0732-.863 1.5346-.368.4524-.818.8323-1.329 1.1198-.52.2932-1.096.4762-1.692.5375l5.94 7.8059h-.739c-.859 0-1.497-.3147-1.904-.9379l-5.228-6.868h-3.633zm0-16.182v6.8292h4.724c.462.0029.922-.0874 1.347-.2657.413-.1716.787-.42 1.104-.7315.316-.3127.568-.6816.745-1.0871.185-.4197.279-.8728.276-1.3304.003-.4548-.091-.9053-.276-1.3221-.358-.8176-1.019-1.4691-1.849-1.8206-.424-.1821-.884-.2747-1.347-.2718z"/><path d="m164.15 31.8595h-1.432v-17.7269h1.432z"/><path d="m170.238 31.8594v-17.7268h6.522c1.572-.0062 3.117.4125 4.47 1.2118 1.315.7757 2.412 1.8717 3.189 3.1857.797 1.3554 1.218 2.8994 1.218 4.4721 0 1.5725-.421 3.1166-1.218 4.4721-.388.6537-.855 1.2565-1.392 1.794-1.084 1.0845-2.432 1.8683-3.91 2.2745-.767.2134-1.56.32-2.357.3166zm6.522-1.5469c.983.0079 1.957-.1875 2.862-.5742.866-.3705 1.656-.9016 2.326-1.5652.669-.6663 1.203-1.456 1.572-2.3255.379-.9008.574-1.8682.574-2.8454 0-.9774-.195-1.9448-.574-2.8455-.37-.8708-.904-1.6624-1.572-2.3316-.669-.6662-1.459-1.1994-2.326-1.5714-.905-.3873-1.878-.5835-2.862-.5763h-4.975v14.6351z"/><path d="m196.863 16.4735c-.191-.1306-.36-.255-.503-.3693-.3-.2396-.65-.4085-1.025-.4937-.27-.0548-.545-.0794-.821-.0734-.465-.0027-.929.079-1.365.2407-.413.1513-.798.3706-1.137.6488-.319.2626-.583.5859-.775.9507-.188.3538-.287.7483-.286 1.1486-.011.3868.049.7725.182 1.1364.131.3106.344.5809.615.7835.345.2614.725.4736 1.13.6305.467.1931 1.045.4093 1.732.6487.366.1361.707.2598 1.026.3714.314.1142.616.2326.894.3508.27.1133.533.2407.789.3815.244.1375.479.2924.701.4632.559.415.987.9817 1.23 1.6322.242.6785.362 1.3939.353 2.1136.012.7217-.146 1.4363-.459 2.0872-.297.6064-.72 1.1433-1.241 1.575-.541.4436-1.163.7808-1.832.9936-.726.2355-1.486.3519-2.25.3448-1.548 0-2.851-.457-3.912-1.3711-.266-.2411-.512-.5031-.738-.7833-.179-.226-.343-.4639-.49-.7121l.185-.1102c.236-.1448.506-.2258.783-.2346.193-.0009.385.0259.571.0795.183.055.351.1554.486.2918.284.2696.594.5115.924.7223.246.1528.508.2773.782.3713.23.0746.467.1218.708.1408.226.0163.46.0285.701.0367.505.0159 1.008-.0404 1.495-.1673.486-.1181.946-.3258 1.354-.6121.403-.2842.739-.6534.982-1.0813.264-.4796.396-1.0203.381-1.5668.023-.5593-.078-1.1168-.298-1.6322-.187-.3932-.47-.7343-.821-.9936-.383-.2715-.804-.486-1.249-.6365-.48-.17-.998-.3619-1.552-.5754-.704-.2795-1.346-.5407-1.925-.7773-.531-.212-1.03-.497-1.482-.8468-.409-.3221-.737-.7341-.958-1.2037-.249-.5852-.364-1.2177-.341-1.8524-.008-.6542.15-1.3.459-1.877.299-.5515.701-1.0406 1.186-1.4405.489-.4007 1.045-.7142 1.641-.9261.587-.2131 1.207-.3235 1.831-.3265.483-.0061.963.0627 1.424.204.408.127.799.301 1.165.5182.344.2029.665.4408.958.71.285.2639.548.5237.788.7794l-.386.2713c-.104.0758-.218.1362-.34.1795-.152.0484-.31.0712-.468.0674-.282.0099-.562-.0632-.802-.2102z"/><path d="m67.0338 22.3796v7.4305c-.4312.4319-.9207.8021-1.4546 1.0997-.5204.2896-1.0717.5206-1.6436.689-.583.1701-1.1807.2858-1.7853.3455-.6218.0631-1.2465.0945-1.8715.0939-1.2167.0097-2.4222-.2298-3.542-.7031-1.0801-.4582-2.0642-1.1141-2.9008-1.9339-.8319-.8235-1.4965-1.7985-1.9579-2.8719-.4804-1.1145-.7239-2.3157-.715-3.5283-.0092-1.6048.4166-3.1824 1.2326-4.5666.3997-.6711.883-1.2892 1.4382-1.8398 1.1177-1.1073 2.5052-1.9067 4.0267-2.3201.7883-.2162 1.6026-.3241 2.4201-.3209.6571-.0011 1.312.0737 1.9518.2227.6379.1476 1.2579.3635 1.8491.6439.5946.2871 1.1608.6293 1.6908 1.0221.5417.3992 1.0458.8466 1.5059 1.337l-.7479.7543c-.2117.2308-.4712.4134-.7606.5352-.2894.1217-.6017.1796-.9158.17-.4543.0037-.8983-.1343-1.2697-.3945-.4733-.3239-.9908-.5785-1.5367-.7564-.5679-.1832-1.1616-.2749-1.7586-.2719-.7769-.0028-1.546.153-2.2599.4579-1.4052.5841-2.5302 1.6844-3.1413 3.0723-.3115.709-.4703 1.4749-.4664 2.2486-.0061.7871.1593 1.5661.4849 2.2834.4798 1.0504 1.2533 1.9411 2.2283 2.5656.9749.6245 2.1099.9566 3.2694.9565.3955-.0093.79-.0428 1.1814-.1001.3694-.0552.7351-.1332 1.095-.2332.3762-.1032.7363-.2573 1.0703-.4577v-2.4919l-1.0272-.0184c-.3083.0012-.6133-.0644-.8937-.1922-.2737-.133-.4949-.3531-.6286-.6255-.1817-.4098-.2628-.8569-.2363-1.3041v-.9916z"/><path d="m43.8741 25.8933c1.4566-11.3871-6.5935-21.79903-17.9808-23.25573-11.387-1.45671-21.79902 6.59349-23.25573 17.98063-1.4567 11.3871 6.5935 21.7991 17.98063 23.2558 11.3871 1.4567 21.7991-6.5935 23.2559-17.9807z"/></g><path d="m24.0262 22.9287v1.9926h4.3634v3.3328h-4.3327v-.0118c-.1158 0-.2364.0118-.3522.0118-.6436.0018-1.2811-.1261-1.8744-.3758-.8621-.3646-1.6009-.9703-2.1273-1.7444-.6466-.9581-.9267-2.1169-.7893-3.2645.1375-1.1476.6834-2.2075 1.5379-2.9857.8546-.7782 1.9607-1.2229 3.1162-1.2528 1.1555-.0298 2.283.3572 3.1766 1.0903h8.5092c-.1087-.3403-.2363-.676-.371-1.0022-.8535-2.0218-2.2392-3.7744-4.0096-5.0713-1.7703-1.2968-3.8593-2.0894-6.0443-2.2934-2.1851-.204-4.3846.1883-6.3644 1.1351-1.9799.9467-3.666 2.4125-4.8789 4.2415-1.2129 1.8288-1.9074 3.9524-2.0093 6.1446s.3924 4.3711 1.4304 6.3046c1.0379 1.9336 2.5807 3.5495 4.4642 4.6759 1.8835 1.1265 4.0371 1.7212 6.2316 1.7208h12.0548v-12.6528zm4.3634 10.6366h-4.0183c-.1513 0-.3073.0165-.4728.019h-.3498c-1.7422-.0245-3.4487-.4973-4.955-1.3728-1.5064-.8756-2.7617-2.1245-3.6452-3.6262-.8834-1.5017-1.365-3.2058-1.3985-4.9478s.3823-3.4632 1.2075-4.9978c.825-1.5346 2.0315-2.8308 3.5031-3.7636 1.4715-.9328 3.1586-1.4708 4.8985-1.5621 1.74-.0913 3.4741.2671 5.0352 1.0408 1.5612.7736 2.8967 1.9364 3.8778 3.3762h-4.6753c-.8892-.5737-1.8999-.9322-2.9519-1.0471s-2.1162.0171-3.1083.3855c-.9919.3683-1.8845.9629-2.6066 1.7364-.7222.7735-1.2539 1.7047-1.5534 2.7197-.2993 1.015-.3579 2.0858-.171 3.1275.1869 1.0415.614 2.0252 1.2473 2.8729.6335.8477 1.4558 1.536 2.4018 2.0104.9459.4743 1.9894.7217 3.0476.7223h4.6873zm5.3939.019h-3.3991l.019-.0119h-.019v-3.3092h3.3991zm0-5.3255h-3.3991v-3.3328h3.3991z" fill="#000"/><path d="m23.4375 22.2999v1.9926h4.3657v3.3327h-4.3373v-.0117c-.1158 0-.2364.0117-.3498.0117-.7892.0016-1.5665-.1919-2.2629-.563s-1.2904-.9085-1.7294-1.5642c-.4459-.6646-.72-1.4295-.7976-2.2261-.0775-.7966.0439-1.6.3532-2.3382.3642-.8632.9709-1.6022 1.7468-2.1273.6635-.4473 1.4282-.7223 2.2247-.7999.7965-.0775 1.5998.0447 2.3372.3555.4257.1789.8237.4177 1.1819.7092h8.5093c-.1112-.3405-.2364-.6761-.3712-1.0022-.8565-2.0184-2.2437-3.767-4.0143-5.0601-1.7705-1.2932-3.8583-2.0826-6.0415-2.2844-2.1831-.2018-4.3802.1915-6.3578 1.1382-1.9777.9466-3.6619 2.4113-4.8738 4.2384-1.2121 1.8271-1.9065 3.9482-2.0097 6.1383-.1031 2.1902.3888 4.3672 1.4237 6.3002 1.0349 1.9329 2.574 3.5493 4.4539 4.6776 1.8799 1.1284 4.0302 1.7265 6.2228 1.7308h12.0547v-12.6598zm4.3657 10.6366h-4.0182c-.1536 0-.3072.0165-.4727.0189h-.3428c-1.7428-.0219-3.4505-.4926-4.9585-1.3667-1.5079-.874-2.7652-2.1218-3.6505-3.6232s-1.3688-3.2055-1.4038-4.9482c-.035-1.7425.3797-3.4647 1.204-5.0004.8241-1.5357 2.0303-2.833 3.5019-3.767 1.4717-.9338 3.1591-1.4728 4.8997-1.5648 1.7405-.0918 3.4753.2663 5.0371 1.04 1.5618.7736 2.8979 1.9368 3.8794 3.3771h-4.6707c-.8886-.5782-1.8999-.9408-2.9535-1.059-1.0535-.1183-2.12.0112-3.1146.3781-.9947.3669-1.8899.9609-2.6143 1.735-.7246.774-1.2582 1.7064-1.5585 2.7231-.3004 1.0168-.3592 2.0896-.1717 3.1329.1876 1.0434.6162 2.0286 1.2518 2.8771s1.4606 1.5368 2.4092 2.0102c.9487.4732 1.9947.7183 3.0549.7159h4.6872zm5.394.0189h-3.399l.0165-.0118h-.0165v-3.3281h3.399zm0-5.3254h-3.399v-3.3328h3.399z" fill="#fff"/><path d="m27.8035 29.6179h1.9949v.9478h-1.9949z" fill="#999"/><path d="m26.189 24.2926h1.6143v.9478h1.9926v-.9478h1.4631v-.0024h-5.07z" fill="#999"/></svg>