<svg width="179" height="29" viewBox="0 0 179 29" fill="none" xmlns="http://www.w3.org/2000/svg">
<path d="M43.1454 2.23022H38.9407V26.2362H53.2048V22.3668H43.1454V2.23022Z" fill="white"/>
<path d="M58.0318 6.75993C59.3458 6.75993 60.4331 5.67258 60.4331 4.32209C60.4331 2.97189 59.3458 1.92969 58.0318 1.92969C56.6543 1.92969 55.5667 2.9808 55.5667 4.33129C55.5667 5.68149 56.6632 6.75993 58.0318 6.75993ZM56.038 26.244H60.0435V10.0041H56.038V26.244Z" fill="white"/>
<path d="M68.1975 26.2353V17.4994C68.1975 14.8712 69.7019 13.1587 72.1757 13.1587C74.2511 13.1587 75.5921 14.4726 75.5921 17.2003V26.2353H79.5979V16.2398C79.5979 12.0348 77.4954 9.50635 73.4171 9.50635C71.2151 9.50635 69.2486 10.458 68.2338 12.1072L67.8984 10.0047H64.1829V26.2445H68.1883L68.1975 26.2353Z" fill="white"/>
<path d="M90.7991 26.6705C95.0312 26.6705 97.9944 24.5409 98.6832 20.9792H94.9676C94.5055 22.5201 93.0647 23.3808 90.8534 23.3808C88.189 23.3808 86.6846 21.9308 86.3856 19.0762L98.6018 19.04V17.8256C98.6018 12.7598 95.5114 9.50635 90.6449 9.50635C85.7785 9.50635 82.5613 13.0226 82.5613 18.1157C82.5613 23.2085 85.9507 26.6615 90.781 26.6615L90.7991 26.6705ZM90.6993 12.8052C93.1009 12.8052 94.6415 14.2822 94.6415 16.5208H86.4943C86.8839 14.0919 88.3339 12.8052 90.6993 12.8052Z" fill="white"/>
<path d="M103.822 6.75993C105.136 6.75993 106.224 5.67258 106.224 4.32209C106.224 2.97189 105.136 1.92969 103.822 1.92969C102.445 1.92969 101.366 2.9808 101.366 4.33129C101.366 5.68149 102.436 6.75993 103.822 6.75993ZM101.81 26.244H105.816V10.0041H101.81V26.244Z" fill="white"/>
<path d="M109.017 18.0968C109.017 23.2532 112.234 26.6697 117.164 26.6697C121.396 26.6697 124.558 24.0688 125.048 20.2899H121.006C120.58 22.066 119.166 23.0539 117.164 23.0539C114.599 23.0539 113.022 21.1507 113.022 18.0968C113.022 15.0427 114.735 13.1032 117.29 13.1032C119.194 13.1032 120.544 14.0548 121.006 15.9037H125.012C124.586 11.9885 121.559 9.52368 117.127 9.52368C112.343 9.52368 109.017 13.0762 109.017 18.0968Z" fill="white"/>
<path d="M127.069 18.0971C127.069 23.1628 130.712 26.6429 135.751 26.6429C140.79 26.6429 144.424 23.1628 144.424 18.0971C144.424 13.031 140.78 9.55127 135.751 9.55127C130.73 9.55127 127.069 13.031 127.069 18.0971ZM131.084 18.0971C131.084 15.1335 132.987 13.14 135.751 13.14C138.515 13.14 140.418 15.1427 140.418 18.0971C140.418 21.0514 138.515 23.0541 135.751 23.0541C132.987 23.0541 131.084 21.0514 131.084 18.0971Z" fill="white"/>
<path d="M151.596 26.2353V17.4994C151.596 14.8712 153.101 13.1587 155.575 13.1587C157.65 13.1587 158.991 14.4726 158.991 17.2003V26.2353H162.997V16.2398C162.997 12.0348 160.895 9.50635 156.816 9.50635C154.614 9.50635 152.648 10.458 151.633 12.1072L151.297 10.0047H147.582V26.2445H151.588L151.596 26.2353Z" fill="white"/>
<path d="M178.903 21.35C178.903 24.6307 176.112 26.6789 172.106 26.6789C168.101 26.6789 165.509 24.5039 165.5 21.3318H169.297C169.324 22.7456 170.384 23.6336 172.215 23.6336C174.045 23.6336 175.106 22.8724 175.106 21.6945C175.106 20.8697 174.689 20.2807 173.239 19.9546L170.312 19.2566C167.394 18.6041 165.98 17.2177 165.98 14.6257C165.98 11.4358 168.662 9.52368 172.414 9.52368C176.166 9.52368 178.513 11.6354 178.549 14.789H174.743C174.725 13.4115 173.792 12.5235 172.251 12.5235C170.71 12.5235 169.759 13.2484 169.759 14.4537C169.759 15.378 170.493 15.9581 171.861 16.2934L174.789 16.9911C177.308 17.5619 178.685 18.6766 178.867 20.8153L178.885 21.3591L178.903 21.35Z" fill="white"/>
<path d="M23.5278 25.5726C24.579 24.5215 24.579 22.8087 23.5278 21.7573L5.20375 3.43336C4.15252 2.38224 2.43976 2.38224 1.38853 3.43336C0.337286 4.48447 0.337286 6.1884 1.38853 7.24872L19.7126 25.5726C20.7638 26.6238 22.4766 26.6238 23.5278 25.5726Z" fill="white"/>
<path d="M23.0372 12.044C24.0885 10.9926 24.0885 9.27972 23.0372 8.22861L15.6061 0.788552C14.5549 -0.262851 12.8421 -0.262851 11.7909 0.788552C10.7396 1.83967 10.7396 3.55251 11.7909 4.60362L19.231 12.044C20.2823 13.0951 21.9951 13.0951 23.0463 12.044H23.0372Z" fill="white"/>
<path d="M13.1383 28.2117C14.1896 27.1606 14.1896 25.4478 13.1383 24.3967L5.69815 16.9563C4.64692 15.9052 2.93414 15.9052 1.88291 16.9563C0.831675 18.0074 0.831675 19.7203 1.88291 20.7717L9.32308 28.2117C10.3743 29.2629 12.0871 29.2629 13.1383 28.2117Z" fill="white"/>
</svg>
