<svg width="246" height="40" viewBox="0 0 246 40" fill="none" xmlns="http://www.w3.org/2000/svg">
<g clip-path="url(#clip0_2911_30)">
<path d="M58.687 3.07386H52.8855V36.1935H72.5598V30.85H58.687V3.07386Z" fill="#1C2033"/>
<path d="M79.2164 9.32323C81.0281 9.32323 82.5243 7.82704 82.5243 5.96445C82.5243 4.10185 81.0281 2.66674 79.2164 2.66674C77.3131 2.66674 75.8169 4.12221 75.8169 5.97463C75.8169 7.82704 77.3233 9.32323 79.2164 9.32323ZM76.4683 36.1935H81.995V13.8016H76.4683V36.1935Z" fill="#1C2033"/>
<path d="M93.2316 36.1935V24.1426C93.2316 20.5192 95.3079 18.1578 98.7176 18.1578C101.578 18.1578 103.43 19.9695 103.43 23.7354V36.2036H108.957V22.4123C108.957 16.6108 106.056 13.1298 100.438 13.1298C97.4046 13.1298 94.687 14.4428 93.2824 16.7125L92.8244 13.8118H87.7048V36.2036H93.2316V36.1935Z" fill="#1C2033"/>
<path d="M124.407 36.7838C130.249 36.7838 134.331 33.8423 135.277 28.9365H130.158C129.516 31.0637 127.532 32.2443 124.488 32.2443C120.814 32.2443 118.738 30.2494 118.331 26.3105L135.186 26.2596V24.5904C135.186 17.6082 130.921 13.1197 124.214 13.1197C117.649 13.1197 113.069 17.9644 113.069 24.9975C113.069 31.9288 117.74 36.7838 124.407 36.7838ZM124.265 17.6591C127.572 17.6591 129.7 19.6947 129.7 22.7787H118.463C119.002 19.4301 120.997 17.6591 124.265 17.6591Z" fill="#1C2033"/>
<path d="M142.371 9.32323C144.183 9.32323 145.679 7.82704 145.679 5.96445C145.679 4.10185 144.183 2.66674 142.371 2.66674C140.468 2.66674 138.982 4.12221 138.982 5.97463C138.982 7.82704 140.458 9.32323 142.371 9.32323ZM139.603 36.1935H145.13V13.8016H139.603V36.1935Z" fill="#1C2033"/>
<path d="M149.537 24.9568C149.537 32.0713 153.975 36.7838 160.774 36.7838C166.616 36.7838 170.972 33.2011 171.644 27.9899H166.066C165.476 30.4428 163.532 31.7965 160.763 31.7965C157.232 31.7965 155.053 29.1705 155.053 24.9568C155.053 20.7431 157.415 18.0662 160.947 18.0662C163.572 18.0662 165.435 19.3792 166.066 21.9237H171.593C171.003 16.5293 166.829 13.1298 160.723 13.1298C154.117 13.1298 149.537 18.0255 149.537 24.9568Z" fill="#1C2033"/>
<path d="M174.443 24.9568C174.443 31.939 179.471 36.7431 186.412 36.7431C193.343 36.7431 198.382 31.9492 198.382 24.9568C198.382 17.9746 193.354 13.1705 186.412 13.1705C179.481 13.1807 174.443 17.9746 174.443 24.9568ZM179.98 24.9568C179.98 20.8754 182.605 18.1171 186.412 18.1171C190.219 18.1171 192.845 20.8856 192.845 24.9568C192.845 29.0281 190.219 31.7965 186.412 31.7965C182.605 31.8067 179.98 29.0382 179.98 24.9568Z" fill="#1C2033"/>
<path d="M208.275 36.1935V24.1426C208.275 20.5192 210.351 18.1578 213.761 18.1578C216.621 18.1578 218.473 19.9695 218.473 23.7354V36.2036H224V22.4123C224 16.6108 221.099 13.1298 215.481 13.1298C212.448 13.1298 209.73 14.4428 208.326 16.7125L207.868 13.8118H202.748V36.2036H208.275V36.1935Z" fill="#1C2033"/>
<path d="M245.934 29.4454C245.934 33.9746 242.087 36.794 236.56 36.794C230.982 36.794 227.461 33.7914 227.45 29.4148H232.692C232.733 31.3588 234.188 32.5904 236.723 32.5904C239.298 32.5904 240.713 31.542 240.713 29.9135C240.713 28.7736 240.132 27.9695 238.137 27.5115L234.097 26.5548C230.066 25.6489 228.122 23.7456 228.122 20.1629C228.122 15.766 231.827 13.1298 236.998 13.1298C242.026 13.1298 245.415 16.0408 245.466 20.3868H240.214C240.183 18.4835 238.901 17.2622 236.774 17.2622C234.606 17.2622 233.333 18.2596 233.333 19.9288C233.333 21.2011 234.341 22.0052 236.234 22.4632L240.275 23.4199C243.746 24.2036 245.649 25.7507 245.903 28.6922L245.934 29.4454Z" fill="#1C2033"/>
<path d="M31.6232 35.2699C33.0787 33.8145 33.0787 31.4633 31.6232 30.0078L6.35097 4.73557C4.8955 3.2801 2.54435 3.2801 1.08888 4.73557C-0.366588 6.19104 -0.366588 8.54218 1.08888 9.99765L26.3612 35.2699C27.8166 36.7254 30.1678 36.7254 31.6232 35.2699Z" fill="#6566FF"/>
<path d="M30.9514 16.6134C32.4068 15.1579 32.4068 12.8067 30.9514 11.3513L20.6918 1.09172C19.2364 -0.363749 16.8852 -0.363749 15.4297 1.09172C13.9743 2.54719 13.9743 4.89834 15.4297 6.35381L25.6893 16.6134C27.1447 18.0586 29.4959 18.0586 30.9514 16.6134Z" fill="#6566FF"/>
<path d="M17.2822 38.9138C18.7376 37.4583 18.7376 35.1071 17.2822 33.6517L7.02263 23.3921C5.56716 21.9367 3.21602 21.9367 1.76055 23.3921C0.305076 24.8476 0.305076 27.1987 1.76055 28.6542L12.0201 38.9138C13.4756 40.3692 15.8267 40.3692 17.2822 38.9138Z" fill="#6566FF"/>
</g>
<defs>
<clipPath id="clip0_2911_30">
<rect width="245.934" height="40" fill="white"/>
</clipPath>
</defs>
</svg>
