<svg width="246" height="40" viewBox="0 0 246 40" fill="none" xmlns="http://www.w3.org/2000/svg">
<path d="M58.6826 3.07343H52.8818V36.1887H72.5536V30.8459H58.6826V3.07343Z" fill="white"/>
<path d="M79.2086 9.32194C81.0201 9.32194 82.5161 7.82595 82.5161 5.9636C82.5161 4.10125 81.0201 2.66632 79.2086 2.66632C77.3056 2.66632 75.8096 4.1216 75.8096 5.97377C75.8096 7.82595 77.3157 9.32194 79.2086 9.32194ZM76.4609 36.1886H81.9869V13.7997H76.4609V36.1886Z" fill="white"/>
<path d="M93.2223 36.1888V24.1395C93.2223 20.5166 95.2983 18.1556 98.7076 18.1556C101.567 18.1556 103.419 19.967 103.419 23.7324V36.199H108.945V22.4095C108.945 16.6087 106.045 13.1282 100.427 13.1282C97.3948 13.1282 94.6776 14.441 93.2732 16.7105L92.8152 13.8101H87.6963V36.199H93.2223V36.1888Z" fill="white"/>
<path d="M124.395 36.7789C130.236 36.7789 134.317 33.8378 135.263 28.9326H130.144C129.503 31.0595 127.519 32.24 124.476 32.24C120.802 32.24 118.726 30.2454 118.319 26.307L135.172 26.2561V24.5871C135.172 17.6058 130.908 13.1179 124.201 13.1179C117.637 13.1179 113.058 17.962 113.058 24.9942C113.058 31.9245 117.729 36.7789 124.395 36.7789ZM124.252 17.6567C127.56 17.6567 129.686 19.6921 129.686 22.7756H118.451C118.991 19.4275 120.985 17.6567 124.252 17.6567Z" fill="white"/>
<path d="M142.357 9.32194C144.168 9.32194 145.664 7.82595 145.664 5.9636C145.664 4.10125 144.168 2.66632 142.357 2.66632C140.454 2.66632 138.968 4.1216 138.968 5.97377C138.968 7.82595 140.443 9.32194 142.357 9.32194ZM139.589 36.1886H145.115V13.7997H139.589V36.1886Z" fill="white"/>
<path d="M149.52 24.9537C149.52 32.0672 153.957 36.7791 160.755 36.7791C166.596 36.7791 170.952 33.1968 171.624 27.9863H166.047C165.457 30.4389 163.513 31.7924 160.745 31.7924C157.213 31.7924 155.036 29.1668 155.036 24.9537C155.036 20.7405 157.397 18.064 160.928 18.064C163.554 18.064 165.416 19.3768 166.047 21.921H171.573C170.983 16.5273 166.81 13.1282 160.704 13.1282C154.099 13.1282 149.52 18.0233 149.52 24.9537Z" fill="white"/>
<path d="M174.423 24.9534C174.423 31.9346 179.45 36.7381 186.391 36.7381C193.321 36.7381 198.359 31.9448 198.359 24.9534C198.359 17.9721 193.331 13.1686 186.391 13.1686C179.46 13.1788 174.423 17.9721 174.423 24.9534ZM179.959 24.9534C179.959 20.8725 182.585 18.1146 186.391 18.1146C190.197 18.1146 192.822 20.8826 192.822 24.9534C192.822 29.0241 190.197 31.7922 186.391 31.7922C182.585 31.8023 179.959 29.0342 179.959 24.9534Z" fill="white"/>
<path d="M208.25 36.1888V24.1395C208.25 20.5166 210.326 18.1556 213.735 18.1556C216.595 18.1556 218.447 19.967 218.447 23.7324V36.199H223.973V22.4095C223.973 16.6087 221.073 13.1282 215.455 13.1282C212.423 13.1282 209.705 14.441 208.301 16.7105L207.843 13.8101H202.724V36.199H208.25V36.1888Z" fill="white"/>
<path d="M245.906 29.4416C245.906 33.9703 242.059 36.7892 236.533 36.7892C230.956 36.7892 227.435 33.7871 227.425 29.4111H232.666C232.707 31.3548 234.162 32.5862 236.696 32.5862C239.271 32.5862 240.685 31.538 240.685 29.9097C240.685 28.7699 240.105 27.966 238.11 27.508L234.07 26.5514C230.04 25.6457 228.096 23.7426 228.096 20.1604C228.096 15.764 231.801 13.1282 236.971 13.1282C241.998 13.1282 245.387 16.0388 245.438 20.3843H240.186C240.156 18.4812 238.874 17.26 236.747 17.26C234.579 17.26 233.307 18.2573 233.307 19.9263C233.307 21.1984 234.314 22.0024 236.207 22.4603L240.248 23.417C243.718 24.2006 245.621 25.7474 245.875 28.6885L245.906 29.4416Z" fill="white"/>
<path d="M31.6219 35.2654C33.0772 33.8101 33.0772 31.4592 31.6219 30.004L6.35297 4.73501C4.89769 3.27973 2.54685 3.27973 1.09157 4.73501C-0.363709 6.19029 -0.363709 8.54113 1.09157 9.99641L26.3605 35.2654C27.8158 36.7206 30.1666 36.7206 31.6219 35.2654Z" fill="white"/>
<path d="M30.9513 16.6111C32.4065 15.1558 32.4065 12.8049 30.9513 11.3497L20.6931 1.09146C19.2378 -0.36382 16.8869 -0.36382 15.4317 1.09146C13.9764 2.54674 13.9764 4.89758 15.4317 6.35286L25.6899 16.6111C27.1451 18.0562 29.496 18.0562 30.9513 16.6111Z" fill="white"/>
<path d="M17.2833 38.9086C18.7386 37.4533 18.7386 35.1025 17.2833 33.6472L7.0251 23.389C5.56982 21.9337 3.21898 21.9337 1.7637 23.389C0.30842 24.8443 0.30842 27.1951 1.7637 28.6504L12.0219 38.9086C13.4772 40.3639 15.828 40.3639 17.2833 38.9086Z" fill="white"/>
</svg>
