<svg width="160" height="26" viewBox="0 0 160 26" fill="none" xmlns="http://www.w3.org/2000/svg">
<g clip-path="url(#clip0_2129_24)">
<mask id="mask0_2129_24" style="mask-type:luminance" maskUnits="userSpaceOnUse" x="0" y="0" width="160" height="27">
<path d="M160 0H0V26.0233H160V0Z" fill="white"/>
</mask>
<g mask="url(#mask0_2129_24)">
<path d="M38.1807 1.99976H34.4064V23.5468H47.2061V20.0704H38.1807V1.99976Z" fill="white"/>
<path d="M51.5367 6.06546C52.7153 6.06546 53.6888 5.09207 53.6888 3.88029C53.6888 2.66853 52.7153 1.73486 51.5367 1.73486C50.2985 1.73486 49.325 2.68176 49.325 3.88692C49.325 5.09207 50.3051 6.06546 51.5367 6.06546ZM49.7488 23.5467H53.3444V8.97897H49.7488V23.5467Z" fill="white"/>
<path d="M60.6548 23.5468V15.7067C60.6548 13.3494 62.0057 11.8131 64.2239 11.8131C66.0846 11.8131 67.2898 12.9918 67.2898 15.4418V23.5534H70.8854V14.581C70.8854 10.8066 68.9982 8.54199 65.343 8.54199C63.3697 8.54199 61.6017 9.39616 60.688 10.8728L60.39 8.98568H57.0593V23.5534H60.6548V23.5468Z" fill="white"/>
<path d="M80.9371 23.9309C84.738 23.9309 87.3932 22.0172 88.0091 18.8255H84.6784C84.2612 20.2095 82.97 20.9776 80.9901 20.9776C78.5997 20.9776 77.2488 19.6797 76.984 17.1171L87.9493 17.0841V15.9981C87.9493 11.4556 85.175 8.5354 80.8113 8.5354C76.5403 8.5354 73.5605 11.6873 73.5605 16.2629C73.5605 20.7723 76.5999 23.9309 80.9371 23.9309ZM80.8445 11.4887C82.9965 11.4887 84.3804 12.813 84.3804 14.8194H77.0701C77.421 12.6408 78.7189 11.4887 80.8445 11.4887Z" fill="white"/>
<path d="M92.6248 6.06546C93.8028 6.06546 94.776 5.09207 94.776 3.88029C94.776 2.66853 93.8028 1.73486 92.6248 1.73486C91.3861 1.73486 90.4197 2.68176 90.4197 3.88692C90.4197 5.09207 91.3791 6.06546 92.6248 6.06546ZM90.8231 23.5467H94.4187V8.97897H90.8231V23.5467Z" fill="white"/>
<path d="M97.2864 16.2364C97.2864 20.865 100.173 23.9309 104.596 23.9309C108.398 23.9309 111.231 21.6 111.669 18.2097H108.04C107.656 19.8055 106.391 20.6862 104.589 20.6862C102.292 20.6862 100.875 18.9778 100.875 16.2364C100.875 13.495 102.411 11.7535 104.709 11.7535C106.417 11.7535 107.629 12.6077 108.04 14.2631H111.636C111.251 10.7536 108.536 8.54199 104.563 8.54199C100.266 8.54199 97.2864 11.7271 97.2864 16.2364Z" fill="white"/>
<path d="M113.489 16.2363C113.489 20.7788 116.761 23.9042 121.276 23.9042C125.786 23.9042 129.063 20.7854 129.063 16.2363C129.063 11.6938 125.792 8.56836 121.276 8.56836C116.767 8.57498 113.489 11.6938 113.489 16.2363ZM117.092 16.2363C117.092 13.581 118.8 11.7866 121.276 11.7866C123.753 11.7866 125.462 13.5876 125.462 16.2363C125.462 18.885 123.753 20.6861 121.276 20.6861C118.8 20.6927 117.092 18.8916 117.092 16.2363Z" fill="white"/>
<path d="M135.5 23.5468V15.7067C135.5 13.3494 136.851 11.8131 139.069 11.8131C140.93 11.8131 142.135 12.9918 142.135 15.4418V23.5534H145.731V14.581C145.731 10.8066 143.843 8.54199 140.188 8.54199C138.215 8.54199 136.447 9.39616 135.533 10.8728L135.235 8.98568H131.904V23.5534H135.5V23.5468Z" fill="white"/>
<path d="M160 19.1566C160 22.1033 157.497 23.9375 153.902 23.9375C150.273 23.9375 147.982 21.9841 147.976 19.1368H151.385C151.412 20.4015 152.359 21.2027 154.008 21.2027C155.683 21.2027 156.603 20.5207 156.603 19.4612C156.603 18.7195 156.226 18.1965 154.928 17.8985L152.299 17.276C149.677 16.6867 148.413 15.4484 148.413 13.1176C148.413 10.257 150.822 8.54199 154.186 8.54199C157.458 8.54199 159.663 10.4358 159.696 13.2633H156.279C156.259 12.025 155.425 11.2304 154.041 11.2304C152.63 11.2304 151.803 11.8793 151.803 12.9653C151.803 13.793 152.458 14.3161 153.69 14.6141L156.319 15.2366C158.577 15.7465 159.815 16.7529 159.98 18.6666L160 19.1566Z" fill="white"/>
<path d="M20.5734 22.9459C21.5203 21.999 21.5203 20.4694 20.5734 19.5225L4.13174 3.08078C3.18483 2.13388 1.65522 2.13388 0.708318 3.08078C-0.238588 4.02769 -0.238588 5.5573 0.708318 6.50421L17.15 22.9459C18.0969 23.8928 19.6265 23.8928 20.5734 22.9459Z" fill="#6566FF"/>
<path d="M20.1364 10.8083C21.0833 9.86136 21.0833 8.33176 20.1364 7.38486L13.4618 0.710178C12.5149 -0.236726 10.9852 -0.236726 10.0383 0.710178C9.09143 1.65709 9.09143 3.18669 10.0383 4.1336L16.7131 10.8083C17.66 11.7486 19.1895 11.7486 20.1364 10.8083Z" fill="#6566FF"/>
<path d="M11.2435 25.3166C12.1904 24.3697 12.1904 22.8401 11.2435 21.8932L4.56875 15.2185C3.62185 14.2716 2.09223 14.2716 1.14533 15.2185C0.198424 16.1654 0.198424 17.695 1.14533 18.6419L7.82001 25.3166C8.76691 26.2636 10.2966 26.2636 11.2435 25.3166Z" fill="#6566FF"/>
</g>
</g>
<defs>
<clipPath id="clip0_2129_24">
<rect width="160" height="25.9459" fill="white"/>
</clipPath>
</defs>
</svg>
