<svg fill="none" height="26" viewBox="0 0 200 26" width="200" xmlns="http://www.w3.org/2000/svg" xmlns:xlink="http://www.w3.org/1999/xlink"><linearGradient id="a" gradientUnits="userSpaceOnUse" x1="26.2047" x2="49.4103" y1="17.819" y2="17.819"><stop offset="0" stop-color="#003fff"/><stop offset=".6883" stop-color="#690aff"/></linearGradient><linearGradient id="b" gradientUnits="userSpaceOnUse" x1="3" x2="26.223" y1="8.52236" y2="8.52236"><stop offset=".2862" stop-color="#e843a1"/><stop offset="1" stop-color="#003fff"/></linearGradient><linearGradient id="c" gradientUnits="userSpaceOnUse" x1="3" x2="49.4284" y1="13.1634" y2="13.1634"><stop offset=".16" stop-color="#e843a1"/><stop offset=".84" stop-color="#690aff"/></linearGradient><g stroke-miterlimit="10" stroke-width="6"><path d="m26.2051 13.1635c3.4227 4.641 6.9035 9.2821 13.749 9.2821 5.2212 0 9.4562-4.177 9.4562-9.2821" stroke="url(#a)"/><path d="m3 13.1634c0-5.10512 4.23489-9.28205 9.4561-9.28205 6.8455 0 10.3263 4.641 13.749 9.28205" stroke="url(#b)"/><path d="m49.4103 13.1634c0-5.10512-4.2349-9.28205-9.4561-9.28205-6.8455 0-10.3263 4.641-13.7491 9.28205-3.4227 4.6411-6.9035 9.2821-13.749 9.2821-5.22121 0-9.4561-4.177-9.4561-9.2821" stroke="url(#c)"/></g><path d="m64.9746 25.2933v-24.312587h3.1866v21.141387h9.9577v3.1712zm16.3431-19.23866v-3.38262h3.1867v3.38262zm0 19.23866v-17.54735h3.1867v17.54735zm43.0533-19.23866v-3.38262h3.187v3.38262zm0 19.23866v-17.54735h3.187v17.54735zm-21.981-11.1521c-.099-.687-.249-1.427-.497-2.167-.249-.7399-.648-1.427-1.096-2.06129-.498-.6342-1.0955-1.16275-1.8918-1.53267-.7971-.37001-1.743-.58147-2.8881-.58147-1.4933 0-2.7386.31719-3.7837 1.00429-.4977.3171-.8963.68702-1.2948 1.10985v-2.11414h-3.1867v17.54743h3.1867v-8.7209h.0496c0-1.057.1001-1.9027.3489-2.6427.1993-.7399.4978-1.3213.8963-1.7441.3986-.4228.8459-.7399 1.3445-.9514.4977-.2113 1.0451-.3171 1.6429-.3171.8963 0 1.5934.2114 2.1407.5814.5482.37.9459.8985 1.2948 1.4799.2985.6342.4978 1.2685.597 2.0084.1001.74.1497 1.4271.1497 2.1142v8.1923h3.236v-9.3551c-.099-.5285-.149-1.1628-.249-1.8499zm80.47 0c-.099-.687-.249-1.427-.498-2.167-.249-.7399-.647-1.427-1.095-2.06129-.498-.6342-1.095-1.16275-1.892-1.53267-.797-.37001-1.742-.58147-2.888-.58147-1.494 0-2.738.31719-3.784 1.00429-.498.3171-.896.68702-1.295 1.10985v-2.11414h-3.187v17.54743h3.187v-8.7209h.051c0-1.057.099-1.9027.348-2.6427.199-.7399.497-1.3213.896-1.7441.398-.4228.847-.7399 1.344-.9514.498-.2113 1.045-.3171 1.643-.3171.897 0 1.594.2114 2.141.5814.548.37.947.8985 1.245 1.4799.299.6342.498 1.2685.597 2.0084.1.74.15 1.4271.15 2.1142v8.1923h3.236v-9.3551c-.049-.5285-.099-1.1628-.199-1.8499zm-62.981 3.277h1.593c.099-2.0085-.1-3.6998-.697-5.1797-.598-1.427-1.494-2.58978-2.639-3.32979-1.195-.79275-2.639-1.16276-4.282-1.16276-1.593 0-3.038.37001-4.232 1.10994-1.195.73992-2.141 1.74411-2.838 3.11831-.697 1.3213-.996 2.907-.996 4.704 0 1.6913.349 3.224 1.046 4.5454.697 1.3213 1.642 2.3255 2.888 3.0126 1.244.7399 2.688 1.11 4.331 1.11 1.593 0 3.038-.4229 4.382-1.2157 1.294-.7928 2.29-1.9555 2.937-3.4354l-3.136-1.0043c-.399.8457-.997 1.5328-1.694 1.9556-.746.4757-1.593.6871-2.589.6871-1.543 0-2.688-.4757-3.485-1.4799-.647-.8457-1.046-1.9556-1.145-3.3298h9.112 1.444zm-9.56-5.2854c.797-1.0042 1.992-1.5328 3.585-1.5328 1.444 0 2.539.4758 3.236 1.3742.498.6343.847 1.5856.996 2.7484h-8.913c.199-1.0571.598-1.9027 1.096-2.5898zm28.105 13.1605c-1.693 0-3.137-.37-4.332-1.1628-1.195-.7399-2.092-1.797-2.738-3.1183-.648-1.3213-.946-2.8541-.946-4.4926 0-1.6913.348-3.2241.996-4.5454.647-1.3213 1.543-2.37839 2.738-3.11831 1.195-.73993 2.638-1.10994 4.282-1.10994 1.792 0 3.336.47565 4.631 1.37421 1.294.89844 2.14 2.16694 2.539 3.69974l-3.187.8985c-.298-.9513-.847-1.6384-1.544-2.167s-1.542-.7928-2.489-.7928c-1.045 0-1.892.2642-2.589.74-.697.4756-1.195 1.1627-1.493 2.0612-.349.8457-.499 1.8499-.499 2.9598 0 1.6913.399 3.1183 1.196 4.1755.746 1.0571 1.892 1.5855 3.435 1.5855 1.045 0 1.842-.2642 2.489-.7399.647-.4756 1.145-1.1627 1.445-2.0613l3.236.7928c-.548 1.6385-1.444 2.8541-2.689 3.7527-1.195.8456-2.739 1.2684-4.481 1.2684zm18.484 0c-1.644 0-3.087-.37-4.282-1.1099-1.195-.74-2.141-1.797-2.788-3.1183-.648-1.3214-.997-2.8542-.997-4.5455 0-1.7441.349-3.2769.997-4.5982.697-1.3214 1.593-2.32559 2.837-3.06551 1.195-.73993 2.64-1.10994 4.233-1.10994 1.643 0 3.087.37001 4.281 1.10994 1.196.73992 2.142 1.79701 2.839 3.11831.647 1.3213.995 2.8541.995 4.5454 0 1.7442-.348 3.277-.995 4.5983s-1.593 2.3256-2.839 3.1183c-1.244.6871-2.638 1.0571-4.281 1.0571zm0-3.0127c1.593 0 2.739-.5284 3.535-1.5855.797-1.0572 1.195-2.4313 1.195-4.1755 0-1.7441-.398-3.1183-1.195-4.1754-.796-1.0571-1.942-1.5856-3.535-1.5856-1.096 0-1.942.2642-2.639.74-.697.4756-1.195 1.1627-1.544 2.0084-.348.8456-.498 1.8498-.498 2.9598 0 1.7441.399 3.1183 1.195 4.1754.748 1.11 1.942 1.6384 3.486 1.6384zm36.47 3.0127c-1.992 0-3.635-.4228-4.93-1.3214-1.244-.8984-2.041-2.1669-2.34-3.7525l3.286-.5286c.199.8457.697 1.5328 1.394 2.0614.748.4756 1.644.7399 2.739.7399.996 0 1.792-.2115 2.34-.6343s.846-.9513.846-1.6913c0-.4228-.099-.7399-.298-1.0042s-.598-.5286-1.245-.7399c-.647-.2115-1.593-.5286-2.888-.8986-1.394-.3699-2.539-.7927-3.386-1.2156-.846-.4228-1.443-.9514-1.792-1.4799-.348-.5814-.548-1.2685-.548-2.0612 0-1.0042.249-1.9028.797-2.6427.548-.73996 1.294-1.32134 2.24-1.74416.946-.42283 2.091-.63429 3.386-.63429 1.245 0 2.39.21146 3.386.58138.996.42283 1.793.95138 2.39 1.69127.598.74.996 1.5856 1.095 2.5899l-3.285.5814c-.101-.7928-.499-1.427-1.096-1.9028-.647-.4756-1.444-.7399-2.44-.7399-.946-.0528-1.742.1057-2.34.4756-.598.3701-.896.8457-.896 1.48 0 .3699.099.6871.349.9514.248.2642.697.5284 1.343.7399.648.2114 1.644.5285 2.938.8456 1.394.37 2.49.74 3.287 1.2156.796.4228 1.394.9514 1.742 1.5328.349.5814.548 1.3214.548 2.167 0 1.6384-.598 2.9598-1.793 3.8583-1.095 1.0042-2.738 1.4799-4.829 1.4799z" fill="#fff"/></svg>