<svg fill="none" height="33" viewBox="0 0 200 33" width="200" xmlns="http://www.w3.org/2000/svg" xmlns:xlink="http://www.w3.org/1999/xlink"><clipPath id="a"><path d="m0 0h200v32.4715h-200z"/></clipPath><g clip-path="url(#a)"><path d="m42.1741 27.1059h4.045v-7.3951h4.2813c5.171 0 7.8816-3.0442 7.8816-7.3116 0-4.26746-2.7801-7.25606-7.8816-7.25606h-8.3402zm4.045-10.6617v-7.92325h3.7114c3.0303 0 4.3787 1.59855 4.3787 3.93385s-1.3901 3.9894-4.3509 3.9894zm19.4607-11.24546h-3.8922v21.90716h3.9617zm8.8963 22.24076c.9864.0979 1.9803-.0882 2.8644-.5364.8842-.4482 1.6218-1.1399 2.1258-1.9935h.1251v2.2519h3.7949v-11.0509c0-4.3369-3.6142-5.6436-6.8113-5.6436-3.5307 0-6.2413 1.543-7.1031 4.5316l3.6975.5143c.27-.672.7506-1.2383 1.3695-1.6142.619-.3759 1.3432-.5411 2.0639-.4709 1.8349 0 2.7801.9175 2.7801 2.5299 0 1.112-1.1954 1.1676-4.1701 1.4735-3.2527.3475-6.3664 1.2927-6.3664 4.9902.0834 3.3083 2.4882 5.0181 5.6853 5.0181zm1.0286-2.7801c-1.6542 0-2.7801-.7367-2.7801-2.1546 0-1.4178 1.39-2.1128 3.0859-2.3492 1.248-.0812 2.4762-.353 3.6419-.8062v1.9322c-.0276.4772-.1514.944-.3641 1.3721s-.5097.8088-.8733 1.1192c-.3636.3103-.7862.5439-1.2424.6867-.4563.1428-.9366.1919-1.4123.1442zm11.8015 2.516h3.9477v-16.486h-3.8921zm1.9878-18.76565c.2975.0208.5962-.01921.8777-.11761.2816-.0984.5402-.25312.76-.45472.2198-.20161.3962-.44587.5186-.7179.1223-.27203.1879-.56612.1928-.86435-.0449-.57566-.3053-1.11319-.7291-1.50528-.4239-.39209-.9801-.60988-1.5575-.60988s-1.1336.21779-1.5574.60988c-.4239.39209-.6843.92962-.7292 1.50528.0253.58018.2793 1.12673.7065 1.52008.4273.39336.9929.6015 1.5732.5789zm9.9805 9.13265c-.0518-.4937.005-.9927.1663-1.462.1614-.4694.4233-.8979.7672-1.2554.345-.3575.763-.6355 1.226-.8144s.959-.2545 1.455-.2214c.456-.0261.913.0486 1.337.2189.424.1702.806.4318 1.118.7662.312.3343.546.7333.686 1.1685.14.4351.183.8958.125 1.3493v9.8555h3.948v-10.4949c0-3.9338-2.28-6.1857-5.741-6.1857-1.042-.0796-2.084.1666-2.98.7044-.897.5379-1.6038 1.3409-2.0241 2.2981h-.1946v-2.7801h-3.7809v16.4165h3.9477zm15.7635 9.6191 2.391-6.6027h9.396l2.391 6.6027h2.141l-8.076-21.94886h-2.197l-8.131 21.89326zm3.044-8.3403 4.031-11.00917h.111l3.962 10.91187zm22.741 8.7434c1.104.0323 2.191-.2758 3.113-.8826.923-.6068 1.637-1.4828 2.044-2.5091h.236v3.0442h1.905v-22.00446h-1.96v8.57656h-.181c-.399-1.0213-1.106-1.8934-2.022-2.496-.917-.6025-1.997-.9058-3.093-.8679-4.17 0-6.951 3.4195-6.951 8.4793s2.85 8.5488 6.965 8.5488zm.236-1.7376c-3.336 0-5.171-2.9747-5.171-6.7973s1.807-6.7139 5.171-6.7139 5.13 2.7801 5.13 6.7139-1.821 6.6861-5.088 6.6861zm12.594 1.3901h1.932v-10.6478c-.036-.5655.045-1.1326.239-1.6651.194-.5324.497-1.0187.889-1.4279.392-.4091.865-.7323 1.389-.9488s1.087-.3218 1.653-.309c.494-.0322.988.0428 1.449.2201.462.1772.879.4523 1.224.8064.345.354.609.7787.774 1.2446s.227.962.181 1.4542v11.1204h1.933v-10.7729c-.045-.5409.027-1.0851.211-1.5957s.476-.9755.856-1.3632c.379-.3878.838-.6892 1.345-.8838s1.049-.2778 1.591-.244c.511-.0371 1.025.0399 1.503.2254.478.1856.909.4751 1.261.8475.353.3725.618.8186.777 1.3062.159.4875.208 1.0043.143 1.513v11.0092h1.946v-10.9953c0-3.6836-1.932-5.6297-5.046-5.6297-1.034-.0718-2.065.1765-2.953.7112-.888.5348-1.59 1.3299-2.01 2.2774h-.139c-.378-.8699-.996-1.6139-1.782-2.1449s-1.708-.827-2.656-.8532c-.948-.0263-1.884.2182-2.698.7049s-1.473 1.1954-1.899 2.043h-.181v-2.5299h-1.89zm26.411 0h1.96v-16.5277h-1.96zm.987-19.25217c.188.00943.377-.01955.553-.08517.177-.06563.339-.16652.475-.29655.137-.13003.245-.28648.319-.45982.075-.17334.113-.35996.113-.54851 0-.38709-.154-.75833-.428-1.03205s-.645-.4275-1.032-.4275-.758.15378-1.032.4275-.428.64496-.428 1.03205c.014.18404.065.36344.149.52776s.2.31026.341.4293.304.2088.48.26405.362.07488.546.05774zm8.048 8.97967c-.04-.6122.05-1.2261.264-1.8011.214-.5751.548-1.0983.978-1.5355.431-.4371.949-.7782 1.521-1.001.572-.2227 1.184-.3219 1.797-.2912.572-.0242 1.142.0742 1.673.2886s1.01.5399 1.405.9545c.395.4147.697.909.885 1.4497.188.5408.259 1.1156.207 1.6858v10.5227h1.946v-10.7451c0-3.8921-2.308-6.005-5.685-6.005-1.006-.0778-2.012.1449-2.89.6399-.879.495-1.591 1.2399-2.045 2.1402h-.181v-2.5577h-1.89v16.4165h1.946z" fill="#fff"/><g fill="#2f80ed"><path d="m36.3642 14.1507-7.1727-12.05169c-.3644-.63693-.8905-1.166393-1.5251-1.534934s-1.3552-.56310431-2.089-.56404007h-14.2619c-.7409-.00644868-1.47009.18461207-2.11263.55352507s-1.1752.902359-1.54316 1.545449l-7.130942 12.05169c-.347951.6399-.53023284 1.3567-.53023284 2.0851s.18228184 1.4452.53023284 2.0851l7.130942 12.0517c.36796.6431.90062 1.1765 1.54316 1.5454s1.37173.56 2.11263.5535h14.2619c.7325.0005 1.4522-.192 2.0866-.558.6345-.366 1.1613-.8927 1.5275-1.527l7.131-12.0517c.3556-.6386.5457-1.3559.553-2.0868.0072-.7308-.1685-1.4518-.5113-2.0973zm-2.7801 2.6133-7.1727 12.0517c-.0959.174-.2401.3164-.4153.4101-.1751.0938-.3736.1348-.5716.1181h-14.109c-.1962.0057-.3906-.0401-.5637-.1327-.1732-.0927-.319-.229-.4232-.3955l-7.11704-12.0517c-.0892-.1767-.13566-.3719-.13566-.5699s.04646-.3932.13566-.5699l7.13094-12.03784c.0959-.17394.2402-.31638.4153-.41012.1752-.09373.3737-.13475.5716-.1181h14.248c.1963-.00566.3907.04011.5638.13277s.319.22899.4232.39545l7.1309 12.05174c.0937.1771.1344.3776.1171.5773-.0172.1997-.0917.3901-.2144.5486z"/><path d="m24.9376 8.66001h-2.8635c-1.12-.00759-2.198.4254-3.0015 1.20555-.8036.78014-1.2682 1.84494-1.2938 2.96464v3.0442h-3.0998c-1.1199-.0076-2.1979.4254-3.0015 1.2055-.8035.7802-1.2682 1.8449-1.2937 2.9646v2.7801c.0073.5911.2482 1.1553.6702 1.5694.4219.4141.9905.6445 1.5817.6408h2.7801c1.1199.0076 2.1979-.4254 3.0015-1.2056.8035-.7801 1.2682-1.8449 1.2937-2.9646v-2.9886h3.1137c1.12.0076 2.198-.4254 3.0015-1.2055.8036-.7802 1.2682-1.8449 1.2938-2.9646v-2.7801c.0055-.2921-.0466-.5824-.1533-.8544-.1067-.27192-.2659-.52019-.4686-.7306-.2026-.21041-.4447-.37883-.7125-.49564s-.5559-.17972-.848-.18515zm-7.1588 12.23239c-.0036.2976-.0658.5915-.183.865-.1173.2735-.2872.5213-.5002.7291s-.4648.3716-.7411.4821-.5717.1655-.8692.1618h-2.7801c-.0641.0001-.1257-.0243-.1722-.0683-.0466-.044-.0745-.1041-.078-.168v-2.7801c.0036-.2976.0658-.5915.183-.865.1173-.2735.2872-.5212.5002-.7291.213-.2078.4648-.3716.7411-.4821s.5717-.1654.8692-.1618h3.0998zm7.409-7.256c-.0073.6022-.2527 1.177-.6824 1.5989s-1.009.6567-1.6112.653h-3.1137v-3.0442c.0018-.2988.0627-.5942.1791-.8693s.2861-.5245.4993-.7338c.2131-.2093.4656-.3744.7428-.4857.2772-.1114.5737-.1668.8724-.1631h2.8635c.0663 0 .13.0263.1769.0733.0469.0469.0733.1105.0733.1769z" stroke="#2f80ed" stroke-width=".5"/></g></g></svg>