<svg width="213" height="40" viewBox="0 0 213 40" fill="none" xmlns="http://www.w3.org/2000/svg">
<g clip-path="url(#clip0_3035_132)">
<path d="M57.3892 32.2953V8.94756H66.1014C67.6893 8.94756 69.0892 9.24005 70.3009 9.82505C71.5336 10.3892 72.4947 11.2249 73.1841 12.3322C73.8736 13.4186 74.2183 14.7453 74.2183 16.3122C74.2183 17.8583 73.8632 19.185 73.1528 20.2923C72.4633 21.3788 71.5127 22.2145 70.3009 22.7995C69.0892 23.3845 67.6893 23.677 66.1014 23.677H61.6513V32.2953H57.3892ZM61.6513 19.9163H66.1641C66.9372 19.9163 67.6057 19.7701 68.1699 19.4775C68.734 19.1641 69.1727 18.7359 69.4861 18.1927C69.7995 17.6494 69.9562 17.0227 69.9562 16.3122C69.9562 15.581 69.7995 14.9542 69.4861 14.4319C69.1727 13.8887 68.734 13.4708 68.1699 13.1783C67.6057 12.8649 66.9372 12.7082 66.1641 12.7082H61.6513V19.9163Z" fill="#1A2142"/>
<path d="M76.7393 32.2953V8.57149H80.8447V32.2953H76.7393Z" fill="#1A2142"/>
<path d="M89.1793 32.6714C87.9884 32.6714 86.9543 32.4729 86.0767 32.076C85.1992 31.6789 84.5201 31.1148 84.0397 30.3836C83.5591 29.6315 83.3188 28.7645 83.3188 27.7825C83.3188 26.8422 83.5278 26.0066 83.9457 25.2753C84.3636 24.5232 85.0112 23.8963 85.8887 23.3949C86.7661 22.8935 87.8736 22.5383 89.2106 22.3294L94.7891 21.4206V24.5545L89.9941 25.3693C89.1793 25.5156 88.5734 25.7767 88.1765 26.1528C87.7794 26.5289 87.581 27.0199 87.581 27.6258C87.581 28.2108 87.8004 28.6808 88.2391 29.036C88.6987 29.3703 89.2629 29.5374 89.9314 29.5374C90.788 29.5374 91.5401 29.3599 92.1879 29.0047C92.8565 28.6286 93.3684 28.1167 93.7236 27.4691C94.0996 26.8214 94.2876 26.1111 94.2876 25.338V20.9505C94.2876 20.2193 93.9951 19.6134 93.4101 19.1328C92.846 18.6314 92.0939 18.3807 91.1537 18.3807C90.2761 18.3807 89.4927 18.6209 88.8032 19.1015C88.1346 19.5612 87.6437 20.1774 87.3303 20.9505L83.977 19.3208C84.3113 18.4225 84.8336 17.6494 85.5439 17.0018C86.2752 16.3332 87.1318 15.8108 88.1138 15.4348C89.0958 15.0587 90.1613 14.8707 91.3104 14.8707C92.7101 14.8707 93.9429 15.1319 95.0084 15.6541C96.0739 16.1556 96.8992 16.866 97.4843 17.7853C98.0901 18.6836 98.3931 19.7387 98.3931 20.9505V32.2953H94.507V29.3808L95.3845 29.3181C94.9458 30.0493 94.4234 30.6656 93.8176 31.1671C93.2117 31.6476 92.5221 32.0238 91.7491 32.2953C90.9761 32.546 90.1194 32.6714 89.1793 32.6714Z" fill="#1A2142"/>
<path d="M101.561 32.2953V15.2467H105.666V32.2953H101.561ZM103.614 13.335C102.48 13.335 101.561 12.416 101.561 11.2823C101.561 10.1486 102.48 9.16466 103.614 9.16466C104.747 9.16466 105.666 10.1486 105.666 11.2823C105.666 12.416 104.747 13.335 103.614 13.335Z" fill="#1A2142"/>
<path d="M108.83 32.2953V15.2467H112.685V18.6001L112.371 18.0046C112.768 16.9808 113.416 16.2079 114.314 15.6855C115.234 15.1422 116.299 14.8707 117.511 14.8707C118.765 14.8707 119.872 15.1422 120.833 15.6855C121.815 16.2287 122.578 16.9913 123.121 17.9733C123.663 18.9343 123.935 20.0521 123.935 21.3266V32.2953H119.831V22.2981C119.831 21.546 119.683 20.8982 119.392 20.3551C119.099 19.8119 118.692 19.394 118.169 19.1015C117.668 18.7881 117.072 18.6314 116.383 18.6314C115.714 18.6314 115.119 18.7881 114.597 19.1015C114.074 19.394 113.667 19.8119 113.374 20.3551C113.082 20.8982 112.935 21.546 112.935 22.2981V32.2953H108.83Z" fill="#1A2142"/>
<path d="M125.213 32.2953L133.581 8.94756H137.216L145.583 32.2953H142.293L140.381 26.8109H130.415L128.503 32.2953H125.213ZM131.387 23.9905H139.411L134.96 11.1726H135.838L131.387 23.9905Z" fill="#1A2142"/>
<path d="M153.68 32.6714C152.093 32.6714 150.661 32.2848 149.387 31.5119C148.133 30.7388 147.141 29.6838 146.409 28.3466C145.679 27.0094 145.313 25.5156 145.313 23.8651C145.313 22.1727 145.679 20.6685 146.409 19.3522C147.141 18.0151 148.133 16.96 149.387 16.1869C150.661 15.4139 152.093 15.0274 153.68 15.0274C155.08 15.0274 156.324 15.3303 157.409 15.9362C158.497 16.5212 159.353 17.3152 159.98 18.318L159.509 19.0388V8.57149H162.455V32.2953H159.604V28.6913L159.98 29.1927C159.394 30.3 158.538 31.1567 157.409 31.7626C156.302 32.3685 155.059 32.6714 153.68 32.6714ZM153.931 29.8508C154.997 29.8508 155.947 29.5896 156.782 29.0674C157.619 28.5451 158.277 27.8347 158.758 26.9363C159.259 26.0171 159.509 24.9933 159.509 23.8651C159.509 22.716 159.259 21.6922 158.758 20.7938C158.277 19.8745 157.619 19.1538 156.782 18.6314C155.947 18.1091 154.997 17.8479 153.931 17.8479C152.886 17.8479 151.935 18.1195 151.079 18.6627C150.244 19.1851 149.585 19.8954 149.105 20.7938C148.625 21.6713 148.384 22.6951 148.384 23.8651C148.384 24.9933 148.625 26.0171 149.105 26.9363C149.585 27.8347 150.244 28.5451 151.079 29.0674C151.915 29.5896 152.866 29.8508 153.931 29.8508Z" fill="#1A2142"/>
<path d="M165.4 32.2953V15.4034H168.252V18.8508L167.843 18.318C168.262 17.2525 168.93 16.4376 169.849 15.8735C170.769 15.3094 171.803 15.0274 172.952 15.0274C174.268 15.0274 175.449 15.3931 176.494 16.1242C177.559 16.8555 178.29 17.8166 178.687 19.0074L177.873 19.0388C178.312 17.7226 179.053 16.7301 180.098 16.0615C181.142 15.3721 182.302 15.0274 183.576 15.0274C184.746 15.0274 185.801 15.2989 186.741 15.8422C187.702 16.3854 188.465 17.1375 189.029 18.0986C189.593 19.0596 189.875 20.1461 189.875 21.3579V32.2953H186.929V22.2981C186.929 21.3579 186.762 20.564 186.428 19.9163C186.094 19.2686 185.634 18.7672 185.049 18.412C184.485 18.036 183.816 17.8479 183.043 17.8479C182.292 17.8479 181.612 18.036 181.006 18.412C180.421 18.7672 179.952 19.2791 179.596 19.9476C179.262 20.5953 179.095 21.3788 179.095 22.2981V32.2953H176.149V22.2981C176.149 21.3579 175.981 20.564 175.647 19.9163C175.313 19.2686 174.853 18.7672 174.268 18.412C173.705 18.036 173.035 17.8479 172.262 17.8479C171.511 17.8479 170.832 18.036 170.226 18.412C169.641 18.7672 169.17 19.2791 168.815 19.9476C168.481 20.5953 168.314 21.3788 168.314 22.2981V32.2953H165.4Z" fill="#1A2142"/>
<path d="M192.448 32.5335V15.6416H195.362V32.5335H192.448Z" fill="#1A2142"/>
<path d="M198.318 32.2953V15.4034H201.169V18.6941L200.7 18.412C201.118 17.3465 201.786 16.5212 202.706 15.9362C203.646 15.3303 204.742 15.0274 205.996 15.0274C207.208 15.0274 208.283 15.2989 209.223 15.8422C210.185 16.3854 210.938 17.1375 211.48 18.0986C212.045 19.0596 212.327 20.1461 212.327 21.3579V32.2953H209.381V22.2981C209.381 21.3579 209.214 20.564 208.879 19.9163C208.545 19.2686 208.065 18.7672 207.438 18.412C206.832 18.036 206.132 17.8479 205.338 17.8479C204.544 17.8479 203.834 18.036 203.207 18.412C202.601 18.7672 202.12 19.2791 201.765 19.9476C201.411 20.5953 201.233 21.3788 201.233 22.2981V32.2953H198.318Z" fill="#1A2142"/>
<path d="M193.818 13.5715C194.844 13.5715 195.675 12.74 195.675 11.7143C195.675 10.6887 194.844 9.85719 193.818 9.85719C192.792 9.85719 191.961 10.6887 191.961 11.7143C191.961 12.74 192.792 13.5715 193.818 13.5715Z" fill="#1A2142"/>
<path d="M0 17.3913C0 9.19297 0 5.0938 2.54689 2.54689C5.0938 0 9.19297 0 17.3913 0H22.6087C30.8071 0 34.9062 0 37.4531 2.54689C40 5.0938 40 9.19297 40 17.3913V22.6087C40 30.8071 40 34.9062 37.4531 37.4531C34.9062 40 30.8071 40 22.6087 40H17.3913C9.19297 40 5.0938 40 2.54689 37.4531C0 34.9062 0 30.8071 0 22.6087L0 17.3913Z" fill="url(#paint0_linear_3035_132)"/>
<path d="M32.1689 16.5218C32.1689 21.3242 28.2757 25.2174 23.4732 25.2174C18.6708 25.2174 14.7776 21.3242 14.7776 16.5218C14.7776 11.7193 18.6708 7.82614 23.4732 7.82614C28.2757 7.82614 32.1689 11.7193 32.1689 16.5218Z" fill="url(#paint1_linear_3035_132)"/>
<path d="M17.3858 27.8261C17.3858 30.2273 15.4392 32.1739 13.038 32.1739C10.6368 32.1739 8.69019 30.2273 8.69019 27.8261C8.69019 25.4248 10.6368 23.4782 13.038 23.4782C15.4392 23.4782 17.3858 25.4248 17.3858 27.8261Z" fill="url(#paint2_linear_3035_132)"/>
</g>
<defs>
<linearGradient id="paint0_linear_3035_132" x1="31.3889" y1="35" x2="2.14355" y2="0.195838" gradientUnits="userSpaceOnUse">
<stop stop-color="#365CF5"/>
<stop offset="1" stop-color="#946FFF"/>
</linearGradient>
<linearGradient id="paint1_linear_3035_132" x1="23.4732" y1="7.82614" x2="23.4732" y2="38.2609" gradientUnits="userSpaceOnUse">
<stop stop-color="white"/>
<stop offset="1" stop-color="white" stop-opacity="0"/>
</linearGradient>
<linearGradient id="paint2_linear_3035_132" x1="13.038" y1="9.56524" x2="13.038" y2="32.1739" gradientUnits="userSpaceOnUse">
<stop stop-color="white" stop-opacity="0"/>
<stop offset="1" stop-color="white"/>
</linearGradient>
<clipPath id="clip0_3035_132">
<rect width="212.941" height="40" fill="white"/>
</clipPath>
</defs>
</svg>
