<svg width="214" height="40" viewBox="0 0 214 40" fill="none" xmlns="http://www.w3.org/2000/svg">
<g clip-path="url(#clip0_3031_41)">
<path d="M57.8479 32.2953V8.94757H66.5601C68.148 8.94757 69.5479 9.24007 70.7597 9.82507C71.9924 10.3892 72.9534 11.2249 73.6428 12.3322C74.3324 13.4186 74.6771 14.7453 74.6771 16.3122C74.6771 17.8584 74.3219 19.1851 73.6115 20.2924C72.922 21.3788 71.9714 22.2145 70.7597 22.7995C69.5479 23.3845 68.148 23.6771 66.5601 23.6771H62.11V32.2953H57.8479ZM62.11 19.9164H66.6228C67.3959 19.9164 68.0645 19.7701 68.6286 19.4775C69.1927 19.1641 69.6314 18.7359 69.9448 18.1927C70.2583 17.6494 70.415 17.0227 70.415 16.3122C70.415 15.5811 70.2583 14.9542 69.9448 14.4319C69.6314 13.8887 69.1927 13.4708 68.6286 13.1784C68.0645 12.8649 67.3959 12.7082 66.6228 12.7082H62.11V19.9164Z" fill="white"/>
<path d="M77.198 32.2953V8.57147H81.3034V32.2953H77.198Z" fill="white"/>
<path d="M89.6381 32.6714C88.4471 32.6714 87.413 32.4729 86.5355 32.076C85.6579 31.6789 84.9789 31.1148 84.4984 30.3836C84.0178 29.6315 83.7776 28.7644 83.7776 27.7824C83.7776 26.8422 83.9865 26.0065 84.4044 25.2753C84.8223 24.5231 85.4699 23.8963 86.3475 23.3949C87.2249 22.8935 88.3323 22.5383 89.6694 22.3294L95.2478 21.4206V24.5544L90.4529 25.3693C89.6381 25.5156 89.0322 25.7767 88.6352 26.1528C88.2382 26.5289 88.0397 27.0198 88.0397 27.6257C88.0397 28.2108 88.2591 28.6808 88.6978 29.036C89.1575 29.3703 89.7216 29.5374 90.3902 29.5374C91.2468 29.5374 91.9989 29.3598 92.6467 29.0047C93.3152 28.6285 93.8271 28.1167 94.1823 27.469C94.5583 26.8214 94.7463 26.111 94.7463 25.338V20.9504C94.7463 20.2193 94.4538 19.6134 93.8689 19.1328C93.3048 18.6314 92.5526 18.3807 91.6124 18.3807C90.7349 18.3807 89.9515 18.6209 89.2619 19.1015C88.5934 19.5611 88.1024 20.1774 87.789 20.9504L84.4357 19.3208C84.7701 18.4224 85.2923 17.6494 86.0027 17.0017C86.7339 16.3331 87.5905 15.8108 88.5725 15.4348C89.5545 15.0587 90.6201 14.8707 91.7691 14.8707C93.1689 14.8707 94.4016 15.1318 95.4671 15.6541C96.5327 16.1556 97.3579 16.866 97.943 17.7853C98.5489 18.6836 98.8518 19.7387 98.8518 20.9504V32.2953H94.9657V29.3808L95.8432 29.3181C95.4045 30.0493 94.8822 30.6656 94.2763 31.167C93.6704 31.6476 92.9809 32.0237 92.2078 32.2953C91.4349 32.546 90.5782 32.6714 89.6381 32.6714Z" fill="white"/>
<path d="M102.02 32.2953V15.2467H106.125V32.2953H102.02ZM104.072 13.3351C102.939 13.3351 102.02 12.416 102.02 11.2823C102.02 10.1486 102.939 9.16467 104.072 9.16467C105.206 9.16467 106.125 10.1486 106.125 11.2823C106.125 12.416 105.206 13.3351 104.072 13.3351Z" fill="white"/>
<path d="M109.289 32.2953V15.2467H113.144V18.6001L112.83 18.0045C113.227 16.9808 113.875 16.2078 114.773 15.6855C115.692 15.1422 116.758 14.8707 117.97 14.8707C119.223 14.8707 120.33 15.1422 121.292 15.6855C122.274 16.2287 123.036 16.9913 123.58 17.9733C124.122 18.9343 124.394 20.0521 124.394 21.3265V32.2953H120.289V22.2981C120.289 21.546 120.142 20.8982 119.85 20.355C119.558 19.8118 119.15 19.394 118.628 19.1015C118.127 18.7881 117.531 18.6314 116.842 18.6314C116.173 18.6314 115.578 18.7881 115.055 19.1015C114.533 19.394 114.126 19.8118 113.833 20.355C113.54 20.8982 113.394 21.546 113.394 22.2981V32.2953H109.289Z" fill="white"/>
<path d="M125.672 32.2953L134.04 8.94757H137.675L146.042 32.2953H142.752L140.84 26.811H130.874L128.962 32.2953H125.672ZM131.846 23.9905H139.869L135.419 11.1727H136.296L131.846 23.9905Z" fill="white"/>
<path d="M154.139 32.6714C152.552 32.6714 151.12 32.2848 149.846 31.5119C148.592 30.7388 147.6 29.6837 146.868 28.3466C146.138 27.0094 145.772 25.5156 145.772 23.865C145.772 22.1727 146.138 20.6684 146.868 19.3522C147.6 18.015 148.592 16.96 149.846 16.1869C151.12 15.4139 152.552 15.0274 154.139 15.0274C155.539 15.0274 156.782 15.3303 157.868 15.9362C158.955 16.5212 159.812 17.3152 160.439 18.318L159.968 19.0388V8.57147H162.914V32.2953H160.062V28.6913L160.439 29.1927C159.853 30.3 158.996 31.1567 157.868 31.7626C156.761 32.3684 155.518 32.6714 154.139 32.6714ZM154.389 29.8508C155.455 29.8508 156.406 29.5896 157.241 29.0674C158.078 28.545 158.735 27.8347 159.216 26.9363C159.718 26.017 159.968 24.9933 159.968 23.865C159.968 22.716 159.718 21.6922 159.216 20.7937C158.735 19.8744 158.078 19.1537 157.241 18.6314C156.406 18.109 155.455 17.8479 154.389 17.8479C153.345 17.8479 152.394 18.1195 151.538 18.6627C150.702 19.185 150.043 19.8954 149.563 20.7937C149.083 21.6713 148.842 22.695 148.842 23.865C148.842 24.9933 149.083 26.017 149.563 26.9363C150.043 27.8347 150.702 28.545 151.538 29.0674C152.374 29.5896 153.325 29.8508 154.389 29.8508Z" fill="white"/>
<path d="M165.859 32.2953V15.4034H168.71V18.8508L168.302 18.318C168.721 17.2525 169.389 16.4376 170.308 15.8735C171.228 15.3094 172.262 15.0274 173.41 15.0274C174.727 15.0274 175.908 15.3931 176.953 16.1242C178.017 16.8555 178.749 17.8166 179.146 19.0074L178.332 19.0388C178.77 17.7226 179.512 16.7301 180.556 16.0615C181.601 15.3721 182.761 15.0274 184.035 15.0274C185.205 15.0274 186.26 15.2989 187.2 15.8422C188.161 16.3854 188.923 17.1375 189.488 18.0986C190.052 19.0596 190.334 20.1461 190.334 21.3579V32.2953H187.388V22.2981C187.388 21.3579 187.221 20.564 186.887 19.9163C186.553 19.2686 186.093 18.7672 185.508 18.412C184.943 18.036 184.275 17.8479 183.502 17.8479C182.75 17.8479 182.07 18.036 181.465 18.412C180.88 18.7672 180.41 19.2791 180.055 19.9476C179.721 20.5953 179.554 21.3788 179.554 22.2981V32.2953H176.608V22.2981C176.608 21.3579 176.44 20.564 176.106 19.9163C175.772 19.2686 175.312 18.7672 174.727 18.412C174.163 18.036 173.494 17.8479 172.721 17.8479C171.969 17.8479 171.29 18.036 170.685 18.412C170.1 18.7672 169.629 19.2791 169.274 19.9476C168.94 20.5953 168.773 21.3788 168.773 22.2981V32.2953H165.859Z" fill="white"/>
<path d="M192.907 32.5335V15.6416H195.821V32.5335H192.907Z" fill="white"/>
<path d="M198.776 32.2953V15.4034H201.628V18.6941L201.159 18.412C201.576 17.3465 202.245 16.5212 203.165 15.9362C204.105 15.3303 205.201 15.0274 206.455 15.0274C207.667 15.0274 208.742 15.2989 209.682 15.8422C210.643 16.3854 211.396 17.1375 211.939 18.0986C212.503 19.0596 212.786 20.1461 212.786 21.3579V32.2953H209.84V22.2981C209.84 21.3579 209.673 20.564 209.338 19.9163C209.003 19.2686 208.523 18.7672 207.896 18.412C207.29 18.036 206.59 17.8479 205.796 17.8479C205.002 17.8479 204.293 18.036 203.666 18.412C203.06 18.7672 202.579 19.2791 202.223 19.9476C201.869 20.5953 201.692 21.3788 201.692 22.2981V32.2953H198.776Z" fill="white"/>
<path d="M194.276 13.5715C195.302 13.5715 196.134 12.74 196.134 11.7143C196.134 10.6886 195.302 9.85718 194.276 9.85718C193.25 9.85718 192.42 10.6886 192.42 11.7143C192.42 12.74 193.25 13.5715 194.276 13.5715Z" fill="white"/>
<path d="M0.45874 17.3913C0.45874 9.19297 0.45874 5.0938 3.00563 2.54689C5.55254 0 9.65171 0 17.85 0H23.0674C31.2658 0 35.365 0 37.9118 2.54689C40.4587 5.0938 40.4587 9.19297 40.4587 17.3913V22.6087C40.4587 30.8071 40.4587 34.9062 37.9118 37.4531C35.365 40 31.2658 40 23.0674 40H17.85C9.65171 40 5.55254 40 3.00563 37.4531C0.45874 34.9062 0.45874 30.8071 0.45874 22.6087L0.45874 17.3913Z" fill="white" fill-opacity="0.21"/>
<path d="M32.6276 16.5217C32.6276 21.3242 28.7344 25.2174 23.932 25.2174C19.1295 25.2174 15.2363 21.3242 15.2363 16.5217C15.2363 11.7193 19.1295 7.82611 23.932 7.82611C28.7344 7.82611 32.6276 11.7193 32.6276 16.5217Z" fill="url(#paint0_linear_3031_41)"/>
<path d="M17.8445 27.8261C17.8445 30.2273 15.898 32.1739 13.4968 32.1739C11.0955 32.1739 9.14893 30.2273 9.14893 27.8261C9.14893 25.4248 11.0955 23.4782 13.4968 23.4782C15.898 23.4782 17.8445 25.4248 17.8445 27.8261Z" fill="url(#paint1_linear_3031_41)"/>
</g>
<defs>
<linearGradient id="paint0_linear_3031_41" x1="23.932" y1="7.82611" x2="23.932" y2="38.2609" gradientUnits="userSpaceOnUse">
<stop stop-color="white"/>
<stop offset="1" stop-color="white" stop-opacity="0"/>
</linearGradient>
<linearGradient id="paint1_linear_3031_41" x1="13.4968" y1="9.56521" x2="13.4968" y2="32.1739" gradientUnits="userSpaceOnUse">
<stop stop-color="white" stop-opacity="0"/>
<stop offset="1" stop-color="white"/>
</linearGradient>
<clipPath id="clip0_3031_41">
<rect width="212.941" height="40" fill="white" transform="translate(0.45874)"/>
</clipPath>
</defs>
</svg>
