<svg width="221" height="40" viewBox="0 0 221 40" fill="none" xmlns="http://www.w3.org/2000/svg">
<g clip-path="url(#clip0_2976_30)">
<path d="M55.9058 11.4699H63.7524V33.9465H68.4458V11.4699H76.2924V7.14325H55.9058V11.4699Z" fill="white"/>
<path d="M81.5307 34.4233C84.354 34.4233 86.8107 33.1399 87.5807 31.2699L87.9107 33.9465H91.834V22.9465C91.834 17.9233 88.8274 15.2833 83.9507 15.2833C79.0374 15.2833 75.8107 17.8499 75.8107 21.7733H79.624C79.624 19.8666 81.0907 18.7666 83.7307 18.7666C86.004 18.7666 87.4707 19.7566 87.4707 22.2133V22.6165L82.044 23.0199C77.754 23.3499 75.334 25.4399 75.334 28.7766C75.334 32.1865 77.6807 34.4233 81.5307 34.4233ZM82.9974 31.0499C80.9807 31.0499 79.8807 30.2433 79.8807 28.5933C79.8807 27.1265 80.944 26.2099 83.7307 25.9533L87.5074 25.6599V26.6133C87.5074 29.3999 85.7474 31.0499 82.9974 31.0499Z" fill="white"/>
<path d="M98.4651 12.2032C99.9318 12.2032 101.142 10.9932 101.142 9.48989C101.142 7.98656 99.9318 6.81323 98.4651 6.81323C96.9251 6.81323 95.7151 7.98656 95.7151 9.48989C95.7151 10.9932 96.9251 12.2032 98.4651 12.2032ZM96.2285 33.9465H100.702V15.8332H96.2285V33.9465Z" fill="white"/>
<path d="M109.834 33.9465V6.66656H105.397V33.9465H109.834Z" fill="white"/>
<path d="M117.496 33.9465L119.659 27.7499H129.67L131.833 33.9465H136.783L127.103 7.14325H122.299L112.619 33.9465H117.496ZM124.096 15.1366C124.353 14.4033 124.573 13.5966 124.683 13.0833C124.756 13.6333 125.013 14.4399 125.233 15.1366L128.313 23.7899H121.053L124.096 15.1366Z" fill="white"/>
<path d="M146.103 34.4233C148.853 34.4233 151.201 33.2133 152.301 31.1233L152.593 33.9465H156.701V6.66656H152.263V18.1433C151.127 16.3466 148.891 15.2833 146.361 15.2833C140.897 15.2833 137.597 19.3166 137.597 24.9633C137.597 30.5733 140.861 34.4233 146.103 34.4233ZM147.093 30.3165C143.977 30.3165 142.071 28.0433 142.071 24.8166C142.071 21.5899 143.977 19.2799 147.093 19.2799C150.211 19.2799 152.227 21.5533 152.227 24.8166C152.227 28.0799 150.211 30.3165 147.093 30.3165Z" fill="white"/>
<path d="M165.836 33.9465V23.6799C165.836 20.7466 167.558 19.3533 169.686 19.3533C171.812 19.3533 173.168 20.7099 173.168 23.2399V33.9465H177.642V23.6799C177.642 20.7099 179.292 19.3166 181.456 19.3166C183.582 19.3166 184.976 20.6733 184.976 23.2766V33.9465H189.412V22.1033C189.412 17.9233 186.992 15.2833 182.592 15.2833C179.842 15.2833 177.716 16.6399 176.798 18.7299C175.846 16.6399 173.938 15.2833 171.188 15.2833C168.586 15.2833 166.752 16.4566 165.836 17.9599L165.468 15.8333H161.362V33.9465H165.836Z" fill="white"/>
<path d="M196.04 12.2032C197.507 12.2032 198.717 10.9932 198.717 9.48989C198.717 7.98656 197.507 6.81323 196.04 6.81323C194.5 6.81323 193.29 7.98656 193.29 9.48989C193.29 10.9932 194.5 12.2032 196.04 12.2032ZM193.803 33.9465H198.277V15.8332H193.803V33.9465Z" fill="white"/>
<path d="M207.372 33.9465V24.1933C207.372 21.2599 209.058 19.3533 211.808 19.3533C214.118 19.3533 215.622 20.8199 215.622 23.8633V33.9465H220.095V22.7999C220.095 18.1066 217.748 15.2833 213.202 15.2833C210.745 15.2833 208.545 16.3466 207.408 18.1799L207.042 15.8333H202.898V33.9465H207.372Z" fill="white"/>
<path d="M0.905762 10.5263C0.905762 4.71279 5.61855 0 11.4321 0H30.3794C36.193 0 40.9058 4.71279 40.9058 10.5263V29.4736C40.9058 35.2872 36.193 40 30.3794 40H11.4321C5.61855 40 0.905762 35.2872 0.905762 29.4736V10.5263Z" fill="white" fill-opacity="0.05"/>
<g filter="url(#filter0_d_2976_30)">
<path d="M11.4324 10.5266C11.4324 9.36389 12.3749 8.42133 13.5376 8.42133C14.7004 8.42133 15.6429 9.36389 15.6429 10.5266V29.474C15.6429 30.6366 14.7004 31.5792 13.5376 31.5792C12.3749 31.5792 11.4324 30.6366 11.4324 29.474V10.5266Z" fill="white"/>
</g>
<g opacity="0.9" filter="url(#filter1_d_2976_30)">
<path d="M19.3267 18.947C19.3267 17.7842 20.2693 16.8417 21.4319 16.8417C22.5947 16.8417 23.5372 17.7842 23.5372 18.947V29.4732C23.5372 30.636 22.5947 31.5786 21.4319 31.5786C20.2693 31.5786 19.3267 30.636 19.3267 29.4732V18.947Z" fill="white"/>
</g>
<g opacity="0.7" filter="url(#filter2_d_2976_30)">
<path d="M27.2212 13.6836C27.2212 12.5209 28.1638 11.5784 29.3266 11.5784C30.4892 11.5784 31.4318 12.5209 31.4318 13.6836V29.4731C31.4318 30.6357 30.4892 31.5784 29.3266 31.5784C28.1638 31.5784 27.2212 30.6357 27.2212 29.4731V13.6836Z" fill="white"/>
</g>
</g>
<defs>
<filter id="filter0_d_2976_30" x="10.4324" y="7.92133" width="6.21045" height="25.1579" filterUnits="userSpaceOnUse" color-interpolation-filters="sRGB">
<feFlood flood-opacity="0" result="BackgroundImageFix"/>
<feColorMatrix in="SourceAlpha" type="matrix" values="0 0 0 0 0 0 0 0 0 0 0 0 0 0 0 0 0 0 127 0" result="hardAlpha"/>
<feOffset dy="0.5"/>
<feGaussianBlur stdDeviation="0.5"/>
<feComposite in2="hardAlpha" operator="out"/>
<feColorMatrix type="matrix" values="0 0 0 0 0 0 0 0 0 0 0 0 0 0 0 0 0 0 0.12 0"/>
<feBlend mode="normal" in2="BackgroundImageFix" result="effect1_dropShadow_2976_30"/>
<feBlend mode="normal" in="SourceGraphic" in2="effect1_dropShadow_2976_30" result="shape"/>
</filter>
<filter id="filter1_d_2976_30" x="18.3267" y="16.3417" width="6.21045" height="16.7369" filterUnits="userSpaceOnUse" color-interpolation-filters="sRGB">
<feFlood flood-opacity="0" result="BackgroundImageFix"/>
<feColorMatrix in="SourceAlpha" type="matrix" values="0 0 0 0 0 0 0 0 0 0 0 0 0 0 0 0 0 0 127 0" result="hardAlpha"/>
<feOffset dy="0.5"/>
<feGaussianBlur stdDeviation="0.5"/>
<feComposite in2="hardAlpha" operator="out"/>
<feColorMatrix type="matrix" values="0 0 0 0 0 0 0 0 0 0 0 0 0 0 0 0 0 0 0.12 0"/>
<feBlend mode="normal" in2="BackgroundImageFix" result="effect1_dropShadow_2976_30"/>
<feBlend mode="normal" in="SourceGraphic" in2="effect1_dropShadow_2976_30" result="shape"/>
</filter>
<filter id="filter2_d_2976_30" x="26.2212" y="11.0784" width="6.21069" height="22" filterUnits="userSpaceOnUse" color-interpolation-filters="sRGB">
<feFlood flood-opacity="0" result="BackgroundImageFix"/>
<feColorMatrix in="SourceAlpha" type="matrix" values="0 0 0 0 0 0 0 0 0 0 0 0 0 0 0 0 0 0 127 0" result="hardAlpha"/>
<feOffset dy="0.5"/>
<feGaussianBlur stdDeviation="0.5"/>
<feComposite in2="hardAlpha" operator="out"/>
<feColorMatrix type="matrix" values="0 0 0 0 0 0 0 0 0 0 0 0 0 0 0 0 0 0 0.12 0"/>
<feBlend mode="normal" in2="BackgroundImageFix" result="effect1_dropShadow_2976_30"/>
<feBlend mode="normal" in="SourceGraphic" in2="effect1_dropShadow_2976_30" result="shape"/>
</filter>
<clipPath id="clip0_2976_30">
<rect width="220" height="40" fill="white" transform="translate(0.905762)"/>
</clipPath>
</defs>
</svg>
