<svg width="161" height="40" viewBox="0 0 161 40" fill="none" xmlns="http://www.w3.org/2000/svg">
<g clip-path="url(#clip0_3035_115)">
<path opacity="0.72" d="M40.1993 18.3521C40.1796 18.1526 40.0869 17.9672 39.9388 17.8315C39.7906 17.6957 39.5975 17.6191 39.3963 17.6161H19.3843C18.8409 17.6293 18.3104 17.7839 17.8455 18.0646C17.3806 18.3453 16.9975 18.7423 16.7342 19.2161C16.4905 19.6398 16.3623 20.1197 16.3623 20.6081C16.3623 21.0965 16.4905 21.5763 16.7342 22.0001C16.8038 22.1333 16.9071 22.2462 17.0338 22.3276C17.1605 22.409 17.3063 22.456 17.4569 22.4641H39.4445C39.6457 22.4611 39.8389 22.3844 39.987 22.2487C40.1351 22.1129 40.2278 21.9276 40.2475 21.7281C40.2475 21.1041 40.2475 20.5761 40.2475 20.1281C40.2475 19.6801 40.2475 18.9601 40.1993 18.3521Z" fill="white"/>
<path d="M40.1831 18.3521C40.1672 18.1539 40.0778 17.9688 39.9323 17.8327C39.7869 17.6967 39.5956 17.6194 39.3961 17.6161H36.1839C36.0713 17.6174 35.9601 17.6422 35.8577 17.6891C35.7553 17.736 35.664 17.8038 35.5897 17.8881C35.5148 17.9692 35.4587 18.0657 35.4254 18.1707C35.3921 18.2758 35.3824 18.3869 35.3969 18.4961C35.3969 19.0081 35.3969 19.5201 35.3969 20.0961C35.3929 22.6492 34.7434 25.1602 33.5083 27.3973C32.2732 29.6343 30.4923 31.5255 28.3301 32.8961C28.1052 33.0401 27.8965 33.2161 27.6556 33.3441C26.4771 34.0127 25.2126 34.5187 23.8972 34.8481L26.0013 38.5761C26.0727 38.6994 26.1759 38.8014 26.3001 38.8717C26.4243 38.942 26.565 38.9781 26.7079 38.9761C26.7929 38.9914 26.88 38.9914 26.9649 38.9761L27.4788 38.7681L27.9446 38.5761C28.6551 38.2821 29.347 37.9455 30.0166 37.5681V37.5681C33.148 35.8108 35.7498 33.2502 37.5518 30.1524C39.3538 27.0545 40.2901 23.5324 40.2635 19.9521C40.2635 19.3601 40.2313 18.8961 40.1831 18.3521Z" fill="white"/>
<path d="M28.8146 33.5387C28.7067 33.3562 28.5351 33.2196 28.3327 33.1547H28.1078C27.9684 33.1558 27.831 33.1887 27.7063 33.2507C25.4161 34.5489 22.8248 35.2274 20.1898 35.2187C16.1458 35.2103 12.2698 33.6061 9.41023 30.7574C6.55065 27.9087 4.94039 24.0474 4.9319 20.0187C4.94039 15.99 6.55065 12.1288 9.41023 9.28005C12.2698 6.43133 16.1458 4.82719 20.1898 4.81873C22.8236 4.81957 25.4125 5.49741 27.7063 6.78673C27.8262 6.86254 27.9658 6.9015 28.1078 6.89872H28.2845C28.3946 6.87451 28.4985 6.82791 28.5897 6.76184C28.6809 6.69576 28.7575 6.61163 28.8146 6.51473L30.4207 3.73073C30.5269 3.54557 30.5561 3.32636 30.5021 3.12003C30.448 2.91369 30.3149 2.73663 30.1315 2.62673C27.1084 0.924836 23.6945 0.0318584 20.222 0.0347359C14.9001 0.0431984 9.79849 2.15305 6.03531 5.90195C2.27212 9.65084 0.154247 14.733 0.145752 20.0347C0.154247 25.3365 2.27212 30.4186 6.03531 34.1675C9.79849 37.9164 14.9001 40.0263 20.222 40.0347C23.6945 40.0376 27.1084 39.1446 30.1315 37.4427C30.2234 37.3914 30.304 37.3221 30.3685 37.2392C30.4331 37.1562 30.4802 37.0611 30.5072 36.9597C30.5341 36.8582 30.5404 36.7524 30.5256 36.6485C30.5107 36.5445 30.475 36.4447 30.4207 36.3547L28.8146 33.5387Z" fill="white"/>
<path opacity="0.56" d="M22.4838 22.4H17.4087C17.2647 22.3897 17.1253 22.3451 17.0023 22.2699C16.8793 22.1947 16.7763 22.0912 16.7019 21.968V21.968L26.0334 38.432C26.1049 38.5552 26.208 38.6573 26.3322 38.7276C26.4565 38.7979 26.5972 38.8339 26.74 38.832C26.8304 38.8472 26.9228 38.8472 27.0131 38.832C28.0744 38.4513 29.1008 37.9802 30.0808 37.4239C30.1727 37.3726 30.2532 37.3033 30.3177 37.2204C30.3822 37.1374 30.4293 37.0423 30.4563 36.9409C30.4832 36.8394 30.4896 36.7336 30.4747 36.6297C30.4599 36.5258 30.4242 36.4259 30.3698 36.3359L22.4838 22.4Z" fill="white"/>
</g>
<path d="M62.8719 13.6567V30.6077H59.8797V13.6567H55.3208V10.855H67.4179V13.6567H62.8719Z" fill="white"/>
<path d="M77.6529 18.1471H80.5552V30.6077H77.6529V29.3028C76.4629 30.4115 75.183 30.9659 73.8132 30.9659C72.0838 30.9659 70.6541 30.3433 69.524 29.0981C68.4025 27.8273 67.8417 26.2409 67.8417 24.339C67.8417 22.4712 68.4025 20.9147 69.524 19.6695C70.6455 18.4243 72.0496 17.8017 73.7362 17.8017C75.1916 17.8017 76.4972 18.3987 77.6529 19.5928V18.1471ZM70.7953 24.339C70.7953 25.533 71.1164 26.5053 71.7585 27.2559C72.4177 28.0149 73.2482 28.3945 74.2498 28.3945C75.32 28.3945 76.1847 28.0277 76.8439 27.2942C77.5031 26.5352 77.8327 25.5714 77.8327 24.403C77.8327 23.2345 77.5031 22.2708 76.8439 21.5117C76.1847 20.7697 75.3286 20.3987 74.2755 20.3987C73.2824 20.3987 72.452 20.774 71.7842 21.5245C71.125 22.2836 70.7953 23.2217 70.7953 24.339Z" fill="white"/>
<path d="M87.0918 18.1471V30.6077H84.2023V18.1471H87.0918ZM83.7657 12.9659C83.7657 12.4627 83.9498 12.0277 84.3179 11.661C84.6861 11.2942 85.127 11.1109 85.6406 11.1109C86.1629 11.1109 86.6081 11.2942 86.9762 11.661C87.3443 12.0192 87.5284 12.4584 87.5284 12.9787C87.5284 13.4989 87.3443 13.9424 86.9762 14.3092C86.6166 14.6759 86.1757 14.8593 85.6535 14.8593C85.1312 14.8593 84.6861 14.6759 84.3179 14.3092C83.9498 13.9424 83.7657 13.4947 83.7657 12.9659Z" fill="white"/>
<path d="M93.6412 9V30.6077H90.7517V9H93.6412Z" fill="white"/>
<path d="M108.05 20.322H116.243V20.9744C116.243 22.4584 116.067 23.7719 115.716 24.9147C115.374 25.9723 114.796 26.9616 113.983 27.8827C112.142 29.9467 109.801 30.9787 106.958 30.9787C104.184 30.9787 101.809 29.9808 99.831 27.9851C97.8533 25.9808 96.8645 23.5757 96.8645 20.7697C96.8645 17.9041 97.8705 15.4733 99.8824 13.4776C101.894 11.4733 104.343 10.4712 107.228 10.4712C108.778 10.4712 110.224 10.7868 111.569 11.4179C112.853 12.049 114.116 13.0725 115.357 14.4883L113.225 16.5224C111.598 14.3646 109.617 13.2857 107.279 13.2857C105.182 13.2857 103.422 14.0064 102.001 15.4478C100.58 16.8635 99.8695 18.6375 99.8695 20.7697C99.8695 22.9701 100.661 24.7825 102.245 26.2068C103.726 27.5288 105.332 28.1898 107.061 28.1898C108.534 28.1898 109.856 27.6951 111.029 26.7058C112.202 25.7079 112.857 24.5139 112.994 23.1237H108.05V20.322Z" fill="white"/>
<path d="M119.466 18.1471H122.356V19.2601C122.887 18.7058 123.357 18.3262 123.768 18.1215C124.188 17.9083 124.684 17.8017 125.258 17.8017C126.02 17.8017 126.816 18.049 127.647 18.5437L126.324 21.1791C125.776 20.7868 125.241 20.5906 124.719 20.5906C123.143 20.5906 122.356 21.7761 122.356 24.1471V30.6077H119.466V18.1471Z" fill="white"/>
<path d="M132.604 18.1471V30.6077H129.714V18.1471H132.604ZM129.278 12.9659C129.278 12.4627 129.462 12.0277 129.83 11.661C130.198 11.2942 130.639 11.1109 131.153 11.1109C131.675 11.1109 132.12 11.2942 132.488 11.661C132.856 12.0192 133.04 12.4584 133.04 12.9787C133.04 13.4989 132.856 13.9424 132.488 14.3092C132.128 14.6759 131.688 14.8593 131.165 14.8593C130.643 14.8593 130.198 14.6759 129.83 14.3092C129.462 13.9424 129.278 13.4947 129.278 12.9659Z" fill="white"/>
<path d="M145.484 9H148.386V30.6077H145.484V29.3028C144.345 30.4115 143.057 30.9659 141.619 30.9659C139.906 30.9659 138.485 30.3433 137.355 29.0981C136.234 27.8273 135.673 26.2409 135.673 24.339C135.673 22.4797 136.234 20.9275 137.355 19.6823C138.468 18.4286 139.868 17.8017 141.554 17.8017C143.018 17.8017 144.328 18.3987 145.484 19.5928V9ZM138.627 24.339C138.627 25.533 138.948 26.5053 139.59 27.2559C140.249 28.0149 141.079 28.3945 142.081 28.3945C143.151 28.3945 144.016 28.0277 144.675 27.2942C145.334 26.5352 145.664 25.5714 145.664 24.403C145.664 23.2345 145.334 22.2708 144.675 21.5117C144.016 20.7697 143.16 20.3987 142.107 20.3987C141.114 20.3987 140.283 20.774 139.615 21.5245C138.956 22.2836 138.627 23.2217 138.627 24.339Z" fill="white"/>
<path d="M159.302 20.2708L156.913 21.5373C156.537 20.7697 156.07 20.3859 155.514 20.3859C155.248 20.3859 155.021 20.4755 154.833 20.6546C154.645 20.8252 154.551 21.0469 154.551 21.3198C154.551 21.7974 155.107 22.2708 156.22 22.7399C157.752 23.3966 158.784 24.0021 159.315 24.5565C159.846 25.1109 160.111 25.8571 160.111 26.7953C160.111 27.9979 159.666 29.0043 158.776 29.8145C157.911 30.5821 156.866 30.9659 155.642 30.9659C153.545 30.9659 152.059 29.9467 151.186 27.9083L153.652 26.7697C153.994 27.3667 154.255 27.7463 154.435 27.9083C154.786 28.2324 155.205 28.3945 155.693 28.3945C156.669 28.3945 157.157 27.951 157.157 27.064C157.157 26.5522 156.781 26.0746 156.027 25.6311C155.736 25.4861 155.445 25.3454 155.154 25.209C154.863 25.0725 154.568 24.9318 154.268 24.7868C153.429 24.3774 152.838 23.968 152.496 23.5586C152.059 23.0384 151.841 22.3689 151.841 21.5501C151.841 20.467 152.213 19.5714 152.958 18.8635C153.72 18.1557 154.645 17.8017 155.732 17.8017C157.333 17.8017 158.523 18.6247 159.302 20.2708Z" fill="white"/>
<defs>
<clipPath id="clip0_3035_115">
<rect width="40.1525" height="40" fill="white" transform="translate(0.111084)"/>
</clipPath>
</defs>
</svg>
