<svg fill="none" height="96" viewBox="0 0 333 96" width="333" xmlns="http://www.w3.org/2000/svg"><path d="m77.9039 45.4777c-.0295-.2993-.1682-.5772-.3897-.7809-.2215-.2036-.5104-.3186-.8113-.3231h-29.9285c-.8127.0199-1.6062.2518-2.3014.6729-.6953.421-1.2682 1.0164-1.6619 1.7271-.3645.6357-.5562 1.3555-.5562 2.0881 0 .7325.1917 1.4523.5562 2.0879.1041.1999.2585.3692.448.4913.1896.1221.4076.1926.6327.2047h32.8832c.301-.0044.5898-.1194.8113-.323.2215-.2037.3602-.4816.3897-.781 0-.9359 0-1.728 0-2.4s-.0001-1.752-.0721-2.664z" fill="#0063f7" opacity=".88"/><path d="m51.4088 51.5499h-7.5901c-.2152-.0154-.4238-.0823-.6078-.1951-.1839-.1127-.338-.2681-.4492-.4529l13.9556 24.696c.1068.1849.2611.338.4469.4435.1857.1054.3962.1595.6098.1565.1352.0228.2733.0228.4085 0 1.5871-.571 3.1222-1.2776 4.5878-2.112.1374-.0771.2577-.1809.3542-.3054.0965-.1244.167-.267.2073-.4192s.0498-.3109.0276-.4668-.0756-.3057-.1569-.4406z" fill="#0063f7" opacity=".72"/><path d="m57.691 76.4139c.0118.0001.0237.0002.0355 0 .1271.0229.2573.0229.3844 0l.7685-.312.6967-.288c1.0625-.4409 2.0973-.9458 3.0986-1.512 4.6831-2.6359 8.5743-6.4768 11.2692-11.1236s4.0953-9.9299 4.0554-15.3004c0-.888-.0481-1.584-.1202-2.4-.0238-.2972-.1574-.575-.375-.7791s-.5036-.3199-.802-.3249h-4.8039c-.1685.0019-.3348.0392-.4879.1095s-.2896.172-.4008.2985c-.112.1216-.1959.2664-.2457.424s-.0643.3242-.0425.488v2.4c-.0061 3.8297-.9774 7.5961-2.8245 10.9518-1.8471 3.3556-4.5106 6.1923-7.7443 8.2482-.1278.0821-.2521.1712-.377.2606-.0711.0509-.1425.102-.2147.152-.1187.0237-.2342.0631-.3432.1175-3.425 1.9473-7.3004 2.965-11.241 2.952-6.048-.0127-11.8447-2.4189-16.1213-6.692s-6.6848-10.065-6.6975-16.108c.0127-6.043 2.4209-11.8349 6.6975-16.108s10.0733-6.6793 16.1213-6.692c3.9388.0013 7.8105 1.018 11.241 2.952.1793.1137.3882.1722.6005.168h.2642c.1647-.0363.3201-.1062.4565-.2053.1364-.0992.251-.2253.3363-.3707l2.402-4.176c.1588-.2777.2025-.6066.1217-.9161s-.2799-.5751-.5542-.7399c-4.5212-2.5528-9.6268-3.8923-14.82-3.888-7.9591.0127-15.5886 3.1775-21.2166 8.8008-5.628 5.6234-8.7953 13.2466-8.808 21.1992.0127 7.9526 3.18 15.5758 8.808 21.1992 5.628 5.6233 13.2575 8.7881 21.2166 8.8008 3.3.0027 6.5646-.5371 9.6664-1.5861z" fill="#0063f7"/><g fill="#fff"><path d="m115.574 33.9529v33.9686h-5.973v-33.9686h-9.101v-5.6145h24.15v5.6145z"/><path d="m145.082 42.9514h5.794v24.9701h-5.794v-2.6149c-2.375 2.2218-4.931 3.3328-7.665 3.3328-3.453 0-6.307-1.2477-8.563-3.743-2.239-2.5466-3.358-5.7255-3.358-9.5369 0-3.7429 1.119-6.8621 3.358-9.3574s5.042-3.7429 8.409-3.7429c2.906 0 5.512 1.1963 7.819 3.5891zm-13.69 12.4081c0 2.3928.641 4.3412 1.923 5.8452 1.316 1.5211 2.974 2.2817 4.974 2.2817 2.136 0 3.862-.7349 5.178-2.2048 1.316-1.5211 1.974-3.4524 1.974-5.7939s-.658-4.2728-1.974-5.7939c-1.316-1.4869-3.025-2.2304-5.127-2.2304-1.983 0-3.641.752-4.974 2.2561-1.316 1.5211-1.974 3.4011-1.974 5.64z"/><path d="m163.925 42.9514v24.9701h-5.768v-24.9701zm-6.64-10.3829c0-1.0084.368-1.88 1.103-2.615.735-.7349 1.615-1.1023 2.64-1.1023 1.043 0 1.932.3674 2.667 1.1023.734.7179 1.102 1.5981 1.102 2.6406 0 1.0426-.368 1.9313-1.102 2.6662-.718.735-1.598 1.1024-2.641 1.1024s-1.931-.3674-2.666-1.1024c-.735-.7349-1.103-1.6322-1.103-2.6918z"/><path d="m177 24.6211v43.3004h-5.768v-43.3004z"/><path d="m210.931 47.8021h16.614v1.3359c0 3.0384-.356 5.7276-1.067 8.0675-.695 2.1653-1.867 4.1909-3.516 6.0768-3.732 4.2259-8.48 6.3388-14.244 6.3388-5.625 0-10.442-2.0431-14.453-6.1292-4.01-4.1036-6.015-9.028-6.015-14.773 0-5.8673 2.04-10.844 6.12-14.9302 4.079-4.1036 9.044-6.1554 14.895-6.1554 3.142 0 6.076.6461 8.802 1.9383 2.604 1.2922 5.164 3.3877 7.681 6.2864l-4.322 4.1647c-3.299-4.4179-7.318-6.6269-12.057-6.6269-4.253 0-7.821 1.4756-10.703 4.4267-2.882 2.8987-4.322 6.5308-4.322 10.8964 0 4.5052 1.605 8.2159 4.817 11.1321 3.003 2.7066 6.258 4.06 9.765 4.06 2.986 0 5.668-1.0128 8.047-3.0385 2.378-2.043 3.706-4.4877 3.984-7.3341h-10.026z"/><path d="m234.081 43.3493h5.86v2.2788c1.076-1.1351 2.031-1.9121 2.864-2.3312.851-.4366 1.858-.6549 3.021-.6549 1.545 0 3.159.5065 4.843 1.5193l-2.682 5.3958c-1.111-.8033-2.196-1.2049-3.255-1.2049-3.194 0-4.791 2.4272-4.791 7.2817v13.2276h-5.86z"/><path d="m260.721 43.3493v25.5122h-5.859v-25.5122zm-6.744-10.6083c0-1.0303.373-1.9208 1.119-2.6717.747-.7509 1.641-1.1263 2.682-1.1263 1.059 0 1.962.3754 2.709 1.1263.746.7334 1.119 1.6327 1.119 2.6979s-.373 1.9732-1.119 2.7241c-.729.7509-1.624 1.1263-2.683 1.1263s-1.961-.3754-2.708-1.1263c-.746-.7509-1.119-1.6676-1.119-2.7503z"/><path d="m286.84 24.6211h5.885v44.2404h-5.885v-2.6717c-2.309 2.2701-4.922 3.4051-7.838 3.4051-3.473 0-6.354-1.2747-8.646-3.8242-2.274-2.6019-3.411-5.8498-3.411-9.7439 0-3.8068 1.137-6.9849 3.411-9.5343 2.257-2.567 5.095-3.8505 8.515-3.8505 2.969 0 5.625 1.2224 7.969 3.6671zm-13.906 31.4057c0 2.4447.651 4.4354 1.953 5.9721 1.337 1.5541 3.021 2.3312 5.052 2.3312 2.17 0 3.923-.7509 5.26-2.2527 1.337-1.5541 2.005-3.5273 2.005-5.9196 0-2.3924-.668-4.3656-2.005-5.9197-1.337-1.5192-3.073-2.2788-5.208-2.2788-2.014 0-3.698.7683-5.052 2.305-1.337 1.5541-2.005 3.475-2.005 5.7625z"/><path d="m314.859 47.6973-4.843 2.5932c-.764-1.5716-1.71-2.3574-2.839-2.3574-.538 0-.998.1833-1.38.55-.382.3493-.573.8033-.573 1.3621 0 .9779 1.129 1.947 3.386 2.9074 3.107 1.3446 5.199 2.5844 6.275 3.7195 1.077 1.135 1.615 2.663 1.615 4.5838 0 2.4622-.903 4.5227-2.708 6.1816-1.754 1.5716-3.872 2.3574-6.354 2.3574-4.253 0-7.265-2.0867-9.036-6.2602l5-2.3312c.694 1.2224 1.224 1.9994 1.588 2.3312.712.6636 1.563.9954 2.552.9954 1.979 0 2.969-.9081 2.969-2.7241 0-1.0478-.764-2.0257-2.292-2.9337-.59-.2968-1.18-.585-1.771-.8644-.59-.2794-1.189-.5675-1.796-.8643-1.702-.8382-2.9-1.6764-3.594-2.5146-.885-1.0652-1.328-2.436-1.328-4.1123 0-2.2177.755-4.0513 2.265-5.5006 1.545-1.4494 3.42-2.1741 5.625-2.1741 3.247 0 5.66 1.6851 7.239 5.0553z"/></g></svg>