<svg width="221" height="40" viewBox="0 0 221 40" fill="none" xmlns="http://www.w3.org/2000/svg">
<g clip-path="url(#clip0_2911_56)">
<path d="M55.9338 11.4699H63.7805V33.9465H68.4738V11.4699H76.3205V7.14324H55.9338V11.4699Z" fill="#1C2434"/>
<path d="M81.5588 34.4233C84.3821 34.4233 86.8388 33.1399 87.6088 31.2699L87.9388 33.9465H91.8621V22.9465C91.8621 17.9233 88.8554 15.2832 83.9788 15.2832C79.0654 15.2832 75.8388 17.8499 75.8388 21.7732H79.6521C79.6521 19.8666 81.1188 18.7666 83.7588 18.7666C86.0321 18.7666 87.4988 19.7566 87.4988 22.2132V22.6165L82.0721 23.0199C77.7821 23.3499 75.3621 25.4399 75.3621 28.7766C75.3621 32.1865 77.7088 34.4233 81.5588 34.4233ZM83.0254 31.0499C81.0088 31.0499 79.9088 30.2432 79.9088 28.5932C79.9088 27.1265 80.9721 26.2099 83.7588 25.9532L87.5354 25.6599V26.6132C87.5354 29.3999 85.7754 31.0499 83.0254 31.0499Z" fill="#1C2434"/>
<path d="M98.4932 12.2032C99.9599 12.2032 101.17 10.9932 101.17 9.4899C101.17 7.98656 99.9599 6.81324 98.4932 6.81324C96.9532 6.81324 95.7432 7.98656 95.7432 9.4899C95.7432 10.9932 96.9532 12.2032 98.4932 12.2032ZM96.2565 33.9465H100.73V15.8333H96.2565V33.9465Z" fill="#1C2434"/>
<path d="M109.862 33.9465V6.66656H105.425V33.9465H109.862Z" fill="#1C2434"/>
<path d="M117.524 33.9465L119.687 27.7499H129.698L131.861 33.9465H136.811L127.131 7.14324H122.327L112.647 33.9465H117.524ZM124.124 15.1366C124.381 14.4033 124.601 13.5966 124.711 13.0833C124.784 13.6333 125.041 14.4399 125.261 15.1366L128.341 23.7899H121.081L124.124 15.1366Z" fill="#1C2434"/>
<path d="M146.131 34.4233C148.881 34.4233 151.229 33.2133 152.329 31.1233L152.621 33.9465H156.729V6.66656H152.291V18.1433C151.155 16.3466 148.919 15.2833 146.389 15.2833C140.925 15.2833 137.625 19.3166 137.625 24.9633C137.625 30.5733 140.889 34.4233 146.131 34.4233ZM147.121 30.3165C144.005 30.3165 142.099 28.0433 142.099 24.8166C142.099 21.5899 144.005 19.2799 147.121 19.2799C150.239 19.2799 152.255 21.5533 152.255 24.8166C152.255 28.0799 150.239 30.3165 147.121 30.3165Z" fill="#1C2434"/>
<path d="M165.864 33.9465V23.6799C165.864 20.7466 167.586 19.3532 169.714 19.3532C171.84 19.3532 173.196 20.7099 173.196 23.2399V33.9465H177.67V23.6799C177.67 20.7099 179.32 19.3166 181.484 19.3166C183.61 19.3166 185.004 20.6732 185.004 23.2766V33.9465H189.44V22.1032C189.44 17.9232 187.02 15.2832 182.62 15.2832C179.87 15.2832 177.744 16.6399 176.826 18.7299C175.874 16.6399 173.966 15.2832 171.216 15.2832C168.614 15.2832 166.78 16.4566 165.864 17.9599L165.496 15.8332H161.39V33.9465H165.864Z" fill="#1C2434"/>
<path d="M196.067 12.2032C197.535 12.2032 198.745 10.9932 198.745 9.4899C198.745 7.98656 197.535 6.81324 196.067 6.81324C194.527 6.81324 193.317 7.98656 193.317 9.4899C193.317 10.9932 194.527 12.2032 196.067 12.2032ZM193.831 33.9465H198.305V15.8333H193.831V33.9465Z" fill="#1C2434"/>
<path d="M207.4 33.9465V24.1933C207.4 21.2599 209.086 19.3532 211.836 19.3532C214.146 19.3532 215.65 20.8199 215.65 23.8632V33.9465H220.123V22.7999C220.123 18.1066 217.776 15.2832 213.23 15.2832C210.773 15.2832 208.573 16.3466 207.436 18.1799L207.07 15.8332H202.926V33.9465H207.4Z" fill="#1C2434"/>
<path d="M0.933838 10.5263C0.933838 4.71279 5.64663 0 11.4602 0H30.4075C36.2211 0 40.9338 4.71279 40.9338 10.5263V29.4736C40.9338 35.2872 36.2211 40 30.4075 40H11.4602C5.64663 40 0.933838 35.2872 0.933838 29.4736V10.5263Z" fill="#3C50E0"/>
<g filter="url(#filter0_d_2911_56)">
<path d="M11.4604 10.5266C11.4604 9.3639 12.403 8.42133 13.5657 8.42133C14.7285 8.42133 15.671 9.3639 15.671 10.5266V29.474C15.671 30.6366 14.7285 31.5793 13.5657 31.5793C12.403 31.5793 11.4604 30.6366 11.4604 29.474V10.5266Z" fill="white"/>
</g>
<g opacity="0.9" filter="url(#filter1_d_2911_56)">
<path d="M19.3547 18.947C19.3547 17.7843 20.2974 16.8418 21.46 16.8418C22.6227 16.8418 23.5652 17.7843 23.5652 18.947V29.4733C23.5652 30.636 22.6227 31.5786 21.46 31.5786C20.2974 31.5786 19.3547 30.636 19.3547 29.4733V18.947Z" fill="white"/>
</g>
<g opacity="0.7" filter="url(#filter2_d_2911_56)">
<path d="M27.2493 13.6836C27.2493 12.5209 28.1919 11.5784 29.3546 11.5784C30.5173 11.5784 31.4599 12.5209 31.4599 13.6836V29.4731C31.4599 30.6357 30.5173 31.5784 29.3546 31.5784C28.1919 31.5784 27.2493 30.6357 27.2493 29.4731V13.6836Z" fill="white"/>
</g>
</g>
<defs>
<filter id="filter0_d_2911_56" x="10.4604" y="7.92133" width="6.21045" height="25.1579" filterUnits="userSpaceOnUse" color-interpolation-filters="sRGB">
<feFlood flood-opacity="0" result="BackgroundImageFix"/>
<feColorMatrix in="SourceAlpha" type="matrix" values="0 0 0 0 0 0 0 0 0 0 0 0 0 0 0 0 0 0 127 0" result="hardAlpha"/>
<feOffset dy="0.5"/>
<feGaussianBlur stdDeviation="0.5"/>
<feComposite in2="hardAlpha" operator="out"/>
<feColorMatrix type="matrix" values="0 0 0 0 0 0 0 0 0 0 0 0 0 0 0 0 0 0 0.12 0"/>
<feBlend mode="normal" in2="BackgroundImageFix" result="effect1_dropShadow_2911_56"/>
<feBlend mode="normal" in="SourceGraphic" in2="effect1_dropShadow_2911_56" result="shape"/>
</filter>
<filter id="filter1_d_2911_56" x="18.3547" y="16.3418" width="6.21045" height="16.7369" filterUnits="userSpaceOnUse" color-interpolation-filters="sRGB">
<feFlood flood-opacity="0" result="BackgroundImageFix"/>
<feColorMatrix in="SourceAlpha" type="matrix" values="0 0 0 0 0 0 0 0 0 0 0 0 0 0 0 0 0 0 127 0" result="hardAlpha"/>
<feOffset dy="0.5"/>
<feGaussianBlur stdDeviation="0.5"/>
<feComposite in2="hardAlpha" operator="out"/>
<feColorMatrix type="matrix" values="0 0 0 0 0 0 0 0 0 0 0 0 0 0 0 0 0 0 0.12 0"/>
<feBlend mode="normal" in2="BackgroundImageFix" result="effect1_dropShadow_2911_56"/>
<feBlend mode="normal" in="SourceGraphic" in2="effect1_dropShadow_2911_56" result="shape"/>
</filter>
<filter id="filter2_d_2911_56" x="26.2493" y="11.0784" width="6.21069" height="22" filterUnits="userSpaceOnUse" color-interpolation-filters="sRGB">
<feFlood flood-opacity="0" result="BackgroundImageFix"/>
<feColorMatrix in="SourceAlpha" type="matrix" values="0 0 0 0 0 0 0 0 0 0 0 0 0 0 0 0 0 0 127 0" result="hardAlpha"/>
<feOffset dy="0.5"/>
<feGaussianBlur stdDeviation="0.5"/>
<feComposite in2="hardAlpha" operator="out"/>
<feColorMatrix type="matrix" values="0 0 0 0 0 0 0 0 0 0 0 0 0 0 0 0 0 0 0.12 0"/>
<feBlend mode="normal" in2="BackgroundImageFix" result="effect1_dropShadow_2911_56"/>
<feBlend mode="normal" in="SourceGraphic" in2="effect1_dropShadow_2911_56" result="shape"/>
</filter>
<clipPath id="clip0_2911_56">
<rect width="220" height="40" fill="white" transform="translate(0.933838)"/>
</clipPath>
</defs>
</svg>
