<svg width="161" height="40" viewBox="0 0 161 40" fill="none" xmlns="http://www.w3.org/2000/svg">
<g clip-path="url(#clip0_3035_122)">
<path opacity="0.72" d="M40.1407 18.3521C40.121 18.1525 40.0283 17.9672 39.8802 17.8315C39.732 17.6957 39.5389 17.619 39.3377 17.6161H19.3257C18.7823 17.6293 18.2518 17.7839 17.7869 18.0646C17.322 18.3453 16.9389 18.7422 16.6756 19.2161C16.4319 19.6398 16.3037 20.1197 16.3037 20.6081C16.3037 21.0964 16.4319 21.5763 16.6756 22.0001C16.7452 22.1333 16.8485 22.2462 16.9752 22.3276C17.1019 22.4089 17.2477 22.456 17.3983 22.4641H39.3859C39.5871 22.4611 39.7803 22.3844 39.9284 22.2487C40.0765 22.1129 40.1692 21.9276 40.189 21.7281C40.189 21.1041 40.189 20.5761 40.189 20.1281C40.189 19.6801 40.1889 18.9601 40.1407 18.3521Z" fill="#3758F9"/>
<path d="M40.1243 18.3521C40.1083 18.1539 40.019 17.9687 39.8735 17.8327C39.728 17.6966 39.5368 17.6194 39.3373 17.6161H36.1251C36.0124 17.6173 35.9012 17.6422 35.7988 17.6891C35.6965 17.7359 35.6052 17.8037 35.5308 17.8881C35.456 17.9691 35.3998 18.0656 35.3665 18.1707C35.3332 18.2758 35.3236 18.3868 35.3381 18.4961C35.3381 19.0081 35.3381 19.5201 35.3381 20.0961C35.3341 22.6492 34.6846 25.1601 33.4495 27.3972C32.2144 29.6343 30.4335 31.5254 28.2712 32.896C28.0464 33.04 27.8377 33.2161 27.5968 33.3441C26.4182 34.0127 25.1537 34.5187 23.8384 34.8481L25.9425 38.5761C26.0139 38.6993 26.117 38.8014 26.2413 38.8717C26.3655 38.942 26.5062 38.978 26.6491 38.9761C26.734 38.9913 26.8211 38.9913 26.9061 38.9761L27.42 38.7681L27.8858 38.5761C28.5962 38.2821 29.2882 37.9455 29.9577 37.5681V37.5681C33.0891 35.8108 35.691 33.2502 37.493 30.1523C39.295 27.0545 40.2313 23.5324 40.2046 19.9521C40.2046 19.3601 40.1724 18.8961 40.1243 18.3521Z" fill="#3758F9"/>
<path d="M28.7558 33.5388C28.6478 33.3562 28.4763 33.2196 28.2738 33.1548H28.049C27.9095 33.1559 27.7722 33.1887 27.6474 33.2508C25.3573 34.549 22.766 35.2275 20.131 35.2188C16.087 35.2103 12.211 33.6062 9.3514 30.7574C6.49181 27.9087 4.88155 24.0475 4.87306 20.0188C4.88155 15.9901 6.49181 12.1288 9.3514 9.28008C12.211 6.43136 16.087 4.82722 20.131 4.81876C22.7648 4.8196 25.3536 5.49745 27.6474 6.78676C27.7673 6.86258 27.907 6.90153 28.049 6.89876H28.2256C28.3357 6.87454 28.4397 6.82794 28.5309 6.76187C28.6221 6.69579 28.6987 6.61166 28.7558 6.51476L30.3619 3.73076C30.468 3.5456 30.4973 3.32639 30.4432 3.12006C30.3892 2.91372 30.2561 2.73666 30.0727 2.62676C27.0495 0.924867 23.6356 0.031889 20.1632 0.0347665C14.8412 0.0432289 9.73966 2.15308 5.97647 5.90198C2.21328 9.65087 0.0954088 14.733 0.0869141 20.0348C0.0954088 25.3365 2.21328 30.4187 5.97647 34.1676C9.73966 37.9164 14.8412 40.0263 20.1632 40.0348C23.6356 40.0376 27.0495 39.1447 30.0727 37.4428C30.1646 37.3914 30.2452 37.3222 30.3097 37.2392C30.3742 37.1562 30.4214 37.0612 30.4483 36.9597C30.4753 36.8582 30.4816 36.7524 30.4667 36.6485C30.4519 36.5446 30.4162 36.4447 30.3619 36.3548L28.7558 33.5388Z" fill="#3758F9"/>
<path opacity="0.56" d="M22.425 22.4H17.3499C17.2059 22.3897 17.0664 22.3451 16.9434 22.2699C16.8204 22.1947 16.7174 22.0912 16.6431 21.968V21.968L25.9746 38.432C26.046 38.5552 26.1492 38.6573 26.2734 38.7276C26.3976 38.7979 26.5383 38.8339 26.6812 38.832C26.7716 38.8472 26.8639 38.8472 26.9543 38.832C28.0156 38.4513 29.042 37.9802 30.022 37.4239C30.1139 37.3726 30.1943 37.3033 30.2588 37.2204C30.3234 37.1374 30.3705 37.0423 30.3974 36.9409C30.4244 36.8394 30.4307 36.7336 30.4159 36.6297C30.401 36.5258 30.3653 36.4259 30.311 36.3359L22.425 22.4Z" fill="#3758F9"/>
</g>
<path d="M62.8128 13.6567V30.6077H59.8206V13.6567H55.2617V10.855H67.3588V13.6567H62.8128Z" fill="#111928"/>
<path d="M77.5939 18.1471H80.4961V30.6077H77.5939V29.3028C76.4038 30.4115 75.1239 30.9659 73.7541 30.9659C72.0247 30.9659 70.595 30.3433 69.4649 29.0981C68.3434 27.8273 67.7826 26.2409 67.7826 24.339C67.7826 22.4712 68.3434 20.9147 69.4649 19.6695C70.5864 18.4243 71.9905 17.8017 73.6771 17.8017C75.1325 17.8017 76.4381 18.3987 77.5939 19.5928V18.1471ZM70.7363 24.339C70.7363 25.533 71.0573 26.5053 71.6994 27.2559C72.3586 28.0149 73.1891 28.3945 74.1908 28.3945C75.2609 28.3945 76.1256 28.0277 76.7848 27.2942C77.444 26.5352 77.7737 25.5714 77.7737 24.403C77.7737 23.2345 77.444 22.2708 76.7848 21.5117C76.1256 20.7697 75.2695 20.3987 74.2164 20.3987C73.2233 20.3987 72.3929 20.774 71.7251 21.5245C71.0659 22.2836 70.7363 23.2217 70.7363 24.339Z" fill="#111928"/>
<path d="M87.0327 18.1471V30.6077H84.1433V18.1471H87.0327ZM83.7066 12.9659C83.7066 12.4627 83.8907 12.0277 84.2588 11.661C84.627 11.2942 85.0679 11.1109 85.5816 11.1109C86.1038 11.1109 86.549 11.2942 86.9171 11.661C87.2853 12.0192 87.4693 12.4584 87.4693 12.9787C87.4693 13.4989 87.2853 13.9424 86.9171 14.3092C86.5575 14.6759 86.1166 14.8593 85.5944 14.8593C85.0722 14.8593 84.627 14.6759 84.2588 14.3092C83.8907 13.9424 83.7066 13.4947 83.7066 12.9659Z" fill="#111928"/>
<path d="M93.5821 9V30.6077H90.6927V9H93.5821Z" fill="#111928"/>
<path d="M107.991 20.322H116.184V20.9744C116.184 22.4584 116.008 23.7719 115.657 24.9147C115.315 25.9723 114.737 26.9616 113.924 27.8827C112.083 29.9467 109.742 30.9787 106.899 30.9787C104.125 30.9787 101.75 29.9808 99.7719 27.9851C97.7943 25.9808 96.8054 23.5757 96.8054 20.7697C96.8054 17.9041 97.8114 15.4733 99.8233 13.4776C101.835 11.4733 104.284 10.4712 107.169 10.4712C108.718 10.4712 110.165 10.7868 111.509 11.4179C112.794 12.049 114.056 13.0725 115.298 14.4883L113.166 16.5224C111.539 14.3646 109.557 13.2857 107.22 13.2857C105.123 13.2857 103.363 14.0064 101.942 15.4478C100.521 16.8635 99.8104 18.6375 99.8104 20.7697C99.8104 22.9701 100.602 24.7825 102.186 26.2068C103.667 27.5288 105.273 28.1898 107.002 28.1898C108.474 28.1898 109.797 27.6951 110.97 26.7058C112.143 25.7079 112.798 24.5139 112.935 23.1237H107.991V20.322Z" fill="#111928"/>
<path d="M119.407 18.1471H122.297V19.2601C122.827 18.7058 123.298 18.3262 123.709 18.1215C124.129 17.9083 124.625 17.8017 125.199 17.8017C125.961 17.8017 126.757 18.049 127.588 18.5437L126.265 21.1791C125.717 20.7868 125.182 20.5906 124.66 20.5906C123.084 20.5906 122.297 21.7761 122.297 24.1471V30.6077H119.407V18.1471Z" fill="#111928"/>
<path d="M132.545 18.1471V30.6077H129.655V18.1471H132.545ZM129.218 12.9659C129.218 12.4627 129.403 12.0277 129.771 11.661C130.139 11.2942 130.58 11.1109 131.093 11.1109C131.616 11.1109 132.061 11.2942 132.429 11.661C132.797 12.0192 132.981 12.4584 132.981 12.9787C132.981 13.4989 132.797 13.9424 132.429 14.3092C132.069 14.6759 131.629 14.8593 131.106 14.8593C130.584 14.8593 130.139 14.6759 129.771 14.3092C129.403 13.9424 129.218 13.4947 129.218 12.9659Z" fill="#111928"/>
<path d="M145.425 9H148.327V30.6077H145.425V29.3028C144.286 30.4115 142.998 30.9659 141.56 30.9659C139.847 30.9659 138.426 30.3433 137.296 29.0981C136.175 27.8273 135.614 26.2409 135.614 24.339C135.614 22.4797 136.175 20.9275 137.296 19.6823C138.409 18.4286 139.809 17.8017 141.495 17.8017C142.959 17.8017 144.269 18.3987 145.425 19.5928V9ZM138.567 24.339C138.567 25.533 138.888 26.5053 139.531 27.2559C140.19 28.0149 141.02 28.3945 142.022 28.3945C143.092 28.3945 143.957 28.0277 144.616 27.2942C145.275 26.5352 145.605 25.5714 145.605 24.403C145.605 23.2345 145.275 22.2708 144.616 21.5117C143.957 20.7697 143.101 20.3987 142.048 20.3987C141.054 20.3987 140.224 20.774 139.556 21.5245C138.897 22.2836 138.567 23.2217 138.567 24.339Z" fill="#111928"/>
<path d="M159.243 20.2708L156.854 21.5373C156.478 20.7697 156.011 20.3859 155.455 20.3859C155.189 20.3859 154.962 20.4755 154.774 20.6546C154.586 20.8252 154.491 21.0469 154.491 21.3198C154.491 21.7974 155.048 22.2708 156.161 22.7399C157.693 23.3966 158.725 24.0021 159.256 24.5565C159.787 25.1109 160.052 25.8571 160.052 26.7953C160.052 27.9979 159.607 29.0043 158.716 29.8145C157.852 30.5821 156.807 30.9659 155.583 30.9659C153.486 30.9659 152 29.9467 151.127 27.9083L153.593 26.7697C153.935 27.3667 154.196 27.7463 154.376 27.9083C154.727 28.2324 155.146 28.3945 155.634 28.3945C156.61 28.3945 157.098 27.951 157.098 27.064C157.098 26.5522 156.722 26.0746 155.968 25.6311C155.677 25.4861 155.386 25.3454 155.095 25.209C154.804 25.0725 154.509 24.9318 154.209 24.7868C153.37 24.3774 152.779 23.968 152.437 23.5586C152 23.0384 151.782 22.3689 151.782 21.5501C151.782 20.467 152.154 19.5714 152.899 18.8635C153.661 18.1557 154.586 17.8017 155.673 17.8017C157.274 17.8017 158.464 18.6247 159.243 20.2708Z" fill="#111928"/>
<defs>
<clipPath id="clip0_3035_122">
<rect width="40.1525" height="40" fill="white" transform="translate(0.0522461)"/>
</clipPath>
</defs>
</svg>
