<svg width="170" height="40" viewBox="0 0 170 40" fill="none" xmlns="http://www.w3.org/2000/svg">
<path d="M34.1656 14.7345V27.3065C34.1656 29.861 32.8528 32.2344 30.6928 33.5925L20.5847 39.9497C20.3713 40.0855 20.0868 39.9303 20.0868 39.678V35.2287C20.0868 34.4979 20.4489 33.8189 21.0568 33.4114L27.5045 29.1108C28.4035 28.5094 28.9467 27.5005 28.9467 26.4205V17.7546C28.9467 17.0626 29.3153 16.4224 29.9168 16.0732L33.1956 14.1848C33.6289 13.939 34.1656 14.2495 34.1656 14.7474V14.7345Z" fill="white"/>
<path d="M33.3831 10.9714L19.1038 19.217C18.1014 19.7925 17.487 20.8596 17.487 22.0172V39.3878C17.487 39.64 17.2154 39.7952 17.002 39.6659L3.77031 31.9701C1.43569 30.612 0 28.1221 0 25.4189V14.9034C0 11.7345 1.68791 8.80495 4.43642 7.22051L16.4781 0.261917C17.0796 -0.0873058 17.8168 -0.0873058 18.4183 0.261917L21.4319 2.00156C22.0786 2.37666 22.0786 3.30792 21.4319 3.68301L7.0556 11.9803C6.0532 12.5559 5.43882 13.6229 5.43882 14.7805V24.7787C5.43882 25.9363 6.0532 27.0033 7.0556 27.5789L11.8218 30.3274C11.9253 30.3856 12.0482 30.3145 12.0482 30.1981V20.2646C12.0482 18.2469 13.1217 16.3908 14.8678 15.382L28.6815 7.40805C29.3283 7.03296 30.1302 7.0653 30.7446 7.48566L33.4413 9.32878C34.0298 9.72974 33.9975 10.6093 33.3767 10.9714H33.3831Z" fill="white"/>
<path d="M49.7183 9.17549H54.3298V21.7009C54.3298 22.7289 54.4705 23.6454 54.7517 24.4504C55.033 25.2457 55.45 25.9197 56.0028 26.4725C56.5653 27.0253 57.2587 27.4472 58.0831 27.7381C58.9075 28.0194 59.8676 28.16 60.9635 28.16C62.0497 28.16 63.005 28.0194 63.8294 27.7381C64.6634 27.4472 65.3569 27.0253 65.9097 26.4725C66.4722 25.9197 66.894 25.2457 67.1753 24.4504C67.4565 23.6454 67.5972 22.7289 67.5972 21.7009V9.17549H72.2087V22.2537C72.2087 23.7473 71.9566 25.105 71.4523 26.327C70.948 27.549 70.2157 28.5964 69.2556 29.4693C68.2955 30.3421 67.1171 31.0162 65.7205 31.4914C64.3337 31.9666 62.748 32.2042 60.9635 32.2042C59.179 32.2042 57.5885 31.9666 56.1919 31.4914C54.805 31.0162 53.6315 30.3421 52.6714 29.4693C51.7113 28.5964 50.979 27.549 50.4747 26.327C49.9704 25.105 49.7183 23.7473 49.7183 22.2537V9.17549Z" fill="white"/>
<path d="M75.3947 9.17549H80.0353V31.9133H75.3947V9.17549Z" fill="white"/>
<path d="M82.2029 23.403C82.2029 22.0355 82.4599 20.8038 82.9739 19.7079C83.4879 18.6023 84.1959 17.6616 85.0979 16.8857C86.0095 16.1001 87.086 15.4988 88.3274 15.0818C89.5785 14.6551 90.9314 14.4417 92.3862 14.4417C93.0069 14.4417 93.6179 14.4805 94.2192 14.5581C94.8302 14.6357 95.4121 14.7423 95.9649 14.8781C96.5274 15.0139 97.0511 15.1788 97.536 15.3727C98.0306 15.557 98.467 15.7607 98.8453 15.9837V7.77893H103.151V31.9133H98.8453V30.2985C98.467 30.5604 98.0209 30.8077 97.5069 31.0404C96.9929 31.2732 96.4401 31.4769 95.8485 31.6514C95.2569 31.826 94.641 31.9618 94.0009 32.0588C93.3705 32.1654 92.745 32.2188 92.1243 32.2188C90.6696 32.2188 89.3312 32.0054 88.1092 31.5787C86.8969 31.152 85.8543 30.5507 84.9815 29.7748C84.1086 28.9989 83.4249 28.0727 82.9303 26.9962C82.4454 25.91 82.2029 24.7123 82.2029 23.403ZM86.7272 23.403C86.7272 24.0916 86.863 24.7413 87.1345 25.3523C87.4158 25.9633 87.8134 26.5016 88.3274 26.9671C88.8511 27.4229 89.4767 27.7866 90.204 28.0582C90.9411 28.32 91.7655 28.451 92.6771 28.451C93.259 28.451 93.8409 28.3976 94.4228 28.2909C95.0047 28.1746 95.5624 28.0145 96.0958 27.8109C96.6389 27.6072 97.1432 27.3599 97.6087 27.069C98.0839 26.778 98.4961 26.4531 98.8453 26.0943V20.1443C98.4088 19.7952 97.9482 19.4994 97.4633 19.2569C96.9783 19.0145 96.4837 18.8157 95.9794 18.6605C95.4751 18.5053 94.9659 18.3938 94.4519 18.3259C93.9379 18.2483 93.4384 18.2095 92.9535 18.2095C91.9643 18.2095 91.0817 18.3453 90.3059 18.6168C89.5397 18.8787 88.8899 19.2424 88.3565 19.7079C87.8328 20.1734 87.4303 20.7214 87.1491 21.3518C86.8678 21.9822 86.7272 22.6659 86.7272 23.403Z" fill="white"/>
<path d="M105.755 23.272C105.755 22.1082 105.993 20.9978 106.468 19.9407C106.943 18.8738 107.627 17.9331 108.519 17.1184C109.412 16.3038 110.503 15.654 111.793 15.1691C113.092 14.6842 114.566 14.4417 116.215 14.4417C117.854 14.4417 119.328 14.689 120.637 15.1836C121.956 15.6685 123.072 16.3377 123.983 17.1912C124.905 18.0446 125.608 19.0484 126.093 20.2025C126.587 21.3566 126.835 22.5932 126.835 23.9121C126.835 24.077 126.83 24.2564 126.82 24.4504C126.82 24.6347 126.81 24.8044 126.791 24.9596H110.556C110.74 25.4736 111.036 25.9439 111.443 26.3707C111.86 26.7974 112.379 27.1659 113 27.4763C113.621 27.7866 114.338 28.0291 115.153 28.2037C115.968 28.3685 116.87 28.451 117.859 28.451C118.848 28.451 119.833 28.3491 120.812 28.1455C121.792 27.9321 122.727 27.6654 123.62 27.3454L125.074 30.6331C124.512 30.895 123.94 31.1277 123.358 31.3314C122.786 31.5253 122.184 31.6902 121.554 31.826C120.933 31.9521 120.279 32.0491 119.59 32.1169C118.911 32.1848 118.193 32.2188 117.437 32.2188C115.507 32.2188 113.815 31.986 112.36 31.5205C110.905 31.055 109.688 30.4197 108.708 29.6148C107.729 28.8098 106.992 27.8642 106.497 26.778C106.003 25.6918 105.755 24.5231 105.755 23.272ZM122.267 21.5991C122.112 21.1239 121.869 20.6826 121.539 20.2753C121.219 19.8582 120.817 19.4994 120.332 19.1987C119.847 18.8884 119.285 18.6459 118.644 18.4714C118.004 18.2968 117.301 18.2095 116.535 18.2095C115.72 18.2095 114.978 18.3016 114.309 18.4859C113.64 18.6702 113.053 18.9175 112.549 19.2278C112.045 19.5382 111.623 19.897 111.283 20.3044C110.954 20.7117 110.711 21.1433 110.556 21.5991H122.267Z" fill="white"/>
<path d="M128.58 23.3739C128.58 22.1131 128.808 20.9396 129.264 19.8534C129.73 18.7575 130.404 17.8119 131.286 17.0166C132.179 16.2116 133.265 15.5813 134.545 15.1254C135.835 14.6696 137.304 14.4417 138.953 14.4417C139.67 14.4417 140.393 14.4853 141.12 14.5726C141.848 14.6599 142.546 14.786 143.215 14.9509C143.894 15.106 144.529 15.2952 145.121 15.5182C145.713 15.7316 146.227 15.9692 146.663 16.231L144.67 19.4751C143.729 19.0387 142.837 18.7187 141.993 18.515C141.159 18.3113 140.311 18.2095 139.447 18.2095C138.458 18.2095 137.571 18.3404 136.785 18.6023C136 18.8544 135.33 19.2133 134.778 19.6788C134.235 20.1346 133.818 20.6777 133.527 21.3081C133.245 21.9288 133.105 22.6077 133.105 23.3448C133.105 24.0819 133.255 24.7656 133.556 25.396C133.866 26.0167 134.298 26.5549 134.85 27.0108C135.413 27.4569 136.087 27.8109 136.873 28.0727C137.668 28.3249 138.55 28.451 139.52 28.451C140.587 28.451 141.591 28.3006 142.532 28C143.482 27.6993 144.364 27.2969 145.179 26.7926L147.172 30.0366C146.658 30.347 146.1 30.6379 145.499 30.9095C144.898 31.1714 144.253 31.3993 143.564 31.5932C142.885 31.7872 142.168 31.9375 141.411 32.0442C140.665 32.1606 139.889 32.2188 139.084 32.2188C137.445 32.2188 135.975 31.9957 134.676 31.5496C133.376 31.1035 132.275 30.4876 131.374 29.7021C130.472 28.9068 129.778 27.9709 129.293 26.8944C128.818 25.8179 128.58 24.6444 128.58 23.3739Z" fill="white"/>
<path d="M149.965 7.77893H154.271V22.0355L162.302 14.7472H168.892L159.916 22.7774L169.459 31.9133H163L156.614 25.7306L154.271 27.8254V31.9133H149.965V7.77893Z" fill="white"/>
</svg>
