<svg width="103" height="27" viewBox="0 0 103 27" fill="none" xmlns="http://www.w3.org/2000/svg">
<g clip-path="url(#clip0_1025_102)">
<path d="M94.4408 16.4881L102.55 6.58953H98.5695L91.2986 15.4627V15.4059L88.0037 19.4491L87.2869 20.3288C87.2664 20.3638 87.2465 20.3998 87.2253 20.4349L85.99 21.9422C85.7609 22.1527 85.5188 22.3483 85.2636 22.5255C84.1802 23.2768 82.8847 23.7136 81.4763 23.714V23.7655C80.5392 23.7638 79.6541 23.5696 78.847 23.2191C77.6329 22.6912 76.5953 21.8063 75.8641 20.6943C75.1336 19.5804 74.7081 18.2493 74.7075 16.8016C74.7075 15.8352 74.8969 14.9233 75.2389 14.0914C75.7526 12.8429 76.6138 11.7767 77.6965 11.0252C78.78 10.2743 80.0755 9.83777 81.4845 9.83714C82.9736 9.83777 84.3382 10.3256 85.4572 11.1577L87.2438 8.62388C85.6289 7.41891 83.6309 6.7066 81.4845 6.70701C80.1323 6.70701 78.8368 6.98968 77.6603 7.50116C75.8956 8.26824 74.399 9.54638 73.3395 11.1564C72.2806 12.7655 71.6609 14.7163 71.6616 16.8016C71.6616 16.836 71.6643 16.8711 71.6643 16.9059H71.611C71.611 17.8712 71.4215 18.7838 71.0788 19.6157C70.5651 20.8633 69.7047 21.9302 68.6226 22.6813C67.5389 23.4322 66.243 23.869 64.8345 23.8699C63.894 23.8693 63.0068 23.6749 62.1967 23.3227C60.9828 22.7957 59.945 21.9105 59.2133 20.7981C58.8713 20.2767 58.5965 19.7065 58.4009 19.0997C58.2748 19.0363 58.1387 18.9649 57.9946 18.886C57.3004 18.5039 56.4304 17.9465 55.7169 17.2149C55.418 16.9075 55.1501 16.604 54.9098 16.3102C54.9256 16.5061 54.9348 16.7046 54.9348 16.9059C54.9348 17.8712 54.7458 18.7838 54.4029 19.6157C53.89 20.8633 53.0283 21.9302 51.9462 22.6813C50.8625 23.4322 49.5666 23.869 48.1583 23.8699C47.218 23.8693 46.3305 23.6749 45.5204 23.3227C44.3062 22.7957 43.2686 21.9105 42.5377 20.7981C41.8065 19.6847 41.3814 18.3527 41.3811 16.9059C41.3811 15.94 41.5707 15.0274 41.913 14.1951C42.426 12.9474 43.2875 11.8812 44.3698 11.1297C45.4535 10.3787 46.7489 9.94161 48.1583 9.94134C49.0978 9.94134 49.9855 10.1364 50.7956 10.4881C52.0099 11.0156 53.0473 11.9005 53.7785 13.0127C53.795 13.038 53.8106 13.0636 53.8266 13.0893L53.8313 13.0875L53.8315 13.0897L53.8361 13.1012C53.8364 13.1029 53.838 13.1059 53.8387 13.1084C53.8669 13.1527 53.8931 13.1991 53.9202 13.2437C53.9885 13.4016 54.1247 13.701 54.3398 14.0915C54.3615 14.1306 54.3846 14.1717 54.4078 14.2129C54.4254 14.2562 54.4451 14.2985 54.4617 14.3421C54.6615 14.6767 54.916 15.0613 55.2303 15.4736C55.2475 15.4963 55.2633 15.5184 55.2808 15.5409C55.5557 15.9041 55.8788 16.283 56.2488 16.6544C56.2511 16.6572 56.2533 16.6594 56.2553 16.6614C56.2582 16.6645 56.2612 16.6669 56.2639 16.67C56.3226 16.7289 56.3818 16.7867 56.4432 16.8448C56.4672 16.867 56.4908 16.8895 56.515 16.9116C56.9026 17.2734 57.3374 17.6233 57.8302 17.9377C58.3839 18.2913 59.0078 18.5983 59.6986 18.8191C60.3897 19.0405 61.1475 19.1746 61.9573 19.1873H61.9583C62.0282 19.1885 62.0965 19.1893 62.1646 19.1893C63.4698 19.1895 64.6401 18.9799 65.6677 18.6065C66.4389 18.3269 67.1276 17.9566 67.732 17.5276C68.639 16.8829 69.3545 16.1101 69.9119 15.3183C70.4694 14.5248 70.8709 13.7117 71.1636 12.9613C71.3873 12.3868 71.5022 11.8162 71.5022 11.2697C71.5022 10.9553 71.4646 10.6517 71.3942 10.3688C71.2717 9.87349 71.0528 9.45035 70.8093 9.11742C70.4413 8.61571 70.0296 8.30313 69.7095 8.10028C69.3859 7.89848 69.1452 7.80515 69.0733 7.7785L69.0679 7.79615C67.7845 7.16581 66.3461 6.81135 64.8345 6.81162C63.4822 6.81135 62.1863 7.0936 61.0101 7.60528C59.859 8.1061 58.823 8.82451 57.9464 9.71031V0.0166016H54.9014V8.46028C55.0875 8.64333 55.2808 8.84188 55.4814 9.05865C56.2518 9.89087 56.7509 10.6951 57.1889 11.4347C57.6278 12.1765 58.0067 12.8486 58.5391 13.4621C58.6199 13.5561 58.7058 13.6485 58.7954 13.7403C59.3186 12.6885 60.0974 11.7883 61.0463 11.1297C62.1291 10.3787 63.4254 9.94161 64.8345 9.94134C66.0698 9.94161 67.217 10.2775 68.2133 10.8672L68.2253 10.8456C68.2905 10.8979 68.35 10.9585 68.3832 11.0105C68.4078 11.0473 68.4235 11.0791 68.4352 11.1157C68.4461 11.1523 68.4564 11.195 68.4564 11.2697C68.4564 11.3701 68.4372 11.5363 68.3356 11.7987C68.1443 12.2903 67.8914 12.8088 67.5677 13.3012C67.3249 13.6705 67.0423 14.0255 66.7164 14.349C66.2254 14.8344 65.6397 15.2513 64.9047 15.5569C64.1699 15.862 63.2799 16.0588 62.1646 16.0591C62.1123 16.0591 62.0603 16.0588 62.0082 16.0581H62.0075C61.5468 16.0501 61.132 15.9836 60.7466 15.8739C60.0746 15.682 59.4908 15.3553 58.9778 14.9538C58.7986 14.8137 58.6294 14.6632 58.4692 14.5077C58.4692 14.507 58.4695 14.505 58.4705 14.5036C58.3936 14.4307 58.3199 14.357 58.248 14.2836C57.8269 13.8374 57.4828 13.3654 57.2304 12.9588C57.0377 12.6494 56.8395 12.3916 56.7499 12.2082C56.7052 12.1161 56.6161 11.9732 56.6161 11.9732C56.1605 11.2011 55.6869 10.4164 54.9301 9.59802C54.9202 9.58715 54.9103 9.57822 54.9014 9.56728V9.56784C54.5124 9.19074 54.0955 8.84451 53.6508 8.53595C52.085 7.4482 50.1871 6.81079 48.1583 6.81162C46.8059 6.81135 45.5104 7.0936 44.334 7.60528C42.5692 8.37285 41.0724 9.65084 40.0135 11.2607C38.9548 12.8697 38.3346 14.8202 38.3352 16.9059C38.3346 18.295 38.6098 19.6269 39.1076 20.835C39.8542 22.6488 41.0978 24.1865 42.6649 25.2747C44.2307 26.3632 46.1287 27.0002 48.1583 26.9999C49.5101 27 50.8062 26.7173 51.9822 26.2055C53.7469 25.4382 55.2433 24.1604 56.3027 22.5505C56.3689 22.4489 56.4338 22.3467 56.4968 22.2424C57.2287 23.4475 58.1984 24.481 59.3406 25.2747C60.9067 26.3632 62.8047 27.0002 64.8345 26.9999C66.1858 27 67.4819 26.7173 68.6582 26.2055C70.4215 25.4382 71.9195 24.1604 72.9776 22.5505C73.0515 22.439 73.1226 22.3256 73.191 22.2102C73.9181 23.3842 74.8709 24.3928 75.992 25.1704C77.5577 26.2586 79.4551 26.8956 81.4845 26.8954C82.8354 26.8956 84.133 26.6131 85.3081 26.1015C86.408 25.6237 87.4025 24.9474 88.2527 24.1162V26.9343H91.2986V20.3223L92.4415 18.9283L98.6946 26.9343H102.6L94.4408 16.4881ZM91.2986 0.0166016H88.2527V16.7531C88.2527 17.2071 88.2096 17.6488 88.1282 18.0769L91.2986 14.1871V0.0166016Z" fill="#788293"/>
<path d="M17.4517 7.19654V15.399C17.4517 19.2201 15.1688 21.5281 11.7081 21.5281C8.24706 21.5281 5.81737 19.2201 5.81737 15.399V0H0V15.399C0 22.3984 4.56508 26.7496 11.7081 26.7496C18.8139 26.7496 23.2691 22.3984 23.2691 15.399V0H23.1669C20.0991 1.01223 17.8104 3.80582 17.4517 7.19654Z" fill="#788293"/>
<path d="M28.2491 0H28.1492V26.4851H33.9667V7.20187C33.9117 4.25866 31.3188 1.01288 28.2491 0Z" fill="#788293"/>
<path d="M17.4517 7.19654V15.399C17.4517 15.4039 17.4514 15.4088 17.4514 15.4143C17.4528 15.4959 17.4571 15.5768 17.4571 15.659C17.4571 21.1831 13.4084 25.733 8.19482 26.353C9.27985 26.6127 10.4535 26.7496 11.7081 26.7496C18.8139 26.7496 23.2692 22.3984 23.2692 15.399V0H23.167C20.0991 1.01223 17.8104 3.80582 17.4517 7.19654Z" fill="#788293"/>
<path d="M5.81737 7.20983V0H0V0.00116862C3.0929 1.01522 5.41055 3.80816 5.81737 7.20983Z" fill="#788293"/>
<path d="M28.1492 18.6367V26.4853H33.8957C30.6911 25.3232 28.3542 22.2745 28.1492 18.6367Z" fill="#788293"/>
</g>
<defs>
<clipPath id="clip0_1025_102">
<rect width="102.6" height="27" fill="white"/>
</clipPath>
</defs>
</svg>
