<svg width="171" height="40" viewBox="0 0 171 40" fill="none" xmlns="http://www.w3.org/2000/svg">
<path d="M35.0992 14.7345V27.3065C35.0992 29.861 33.7864 32.2344 31.6264 33.5925L21.5183 39.9497C21.3049 40.0855 21.0204 39.9303 21.0204 39.678V35.2287C21.0204 34.4979 21.3825 33.8189 21.9904 33.4114L28.4381 29.1108C29.337 28.5094 29.8803 27.5005 29.8803 26.4205V17.7546C29.8803 17.0626 30.2489 16.4224 30.8503 16.0732L34.1292 14.1848C34.5625 13.939 35.0992 14.2495 35.0992 14.7474V14.7345Z" fill="#625DF5"/>
<path d="M34.3167 10.9714L20.0374 19.217C19.035 19.7925 18.4206 20.8596 18.4206 22.0172V39.3878C18.4206 39.64 18.149 39.7952 17.9356 39.6659L4.70391 31.9701C2.36929 30.612 0.933594 28.1221 0.933594 25.4189V14.9034C0.933594 11.7345 2.6215 8.80495 5.37002 7.22051L17.4117 0.261917C18.0132 -0.0873058 18.7504 -0.0873058 19.3519 0.261917L22.3655 2.00156C23.0122 2.37666 23.0122 3.30792 22.3655 3.68301L7.98919 11.9803C6.98679 12.5559 6.37242 13.6229 6.37242 14.7805V24.7787C6.37242 25.9363 6.98679 27.0033 7.98919 27.5789L12.7554 30.3274C12.8589 30.3856 12.9818 30.3145 12.9818 30.1981V20.2646C12.9818 18.2469 14.0553 16.3908 15.8014 15.382L29.6151 7.40805C30.2618 7.03296 31.0638 7.0653 31.6781 7.48566L34.3749 9.32878C34.9634 9.72974 34.9311 10.6093 34.3102 10.9714H34.3167Z" fill="#625DF5"/>
<path d="M50.6519 9.17545H55.2634V21.7009C55.2634 22.7289 55.404 23.6454 55.6853 24.4504C55.9666 25.2456 56.3836 25.9197 56.9364 26.4725C57.4989 27.0253 58.1923 27.4471 59.0167 27.7381C59.841 28.0193 60.8012 28.16 61.8971 28.16C62.9833 28.16 63.9386 28.0193 64.763 27.7381C65.597 27.4471 66.2904 27.0253 66.8433 26.4725C67.4058 25.9197 67.8276 25.2456 68.1089 24.4504C68.3901 23.6454 68.5308 22.7289 68.5308 21.7009V9.17545H73.1423V22.2537C73.1423 23.7472 72.8902 25.105 72.3859 26.327C71.8816 27.549 71.1493 28.5964 70.1892 29.4693C69.2291 30.3421 68.0507 31.0161 66.6541 31.4914C65.2673 31.9666 63.6816 32.2042 61.8971 32.2042C60.1126 32.2042 58.5221 31.9666 57.1255 31.4914C55.7386 31.0161 54.5651 30.3421 53.605 29.4693C52.6449 28.5964 51.9126 27.549 51.4083 26.327C50.904 25.105 50.6519 23.7472 50.6519 22.2537V9.17545Z" fill="#101828"/>
<path d="M76.3282 9.17545H80.9689V31.9132H76.3282V9.17545Z" fill="#101828"/>
<path d="M83.1365 23.4029C83.1365 22.0355 83.3935 20.8038 83.9075 19.7079C84.4215 18.6022 85.1295 17.6615 86.0314 16.8856C86.9431 16.1001 88.0196 15.4988 89.261 15.0817C90.5121 14.655 91.865 14.4417 93.3198 14.4417C93.9405 14.4417 94.5515 14.4804 95.1527 14.558C95.7637 14.6356 96.3456 14.7423 96.8984 14.8781C97.461 15.0139 97.9847 15.1787 98.4696 15.3727C98.9642 15.557 99.4006 15.7606 99.7789 15.9837V7.77889H104.085V31.9132H99.7789V30.2985C99.4006 30.5603 98.9545 30.8076 98.4405 31.0404C97.9265 31.2731 97.3737 31.4768 96.7821 31.6514C96.1905 31.826 95.5746 31.9617 94.9345 32.0587C94.3041 32.1654 93.6786 32.2187 93.0579 32.2187C91.6032 32.2187 90.2648 32.0054 89.0428 31.5786C87.8305 31.1519 86.7879 30.5506 85.9151 29.7748C85.0422 28.9989 84.3585 28.0727 83.8639 26.9962C83.3789 25.91 83.1365 24.7122 83.1365 23.4029ZM87.6608 23.4029C87.6608 24.0915 87.7965 24.7413 88.0681 25.3523C88.3494 25.9633 88.747 26.5016 89.261 26.9671C89.7847 27.4229 90.4103 27.7866 91.1376 28.0581C91.8747 28.32 92.6991 28.4509 93.6107 28.4509C94.1926 28.4509 94.7745 28.3976 95.3564 28.2909C95.9383 28.1745 96.496 28.0145 97.0294 27.8108C97.5725 27.6072 98.0768 27.3599 98.5423 27.0689C99.0175 26.778 99.4297 26.4531 99.7789 26.0942V20.1443C99.3424 19.7951 98.8818 19.4993 98.3968 19.2569C97.9119 19.0144 97.4173 18.8156 96.913 18.6604C96.4087 18.5053 95.8995 18.3937 95.3855 18.3258C94.8715 18.2483 94.372 18.2095 93.8871 18.2095C92.8979 18.2095 92.0153 18.3452 91.2395 18.6168C90.4733 18.8787 89.8235 19.2423 89.2901 19.7079C88.7664 20.1734 88.3639 20.7213 88.0826 21.3517C87.8014 21.9821 87.6608 22.6659 87.6608 23.4029Z" fill="#101828"/>
<path d="M106.689 23.272C106.689 22.1082 106.927 20.9977 107.402 19.9406C107.877 18.8738 108.561 17.9331 109.453 17.1184C110.345 16.3037 111.436 15.654 112.726 15.169C114.026 14.6841 115.5 14.4417 117.149 14.4417C118.788 14.4417 120.262 14.689 121.571 15.1836C122.89 15.6685 124.005 16.3377 124.917 17.1911C125.838 18.0446 126.541 19.0484 127.026 20.2025C127.521 21.3566 127.768 22.5931 127.768 23.9121C127.768 24.077 127.763 24.2564 127.754 24.4504C127.754 24.6346 127.744 24.8043 127.725 24.9595H111.49C111.674 25.4735 111.97 25.9439 112.377 26.3706C112.794 26.7974 113.313 27.1659 113.934 27.4762C114.554 27.7866 115.272 28.029 116.087 28.2036C116.901 28.3685 117.803 28.4509 118.792 28.4509C119.782 28.4509 120.766 28.3491 121.746 28.1454C122.725 27.9321 123.661 27.6654 124.553 27.3453L126.008 30.6331C125.446 30.8949 124.873 31.1277 124.291 31.3313C123.719 31.5253 123.118 31.6902 122.488 31.826C121.867 31.952 121.212 32.049 120.524 32.1169C119.845 32.1848 119.127 32.2187 118.371 32.2187C116.441 32.2187 114.748 31.986 113.294 31.5205C111.839 31.0549 110.622 30.4197 109.642 29.6147C108.663 28.8098 107.925 27.8642 107.431 26.778C106.936 25.6917 106.689 24.5231 106.689 23.272ZM123.2 21.599C123.045 21.1238 122.803 20.6825 122.473 20.2752C122.153 19.8582 121.75 19.4993 121.266 19.1987C120.781 18.8884 120.218 18.6459 119.578 18.4713C118.938 18.2968 118.235 18.2095 117.469 18.2095C116.654 18.2095 115.912 18.3016 115.243 18.4859C114.574 18.6701 113.987 18.9174 113.483 19.2278C112.978 19.5381 112.556 19.897 112.217 20.3043C111.887 20.7116 111.645 21.1432 111.49 21.599H123.2Z" fill="#101828"/>
<path d="M129.514 23.3738C129.514 22.1131 129.742 20.9396 130.198 19.8533C130.663 18.7574 131.337 17.8118 132.22 17.0166C133.112 16.2116 134.198 15.5812 135.478 15.1254C136.768 14.6696 138.238 14.4417 139.886 14.4417C140.604 14.4417 141.327 14.4853 142.054 14.5726C142.781 14.6599 143.48 14.7859 144.149 14.9508C144.828 15.106 145.463 15.2951 146.055 15.5182C146.646 15.7315 147.16 15.9691 147.597 16.231L145.604 19.4751C144.663 19.0387 143.771 18.7186 142.927 18.515C142.093 18.3113 141.244 18.2095 140.381 18.2095C139.392 18.2095 138.504 18.3404 137.719 18.6022C136.933 18.8544 136.264 19.2132 135.711 19.6788C135.168 20.1346 134.751 20.6777 134.46 21.3081C134.179 21.9288 134.038 22.6077 134.038 23.3447C134.038 24.0818 134.189 24.7656 134.489 25.3959C134.8 26.0166 135.231 26.5549 135.784 27.0107C136.346 27.4568 137.021 27.8108 137.806 28.0727C138.601 28.3248 139.484 28.4509 140.454 28.4509C141.521 28.4509 142.524 28.3006 143.465 28C144.416 27.6993 145.298 27.2968 146.113 26.7925L148.106 30.0366C147.592 30.347 147.034 30.6379 146.433 30.9095C145.831 31.1713 145.187 31.3992 144.498 31.5932C143.819 31.7872 143.101 31.9375 142.345 32.0442C141.598 32.1605 140.822 32.2187 140.017 32.2187C138.378 32.2187 136.909 31.9957 135.609 31.5496C134.31 31.1034 133.209 30.4876 132.307 29.702C131.405 28.9067 130.712 27.9709 130.227 26.8943C129.752 25.8178 129.514 24.6443 129.514 23.3738Z" fill="#101828"/>
<path d="M150.899 7.77889H155.205V22.0355L163.235 14.7472H169.825L160.849 22.7774L170.393 31.9132H163.933L157.547 25.7305L155.205 27.8254V31.9132H150.899V7.77889Z" fill="#101828"/>
</svg>
