<svg width="61" height="61" viewBox="0 0 61 61" fill="none" xmlns="http://www.w3.org/2000/svg">
<g clip-path="url(#clip0_3194_41534)">
<g clip-path="url(#clip1_3194_41534)">
<g clip-path="url(#clip2_3194_41534)">
<mask id="mask0_3194_41534" style="mask-type:luminance" maskUnits="userSpaceOnUse" x="-6" y="-6" width="74" height="74">
<path d="M67.3008 -5.94531H-5.69922V67.0547H67.3008V-5.94531Z" fill="white"/>
</mask>
<g mask="url(#mask0_3194_41534)">
<path d="M10.431 63.6657C9.02462 63.6644 7.88552 62.5233 7.88672 61.117C7.88732 60.4429 8.15512 59.7966 8.63152 59.3196L22.2129 45.7382C23.2418 44.7794 24.8531 44.8363 25.8119 45.8653C26.7232 46.8432 26.7232 48.3593 25.8119 49.3373L12.2305 62.9187C11.7547 63.3983 11.1066 63.6673 10.431 63.6657Z" fill="black"/>
<path d="M51.1738 63.6655C50.4982 63.6672 49.8501 63.3981 49.3743 62.9186L35.7929 49.3372C34.8341 48.3083 34.891 46.6969 35.9199 45.7381C36.8979 44.8269 38.414 44.8269 39.3919 45.7381L52.9733 59.3195C53.9672 60.3145 53.9662 61.9269 52.9711 62.9207C52.4941 63.3971 51.8479 63.6649 51.1738 63.6655Z" fill="black"/>
<path d="M30.8004 63.6588C29.3941 63.6588 28.2539 62.5187 28.2539 61.1123V47.5309C28.2539 46.1245 29.3941 44.9844 30.8004 44.9844C32.2068 44.9844 33.3469 46.1245 33.3469 47.5309V61.1123C33.3469 62.5187 32.2068 63.6588 30.8004 63.6588Z" fill="black"/>
<path d="M57.9636 -2.54688H3.63799C-1.51728 -2.54315 -5.69549 1.63507 -5.69922 6.79031V40.7438C-5.69549 45.8991 -1.51728 50.0773 3.63799 50.081H57.9636C63.1189 50.0773 67.2971 45.8991 67.3008 40.7438V6.79031C67.2971 1.63507 63.1189 -2.54315 57.9636 -2.54688ZM49.4752 39.895H12.1264C10.72 39.895 9.57988 38.7548 9.57988 37.3485C9.57988 35.9421 10.72 34.802 12.1264 34.802H14.6729V16.9764C14.6729 15.57 15.813 14.4299 17.2194 14.4299C18.6258 14.4299 19.7659 15.57 19.7659 16.9764V34.802H28.2543V10.1857C28.2543 8.7793 29.3944 7.6392 30.8008 7.6392C32.2072 7.6392 33.3473 8.7793 33.3473 10.1857V34.802H41.8357V16.9764C41.8357 15.57 42.9758 14.4299 44.3822 14.4299C45.7886 14.4299 46.9287 15.57 46.9287 16.9764V34.802H49.4752C50.8816 34.802 52.0217 35.9421 52.0217 37.3485C52.0217 38.7548 50.8816 39.895 49.4752 39.895Z" fill="black"/>
</g>
</g>
</g>
</g>
<defs>
<clipPath id="clip0_3194_41534">
<rect width="60" height="59.19" fill="white" transform="translate(0.800781 0.960938)"/>
</clipPath>
<clipPath id="clip1_3194_41534">
<rect width="60" height="59.19" fill="white" transform="translate(0.800781 0.960938)"/>
</clipPath>
<clipPath id="clip2_3194_41534">
<rect width="74" height="73" fill="white" transform="translate(-6.19922 -5.94531)"/>
</clipPath>
</defs>
</svg>
