<svg width="60" height="60" viewBox="0 0 60 60" fill="none" xmlns="http://www.w3.org/2000/svg">
<g clip-path="url(#clip0_3194_41553)">
<g clip-path="url(#clip1_3194_41553)">
<g clip-path="url(#clip2_3194_41553)">
<mask id="mask0_3194_41553" style="mask-type:luminance" maskUnits="userSpaceOnUse" x="-7" y="-7" width="74" height="74">
<path d="M66.5 -6.90625H-6.5V66.0938H66.5V-6.90625Z" fill="white"/>
</mask>
<g mask="url(#mask0_3194_41553)">
<path d="M65.1732 44.9362L63.8006 44.25L32.8672 59.7166C31.0919 60.616 28.9041 60.616 27.1288 59.7166L-3.80451 44.25L-5.17711 44.9362C-5.9017 45.2984 -6.35938 46.0389 -6.35938 46.8491C-6.35938 47.6592 -5.9017 48.3997 -5.17711 48.7619L29.0416 65.8713C29.6436 66.1724 30.3526 66.1724 30.9544 65.8713L65.1732 48.7619C65.8978 48.3997 66.3554 47.6592 66.3554 46.8491C66.3554 46.0389 65.8978 45.2984 65.1732 44.9362Z" fill="black"/>
<path d="M65.1732 34.9519L63.8006 34.2656L32.8672 49.7322C31.0919 50.6316 28.9041 50.6316 27.1288 49.7322L-3.80451 34.2656L-5.17711 34.9519C-5.9017 35.314 -6.35938 36.0546 -6.35938 36.8647C-6.35938 37.6748 -5.9017 38.4154 -5.17711 38.7775L29.0416 55.8869C29.6436 56.188 30.3526 56.188 30.9544 55.8869L65.1732 38.7775C65.8978 38.4154 66.3554 37.6748 66.3554 36.8647C66.3554 36.0546 65.8978 35.314 65.1732 34.9519Z" fill="black"/>
<path d="M11.1893 18.2614L15.4666 25.6702C16.0572 26.693 17.3652 27.0435 18.3882 26.4529L20.1493 25.4361C21.2172 26.2458 22.3642 26.913 23.5811 27.4322V29.4511C23.5811 30.6322 24.5387 31.5899 25.7198 31.5899H34.2745C35.4556 31.5899 36.4132 30.6322 36.4132 29.4511V27.4322C37.6301 26.913 38.7771 26.2458 39.845 25.4361L41.6062 26.4529C42.629 27.0434 43.937 26.693 44.5276 25.6702L48.8049 18.2614C49.3955 17.2386 49.045 15.9306 48.0222 15.34L46.2685 14.3274C46.3517 13.6616 46.3936 12.9977 46.3936 12.3417C46.3936 11.6859 46.3517 11.022 46.2686 10.3561L48.0223 9.34355C49.0452 8.75295 49.3956 7.44495 48.8051 6.42205L44.5277 -0.98655C43.9372 -2.0094 42.6292 -2.36 41.6063 -1.7693L39.845 -0.75258C38.7774 -1.56214 37.6301 -2.22955 36.4132 -2.74867V-4.76758C36.4132 -5.9487 35.4556 -6.90625 34.2745 -6.90625H25.7198C24.5387 -6.90625 23.5811 -5.9487 23.5811 -4.76758V-2.74867C22.3642 -2.22955 21.2169 -1.56214 20.1493 -0.75258L18.3882 -1.76945C17.3653 -2.36 16.0573 -2.00955 15.4667 -0.98669L11.1894 6.42195C10.5988 7.44485 10.9493 8.75285 11.9721 9.34335L13.7259 10.3559C13.6426 11.022 13.6007 11.6859 13.6007 12.3417C13.6007 12.9977 13.6426 13.6616 13.7257 14.3274L11.972 15.34C10.9491 15.9306 10.5987 17.2386 11.1893 18.2614ZM29.9972 5.92575C33.535 5.92575 36.4132 8.80405 36.4132 12.3417C36.4132 15.8795 33.535 18.7579 29.9972 18.7579C26.4594 18.7579 23.5811 15.8795 23.5811 12.3417C23.5811 8.80405 26.4594 5.92575 29.9972 5.92575Z" fill="black"/>
<path d="M-5.17711 28.7955L29.0416 45.9048C29.6436 46.2059 30.3526 46.2059 30.9544 45.9048L65.1732 28.7955C65.8978 28.4333 66.3554 27.6928 66.3554 26.8826C66.3554 26.0725 65.8978 25.3319 65.1732 24.9698L53.1242 18.9453C52.9829 19.4425 52.7801 19.9304 52.5104 20.3977L48.2329 27.8065C47.0906 29.7854 44.9606 31.015 42.6745 31.015C42.6743 31.015 42.6747 31.015 42.6745 31.015C41.9591 31.015 41.2494 30.8942 40.5766 30.6612C40.0081 33.6214 37.3988 35.865 34.2753 35.865H25.7207C22.5972 35.865 19.9879 33.6214 19.4196 30.6612C18.7467 30.8943 18.0373 31.015 17.3217 31.015C15.0354 31.015 12.9054 29.7855 11.763 27.8062L7.48585 20.3982C7.21835 19.9351 7.01235 19.448 6.86875 18.947L-5.17711 24.9698C-5.9017 25.3319 -6.35938 26.0725 -6.35938 26.8826C-6.35938 27.6928 -5.9017 28.4333 -5.17711 28.7955Z" fill="black"/>
</g>
</g>
</g>
</g>
<defs>
<clipPath id="clip0_3194_41553">
<rect width="60" height="59.19" fill="white"/>
</clipPath>
<clipPath id="clip1_3194_41553">
<rect width="60" height="59.19" fill="white"/>
</clipPath>
<clipPath id="clip2_3194_41553">
<rect width="74" height="73" fill="white" transform="translate(-7 -6.90625)"/>
</clipPath>
</defs>
</svg>
