<svg width="60" height="60" viewBox="0 0 60 60" fill="none" xmlns="http://www.w3.org/2000/svg">
<g clip-path="url(#clip0_3194_41594)">
<g clip-path="url(#clip1_3194_41594)">
<path fill-rule="evenodd" clip-rule="evenodd" d="M50.5312 17.427C50.5312 12.8067 46.7869 9.0625 42.1666 9.0625H17.8333C13.213 9.0625 9.46875 12.8067 9.46875 17.427V41.7604C9.46875 46.3807 13.213 50.1249 17.8333 50.1249H42.1666C46.7869 50.1249 50.5312 46.3807 50.5312 41.7604V17.427ZM36.0833 23.5104V35.677C36.0833 36.9363 37.1053 37.9583 38.3646 37.9583C39.6238 37.9583 40.6458 36.9363 40.6458 35.677V23.5104C40.6458 22.2511 39.6238 21.2291 38.3646 21.2291C37.1053 21.2291 36.0833 22.2511 36.0833 23.5104ZM33.0416 35.677V26.552C33.0416 23.6138 30.66 21.2291 27.7188 21.2291H24.677C21.7358 21.2291 19.3542 23.6138 19.3542 26.552V35.677C19.3542 36.9363 20.3762 37.9583 21.6354 37.9583C22.8947 37.9583 23.9167 36.9363 23.9167 35.677V33.3958H28.4791V35.677C28.4791 36.9363 29.5012 37.9583 30.7603 37.9583C32.0196 37.9583 33.0416 36.9363 33.0416 35.677ZM23.9167 28.8333H28.4791V26.552C28.4791 26.1323 28.1385 25.7916 27.7188 25.7916H24.677C24.2572 25.7916 23.9167 26.1323 23.9167 26.552V28.8333Z" fill="black"/>
<path fill-rule="evenodd" clip-rule="evenodd" d="M48.25 31.8749H60.4167C61.6759 31.8749 62.6978 30.853 62.6978 29.5937C62.6978 28.3344 61.6759 27.3125 60.4167 27.3125H48.25C46.9908 27.3125 45.9688 28.3344 45.9688 29.5937C45.9688 30.853 46.9908 31.8749 48.25 31.8749Z" fill="black"/>
<path fill-rule="evenodd" clip-rule="evenodd" d="M32.2812 11.3464V-0.820312C32.2812 -2.07956 31.2593 -3.10156 30 -3.10156C28.7407 -3.10156 27.7188 -2.07956 27.7188 -0.820312V11.3464C27.7188 12.6056 28.7407 13.6276 30 13.6276C31.2593 13.6276 32.2812 12.6056 32.2812 11.3464Z" fill="black"/>
<path fill-rule="evenodd" clip-rule="evenodd" d="M27.7188 47.8437V60.0104C27.7188 61.2696 28.7407 62.2916 30 62.2916C31.2593 62.2916 32.2812 61.2696 32.2812 60.0104V47.8437C32.2812 46.5845 31.2593 45.5625 30 45.5625C28.7407 45.5625 27.7188 46.5845 27.7188 47.8437Z" fill="black"/>
<path fill-rule="evenodd" clip-rule="evenodd" d="M11.7487 27.3125H-0.417969C-1.67722 27.3125 -2.69922 28.3344 -2.69922 29.5937C-2.69922 30.853 -1.67722 31.8749 -0.417969 31.8749H11.7487C13.0079 31.8749 14.0299 30.853 14.0299 29.5937C14.0299 28.3344 13.0079 27.3125 11.7487 27.3125Z" fill="black"/>
<path fill-rule="evenodd" clip-rule="evenodd" d="M48.25 22.7499H55.8541C57.1133 22.7499 58.1353 21.728 58.1353 20.4687C58.1353 19.2094 57.1133 18.1875 55.8541 18.1875H48.25C46.9907 18.1875 45.9688 19.2094 45.9688 20.4687C45.9688 21.728 46.9907 22.7499 48.25 22.7499Z" fill="black"/>
<path fill-rule="evenodd" clip-rule="evenodd" d="M23.1562 11.3464V3.74218C23.1562 2.48294 22.1343 1.46094 20.875 1.46094C19.6157 1.46094 18.5938 2.48294 18.5938 3.74218V11.3464C18.5938 12.6056 19.6157 13.6276 20.875 13.6276C22.1343 13.6276 23.1562 12.6056 23.1562 11.3464Z" fill="black"/>
<path fill-rule="evenodd" clip-rule="evenodd" d="M18.5938 47.8437V55.4479C18.5938 56.7071 19.6157 57.7291 20.875 57.7291C22.1343 57.7291 23.1562 56.7071 23.1562 55.4479V47.8437C23.1562 46.5844 22.1343 45.5625 20.875 45.5625C19.6157 45.5625 18.5938 46.5844 18.5938 47.8437Z" fill="black"/>
<path fill-rule="evenodd" clip-rule="evenodd" d="M11.7487 18.1875H4.14452C2.88528 18.1875 1.86328 19.2094 1.86328 20.4687C1.86328 21.728 2.88528 22.7499 4.14452 22.7499H11.7487C13.0079 22.7499 14.0299 21.728 14.0299 20.4687C14.0299 19.2094 13.0079 18.1875 11.7487 18.1875Z" fill="black"/>
<path fill-rule="evenodd" clip-rule="evenodd" d="M48.25 40.9999H55.8541C57.1133 40.9999 58.1353 39.978 58.1353 38.7187C58.1353 37.4594 57.1133 36.4375 55.8541 36.4375H48.25C46.9907 36.4375 45.9688 37.4594 45.9688 38.7187C45.9688 39.978 46.9907 40.9999 48.25 40.9999Z" fill="black"/>
<path fill-rule="evenodd" clip-rule="evenodd" d="M41.4062 11.3464V3.74218C41.4062 2.48294 40.3843 1.46094 39.125 1.46094C37.8657 1.46094 36.8438 2.48294 36.8438 3.74218V11.3464C36.8438 12.6056 37.8657 13.6276 39.125 13.6276C40.3843 13.6276 41.4062 12.6056 41.4062 11.3464Z" fill="black"/>
<path fill-rule="evenodd" clip-rule="evenodd" d="M36.8438 47.8437V55.4479C36.8438 56.7071 37.8657 57.7291 39.125 57.7291C40.3843 57.7291 41.4062 56.7071 41.4062 55.4479V47.8437C41.4062 46.5844 40.3843 45.5625 39.125 45.5625C37.8657 45.5625 36.8438 46.5844 36.8438 47.8437Z" fill="black"/>
<path fill-rule="evenodd" clip-rule="evenodd" d="M11.7487 36.4375H4.14452C2.88528 36.4375 1.86328 37.4594 1.86328 38.7187C1.86328 39.978 2.88528 40.9999 4.14452 40.9999H11.7487C13.0079 40.9999 14.0299 39.978 14.0299 38.7187C14.0299 37.4594 13.0079 36.4375 11.7487 36.4375Z" fill="black"/>
</g>
</g>
<defs>
<clipPath id="clip0_3194_41594">
<rect width="60" height="59.19" fill="white"/>
</clipPath>
<clipPath id="clip1_3194_41594">
<rect width="60" height="59.19" fill="white"/>
</clipPath>
</defs>
</svg>
