<svg width="60" height="60" viewBox="0 0 60 60" fill="none" xmlns="http://www.w3.org/2000/svg">
<g clip-path="url(#clip0_3194_41572)">
<g clip-path="url(#clip1_3194_41572)">
<g clip-path="url(#clip2_3194_41572)">
<mask id="mask0_3194_41572" style="mask-type:luminance" maskUnits="userSpaceOnUse" x="-7" y="-7" width="74" height="74">
<path d="M66.5 -6.90625H-6.5V66.0938H66.5V-6.90625Z" fill="white"/>
</mask>
<g mask="url(#mask0_3194_41572)">
<path d="M50.8164 53.8281C48.4278 53.8281 46.3788 55.3046 45.5309 57.3925H40.5508V61.6699H45.5309C46.3788 63.7578 48.4278 65.2343 50.8164 65.2343C53.9611 65.2343 56.5195 62.6759 56.5195 59.5312C56.5195 56.3865 53.9611 53.8281 50.8164 53.8281Z" fill="black"/>
<path d="M60.7969 41.7148C59.8594 41.7148 58.975 41.9435 58.194 42.346L52.8985 37.9331C52.5141 37.6129 52.0296 37.4375 51.5293 37.4375H40.5508V41.7148H50.755L55.398 45.5841C55.2018 46.16 55.0938 46.7764 55.0938 47.418C55.0938 50.5627 57.6522 53.1211 60.7969 53.1211C63.9416 53.1211 66.5 50.5627 66.5 47.418C66.5 44.2733 63.9416 41.7148 60.7969 41.7148Z" fill="black"/>
<path d="M60.7969 23.8906C58.4083 23.8906 56.3593 25.3671 55.5114 27.455H40.5508V31.7324H55.5114C56.3593 33.8203 58.4083 35.2968 60.7969 35.2968C63.9416 35.2968 66.5 32.7384 66.5 29.5937C66.5 26.449 63.9416 23.8906 60.7969 23.8906Z" fill="black"/>
<path d="M52.8985 21.2504L58.194 16.8374C58.975 17.2401 59.8594 17.4688 60.7969 17.4688C63.9416 17.4688 66.5 14.9103 66.5 11.7656C66.5 8.6209 63.9416 6.0625 60.7969 6.0625C57.6522 6.0625 55.0938 8.6209 55.0938 11.7656C55.0938 12.4072 55.2018 13.0236 55.398 13.5995L50.755 17.4688H40.5508V21.7461H51.5293C52.0296 21.7461 52.5141 21.5707 52.8985 21.2504Z" fill="black"/>
<path d="M50.8164 5.35154C53.9611 5.35154 56.5195 2.79314 56.5195 -0.351566C56.5195 -3.49627 53.9611 -6.05469 50.8164 -6.05469C48.4278 -6.05469 46.3788 -4.57815 45.5309 -2.49024H40.5508V1.78711H45.5309C46.3788 3.87504 48.4278 5.35154 50.8164 5.35154Z" fill="black"/>
<path d="M14.8867 29.5957C14.8867 37.8505 21.6026 44.5664 29.8574 44.5664C32.1522 44.5664 34.3277 44.0467 36.2734 43.12V16.0715C34.3277 15.1447 32.1522 14.625 29.8574 14.625C21.6026 14.625 14.8867 21.3409 14.8867 29.5957Z" fill="black"/>
<path d="M34.1348 -6.76562H25.5801C24.399 -6.76562 23.4414 -5.80807 23.4414 -4.62695V-1.84311C19.4283 -1.02557 15.5878 0.565456 12.1669 2.8276L10.1979 0.858737C9.3627 0.0235171 8.0086 0.0235171 7.1734 0.858737L1.12436 6.9078C0.28914 7.7428 0.28914 9.097 1.12436 9.9323L3.0932 11.9013C0.831079 15.3222 -0.75995 19.1626 -1.57749 23.1758H-4.36133C-5.54245 23.1758 -6.5 24.1333 -6.5 25.3145V33.8691C-6.5 35.0503 -5.54245 36.0078 -4.36133 36.0078H-1.57749C-0.75995 40.021 0.831079 43.8614 3.0932 47.2825L1.12422 49.2515C0.72315 49.6525 0.49788 50.1965 0.49788 50.7637C0.49788 51.3308 0.72315 51.8746 1.12422 52.2757L7.1734 58.3249C8.0086 59.1601 9.3627 59.1601 10.1979 58.3249L12.1669 56.356C15.5878 58.6181 19.4283 60.209 23.4414 61.0267V63.8106C23.4414 64.9917 24.399 65.9492 25.5801 65.9492H34.1348C35.3159 65.9492 36.2734 64.9917 36.2734 63.8106V47.7389C34.2657 48.4509 32.1063 48.8398 29.8574 48.8398C19.244 48.8398 10.6094 40.2052 10.6094 29.5918C10.6094 18.9784 19.244 10.3438 29.8574 10.3438C32.1063 10.3438 34.2657 10.7327 36.2734 11.4447V-4.62695C36.2734 -5.80807 35.3159 -6.76562 34.1348 -6.76562Z" fill="black"/>
</g>
</g>
</g>
</g>
<defs>
<clipPath id="clip0_3194_41572">
<rect width="60" height="59.19" fill="white"/>
</clipPath>
<clipPath id="clip1_3194_41572">
<rect width="60" height="59.19" fill="white"/>
</clipPath>
<clipPath id="clip2_3194_41572">
<rect width="74" height="73" fill="white" transform="translate(-7 -6.90625)"/>
</clipPath>
</defs>
</svg>
