<svg width="51" height="51" viewBox="0 0 51 51" fill="none" xmlns="http://www.w3.org/2000/svg">
<g clip-path="url(#clip0_3194_41717)">
<path d="M41.2576 17.297H40.5076C40.4451 17.297 40.3829 17.2188 40.3672 17.1562C40.0991 16.3037 39.7538 15.4774 39.3358 14.6875C39.3045 14.6251 39.2892 14.5312 39.3514 14.4844L39.8828 13.953C40.3443 13.4813 40.6023 12.8474 40.6015 12.1875C40.6048 11.8603 40.543 11.5356 40.4196 11.2325C40.2962 10.9294 40.1137 10.6538 39.8828 10.4219L36.8829 7.42188C36.4132 6.95645 35.7786 6.69534 35.1173 6.69534C34.456 6.69534 33.8215 6.95645 33.3517 7.42188L32.8203 7.95323C32.7734 8.01561 32.6799 7.99998 32.6173 7.96887C31.8273 7.55105 31.0009 7.2058 30.1484 6.93738C30.0859 6.92173 30.0078 6.85938 30.0078 6.797V6.04688C30.0059 5.38447 29.7419 4.74973 29.2735 4.28131C28.8051 3.81289 28.1704 3.54885 27.508 3.54688H23.2889C22.6265 3.54885 21.9917 3.81289 21.5234 4.28131C21.055 4.74973 20.791 5.38447 20.7891 6.04688V6.79703C20.7891 6.85942 20.7109 6.92177 20.6483 6.93741C19.7959 7.20584 18.9695 7.5511 18.1795 7.96891C18.1173 8 18.0235 8.01565 17.9765 7.95329L17.4455 7.42188C16.9757 6.95644 16.3411 6.69532 15.6797 6.69532C15.0183 6.69532 14.3837 6.95644 13.9139 7.42188L10.914 10.4219C10.6831 10.6538 10.5006 10.9294 10.3772 11.2325C10.2538 11.5356 10.192 11.8603 10.1953 12.1875C10.1945 12.8474 10.4526 13.4813 10.914 13.953L11.4454 14.4844C11.5076 14.5313 11.4923 14.6252 11.461 14.6875C11.0431 15.4775 10.6979 16.3038 10.4295 17.1563C10.4143 17.2188 10.3517 17.2971 10.2892 17.2971H9.53918C8.87674 17.299 8.24196 17.5629 7.77352 18.0313C7.30508 18.4997 7.04104 19.1345 7.03907 19.7969V24.0157C7.03834 24.3848 7.12087 24.7492 7.2805 25.082C7.44014 25.4148 7.67277 25.7073 7.96109 25.9377C8.39636 24.8164 9.15083 23.8472 10.1311 23.1502C11.1114 22.4531 12.2746 22.0587 13.4767 22.0158C14.9341 22.0307 16.331 22.6007 17.3829 23.6096C17.2571 23.0506 17.1941 22.4793 17.1953 21.9063C17.1953 19.7307 18.0595 17.6442 19.5979 16.1058C21.1363 14.5674 23.2228 13.7032 25.3984 13.7032C27.574 13.7032 29.6605 14.5674 31.1989 16.1058C32.7373 17.6442 33.6015 19.7307 33.6015 21.9063C33.6027 22.4793 33.5397 23.0506 33.4138 23.6096C34.4657 22.6007 35.8627 22.0307 37.3201 22.0158C38.5222 22.0588 39.6854 22.4531 40.6658 23.1502C41.6462 23.8472 42.4007 24.8163 42.8362 25.9377C43.1244 25.7072 43.3569 25.4147 43.5164 25.0819C43.676 24.7492 43.7585 24.3847 43.7578 24.0157V19.7969C43.7558 19.1345 43.4918 18.4997 43.0233 18.0313C42.5549 17.5629 41.9201 17.2989 41.2576 17.297Z" fill="black"/>
<path d="M31.7648 40.6115L28.6534 39.5751C28.559 39.5424 28.4752 39.4849 28.411 39.4084C28.3468 39.332 28.3046 39.2395 28.2888 39.1409C28.273 39.0422 28.2842 38.9411 28.3213 38.8484C28.3583 38.7557 28.4199 38.6748 28.4993 38.6143C29.2699 37.938 29.8831 37.1013 30.2956 36.1628C30.7082 35.2242 30.9101 34.2065 30.8872 33.1815C30.8872 29.5432 28.4294 26.5938 25.3974 26.5938C22.3654 26.5938 19.9075 29.5432 19.9075 33.1815C19.8847 34.2065 20.0866 35.2242 20.4992 36.1628C20.9117 37.1013 21.5248 37.938 22.2955 38.6143C22.3749 38.6748 22.4364 38.7557 22.4735 38.8484C22.5106 38.9411 22.5218 39.0422 22.506 39.1409C22.4902 39.2395 22.4479 39.332 22.3837 39.4084C22.3195 39.4849 22.2358 39.5424 22.1414 39.5751L19.03 40.6115C18.2729 40.8637 17.5798 41.278 16.9991 41.8254C16.4184 42.3728 15.9641 43.0402 15.6677 43.7812L15.0199 45.4005C14.9533 45.5671 14.9285 45.7474 14.9477 45.9258C14.967 46.1042 15.0296 46.2753 15.1302 46.4239C15.2308 46.5725 15.3663 46.694 15.5248 46.7781C15.6833 46.8622 15.86 46.9062 16.0394 46.9062H34.7554C34.9348 46.9062 35.1115 46.8622 35.27 46.7781C35.4285 46.694 35.564 46.5725 35.6646 46.4239C35.7652 46.2753 35.8278 46.1042 35.847 45.9258C35.8663 45.7474 35.8415 45.5671 35.7748 45.4005L35.1271 43.7812C34.8307 43.0402 34.3763 42.3728 33.7956 41.8254C33.2149 41.278 32.5219 40.8637 31.7648 40.6115Z" fill="black"/>
<path d="M20.1351 38.5936L18.5413 39.125C17.5824 39.4453 16.7034 39.9674 15.9634 40.6562H5.60411C5.45387 40.6555 5.3061 40.6179 5.17379 40.5467C5.04149 40.4755 4.92871 40.3729 4.84538 40.2479C4.76204 40.1229 4.71071 39.9793 4.69588 39.8298C4.68106 39.6803 4.7032 39.5294 4.76036 39.3905L5.29136 38.0313C5.54393 37.4094 5.92714 36.849 6.41507 36.388C6.903 35.927 7.48426 35.5762 8.11951 35.3593L10.7448 34.4844C10.8249 34.4593 10.8964 34.4124 10.9511 34.3488C11.0059 34.2852 11.0418 34.2076 11.0548 34.1247C11.0678 34.0418 11.0573 33.9569 11.0246 33.8797C10.9919 33.8024 10.9382 33.7358 10.8696 33.6874C10.2237 33.1154 9.71012 32.4096 9.36473 31.6189C9.01933 30.8283 8.85037 29.9718 8.86961 29.1092C8.75729 27.7666 9.1779 26.4337 10.0405 25.3986C10.9031 24.3636 12.1384 23.7096 13.4793 23.5781C14.8218 23.7088 16.0591 24.3619 16.9244 25.3967C17.7896 26.4314 18.2134 27.7648 18.1043 29.1092C18.1243 29.9735 17.9542 30.8315 17.6058 31.6227C17.2574 32.4138 16.7394 33.1187 16.0884 33.6874C16.023 33.7378 15.9724 33.8048 15.9418 33.8814C15.9113 33.958 15.9019 34.0415 15.9147 34.123C15.9275 34.2045 15.962 34.281 16.0146 34.3446C16.0671 34.4082 16.1358 34.4564 16.2135 34.4843L18.6038 35.2812C18.8614 36.4855 19.3845 37.6171 20.1351 38.5936Z" fill="black"/>
<path d="M45.1951 40.6561H34.8358C34.0958 39.9673 33.2167 39.4452 32.2579 39.1248L30.6641 38.5935C31.4147 37.6171 31.9379 36.4855 32.1954 35.2812L34.5856 34.4843C34.6633 34.4564 34.732 34.4081 34.7846 34.3446C34.8371 34.281 34.8716 34.2044 34.8844 34.1229C34.8972 34.0414 34.8878 33.958 34.8573 33.8814C34.8267 33.8047 34.7761 33.7377 34.7108 33.6874C34.0598 33.1186 33.5418 32.4137 33.1935 31.6226C32.8452 30.8314 32.6751 29.9734 32.6951 29.1092C32.586 27.7648 33.0098 26.4314 33.8751 25.3966C34.7403 24.3619 35.9776 23.7087 37.3201 23.5781C38.661 23.7096 39.8963 24.3636 40.7589 25.3986C41.6214 26.4337 42.042 27.7666 41.9297 29.1092C41.9489 29.9718 41.78 30.8282 41.4346 31.6189C41.0892 32.4095 40.5756 33.1154 39.9297 33.6874C39.8611 33.7358 39.8075 33.8023 39.7748 33.8796C39.742 33.9569 39.7316 34.0417 39.7445 34.1246C39.7575 34.2075 39.7934 34.2851 39.8482 34.3487C39.9029 34.4122 39.9744 34.4592 40.0544 34.4843L42.6797 35.3592C43.315 35.5761 43.8962 35.9269 44.3842 36.3879C44.8721 36.8488 45.2554 37.4093 45.5079 38.0312L46.0389 39.3904C46.0961 39.5293 46.1182 39.6802 46.1034 39.8297C46.0886 39.9792 46.0372 40.1228 45.9539 40.2478C45.8705 40.3729 45.7577 40.4755 45.6254 40.5467C45.4931 40.6178 45.3453 40.6554 45.1951 40.6561Z" fill="black"/>
</g>
<defs>
<clipPath id="clip0_3194_41717">
<rect width="50" height="50" fill="white" transform="translate(0.398438 0.03125)"/>
</clipPath>
</defs>
</svg>
