<svg width="51" height="51" viewBox="0 0 51 51" fill="none" xmlns="http://www.w3.org/2000/svg">
<g clip-path="url(#clip0_3194_41738)">
<path fill-rule="evenodd" clip-rule="evenodd" d="M25.7481 6.76746C22.1948 6.64913 18.6048 7.61857 15.5053 9.68746C12.0242 12.0136 9.59145 15.4486 8.47089 19.2886C8.16145 19.2508 7.79089 19.2674 7.35089 19.3919C5.70811 19.858 4.47256 21.2041 3.917 22.3897C3.19645 23.9347 2.89256 25.978 3.21311 28.0875C3.53145 30.1902 4.41978 31.9236 5.53089 32.9997C6.64534 34.0763 7.90367 34.4263 9.15367 34.1636C11.0148 33.7663 11.9375 33.4691 11.677 31.7352L10.4153 23.3302C10.6698 18.7813 13.0248 14.4991 16.9637 11.8658C22.2359 8.34413 29.1481 8.56968 34.177 12.4302C37.6753 15.1124 39.7064 19.1313 39.9409 23.3502L39.0587 29.2297C37.0909 34.6147 32.2125 38.3447 26.5675 38.8741H22.8087C21.8387 38.8741 21.0575 39.6552 21.0575 40.6241V41.5475C21.0575 42.5169 21.8387 43.298 22.8087 43.298H27.5481C28.5175 43.298 29.2953 42.5169 29.2953 41.5475V41.0647C33.552 40.0258 37.2675 37.4097 39.687 33.7613L41.2053 34.1641C42.4409 34.4847 43.7142 34.0763 44.8281 33.0002C45.9392 31.9236 46.827 30.1908 47.1459 28.088C47.4675 25.9786 47.1548 23.9386 46.4425 22.3902C45.7275 20.8419 44.6625 19.8586 43.4331 19.5058C42.9181 19.3574 42.3592 19.303 41.8798 19.2886C40.8664 15.8163 38.7803 12.6586 35.7737 10.353C32.8175 8.08468 29.3014 6.88413 25.7481 6.76746Z" fill="black"/>
<path fill-rule="evenodd" clip-rule="evenodd" d="M31.294 21.8895C32.5467 21.8895 33.5623 22.905 33.5651 24.1611C33.5623 25.4139 32.5467 26.4322 31.294 26.4322C30.0378 26.4322 29.0195 25.4139 29.0195 24.1611C29.0195 22.9056 30.0384 21.8895 31.294 21.8895ZM25.1773 21.8895C26.4328 21.8895 27.4484 22.905 27.4484 24.1611C27.4484 25.4139 26.4328 26.4322 25.1773 26.4322C23.9206 26.4322 22.9051 25.4139 22.9051 24.1611C22.9051 22.9056 23.9206 21.8895 25.1773 21.8895ZM19.0628 21.8895C20.3156 21.8895 21.334 22.905 21.334 24.1611C21.334 25.4139 20.3156 26.4322 19.0628 26.4322C17.8073 26.4322 16.7912 25.4139 16.7912 24.1611C16.7912 22.9056 17.8073 21.8895 19.0628 21.8895ZM25.1773 12.1328C18.5162 12.1328 13.1484 17.3239 13.1484 24.1611C13.1484 27.445 14.3901 30.3472 16.4128 32.4767L15.6951 35.6945C15.4584 36.7534 16.1928 37.4656 17.1445 36.9356L20.2867 35.1828C21.7801 35.8311 23.4317 36.1895 25.1773 36.1895C31.8406 36.1895 37.2051 31.0017 37.2051 24.1611C37.2051 17.3239 31.8406 12.1328 25.1773 12.1328Z" fill="black"/>
</g>
<defs>
<clipPath id="clip0_3194_41738">
<rect width="50" height="50" fill="white" transform="translate(0.179688 0.03125)"/>
</clipPath>
</defs>
</svg>
