<svg width="51" height="51" viewBox="0 0 51 51" fill="none" xmlns="http://www.w3.org/2000/svg">
<g clip-path="url(#clip0_3194_41728)">
<g clip-path="url(#clip1_3194_41728)">
<path d="M35.58 26.128L34.7214 11.4297H27.7901V18.0299H24.8606V11.4297H13.5775V18.0299H10.6479V11.4297H3.71657L2.17708 37.7834C2.05726 39.8354 2.76797 41.7889 4.17836 43.284C5.58875 44.7792 7.49746 45.6026 9.55284 45.6026H25.8032C24.855 43.7564 24.3195 41.6649 24.3195 39.4505C24.3195 32.7672 29.1976 27.2027 35.58 26.128Z" fill="black"/>
<path d="M13.5779 8.60227C13.5779 5.49156 16.1087 2.96081 19.2194 2.96081C22.3301 2.96081 24.8609 5.49156 24.8609 8.60227V11.4291H27.7905V8.60227C27.7905 3.8762 23.9456 0.03125 19.2194 0.03125C14.4932 0.03125 10.6484 3.8762 10.6484 8.60227V11.4291H13.5779V8.60227Z" fill="black"/>
<path d="M48.4126 39.4485C48.4126 33.614 43.6658 28.8672 37.8313 28.8672C31.9968 28.8672 27.25 33.614 27.25 39.4485C27.25 45.283 31.9968 50.0297 37.8313 50.0297C43.6658 50.0297 48.4126 45.283 48.4126 39.4485ZM36.2471 44.6308L31.489 39.2494L33.6837 37.309L36.3416 40.3151L41.8461 34.6134L43.9537 36.648L36.2471 44.6308Z" fill="black"/>
</g>
</g>
<defs>
<clipPath id="clip0_3194_41728">
<rect width="50" height="50" fill="white" transform="translate(0.289062 0.03125)"/>
</clipPath>
<clipPath id="clip1_3194_41728">
<rect width="50" height="50" fill="white" transform="translate(0.289062 0.03125)"/>
</clipPath>
</defs>
</svg>
