<svg width="51" height="51" viewBox="0 0 51 51" fill="none" xmlns="http://www.w3.org/2000/svg">
<g clip-path="url(#clip0_3194_41776)">
<g clip-path="url(#clip1_3194_41776)">
<mask id="mask0_3194_41776" style="mask-type:luminance" maskUnits="userSpaceOnUse" x="0" y="0" width="51" height="51">
<path d="M50.1797 0.0390625H0.179688V50.0391H50.1797V0.0390625Z" fill="white"/>
</mask>
<g mask="url(#mask0_3194_41776)">
<path d="M37.5235 22.3818L37.6797 22.1736V14.75L25.1797 19.75L12.6797 14.75V22.1732L12.836 22.3815C12.9649 22.554 16.1044 26.6003 25.1797 26.6003C34.255 26.6003 37.3944 22.5537 37.5235 22.3818Z" fill="black"/>
<path d="M49.0078 47.6952H6.82031C5.68071 47.6952 4.58779 47.2425 3.78197 46.4367C2.97615 45.6309 2.52344 44.538 2.52344 43.3984C2.52344 42.2588 2.97615 41.1658 3.78197 40.36C4.58779 39.5542 5.68071 39.1015 6.82031 39.1015H49.0078C49.3186 39.1015 49.6167 38.978 49.8365 38.7583C50.0562 38.5385 50.1797 38.2404 50.1797 37.9296C50.1797 37.6188 50.0562 37.3208 49.8365 37.101C49.6167 36.8812 49.3186 36.7578 49.0078 36.7578H6.82031C5.05911 36.7578 3.37004 37.4574 2.12468 38.7027C0.879323 39.9481 0.179688 41.6372 0.179688 43.3984C0.179688 45.1596 0.879323 46.8486 2.12468 48.094C3.37004 49.3394 5.05911 50.039 6.82031 50.039H49.0078C49.3186 50.039 49.6167 49.9155 49.8365 49.6958C50.0562 49.476 50.1797 49.1779 50.1797 48.8671C50.1797 48.5563 50.0562 48.2583 49.8365 48.0385C49.6167 47.8187 49.3186 47.6952 49.0078 47.6952Z" fill="black"/>
<path d="M4.08594 43.3985C4.08594 43.7576 4.15667 44.1131 4.29408 44.4449C4.4315 44.7766 4.63291 45.0781 4.88682 45.332C5.14073 45.5859 5.44217 45.7873 5.77391 45.9247C6.10566 46.0621 6.46123 46.1329 6.82031 46.1329H49.0078V40.6641H6.82031C6.09511 40.6641 5.39961 40.9522 4.88682 41.465C4.37403 41.9778 4.08594 42.6733 4.08594 43.3985Z" fill="black"/>
<path d="M41.5859 20.7421C42.6646 20.7421 43.5391 19.8677 43.5391 18.789C43.5391 17.7103 42.6646 16.8359 41.5859 16.8359C40.5073 16.8359 39.6328 17.7103 39.6328 18.789C39.6328 19.8677 40.5073 20.7421 41.5859 20.7421Z" fill="black"/>
<path d="M38.189 12.8609L24.8992 7.79843L25.4554 6.3375L40.3304 12.0047L46.8117 9.41172L25.1773 0.757812L3.54297 9.41172L25.1773 18.0656L38.189 12.8609Z" fill="black"/>
<path d="M40.8049 13.8598V15.3686C41.3181 15.2428 41.8541 15.2428 42.3674 15.3686V12.7827L40.3331 12.0078L38.1914 12.8644L40.8049 13.8598Z" fill="black"/>
<path d="M7.21094 29.7266C7.21094 30.141 7.37556 30.5384 7.66859 30.8315C7.96161 31.1245 8.35904 31.2891 8.77344 31.2891H37.3978L37.9186 28.1641H8.77344C8.35904 28.1641 7.96161 28.3287 7.66859 28.6217C7.37556 28.9148 7.21094 29.3122 7.21094 29.7266Z" fill="black"/>
<path d="M43.9297 29.7252L42.6617 22.1172C41.966 22.3654 41.2059 22.3654 40.5102 22.1172L39.2422 29.7252H43.9297Z" fill="black"/>
<path d="M8.77344 35.1952H42.7578C43.0686 35.1952 43.3667 35.0718 43.5865 34.852C43.8062 34.6322 43.9297 34.3342 43.9297 34.0234C43.9297 33.7126 43.8062 33.4145 43.5865 33.1947C43.3667 32.975 43.0686 32.8515 42.7578 32.8515H8.77344C7.94464 32.8515 7.14978 32.5223 6.56373 31.9362C5.97768 31.3502 5.64844 30.5553 5.64844 29.7265C5.64844 28.8977 5.97768 28.1028 6.56373 27.5168C7.14978 26.9307 7.94464 26.6015 8.77344 26.6015H16.3359C14.9252 26.0446 13.6194 25.2521 12.4742 24.2578H8.77344C7.32304 24.2578 5.93204 24.8339 4.90645 25.8595C3.88086 26.8851 3.30469 28.2761 3.30469 29.7265C3.30469 31.1769 3.88086 32.5679 4.90645 33.5935C5.93204 34.6191 7.32304 35.1952 8.77344 35.1952Z" fill="black"/>
<path d="M38.5692 24.2578H37.8854C36.7401 25.2522 35.4342 26.0447 34.0234 26.6015H38.1786L38.5692 24.2578Z" fill="black"/>
</g>
</g>
</g>
<defs>
<clipPath id="clip0_3194_41776">
<rect width="50" height="50" fill="white" transform="translate(0.179688 0.0390625)"/>
</clipPath>
<clipPath id="clip1_3194_41776">
<rect width="50" height="50" fill="white" transform="translate(0.179688 0.0390625)"/>
</clipPath>
</defs>
</svg>
