<svg width="51" height="51" viewBox="0 0 51 51" fill="none" xmlns="http://www.w3.org/2000/svg">
<g clip-path="url(#clip0_3194_41747)">
<g clip-path="url(#clip1_3194_41747)">
<g clip-path="url(#clip2_3194_41747)">
<mask id="mask0_3194_41747" style="mask-type:luminance" maskUnits="userSpaceOnUse" x="0" y="0" width="51" height="51">
<path d="M50.3984 0.0390625H0.398438V50.0391H50.3984V0.0390625Z" fill="white"/>
</mask>
<g mask="url(#mask0_3194_41747)">
<path d="M34.2852 17.8125C25.4004 17.8125 18.1719 25.041 18.1719 33.9258C18.1719 42.8107 25.4004 50.0391 34.2852 50.0391C43.1701 50.0391 50.3985 42.8107 50.3985 33.9258C50.3985 25.041 43.1701 17.8125 34.2852 17.8125ZM34.2852 32.461C36.7085 32.461 38.6797 34.4323 38.6797 36.8555C38.6797 38.7627 37.4514 40.3735 35.7501 40.9802V44.1797H32.8204V40.9802C31.119 40.3735 29.8907 38.7627 29.8907 36.8555H32.8204C32.8204 37.6637 33.477 38.3203 34.2852 38.3203C35.0934 38.3203 35.7501 37.6637 35.7501 36.8555C35.7501 36.0473 35.0934 35.3907 34.2852 35.3907C31.862 35.3907 29.8907 33.4194 29.8907 30.9961C29.8907 29.0889 31.119 27.4782 32.8204 26.8714V23.6719H35.7501V26.8714C37.4514 27.4782 38.6797 29.0889 38.6797 30.9961H35.7501C35.7501 30.1879 35.0934 29.5313 34.2852 29.5313C33.477 29.5313 32.8204 30.1879 32.8204 30.9961C32.8204 31.8043 33.477 32.461 34.2852 32.461Z" fill="black"/>
<path d="M16.707 17.8125C25.7422 17.8125 32.8203 13.9516 32.8203 9.02344C32.8203 4.09531 25.7422 0.0390625 16.707 0.0390625C7.67188 0.0390625 0.398438 4.09531 0.398438 9.02344C0.398438 13.9516 7.67188 17.8125 16.707 17.8125Z" fill="black"/>
<path d="M0.398438 33V35.3868C0.398438 40.3149 7.67188 44.1758 16.707 44.1758C17.2195 44.1758 17.7161 44.1287 18.2207 44.104C17.097 42.3373 16.259 40.3769 15.7656 38.2812C9.23194 38.1008 3.55879 36.0931 0.398438 33Z" fill="black"/>
<path d="M15.3126 35.3122C15.279 34.8514 15.2422 34.3912 15.2422 33.9219C15.2422 32.3949 15.4422 30.9169 15.7835 29.4929C9.2417 29.3157 3.56162 27.3069 0.398438 24.2109V26.5977C0.398438 31.2644 6.96699 34.9319 15.3126 35.3122Z" fill="black"/>
<path d="M16.707 26.5978L16.7115 26.5976C17.6776 24.2886 19.082 22.2072 20.826 20.4632C19.5031 20.6304 18.1359 20.7384 16.707 20.7384C9.75225 20.7384 3.71153 18.6645 0.398438 15.4219V17.8087C0.398438 22.7369 7.67188 26.5978 16.707 26.5978Z" fill="black"/>
</g>
</g>
</g>
</g>
<defs>
<clipPath id="clip0_3194_41747">
<rect width="50" height="50" fill="white" transform="translate(0.398438 0.0390625)"/>
</clipPath>
<clipPath id="clip1_3194_41747">
<rect width="50" height="50" fill="white" transform="translate(0.398438 0.0390625)"/>
</clipPath>
<clipPath id="clip2_3194_41747">
<rect width="50" height="50" fill="white" transform="translate(0.398438 0.0390625)"/>
</clipPath>
</defs>
</svg>
