<svg width="51" height="51" viewBox="0 0 51 51" fill="none" xmlns="http://www.w3.org/2000/svg">
<g clip-path="url(#clip0_3194_41763)">
<g clip-path="url(#clip1_3194_41763)">
<path d="M31.6422 14.4922L29.3195 10.4297L25.2336 20.6461C25.1749 20.7903 25.0744 20.9137 24.9451 21.0005C24.8158 21.0872 24.6635 21.1333 24.5078 21.1329H24.4758C24.3148 21.1265 24.1597 21.0706 24.0317 20.9727C23.9037 20.8748 23.8092 20.7397 23.7609 20.586L21.1484 12.1L19.7055 14.5039C19.6363 14.619 19.5387 14.7144 19.4219 14.7808C19.3052 14.8471 19.1733 14.8823 19.0391 14.8829H13.5703V13.3203H18.5969L20.7133 9.79297C20.791 9.66359 20.9045 9.55951 21.0402 9.49328C21.1758 9.42706 21.3277 9.40153 21.4775 9.4198C21.6273 9.43806 21.7686 9.49932 21.8844 9.59619C22.0001 9.69305 22.0853 9.82137 22.1297 9.96562L24.6039 18.0079L28.4695 8.34297C28.5238 8.20588 28.6157 8.08693 28.7347 7.99987C28.8536 7.91281 28.9948 7.86119 29.1419 7.85098C29.289 7.84076 29.4359 7.87237 29.5658 7.94215C29.6957 8.01193 29.8031 8.11703 29.8758 8.24531L32.7734 13.3203H39.8047C41.0477 8.15078 38.3047 5.39609 38.3047 5.39609C37.6065 4.46184 36.7003 3.70311 35.6579 3.18006C34.6155 2.65702 33.4655 2.38405 32.2992 2.38281C28.2938 2.38281 25.2891 5.39609 25.2891 5.39609C25.2891 5.39609 22.2844 2.38281 18.2789 2.38281C17.1121 2.38357 15.9615 2.6563 14.9185 3.17936C13.8755 3.70243 12.9688 4.46142 12.2703 5.39609C12.2703 5.39609 3.25779 14.4368 25.2891 30.5079C33.9891 24.1618 37.8461 18.9125 39.3305 14.8829H32.3203C32.1829 14.8831 32.0479 14.8472 31.9288 14.7786C31.8098 14.71 31.7109 14.6112 31.6422 14.4922Z" fill="black"/>
<path d="M46.3805 11.7578C45.8974 11.7598 45.4268 11.9109 45.033 12.1906C44.6392 12.4703 44.3415 12.8649 44.1805 13.3203H39.8055C39.6767 13.8499 39.5173 14.3716 39.3281 14.8828H44.1805C44.3244 15.2868 44.5766 15.6435 44.9095 15.9139C45.2425 16.1843 45.6433 16.358 46.0683 16.416C46.4933 16.4739 46.926 16.414 47.3192 16.2427C47.7124 16.0714 48.051 15.7953 48.2979 15.4445C48.5448 15.0938 48.6906 14.682 48.7192 14.254C48.7479 13.8261 48.6584 13.3985 48.4605 13.018C48.2626 12.6374 47.9639 12.3186 47.5971 12.0964C47.2302 11.8741 46.8094 11.757 46.3805 11.7578ZM46.3805 14.8828C46.2259 14.8828 46.0749 14.8369 45.9464 14.7511C45.8179 14.6652 45.7178 14.5432 45.6587 14.4005C45.5995 14.2577 45.5841 14.1006 45.6142 13.9491C45.6444 13.7975 45.7188 13.6583 45.828 13.5491C45.9373 13.4398 46.0765 13.3654 46.228 13.3353C46.3796 13.3051 46.5367 13.3206 46.6794 13.3797C46.8222 13.4389 46.9442 13.539 47.03 13.6675C47.1159 13.7959 47.1617 13.947 47.1617 14.1015C47.1617 14.3087 47.0794 14.5074 46.9329 14.6539C46.7864 14.8004 46.5877 14.8828 46.3805 14.8828Z" fill="black"/>
<path d="M8.10156 13.3203H1.85156V14.8829H8.10156V13.3203Z" fill="black"/>
<path d="M47.686 30.6421C47.2929 30.0398 46.6909 29.604 45.9959 29.4187C45.3009 29.2334 44.562 29.3116 43.9211 29.6382L39.6493 31.8257C39.9407 32.52 39.9724 33.296 39.7384 34.0116C39.5044 34.7273 39.0204 35.3347 38.375 35.7226L29.6805 40.8789C27.6416 42.0937 25.213 42.4764 22.8993 41.9476L15.043 40.0671L15.4063 38.5476L23.2469 40.4226C25.17 40.86 27.1876 40.542 28.8829 39.5343L37.5766 34.3781C37.9317 34.166 38.1888 33.8225 38.2924 33.4221C38.3959 33.0217 38.3375 32.5966 38.1297 32.239C37.6754 31.4524 36.936 30.8706 36.0647 30.614C35.1933 30.3573 34.2567 30.4454 33.4485 30.8601L27.143 34.096C26.7019 34.3228 26.2125 34.4394 25.7165 34.4362C25.2205 34.4329 24.7327 34.3098 24.2946 34.0773L19.9977 31.7953C18.5733 31.0418 16.9761 30.6752 15.3657 30.7321C13.7553 30.789 12.188 31.2674 10.8203 32.1195L13.2703 43.7984L14.575 43.5171C15.2602 43.3698 15.9656 43.3418 16.6602 43.4343L26.4188 44.5046C28.2544 44.7494 30.1162 44.3143 31.6532 43.2812L47.2571 32.8125C47.5991 32.5797 47.836 32.2218 47.9167 31.8159C47.9974 31.4101 47.9154 30.9888 47.6883 30.6429L47.686 30.6421Z" fill="black"/>
<path d="M2.63281 30.8906L6.15937 47.6976L12.2211 46.393L8.69375 29.5859L2.63281 30.8906ZM5.70078 34.2187L5.37968 32.6906L6.90859 32.3695L7.22968 33.8969L5.70078 34.2187Z" fill="black"/>
</g>
</g>
<defs>
<clipPath id="clip0_3194_41763">
<rect width="50" height="50" fill="white" transform="translate(0.289062 0.0390625)"/>
</clipPath>
<clipPath id="clip1_3194_41763">
<rect width="50" height="50" fill="white" transform="translate(0.289062 0.0390625)"/>
</clipPath>
</defs>
</svg>
