<svg xmlns="http://www.w3.org/2000/svg" version="1.1" xmlns:xlink="http://www.w3.org/1999/xlink" width="1500" height="133" viewBox="0 0 1500 133"><svg xml:space="preserve" width="1500" height="133" data-version="2" data-id="lg_8hdtH1x8vGLXyi4ArR" viewBox="0 0 716 133" x="0" y="0"><rect width="100%" height="100%" fill="transparent"></rect><path fill="#48937e" d="M211.226 79.243q0 5.69-2.16 10.69-2.15 5-5.88 8.71-3.74 3.71-8.74 5.86-5 2.16-10.69 2.16-5.69 0-10.7-2.16-5-2.15-8.7-5.86-3.71-3.71-5.87-8.71-2.15-5-2.15-10.69v-41.2h13.69v41.2q0 2.82 1.07 5.31 1.08 2.49 2.95 4.35 1.86 1.87 4.37 2.95 2.52 1.07 5.34 1.07t5.34-1.07q2.51-1.08 4.37-2.95 1.87-1.86 2.95-4.35 1.07-2.49 1.07-5.31v-41.2h13.74Z"></path><rect width="54.89" height="68.62" x="-27.45" y="-34.31" fill="none" rx="0" ry="0" transform="translate(184.28 72.85)"></rect><path fill="#48937e" d="M233.856 106.663h-13.06v-51.25h3.15l4.31 4.97q3.16-2.87 7.16-4.42 3.99-1.56 8.35-1.56 4.68 0 8.85 1.8 4.16 1.79 7.27 4.92 3.11 3.14 4.91 7.33 1.79 4.18 1.79 8.92v29.29h-13.06v-29.29q0-2.01-.77-3.8-.76-1.8-2.1-3.14t-3.11-2.1q-1.77-.77-3.78-.77-2.06 0-3.88.77-1.82.76-3.16 2.1t-2.1 3.14q-.77 1.79-.77 3.8Z"></path><rect width="45.79" height="52.26" x="-22.89" y="-26.13" fill="none" rx="0" ry="0" transform="translate(244.2 81.03)"></rect><path fill="#48937e" d="M289.026 106.663h-13.16v-71.64h13.16Z"></path><rect width="13.16" height="71.64" x="-6.58" y="-35.82" fill="none" rx="0" ry="0" transform="translate(282.95 71.34)"></rect><path fill="#48937e" d="M319.366 94.123q.77.24 1.53.31.77.07 1.53.07 1.92 0 3.69-.52 1.77-.53 3.32-1.51 1.56-.98 2.78-2.39 1.22-1.42 1.98-3.14l9.58 9.62q-1.82 2.58-4.19 4.64-2.37 2.06-5.12 3.49-2.75 1.44-5.79 2.18-3.04.74-6.25.74-5.4 0-10.16-2.01-4.77-2.01-8.33-5.6-3.57-3.58-5.62-8.54-2.06-4.95-2.06-10.88 0-6.08 2.06-11.1 2.05-5.03 5.62-8.57 3.56-3.54 8.33-5.5 4.76-1.97 10.16-1.97 3.21 0 6.27.77 3.06.77 5.82 2.2 2.75 1.44 5.14 3.52 2.39 2.08 4.21 4.66Zm6.7-26.94q-.91-.34-1.79-.43-.89-.1-1.85-.1-2.68 0-5.04.98-2.37.98-4.12 2.8-1.75 1.82-2.75 4.38-1.01 2.56-1.01 5.77 0 .71.08 1.62.07.91.23 1.85.17.93.41 1.79.24.86.62 1.53Z"></path><rect width="47.61" height="54.17" x="-23.8" y="-27.09" fill="none" rx="0" ry="0" transform="translate(320.56 81.03)"></rect><path fill="#48937e" d="M399.666 106.663h-3.16l-5.07-7.04q-1.87 1.68-3.95 3.14-2.08 1.46-4.38 2.53-2.3 1.08-4.71 1.7-2.42.62-4.91.62-5.41 0-10.17-1.82-4.76-1.81-8.32-5.28-3.57-3.47-5.63-8.5-2.05-5.02-2.05-11.43 0-5.98 2.05-10.99 2.06-5 5.63-8.58 3.56-3.59 8.32-5.58 4.76-1.99 10.17-1.99 2.49 0 4.93.63 2.44.62 4.74 1.72 2.29 1.1 4.38 2.58 2.08 1.49 3.9 3.21l5.07-6.08h3.16Zm-13.16-26.08q0-2.68-1.03-5.2-1.03-2.51-2.8-4.45-1.77-1.93-4.14-3.11-2.37-1.17-5.05-1.17-2.68 0-5.05.91-2.37.91-4.11 2.68-1.75 1.77-2.75 4.38-1.01 2.61-1.01 5.96t1.01 5.95q1 2.61 2.75 4.38 1.74 1.77 4.11 2.68 2.37.91 5.05.91 2.68 0 5.05-1.17 2.37-1.17 4.14-3.11 1.77-1.94 2.8-4.45 1.03-2.51 1.03-5.19"></path><rect width="52.35" height="54.17" x="-26.18" y="-27.09" fill="none" rx="0" ry="0" transform="translate(374 81.03)"></rect><path fill="#48937e" d="M437.756 106.663h-29.86v-13.02h29.86q1.34 0 2.29-.96.96-.95.96-2.29 0-1.39-.96-1.82-.95-.43-2.29-.43h-13.59q-3.4 0-6.37-1.29-2.97-1.3-5.17-3.52-2.2-2.23-3.47-5.19-1.26-2.97-1.26-6.37t1.26-6.36q1.27-2.97 3.47-5.17 2.2-2.2 5.17-3.47 2.97-1.27 6.37-1.27h26.46v13.02h-26.46q-1.34 0-2.3.96-.96.95-.96 2.29 0 1.39.96 2.37.96.98 2.3.98h13.59q3.35 0 6.31 1.13 2.97 1.12 5.17 3.13 2.2 2.01 3.49 4.83 1.3 2.83 1.3 6.18 0 3.39-1.3 6.34-1.29 2.94-3.49 5.16-2.2 2.23-5.17 3.5-2.96 1.27-6.31 1.27"></path><rect width="46.13" height="51.16" x="-23.07" y="-25.58" fill="none" rx="0" ry="0" transform="translate(431.46 81.58)"></rect><path fill="#48937e" d="M474.026 106.663h-13.07v-71.64h13.07v22.64q2.34-1.77 4.83-2.52 2.49-.74 5.07-.74 4.74 0 8.9 1.8 4.17 1.79 7.25 4.92 3.09 3.14 4.88 7.33 1.8 4.18 1.8 8.92v29.29h-13.16v-29.29h.09q0-2.01-.76-3.8-.77-1.8-2.11-3.14-1.34-1.34-3.11-2.1-1.77-.77-3.78-.77-2.06 0-3.87.77-1.82.76-3.16 2.1t-2.11 3.14q-.76 1.79-.76 3.8Z"></path><rect width="45.8" height="71.64" x="-22.9" y="-35.82" fill="none" rx="0" ry="0" transform="translate(484.36 71.34)"></rect><path fill="#48937e" d="M592.886 106.663h-48.04v-68.62h13.73v54.88h34.31Z"></path><rect width="48.04" height="68.62" x="-24.02" y="-34.31" fill="none" rx="0" ry="0" transform="translate(569.37 72.85)"></rect><path fill="#48937e" d="M646.956 106.663h-3.16l-5.07-7.04q-1.86 1.68-3.95 3.14-2.08 1.46-4.37 2.53-2.3 1.08-4.72 1.7-2.41.62-4.9.62-5.41 0-10.17-1.82-4.76-1.81-8.33-5.28-3.56-3.47-5.62-8.5-2.06-5.02-2.06-11.43 0-5.98 2.06-10.99 2.06-5 5.62-8.58 3.57-3.59 8.33-5.58 4.76-1.99 10.17-1.99 2.49 0 4.93.63 2.44.62 4.73 1.72 2.3 1.1 4.38 2.58 2.08 1.49 3.9 3.21l5.07-6.08h3.16Zm-13.16-26.08q0-2.68-1.03-5.2-1.02-2.51-2.79-4.45-1.78-1.93-4.14-3.11-2.37-1.17-5.05-1.17-2.68 0-5.05.91-2.37.91-4.12 2.68-1.74 1.77-2.75 4.38-1 2.61-1 5.96t1 5.95q1.01 2.61 2.75 4.38 1.75 1.77 4.12 2.68 2.37.91 5.05.91 2.68 0 5.05-1.17 2.36-1.17 4.14-3.11 1.77-1.94 2.79-4.45 1.03-2.51 1.03-5.19"></path><rect width="52.35" height="54.17" x="-26.18" y="-27.09" fill="none" rx="0" ry="0" transform="translate(621.28 81.03)"></rect><path fill="#48937e" d="M708.206 80.583q0 6.03-2.05 11-2.06 4.98-5.6 8.54-3.54 3.57-8.31 5.53-4.76 1.96-10.21 1.96-5.41 0-10.17-2.01t-8.33-5.6q-3.56-3.58-5.62-8.54-2.06-4.95-2.06-10.88v-45.56h13.11v23.93q1.06-1.34 2.56-2.39 1.51-1.06 3.26-1.73 1.75-.67 3.61-1.03 1.87-.36 3.64-.36 5.45 0 10.21 2.04 4.77 2.03 8.31 5.67 3.54 3.64 5.6 8.59 2.05 4.95 2.05 10.84m-13.16 0q0-2.97-1.03-5.53-1.02-2.56-2.79-4.43-1.78-1.86-4.14-2.92-2.37-1.05-5.05-1.05-2.68 0-5.05 1.17-2.37 1.18-4.14 3.11-1.77 1.94-2.77 4.45-1.01 2.52-1.01 5.2 0 2.96 1.01 5.5 1 2.54 2.77 4.4 1.77 1.87 4.14 2.94 2.37 1.08 5.05 1.08 2.68 0 5.05-1.08 2.36-1.07 4.14-2.94 1.77-1.86 2.79-4.4 1.03-2.54 1.03-5.5"></path><rect width="52.35" height="72.59" x="-26.18" y="-36.3" fill="none" rx="0" ry="0" transform="translate(682.53 71.82)"></rect><path fill="#48937e" d="M137.281 66.5c0-36.034-29.211-65.245-65.245-65.245S6.791 30.466 6.791 66.5a65.33 65.33 0 0 0 2.067 16.353h126.356a65.406 65.406 0 0 0 2.067-16.353M72.036 56.006 54.244 73.798H19.84l52.197-52.196 52.195 52.196H89.83zm-47.338 55.39h94.677c-11.89 12.533-28.701 20.349-47.339 20.349-18.638 0-35.449-7.816-47.338-20.349"></path></svg></svg>