<svg fill="none" height="27" viewBox="0 0 138 27" width="138" xmlns="http://www.w3.org/2000/svg"><path d="m53.248 7.52912h3.8316c-.0554-3.37003-2.8252-5.69673-7.0355-5.69673-4.1456 0-7.1832 2.28977-7.1647 5.72443-.0093 2.78838 1.9573 4.38568 5.1519 5.15198l2.059.5171c2.0589.4985 3.2038 1.0894 3.2131 2.3636-.0093 1.3849-1.3204 2.3267-3.3516 2.3267-2.0774 0-3.5732-.9602-3.7024-2.853h-3.8686c.1015 4.0902 3.0284 6.2046 7.6172 6.2046 4.6164 0 7.3309-2.2067 7.3402-5.6691-.0093-3.1484-2.3821-4.8196-5.6691-5.5582l-1.6988-.40627c-1.6435-.37855-3.0192-.98792-2.9915-2.34517 0-1.21875 1.0802-2.11435 3.0376-2.11435 1.9112 0 3.0838.8679 3.2316 2.35441zm14.2487-.71094h-2.6683v-3.39773h-3.9332v3.39773h-1.939v2.95455h1.939v7.38637c-.0185 2.7791 1.8742 4.1548 4.7272 4.0348 1.0157-.0369 1.7358-.2401 2.1328-.3693l-.6186-2.9269c-.1939.037-.6093.1293-.9787.1293-.7848 0-1.3295-.2955-1.3295-1.385v-6.86927h2.6683zm6.6062 14.44962c2.0959 0 3.4531-.9141 4.1456-2.2344h.1108v1.9666h3.7301v-9.5653c0-3.3793-2.8622-4.80118-6.0199-4.80118-3.3977 0-5.6321 1.625-6.1768 4.21028l3.6378.2954c.2677-.9418 1.1079-1.63423 2.5205-1.63423 1.3388 0 2.1052.67403 2.1052 1.83733v.0554c0 .9141-.9695 1.0341-3.4347 1.2742-2.8068.2585-5.3274 1.2003-5.3274 4.3672 0 2.8068 2.0035 4.2287 4.7088 4.2287zm1.1264-2.7145c-1.2095 0-2.0774-.5632-2.0774-1.6435 0-1.108.9141-1.6527 2.299-1.8466.8587-.12 2.2621-.3231 2.733-.6371v1.505c0 1.4865-1.228 2.6222-2.9546 2.6222zm9.9116 2.4467h3.9332v-8.0234c0-1.7451 1.2742-2.9454 3.01-2.9454.5447 0 1.2926.0924 1.6619.2124v-3.49005c-.3508-.0831-.8402-.13849-1.2372-.13849-1.5881 0-2.8899.92329-3.407 2.67755h-.1477v-2.47443h-3.8132zm18.8931-14.18182h-2.668v-3.39773h-3.9337v3.39773h-1.939v2.95455h1.939v7.38637c-.0185 2.7791 1.8743 4.1548 4.7277 4.0348 1.015-.0369 1.735-.2401 2.132-.3693l-.618-2.9269c-.194.037-.61.1293-.979.1293-.785 0-1.329-.2955-1.329-1.385v-6.86927h2.668zm11.656 8.14342c.01 1.902-1.292 2.8992-2.705 2.8992-1.486 0-2.447-1.0433-2.456-2.7145v-8.32812h-3.933v9.02982c.009 3.3146 1.948 5.3367 4.801 5.3367 2.133 0 3.666-1.0988 4.303-2.7607h.147v2.576h3.777v-14.18182h-3.934zm7.08 11.3566h3.933v-7.5895h.12c.545 1.1818 1.736 2.5021 4.026 2.5021 3.231 0 5.752-2.5575 5.752-7.3032 0-4.87504-2.632-7.29408-5.743-7.29408-2.373 0-3.509 1.41264-4.035 2.56676h-.175v-2.3821h-3.878zm3.85-12.4091c0-2.5298 1.071-4.14561 2.982-4.14561 1.948 0 2.982 1.68961 2.982 4.14561 0 2.4744-1.052 4.1918-2.982 4.1918-1.893 0-2.982-1.662-2.982-4.1918z" fill="#090e34"/><g fill="#4a6cf7"><path d="m0 0c13.8071 0 25 11.1929 25 25h-23c-1.10457 0-2-.8954-2-2z"/><path d="m6 25c0-13.8071 11.1929-25 25-25v23c0 1.1046-.8954 2-2 2z" opacity=".5"/></g></svg>