<svg width="410.80000000000007" height="94.54418939184279" viewBox="0 0 370 85.15421147756044" class="css-1j8o68f"><defs id="SvgjsDefs1609"><linearGradient id="SvgjsLinearGradient1614"><stop id="SvgjsStop1615" stop-color="#fbb040" offset="0"></stop><stop id="SvgjsStop1616" stop-color="#f9ed32" offset="1"></stop></linearGradient><linearGradient id="SvgjsLinearGradient1617"><stop id="SvgjsStop1618" stop-color="#fbb040" offset="0"></stop><stop id="SvgjsStop1619" stop-color="#f9ed32" offset="1"></stop></linearGradient></defs><g id="SvgjsG1610" featurekey="odWo6G-0" transform="matrix(0.5227391448234538,0,0,0.5227391448234538,-16.88447397897924,-24.307370234290605)" fill="url(#SvgjsLinearGradient1614)"><g xmlns="http://www.w3.org/2000/svg"><path d="M84.5,82.1c9,0,16.4-6.7,17.6-15.4h30.4l13,18.8c0.5,0.7,1.2,1,2,1h73.7c1.3,0,2.4-1.1,2.4-2.4c0-1.3-1.1-2.4-2.4-2.4   h-72.5l-13-18.8c-0.5-0.7-1.2-1-2-1H102c-1.2-8.7-8.6-15.4-17.6-15.4c-9.8,0-17.8,8-17.8,17.8S74.7,82.1,84.5,82.1z M84.5,51.4   c7.1,0,12.9,5.8,12.9,12.9c0,0,0,0,0,0c0,0,0,0,0,0c0,7.1-5.8,12.9-12.9,12.9c-7.1,0-12.9-5.8-12.9-12.9S77.3,51.4,84.5,51.4z"></path><path d="M221.2,109.5h-76.7c-1.2-8.7-8.6-15.4-17.6-15.4c-9.8,0-17.8,8-17.8,17.8s8,17.8,17.8,17.8c9,0,16.4-6.7,17.6-15.4h76.7   c1.3,0,2.4-1.1,2.4-2.4C223.6,110.6,222.5,109.5,221.2,109.5z M126.9,124.9c-7.1,0-12.9-5.8-12.9-12.9S119.8,99,126.9,99   c7.1,0,12.9,5.8,12.9,12.9c0,0,0,0,0,0s0,0,0,0C139.8,119.1,134,124.9,126.9,124.9z"></path><path d="M221.2,140.3h-66.9c-0.8,0-1.6,0.4-2.1,1.1l-9.4,15h-41.2l-10.2-19c-0.4-0.8-1.2-1.3-2.1-1.3H67.7   c-1.2-8.7-8.6-15.4-17.6-15.4c-9.8,0-17.8,8-17.8,17.8s8,17.8,17.8,17.8c9,0,16.4-6.7,17.6-15.4h20.1l10.2,19   c0.4,0.8,1.2,1.3,2.1,1.3h44c0.8,0,1.6-0.4,2.1-1.1l9.4-15h65.5c1.3,0,2.4-1.1,2.4-2.4C223.6,141.4,222.5,140.3,221.2,140.3z    M50.1,151.6c-7.1,0-12.9-5.8-12.9-12.9s5.8-12.9,12.9-12.9c7.1,0,12.9,5.8,12.9,12.9c0,0,0,0,0,0s0,0,0,0   C63.1,145.8,57.3,151.6,50.1,151.6z"></path><path d="M221.2,168.6h-38.6c-0.9,0-1.7,0.5-2.1,1.2l-11.4,19.4h-58.2c-1.2-8.7-8.6-15.4-17.6-15.4c-9.8,0-17.8,8-17.8,17.8   c0,9.8,8,17.8,17.8,17.8c9,0,16.4-6.7,17.6-15.4h59.6c0.9,0,1.7-0.5,2.1-1.2l11.4-19.4h37.2c1.3,0,2.4-1.1,2.4-2.4   C223.6,169.7,222.5,168.6,221.2,168.6z M93.3,204.6c-7.1,0-12.9-5.8-12.9-12.9c0-7.1,5.8-12.9,12.9-12.9c7.1,0,12.9,5.8,12.9,12.9   C106.3,198.8,100.5,204.6,93.3,204.6z"></path></g></g><g id="SvgjsG1611" featurekey="VGK2BT-0" transform="matrix(4.569138265375629,0,0,4.569138265375629,114.19239909459446,-17.429819497564907)" fill="url(#SvgjsLinearGradient1617)"><path d="M12.271 6.441000000000001 c0.16966 0 0.28831 0.11881 0.28831 0.27136 l0 13 c0 0.18644 -0.10169 0.28797 -0.25424 0.28797 l-1 0 c-0.42373 0 -0.66102 -0.28797 -0.66102 -0.6778 l0 -5.0169 l-7.4576 0 l0 5.4068 c0 0.15254 -0.11881 0.28797 -0.27119 0.28797 l-1.3559 0 c-0.16949 0 -0.28831 -0.11864 -0.28831 -0.28814 l0 -13 c0 -0.15254 0.10186 -0.27119 0.27119 -0.27119 l1.3559 0 c0.16949 0 0.28831 0.11864 0.28831 0.27119 l0 5.678 l7.4576 0 l0 -5.678 c0 -0.15254 0.10169 -0.27119 0.27119 -0.27119 l1.3558 0 z M22.06760847457627 19.62712 c-0.22034 -1.661 -0.2368 -3.2032 -0.16916 -4.8302 c0.084746 -2 -1.0169 -3.2881 -3.0847 -3.2881 c-1.3559 0 -2.7627 0.40678 -3.5932 0.86441 c-0.15254 0.084746 -0.25424 0.23712 -0.18644 0.38966 l0.42373 0.98305 c0.067797 0.16949 0.18644 0.22034 0.40678 0.11864 c1.0847 -0.49153 1.9661 -0.72881 2.8305 -0.72881 c0.91525 0 1.4576 0.35593 1.4237 1.322 c-3.1356 0.5422 -5.5254 1.1015 -5.5254 3.3049 c0 1.4746 1.0678 2.3219 2.7966 2.3219 c1.4408 0 2.1864 -0.44051 2.8983 -0.98288 c0.08458 0.50847 0.23712 0.89831 0.5761 0.89831 l1.0169 0 c0.15238 0 0.20322 -0.18644 0.18627 -0.37288 z M17.712008474576272 18.627299999999998 c-0.69492 0 -1.2373 -0.23729 -1.2373 -0.88136 c0 -1.0339 1.8981 -1.3729 3.6102 -1.7288 c-0.016949 0.55932 -0.016949 1.3051 0 1.7966 c-0.55932 0.42373 -1.5085 0.81356 -2.3729 0.81356 z M38.424 19.64424 c0.050847 0.18644 -0.016784 0.3561 -0.16916 0.3561 l-1.1017 0 c-0.42373 0 -0.66102 -0.28797 -0.66102 -0.6778 l0 -4.4237 c0 -1.1017 -0.77966 -1.7458 -1.8983 -1.7458 c-0.9661 0 -1.7797 0.55932 -2.4746 1.2542 c0.016784 0.10169 0.016784 0.20339 0.016784 0.3222 l0 3.7456 c0.016949 0.47458 0.050847 0.83051 0.10169 1.1695 c0.033898 0.18644 -0.016949 0.35576 -0.16949 0.35576 l-1.1017 0 c-0.44068 0 -0.66102 -0.28797 -0.66102 -0.6778 l0 -4.4237 c0 -1.1017 -0.77966 -1.7458 -1.8985 -1.7458 c-0.96593 0 -1.7795 0.54237 -2.4575 1.2373 l0 5.339 c0 0.15238 -0.11864 0.27102 -0.27119 0.27102 l-1.322 0 c-0.15254 0 -0.25424 -0.11864 -0.25424 -0.27102 l0 -7.8476 c0 -0.15238 0.10169 -0.27119 0.25424 -0.27119 l0.91525 0 c0.40678 0 0.66102 0.42373 0.67797 0.72881 l0 0.16949 c0.66102 -0.50864 1.5424 -1 2.6949 -1 c1.1695 0 2.339 0.49136 2.9831 1.4405 c0.67797 -0.62712 1.7288 -1.4407 3.2203 -1.4407 c1.7458 0 3.4914 1.1017 3.4914 3.2205 l0 3.7456 c0 0.47458 0.050847 0.83051 0.084746 1.1695 z M42.94913559322034 18.1525 l3.6268 -0.00016552 c0.18644 0 0.28831 0.084746 0.28831 0.27119 l0 1.3053 c0 0.18644 -0.11864 0.27102 -0.28814 0.27102 l-6 0 c-0.37288 0 -0.54237 -0.42356 -0.38983 -0.6778 l0.27119 -0.42373 l3.5593 -5.4407 l-3.5254 0 c-0.16949 0 -0.27119 -0.084746 -0.27119 -0.27119 l0 -1.3051 c0 -0.18644 0.10169 -0.27119 0.27119 -0.27119 l5.9832 0 c0.30508 0 0.45763 0.35593 0.33898 0.59322 l-0.22034 0.37288 z M55.982862711864406 19.62712 c-0.22034 -1.661 -0.2368 -3.2032 -0.16916 -4.8302 c0.084746 -2 -1.0169 -3.2881 -3.0847 -3.2881 c-1.3559 0 -2.7627 0.40678 -3.5932 0.86441 c-0.15254 0.084746 -0.25424 0.23712 -0.18644 0.38966 l0.42373 0.98305 c0.067797 0.16949 0.18644 0.22034 0.40678 0.11864 c1.0847 -0.49153 1.9661 -0.72881 2.8305 -0.72881 c0.91525 0 1.4576 0.35593 1.4237 1.322 c-3.1356 0.5422 -5.5254 1.1015 -5.5254 3.3049 c0 1.4746 1.0678 2.3219 2.7966 2.3219 c1.4408 0 2.1864 -0.44051 2.8983 -0.98288 c0.08458 0.50847 0.23712 0.89831 0.5761 0.89831 l1.0169 0 c0.15238 0 0.20322 -0.18644 0.18627 -0.37288 z M51.62726271186441 18.627299999999998 c-0.69492 0 -1.2373 -0.23729 -1.2373 -0.88136 c0 -1.0339 1.8981 -1.3729 3.6102 -1.7288 c-0.016949 0.55932 -0.016949 1.3051 0 1.7966 c-0.55932 0.42373 -1.5085 0.81356 -2.3729 0.81356 z"></path></g></svg>