<svg width="58" height="59" viewBox="0 0 58 59" fill="none" xmlns="http://www.w3.org/2000/svg">
<g filter="url(#filter0_d_2686_12399)">
<path fill-rule="evenodd" clip-rule="evenodd" d="M24.3448 24.8318L16.6015 16.9012C16.4237 16.9913 16.2252 17.0424 16.012 17.0424C15.2744 17.0424 14.676 16.4356 14.676 15.6876C14.676 14.9396 15.2744 14.3328 16.012 14.3328C16.7496 14.3328 17.3479 14.9396 17.3479 15.6876C17.3479 15.9159 17.2917 16.1322 17.1939 16.3214L24.9313 24.246L24.3478 24.8318H24.3448ZM28.806 21.3412L20.6094 12.9329C20.6894 12.7587 20.7368 12.5634 20.7368 12.3591C20.7368 11.6111 20.1384 11.0043 19.4008 11.0043C18.6632 11.0043 18.0648 11.6111 18.0648 12.3591C18.0648 13.1071 18.6632 13.714 19.4008 13.714C19.6348 13.714 19.854 13.6509 20.0466 13.5457L28.2254 21.9329L31.3298 25.0481L31.9075 24.4563L28.806 21.3442V21.3412ZM38.5992 11.0043C37.8616 11.0043 37.2632 11.6111 37.2632 12.3591C37.2632 12.5814 37.3165 12.7887 37.4113 12.975L29.5821 20.9146L30.1627 21.5034L37.9919 13.5638C38.1756 13.6569 38.38 13.714 38.5992 13.714C39.3368 13.714 39.9352 13.1071 39.9352 12.3591C39.9352 11.6111 39.3368 11.0043 38.5992 11.0043ZM42.2961 14.1285C41.5585 14.1285 40.9601 14.7353 40.9601 15.4833C40.9601 15.7327 41.0283 15.964 41.1438 16.1652L29.5821 27.8899L30.1627 28.4787L41.757 16.721C41.9229 16.7961 42.1036 16.8351 42.2931 16.8351C43.0307 16.8351 43.6291 16.2283 43.6291 15.4803C43.6291 14.7323 43.0307 14.1255 42.2931 14.1255L42.2961 14.1285ZM42.0917 34.0151C41.8725 34.0151 41.6681 34.0692 41.4844 34.1653L33.6552 26.2257L33.0746 26.8145L40.9038 34.7541C40.8091 34.9403 40.7557 35.1476 40.7557 35.3699C40.7557 36.1179 41.3541 36.7247 42.0917 36.7247C42.8293 36.7247 43.4277 36.1179 43.4277 35.3699C43.4277 34.6219 42.8293 34.0151 42.0917 34.0151ZM38.8066 37.5538C38.5874 37.5538 38.383 37.6079 38.1993 37.704L26.8805 26.2257L26.2999 26.8145L37.6187 38.2928C37.5269 38.4791 37.4706 38.6864 37.4706 38.9087C37.4706 39.6567 38.069 40.2635 38.8066 40.2635C39.5442 40.2635 40.1425 39.6567 40.1425 38.9087C40.1425 38.1607 39.5442 37.5538 38.8066 37.5538ZM28.2135 23.48L27.6329 22.8912L16.8266 33.8499C16.1749 33.5104 15.3721 33.7688 15.0344 34.4297C14.6938 35.0936 14.9485 35.9106 15.6032 36.2531C16.2578 36.5986 17.0636 36.3402 17.4013 35.6763C17.6086 35.2738 17.5938 34.8142 17.4042 34.4387L28.2106 23.48H28.2135ZM28.5216 30.0378L27.941 29.449L20.1058 37.3946C19.4541 37.0672 18.6632 37.3255 18.3285 37.9834C17.9878 38.6473 18.2426 39.4644 18.8972 39.8069C19.5519 40.1523 20.3576 39.894 20.6953 39.2301C20.9056 38.8215 20.8878 38.3559 20.6923 37.9774L28.5186 30.0408L28.5216 30.0378ZM23.8175 25.682L23.0977 25.2794H6.61271C6.44683 24.7237 5.93732 24.3151 5.33598 24.3151C4.59838 24.3151 4 24.9219 4 25.6699C4 26.4179 4.59838 27.0248 5.33598 27.0248C5.94028 27.0248 6.44979 26.6192 6.61271 26.0605H23.0947L23.8146 25.682H23.8175ZM21.0449 22.2303L20.4287 21.6055H11.9922C11.8678 21.2751 11.5538 21.0378 11.1805 21.0378C10.7006 21.0378 10.3126 21.4313 10.3126 21.9179C10.3126 22.4046 10.7006 22.7981 11.1805 22.7981C11.5508 22.7981 11.8678 22.5608 11.9922 22.2303H21.0419H21.0449ZM20.7368 29.1005H9.43279C9.29948 28.6529 8.89069 28.3285 8.40784 28.3285C7.81539 28.3285 7.33847 28.8152 7.33847 29.413C7.33847 30.0108 7.81835 30.4974 8.40784 30.4974C8.89069 30.4974 9.29948 30.17 9.43279 29.7254H19.8096L20.7338 29.1005H20.7368ZM34.9053 26.0605H51.3873C51.5532 26.6162 52.0627 27.0248 52.664 27.0248C53.4016 27.0248 54 26.4179 54 25.6699C54 24.9219 53.4016 24.3151 52.664 24.3151C52.0597 24.3151 51.5502 24.7207 51.3873 25.2794H34.9053L34.1854 25.682L34.9053 26.0605ZM46.0078 22.2303C46.1322 22.5608 46.4462 22.7981 46.8195 22.7981C47.2994 22.7981 47.6874 22.4046 47.6874 21.9179C47.6874 21.4313 47.2994 21.0378 46.8195 21.0378C46.4492 21.0378 46.1322 21.2751 46.0078 21.6055H37.5743L36.9581 22.2303H46.0078ZM38.1904 29.7254H48.5702C48.7035 30.173 49.1123 30.4974 49.5951 30.4974C50.1876 30.4974 50.6645 30.0108 50.6645 29.413C50.6645 28.8152 50.1846 28.3285 49.5951 28.3285C49.1123 28.3285 48.7035 28.6559 48.5702 29.1005H37.2662L38.1904 29.7254ZM29.277 30.8699L28.88 31.5999V48.3142C28.332 48.4825 27.9291 48.9992 27.9291 49.609C27.9291 50.357 28.5275 50.9638 29.2651 50.9638C30.0027 50.9638 30.6011 50.357 30.6011 49.609C30.6011 48.9962 30.2012 48.4795 29.6502 48.3142V31.5999L29.277 30.8699ZM25.8733 33.6817L25.2572 34.3065V42.8589C24.9313 42.9851 24.6973 43.3035 24.6973 43.682C24.6973 44.1687 25.0854 44.5622 25.5653 44.5622C26.0451 44.5622 26.4332 44.1687 26.4332 43.682C26.4332 43.3065 26.1992 42.9851 25.8733 42.8589V33.6817ZM32.648 33.9941V45.4574C32.2066 45.5926 31.8867 46.0071 31.8867 46.4968C31.8867 47.0976 32.3666 47.5813 32.9561 47.5813C33.5456 47.5813 34.0255 47.0946 34.0255 46.4968C34.0255 46.0071 33.7026 45.5926 33.2642 45.4574V34.9313L32.648 33.9941ZM29.6502 19.4186V2.70423C30.1982 2.53601 30.6011 2.01932 30.6011 1.4095C30.6011 0.661499 30.0027 0.0546875 29.2651 0.0546875C28.5275 0.0546875 27.9291 0.661499 27.9291 1.4095C27.9291 2.02232 28.3291 2.53901 28.88 2.70423V19.4186L29.277 20.1486L29.6502 19.4186ZM25.8733 8.15953C26.1992 8.03336 26.4332 7.71493 26.4332 7.33643C26.4332 6.84978 26.0451 6.45625 25.5653 6.45625C25.0854 6.45625 24.6973 6.84978 24.6973 7.33643C24.6973 7.71193 24.9313 8.03336 25.2572 8.15953V16.712L25.8733 17.3368V8.15953ZM33.2642 16.0871V5.56406C33.7056 5.42887 34.0255 5.01432 34.0255 4.52467C34.0255 3.92386 33.5456 3.44022 32.9561 3.44022C32.3666 3.44022 31.8867 3.92687 31.8867 4.52467C31.8867 5.01432 32.2096 5.42887 32.648 5.56406V17.0244L33.2642 16.0871Z" fill="black"/>
</g>
<defs>
<filter id="filter0_d_2686_12399" x="0" y="0.0546875" width="58" height="58.9062" filterUnits="userSpaceOnUse" color-interpolation-filters="sRGB">
<feFlood flood-opacity="0" result="BackgroundImageFix"/>
<feColorMatrix in="SourceAlpha" type="matrix" values="0 0 0 0 0 0 0 0 0 0 0 0 0 0 0 0 0 0 127 0" result="hardAlpha"/>
<feOffset dy="4"/>
<feGaussianBlur stdDeviation="2"/>
<feComposite in2="hardAlpha" operator="out"/>
<feColorMatrix type="matrix" values="0 0 0 0 0 0 0 0 0 0 0 0 0 0 0 0 0 0 0.25 0"/>
<feBlend mode="normal" in2="BackgroundImageFix" result="effect1_dropShadow_2686_12399"/>
<feBlend mode="normal" in="SourceGraphic" in2="effect1_dropShadow_2686_12399" result="shape"/>
</filter>
</defs>
</svg>
