<svg xmlns="http://www.w3.org/2000/svg" width="50" height="50" viewBox="0 0 50 50" fill="none"><g style="mix-blend-mode:luminosity"><g clip-path="url(#clip0_57627_3908)"><path d="M20.7325 28.3545C21.7174 28.3545 22.5158 29.1529 22.5158 30.1379V37.7881C22.5158 38.773 21.7174 39.5713 20.7325 39.5713C19.7477 39.5713 18.9492 38.773 18.9492 37.7881V30.1379C18.9492 29.1531 19.7477 28.3546 20.7325 28.3546V28.3545Z" fill="#A4C639"></path><path d="M16.6595 19.1567C16.6536 19.2244 16.6484 19.2927 16.6484 19.3619V30.9526C16.6484 32.1991 17.6351 33.2033 18.86 33.2033H30.6469C31.8719 33.2033 32.8586 32.199 32.8586 30.9526V19.3619C32.8586 19.2927 32.8561 19.2241 32.8503 19.1567H16.6595Z" fill="#A4C639"></path><path d="M28.7767 28.3543C29.7616 28.3543 30.5601 29.1527 30.5601 30.1376V37.7878C30.5601 38.7728 29.7616 39.5711 28.7767 39.5711C27.7919 39.5711 26.9934 38.7728 26.9934 37.7878V30.1376C26.9934 29.1529 27.7919 28.3544 28.7767 28.3544V28.3543ZM13.7834 20.1881C14.7682 20.1881 15.5666 20.9866 15.5666 21.9715V29.6217C15.5666 30.6066 14.7682 31.4051 13.7834 31.4051C12.7985 31.4051 12 30.6066 12 29.6218V21.9716C11.9999 20.9867 12.7983 20.1881 13.7834 20.1881ZM35.7245 20.1881C36.7093 20.1881 37.5077 20.9866 37.5077 21.9715V29.6217C37.5077 30.6066 36.7093 31.4051 35.7245 31.4051C34.7396 31.4051 33.9411 30.6066 33.9411 29.6218V21.9716C33.9411 20.9867 34.7396 20.1881 35.7245 20.1881ZM16.7118 18.3953C16.7614 14.835 19.8688 11.916 23.8576 11.5312H25.6499C29.6389 11.9161 32.746 14.8353 32.7956 18.3953H16.7118Z" fill="#A4C639"></path><path d="M32.1757 11.188L30.2944 14.4464M17.332 11.188L19.2132 14.4464L17.332 11.188Z" stroke="#A4C639" stroke-width="0.67248" stroke-linecap="round" stroke-linejoin="round"></path><path d="M22.3589 15.2049C22.3604 15.7026 21.9485 16.1072 21.4389 16.1086C20.9294 16.1098 20.5152 15.7076 20.5137 15.2099V15.2049C20.5123 14.7071 20.9242 14.3027 21.4337 14.3013C21.9432 14.2999 22.3574 14.702 22.3589 15.1999V15.2049ZM29.246 15.2049C29.2475 15.7026 28.8356 16.1072 28.3259 16.1086C27.8165 16.1098 27.4022 15.7076 27.4007 15.2099V15.2049C27.3993 14.7071 27.8112 14.3027 28.3208 14.3013C28.8302 14.2999 29.2445 14.702 29.246 15.1999V15.2049Z" fill="white"></path></g></g><defs><clipPath id="clip0_57627_3908"><rect width="25.5086" height="28.5714" fill="white" transform="translate(12 11)"></rect></clipPath></defs></svg>