<svg xmlns="http://www.w3.org/2000/svg" width="50" height="50" viewBox="0 0 50 50" fill="none"><g style="mix-blend-mode:luminosity"><g clip-path="url(#clip0_57627_4013)"><path d="M7 7.00098H43V42.9995H7V7.00098Z" fill="#CF4037"></path><path d="M22.9121 22.8931C22.0231 22.8931 21.2492 23.1247 20.5918 23.6282V25.0207C21.2492 24.2856 22.0231 23.9002 22.9121 23.9002L23.9565 24.0555L24.8455 24.4425L25.7344 24.8295C26.0437 24.946 26.353 24.9849 26.6234 24.9849C27.5901 24.9849 28.2863 24.6756 28.7495 24.0182V22.6646C28.2848 23.5535 27.5901 23.9793 26.6234 23.9793C26.3202 23.9814 26.019 23.9287 25.7344 23.824L24.8455 23.437L23.9565 23.05L22.9121 22.8931Z" fill="#3F3E3E"></path><path d="M21.4039 23.4343L20.9392 23.6659L20.9004 23.7048V24.4787L21.1708 24.2471C21.6933 23.8494 22.331 23.6323 22.9876 23.6286C23.3358 23.6286 23.7227 23.7063 24.1082 23.8213C24.3398 23.899 24.6491 24.014 25.036 24.2083L25.8862 24.5564C26.1566 24.6729 26.427 24.7491 26.6974 24.7491C27.2383 24.7491 27.7418 24.5937 28.1661 24.2845L28.5143 23.9752L28.5919 23.8975V23.2789C28.3723 23.529 28.1103 23.7384 27.818 23.8975C27.4752 24.0858 27.0884 24.1792 26.6974 24.1679C26.3882 24.1679 26.0789 24.0902 25.7308 23.9752C25.538 23.9363 25.2661 23.7825 24.8418 23.5882L23.9528 23.2401L22.9861 23.0474C22.4468 23.0474 21.9059 23.1639 21.4039 23.4343Z" fill="white"></path><path d="M23.0291 22.5842L22.9902 21.2694C22.9902 17.9062 23.6088 14.5027 24.8459 11.0229C26.083 14.5027 26.7015 17.9047 26.7015 21.2694C26.7015 22.0045 26.6627 22.8158 26.5462 23.7048C26.2015 23.6544 25.864 23.5636 25.5406 23.4343C25.645 22.7174 25.6969 21.9939 25.696 21.2694C25.696 19.336 25.4256 17.1711 24.8459 14.7746C24.2662 17.1711 23.9958 19.336 23.9958 21.2694L24.0734 22.7769C23.7362 22.6635 23.3846 22.5986 23.0291 22.5842ZM23.183 24.1306C23.4964 26.6531 24.0533 29.1394 24.8459 31.5547C25.4791 29.448 25.9826 27.3044 26.3534 25.1361C26.0037 25.0883 25.6641 24.9838 25.3479 24.8268L24.8459 27.5341C24.598 26.4858 24.3917 25.4282 24.2273 24.3636C23.8887 24.2485 23.5385 24.1703 23.183 24.1306Z" fill="#3F3E3E"></path><path d="M24.6132 27.6103L24.0335 24.5176L23.4538 24.3622C23.6092 25.4828 23.8407 26.7214 24.15 28.0735L24.8463 30.7419C25.3871 28.8474 25.8129 27.0695 26.0834 25.3289L25.5425 25.1361L25.0779 27.6103L24.8463 28.6159L24.6132 27.6103ZM24.6132 14.697C24.032 17.1323 23.7616 19.2972 23.7616 21.2694L23.8004 22.4677L23.2595 22.39L23.2207 21.2694C23.2207 19.2196 23.53 16.9007 24.1485 14.31L24.8448 11.7192L25.541 14.31C26.1596 16.8992 26.4688 19.2196 26.4688 21.2694C26.4688 21.9268 26.43 22.6619 26.3523 23.4344L25.7726 23.279L25.8891 21.2679C25.8891 19.2957 25.6187 17.1308 25.0779 14.6955L24.8463 13.6899L24.6132 14.697Z" fill="white"></path><path d="M26.9627 25.6036H27.0838C27.151 25.6036 27.1644 25.6439 27.1644 25.6708V25.7784H27.2317V25.7649C27.2182 25.7515 27.2182 25.7515 27.2182 25.7246V25.6573C27.2048 25.6036 27.1913 25.5901 27.1644 25.5767C27.1913 25.5632 27.2182 25.5363 27.2182 25.4825C27.2182 25.4019 27.151 25.375 27.0838 25.375H26.909V25.7784H26.9627V25.6036ZM26.6938 25.5901C26.6938 25.4825 26.7341 25.3884 26.8014 25.3346C26.8323 25.3012 26.8697 25.2745 26.9114 25.256C26.953 25.2375 26.9979 25.2277 27.0434 25.2271H27.0569C27.151 25.2271 27.2451 25.2674 27.3124 25.3346C27.3729 25.4007 27.4065 25.4871 27.4065 25.5767V25.5901C27.404 25.6833 27.3709 25.7731 27.3124 25.8456C27.2398 25.9042 27.1501 25.9373 27.0569 25.9397C26.9628 25.9422 26.8713 25.9085 26.8014 25.8456C26.7335 25.7777 26.6949 25.6861 26.6938 25.5901ZM26.7341 25.5901C26.738 25.6732 26.7736 25.7517 26.8337 25.8093C26.8938 25.8668 26.9737 25.8991 27.0569 25.8994C27.138 25.8967 27.215 25.863 27.272 25.8053C27.3298 25.7483 27.3635 25.6712 27.3661 25.5901V25.5767C27.3661 25.496 27.3258 25.4153 27.272 25.3615C27.2182 25.3077 27.1375 25.2674 27.0569 25.2674H27.0434C26.9603 25.2712 26.8818 25.3069 26.8243 25.3669C26.7667 25.427 26.7344 25.5069 26.7341 25.5901ZM26.9627 25.4288H27.0972C27.1241 25.4288 27.1644 25.4288 27.1644 25.496C27.1644 25.5498 27.1241 25.5632 27.0838 25.5632H26.9627V25.4288ZM37.1375 37.238H37.2152C37.2585 37.238 37.2674 37.2634 37.2674 37.2798V37.3486H37.3108V37.3396C37.3018 37.3306 37.3018 37.3306 37.3018 37.3142V37.2709C37.2943 37.238 37.2854 37.229 37.2674 37.2186C37.2854 37.2096 37.3018 37.1932 37.3018 37.1588C37.3018 37.1065 37.2585 37.0901 37.2152 37.0901H37.1031V37.3486H37.1375V37.238ZM36.9641 37.229C36.9641 37.1603 36.991 37.0991 37.0329 37.0647C37.0529 37.0435 37.077 37.0265 37.1037 37.0147C37.1303 37.0029 37.1591 36.9965 37.1883 36.996H37.1972C37.257 36.996 37.3182 37.0229 37.3601 37.0647C37.399 37.1071 37.4208 37.1625 37.4213 37.2201V37.229C37.4195 37.2886 37.398 37.3459 37.3601 37.3919C37.3139 37.4295 37.2567 37.451 37.1972 37.4532C37.1367 37.4543 37.0779 37.4324 37.0329 37.3919C36.99 37.3484 36.9654 37.2901 36.9641 37.229ZM36.991 37.229C36.9937 37.2824 37.0167 37.3328 37.0553 37.3697C37.094 37.4067 37.1453 37.4274 37.1987 37.4278C37.2245 37.4271 37.25 37.4214 37.2736 37.4109C37.2972 37.4004 37.3184 37.3853 37.3362 37.3665C37.3729 37.33 37.3943 37.2808 37.3959 37.229V37.2201C37.3944 37.1682 37.3732 37.119 37.3365 37.0823C37.2998 37.0456 37.2505 37.0244 37.1987 37.0229H37.1898C37.138 37.0245 37.0888 37.0459 37.0523 37.0826C37.0326 37.1016 37.0171 37.1243 37.0065 37.1495C36.996 37.1747 36.9907 37.2017 36.991 37.229ZM37.1375 37.1245H37.2241C37.242 37.1245 37.2674 37.1245 37.2674 37.1678C37.2674 37.2021 37.242 37.2111 37.2152 37.2111H37.1375V37.1245ZM25.515 35.3928C25.5076 35.4558 25.4904 35.5173 25.4642 35.5751C25.3865 35.8455 25.116 36.0398 24.6902 36.2325C24.6499 36.2519 24.6081 36.2669 24.5662 36.2848C24.5459 36.3088 24.5228 36.3303 24.4975 36.349C24.2592 36.524 23.9728 36.621 23.6772 36.6269C23.4604 36.6356 23.2436 36.6099 23.0348 36.5507L22.3326 36.5821L21.6752 37.0468L22.3968 37.105L22.5253 37.0094L23.3754 36.9706C23.9551 36.9317 24.496 36.854 24.9218 36.6613C25.3476 36.4686 25.5792 36.2743 25.6958 36.0039L25.7137 35.9247C25.6652 35.8254 25.6535 35.7121 25.6808 35.605C25.6431 35.5221 25.5863 35.4494 25.515 35.3928ZM26.5474 37.5084C27.7977 37.6998 29.0478 37.893 30.2975 38.0881C30.2198 38.0493 29.9494 37.9716 29.4862 37.8177L28.0176 37.4307L26.0125 37.0916L25.5628 37.3919L26.5474 37.5084ZM30.1422 35.9232C30.1987 35.8022 30.2716 35.6896 30.3588 35.5885C30.3172 35.502 30.2611 35.4231 30.193 35.3555C30.1856 35.418 30.1684 35.479 30.1422 35.5362C30.0645 35.8067 29.794 36.0383 29.3682 36.2325C29.305 36.2608 29.2407 36.2867 29.1755 36.3102C29.0156 36.4551 28.7273 36.5552 28.409 36.5911C28.1724 36.6183 27.9328 36.6047 27.7008 36.5507L27.0105 36.5821C26.9672 36.6075 26.894 36.6209 26.7013 36.7748C27.1017 36.8167 27.5081 36.8839 27.919 36.975L28.0534 36.9691C28.6331 36.9302 29.174 36.8525 29.5998 36.6598C29.809 36.5657 29.9718 36.4596 30.0958 36.346C30.073 36.2035 30.089 36.0574 30.1422 35.9232ZM25.5165 35.3779L25.8676 35.2808C25.9255 35.2191 25.9896 35.1635 26.0588 35.1149L25.6196 34.8803L25.3596 35.0029C25.4134 35.0486 25.4557 35.1064 25.483 35.1716C25.5102 35.2367 25.5217 35.3074 25.5165 35.3779ZM15.5658 36.4641C15.7138 36.2564 15.9782 36.0711 16.3727 35.9098C16.4175 35.8261 16.4593 35.7409 16.4952 35.6528C16.6401 35.2763 16.5893 34.9431 16.3263 34.6682C16.3584 34.8566 16.3367 35.0503 16.2636 35.227C15.9005 36.1473 14.9921 36.745 13.5264 37.0064C13.2419 37.0716 12.9516 37.1086 12.6599 37.117C12.302 37.1458 11.9431 37.1602 11.5841 37.1603H10.3948L10.2305 37.5861H11.8157C13.495 37.5861 14.7292 37.3172 15.536 36.7913C15.5172 36.7378 15.5102 36.6809 15.5154 36.6244C15.5205 36.568 15.5377 36.5133 15.5658 36.4641ZM30.1944 35.339L30.8772 35.1493L30.2975 34.84C30.2144 34.8834 30.1317 34.9278 30.0495 34.973C30.1001 35.0188 30.1395 35.0756 30.1646 35.1391C30.1898 35.2026 30.2 35.271 30.1944 35.339ZM31.6661 35.2987C31.5507 35.3673 31.453 35.4619 31.3808 35.5751H32.1636C32.5945 35.4205 33.0491 35.3422 33.5068 35.3435C33.9939 35.3435 34.3346 35.4167 34.5646 35.5273C34.611 35.357 34.5333 35.218 34.357 35.1119C34.1991 35.0373 34.0308 34.987 33.8579 34.9625C33.7668 34.9595 33.6757 34.958 33.5845 34.958C32.9293 34.9499 32.2785 35.0655 31.6661 35.2987ZM21.221 36.1354C21.2194 36.2089 21.2332 36.282 21.2615 36.3499C21.2898 36.4178 21.332 36.4791 21.3853 36.5298L21.6363 36.349C21.4879 36.2992 21.3478 36.2272 21.221 36.1354ZM16.9583 36.2325C16.8449 36.2681 16.7323 36.3064 16.6207 36.3475C16.5853 36.3814 16.5555 36.4208 16.5325 36.4641C16.4593 36.6344 16.54 36.7584 16.791 36.8271C16.8687 36.6942 17.0868 36.5642 17.4215 36.4641C17.8085 36.3475 18.2716 36.2713 18.7751 36.2713L19.059 36.3042L19.2159 35.9695C19.1716 35.9663 19.1273 35.9638 19.0829 35.9621C18.2716 35.9621 17.5769 36.0398 16.9583 36.2325Z" fill="#191B1D"></path><path d="M35.5968 35.3913C35.5987 35.4802 35.5851 35.5687 35.5564 35.6528L35.3637 35.9232H34.8064C34.8015 35.9498 34.794 35.9758 34.784 36.0009H31.6136C31.6296 35.9741 31.6471 35.9482 31.6658 35.9232H31.2266C31.128 36.1877 31.1713 36.3938 31.3775 36.5462C31.3814 36.4788 31.3955 36.4123 31.4193 36.349H35.5953L35.6297 36.3012L35.8269 35.7872C35.8179 35.7089 35.7929 35.6333 35.7533 35.5652C35.7137 35.4971 35.6604 35.4378 35.5968 35.3913ZM26.0316 36.5134L26.314 36.349C26.165 36.3 26.0247 36.2273 25.8987 36.1339C25.8944 36.2028 25.904 36.2719 25.9269 36.337C25.9497 36.4022 25.9853 36.4622 26.0316 36.5134ZM20.3063 37.3037L20.2824 37.2769C20.2456 37.2549 20.2161 37.2227 20.1972 37.1842L19.8954 37.3934L19.4308 37.3545L19.1215 37.238C19.0593 37.1958 19.0069 37.1408 18.9676 37.0766C18.5298 37.2275 18.0906 37.3157 17.6528 37.3157C17.342 37.3157 17.1164 37.2873 16.9655 37.235L16.8027 37.238C16.3769 37.238 16.0287 37.1603 15.7583 37.0453L15.7449 37.0363C15.7105 37.2051 15.7777 37.3501 15.9899 37.4711C16.2215 37.6265 16.5696 37.7027 17.0343 37.7027C17.8844 37.7027 18.5806 37.5861 19.1215 37.3545C19.1603 37.4711 19.1992 37.5861 19.3142 37.6638L19.6624 37.7804L20.127 37.8192L20.629 37.4711L20.6051 37.4651C20.4468 37.4517 20.2884 37.4427 20.1285 37.4307C20.1872 37.3876 20.2464 37.3452 20.3063 37.3037ZM11.1969 34.0287L11.1266 33.9839L10.6934 33.9899L11.1401 34.2887L11.1954 34.1452L11.1969 34.0287ZM26.7787 35.6528C26.8175 35.7574 26.8818 35.8395 26.961 35.9068C26.955 35.8067 27.0013 35.714 27.1268 35.6139C27.2822 35.4585 27.5138 35.3824 27.7842 35.3435C28.0935 35.3047 28.4028 35.3435 28.712 35.46C28.8629 35.5243 28.9869 35.59 29.0885 35.6692C29.109 35.5857 29.0984 35.4975 29.0587 35.4212C28.9421 35.2658 28.7494 35.1508 28.479 35.0342C28.4386 35.0193 28.3983 35.0088 28.3579 34.9969C27.8432 34.9924 27.3315 35.0753 26.8444 35.2419C26.7955 35.297 26.7633 35.365 26.7516 35.4378C26.74 35.5105 26.7494 35.5851 26.7787 35.6528ZM20.012 36.5806C19.9343 36.6971 19.9343 36.7733 20.0508 36.851L20.2645 36.9691L20.7859 36.0383C20.9757 35.6588 20.9413 35.3913 20.6843 35.2359C20.6613 35.3675 20.6174 35.4946 20.5543 35.6124L20.012 36.5806ZM12.549 34.4919L13.3603 34.453C14.2373 34.453 14.829 34.5845 15.1323 34.8385C15.0815 34.3051 14.4077 34.0287 13.1287 34.0287H12.3548L11.3493 36.6583H11.7407L12.549 34.4919ZM30.49 38.514L29.2529 38.3212L27.5795 38.0866L25.8494 37.8969L22.9882 37.6265C22.2845 37.5787 21.5793 37.5323 20.8756 37.483L20.3198 37.8581L23.2198 38.0508L26.0809 38.3212L29.5607 38.7082L32.2291 38.9786L31.6494 38.6693L31.119 38.4378L29.8625 38.3257L30.49 38.514ZM22.0619 35.6916C22.1083 35.781 22.1767 35.8571 22.2606 35.9128C22.2813 35.8124 22.3337 35.7212 22.41 35.6528C22.5654 35.4974 22.7969 35.4212 23.1062 35.3824C23.4155 35.3435 23.7248 35.3824 24.0341 35.4989C24.1864 35.5631 24.312 35.6289 24.4076 35.7006C24.4152 35.6582 24.4134 35.6147 24.4023 35.5732C24.3912 35.5316 24.3711 35.493 24.3433 35.46C24.2656 35.3047 24.0729 35.1896 23.8025 35.0731C23.7236 35.0441 23.6433 35.0192 23.5619 34.9984C23.048 35.0133 22.5878 35.0895 22.1575 35.2464C22.0185 35.3883 21.9812 35.5258 22.0619 35.6916ZM19.1813 34.958L19.0065 34.9565L18.0009 35.0342L17.0731 35.227L17.3047 35.6139C17.7305 35.4212 18.2325 35.3435 18.8899 35.3435C19.2246 35.3435 19.4741 35.3794 19.6385 35.4496C19.7176 35.1986 19.5652 35.0312 19.1813 34.958ZM39.2438 34.9595L39.1512 35.0342L38.8076 34.973C38.2398 35.0178 37.7483 35.1657 37.3359 35.4197L37.4494 35.1687C37.1282 35.3196 36.9459 35.5049 36.8712 35.6901L36.2915 37.1977H35.6476L35.4788 37.6235H36.5231L37.064 36.1159C37.2145 35.8799 37.4298 35.6922 37.684 35.5751C38.0321 35.4197 38.3803 35.3435 38.7284 35.3435L39.3843 35.46L39.9655 34.9954L39.2438 34.9595ZM30.2973 36.6957C30.3062 36.9511 30.484 37.1618 30.8381 37.3531C31.2639 37.5846 31.8048 37.7012 32.5399 37.7012L33.9324 37.5846L34.7437 37.3919L34.4344 37.0438C34.0086 37.1992 33.4677 37.2754 32.888 37.2754C32.6758 37.2754 32.4801 37.2604 32.3008 37.2365C31.5702 37.2246 31.0309 37.12 30.6065 36.9272C30.4934 36.8644 30.3894 36.7865 30.2973 36.6957Z" fill="#191B1D"></path><path d="M12.6597 37.1172C12.9675 37.0918 13.2558 37.0544 13.5263 37.0066C14.9905 36.7451 15.9004 36.1475 16.2634 35.2272C16.3365 35.0505 16.3582 34.8568 16.3262 34.6684C16.2769 34.4054 16.1021 34.1768 15.7988 33.99C15.2579 33.6808 14.4451 33.5254 13.3634 33.5254L10.4634 33.5642L11.1283 33.9841L11.1985 34.0289V34.1454L11.1432 34.2889L10.0391 37.1605H11.5854C11.9649 37.1605 12.322 37.1441 12.6597 37.1172ZM12.3564 34.0289H13.1303C14.4093 34.0289 15.0831 34.3068 15.1339 34.8387C15.1435 34.9846 15.1194 35.1308 15.0637 35.266C14.9083 35.6918 14.5617 36.0399 14.0582 36.3104C13.5561 36.542 12.9376 36.6585 12.2025 36.6585H11.3509L12.3564 34.0289ZM27.0104 36.5808L27.7007 36.5494L27.8605 36.5419C28.3551 36.5091 28.7928 36.4478 29.1753 36.3104C29.2411 36.2865 29.3053 36.2611 29.3681 36.2327C29.7939 36.0399 30.0643 35.8069 30.142 35.5364C30.1676 35.4789 30.1847 35.418 30.1928 35.3556L30.1943 35.3392C30.1999 35.2712 30.1898 35.2027 30.1646 35.1392C30.1395 35.0757 30.1 35.0189 30.0494 34.9732C30.03 34.9536 30.0095 34.9351 29.9881 34.9179L30.6455 34.7251L30.1046 34.4159L29.4861 34.7251C29.2157 34.6086 28.7898 34.5324 28.2101 34.5324C27.5916 34.5713 27.0507 34.6489 26.5861 34.8417C26.3993 34.9099 26.2221 35.0018 26.0587 35.1151C25.9895 35.1638 25.9254 35.2194 25.8674 35.2809C25.7965 35.3558 25.7389 35.4422 25.6971 35.5364C25.6896 35.5588 25.6866 35.5798 25.6821 35.6022C25.6548 35.7093 25.6665 35.8226 25.715 35.9219C25.7594 36.0061 25.8228 36.0788 25.9003 36.1341C26.0034 36.2133 26.1393 36.2865 26.3156 36.3492L26.0333 36.5136L25.851 36.6196L25.2713 36.9678L26.0108 37.0918L28.0159 37.4309L29.4846 37.8179C29.9493 37.9733 30.2197 38.0495 30.2959 38.0883L29.0588 37.8956L26.5457 37.5086L25.5596 37.3921L24.5735 37.2755L22.3952 37.1007L21.6735 37.0425L22.3309 36.5778L23.0331 36.5464L23.181 36.539C23.7055 36.5046 24.1656 36.4374 24.5646 36.282C24.6064 36.2655 24.6482 36.2491 24.6886 36.2297C25.1144 36.0369 25.3848 35.8427 25.4625 35.5723C25.4881 35.5143 25.5052 35.4529 25.5133 35.39L25.5148 35.3751C25.5208 35.3043 25.5097 35.2332 25.4824 35.1676C25.4551 35.1021 25.4124 35.0441 25.3579 34.9986C25.343 34.9836 25.3265 34.9672 25.3086 34.9537L25.966 34.7222L25.4252 34.4517L24.8066 34.7222C24.5362 34.6056 24.1104 34.5668 23.5307 34.5668C22.951 34.5668 22.4101 34.6445 21.9066 34.8372C21.4031 35.0299 21.1327 35.263 21.0176 35.5334C20.9384 35.768 21.0057 35.9667 21.2208 36.1311C21.3254 36.2103 21.4599 36.282 21.6362 36.3447L21.3852 36.5255L20.3064 37.3009L20.1286 37.4279C20.2885 37.4429 20.4469 37.4518 20.6067 37.4638L20.8757 37.4817L22.9883 37.6252L25.8495 37.8956L27.5796 38.0853L29.3681 38.2811L29.8611 38.3244L31.1176 38.4365L31.9961 38.5141L31.4164 38.2437L30.2182 37.7029C29.4732 37.3955 28.7035 37.1521 27.9173 36.9752C27.5155 36.8855 27.109 36.8187 26.6996 36.775C26.8938 36.6196 26.9671 36.6062 27.0104 36.5808ZM22.8733 34.9567C23.1874 34.918 23.5063 34.9581 23.8011 35.0733C24.0715 35.1898 24.2657 35.3048 24.3419 35.4602C24.4017 35.5394 24.4226 35.6201 24.4062 35.7008C24.3852 35.7888 24.3352 35.8672 24.2643 35.9234C24.0677 36.0868 23.8233 36.1817 23.568 36.1938C23.2856 36.2192 22.6193 36.1669 22.2592 35.9129C22.1753 35.8572 22.1069 35.7812 22.0605 35.6918C21.9813 35.5275 22.0171 35.3885 22.1546 35.2466C22.174 35.2261 22.1944 35.2066 22.2159 35.1883C22.3399 35.0807 22.564 34.9956 22.8733 34.9567ZM27.5901 34.9179C27.8262 34.885 28.0906 34.9134 28.3595 34.9971C28.3999 35.009 28.4402 35.0195 28.4806 35.0344C28.751 35.151 28.9452 35.266 29.0603 35.4214C29.1006 35.5036 29.1081 35.5857 29.0902 35.6694C29.0703 35.7482 29.0342 35.822 28.9841 35.886C28.5598 36.2252 28.1295 36.2372 27.6125 36.1625C27.3675 36.1266 27.1284 36.0534 26.9611 35.9085C26.8799 35.8405 26.8172 35.7531 26.7788 35.6545C26.7497 35.5867 26.7405 35.512 26.7525 35.4392C26.7644 35.3664 26.7968 35.2985 26.846 35.2436C26.8615 35.2253 26.8774 35.2073 26.8938 35.1898C27.0492 35.0344 27.2808 34.9567 27.5901 34.9179Z" fill="white"></path><path d="M16.8028 37.2378L16.9656 37.2348C17.7426 37.2214 18.385 37.1063 18.8915 36.8897C18.9083 36.9554 18.9344 37.0183 18.9692 37.0765L18.5441 36.7491C18.766 36.8822 18.766 36.8822 18.9879 37.0154L19.897 37.3932L20.1988 37.184L20.399 37.0451L20.2646 36.9704L20.0509 36.8524C19.9344 36.7747 19.9344 36.697 20.0121 36.5819L20.5529 35.6153C20.6156 35.4973 20.6594 35.3702 20.6829 35.2387C20.6997 35.1481 20.6889 35.0544 20.6519 34.97C20.6149 34.8855 20.5533 34.8142 20.4752 34.7651C20.2048 34.5694 19.6251 34.4917 18.775 34.4917L17.7694 34.6082L16.8416 34.7636L17.0732 35.1506C17.499 34.9952 18.0399 34.919 18.6584 34.919C18.8646 34.919 19.0379 34.9325 19.1814 34.9593C19.5653 35.0311 19.7177 35.1984 19.64 35.4494C19.6267 35.4931 19.6086 35.5351 19.5863 35.5749L18.8512 35.4972C18.0772 35.4972 17.3825 35.5749 16.7639 35.7676C16.6205 35.8125 16.4905 35.8603 16.371 35.9096C15.9765 36.071 15.7136 36.2562 15.5642 36.4639C15.5362 36.5129 15.519 36.5672 15.5136 36.6234C15.5081 36.6795 15.5147 36.7362 15.5328 36.7896C15.5771 36.8904 15.6504 36.9758 15.7435 37.0346L15.7569 37.0436C16.0288 37.1601 16.377 37.2378 16.8028 37.2378ZM17.2286 36.0396C17.5767 35.923 18.0399 35.8468 18.5822 35.8468L19.2396 35.9245L19.2172 35.9708L19.0603 36.3055L18.9304 36.5819C18.4511 36.7767 17.9401 36.8815 17.4228 36.8912C17.2108 36.8978 16.9989 36.8767 16.7923 36.8285C16.5413 36.7597 16.4606 36.6357 16.5338 36.4654C16.5568 36.4221 16.5866 36.3828 16.622 36.3488C16.737 36.2338 16.9387 36.1262 17.2286 36.0396ZM36.8698 35.6914C36.9431 35.5062 37.1253 35.3209 37.4481 35.17L37.4884 35.1506C37.7977 34.9952 38.1458 34.919 38.4939 34.919L38.8062 34.9743L39.1498 35.0355L39.2424 34.9608L39.7295 34.5709L38.9556 34.4932C38.2205 34.4932 37.6408 34.6486 37.1388 34.9952L37.2942 34.5694H36.2886L35.824 35.7856L35.6268 36.2995L35.2831 37.199H36.2886L36.8698 35.6914ZM31.2252 35.923H35.3623L35.555 35.6526C35.5844 35.5687 35.5981 35.48 35.5954 35.3911C35.5879 35.1655 35.4505 34.9818 35.1681 34.8398C34.82 34.6082 34.2014 34.4917 33.3901 34.4917C32.655 34.4917 31.9976 34.6082 31.4179 34.8787C30.9428 35.0744 30.5902 35.312 30.3586 35.5884C30.2714 35.6894 30.1985 35.8021 30.142 35.923C30.088 36.0565 30.0724 36.2025 30.0971 36.3444C30.1271 36.4793 30.1968 36.6021 30.2974 36.697C30.3898 36.7874 30.4938 36.8653 30.6066 36.9286C31.031 37.1213 31.5703 37.2259 32.3009 37.2378H32.3084C32.785 37.2453 33.2616 37.2199 33.7397 37.1601L34.5137 36.9674L34.2044 36.6193C33.7786 36.7747 33.2377 36.8509 32.658 36.8509C32.156 36.8509 31.769 36.7732 31.4986 36.6193C31.4565 36.5987 31.4165 36.5742 31.3791 36.5461C31.1699 36.3937 31.1251 36.1875 31.2252 35.923ZM33.2736 34.9175C33.4977 34.9175 33.6904 34.934 33.8563 34.9608C34.0625 34.9937 34.2283 35.046 34.3553 35.1103C34.5316 35.2163 34.6093 35.3553 34.563 35.5256C34.5585 35.542 34.5555 35.557 34.548 35.5749H31.3776C31.4502 35.4621 31.5479 35.3675 31.663 35.2985C31.775 35.2283 31.911 35.1655 32.0723 35.1117C32.4234 34.9952 32.8104 34.9175 33.2736 34.9175Z" fill="white"></path></g></g><defs><clipPath id="clip0_57627_4013"><rect width="36" height="36" fill="white" transform="translate(7 7)"></rect></clipPath></defs></svg>