<svg xmlns="http://www.w3.org/2000/svg" width="50" height="50" viewBox="0 0 50 50" fill="none"><g style="mix-blend-mode:luminosity"><g clip-path="url(#clip0_57627_3988)"><path d="M15.7344 35.7176L20.1341 7.56445C20.1878 7.21918 20.4564 6.947 20.8009 6.88847C21.1454 6.82994 21.4887 6.99832 21.6534 7.30648L26.2035 15.793L28.0171 12.3399C28.1576 12.0729 28.4345 11.9057 28.7362 11.9057C29.0379 11.9057 29.3148 12.0729 29.4553 12.3399L41.7342 35.7175L15.7344 35.7176Z" fill="#FFA000"></path><path d="M30.9342 24.749L26.2014 15.7871L15.7344 35.7157L30.9342 24.749Z" fill="#F57C00"></path><path d="M41.7343 35.7191L38.3645 14.8663C38.3136 14.5668 38.0999 14.3208 37.8105 14.2281C37.5211 14.1354 37.2043 14.2125 36.9894 14.4272L15.7344 35.7188L27.4953 42.3143C28.2338 42.7266 29.1333 42.7266 29.8718 42.3143L41.7343 35.7188V35.7191Z" fill="#FFCA28"></path><path d="M38.365 14.8643C38.3141 14.5648 38.1004 14.3188 37.811 14.2261C37.5216 14.1334 37.2048 14.2106 36.9899 14.4253L32.7713 18.6546L29.4539 12.3393C29.3135 12.0723 29.0366 11.9051 28.7349 11.9051C28.4331 11.9051 28.1563 12.0723 28.0158 12.3393L26.2022 15.7924L21.6519 7.30602C21.4869 6.99778 21.1432 6.82967 20.7983 6.88863C20.4533 6.9476 20.1857 7.22046 20.1325 7.56601L15.7349 35.7171H15.7207L15.7349 35.7334L15.8507 35.7902L36.9837 14.6327C37.1986 14.4169 37.5161 14.3393 37.8063 14.4317C38.0965 14.5242 38.3106 14.7711 38.361 15.0715L41.7024 35.7374L41.7349 35.7171L38.365 14.8643ZM15.7735 35.6785L20.1346 7.7651C20.1877 7.41955 20.456 7.14669 20.8006 7.08773C21.1452 7.02876 21.4889 7.19682 21.6542 7.50511L26.204 15.9916L28.0176 12.5385C28.1581 12.2715 28.435 12.1043 28.7367 12.1043C29.0384 12.1043 29.3153 12.2715 29.4558 12.5385L32.7058 18.7196L15.7735 35.6785Z" fill="white" fill-opacity="0.2"></path><path opacity="0.2" d="M29.8719 42.1125C29.1333 42.5249 28.2339 42.5249 27.4953 42.1125L15.7628 35.5354L15.7344 35.7162L27.4953 42.3096C28.2338 42.722 29.1333 42.722 29.8718 42.3096L41.7343 35.7162L41.7039 35.5293L29.8719 42.1125Z" fill="#A52714"></path><path d="M38.3303 14.8686C38.2796 14.5693 38.0666 14.3232 37.7782 14.231C37.4898 14.1388 37.1742 14.2154 36.9599 14.4301L32.7558 18.6573L29.4504 12.3449C29.3104 12.078 29.0345 11.9109 28.7338 11.9109C28.4332 11.9109 28.1573 12.078 28.0173 12.3449L26.2098 15.7965L21.6757 7.31365C21.5112 7.00555 21.1687 6.83747 20.8253 6.89646C20.4819 6.95545 20.2146 7.22809 20.1616 7.57356L15.7793 35.7123L27.4991 42.3029C28.2351 42.715 29.1314 42.715 29.8674 42.3029L41.6884 35.7123L38.3303 14.8686V14.8686Z" fill="url(#paint0_linear_57627_3988)"></path></g></g><defs><linearGradient id="paint0_linear_57627_3988" x1="-74.6434" y1="614.962" x2="3158.58" y2="2320.45" gradientUnits="userSpaceOnUse"><stop stop-color="white" stop-opacity="0.1"></stop><stop offset="0.14" stop-color="white" stop-opacity="0.08"></stop><stop offset="0.61" stop-color="white" stop-opacity="0.02"></stop><stop offset="1" stop-color="white" stop-opacity="0"></stop></linearGradient><clipPath id="clip0_57627_3988"><rect width="36" height="36" fill="white" transform="translate(10.7285 6.75)"></rect></clipPath></defs></svg>