<svg xmlns="http://www.w3.org/2000/svg" width="50" height="50" viewBox="0 0 50 50" fill="none"><g style="mix-blend-mode:luminosity"><g clip-path="url(#clip0_57627_4004)"><path fill-rule="evenodd" clip-rule="evenodd" d="M41.078 29.976C40.0164 29.976 39.1559 29.0918 39.1559 28.001C39.1559 26.9102 40.0164 26.026 41.078 26.026C42.1395 26.026 43 26.9102 43 28.001C43 29.0918 42.1395 29.976 41.078 29.976ZM17.6291 29.04C17.6291 30.0011 17.4945 30.8372 17.2254 31.5482C16.9564 32.2592 16.5784 32.8484 16.0914 33.3158C15.6045 33.7832 15.0119 34.1322 14.3135 34.3626C13.6151 34.593 12.8431 34.7082 11.9974 34.7082C11.1517 34.7082 10.2835 34.5766 9.39298 34.3133C8.50242 34.0499 7.73039 33.668 7.07688 33.1677L8.65299 30.8569C9.11429 31.2783 9.62364 31.591 10.181 31.7951C10.7384 31.9992 11.2862 32.1012 11.8244 32.1012C12.747 32.1012 13.4293 31.851 13.8714 31.3507C14.3135 30.8504 14.5345 30.1854 14.5345 29.3559V28.7635H14.4769C14.1822 29.1584 13.7849 29.4744 13.2852 29.7115C12.7855 29.9485 12.2152 30.067 11.5745 30.067C10.8442 30.067 10.1971 29.932 9.63324 29.6621C9.06943 29.3921 8.59213 29.0268 8.2013 28.566C7.81047 28.1052 7.51256 27.5685 7.30753 26.9563C7.10251 26.3441 7 25.6956 7 25.0109C7 24.3263 7.10251 23.6745 7.30753 23.0557C7.51256 22.4369 7.81047 21.8904 8.2013 21.4164C8.59213 20.9424 9.06943 20.5639 9.63324 20.2808C10.1971 19.9977 10.8377 19.8562 11.5553 19.8562C12.1576 19.8562 12.7342 19.9813 13.2852 20.2314C13.8362 20.4816 14.2783 20.87 14.6114 21.3967H14.6499V20.1327H17.6291V29.04ZM14.4919 24.0608C14.383 23.758 14.226 23.4914 14.021 23.2609C13.816 23.0305 13.5725 22.8495 13.2906 22.7178C13.0087 22.5861 12.6884 22.5203 12.3296 22.5203C11.9708 22.5203 11.6536 22.5861 11.3781 22.7178C11.1026 22.8495 10.8688 23.0272 10.6766 23.2511C10.4844 23.4749 10.337 23.7382 10.2345 24.0411C10.132 24.3439 10.0807 24.6665 10.0807 25.0088C10.0807 25.338 10.132 25.654 10.2345 25.9568C10.337 26.2597 10.4844 26.5263 10.6766 26.7567C10.8688 26.9871 11.1026 27.1715 11.3781 27.3097C11.6536 27.4479 11.9708 27.5171 12.3296 27.5171C12.6884 27.5171 13.0119 27.4479 13.3002 27.3097C13.5885 27.1715 13.832 26.9904 14.0306 26.7666C14.2292 26.5427 14.383 26.2794 14.4919 25.9766C14.6008 25.6737 14.6553 25.3512 14.6553 25.0088C14.6553 25.0088 14.6008 24.3637 14.4919 24.0608ZM25.8539 23.3144C25.675 23.0801 25.433 22.8911 25.128 22.7474C24.8205 22.6026 24.5065 22.5302 24.1861 22.5302C23.853 22.5302 23.5519 22.5993 23.2828 22.7376C23.0137 22.8758 22.783 23.0601 22.5909 23.2906C22.3986 23.521 22.248 23.7876 22.1391 24.0904C22.0303 24.3933 21.9758 24.7159 21.9758 25.0582C21.9758 25.4005 22.027 25.7231 22.1295 26.026C22.2321 26.3288 22.3826 26.5954 22.5813 26.8258C22.7798 27.0562 23.0169 27.2372 23.2924 27.369C23.5679 27.5006 23.8787 27.5664 24.2246 27.5664C24.545 27.5664 24.8621 27.5039 25.1761 27.3788C25.4553 27.2676 25.6864 27.112 25.8694 26.9122C25.8997 27.0247 25.9329 27.1365 25.9689 27.2476C26.1952 27.9453 26.524 28.5594 26.9556 29.0899C27.0445 29.1993 27.1374 29.3042 27.2344 29.4045C26.9217 29.6253 26.559 29.8092 26.1467 29.9562C25.5188 30.1801 24.8525 30.2919 24.1477 30.2919C23.3917 30.2919 22.687 30.1735 22.0334 29.9364C21.38 29.6995 20.8129 29.3538 20.3324 28.8996C19.8519 28.4454 19.4738 27.8956 19.1983 27.2504C18.9228 26.6053 18.7851 25.8745 18.7851 25.0582C18.7851 24.255 18.9228 23.5309 19.1983 22.8857C19.4738 22.2405 19.8519 21.6908 20.3324 21.2366C20.8129 20.7823 21.38 20.4334 22.0334 20.1898C22.687 19.9462 23.3853 19.8244 24.1285 19.8244C24.4745 19.8244 24.8172 19.8573 25.1568 19.9232C25.4964 19.989 25.8231 20.0779 26.1371 20.1898C26.451 20.3017 26.7393 20.44 27.002 20.6046C27.0887 20.6589 27.1715 20.715 27.2505 20.7728C27.1555 20.87 27.0642 20.9716 26.9768 21.0777C26.5453 21.6009 26.2129 22.2077 25.9795 22.8981C25.933 23.0356 25.8912 23.1743 25.8539 23.3144ZM34.8359 29.976V28.6922H34.7974C34.4899 29.1926 34.051 29.5777 33.4808 29.8476C32.9106 30.1175 32.3052 30.2524 31.6645 30.2524C30.9469 30.2524 30.3062 30.1076 29.7424 29.818C29.1785 29.5283 28.7013 29.1431 28.3105 28.6625C27.9196 28.182 27.6217 27.6257 27.4167 26.9937C27.2116 26.3617 27.1092 25.7034 27.1092 25.0187C27.1092 24.334 27.2149 23.679 27.4264 23.0536C27.6377 22.4281 27.9388 21.8784 28.3297 21.4044C28.7205 20.9304 29.1946 20.5552 29.752 20.2787C30.3094 20.0022 30.9341 19.8639 31.6261 19.8639C32.3308 19.8639 32.9266 20.0022 33.4136 20.2787C33.9004 20.5552 34.2785 20.858 34.5476 21.1872H34.5861V15.0449H37.7382V29.976H34.8359ZM34.7206 25.0384C34.7206 24.7224 34.6662 24.413 34.5572 24.1102C34.4483 23.8074 34.2945 23.5374 34.096 23.3004C33.8973 23.0634 33.657 22.8725 33.3752 22.7277C33.0932 22.5829 32.7729 22.5104 32.4141 22.5104C32.0425 22.5104 31.7158 22.5829 31.4338 22.7277C31.1519 22.8725 30.9149 23.0601 30.7226 23.2906C30.5305 23.521 30.3863 23.7876 30.2901 24.0904C30.1941 24.3933 30.146 24.7027 30.146 25.0187C30.146 25.3347 30.1941 25.6474 30.2901 25.9568C30.3863 26.2662 30.5305 26.5394 30.7226 26.7764C30.9149 27.0135 31.1519 27.2044 31.4338 27.3492C31.7158 27.4941 32.0425 27.5664 32.4141 27.5664C32.7729 27.5664 33.0932 27.4941 33.3752 27.3492C33.657 27.2044 33.8973 27.0135 34.096 26.7764C34.2945 26.5394 34.4483 26.2695 34.5572 25.9667C34.6662 25.6639 34.7206 25.3545 34.7206 25.0384Z" fill="#FC3723"></path></g></g><defs><clipPath id="clip0_57627_4004"><rect width="36" height="19.91" fill="white" transform="translate(7 15.0449)"></rect></clipPath></defs></svg>