<svg xmlns="http://www.w3.org/2000/svg" width="50" height="50" viewBox="0 0 50 50" fill="none"><g style="mix-blend-mode:luminosity"><g clip-path="url(#clip0_57627_3904)"><path d="M7.36854 33.5461H10.311V21.02H7.36854V33.5461ZM8.83389 19.3773C9.75565 19.3773 10.4765 18.6682 10.4765 17.7819C10.4765 16.8838 9.75565 16.1748 8.83389 16.1748C7.92397 16.1748 7.20312 16.8839 7.20312 17.7819C7.20312 18.6682 7.92397 19.3773 8.83389 19.3773ZM20.1079 16.2102C15.133 16.2102 12.0131 19.6017 12.0131 25.0259C12.0131 30.4501 15.1327 33.8299 20.1079 33.8299C25.0711 33.8299 28.191 30.4501 28.191 25.0259C28.191 19.6017 25.0714 16.2102 20.1079 16.2102ZM20.1079 18.81C23.145 18.81 25.0829 21.2207 25.0829 25.0259C25.0829 28.8192 23.1449 31.23 20.1079 31.23C17.0591 31.23 15.133 28.8192 15.133 25.0259C15.133 21.2208 17.0592 18.81 20.1079 18.81ZM29.4323 28.7484C29.5622 31.8919 32.1384 33.8298 36.0617 33.8298C40.186 33.8298 42.7858 31.7973 42.7858 28.5593C42.7858 26.0186 41.3205 24.5887 37.8581 23.797L35.8964 23.348C33.8047 22.8517 32.9421 22.1899 32.9421 21.0554C32.9421 19.6374 34.242 18.692 36.1682 18.692C38.118 18.692 39.4533 19.6492 39.5951 21.2445H42.5022C42.4313 18.2429 39.9497 16.2103 36.1919 16.2103C32.4812 16.2103 29.8459 18.2546 29.8459 21.2799C29.8459 23.7143 31.3349 25.2269 34.4781 25.9478L36.6879 26.4678C38.8387 26.9759 39.7132 27.6849 39.7132 28.9139C39.7132 30.332 38.2833 31.3483 36.2272 31.3483C34.1474 31.3483 32.5758 30.3202 32.3867 28.7485H29.4324L29.4323 28.7484Z" fill="#8A8A8A"></path></g></g><defs><clipPath id="clip0_57627_3904"><rect width="36" height="17.8487" fill="white" transform="translate(7 16)"></rect></clipPath></defs></svg>