<svg xmlns="http://www.w3.org/2000/svg" width="50" height="50" viewBox="0 0 50 50" fill="none"><g style="mix-blend-mode:luminosity"><path d="M20.4513 34.4751C20.4513 34.4751 19.1268 35.2453 21.3939 35.506C24.1404 35.8193 25.5442 35.7744 28.5709 35.2015C28.5709 35.2015 29.3666 35.7005 30.4779 36.1326C23.6929 39.0406 15.122 35.9642 20.4513 34.4751Z" fill="#5382A1"></path><path d="M19.6213 30.6821C19.6213 30.6821 18.1357 31.7818 20.4045 32.0164C23.3385 32.3191 25.6555 32.3439 29.6648 31.5719C29.6648 31.5719 30.2193 32.1341 31.0913 32.4415C22.8877 34.8403 13.7504 32.6307 19.6213 30.6821Z" fill="#5382A1"></path><path d="M26.6116 24.242C28.2834 26.1669 26.1723 27.899 26.1723 27.899C26.1723 27.899 30.4174 25.7075 28.4678 22.9633C26.647 20.4042 25.2506 19.1326 32.8099 14.7485C32.8099 14.7485 20.9443 17.712 26.6116 24.242Z" fill="#F8981D"></path><path d="M35.5857 37.2839C35.5857 37.2839 36.5659 38.0915 34.5063 38.7163C30.5898 39.9027 18.2056 40.261 14.7654 38.7636C13.5287 38.2255 15.8478 37.4789 16.5773 37.3223C17.3381 37.1573 17.7729 37.188 17.7729 37.188C16.3976 36.2192 8.88336 39.0904 13.9561 39.9127C27.79 42.1562 39.1741 38.9025 35.5857 37.2839Z" fill="#5382A1"></path><path d="M21.09 26.7503C21.09 26.7503 14.7906 28.2465 18.8593 28.7898C20.5772 29.0198 24.0018 28.9678 27.1917 28.7005C29.7986 28.4806 32.4164 28.013 32.4164 28.013C32.4164 28.013 31.4971 28.4067 30.8321 28.8608C24.4351 30.5432 12.0775 29.7605 15.6351 28.0397C18.6437 26.5853 21.09 26.7503 21.09 26.7503Z" fill="#5382A1"></path><path d="M32.3885 33.0639C38.8913 29.6849 35.8847 26.4376 33.7861 26.8751C33.2717 26.9821 33.0424 27.0749 33.0424 27.0749C33.0424 27.0749 33.2333 26.7758 33.598 26.6463C37.7497 25.1867 40.9426 30.9512 32.2578 33.2342C32.2578 33.2342 32.3584 33.1444 32.3885 33.0639Z" fill="#5382A1"></path><path d="M28.469 7.67041C28.469 7.67041 32.0704 11.273 25.0533 16.8127C19.4263 21.2565 23.7702 23.7902 25.051 26.6851C21.7664 23.7216 19.356 21.1129 20.9731 18.6849C23.3466 15.1208 29.9221 13.3928 28.469 7.67041Z" fill="#F8981D"></path><path d="M21.7263 42.2206C27.9682 42.6201 37.5532 41.9989 37.7802 39.0454C37.7802 39.0454 37.3439 40.165 32.6217 41.0542C27.2941 42.0568 20.7234 41.9397 16.8262 41.2972C16.8262 41.2972 17.624 41.9575 21.7263 42.2206Z" fill="#5382A1"></path></g></svg>