<svg xmlns="http://www.w3.org/2000/svg" width="50" height="50" viewBox="0 0 50 50" fill="none"><path d="M8.6327 22.5188V26.0646H10.3255V26.9995H7.56427V22.5188H8.6327ZM11.7209 26.9995V22.5188H12.7893V26.9995H11.7209ZM16.132 25.8142L17.1003 22.5188H18.2154L16.733 26.9995H15.6045L14.1487 22.5188H15.2773L16.2255 25.8142H16.132ZM19.5579 26.9995V22.5188H22.5528V23.4436H20.6263V24.3051H22.4326V25.2333H20.6263V26.0646H22.5528V26.9995H19.5579ZM24.3211 22.5188H25.9071C26.3678 22.5188 26.774 22.61 27.1257 22.7926C27.4774 22.9751 27.7523 23.2344 27.9504 23.5705C28.1508 23.9044 28.2509 24.3028 28.2509 24.7658C28.2509 25.2221 28.1508 25.6183 27.9504 25.9545C27.7523 26.2883 27.4774 26.5465 27.1257 26.7291C26.774 26.9094 26.3678 26.9995 25.9071 26.9995H24.3211V22.5188ZM25.3895 23.5004V26.0246H25.9071C26.1497 26.0246 26.3589 25.97 26.5348 25.861C26.7128 25.7497 26.8497 25.5994 26.9454 25.4102C27.0434 25.221 27.0923 25.0062 27.0923 24.7658C27.0923 24.5165 27.0434 24.2973 26.9454 24.1081C26.8497 23.9189 26.7128 23.7708 26.5348 23.664C26.3589 23.5549 26.1497 23.5004 25.9071 23.5004H25.3895ZM29.3183 26.9995L30.8275 22.5188H32.1864L33.6121 26.9995H32.4869L32.2431 26.2115H30.6973L30.4535 26.9995H29.3183ZM30.9677 25.4202H31.9994L31.4919 23.7809L30.9677 25.4202ZM34.1121 23.4436V22.5188H37.8015V23.4436H36.2556L36.496 23.2032V26.9995H35.4276V23.2032L35.668 23.4436H34.1121ZM38.3032 26.9995L39.8124 22.5188H41.1713L42.5969 26.9995H41.4718L41.228 26.2115H39.6821L39.4384 26.9995H38.3032ZM39.9526 25.4202H40.9843L40.4768 23.7809L39.9526 25.4202Z" fill="#2E2E2E"></path></svg>