<svg xmlns="http://www.w3.org/2000/svg" width="50" height="50" viewBox="0 0 50 50" fill="none"><path d="M9.21604 19.8436H12.5116L14.6487 24.9956H14.4688L16.6058 19.8436H19.7719V29.5H17.4549V22.6283H17.7715L15.2891 28.6006H13.7996L11.3315 22.6427H11.5186V29.5H9.21604V19.8436ZM26.972 26.9456L29.0587 19.8436H31.462L28.2672 29.5H25.8351L22.6979 19.8436H25.13L27.1735 26.9456H26.972ZM34.3119 29.5V19.8436H38.0176C39.1305 19.8436 40.0131 20.1122 40.6655 20.6495C41.3179 21.182 41.6441 21.9711 41.6441 23.0168C41.6441 24.0578 41.3179 24.8493 40.6655 25.3914C40.0131 25.9286 39.1305 26.1973 38.0176 26.1973H36.6288V29.5H34.3119ZM36.6288 24.1825H38.0176C38.4349 24.1825 38.7491 24.0674 38.9602 23.8371C39.1761 23.6021 39.284 23.3286 39.284 23.0168C39.284 22.7002 39.1761 22.4244 38.9602 22.1893C38.7491 21.9543 38.4349 21.8368 38.0176 21.8368H36.6288V24.1825Z" fill="#2E2E2E"></path></svg>