<svg xmlns="http://www.w3.org/2000/svg" width="50" height="50" viewBox="0 0 50 50" fill="none"><g style="mix-blend-mode:luminosity"><path d="M7.89342 21.9055H10.3146L11.8847 25.6906H11.7526L13.3227 21.9055H15.6487V29H13.9465V23.9514H14.1791L12.3552 28.3392H11.2609L9.44765 23.962H9.5851V29H7.89342V21.9055ZM20.9386 27.1233L22.4717 21.9055H24.2374L21.8902 29H20.1033L17.7984 21.9055H19.5853L21.0866 27.1233H20.9386ZM28.8106 27.1233L30.3436 21.9055H32.1093L29.7621 29H27.9753L25.6704 21.9055H27.4572L28.9586 27.1233H28.8106ZM34.2454 21.9055H36.6666L38.2367 25.6906H38.1046L39.6747 21.9055H42.0007V29H40.2985V23.9514H40.5311L38.7072 28.3392H37.6129L35.7996 23.962H35.9371V29H34.2454V21.9055Z" fill="#2E2E2E"></path></g></svg>