<svg xmlns="http://www.w3.org/2000/svg" width="50" height="50" viewBox="0 0 50 50" fill="none"><g style="mix-blend-mode:luminosity"><g clip-path="url(#clip0_57570_3205)"><path d="M24.999 28.166C26.7519 28.166 28.1728 26.745 28.1728 24.9922C28.1728 23.2393 26.7519 21.8184 24.999 21.8184C23.2462 21.8184 21.8252 23.2393 21.8252 24.9922C21.8252 26.745 23.2462 28.166 24.999 28.166Z" fill="#61DAFB"></path><path d="M25 31.4991C34.4055 31.4991 42.0302 28.5878 42.0302 24.9966C42.0302 21.4054 34.4055 18.4941 25 18.4941C15.5944 18.4941 7.96973 21.4054 7.96973 24.9966C7.96973 28.5878 15.5944 31.4991 25 31.4991Z" stroke="#61DAFB" stroke-width="1.5482"></path><path d="M19.3687 28.2467C24.0715 36.3921 30.4051 41.5397 33.5152 39.7441C36.6252 37.9485 35.3341 29.8897 30.6313 21.7442C25.9286 13.5988 19.595 8.45123 16.4849 10.2468C13.3748 12.0424 14.666 20.1012 19.3687 28.2467Z" stroke="#61DAFB" stroke-width="1.5482"></path><path d="M19.3688 21.7447C14.666 29.8901 13.3749 37.9489 16.485 39.7445C19.595 41.5402 25.9286 36.3926 30.6314 28.2472C35.3341 20.1017 36.6253 12.0429 33.5152 10.2473C30.4051 8.4517 24.0716 13.5993 19.3688 21.7447Z" stroke="#61DAFB" stroke-width="1.5482"></path></g></g><defs><clipPath id="clip0_57570_3205"><rect width="36" height="36" fill="white" transform="translate(7 7)"></rect></clipPath></defs></svg>