<svg xmlns="http://www.w3.org/2000/svg" width="50" height="50" viewBox="0 0 50 50" fill="none"><g style="mix-blend-mode:luminosity"><g clip-path="url(#clip0_57570_3213)"><path d="M31.9442 31.7803C33.2727 31.6428 34.2805 30.4975 34.2347 29.1231C34.189 27.7487 33.0436 26.6492 31.6693 26.6492H31.5777C30.1574 26.695 29.058 27.8861 29.1039 29.3063C29.1497 29.9935 29.4245 30.5891 29.8368 31.0014C28.2792 34.071 25.897 36.3158 22.3238 38.1941C19.8957 39.4769 17.3762 39.935 14.8566 39.6144C12.795 39.3395 11.1916 38.4233 10.1836 36.9113C8.71773 34.6665 8.58034 32.2383 9.81728 29.8103C10.6877 28.0694 12.0619 26.7866 12.9324 26.1452C12.7492 25.5497 12.4742 24.5418 12.3369 23.8089C5.69415 28.6192 6.38139 35.1247 8.39711 38.1941C9.90883 40.4849 12.9782 41.905 16.3683 41.905C17.2845 41.905 18.2006 41.8134 19.117 41.5844C24.9809 40.439 29.4246 36.9572 31.9442 31.7803ZM40.0071 26.0995C36.5253 22.0221 31.3945 19.7773 25.5306 19.7773H24.7976C24.3853 18.9527 23.5149 18.4028 22.5528 18.4028H22.4612C21.0411 18.4487 19.9417 19.6397 19.9874 21.0601C20.0333 22.4344 21.1785 23.5339 22.5528 23.5339H22.6444C23.6522 23.4881 24.5227 22.8467 24.8892 21.9762H25.7138C29.1955 21.9762 32.4939 22.9841 35.4718 24.9541C37.7623 26.466 39.4115 28.436 40.3277 30.8182C41.1065 32.7423 41.0606 34.6207 40.236 36.2242C38.9534 38.6522 36.8003 39.9809 33.9599 39.9809C32.1274 39.9809 30.3866 39.431 29.4703 39.0187C28.9665 39.4769 28.0502 40.2098 27.4088 40.6681C29.3788 41.5843 31.3945 42.0883 33.3185 42.0883C37.7164 42.0883 40.9691 39.6601 42.206 37.2321C43.5345 34.5748 43.4428 29.9935 40.0071 26.0995ZM16.7348 32.559C16.7806 33.9334 17.9259 35.0328 19.3002 35.0328H19.3919C20.812 34.9871 21.9115 33.7959 21.8656 32.3757C21.8199 31.0013 20.6745 29.9019 19.3002 29.9019H19.2086C19.117 29.9019 18.9794 29.9019 18.888 29.9476C17.0097 26.8323 16.2309 23.4422 16.5058 19.7771C16.6889 17.0283 17.6052 14.646 19.2086 12.676C20.5371 10.9809 23.1025 10.1563 24.8435 10.1106C29.6994 10.0189 31.7608 16.0662 31.8984 18.4944C32.4939 18.6317 33.5018 18.9525 34.189 19.1816C33.6392 11.76 29.058 7.91162 24.6602 7.91162C20.5371 7.91162 16.7348 10.8895 15.2229 15.2875C13.1156 21.1516 14.49 26.7866 17.0554 31.2305C16.8265 31.5511 16.6889 32.055 16.7348 32.559Z" fill="#764ABC"></path></g></g><defs><clipPath id="clip0_57570_3213"><rect width="36" height="36" fill="white" transform="translate(7 7)"></rect></clipPath></defs></svg>