<svg xmlns="http://www.w3.org/2000/svg" width="50" height="50" viewBox="0 0 50 50" fill="none"><path d="M8.66508 22V12.7483H12.2775C13.4357 12.7483 14.3342 13.0149 14.973 13.548C15.6165 14.0766 15.9382 14.7866 15.9382 15.6783C15.9382 16.5515 15.6165 17.2524 14.973 17.7809C14.3342 18.3048 13.4357 18.5668 12.2775 18.5668H10.8711V22H8.66508ZM13.4908 22L11.2365 17.5327H13.5667L16.3794 22H13.4908ZM10.8711 17.1329H12.0293C12.5762 17.1329 12.9853 17.0203 13.2564 16.7951C13.5322 16.5653 13.6701 16.2734 13.6701 15.9195C13.6701 15.5519 13.5529 15.2508 13.3185 15.0164C13.0887 14.7774 12.7417 14.658 12.2775 14.658H10.8711V17.1329ZM17.9689 22V12.7483H24.1527V14.658H20.1749V16.4366H23.9046V18.3531H20.1749V20.0697H24.1527V22H17.9689ZM29.9065 22.2206C29.2447 22.2206 28.6311 22.1103 28.0658 21.8897C27.5005 21.6645 27.0409 21.3152 26.687 20.8418C26.3331 20.3638 26.1378 19.7434 26.101 18.9805H28.2795C28.2795 19.2608 28.3508 19.4929 28.4932 19.6767C28.6357 19.8606 28.8287 19.9962 29.0723 20.0835C29.3205 20.1708 29.594 20.2145 29.8927 20.2145C30.1317 20.2145 30.3546 20.1938 30.5614 20.1524C30.7728 20.1111 30.9429 20.0375 31.0716 19.9318C31.2002 19.8261 31.2646 19.6813 31.2646 19.4975C31.2646 19.2723 31.1957 19.1045 31.0578 18.9942C30.9245 18.8839 30.6809 18.7576 30.327 18.6151L28.314 17.7395C27.6522 17.4546 27.1374 17.1191 26.7697 16.733C26.4021 16.347 26.2182 15.8207 26.2182 15.1543C26.2182 14.373 26.5354 13.7434 27.1696 13.2654C27.8084 12.7828 28.6817 12.5415 29.7893 12.5415C30.9153 12.5415 31.7793 12.8081 32.3814 13.3412C32.9835 13.8697 33.3213 14.6258 33.3948 15.6093H31.2301C31.175 15.306 31.0394 15.0509 30.8234 14.8441C30.612 14.6373 30.2673 14.5339 29.7893 14.5339C29.4446 14.5339 29.1665 14.5982 28.9551 14.7269C28.7437 14.851 28.638 15.0072 28.638 15.1957C28.638 15.3703 28.7046 15.5082 28.8379 15.6093C28.9758 15.7104 29.1803 15.8207 29.4515 15.9402L31.5817 16.8433C32.2895 17.1513 32.8157 17.512 33.1604 17.9257C33.5097 18.3393 33.6844 18.8357 33.6844 19.4148C33.6844 20.0352 33.535 20.5546 33.2363 20.9728C32.9421 21.3864 32.5124 21.699 31.9471 21.9104C31.3864 22.1172 30.7062 22.2206 29.9065 22.2206ZM34.6064 14.658V12.7483H42.2242V14.658H39.0323L39.5287 14.1616V22H37.3226V14.1616L37.819 14.658H34.6064ZM7.74818 38L10.8642 28.7483H13.6701L16.6138 38H14.2905L13.7873 36.373H10.5954L10.0921 38H7.74818ZM11.1538 34.7392H13.284L12.2361 31.3542L11.1538 34.7392ZM17.9679 38V28.7483H21.5183C22.5845 28.7483 23.4302 29.0057 24.0553 29.5205C24.6803 30.0306 24.9928 30.7866 24.9928 31.7886C24.9928 32.7859 24.6803 33.5442 24.0553 34.0636C23.4302 34.5783 22.5845 34.8357 21.5183 34.8357H20.1878V38H17.9679ZM20.1878 32.9054H21.5183C21.9181 32.9054 22.2192 32.7951 22.4214 32.5745C22.6282 32.3493 22.7316 32.0873 22.7316 31.7886C22.7316 31.4852 22.6282 31.221 22.4214 30.9958C22.2192 30.7706 21.9181 30.658 21.5183 30.658H20.1878V32.9054ZM26.425 38V28.7483H28.6311V38H26.425Z" fill="#2E2E2E"></path></svg>