<svg xmlns="http://www.w3.org/2000/svg" width="50" height="50" viewBox="0 0 50 50" fill="none"><g style="mix-blend-mode:luminosity"><g clip-path="url(#clip0_57570_3223)"><path d="M10.0745 29.7625C9.33633 27.4629 9.1234 25.0356 9.54925 22.5372C9.73378 21.501 10.0177 20.5074 10.33 19.4995C10.33 19.4995 12.2889 13.0692 18.9179 10.1308C18.9179 10.1308 21.2033 8.92424 24.6385 8.83907C24.6385 8.83907 24.1701 8.38483 23.872 8.1861C22.2538 7.10729 19.8406 6.75241 18.3785 8.27127C17.9385 8.72551 17.5694 9.22234 17.1578 9.67658C16.6893 10.1876 16.1215 10.6134 15.4686 10.8548C14.9008 11.0677 14.333 11.0251 13.751 11.1245C13.1548 11.2238 12.5444 11.4368 12.0618 11.82C11.5365 12.2459 11.3236 12.8137 11.2668 13.4666C11.2101 13.9777 11.2243 14.5029 11.1959 15.0139C11.1249 16.5186 10.6423 16.9444 9.56345 17.7819C9.10921 18.1226 8.72594 18.5768 8.44204 19.0595C7.59034 20.5641 8.95306 22.1256 9.02404 23.6444C9.03823 23.9567 9.00984 24.269 8.89628 24.5671C8.78272 24.8936 8.5556 25.1065 8.37107 25.3762C8.11556 25.7311 7.94522 26.157 8.01619 26.597C8.08717 27.037 8.31429 27.4487 8.52721 27.832C8.93887 28.5133 9.44989 29.1237 9.98929 29.7057C10.0177 29.7057 10.0461 29.7341 10.0745 29.7625Z" fill="#E32286"></path><path d="M37.1582 35.2137C40.423 33.7942 41.8141 31.3384 41.8141 31.3384C44.866 27.1793 43.8298 22.793 43.8298 22.793C41.8851 27.0231 40.1107 28.1871 40.1107 28.1871C44.8944 20.9051 40.1391 16.5047 40.1391 16.5047C42.0838 20.6496 39.5003 25.703 39.5003 25.703C37.3285 30.2738 34.2482 31.9062 34.2482 31.9062C37.6834 32.545 40.2101 30.2312 40.2101 30.2312C35.2844 35.5543 29.9471 35.2988 29.9471 35.2988C32.1899 37.8113 35.5541 37.5984 35.5541 37.5984C31.1537 38.6346 27.023 37.1726 23.6304 34.3478C22.9916 33.8225 22.3812 33.2547 21.8134 32.6444C21.8134 32.6444 21.3024 32.105 21.203 31.963L21.1888 31.9488C21.1178 34.5749 23.8575 37.0164 23.8575 37.0164C20.4223 35.5969 18.8466 32.5166 18.8466 32.5166C18.8466 32.5166 16.5329 28.5704 18.2079 24.0706C19.8829 19.5708 24.9505 18.6055 24.9505 18.6055C29.138 20.6354 32.6868 21.2742 32.6868 21.2742C40.1675 22.5233 39.7417 18.861 39.7417 18.861C39.8126 15.7097 35.0573 12.3597 35.0573 12.3597C26.5829 6.07135 18.9176 10.1311 18.9176 10.1311C12.2886 13.0695 10.3297 19.4998 10.3297 19.4998C10.0174 20.5077 9.73346 21.5013 9.54893 22.5375C8.82498 26.7534 9.918 30.7422 12.2886 34.291C15.9793 39.7986 21.9695 41.7008 21.9695 41.7008C30.8414 44.7101 36.9027 40.2813 36.9027 40.2813C42.4813 36.4486 43.6027 32.0198 43.6027 32.0198C39.1029 35.5401 37.1582 35.2137 37.1582 35.2137ZM30.231 14.5032C30.6569 14.5032 30.9975 14.8439 30.9975 15.2697C30.9975 15.6956 30.6569 16.0362 30.231 16.0362C29.8052 16.0362 29.4645 15.6956 29.4645 15.2697C29.4645 14.8439 29.8052 14.5032 30.231 14.5032Z" fill="url(#paint0_linear_57570_3223)"></path><path d="M39.7285 18.846C39.7995 15.6947 35.0442 12.3447 35.0442 12.3447C26.5698 6.07048 18.9045 10.1302 18.9045 10.1302C12.2754 13.0686 10.3165 19.4989 10.3165 19.4989C9.93326 20.5919 9.59258 22.267 9.59258 22.267C9.18092 24.3678 9.36546 26.3125 9.36546 26.3125C9.5358 28.1721 9.94745 29.4212 9.94745 29.4212C10.3733 30.7556 10.572 31.1672 10.572 31.1672C10.5578 31.1246 10.4869 30.8123 10.4869 30.8123C10.4869 30.8123 9.89067 27.945 10.4443 25.1911C10.4443 25.1911 10.9269 22.3237 12.8858 20.1093C12.8858 20.1093 16.0655 15.5811 21.9848 17.3555C21.9848 17.3555 23.2623 17.8097 23.7024 18.0368C24.1424 18.2498 24.909 18.5763 24.909 18.5763C29.0965 20.6061 32.6452 21.2449 32.6452 21.2449C40.1544 22.5083 39.7285 18.846 39.7285 18.846ZM30.2321 16.0496C29.8062 16.0496 29.4656 15.7089 29.4656 15.283C29.4656 14.8572 29.8062 14.5165 30.2321 14.5165C30.6579 14.5165 30.9986 14.8572 30.9986 15.283C30.9986 15.7089 30.6579 16.0496 30.2321 16.0496Z" fill="url(#paint1_radial_57570_3223)"></path><path d="M25.3761 13.1397L20.5356 11.6351C20.5072 11.6351 20.3653 11.5641 20.1098 11.6351C20.1098 11.6351 17.2566 12.359 17.7534 13.9205C17.7534 13.9205 18.0515 14.8999 18.8606 15.851L24.1837 15.5955L25.3761 13.1397Z" fill="url(#paint2_linear_57570_3223)"></path></g></g><defs><linearGradient id="paint0_linear_57570_3223" x1="13.4662" y1="40.0401" x2="31.1298" y2="21.2491" gradientUnits="userSpaceOnUse"><stop stop-color="#E01D84"></stop><stop offset="0.401" stop-color="#DF1D85"></stop><stop offset="0.77" stop-color="#932C87"></stop><stop offset="1" stop-color="#5D2F88"></stop></linearGradient><radialGradient id="paint1_radial_57570_3223" cx="0" cy="0" r="1" gradientUnits="userSpaceOnUse" gradientTransform="translate(32.9086 16.263) rotate(0.136937) scale(17.2586 14.4316)"><stop stop-color="#E01D84"></stop><stop offset="0.139" stop-color="#DE1E85"></stop><stop offset="0.285" stop-color="#D62085"></stop><stop offset="0.434" stop-color="#C92386"></stop><stop offset="0.586" stop-color="#B72786"></stop><stop offset="0.739" stop-color="#9D2B87"></stop><stop offset="0.891" stop-color="#7C2E88"></stop><stop offset="1" stop-color="#5D2F88"></stop></radialGradient><linearGradient id="paint2_linear_57570_3223" x1="17.6841" y1="13.7268" x2="25.372" y2="13.7268" gradientUnits="userSpaceOnUse"><stop stop-color="#E01D84"></stop><stop offset="0.238" stop-color="#DA1E85"></stop><stop offset="0.658" stop-color="#C72085"></stop><stop offset="0.999" stop-color="#B52284"></stop></linearGradient><clipPath id="clip0_57570_3223"><rect width="36" height="36" fill="white" transform="translate(8 7)"></rect></clipPath></defs></svg>