<svg xmlns="http://www.w3.org/2000/svg" width="50" height="50" viewBox="0 0 50 50" fill="none"><g style="mix-blend-mode:luminosity"><path d="M26.3966 34.5049C26.3811 34.3081 26.3718 34.1801 26.3718 34.1801C26.3718 34.1801 25.7749 30.156 25.0644 28.9551C24.952 28.7648 25.0766 27.983 25.3903 26.8249C25.5737 27.142 26.3478 28.4984 26.5032 28.9354C26.6783 29.4296 26.7151 29.5711 26.7151 29.5711C26.7151 29.5711 26.2905 27.3866 25.5939 26.1119C25.7466 25.5965 25.929 25.0269 26.1354 24.418C26.3993 24.881 27.0311 26.002 27.1702 26.3908C27.1983 26.4707 27.222 26.5386 27.2433 26.6008C27.2501 26.5634 27.2569 26.5261 27.2637 26.4887C27.1042 25.8119 26.7909 24.6342 26.362 23.7641C27.3136 18.8109 30.5593 12.1902 33.8869 9.23627H12.1803C10.7255 9.23627 9.53516 10.4268 9.53516 11.8815V35.8199C9.53516 37.2745 10.7255 38.4648 12.1803 38.4648H26.4768C26.3737 37.217 26.3394 35.8365 26.3966 34.5049Z" fill="#0F80CC"></path><path d="M25.3903 26.8259C25.5737 27.143 26.3478 28.4993 26.5032 28.9363C26.6783 29.4305 26.7151 29.572 26.7151 29.572C26.7151 29.572 26.2905 27.3875 25.5938 26.1128C25.7465 25.5974 25.929 25.0278 26.1354 24.4189C26.3767 24.8424 26.9251 25.815 27.1233 26.2758C27.1307 26.1888 27.138 26.1019 27.1457 26.0157C26.9701 25.3408 26.7034 24.4573 26.362 23.765C27.2384 19.2044 30.0592 13.2328 33.0983 10.0089H12.1802C11.1473 10.0089 10.3066 10.8493 10.3066 11.8824V34.0742C15.0441 32.256 20.7565 30.5939 25.6729 30.6652C25.4904 29.9613 25.2826 29.3249 25.0644 28.9561C24.952 28.7657 25.0766 27.9839 25.3903 26.8259Z" fill="url(#paint0_linear_57627_3966)"></path><path d="M38.9497 8.45463C37.463 7.12886 35.6631 7.6614 33.8866 9.23803C33.6229 9.47226 33.3597 9.73213 33.098 10.0097C30.059 13.2336 27.2381 19.2053 26.3617 23.7659C26.7031 24.4582 26.9698 25.3417 27.1454 26.0165C27.1904 26.1897 27.231 26.3522 27.2635 26.4905C27.3406 26.8177 27.3821 27.0298 27.3821 27.0298C27.3821 27.0298 27.3548 26.9267 27.243 26.6025C27.2217 26.5404 27.198 26.4725 27.1699 26.3926C27.1579 26.3596 27.1413 26.3195 27.123 26.2767C26.9248 25.8159 26.3764 24.8432 26.1351 24.4197C25.9287 25.0286 25.7463 25.5983 25.5936 26.1136C26.2903 27.3883 26.7148 29.5729 26.7148 29.5729C26.7148 29.5729 26.678 29.4313 26.5029 28.9372C26.3475 28.5002 25.5734 27.1438 25.39 26.8267C25.0763 27.9847 24.9517 28.7665 25.0641 28.9569C25.2823 29.3258 25.4901 29.9622 25.6726 30.666C26.0849 32.2516 26.3715 34.1819 26.3715 34.1819C26.3715 34.1819 26.3808 34.3098 26.3963 34.5067C26.3391 35.8382 26.3734 37.2188 26.4765 38.4666C26.6131 40.1184 26.8702 41.5374 27.198 42.2969L27.4205 42.1756C26.9392 40.6793 26.7437 38.7185 26.8293 36.4572C26.9589 33.0007 27.7543 28.8323 29.224 24.4876C31.707 17.9291 35.1521 12.667 38.3051 10.154C35.4313 12.7493 31.5418 21.1503 30.3775 24.2613C29.0738 27.7451 28.1499 31.0142 27.5931 34.1464C28.5538 31.21 31.6599 29.9478 31.6599 29.9478C31.6599 29.9478 33.1833 28.069 34.9636 25.3847C33.8972 25.628 32.1461 26.0444 31.5595 26.2909C30.6943 26.6538 30.4612 26.7776 30.4612 26.7776C30.4612 26.7776 33.2638 25.0709 35.6683 24.2981C38.975 19.0899 42.5777 11.6911 38.9497 8.45463Z" fill="#003B57"></path></g><defs><linearGradient id="paint0_linear_57627_3966" x1="23.4486" y1="10.5013" x2="23.4486" y2="32.7359" gradientUnits="userSpaceOnUse"><stop stop-color="#97D9F6"></stop><stop offset="0.920245" stop-color="#0F80CC"></stop><stop offset="1" stop-color="#0F80CC"></stop></linearGradient></defs></svg>