<svg xmlns="http://www.w3.org/2000/svg" width="50" height="50" viewBox="0 0 50 50" fill="none"><g style="mix-blend-mode:luminosity"><g clip-path="url(#clip0_57627_3934)"><path d="M15.0021 7H34.9427C35.913 7 36.8552 7.15469 37.7693 7.47813C39.0912 7.95625 40.2865 8.8 41.1865 9.89688C42.1005 10.9938 42.7052 12.3438 42.9162 13.75C43.0005 14.2703 43.0146 14.7906 43.0146 15.3109V34.7594C43.0146 35.3781 42.9865 36.0109 42.8599 36.6156C42.5787 38.0078 41.9177 39.3156 40.9615 40.3703C40.0193 41.425 38.7818 42.2125 37.4459 42.6344C36.6302 42.8875 35.7865 43 34.9287 43C34.549 43 14.9459 43 14.6505 42.9859C13.2162 42.9156 11.7959 42.4516 10.6005 41.65C9.43336 40.8625 8.47711 39.7656 7.85836 38.5C7.32399 37.4172 7.0568 36.2078 7.0568 34.9984V15.0016C7.02867 13.8063 7.2818 12.625 7.80211 11.5563C8.4068 10.2906 9.34899 9.17969 10.5162 8.39219C11.7115 7.57656 13.1177 7.09844 14.5521 7.02813C14.6927 7 14.8474 7 15.0021 7Z" fill="url(#paint0_linear_57627_3934)"></path><path d="M37.375 36.4469C37.2484 36.25 37.1078 36.0531 36.9531 35.8703C36.6016 35.4484 36.1937 35.0828 35.7437 34.7734C35.1812 34.3937 34.5203 34.1547 33.8453 34.1266C33.3672 34.0984 32.8891 34.1828 32.4391 34.3516C31.9891 34.5062 31.5531 34.7312 31.1313 34.9562C30.6391 35.2094 30.1469 35.4625 29.6266 35.6734C29.0078 35.9266 28.3609 36.1234 27.7 36.2641C26.8703 36.4187 26.0266 36.475 25.1969 36.4609C23.6922 36.4328 22.1875 36.2078 20.7531 35.7859C19.4875 35.4062 18.2781 34.8859 17.1391 34.225C16.1406 33.6484 15.2125 32.9875 14.3406 32.2422C13.6234 31.6234 12.9625 30.9625 12.3438 30.2594C11.9219 29.7672 11.5141 29.2469 11.1344 28.7125C10.9797 28.5016 10.8391 28.2766 10.7125 28.0516L7 24.0437V14.9734C7 10.5719 10.5578 7 14.9594 7H22.0609L27.3203 12.3437C39.1891 20.4156 35.35 29.3172 35.35 29.3172C35.35 29.3172 38.725 33.1141 37.375 36.4469Z" fill="url(#paint1_linear_57627_3934)"></path><path d="M27.3508 12.3438C39.2195 20.4156 35.3805 29.3172 35.3805 29.3172C35.3805 29.3172 38.7555 33.1281 37.3914 36.4609C37.3914 36.4609 35.9992 34.1266 33.6648 34.1266C31.4148 34.1266 30.093 36.4609 25.5648 36.4609C15.482 36.4609 10.7148 28.0375 10.7148 28.0375C19.7992 34.0141 26.0008 29.7812 26.0008 29.7812C21.9086 27.4047 13.2039 16.0422 13.2039 16.0422C20.7836 22.4969 24.0602 24.1984 24.0602 24.1984C22.1055 22.5813 16.6211 14.6781 16.6211 14.6781C21.0086 19.1219 29.7273 25.3234 29.7273 25.3234C32.2023 18.4609 27.3508 12.3438 27.3508 12.3438Z" fill="white"></path></g></g><defs><linearGradient id="paint0_linear_57627_3934" x1="28.4165" y1="5.71539" x2="21.6149" y2="44.289" gradientUnits="userSpaceOnUse"><stop stop-color="#FAAE42"></stop><stop offset="1" stop-color="#EF3E31"></stop></linearGradient><linearGradient id="paint1_linear_57627_3934" x1="25.3673" y1="7.58163" x2="20.3893" y2="35.8131" gradientUnits="userSpaceOnUse"><stop stop-color="#E39F3A"></stop><stop offset="1" stop-color="#D33929"></stop></linearGradient><clipPath id="clip0_57627_3934"><rect width="36" height="36" fill="white" transform="translate(7 7)"></rect></clipPath></defs></svg>