<svg xmlns="http://www.w3.org/2000/svg" width="50" height="50" viewBox="0 0 50 50" fill="none"><g style="mix-blend-mode:luminosity"><g clip-path="url(#clip0_57570_3292)"><path d="M7 25V7H43V43H7" fill="#007ACC"></path><path d="M14.8965 25.0625V26.5295H19.5765V39.8495H22.8975V26.5295H27.5775V25.0895C27.5775 24.2795 27.5775 23.6225 27.5415 23.6045C27.5415 23.5775 24.6885 23.5685 21.2235 23.5685L14.9235 23.5955V25.0715L14.8965 25.0625ZM35.9295 23.5595C36.8475 23.7755 37.5495 24.1895 38.1795 24.8465C38.5125 25.2065 39.0075 25.8365 39.0435 25.9985C39.0435 26.0525 37.4865 27.1055 36.5415 27.6905C36.5055 27.7175 36.3615 27.5645 36.2175 27.3305C35.7495 26.6645 35.2725 26.3765 34.5255 26.3225C33.4455 26.2505 32.7255 26.8175 32.7255 27.7625C32.7255 28.0505 32.7795 28.2125 32.8875 28.4465C33.1305 28.9415 33.5805 29.2385 34.9755 29.8505C37.5495 30.9575 38.6655 31.6865 39.3405 32.7305C40.1055 33.9005 40.2765 35.7365 39.7635 37.1135C39.1875 38.6165 37.7835 39.6335 35.7765 39.9665C35.1465 40.0745 33.7065 40.0565 33.0315 39.9395C31.5915 39.6695 30.2145 38.9495 29.3685 38.0225C29.0355 37.6625 28.3965 36.6995 28.4325 36.6365L28.7745 36.4205L30.1245 35.6375L31.1415 35.0435L31.3755 35.3585C31.6725 35.8265 32.3385 36.4565 32.7255 36.6725C33.8955 37.2755 35.4615 37.1945 36.2355 36.4925C36.5685 36.1865 36.7125 35.8625 36.7125 35.4125C36.7125 34.9985 36.6495 34.8095 36.4425 34.4945C36.1545 34.0985 35.5785 33.7745 33.9585 33.0545C32.0955 32.2625 31.3035 31.7585 30.5655 30.9845C30.1425 30.5165 29.7555 29.7875 29.5755 29.1845C29.4405 28.6625 29.3955 27.3845 29.5215 26.8715C29.9085 25.0715 31.2675 23.8115 33.2115 23.4515C33.8415 23.3255 35.3265 23.3795 35.9475 23.5415L35.9295 23.5595Z" fill="white"></path></g></g><defs><clipPath id="clip0_57570_3292"><rect width="36" height="36" fill="white" transform="translate(7 7)"></rect></clipPath></defs></svg>