<svg xmlns="http://www.w3.org/2000/svg" width="50" height="50" viewBox="0 0 50 50" fill="none"><g style="mix-blend-mode:luminosity"><path d="M17.3874 8.98438C16.4152 8.98648 15.4634 9.53843 14.974 10.3803L7.36144 23.6041C6.87952 24.4482 6.87952 25.5517 7.36144 26.3959L14.974 39.6197C15.4634 40.4616 16.4152 41.0137 17.3874 41.0157H32.6126C33.5849 41.0136 34.5366 40.4616 35.026 39.6197L42.6386 26.3959C43.1205 25.5517 43.1204 24.4482 42.6386 23.6041L35.026 10.3803C34.5366 9.53829 33.5849 8.98634 32.6126 8.98438L17.3874 8.98438ZM17.5257 16.7205C17.5466 16.7184 17.5686 16.7184 17.5895 16.7205H20.2155C20.2739 16.7224 20.3308 16.739 20.381 16.7688C20.4312 16.7986 20.4731 16.8406 20.5027 16.891L24.9576 24.8295C24.9801 24.8688 24.9944 24.9124 24.9997 24.9574C25.0054 24.9124 25.0197 24.8688 25.0422 24.8295L29.4864 16.891C29.517 16.8392 29.5605 16.7963 29.6127 16.7664C29.6649 16.7365 29.724 16.7207 29.7841 16.7205H32.4103C32.6427 16.7225 32.8169 17.0154 32.708 17.2213L28.3594 25L32.708 32.7681C32.8272 32.9751 32.6489 33.2815 32.4103 33.2796H29.7841C29.7229 33.2783 29.6632 33.2608 29.6109 33.229C29.5586 33.1972 29.5157 33.1522 29.4864 33.0984L25.0422 25.1598C25.0197 25.1206 25.0054 25.0768 24.9999 25.032C24.9944 25.077 24.98 25.1205 24.9576 25.1599L20.5026 33.0984C20.4742 33.1506 20.433 33.1947 20.3828 33.2264C20.3325 33.2581 20.275 33.2764 20.2157 33.2796H17.5894C17.3507 33.2817 17.1724 32.9751 17.2917 32.7681L21.6402 25L17.2917 17.2213C17.1875 17.0334 17.3146 16.7606 17.5255 16.7205H17.5257Z" fill="#3498DB"></path></g></svg>