<svg xmlns="http://www.w3.org/2000/svg" width="50" height="50" viewBox="0 0 50 50" fill="none"><g style="mix-blend-mode:luminosity"><path d="M40.6973 32.2163L41.9221 12.9854L28.9858 7L40.6973 32.2163Z" fill="url(#paint0_linear_57570_3236)"></path><path d="M24.9612 42.9003L33.8104 37.852L32.0105 33.4909H17.9116L16.1118 37.852L24.9612 42.9003Z" fill="url(#paint1_linear_57570_3236)"></path><path d="M29.5982 27.8429L24.9612 16.5717L20.324 27.8429H29.5982Z" fill="url(#paint2_linear_57570_3236)"></path><path d="M8 12.9854L9.21237 32.2163L20.9364 7L8 12.9854Z" fill="url(#paint3_linear_57570_3236)"></path><path d="M40.6973 32.2163L41.9221 12.9854L28.9858 7L40.6973 32.2163Z" fill="url(#paint4_radial_57570_3236)"></path><path d="M24.9612 42.9003L33.8104 37.852L32.0105 33.4909H17.9116L16.1118 37.852L24.9612 42.9003Z" fill="url(#paint5_radial_57570_3236)"></path><path d="M29.5982 27.8429L24.9612 16.5717L20.324 27.8429H29.5982Z" fill="url(#paint6_radial_57570_3236)"></path><path d="M8 12.9854L9.21237 32.2163L20.9364 7L8 12.9854Z" fill="url(#paint7_radial_57570_3236)"></path></g><defs><linearGradient id="paint0_linear_57570_3236" x1="8" y1="36.3222" x2="158" y2="36.3222" gradientUnits="userSpaceOnUse"><stop stop-color="#F0070C"></stop><stop offset="0.526" stop-color="#CC26D5"></stop><stop offset="1" stop-color="#7702FF"></stop></linearGradient><linearGradient id="paint1_linear_57570_3236" x1="8" y1="36.3222" x2="158" y2="36.3222" gradientUnits="userSpaceOnUse"><stop stop-color="#F0070C"></stop><stop offset="0.526" stop-color="#CC26D5"></stop><stop offset="1" stop-color="#7702FF"></stop></linearGradient><linearGradient id="paint2_linear_57570_3236" x1="8" y1="36.3222" x2="158" y2="36.3222" gradientUnits="userSpaceOnUse"><stop stop-color="#F0070C"></stop><stop offset="0.526" stop-color="#CC26D5"></stop><stop offset="1" stop-color="#7702FF"></stop></linearGradient><linearGradient id="paint3_linear_57570_3236" x1="8" y1="36.3222" x2="158" y2="36.3222" gradientUnits="userSpaceOnUse"><stop stop-color="#F0070C"></stop><stop offset="0.526" stop-color="#CC26D5"></stop><stop offset="1" stop-color="#7702FF"></stop></linearGradient><radialGradient id="paint4_radial_57570_3236" cx="0" cy="0" r="1" gradientUnits="userSpaceOnUse" gradientTransform="translate(54.6649 -2.39233) rotate(118.127) scale(31.4302 31.4336)"><stop stop-color="#FF41F8"></stop><stop offset="0.707" stop-color="#FF41F8" stop-opacity="0.5"></stop><stop offset="1" stop-color="#FF41F8" stop-opacity="0"></stop></radialGradient><radialGradient id="paint5_radial_57570_3236" cx="0" cy="0" r="1" gradientUnits="userSpaceOnUse" gradientTransform="translate(54.6649 -2.39233) rotate(118.127) scale(31.4302 31.4336)"><stop stop-color="#FF41F8"></stop><stop offset="0.707" stop-color="#FF41F8" stop-opacity="0.5"></stop><stop offset="1" stop-color="#FF41F8" stop-opacity="0"></stop></radialGradient><radialGradient id="paint6_radial_57570_3236" cx="0" cy="0" r="1" gradientUnits="userSpaceOnUse" gradientTransform="translate(54.6649 -2.39233) rotate(118.127) scale(31.4302 31.4336)"><stop stop-color="#FF41F8"></stop><stop offset="0.707" stop-color="#FF41F8" stop-opacity="0.5"></stop><stop offset="1" stop-color="#FF41F8" stop-opacity="0"></stop></radialGradient><radialGradient id="paint7_radial_57570_3236" cx="0" cy="0" r="1" gradientUnits="userSpaceOnUse" gradientTransform="translate(54.6649 -2.39233) rotate(118.127) scale(31.4302 31.4336)"><stop stop-color="#FF41F8"></stop><stop offset="0.707" stop-color="#FF41F8" stop-opacity="0.5"></stop><stop offset="1" stop-color="#FF41F8" stop-opacity="0"></stop></radialGradient></defs></svg>