<svg xmlns="http://www.w3.org/2000/svg" width="50" height="50" viewBox="0 0 50 50" fill="none"><g clip-path="url(#clip0_57570_3312)"><path d="M24.132 7.52412C24.0647 7.52718 23.8108 7.54858 23.5662 7.56694C20.5077 7.79326 17.4064 8.9249 14.8648 10.7416C14.0237 11.3411 13.36 11.9039 12.6199 12.644C8.36554 16.9014 6.61303 22.9939 7.94347 28.912C8.48788 31.3405 9.6501 33.7842 11.1916 35.7477C13.6108 38.8337 16.9262 41.0083 20.6453 41.9503C22.1593 42.3357 23.4163 42.4916 25.0036 42.4916C26.5696 42.4916 27.7226 42.351 29.2152 41.987C31.3591 41.4609 33.2432 40.5954 35.1272 39.2772C36.9317 38.011 38.6108 36.2371 39.8158 34.3255C41.3695 31.8543 42.2534 29.1261 42.4706 26.1319C42.5165 25.5018 42.4889 23.942 42.4216 23.2997C42.2871 22.0243 41.9445 20.3422 41.7457 19.9905C41.6662 19.8528 41.4429 19.6754 41.2778 19.6173C41.2197 19.599 41.0912 19.5837 40.9872 19.5837C40.5285 19.5837 40.1431 19.966 40.1431 20.4156C40.1431 20.5226 40.192 20.7795 40.2624 21.0579C40.8679 23.4129 40.9169 26.0004 40.4 28.3615C39.7394 31.3863 38.2652 34.0533 36.0417 36.2401C35.0048 37.2586 34.0047 38.011 32.711 38.7511C29.6923 40.4792 25.9395 41.1337 22.4192 40.5465C19.7461 40.103 17.4247 39.0753 15.2196 37.3595C14.1828 36.5521 12.9196 35.2217 12.1366 34.1084C10.7848 32.1877 9.93454 30.1629 9.49412 27.811C9.27085 26.6121 9.19439 25.0216 9.29837 23.7279C9.45741 21.7644 9.94983 19.9415 10.7848 18.2135C11.1702 17.4091 11.4087 16.9901 11.8706 16.2958C12.8126 14.8706 14.0604 13.5371 15.4398 12.4788C17.0577 11.234 18.9784 10.289 20.9206 9.78127C21.9696 9.50601 22.8077 9.36838 23.872 9.29192C27.7226 9.01665 31.4662 10.1238 34.5155 12.4452C34.7418 12.6165 34.9804 12.803 35.0446 12.8612L35.1608 12.9621L35.115 13.0905C34.8795 13.7512 35.0538 14.5739 35.5493 15.1489C35.8031 15.4425 36.2619 15.7178 36.6503 15.8095C36.9164 15.8738 37.3782 15.8738 37.6474 15.8095C38.3294 15.6474 38.9656 15.0633 39.1674 14.4149C39.3938 13.69 39.2622 12.9743 38.7974 12.3932C38.2835 11.7509 37.3996 11.4634 36.583 11.6775L36.4056 11.7234L36.1548 11.5154C35.1364 10.6621 33.9038 9.87303 32.607 9.24604C30.5028 8.22757 28.3894 7.6801 25.9823 7.53329C25.5205 7.50577 24.4286 7.49965 24.132 7.52412Z" fill="#191B1D"></path><path d="M22.3209 17.5865C21.9967 18.4245 21.2933 20.2596 20.7519 21.6634C20.2106 23.0673 19.1004 25.9514 18.2838 28.0709C17.4702 30.1904 16.7943 31.9338 16.7882 31.946C16.779 31.9613 17.6384 31.9705 18.6936 31.9705H20.6174L20.7305 31.6554C20.7948 31.4842 21.0211 30.8786 21.2321 30.3097L21.6175 29.279H24.5047C26.8047 29.279 27.3919 29.2698 27.3827 29.2393C27.3521 29.1567 26.8811 27.8109 26.6303 27.0922L26.3612 26.3276L24.4496 26.3123L22.5411 26.297L23.7829 22.8746C24.5292 20.8193 25.0338 19.4735 25.043 19.5041C25.0552 19.5317 25.5507 20.9416 26.1471 22.636C26.7435 24.3304 27.7283 27.1197 28.3339 28.8355L29.4319 31.9552L31.3465 31.9644C32.3986 31.9674 33.2611 31.9644 33.2611 31.9582C33.2611 31.9521 33.0134 31.3007 32.7075 30.5146C32.4017 29.7256 31.7472 28.0281 31.2517 26.7405C30.7562 25.4529 30.1996 24.0093 30.013 23.5291C29.8295 23.0489 29.5084 22.217 29.3004 21.6787C29.0924 21.1404 28.551 19.7305 28.0923 18.5438C27.6335 17.3571 27.2328 16.3141 27.1992 16.2254L27.1411 16.0664H22.9051L22.3209 17.5865Z" fill="#191B1D"></path></g><defs><clipPath id="clip0_57570_3312"><rect width="36" height="36" fill="white" transform="translate(7 7)"></rect></clipPath></defs></svg>