<svg xmlns="http://www.w3.org/2000/svg" width="50" height="50" viewBox="0 0 50 50" fill="none"><g style="mix-blend-mode:luminosity"><g clip-path="url(#clip0_57570_3343)"><path d="M9.11719 7.04111C19.6871 7.04018 30.2561 7.03925 40.826 7.04111C40.2442 13.6224 39.6717 20.2037 39.0658 26.7832C38.7058 30.9884 38.3347 35.1935 37.9432 39.3959C35.6876 39.9941 33.4543 40.676 31.1997 41.277C29.1287 41.8854 27.0411 42.4362 24.9693 43.04H24.908C22.9364 42.453 20.9452 41.9365 18.9736 41.3494C16.6466 40.7215 14.34 40.0211 12.012 39.3959C11.7086 36.246 11.4349 33.0942 11.1649 29.9424C10.6555 24.1191 10.1016 18.2995 9.61172 12.4752C9.44193 10.7224 9.32038 8.96395 9.11719 7.21482V7.04111ZM25.0212 9.63741C24.9989 10.9017 25.0379 12.1668 24.9989 13.4301C21.373 13.4171 17.7461 13.4274 14.1201 13.4311C14.1822 14.6582 14.3465 15.8769 14.5153 17.0938C17.8889 17.2192 21.2672 17.0891 24.6408 17.1904C21.6894 18.5159 18.7017 19.7644 15.7373 21.0621C15.4831 21.1754 15.2112 21.2608 14.9839 21.4262C15.0089 22.774 15.2261 24.1145 15.3216 25.4595C17.1198 25.453 18.917 25.4242 20.7151 25.4214C22.1561 25.414 23.5979 25.4428 25.0388 25.4112C24.9702 27.6276 25.0602 29.8467 24.9924 32.0631C24.0229 31.9191 23.0653 31.7027 22.0995 31.5309C21.3377 31.3646 20.5574 31.2782 19.8068 31.0599C19.7001 29.9963 19.6258 28.929 19.5312 27.8645C19.3141 27.7976 19.084 27.8041 18.8595 27.8004C17.7702 27.8069 16.68 27.7966 15.5898 27.8134C15.6965 29.8598 15.8802 31.9034 16.1929 33.9302C17.2673 34.2108 18.3436 34.4857 19.4162 34.7783C21.0594 35.2261 22.723 35.5986 24.3689 36.0389C24.5647 36.0807 24.7623 36.1531 24.9655 36.1364C25.075 37.4824 24.9906 38.8367 25.011 40.1864C25.3905 40.1251 25.7635 40.0313 26.13 39.918C29.2456 39.0708 32.3576 38.2079 35.4714 37.3523C35.6264 36.1262 35.6987 34.8916 35.8212 33.6627C36.145 29.9266 36.4716 26.1906 36.8112 22.4554C37.2093 18.1824 37.5535 13.9048 37.9543 9.63184C33.6427 9.63555 29.3319 9.62348 25.0212 9.63741Z" fill="#0170BA"></path><path d="M25.0225 9.63924C29.3332 9.6253 33.6439 9.63738 37.9556 9.63366C37.5547 13.9066 37.2105 18.1843 36.8125 22.4572C36.4729 26.1924 36.1463 29.9285 35.8225 33.6645C35.7 34.8935 35.6276 36.128 35.4727 37.3542C32.3589 38.2097 29.2469 39.0726 26.1312 39.9198C25.7647 40.0331 25.3917 40.127 25.0123 40.1883C24.9918 38.8386 25.0763 37.4842 24.9668 36.1382C24.9946 36.1326 25.0512 36.1215 25.0791 36.1159C27.9767 35.3877 30.8548 34.586 33.746 33.8317C34.1115 29.726 34.517 25.622 34.774 21.5079C32.3153 21.5209 29.8556 21.5135 27.3968 21.5237C27.0387 21.5256 26.6805 21.5237 26.3242 21.4977C27.6473 20.8159 29.0391 20.2752 30.3974 19.6668C31.701 19.0751 33.0204 18.5205 34.3287 17.94C34.581 17.8239 34.8501 17.7272 35.0718 17.5545C35.1591 17.234 35.1544 16.8987 35.1888 16.5708C35.2639 15.5304 35.3975 14.4956 35.4476 13.4543C31.9655 13.4264 28.4833 13.4506 25.0002 13.432C25.0392 12.1687 25.0002 10.9035 25.0225 9.63924Z" fill="#29A9DF"></path><path d="M25.0386 25.4125C26.7198 25.3837 28.402 25.4293 30.0841 25.4181C29.9904 27.1394 29.8475 28.8579 29.7585 30.5791C28.7277 30.9163 27.6811 31.2015 26.6419 31.5136C26.088 31.6827 25.5192 31.8164 24.9922 32.0645C25.0599 29.8481 24.9699 27.6289 25.0386 25.4125Z" fill="#29A9DF"></path><path d="M14.123 13.4321C17.749 13.4284 21.3759 13.4182 25.0019 13.4312C25.0492 17.4255 24.9899 21.4198 25.0418 25.4123C23.6009 25.4439 22.159 25.4151 20.7181 25.4225C18.92 25.4253 17.1227 25.4541 15.3246 25.4606C15.229 24.1155 15.0119 22.7751 14.9869 21.4273C15.2142 21.2619 15.486 21.1764 15.7403 21.0631C18.7047 19.7654 21.6923 18.517 24.6438 17.1914C21.2702 17.0902 17.8919 17.2202 14.5183 17.0948C14.3494 15.878 14.1852 14.6592 14.123 13.4321Z" fill="#CFCFCF"></path><path d="M15.5957 27.8148C16.6859 27.798 17.7761 27.8083 18.8654 27.8018C19.0899 27.8055 19.32 27.799 19.5371 27.8659C19.6318 28.9304 19.706 29.9977 19.8127 31.0613C20.5633 31.2796 21.3436 31.366 22.1054 31.5323C23.0713 31.7041 24.0288 31.9205 24.9984 32.0645C25.0912 33.4133 24.9288 34.7714 25.0837 36.1155C25.0559 36.1211 24.9993 36.1322 24.9715 36.1378C24.7683 36.1545 24.5707 36.0821 24.3749 36.0402C22.7289 35.5999 21.0653 35.2275 19.4221 34.7797C18.3495 34.4871 17.2732 34.2122 16.1988 33.9316C15.8861 31.9047 15.7024 29.8611 15.5957 27.8148Z" fill="#CFCFCF"></path><path d="M24.9987 13.4336C28.4818 13.4522 31.9639 13.428 35.4461 13.4559C35.396 14.4972 35.2624 15.532 35.1872 16.5724C35.1529 16.9003 35.1575 17.2356 35.0703 17.5561C34.8486 17.7289 34.5795 17.8255 34.3271 17.9416C33.0189 18.5222 31.6995 19.0767 30.3959 19.6684C29.0375 20.2769 27.6458 20.8175 26.3227 21.4993C26.679 21.5253 27.0371 21.5272 27.3953 21.5253C29.854 21.5151 32.3137 21.5225 34.7725 21.5095C34.5155 25.6237 34.11 29.7276 33.7445 33.8334C30.8533 34.5876 27.9752 35.3893 25.0775 36.1175C24.9226 34.7734 25.085 33.4153 24.9922 32.0666C25.5192 31.8186 26.088 31.6848 26.6419 31.5157C27.6811 31.2036 28.7277 30.9184 29.7585 30.5812C29.8475 28.86 29.9904 27.1415 30.0841 25.4202C28.402 25.4314 26.7198 25.3859 25.0386 25.4147C24.9866 21.4222 25.046 17.4279 24.9987 13.4336Z" fill="white"></path></g></g><defs><clipPath id="clip0_57570_3343"><rect width="36" height="36" fill="white" transform="translate(7 7)"></rect></clipPath></defs></svg>