<svg xmlns="http://www.w3.org/2000/svg" width="50" height="50" viewBox="0 0 50 50" fill="none"><g style="mix-blend-mode:luminosity"><g clip-path="url(#clip0_57570_3319)"><path d="M19.6515 21.2634C21.1065 21.2634 22.2887 22.0402 22.895 23.3891L22.9405 23.4952L25.3806 22.6654L25.3314 22.5403C24.3879 20.2366 22.2092 18.8081 19.6515 18.8081C17.8517 18.8081 16.3892 19.384 15.1804 20.57C13.9793 21.7484 13.373 23.23 13.373 24.9729C13.373 26.7045 13.9831 28.1785 15.1804 29.3531C16.3892 30.5391 17.8517 31.115 19.6515 31.115C22.2092 31.115 24.3841 29.6827 25.3314 27.3828L25.3806 27.2577L22.9367 26.4279L22.895 26.5378C22.3494 27.8678 21.1369 28.6597 19.6515 28.6597C18.6399 28.6597 17.7835 28.3073 17.1091 27.6101C16.4233 26.9054 16.0784 26.0149 16.0784 24.9729C16.0784 23.9234 16.4157 23.0519 17.1091 22.313C17.7873 21.6158 18.6399 21.2634 19.6515 21.2634Z" fill="#1B1E2E"></path><path d="M30.2451 42.1641L29.5176 39.7656C36.0803 37.7726 40.4907 31.8275 40.4907 24.9731C40.4907 23.0823 40.1535 21.2333 39.4866 19.4827L41.8283 18.5923C42.605 20.6308 42.9991 22.7754 42.9991 24.9769C42.9953 32.9377 37.8725 39.8452 30.2451 42.1641Z" fill="url(#paint0_linear_57570_3319)"></path><path d="M39.8135 20.4413C37.809 13.9014 31.8564 9.50983 24.9982 9.50983C24.0661 9.50983 23.1339 9.59319 22.2246 9.75612L21.7812 7.28943C22.8346 7.09998 23.9183 7.00146 24.9982 7.00146C32.9628 7.00146 39.8779 12.1053 42.2082 19.7024L39.8135 20.4413Z" fill="#69D3A7"></path><path d="M8.15188 31.3083C7.38649 29.2849 7 27.1516 7 24.9729C7 15.6897 13.9681 8.00166 23.2097 7.09229L23.456 9.5855C15.5027 10.3698 9.50458 16.9856 9.50458 24.9729C9.50458 26.8485 9.83802 28.6862 10.4935 30.4254L8.15188 31.3083Z" fill="url(#paint1_linear_57570_3319)"></path><path d="M34.934 19.0356L31.4594 27.8415L27.9583 19.0356H25.0938L30.0044 31.0546L26.4275 39.7316L28.9321 40.2317L37.6394 19.0356H34.934Z" fill="#1B1E2E"></path><path d="M26.8774 38.6404L26.3508 39.9174C26.2295 40.2091 25.9529 40.4099 25.6422 40.4213C25.4262 40.4289 25.214 40.4365 24.9943 40.4365C18.1171 40.4365 11.994 35.8327 10.1032 29.2397L7.69336 29.9294C9.89102 37.5871 17.0031 42.9373 24.9905 42.941H24.9943C25.2444 42.941 25.4944 42.9373 25.7445 42.9259C27.029 42.8728 28.1771 42.0658 28.6697 40.8722L29.382 39.1406L26.8774 38.6404Z" fill="url(#paint2_linear_57570_3319)"></path></g></g><defs><linearGradient id="paint0_linear_57570_3319" x1="44.378" y1="25.0868" x2="28.3077" y2="35.4917" gradientUnits="userSpaceOnUse"><stop offset="0.081" stop-color="#69D3A7"></stop><stop offset="1" stop-color="#69D3A7" stop-opacity="0"></stop></linearGradient><linearGradient id="paint1_linear_57570_3319" x1="19.007" y1="7.22854" x2="8.91105" y2="28.6409" gradientUnits="userSpaceOnUse"><stop stop-color="#69D3A7"></stop><stop offset="0.823" stop-color="#2AB586"></stop><stop offset="1" stop-color="#1CAE7F"></stop></linearGradient><linearGradient id="paint2_linear_57570_3319" x1="6.9745" y1="33.2011" x2="33.4475" y2="41.5094" gradientUnits="userSpaceOnUse"><stop offset="0.077" stop-color="#1CAE7F"></stop><stop offset="0.164" stop-color="#1CA379"></stop><stop offset="0.316" stop-color="#1C8568"></stop><stop offset="0.516" stop-color="#1B554D"></stop><stop offset="0.719" stop-color="#1B1E2E"></stop></linearGradient><clipPath id="clip0_57570_3319"><rect width="36" height="35.9424" fill="white" transform="translate(7 7)"></rect></clipPath></defs></svg>