<svg xmlns="http://www.w3.org/2000/svg" width="50" height="50" viewBox="0 0 50 50" fill="none"><g style="mix-blend-mode:luminosity"><g clip-path="url(#clip0_57570_3254)"><path d="M25.0213 7.00017C27.9431 7.00017 30.6943 7.6828 33.2749 9.00507L33.6161 9.17569L33.3175 9.41029C32.5924 9.98612 32.0166 10.7326 31.654 11.5856L31.5474 11.8202L31.3341 11.7136C29.3507 10.7752 27.2393 10.2847 25.0427 10.2847C16.9171 10.2847 10.327 16.8961 10.327 25.0003C10.327 33.1046 16.8957 39.716 25.0213 39.716C33.1469 39.716 39.737 33.1046 39.737 25.0003C39.737 23.0596 39.3744 21.1615 38.6066 19.37L38.5 19.1354L38.7346 19.0288C39.609 18.7089 40.3768 18.1757 40.9953 17.4932L41.2299 17.1946L41.3791 17.5359C42.4668 19.9032 43 22.4198 43 24.9577C43 34.8747 34.9171 42.9577 25 42.9577C15.0829 42.9577 7 34.8747 7 24.9577C7 15.0406 15.0829 6.95768 25.0213 7.00017ZM25.0213 16.8108C29.5213 16.8108 33.2109 20.479 33.2322 25.0217C33.2322 29.5643 29.564 33.2326 25.0213 33.2326C20.4787 33.2326 16.8104 29.5643 16.8104 25.0217C16.8104 20.479 20.5 16.8108 25.0213 16.8108ZM36.7725 10.0288C38.8455 10.0288 40.5261 11.7093 40.5261 13.7823C40.5261 15.8554 38.8455 17.5359 36.7725 17.5359C34.6995 17.5359 33.019 15.8554 33.019 13.7823C33.019 11.7093 34.6995 10.0288 36.7725 10.0288Z" fill="#3880FF"></path></g></g><defs><clipPath id="clip0_57570_3254"><rect width="36" height="36" fill="white" transform="translate(7 7)"></rect></clipPath></defs></svg>