<svg xmlns="http://www.w3.org/2000/svg" width="50" height="50" viewBox="0 0 50 50" fill="none"><g style="mix-blend-mode:luminosity"><g clip-path="url(#clip0_57570_3338)"><path d="M40.0016 16.7409C41.3005 17.9037 42.1007 19.1321 42.5952 20.8034C42.6117 20.8582 42.6281 20.9131 42.6451 20.9696C42.951 22.0647 43.0387 23.1693 43.0303 24.3014C43.03 24.3639 43.0298 24.4264 43.0295 24.4907C43.0169 26.7988 42.6219 29.1978 41.0307 30.9767C40.9817 31.0349 40.9327 31.0931 40.8821 31.1531C39.4111 32.8619 37.1889 33.6723 34.9839 33.8595C33.0319 33.9768 31.1385 33.632 29.4292 32.6642C29.3244 32.6058 29.3244 32.6058 29.2174 32.5461C27.3588 31.4378 26.2147 29.3472 25.6739 27.3076C24.9756 24.4911 25.2868 21.3809 26.7265 18.8346C26.9475 18.4789 27.1904 18.1481 27.4604 17.8283C27.5073 17.772 27.5541 17.7157 27.6024 17.6577C28.9838 16.0573 31.0886 14.9744 33.2068 14.8139C35.6581 14.675 38.0932 15.0788 40.0016 16.7409ZM30.04 19.4982C29.3952 20.3643 29.0627 21.2919 28.7964 22.3283C28.7603 22.4585 28.7603 22.4585 28.7236 22.5914C28.2581 24.5701 28.5419 26.7476 29.583 28.4894C30.4792 29.8178 31.6173 30.7856 33.2261 31.1174C34.6913 31.3618 36.1616 31.0797 37.3849 30.2195C38.7678 29.1378 39.5951 27.4275 39.8354 25.7033C40.0702 23.7347 39.8485 21.3026 38.6177 19.6744C38.408 19.4144 38.1801 19.1822 37.937 18.9533C37.8822 18.9015 37.8275 18.8498 37.7711 18.7965C36.6196 17.7976 35.1839 17.4473 33.6905 17.5317C32.2493 17.6527 30.9697 18.4114 30.04 19.4982Z" fill="#191B1D"></path><path d="M7 37.375C18.88 37.375 30.76 37.375 43 37.375C43 38.6512 43 39.9273 43 41.2422C31.12 41.2422 19.24 41.2422 7 41.2422C7 39.966 7 38.6898 7 37.375Z" fill="#3392FF"></path><path d="M7 8.75781C8.11375 8.75781 9.2275 8.75781 10.375 8.75781C10.375 16.1132 10.375 23.4686 10.375 31.0469C14.7604 31.0469 19.1458 31.0469 23.6641 31.0469C23.6641 31.975 23.6641 32.9031 23.6641 33.8594C18.1649 33.8594 12.6658 33.8594 7 33.8594C7 25.5759 7 17.2923 7 8.75781Z" fill="#191B1D"></path></g></g><defs><clipPath id="clip0_57570_3338"><rect width="36" height="36" fill="white" transform="translate(7 7)"></rect></clipPath></defs></svg>