<svg xmlns="http://www.w3.org/2000/svg" width="50" height="50" viewBox="0 0 50 50" fill="none"><g style="mix-blend-mode:luminosity"><path fill-rule="evenodd" clip-rule="evenodd" d="M25.0387 7L7 12.8379L9.58244 35.1502L25.0387 43V7Z" fill="#412846"></path><path fill-rule="evenodd" clip-rule="evenodd" d="M24.9609 7L42.9997 12.8379L40.4172 35.1502L24.9609 43V7Z" fill="#4B314F"></path><path fill-rule="evenodd" clip-rule="evenodd" d="M33.9928 19.319L33.9896 19.3094C34.8133 20.1641 35.2363 21.179 35.2588 22.3541C35.2813 23.5291 34.8582 24.7687 33.9799 26.0689C34.6363 25.5931 35.3945 24.5661 36.2517 22.9997C36.6221 26.1742 35.2461 28.5854 32.111 30.2368C33.112 30.1507 34.4409 29.5363 36.0891 28.3914C34.3302 32.3396 31.0961 34.4227 26.3869 34.6407C21.8357 34.6396 18.8873 32.0896 18.8896 32.0912C17.0185 30.7335 15.7311 29.0222 15.0318 26.965C13.9127 25.8255 13.9015 25.7034 13.7861 25.248C13.6706 24.7927 13.859 24.6655 14.1868 24.22C14.4054 23.923 14.4569 23.4957 14.3446 22.9458C14.066 22.5856 13.9055 22.0214 13.8633 21.2533C13.8633 20.8821 14.129 20.4904 14.6604 20.0783C15.1919 19.6662 15.5179 19.3493 15.636 19.131C15.7261 19.0121 15.7609 18.4963 15.7405 17.5838C15.7349 16.6875 16.2687 16.1999 17.3417 16.1209C18.9513 16.0024 19.859 14.8738 20.3647 14.3606C20.7018 14.0184 21.2008 13.8521 21.8301 13.8489C22.716 13.8102 23.5221 14.1268 24.2165 14.7802C25.9461 14.6968 27.7178 15.1317 29.513 16.0738C32.064 17.4867 33.4563 19.0167 33.6897 20.6562C33.4162 22.8139 30.3075 22.7575 24.377 20.4865C21.2736 21.3061 19.7479 23.0821 19.7986 25.8146C19.7964 28.322 21.0981 30.144 23.6945 31.2788C22.429 30.1205 21.8901 29.1469 22.0716 28.3405C24.7037 31.2469 27.702 32.3331 31.0611 31.5996C29.5802 31.6478 28.4071 31.2035 27.5242 30.2601C29.7947 30.2086 31.9381 29.2259 33.9565 27.302C32.7914 28.1664 31.5722 28.4938 30.2813 28.2879C33.7776 25.7252 35.0147 22.7355 33.9928 19.319ZM27.6473 18.9247C27.9307 18.9247 28.1604 18.7105 28.1604 18.4462C28.1604 18.182 27.9307 17.9678 27.6473 17.9678C27.3638 17.9678 27.1341 18.182 27.1341 18.4462C27.1341 18.7105 27.3638 18.9247 27.6473 18.9247Z" fill="#C054D2"></path></g></svg>