<svg xmlns="http://www.w3.org/2000/svg" width="50" height="50" viewBox="0 0 50 50" fill="none"><g style="mix-blend-mode:luminosity"><g clip-path="url(#clip0_57570_3270)"><path d="M23.4134 7.79923C23.7877 8.10727 24.0289 8.45594 24.2647 8.87559C24.3549 9.03538 24.447 9.19401 24.5391 9.35266C24.714 9.654 24.8879 9.95585 25.0613 10.258C25.2706 10.6225 25.4807 10.9865 25.6909 11.3505C25.9203 11.7481 26.1497 12.1457 26.3785 12.5437C26.7732 13.2297 27.1692 13.9145 27.5809 14.5905C27.6473 14.4844 27.7135 14.3781 27.7796 14.2717C27.8008 14.2377 27.8219 14.2037 27.8437 14.1687C27.9755 13.9548 28.1022 13.7388 28.2249 13.5196C28.2671 13.4448 28.2671 13.4448 28.3102 13.3684C28.3652 13.2704 28.4197 13.172 28.4735 13.0733C28.787 12.5169 29.2015 12.1097 29.8163 11.9055C30.4707 11.7413 31.1039 11.8216 31.696 12.1588C32.2489 12.5579 32.564 13.1817 32.8913 13.7644C32.9528 13.874 33.0147 13.9833 33.0767 14.0926C33.1413 14.2065 33.2059 14.3205 33.2704 14.4344C33.483 14.8102 33.6985 15.1842 33.9146 15.558C33.9891 15.6869 34.0635 15.8158 34.138 15.9447C34.1747 16.0083 34.2115 16.0719 34.2493 16.1374C34.4367 16.4617 34.6237 16.7861 34.8109 17.1105C34.8859 17.2405 34.9609 17.3705 35.0359 17.5005C35.4859 18.2805 35.4859 18.2805 35.5984 18.4755C35.6733 18.6054 35.7483 18.7353 35.8232 18.8652C36.0116 19.1916 36.1999 19.5181 36.388 19.8447C36.7507 20.4742 37.1143 21.1032 37.4809 21.7305C37.8857 22.4233 38.2869 23.1182 38.6874 23.8135C38.8751 24.1393 39.063 24.4649 39.2509 24.7905C39.3259 24.9205 39.4009 25.0505 39.4759 25.1805C39.5315 25.277 39.5315 25.277 39.5884 25.3755C40.0009 26.0905 40.4134 26.8055 40.8259 27.5205C40.8816 27.6171 40.8816 27.6171 40.9384 27.7156C41.0132 27.8451 41.0879 27.9746 41.1626 28.1042C41.3544 28.4367 41.5463 28.7692 41.7385 29.1016C41.9597 29.4843 42.1805 29.8673 42.4009 30.2505C42.4308 30.3024 42.4607 30.3543 42.4916 30.4079C42.5691 30.5427 42.6463 30.6778 42.7234 30.813C42.7452 30.8508 42.767 30.8886 42.7894 30.9275C43.0898 31.4581 43.0954 32.1801 42.9598 32.7686C42.9039 32.9005 42.8414 33.0121 42.7609 33.1305C42.7227 33.1927 42.7227 33.1927 42.6838 33.2561C42.3724 33.7209 41.9152 33.9985 41.3809 34.1505C41.1911 34.1745 41.0039 34.1748 40.8128 34.1733C40.7294 34.1737 40.7294 34.1737 40.6443 34.1741C40.4581 34.1749 40.272 34.1743 40.0858 34.1737C39.9509 34.174 39.816 34.1743 39.6812 34.1747C39.3106 34.1756 38.94 34.1753 38.5694 34.1749C38.2108 34.1746 37.8521 34.1752 37.4935 34.1758C36.7147 34.177 35.9359 34.1771 35.1571 34.1768C34.4755 34.1765 33.7939 34.1766 33.1123 34.1769C33.0209 34.1769 32.9295 34.177 32.838 34.177C32.7003 34.1771 32.5625 34.1772 32.4247 34.1772C31.1438 34.1779 29.8628 34.1782 28.5819 34.1777C28.5336 34.1777 28.4853 34.1777 28.4355 34.1776C28.0434 34.1775 27.6513 34.1773 27.2592 34.1772C25.7297 34.1766 24.2002 34.1771 22.6707 34.1785C20.9522 34.18 19.2337 34.1808 17.5152 34.1804C17.3319 34.1803 17.1487 34.1803 16.9654 34.1803C16.9203 34.1802 16.8752 34.1802 16.8287 34.1802C16.1477 34.1801 15.4666 34.1806 14.7855 34.1814C14.011 34.1822 13.2364 34.1823 12.4618 34.1812C12.0666 34.1807 11.6713 34.1806 11.2761 34.1815C10.9143 34.1823 10.5525 34.1821 10.1907 34.1809C10.0598 34.1807 9.92888 34.1808 9.79799 34.1815C9.61998 34.1823 9.44204 34.1816 9.26404 34.1805C9.21329 34.1811 9.16254 34.1817 9.11025 34.1823C8.50474 34.1749 7.96541 33.9191 7.54086 33.4905C7.2576 33.1023 7.05689 32.7085 7.01211 32.2267C7.00225 32.1347 7.00225 32.1347 6.99219 32.0409C7.01722 31.3757 7.2835 30.8566 7.61961 30.2955C7.66294 30.2216 7.70618 30.1477 7.74934 30.0738C7.83707 29.9237 7.92528 29.774 8.01397 29.6246C8.1639 29.3719 8.31181 29.1181 8.45965 28.8642C8.52744 28.7478 8.59534 28.6316 8.66335 28.5153C8.93235 28.0555 9.19712 27.5933 9.46086 27.1305C9.79325 26.5472 10.1289 25.9659 10.4679 25.3865C10.8371 24.755 11.2023 24.1212 11.5674 23.4874C11.7551 23.1617 11.943 22.8361 12.1309 22.5105C12.2059 22.3805 12.2809 22.2505 12.3559 22.1205C14.3059 18.7405 16.2559 15.3605 18.2059 11.9805C18.243 11.9161 18.2802 11.8517 18.3184 11.7853C18.3931 11.6558 18.4679 11.5264 18.5426 11.3969C18.7348 11.0638 18.9268 10.7307 19.1185 10.3973C19.3063 10.0709 19.4945 9.74476 19.6833 9.41896C19.7443 9.31367 19.8051 9.20831 19.8658 9.10285C20.2899 8.36628 20.6674 7.76806 21.5103 7.47204C22.1847 7.36065 22.8487 7.39674 23.4134 7.79923ZM22.0609 9.73048C22.0386 9.77057 22.0163 9.81067 21.9933 9.85198C21.2388 11.207 21.2388 11.207 20.8543 11.8553C20.6297 12.2341 20.4094 12.6152 20.1896 12.9967C20.1322 13.0964 20.1322 13.0964 20.0736 13.198C19.9951 13.3343 19.9167 13.4705 19.8382 13.6068C19.6493 13.9348 19.46 14.2626 19.2709 14.5905C19.1959 14.7205 19.1209 14.8505 19.0459 14.9805C18.2959 16.2805 17.5459 17.5805 16.7959 18.8805C16.7587 18.9448 16.7216 19.0092 16.6833 19.0755C16.6084 19.2054 16.5334 19.3353 16.4585 19.4652C16.2701 19.7916 16.0819 20.1181 15.8938 20.4447C15.5324 21.0718 15.1701 21.6983 14.8046 22.323C14.5001 22.8436 14.1995 23.3664 13.9009 23.8905C13.5685 24.4737 13.2328 25.055 12.8939 25.6345C12.5246 26.2659 12.1594 26.8997 11.7943 27.5335C11.5694 27.9239 11.3442 28.3141 11.119 28.7043C10.9277 29.0359 10.7364 29.3676 10.5453 29.6995C10.4676 29.8344 10.3898 29.9693 10.3121 30.1042C10.2562 30.2013 10.2562 30.2013 10.1992 30.3003C10.0314 30.5914 9.86279 30.882 9.69102 31.1709C9.64842 31.2426 9.64842 31.2426 9.60496 31.3157C9.553 31.4028 9.50082 31.4899 9.44836 31.5767C9.32259 31.7701 9.32259 31.7701 9.28086 31.9905C12.1321 31.9905 14.9833 31.9905 17.9209 31.9905C17.9803 31.7331 18.0397 31.4757 18.1009 31.2105C18.1939 30.9881 18.1939 30.9881 18.2996 30.8017C18.3199 30.7655 18.3401 30.7292 18.361 30.6918C18.4331 30.564 18.5068 30.4372 18.5809 30.3105C18.6102 30.2598 18.6395 30.2092 18.6698 30.157C18.8424 29.8593 19.016 29.5622 19.1902 29.2654C19.4303 28.8556 19.6658 28.4432 19.9009 28.0305C20.2332 27.4472 20.5689 26.8659 20.9079 26.2865C21.2771 25.655 21.6423 25.0212 22.0074 24.3874C22.1951 24.0617 22.383 23.7361 22.5709 23.4105C22.6459 23.2805 22.7209 23.1505 22.7959 23.0205C23.4709 21.8505 23.4709 21.8505 24.1459 20.6805C24.183 20.6161 24.2202 20.5517 24.2584 20.4853C24.3332 20.3558 24.4079 20.2262 24.4827 20.0967C24.6741 19.765 24.8653 19.4333 25.0564 19.1015C25.0952 19.0343 25.134 18.9671 25.1739 18.8978C25.2502 18.7653 25.3261 18.6325 25.4017 18.4995C25.5672 18.2094 25.7347 17.9248 25.9234 17.6491C25.9534 17.6037 25.9834 17.5584 26.0143 17.5116C26.0689 17.4301 26.1257 17.3499 26.185 17.2717C26.2643 17.1511 26.3049 17.0744 26.3209 16.9305C26.2353 16.6891 26.0988 16.4851 25.9609 16.2705C25.8969 16.1569 25.8338 16.0429 25.7715 15.9285C25.3539 15.1795 24.9282 14.4357 24.4946 13.6959C24.2729 13.3175 24.0536 12.9379 23.8346 12.558C23.7977 12.4939 23.7608 12.4299 23.7227 12.364C23.5471 12.0593 23.3717 11.7546 23.1965 11.4498C23.1351 11.343 23.0736 11.2362 23.0122 11.1294C22.9352 10.9957 22.8583 10.8619 22.7815 10.728C22.6819 10.5551 22.5817 10.3826 22.4809 10.2105C22.4518 10.1607 22.4227 10.1109 22.3928 10.0596C22.3256 9.94772 22.2538 9.83868 22.1809 9.73048C22.1413 9.73048 22.1017 9.73048 22.0609 9.73048ZM30.4609 14.1105C30.3755 14.2467 30.2938 14.3838 30.2134 14.523C30.1877 14.567 30.162 14.6111 30.1355 14.6565C30.0437 14.8143 29.9523 14.9724 29.8609 15.1305C29.8026 15.2309 29.7444 15.3313 29.6862 15.4317C29.5843 15.6075 29.4826 15.7833 29.3809 15.9592C29.3413 16.0275 29.3018 16.0959 29.2611 16.1663C29.2239 16.2307 29.1867 16.2952 29.1484 16.3616C29.1151 16.4193 29.0818 16.4769 29.0476 16.5362C29.019 16.5871 28.9903 16.638 28.9609 16.6905C28.9343 16.731 28.9077 16.7715 28.8804 16.8133C28.8262 16.9338 28.8262 16.9338 28.8901 17.0652C28.9202 17.1143 28.9502 17.1634 28.9812 17.2141C29.0149 17.2702 29.0485 17.3264 29.0832 17.3842C29.1208 17.4448 29.1584 17.5055 29.1971 17.568C29.2759 17.6989 29.3547 17.8298 29.4334 17.9608C29.495 18.0624 29.495 18.0624 29.5578 18.166C29.7522 18.489 29.9395 18.816 30.1271 19.143C30.2026 19.2741 30.2782 19.4052 30.3538 19.5363C30.41 19.6339 30.41 19.6339 30.4674 19.7335C30.6551 20.0593 30.843 20.3849 31.0309 20.7105C31.2567 21.1018 31.4824 21.4932 31.708 21.8847C32.0693 22.5118 32.4317 23.1383 32.7971 23.763C33.1224 24.3192 33.443 24.878 33.762 25.4378C34.0741 25.9852 34.3897 26.5306 34.7079 27.0745C35.0381 27.6391 35.365 28.2056 35.6914 28.7725C35.8289 29.0113 35.9668 29.2498 36.1052 29.4881C36.1667 29.5939 36.2281 29.6998 36.2895 29.8057C36.3663 29.938 36.4432 30.0702 36.5203 30.2024C36.6218 30.3777 36.7218 30.5537 36.8209 30.7305C36.8499 30.7816 36.879 30.8327 36.9089 30.8854C37.1181 31.2736 37.1564 31.5259 37.2409 31.9905C38.4091 31.9905 39.5773 31.9905 40.7809 31.9905C40.6938 31.7728 40.6083 31.5859 40.4949 31.3837C40.4617 31.3244 40.4286 31.2651 40.3944 31.204C40.3586 31.1406 40.3228 31.0771 40.2859 31.0117C40.2485 30.9452 40.2111 30.8787 40.1725 30.8101C39.8521 30.2421 39.5244 29.6785 39.1946 29.1159C38.9729 28.7375 38.7535 28.3579 38.5346 27.978C38.4973 27.9132 38.4599 27.8484 38.4214 27.7816C38.3457 27.6502 38.27 27.5188 38.1943 27.3874C38.0067 27.0617 37.8187 26.7361 37.6309 26.4105C37.5559 26.2805 37.4809 26.1505 37.4059 26.0205C37.3687 25.9561 37.3316 25.8918 37.2934 25.8255C36.0559 23.6805 36.0559 23.6805 35.9433 23.4854C35.8684 23.3555 35.7934 23.2256 35.7185 23.0957C35.5301 22.7693 35.3419 22.4428 35.1537 22.1163C34.7924 21.4892 34.4301 20.8627 34.0646 20.238C33.7393 19.6818 33.4187 19.123 33.0997 18.5632C32.788 18.0163 32.4728 17.4716 32.1549 16.9283C31.8528 16.4118 31.5536 15.8937 31.255 15.3751C31.1855 15.2544 31.1158 15.1336 31.0461 15.0129C30.9715 14.8836 30.8972 14.7542 30.8232 14.6246C30.7852 14.5586 30.7472 14.4926 30.7081 14.4245C30.6737 14.3643 30.6392 14.3042 30.6037 14.2421C30.5764 14.1987 30.549 14.1552 30.5209 14.1105C30.5011 14.1105 30.4813 14.1105 30.4609 14.1105ZM27.5209 19.1505C27.4893 19.2073 27.4893 19.2073 27.4571 19.2653C26.9983 20.0905 26.532 20.9105 26.0546 21.7251C25.8329 22.1034 25.6135 22.4831 25.3946 22.863C25.3573 22.9278 25.3199 22.9926 25.2814 23.0594C25.2057 23.1908 25.13 23.3221 25.0543 23.4535C24.8667 23.7793 24.6787 24.1049 24.4909 24.4305C24.4159 24.5605 24.3409 24.6905 24.2659 24.8205C24.1159 25.0805 23.9659 25.3405 23.8159 25.6005C23.7787 25.6648 23.7416 25.7292 23.7033 25.7955C23.6284 25.9254 23.5534 26.0553 23.4785 26.1852C23.2901 26.5116 23.1019 26.8381 22.9137 27.1647C22.5524 27.7918 22.19 28.4183 21.8246 29.043C21.5091 29.5825 21.1972 30.124 20.8871 30.6667C20.8668 30.7022 20.8466 30.7377 20.8257 30.7742C20.5948 31.1783 20.3669 31.5836 20.1409 31.9905C25.0513 31.9905 29.9617 31.9905 35.0209 31.9905C34.7834 31.5551 34.5449 31.1209 34.3009 30.6892C34.2674 30.63 34.2339 30.5707 34.1993 30.5097C33.9245 30.0248 33.6446 29.5429 33.3631 29.0619C32.9906 28.4254 32.6224 27.7864 32.2543 27.1474C32.0667 26.8217 31.8787 26.4961 31.6909 26.1705C31.6159 26.0405 31.5409 25.9105 31.4659 25.7805C31.4102 25.684 31.4102 25.684 31.3534 25.5855C30.1159 23.4405 28.8784 21.2955 27.6409 19.1505C27.6013 19.1505 27.5617 19.1505 27.5209 19.1505Z" fill="#22B387"></path><path d="M27.5208 14.8306C27.5604 14.8306 27.6 14.8306 27.6408 14.8306C27.6706 14.8835 27.7003 14.9365 27.731 14.9911C27.9297 15.3428 28.1304 15.6911 28.3495 16.0306C28.7208 16.6069 28.7208 16.6069 28.7208 16.8706C28.7565 16.8841 28.7923 16.8976 28.8292 16.9116C29.0002 17.0142 29.0523 17.1196 29.1469 17.2946C29.1809 17.3566 29.2149 17.4186 29.25 17.4825C29.2857 17.5491 29.3215 17.6157 29.3583 17.6843C29.4341 17.8226 29.5099 17.9609 29.5859 18.0992C29.6228 18.1667 29.6597 18.2342 29.6977 18.3038C29.8266 18.5374 29.9604 18.7677 30.097 18.9968C30.3453 19.415 30.5893 19.8355 30.832 20.2568C30.8703 20.3232 30.9086 20.3897 30.948 20.4581C31.0265 20.5944 31.105 20.7306 31.1834 20.8669C31.3724 21.1949 31.5616 21.5227 31.7508 21.8506C31.8258 21.9806 31.9008 22.1106 31.9758 22.2406C32.0315 22.3371 32.0315 22.3371 32.0883 22.4356C33.3258 24.5806 33.3258 24.5806 33.4383 24.7756C33.5132 24.9055 33.5882 25.0354 33.6631 25.1653C33.8515 25.4917 34.0398 25.8182 34.2279 26.1448C34.623 26.8304 35.0198 27.515 35.4193 28.198C35.7403 28.7477 36.056 29.3003 36.3705 29.8537C36.5705 30.2051 36.7731 30.5538 36.9869 30.897C37.3057 31.4732 37.2888 32.0332 37.1238 32.6524C37.0271 32.9258 36.8788 33.1439 36.7008 33.3706C36.6654 33.4205 36.6301 33.4703 36.5937 33.5217C36.4357 33.6987 36.2809 33.7866 36.0708 33.8956C36.0033 33.9311 35.9359 33.9667 35.8664 34.0034C35.6244 34.1171 35.433 34.158 35.1667 34.1586C35.0841 34.159 35.0841 34.159 34.9999 34.1594C34.9095 34.1594 34.9095 34.1594 34.8173 34.1594C34.7531 34.1596 34.6889 34.1598 34.6228 34.1601C34.407 34.1607 34.1912 34.161 33.9755 34.1612C33.821 34.1616 33.6666 34.162 33.5122 34.1624C33.0482 34.1636 32.5842 34.1642 32.1202 34.1647C31.9016 34.165 31.6829 34.1653 31.4643 34.1656C30.7372 34.1666 30.01 34.1675 29.2829 34.1679C29.0943 34.168 28.9056 34.1682 28.717 34.1683C28.6467 34.1683 28.6467 34.1683 28.5749 34.1684C27.8159 34.1689 27.0569 34.1704 26.2978 34.1723C25.518 34.1743 24.7382 34.1754 23.9585 34.1756C23.5208 34.1757 23.0832 34.1762 22.6456 34.1778C22.2338 34.1792 21.8219 34.1794 21.4101 34.1788C21.2591 34.1788 21.1082 34.1792 20.9572 34.18C20.7507 34.181 20.5442 34.1806 20.3376 34.1798C20.2783 34.1805 20.219 34.1811 20.1579 34.1818C19.4996 34.1758 19.0024 33.9684 18.5306 33.5131C18.1592 33.1054 17.9685 32.6842 17.9283 32.1331C17.9174 32.015 17.9174 32.015 17.9063 31.8945C17.9058 31.305 18.2584 30.7639 18.5433 30.2693C18.5801 30.2044 18.617 30.1395 18.655 30.0727C18.9748 29.5113 19.3003 28.9533 19.627 28.396C19.8487 28.0176 20.0681 27.638 20.287 27.2581C20.3244 27.1933 20.3617 27.1284 20.4002 27.0617C20.4759 26.9303 20.5516 26.7989 20.6273 26.6675C20.815 26.3418 21.0029 26.0162 21.1908 25.6906C21.2658 25.5606 21.3408 25.4306 21.4158 25.3006C21.8658 24.5206 22.3158 23.7406 22.7658 22.9606C22.8029 22.8962 22.84 22.8318 22.8783 22.7655C22.9532 22.6356 23.0282 22.5057 23.1031 22.3758C23.2915 22.0494 23.4798 21.7229 23.6679 21.3963C24.063 20.7107 24.4597 20.026 24.8595 19.343C25.0522 19.0131 25.2431 18.6823 25.432 18.3502C25.4533 18.3128 25.4746 18.2755 25.4965 18.237C25.5997 18.0557 25.7026 17.8743 25.8053 17.6927C26.012 17.3287 26.2267 16.9728 26.4535 16.6211C26.6569 16.2977 26.844 15.9648 27.0333 15.6331C27.113 15.4935 27.1929 15.354 27.2728 15.2145C27.3075 15.1536 27.3422 15.0928 27.378 15.0301C27.4608 14.8906 27.4608 14.8906 27.5208 14.8306ZM27.5208 19.1506C27.4892 19.2074 27.4892 19.2074 27.457 19.2654C26.9982 20.0906 26.5319 20.9106 26.0545 21.7252C25.8329 22.1035 25.6135 22.4831 25.3945 22.8631C25.3572 22.9279 25.3198 22.9927 25.2813 23.0595C25.2056 23.1908 25.1299 23.3222 25.0542 23.4536C24.8666 23.7794 24.6787 24.105 24.4908 24.4306C24.4158 24.5606 24.3408 24.6906 24.2658 24.8206C24.1158 25.0806 23.9658 25.3406 23.8158 25.6006C23.7787 25.6649 23.7415 25.7293 23.7033 25.7956C23.6283 25.9255 23.5534 26.0554 23.4784 26.1853C23.2901 26.5117 23.1018 26.8382 22.9137 27.1648C22.5523 27.7919 22.19 28.4183 21.8245 29.0431C21.5091 29.5826 21.1971 30.1241 20.887 30.6668C20.8668 30.7023 20.8465 30.7377 20.8256 30.7743C20.5947 31.1784 20.3668 31.5837 20.1408 31.9906C25.0512 31.9906 29.9616 31.9906 35.0208 31.9906C34.7833 31.5552 34.5448 31.121 34.3008 30.6893C34.2673 30.6301 34.2338 30.5708 34.1993 30.5097C33.9244 30.0249 33.6446 29.543 33.363 29.062C32.9905 28.4255 32.6224 27.7865 32.2542 27.1475C32.0666 26.8218 31.8787 26.4962 31.6908 26.1706C31.6158 26.0406 31.5408 25.9106 31.4658 25.7806C31.4101 25.684 31.4101 25.684 31.3533 25.5856C30.1158 23.4406 28.8783 21.2956 27.6408 19.1506C27.6012 19.1506 27.5616 19.1506 27.5208 19.1506Z" fill="#2E475C"></path><path d="M31.6947 12.1589C32.2476 12.558 32.5627 13.1817 32.89 13.7644C32.9515 13.874 33.0134 13.9834 33.0754 14.0927C33.14 14.2066 33.2046 14.3205 33.269 14.4345C33.4816 14.8102 33.6972 15.1842 33.9133 15.558C33.9877 15.6869 34.0622 15.8158 34.1366 15.9447C34.1734 16.0083 34.2101 16.0719 34.248 16.1374C34.4353 16.4617 34.6224 16.7861 34.8095 17.1105C34.8845 17.2405 34.9595 17.3705 35.0345 17.5005C35.4845 18.2805 35.4845 18.2805 35.597 18.4755C35.672 18.6054 35.7469 18.7353 35.8219 18.8652C36.0103 19.1917 36.1985 19.5181 36.3866 19.8447C36.7494 20.4742 37.113 21.1032 37.4795 21.7305C37.8844 22.4233 38.2855 23.1182 38.6861 23.8136C38.8737 24.1393 39.0616 24.4649 39.2495 24.7905C39.3245 24.9205 39.3995 25.0505 39.4745 25.1805C39.5117 25.2448 39.5488 25.3092 39.587 25.3755C39.9995 26.0905 40.412 26.8055 40.8245 27.5205C40.8617 27.5849 40.8988 27.6493 40.9371 27.7156C41.0118 27.8452 41.0865 27.9747 41.1612 28.1042C41.3531 28.4367 41.545 28.7692 41.7372 29.1016C41.9584 29.4843 42.1791 29.8673 42.3995 30.2505C42.4444 30.3284 42.4444 30.3284 42.4902 30.4079C42.5678 30.5427 42.645 30.6778 42.722 30.813C42.7438 30.8508 42.7656 30.8886 42.7881 30.9275C43.0885 31.4581 43.094 32.1801 42.9585 32.7686C42.9025 32.9006 42.84 33.0121 42.7595 33.1305C42.7341 33.172 42.7086 33.2134 42.6824 33.2561C42.372 33.7195 41.9136 34.0014 41.3795 34.1505C41.1791 34.1741 40.9813 34.1734 40.7798 34.1709C40.7218 34.171 40.6638 34.171 40.604 34.171C40.4137 34.1709 40.2235 34.1695 40.0333 34.1681C39.9008 34.1677 39.7683 34.1675 39.6358 34.1673C39.2882 34.1666 38.9406 34.1649 38.593 34.1629C38.2379 34.161 37.8827 34.1602 37.5276 34.1593C36.8316 34.1574 36.1355 34.1543 35.4395 34.1505C35.5776 34.0808 35.7158 34.014 35.8567 33.9501C36.451 33.6621 36.8319 33.2979 37.052 32.6655C37.0757 32.5808 37.0981 32.4958 37.1195 32.4105C37.1591 32.2719 37.1987 32.1333 37.2395 31.9905C38.4077 31.9905 39.5759 31.9905 40.7795 31.9905C40.1991 30.9734 39.6169 29.9575 39.0311 28.9436C38.8437 28.6193 38.6566 28.2949 38.4695 27.9705C38.3945 27.8405 38.3195 27.7105 38.2445 27.5805C35.9945 23.6805 35.9945 23.6805 35.882 23.4855C35.8071 23.3556 35.7321 23.2257 35.6572 23.0958C35.4688 22.7693 35.2805 22.4428 35.0924 22.1163C34.7311 21.4892 34.3687 20.8627 34.0033 20.238C33.678 19.6818 33.3574 19.123 33.0384 18.5632C32.7267 18.0164 32.4116 17.4718 32.0937 16.9286C31.7895 16.4086 31.4885 15.8869 31.1884 15.3646C30.8703 14.7333 30.8703 14.7333 30.4595 14.1705C30.44 14.2054 30.4204 14.2403 30.4003 14.2762C30.1616 14.7019 29.921 15.1264 29.6795 15.5505C29.643 15.6148 29.6065 15.6791 29.5689 15.7454C29.464 15.9296 29.3582 16.1133 29.252 16.2967C29.2194 16.3543 29.1868 16.4118 29.1532 16.471C29.1225 16.5236 29.0919 16.5761 29.0603 16.6303C29.0335 16.6768 29.0068 16.7233 28.9792 16.7712C28.9529 16.804 28.9266 16.8367 28.8995 16.8705C28.8401 16.8705 28.7807 16.8705 28.7195 16.8705C28.6803 16.79 28.6803 16.79 28.6403 16.7078C28.4005 16.2194 28.1439 15.75 27.8505 15.2913C27.8229 15.2481 27.7954 15.205 27.767 15.1605C27.7424 15.1228 27.7178 15.085 27.6925 15.0461C27.6395 14.9505 27.6395 14.9505 27.6395 14.8305C27.5999 14.8107 27.5603 14.7909 27.5195 14.7705C27.6396 14.5505 27.7601 14.3308 27.881 14.1113C27.9219 14.0369 27.9627 13.9624 28.0033 13.8879C28.9292 12.191 28.9292 12.191 29.9195 11.8905C30.5414 11.7486 31.1355 11.8404 31.6947 12.1589Z" fill="#1A8271"></path><path d="M8.16561 36.5728C8.5714 36.6439 8.792 37.0457 9.02811 37.3603C9.09748 37.4518 9.16686 37.5434 9.23624 37.6349C9.27259 37.6831 9.30894 37.7312 9.34639 37.7808C9.49979 37.9837 9.65404 38.1859 9.8083 38.3882C9.92917 38.5466 10.0499 38.7052 10.1707 38.8638C10.3408 39.0871 10.5109 39.3104 10.6812 39.5336C10.7454 39.6179 10.7454 39.6179 10.8109 39.7038C10.8923 39.8106 10.9737 39.9174 11.0552 40.0241C11.0924 40.0729 11.1296 40.1217 11.168 40.1721C11.2163 40.2354 11.2163 40.2354 11.2656 40.3001C11.4243 40.5096 11.5818 40.7199 11.7394 40.9303C11.7399 40.8531 11.7399 40.8531 11.7404 40.7743C11.7439 40.2896 11.7482 39.8049 11.7535 39.3202C11.7562 39.071 11.7585 38.8218 11.7601 38.5726C11.7617 38.3322 11.7641 38.0918 11.7672 37.8514C11.7682 37.7596 11.7688 37.6678 11.7692 37.576C11.7698 37.4475 11.7715 37.3192 11.7734 37.1907C11.7741 37.1176 11.7748 37.0444 11.7754 36.9691C11.7994 36.7903 11.7994 36.7903 11.88 36.6769C12.0386 36.5706 12.1539 36.5838 12.3394 36.6103C12.4688 36.6988 12.4688 36.6988 12.5794 36.8503C12.6033 37.0341 12.6128 37.1965 12.6114 37.3804C12.6121 37.4606 12.6121 37.4606 12.6129 37.5425C12.6143 37.7193 12.6139 37.896 12.6133 38.0728C12.6137 38.1956 12.614 38.3184 12.6145 38.4413C12.6151 38.6987 12.6148 38.9561 12.6139 39.2136C12.6129 39.5437 12.6143 39.8737 12.6164 40.2038C12.6178 40.4575 12.6177 40.7111 12.6172 40.9648C12.6171 41.0865 12.6175 41.2082 12.6184 41.3299C12.6195 41.5 12.6186 41.67 12.6172 41.8401C12.6183 41.9157 12.6183 41.9157 12.6194 41.9928C12.6155 42.2303 12.603 42.3445 12.4397 42.5225C12.2794 42.6103 12.2794 42.6103 12.0769 42.6253C11.7611 42.5164 11.6367 42.3332 11.4394 42.0703C11.4146 42.0375 11.3897 42.0047 11.3642 41.971C11.2146 41.7733 11.0662 41.5748 10.9183 41.3758C10.7132 41.1007 10.503 40.8295 10.2919 40.559C10.2563 40.5135 10.2208 40.468 10.1842 40.4211C10.1148 40.3321 10.0454 40.2432 9.97598 40.1543C9.79044 39.9161 9.60663 39.6766 9.4228 39.4371C9.31986 39.303 9.21675 39.1691 9.11342 39.0353C9.08599 38.9998 9.05855 38.9642 9.03028 38.9276C8.97778 38.8596 8.92525 38.7916 8.87266 38.7237C8.76318 38.5817 8.65887 38.4395 8.55936 38.2903C8.55914 38.3417 8.55892 38.3932 8.5587 38.4462C8.55643 38.9309 8.55302 39.4156 8.54833 39.9003C8.54595 40.1495 8.54402 40.3987 8.5431 40.6479C8.54219 40.8883 8.54013 41.1287 8.53726 41.3691C8.53637 41.4609 8.5359 41.5527 8.53585 41.6445C8.53571 41.773 8.53409 41.9013 8.53211 42.0298C8.53158 42.1029 8.53105 42.1761 8.5305 42.2514C8.49936 42.4303 8.49936 42.4303 8.3888 42.5455C8.20214 42.6389 8.09536 42.6128 7.89936 42.5503C7.73297 42.3979 7.71894 42.306 7.6961 42.0784C7.69485 41.983 7.69459 41.8875 7.69512 41.7921C7.69471 41.7398 7.69429 41.6876 7.69387 41.6338C7.69277 41.4612 7.693 41.2887 7.69334 41.1161C7.69307 40.9961 7.69275 40.8761 7.69239 40.7561C7.69186 40.5046 7.692 40.253 7.6926 40.0015C7.69329 39.6792 7.69207 39.357 7.69032 39.0347C7.68922 38.7868 7.68924 38.539 7.68958 38.2912C7.68959 38.1723 7.68923 38.0535 7.68848 37.9347C7.68759 37.7685 7.68823 37.6024 7.68926 37.4362C7.68868 37.3872 7.6881 37.3381 7.6875 37.2876C7.69054 37.0533 7.70448 36.9349 7.82835 36.7297C7.95936 36.6103 7.95936 36.6103 8.16561 36.5728Z" fill="#2C485C"></path><path d="M42.4155 36.9964C42.5704 37.1352 42.6463 37.2497 42.7007 37.4506C42.6632 37.6456 42.6632 37.6456 42.5807 37.8106C42.3847 37.9413 42.3277 37.9571 42.1007 37.9306C41.9723 37.8582 41.9723 37.8582 41.8457 37.7619C41.3823 37.4384 40.926 37.3193 40.3607 37.3906C40.073 37.4649 39.8366 37.5481 39.6332 37.7694C39.5473 38.0331 39.532 38.2489 39.6534 38.5025C39.9615 38.9277 40.5733 39.0444 41.0582 39.1644C41.7145 39.3273 42.2486 39.5025 42.6407 40.0906C42.8404 40.5147 42.8735 41.011 42.7516 41.4631C42.5817 41.889 42.2502 42.2017 41.8607 42.4306C41.4538 42.5956 41.0663 42.6389 40.6307 42.6331C40.5783 42.6338 40.526 42.6345 40.472 42.6352C39.9504 42.6329 39.4876 42.5163 39.0482 42.2281C38.9686 42.1773 38.9686 42.1773 38.8874 42.1255C38.6687 41.9543 38.5162 41.8054 38.4707 41.5269C38.5007 41.3506 38.5007 41.3506 38.5982 41.2081C38.7829 41.0818 38.8798 41.0891 39.1007 41.1106C39.2523 41.1962 39.2523 41.1962 39.397 41.3094C39.8762 41.6614 40.3031 41.7942 40.9007 41.7706C41.2641 41.6903 41.558 41.5816 41.8007 41.2906C41.8676 41.014 41.8925 40.8927 41.7892 40.6264C41.4986 40.1556 40.8259 40.0463 40.3232 39.9106C39.7057 39.743 39.1801 39.5681 38.8077 39.0149C38.5992 38.6284 38.5573 38.1933 38.6598 37.7684C38.8171 37.2743 39.0589 36.9584 39.517 36.7119C40.4473 36.3006 41.5875 36.3896 42.4155 36.9964Z" fill="#1FB284"></path><path d="M21.8195 36.5507C22.1256 36.749 22.3123 37.0348 22.5208 37.3269C22.5948 37.4293 22.669 37.5317 22.7432 37.6339C22.7796 37.6842 22.816 37.7345 22.8535 37.7862C23.0486 38.0519 23.2531 38.3101 23.4578 38.5684C23.5595 38.7107 23.5595 38.7107 23.5595 38.8307C23.5991 38.8307 23.6387 38.8307 23.6795 38.8307C23.7038 38.7789 23.7038 38.7789 23.7285 38.7261C23.8011 38.5877 23.8829 38.4686 23.976 38.3432C24.0108 38.2961 24.0456 38.2491 24.0814 38.2007C24.1183 38.1512 24.1552 38.1017 24.1933 38.0507C24.2498 37.9746 24.2498 37.9746 24.3074 37.8969C24.3829 37.7952 24.4585 37.6936 24.5342 37.592C24.626 37.4688 24.7175 37.3454 24.8088 37.2219C25.3008 36.5594 25.3008 36.5594 25.5358 36.5244C25.7195 36.5507 25.7195 36.5507 25.862 36.6482C25.9936 36.8404 25.9926 36.919 25.9595 37.1507C25.8551 37.3395 25.7246 37.5058 25.592 37.6757C25.5547 37.725 25.5174 37.7743 25.4789 37.8251C25.2816 38.0846 25.0804 38.3409 24.8788 38.597C24.8406 38.6457 24.8024 38.6944 24.763 38.7446C24.6894 38.8379 24.6154 38.9308 24.5409 39.0234C24.4908 39.0866 24.4908 39.0866 24.4396 39.1511C24.4101 39.1878 24.3805 39.2245 24.3501 39.2624C24.2709 39.3839 24.2324 39.4657 24.2195 39.6107C24.2748 39.73 24.2748 39.73 24.3679 39.8434C24.4017 39.8882 24.4355 39.9331 24.4704 39.9793C24.5076 40.0272 24.5449 40.0751 24.5833 40.1244C24.6209 40.1742 24.6585 40.2241 24.6972 40.2754C24.8573 40.4874 25.0191 40.6981 25.1811 40.9087C25.2974 41.0606 25.4129 41.2131 25.5283 41.3657C25.5645 41.412 25.6008 41.4584 25.6381 41.5062C25.8431 41.7776 25.9543 41.9667 25.9595 42.3107C25.8958 42.4532 25.8958 42.4532 25.7795 42.5507C25.5976 42.6049 25.4792 42.6332 25.2993 42.5652C25.1621 42.4798 25.0934 42.3968 24.9998 42.2654C24.9666 42.2196 24.9334 42.1737 24.8992 42.1264C24.8643 42.0771 24.8293 42.0277 24.7933 41.9769C24.7189 41.8739 24.6445 41.7709 24.5699 41.668C24.532 41.6155 24.4941 41.563 24.455 41.5089C24.2729 41.2594 24.0853 41.0143 23.897 40.7694C23.8631 40.7252 23.8292 40.6811 23.7943 40.6356C23.7161 40.5339 23.6378 40.4323 23.5595 40.3307C23.1083 40.9035 22.663 41.4781 22.2447 42.0756C21.9124 42.5404 21.9124 42.5404 21.6995 42.6069C21.5138 42.6108 21.43 42.5965 21.2795 42.4907C21.1898 42.3112 21.1933 42.2119 21.2195 42.0107C21.3238 41.823 21.4548 41.6581 21.587 41.4894C21.6637 41.3885 21.7403 41.2875 21.817 41.1866C21.8568 41.1348 21.8966 41.083 21.9376 41.0297C22.1369 40.7697 22.3328 40.5073 22.5283 40.2444C22.5645 40.1965 22.6008 40.1486 22.6381 40.0993C22.6716 40.0544 22.705 40.0096 22.7395 39.9634C22.769 39.9242 22.7985 39.8849 22.8289 39.8445C22.9052 39.7215 22.9455 39.6349 22.9595 39.4907C22.9102 39.3829 22.9102 39.3829 22.8243 39.2842C22.7932 39.2447 22.7621 39.2053 22.73 39.1647C22.6956 39.1225 22.6612 39.0804 22.6258 39.0369C22.554 38.9461 22.4822 38.8553 22.4106 38.7643C22.3729 38.7167 22.3352 38.6691 22.2963 38.6201C22.0983 38.3667 21.9084 38.1075 21.7183 37.8482C21.6823 37.7993 21.6463 37.7505 21.6093 37.7001C21.1797 37.1157 21.1797 37.1157 21.2195 36.7907C21.387 36.5459 21.5302 36.5034 21.8195 36.5507Z" fill="#2C485C"></path><path d="M15.3172 36.6105C15.5451 36.6781 15.5858 36.7092 15.6997 36.9105C15.7216 37.0789 15.7216 37.0789 15.7208 37.2753C15.7211 37.349 15.7213 37.4227 15.7215 37.4987C15.7212 37.5379 15.7209 37.5772 15.7206 37.6176C15.7198 37.7413 15.7202 37.865 15.7209 37.9887C15.7228 38.3403 15.7225 38.6919 15.7213 39.0435C15.7206 39.2589 15.7214 39.4743 15.7231 39.6897C15.7235 39.8106 15.7224 39.9315 15.7211 40.0524C15.7255 40.5992 15.8085 41.0394 16.2059 41.4368C16.2566 41.4677 16.3074 41.4987 16.3597 41.5305C16.4339 41.5825 16.4339 41.5825 16.5097 41.6355C16.9415 41.7898 17.4045 41.7785 17.8259 41.5943C18.2114 41.3718 18.4059 41.065 18.5228 40.6418C18.6034 40.2665 18.5975 39.8921 18.5982 39.5098C18.5993 39.3915 18.6004 39.2733 18.6016 39.1551C18.6043 38.8657 18.6057 38.5763 18.607 38.2869C18.6078 38.1236 18.609 37.9603 18.6108 37.797C18.6123 37.6436 18.6132 37.4902 18.6132 37.3368C18.614 37.2677 18.6148 37.1986 18.6156 37.1274C18.6161 37.0361 18.6161 37.0361 18.6165 36.9429C18.6397 36.7905 18.6397 36.7905 18.7201 36.6809C18.876 36.5707 18.9943 36.5878 19.1797 36.6105C19.3092 36.6779 19.3092 36.6779 19.4197 36.7905C19.4501 36.9626 19.4501 36.9626 19.4507 37.175C19.4511 37.2138 19.4516 37.2526 19.452 37.2925C19.453 37.4208 19.4523 37.5491 19.4515 37.6774C19.4517 37.7671 19.4519 37.8567 19.4522 37.9463C19.4526 38.1346 19.4521 38.3228 19.4509 38.511C19.4496 38.7506 19.4504 38.9902 19.4518 39.2298C19.4527 39.4152 19.4524 39.6006 19.4518 39.786C19.4516 39.8742 19.4518 39.9625 19.4524 40.0507C19.4565 40.8756 19.3043 41.5084 18.7222 42.1116C18.2523 42.5477 17.7712 42.65 17.1434 42.6405C17.0516 42.6419 17.0516 42.6419 16.9579 42.6434C16.3229 42.6401 15.8569 42.4572 15.398 42.0185C14.8288 41.403 14.771 40.7034 14.7715 39.8941C14.7711 39.8068 14.7706 39.7194 14.7701 39.6321C14.7693 39.4502 14.7692 39.2684 14.7696 39.0866C14.77 38.8537 14.7681 38.621 14.7657 38.3881C14.7641 38.2083 14.764 38.0284 14.7642 37.8486C14.7641 37.7627 14.7635 37.6768 14.7624 37.591C14.7611 37.4712 14.7619 37.3515 14.7627 37.2318C14.7626 37.1298 14.7626 37.1298 14.7624 37.0257C14.7997 36.8505 14.7997 36.8505 14.9384 36.7067C15.0997 36.6105 15.0997 36.6105 15.3172 36.6105Z" fill="#2C485C"></path><path d="M27.9954 36.5795C28.0366 36.5791 28.0778 36.5786 28.1202 36.5782C28.2561 36.5772 28.3919 36.5779 28.5277 36.5787C28.6223 36.5785 28.7169 36.5783 28.8115 36.578C29.0096 36.5776 29.2077 36.5781 29.4058 36.5792C29.6597 36.5806 29.9134 36.5798 30.1673 36.5784C30.3626 36.5775 30.5578 36.5778 30.7531 36.5784C30.8467 36.5786 30.9403 36.5784 31.0339 36.5778C31.1647 36.5772 31.2955 36.5781 31.4264 36.5795C31.5008 36.5797 31.5752 36.5799 31.6519 36.5801C31.8757 36.6162 31.9471 36.6704 32.0809 36.8505C32.1109 37.0305 32.1109 37.0305 32.0809 37.2105C31.9486 37.3867 31.8797 37.4447 31.6594 37.4778C31.5903 37.4765 31.5211 37.4753 31.4499 37.474C31.3749 37.4732 31.2999 37.4724 31.2226 37.4716C31.1054 37.4686 31.1054 37.4686 30.9859 37.4655C30.9068 37.4645 30.8278 37.4634 30.7463 37.4623C30.5511 37.4594 30.356 37.4555 30.1609 37.4505C30.1619 37.5422 30.1619 37.5422 30.1629 37.6357C30.169 38.2113 30.1735 38.7869 30.1764 39.3626C30.178 39.6585 30.1801 39.9544 30.1835 40.2504C30.1867 40.5359 30.1885 40.8215 30.1893 41.107C30.1899 41.216 30.191 41.325 30.1926 41.434C30.1948 41.5866 30.1951 41.7391 30.1949 41.8917C30.196 41.9368 30.1971 41.9819 30.1982 42.0284C30.1959 42.255 30.1783 42.3517 30.0223 42.5207C29.8022 42.6432 29.68 42.617 29.4409 42.5505C29.3395 42.4865 29.3395 42.4865 29.2609 42.3705C29.244 42.2085 29.2381 42.0604 29.2404 41.8985C29.2404 41.8264 29.2404 41.8264 29.2403 41.753C29.2405 41.5942 29.2419 41.4355 29.2433 41.2767C29.2436 41.1667 29.2439 41.0566 29.2441 40.9466C29.2447 40.6569 29.2465 40.3672 29.2485 40.0775C29.2503 39.7819 29.2512 39.4863 29.2521 39.1907C29.254 38.6106 29.2571 38.0306 29.2609 37.4505C29.1864 37.4524 29.1864 37.4524 29.1104 37.4543C28.8856 37.4593 28.6607 37.4625 28.4359 37.4655C28.3577 37.4675 28.2796 37.4696 28.1991 37.4716C28.1241 37.4724 28.0491 37.4732 27.9718 37.474C27.9027 37.4752 27.8335 37.4765 27.7623 37.4778C27.542 37.4447 27.4731 37.3867 27.3409 37.2105C27.3109 37.0305 27.3109 37.0305 27.3409 36.8505C27.5319 36.5931 27.6836 36.5803 27.9954 36.5795Z" fill="#2C485C"></path><path d="M36.2167 36.5767C36.4648 36.6222 36.5426 36.7165 36.7005 36.9104C36.7374 37.0977 36.7374 37.0977 36.7364 37.3104C36.7367 37.3494 36.7369 37.3884 36.7371 37.4285C36.7375 37.5568 36.7358 37.685 36.734 37.8132C36.7337 37.903 36.7336 37.9927 36.7336 38.0825C36.7332 38.2705 36.7318 38.4585 36.7297 38.6465C36.727 38.8863 36.7261 39.126 36.7259 39.3657C36.7256 39.5511 36.7247 39.7365 36.7235 39.922C36.723 40.0103 36.7226 40.0986 36.7223 40.1869C36.7189 40.9642 36.676 41.5909 36.1183 42.178C35.6879 42.5706 35.2916 42.6409 34.7242 42.6367C34.6672 42.6379 34.6101 42.6391 34.5514 42.6403C34.037 42.6399 33.6568 42.4858 33.2805 42.1304C33.1194 41.9201 32.9874 41.7406 32.9805 41.4704C33.0405 41.3054 33.0405 41.3054 33.1605 41.1704C33.3517 41.0954 33.3517 41.0954 33.5805 41.1104C33.7171 41.2022 33.8296 41.3034 33.9468 41.4188C34.1901 41.6576 34.3596 41.7478 34.698 41.7739C34.9732 41.7671 35.203 41.6917 35.4128 41.5107C35.6942 41.1981 35.7553 40.873 35.7558 40.4643C35.7561 40.406 35.7561 40.406 35.7564 40.3465C35.7569 40.2627 35.757 40.179 35.7569 40.0952C35.7569 39.9625 35.7577 39.8299 35.7587 39.6972C35.7614 39.3202 35.7629 38.9433 35.7633 38.5663C35.7636 38.3351 35.7651 38.104 35.7672 37.8729C35.7678 37.785 35.768 37.6972 35.7676 37.6093C35.7672 37.4865 35.7683 37.3638 35.7696 37.241C35.7698 37.1712 35.77 37.1014 35.7701 37.0295C35.8173 36.7509 35.9413 36.6294 36.2167 36.5767Z" fill="#20B284"></path><path d="M36.0395 33.8506C36.0791 33.8704 36.1187 33.8902 36.1595 33.9106C36.1001 33.9502 36.0407 33.9898 35.9795 34.0306C38.6525 34.0603 38.6525 34.0603 41.3795 34.0906C41.3795 34.1104 41.3795 34.1302 41.3795 34.1506C39.4193 34.1506 37.4591 34.1506 35.4395 34.1506C35.5187 34.111 35.5979 34.0714 35.6795 34.0306C35.7723 33.9805 35.7723 33.9805 35.867 33.9293C35.9523 33.8904 35.9523 33.8904 36.0395 33.8506Z" fill="#2B796E"></path><path d="M37.1804 32.1104C37.2002 32.1104 37.22 32.1104 37.2404 32.1104C37.229 32.7212 37.115 33.1435 36.6816 33.5841C36.6284 33.6324 36.5752 33.6806 36.5204 33.7304C36.4808 33.7106 36.4412 33.6908 36.4004 33.6704C36.4373 33.6246 36.4742 33.5789 36.5122 33.5318C36.7905 33.1762 37.0224 32.8589 37.1204 32.4104C37.134 32.3497 37.1476 32.2891 37.1616 32.2266C37.1709 32.1691 37.1709 32.1691 37.1804 32.1104Z" fill="#267472"></path><path d="M18.7598 33.6704C18.9578 33.7298 19.1558 33.7892 19.3598 33.8504C19.3598 33.89 19.3598 33.9296 19.3598 33.9704C19.4056 33.9667 19.4513 33.963 19.4985 33.9592C19.689 33.9725 19.7172 34.0135 19.8398 34.1504C19.4243 34.0934 19.0912 33.9961 18.7598 33.7304C18.7598 33.7106 18.7598 33.6908 18.7598 33.6704Z" fill="#1E5D5E"></path><path d="M18.8809 33.7905C19.1779 33.9093 19.1779 33.9093 19.4809 34.0305C19.4809 34.0503 19.4809 34.0701 19.4809 34.0905C19.0919 34.1125 19.0919 34.1125 18.9446 34.008C18.8809 33.9105 18.8809 33.9105 18.8809 33.7905Z" fill="#29A78A"></path></g></g><defs><clipPath id="clip0_57570_3270"><rect width="36" height="35.22" fill="white" transform="translate(7 7.39014)"></rect></clipPath></defs></svg>