<svg xmlns="http://www.w3.org/2000/svg" width="50" height="50" viewBox="0 0 50 50" fill="none"><g style="mix-blend-mode:luminosity"><g clip-path="url(#clip0_57570_3359)"><path d="M11.5239 21.204C11.9317 21.204 12.2616 21.2597 12.5122 21.3714C12.7628 21.4827 12.888 21.6217 12.888 21.789C12.888 21.9934 12.8365 22.2251 12.7347 22.4848C12.6325 22.7447 12.535 22.9579 12.4423 23.125C12.4051 23.1622 12.3589 23.1667 12.3032 23.139C12.2476 23.111 12.2196 23.0603 12.2196 22.9859C12.2754 22.8564 12.3032 22.6706 12.3032 22.429C12.3032 22.1694 12.2336 21.9557 12.0944 21.7889C11.9553 21.6218 11.7648 21.5384 11.5239 21.5384C11.2081 21.5384 10.9532 21.6357 10.7583 21.8306C10.5636 22.0254 10.4661 22.2995 10.4661 22.6515C10.4661 22.9488 10.5447 23.2318 10.7027 23.5006C10.8656 23.7783 11.0421 24.0477 11.2315 24.308C11.4307 24.5839 11.612 24.8721 11.7744 25.1711C11.9414 25.4773 12.025 25.8252 12.025 26.2149C12.025 26.8827 11.7558 27.4023 11.2178 27.7733C10.6795 28.145 9.97422 28.3302 9.10234 28.3302C8.47136 28.3302 7.97495 28.2282 7.61312 28.0241C7.25102 27.8201 7.07031 27.5977 7.07031 27.3561C7.07031 27.2823 7.09802 27.1799 7.1537 27.0498C7.20939 26.9203 7.28336 26.7812 7.37659 26.6321C7.47238 26.4794 7.57457 26.3308 7.68287 26.1866C7.79411 26.0384 7.91448 25.9181 8.04456 25.8252C8.10025 25.788 8.1513 25.797 8.19784 25.8528C8.24397 25.9085 8.24875 25.9642 8.21191 26.0199C8.10039 26.131 8.01714 26.2473 7.96117 26.3679C7.90548 26.4884 7.87764 26.6511 7.87764 26.8549C7.87764 27.1887 7.98902 27.463 8.21191 27.6757C8.43452 27.8895 8.72195 27.9961 9.07464 27.9961C9.55698 27.9961 9.93273 27.8615 10.202 27.5925C10.4709 27.3237 10.6056 26.994 10.6056 26.6042C10.6056 26.2518 10.5266 25.9223 10.369 25.6161C10.2117 25.3111 10.0399 25.0138 9.85413 24.7253C9.66988 24.4405 9.49802 24.1478 9.33902 23.8482C9.18261 23.5573 9.10131 23.232 9.10248 22.9018C9.10248 22.4197 9.30639 22.0159 9.71491 21.6913C10.1226 21.3673 10.7257 21.204 11.5239 21.204ZM19.1227 21.3437C19.2155 21.3808 19.2527 21.4321 19.2344 21.4969C19.2154 21.5621 19.1321 21.6128 18.9836 21.6499C18.7052 21.6499 18.3853 21.6595 18.0235 21.6776C17.6613 21.6962 17.276 21.7243 16.8682 21.761C16.4965 22.6707 16.1905 23.5564 15.9495 24.4196C15.7081 25.2823 15.5878 25.983 15.5878 26.5212C15.5878 27.1519 15.8286 27.4672 16.3113 27.4672C16.7937 27.4672 17.3319 27.0499 17.9261 26.2151C17.9815 26.1778 18.0326 26.1778 18.0789 26.2151C18.1251 26.2522 18.139 26.3169 18.1209 26.4098C17.8063 26.9282 17.4009 27.3856 16.9239 27.76C16.4411 28.1405 15.9679 28.3303 15.5043 28.3303C15.0214 28.3303 14.6643 28.215 14.4326 27.9824C14.2004 27.7504 14.0845 27.4305 14.0845 27.022C14.0845 26.4842 14.2142 25.7416 14.4741 24.7952C14.734 23.8488 15.0679 22.8844 15.4765 21.9003C14.9935 21.9559 14.5483 22.0309 14.1404 22.1231C14.0473 22.1051 14.0239 22.0585 14.0706 21.9839C14.1167 21.9101 14.2003 21.8308 14.3212 21.7474C14.4415 21.6636 14.5856 21.5898 14.7525 21.5245C14.9194 21.4598 15.0772 21.4272 15.2257 21.4272H15.4485C15.5226 21.4272 15.597 21.4181 15.6712 21.3995C15.9067 20.8727 16.1573 20.3529 16.4227 19.8405C16.6825 19.3393 16.942 18.8851 17.2022 18.4765C17.3133 18.3468 17.4666 18.2308 17.6613 18.1284C17.8561 18.0269 18.0464 17.9477 18.2319 17.8919C18.4172 17.8362 18.5703 17.804 18.6914 17.7944C18.8118 17.7854 18.8626 17.8181 18.8447 17.8919C18.5287 18.3748 18.2184 18.9127 17.9119 19.5064C17.5977 20.1175 17.3053 20.7395 17.0351 21.3714C17.3875 21.3531 17.745 21.3437 18.1067 21.3437H19.1227Z" fill="#606060"></path><path d="M36.0107 7.4165C36.289 7.4165 36.5159 7.48625 36.6927 7.62533C36.8686 7.76441 36.9893 7.95018 37.0544 8.18221C37.1193 8.4141 37.1283 8.67861 37.0822 8.97547C37.0358 9.27261 36.9292 9.56947 36.7622 9.86619C36.7249 9.90332 36.6786 9.90332 36.6229 9.86619C36.5674 9.82893 36.5301 9.7828 36.5117 9.72697C36.5487 9.50422 36.4701 9.31888 36.275 9.17024C36.0803 9.02202 35.7783 8.94749 35.3704 8.94749C34.6093 8.94749 33.8439 9.23057 33.074 9.79658C32.3038 10.3629 31.5568 11.11 30.8333 12.0373C30.1095 12.9654 29.4319 14.0328 28.8012 15.2386C28.1706 16.4437 27.6219 17.6898 27.1587 18.9686C26.695 20.249 26.3281 21.5202 26.0593 22.782C25.7903 24.0443 25.656 25.1945 25.656 26.234C25.656 26.7903 25.8135 27.0688 26.1292 27.0688C26.3518 27.0688 26.5698 26.976 26.7831 26.7903C26.9963 26.6049 27.2427 26.3268 27.521 25.9552C27.5765 25.9187 27.6276 25.9232 27.6738 25.9693C27.7201 26.0161 27.734 26.0762 27.7159 26.15C27.3442 26.7069 26.9086 27.1708 26.4074 27.5418C25.9065 27.9133 25.4514 28.0986 25.0435 28.0986C24.6908 28.0986 24.4451 27.9965 24.306 27.7922C24.1669 27.5883 24.0972 27.3289 24.0972 27.0132C24.0972 26.1409 24.2824 25.0503 24.6541 23.7425C25.025 22.4341 25.521 21.0518 26.1433 19.5948C26.7648 18.1382 27.4839 16.6861 28.3005 15.2386C29.1169 13.7912 29.966 12.4877 30.8476 11.3278C31.7288 10.1681 32.6153 9.22621 33.5058 8.50227C34.396 7.77819 35.231 7.4165 36.0108 7.4165H36.0107ZM11.296 41.621C11.0175 41.621 10.7904 41.5514 10.6138 41.4123C10.4377 41.2732 10.3171 41.0875 10.252 40.8554C10.1873 40.6233 10.178 40.359 10.2241 40.0622C10.2708 39.765 10.3773 39.4683 10.5442 39.1715C10.5816 39.1341 10.6277 39.1341 10.6834 39.1715C10.7389 39.2083 10.7762 39.2548 10.7946 39.3107C10.7578 39.5334 10.8364 39.7188 11.0313 39.8674C11.2261 40.0155 11.5278 40.0899 11.9359 40.0899C12.697 40.0899 13.4626 39.8068 14.2323 39.2408C15.0025 38.6751 15.7497 37.9281 16.4733 37.0005C17.197 36.0724 17.8745 35.0053 18.5054 33.7992C19.1359 32.5941 19.6845 31.3479 20.1475 30.0691C20.6115 28.7887 20.9783 27.5176 21.2471 26.2556C21.5162 24.9935 21.6505 23.8432 21.6505 22.804C21.6505 22.2471 21.493 21.9689 21.1773 21.9689C20.9545 21.9689 20.7365 22.0613 20.5233 22.2471C20.3102 22.4323 20.0638 22.7112 19.7855 23.0824C19.7299 23.119 19.679 23.1145 19.6326 23.0683C19.5865 23.0217 19.5726 22.9613 19.5907 22.8871C19.9623 22.3308 20.3979 21.8664 20.8991 21.4953C21.4 21.1243 21.8549 20.939 22.263 20.939C22.6157 20.939 22.8614 21.0405 23.0005 21.2449C23.1397 21.4492 23.2094 21.7089 23.2094 22.0246C23.2094 22.8968 23.0241 23.9868 22.6525 25.2953C22.2816 26.6037 21.7855 27.9859 21.1633 29.4429C20.5418 30.8995 19.8226 32.3516 19.0061 33.799C18.1895 35.2465 17.3406 36.5499 16.459 37.7098C15.5778 38.8695 14.6913 39.8116 13.8006 40.5351C12.9103 41.259 12.0753 41.621 11.296 41.621Z" fill="#B3D107"></path><path d="M30.0988 28.3304C29.3194 28.3304 28.9297 27.9036 28.9297 27.05C28.9297 26.7533 28.9618 26.4099 29.027 26.0204C29.0918 25.6303 29.1943 25.2272 29.3333 24.8094C29.4725 24.3916 29.6345 23.9699 29.8203 23.5425C30.006 23.1153 30.2296 22.7055 30.4884 22.3181C30.2885 22.4451 30.0936 22.5797 29.9041 22.7217C29.727 22.8534 29.5595 22.9975 29.4029 23.153C29.3472 23.1907 29.296 23.1766 29.2498 23.1114C29.2033 23.0466 29.1987 22.9862 29.2358 22.9305C29.5513 22.5963 30.0014 22.2534 30.586 21.9003C31.1703 21.5483 31.7315 21.2696 32.2701 21.0654C32.3628 21.0654 32.4322 21.0889 32.4788 21.1352C32.5249 21.1819 32.5298 21.2421 32.4928 21.3159C31.9016 22.0908 31.4192 22.9431 31.0592 23.849C30.6973 24.7585 30.5164 25.6402 30.5164 26.4934C30.5164 27.032 30.6837 27.3006 31.0175 27.3006C31.2584 27.3006 31.5554 27.1383 31.9081 26.8136C32.2607 26.4888 32.6321 26.0621 33.0219 25.5329C33.4114 25.0042 33.8054 24.4057 34.2048 23.7379C34.6002 23.0764 34.9671 22.3983 35.3045 21.7054C35.3599 21.5945 35.5225 21.4829 35.7913 21.3716C36.0604 21.2599 36.3342 21.2042 36.6126 21.2042C36.891 21.2042 36.9744 21.279 36.8632 21.4273C36.6232 21.8708 36.3958 22.3209 36.1812 22.7773C35.9923 23.1792 35.8297 23.593 35.6942 24.0159C35.5649 24.4206 35.4672 24.8346 35.4018 25.2544C35.3364 25.6722 35.3044 26.1312 35.3044 26.6321C35.3044 27.2265 35.4619 27.5228 35.7777 27.5228C36.093 27.5228 36.4457 27.2446 36.8353 26.6878C36.8912 26.6512 36.9469 26.6512 37.0023 26.6878C37.0581 26.7254 37.0764 26.7813 37.0581 26.855C36.7424 27.3374 36.3943 27.7039 36.0142 27.9546C35.6337 28.205 35.2858 28.3301 34.9705 28.3301C34.1909 28.3301 33.8014 27.8756 33.8014 26.9663C33.8014 26.0199 33.9681 25.0829 34.3023 24.1547C33.5969 25.4351 32.8548 26.4512 32.0756 27.2029C31.2958 27.9549 30.6367 28.3304 30.0988 28.3304ZM41.5945 21.2042C42.0023 21.2042 42.3324 21.2599 42.5828 21.3716C42.8334 21.4829 42.9586 21.6219 42.9586 21.7892C42.9586 21.9936 42.9073 22.2253 42.8056 22.485C42.7031 22.7449 42.6059 22.9581 42.5131 23.1252C42.4757 23.1624 42.4297 23.1669 42.3739 23.1392C42.3183 23.1112 42.2905 23.0605 42.2905 22.9861C42.3462 22.8566 42.374 22.6708 42.374 22.4292C42.374 22.1696 42.3045 21.9559 42.1653 21.7891C42.0261 21.622 41.8357 21.5386 41.5947 21.5386C41.2791 21.5386 41.0241 21.6359 40.8292 21.8309C40.6342 22.0258 40.537 22.2997 40.537 22.6517C40.537 22.949 40.6156 23.232 40.7735 23.5008C40.9365 23.7785 41.113 24.0479 41.3024 24.3082C41.5016 24.5841 41.6829 24.8723 41.8453 25.1713C42.0123 25.4775 42.0958 25.8254 42.0958 26.2151C42.0958 26.8829 41.8267 27.4026 41.2887 27.7735C40.7501 28.1452 40.045 28.3304 39.1731 28.3304C38.5418 28.3304 38.0457 28.2284 37.6839 28.0243C37.3218 27.8204 37.1411 27.5979 37.1411 27.3563C37.1411 27.2825 37.1688 27.1801 37.2245 27.05C37.2801 26.9205 37.354 26.7814 37.4472 26.6324C37.5429 26.4796 37.6451 26.331 37.7533 26.1869C37.8646 26.0386 37.9852 25.9183 38.1153 25.8254C38.171 25.7882 38.2219 25.7972 38.2683 25.853C38.3144 25.9087 38.3194 25.9644 38.2824 26.0201C38.171 26.1312 38.0876 26.2475 38.0318 26.3681C37.9761 26.4886 37.9483 26.6513 37.9483 26.8551C37.9483 27.1889 38.0596 27.4632 38.2824 27.6759C38.5051 27.8897 38.7924 27.9963 39.1452 27.9963C39.6275 27.9963 40.0033 27.8617 40.2728 27.5927C40.5414 27.3239 40.6762 26.9942 40.6762 26.6044C40.6762 26.252 40.5971 25.9225 40.4397 25.6163C40.2824 25.3113 40.1105 25.014 39.9247 24.7255C39.7406 24.4406 39.5687 24.148 39.4096 23.8484C39.2532 23.5575 39.1719 23.2322 39.1731 22.902C39.1731 22.4199 39.377 22.0161 39.7854 21.6915C40.1932 21.3675 40.7962 21.2042 41.5945 21.2042Z" fill="#606060"></path></g></g><defs><clipPath id="clip0_57570_3359"><rect width="36" height="34.3152" fill="white" transform="translate(7 7.34277)"></rect></clipPath></defs></svg>