<svg xmlns="http://www.w3.org/2000/svg" width="50" height="50" viewBox="0 0 50 50" fill="none"><g style="mix-blend-mode:luminosity"><path fill-rule="evenodd" clip-rule="evenodd" d="M23.3454 8.59022C28.1036 5.57058 34.7224 6.97364 38.0471 11.7624C39.6636 13.989 40.3042 16.7951 39.7856 19.5402C39.5721 20.8213 39.0841 22.0414 38.3521 23.1394C39.4196 25.122 39.7551 27.4096 39.3586 29.6362C38.9011 32.2898 37.315 34.6385 35.0274 36.072L26.6395 41.4098C21.8813 44.4294 15.293 43.0264 11.9378 38.2376C10.3517 36.011 9.71122 33.2049 10.1992 30.4903C10.4128 29.2092 10.9008 27.9891 11.6328 26.8911C10.5653 24.9085 10.2297 22.6209 10.6263 20.3943C11.0838 17.7407 12.6699 15.392 14.9575 13.9585L23.3454 8.59022ZM15.3807 36.0397C16.9668 38.3273 19.8034 39.3948 22.518 38.6933C23.1281 38.5103 23.7076 38.2663 24.2261 37.9307L32.614 32.593C33.9866 31.739 34.9626 30.3054 35.2371 28.7193C35.5117 27.0722 35.1456 25.3946 34.1696 24.0526C32.5835 21.765 29.7469 20.6974 27.0323 21.399C26.4222 21.582 25.8427 21.826 25.3242 22.1615L22.1215 24.2051C21.969 24.2966 21.786 24.3576 21.603 24.4186L21.603 24.4186C20.7795 24.6321 19.9254 24.3271 19.4374 23.6256C19.1629 23.229 19.0409 22.7105 19.1324 22.2225C19.2239 21.7345 19.4984 21.338 19.9254 21.0634L28.2828 15.7257C28.4353 15.6342 28.6183 15.5732 28.8013 15.5122C29.6249 15.2987 30.4789 15.6037 30.9669 16.3052C31.211 16.6712 31.333 17.1288 31.3025 17.5558L31.272 17.8608L31.577 17.9523C32.7665 18.3183 33.8646 18.8673 34.8711 19.5994L35.2981 19.9044L35.4507 19.4164C35.5422 19.1419 35.6032 18.8978 35.6642 18.6233C35.9387 16.9762 35.5727 15.2987 34.5966 13.9566C33.0105 11.669 30.1739 10.6014 27.4593 11.303C26.8492 11.486 26.2697 11.73 25.7512 12.0655L17.3633 17.4033C15.9907 18.2573 15.0147 19.6909 14.7402 21.277C14.4352 22.924 14.8317 24.6016 15.7772 25.9437C17.3633 28.2313 20.1999 29.2988 22.9146 28.5973C23.5246 28.4448 24.1041 28.2008 24.6226 27.8653L27.8253 25.8217C27.9778 25.7302 28.1608 25.6692 28.3438 25.6082C29.1674 25.3946 30.0214 25.6997 30.5094 26.4012C30.7839 26.7977 30.9059 27.3162 30.8144 27.8043C30.7229 28.2923 30.4484 28.6888 30.0214 28.9633L21.664 34.3011C21.5115 34.3926 21.3285 34.4536 21.1455 34.5146L21.1455 34.5146C20.3219 34.7281 19.4679 34.3926 18.9799 33.691C18.7359 33.325 18.6139 32.8675 18.6444 32.4405L18.6749 32.1355L18.3698 32.044C17.1803 31.6779 16.0822 31.1289 15.0757 30.3969L14.6487 30.0919L14.4962 30.5799C14.4657 30.7172 14.4352 30.8468 14.4047 30.9764C14.3742 31.106 14.3436 31.2357 14.3131 31.3729C14.0386 33.02 14.4047 34.6976 15.3807 36.0397Z" fill="#FF3E00"></path></g></svg>