<svg width="181" height="181" viewBox="0 0 181 181" fill="none" xmlns="http://www.w3.org/2000/svg">
<g clip-path="url(#clip0_3194_42669)">
<path fill-rule="evenodd" clip-rule="evenodd" d="M87.1938 85.4488V157.292C87.1938 157.496 87.0635 157.668 86.8676 157.724C78.6762 160.067 75.8319 170.506 81.9863 176.673C86.4124 181.109 93.5879 181.109 98.014 176.673C104.168 170.507 101.325 160.067 93.1326 157.724C92.9373 157.669 92.8065 157.496 92.8065 157.292V85.4488C92.8065 85.2013 92.605 84.9988 92.3574 84.9988H87.6423C87.3953 84.9993 87.1938 85.2013 87.1938 85.4488ZM165.319 56.4632C165.319 69.1172 155.083 79.3743 142.456 79.3743H28.6151C20.9564 79.3743 14.6807 73.085 14.6807 65.4108C14.6807 57.726 20.9923 51.428 28.6101 51.436C30.8476 51.4381 32.2514 48.8237 30.8509 46.9538C26.6965 41.4074 27.2472 33.6124 32.1543 28.6948C35.8333 25.0083 41.382 23.6254 46.4216 25.3065C49.2906 26.2637 50.1606 27.465 51.1346 27.7997C52.6002 28.3035 54.1955 27.5212 54.6979 26.0527C59.9946 10.5739 74.533 0 91.1158 0C110.45 0 126.662 14.3128 129.257 33.3247C129.506 35.1509 131.457 36.2763 133.171 35.5108C148.046 28.8681 165.319 39.717 165.319 56.4632ZM143.085 130.644C137.963 130.644 133.562 134.069 132.189 138.863C132.133 139.059 131.961 139.189 131.758 139.189H118.838C118.591 139.189 118.389 138.987 118.389 138.739V85.4488C118.389 85.2013 118.187 84.9988 117.939 84.9988H113.224C112.977 84.9988 112.775 85.2013 112.775 85.4488V142.001C112.775 143.554 114.031 144.814 115.582 144.814H131.758C131.961 144.814 132.133 144.944 132.189 145.141C134.527 153.349 144.944 156.199 151.099 150.032C155.525 145.596 155.525 138.406 151.099 133.97C149.048 131.916 146.214 130.644 143.085 130.644ZM168.666 101.317C171.795 101.317 174.629 102.588 176.68 104.644C181.107 109.079 181.107 116.27 176.68 120.705C170.525 126.873 160.108 124.022 157.771 115.814C157.715 115.618 157.543 115.487 157.34 115.487H141.163C139.613 115.487 138.357 114.228 138.357 112.675V85.4471C138.357 85.2002 138.556 84.9988 138.803 84.9971L143.518 84.9633C143.769 84.9617 143.97 85.1619 143.97 85.4133V109.412C143.97 109.66 144.172 109.862 144.419 109.862H157.34C157.543 109.862 157.715 109.732 157.771 109.537C159.143 104.741 163.545 101.317 168.666 101.317ZM44.9296 133.971C40.503 129.535 33.3281 129.535 28.9014 133.971C24.4753 138.407 24.4753 145.597 28.9014 150.033C35.0564 156.2 45.473 153.349 47.8109 145.141C47.8671 144.946 48.0394 144.814 48.2426 144.814H64.419C65.9688 144.814 67.2256 143.556 67.2256 142.003V85.4488C67.2256 85.2013 67.0235 84.9988 66.7765 84.9988H62.0608C61.8138 84.9988 61.6118 85.2013 61.6118 85.4488V138.739C61.6118 138.987 61.4102 139.189 61.1627 139.189H48.2426C48.0394 139.189 47.8671 139.059 47.8109 138.863C47.2743 136.988 46.269 135.313 44.9296 133.971ZM19.3476 104.644C20.6869 105.985 21.6923 107.661 22.2289 109.536C22.285 109.732 22.4574 109.862 22.6606 109.862H35.5812C35.8288 109.862 36.0303 109.659 36.0303 109.412V85.4488C36.0303 85.2013 36.2318 84.9988 36.4794 84.9988H41.1945C41.4415 84.9988 41.6436 85.2013 41.6436 85.4488V112.674C41.6436 114.227 40.3868 115.486 38.8369 115.486H22.6606C22.4574 115.486 22.285 115.617 22.2289 115.813C19.8915 124.021 9.47495 126.871 3.31998 120.704C-1.10666 116.268 -1.10666 109.078 3.31998 104.642C7.74662 100.208 14.9215 100.208 19.3476 104.644Z" fill="black"/>
</g>
<defs>
<clipPath id="clip0_3194_42669">
<rect width="180" height="180" fill="white" transform="translate(0.207031 0.0390625)"/>
</clipPath>
</defs>
</svg>
