<svg width="180" height="180" viewBox="0 0 180 180" fill="none" xmlns="http://www.w3.org/2000/svg">
<path d="M78.75 163.125C78.75 169.312 83.8125 174.375 90 174.375C96.1875 174.375 101.25 169.312 101.25 163.125H78.75Z" fill="#616466"/>
<path d="M70.0312 135H109.688C111.938 122.906 119.531 111.094 127.406 98.7187C136.688 84.375 146.25 69.4688 146.25 55.125C146.25 27.8438 120.938 5.625 90 5.625C59.0625 5.625 33.75 27.8438 33.75 55.125C33.75 69.4688 43.3125 84.375 52.3125 98.7187C60.1875 111.094 67.7812 122.906 70.0312 135Z" fill="#FFCE31"/>
<path d="M74.2492 94.5C74.5304 96.1875 75.0929 97.875 75.3742 99.5625C76.2179 102.656 76.7804 105.469 77.6242 108.562C80.1554 119.25 82.4054 128.25 84.3742 135.281H86.0617C84.6554 128.25 82.6867 118.969 80.1554 108.281C79.5929 105.469 78.7492 102.375 78.1867 99.2812C77.9054 97.875 77.6242 96.1875 77.0617 94.7813C79.3117 94.2188 84.6554 92.5312 89.9992 86.625C95.3429 92.5312 100.687 94.2188 102.937 94.7813C102.655 96.4688 102.374 97.875 101.812 99.2812C101.249 102.375 100.405 105.469 99.8429 108.281C97.3117 118.969 95.343 128.25 93.9367 135.281H95.6242C97.3117 128.25 99.843 119.25 102.374 108.562C102.937 105.75 103.78 102.656 104.624 99.5625C104.905 97.875 105.468 96.1875 105.749 94.5C107.999 94.2187 109.968 93.6562 111.374 92.25C113.062 90.5625 113.905 88.5938 113.343 86.3438C113.062 85.2188 112.499 83.8125 110.812 83.5313C109.968 83.25 109.405 83.25 108.562 83.5313C107.718 83.8125 107.155 84.375 106.874 84.6562C105.468 86.3438 104.905 88.0312 104.343 89.7187L103.499 92.25C103.499 92.25 101.249 92.5312 95.9054 88.875C93.0929 86.9062 92.2492 85.5 91.4054 84.6562C92.2492 83.5312 93.093 82.6875 93.9367 81.2812C94.218 80.4375 94.4992 79.875 94.7805 78.75C94.7805 77.9062 94.7804 76.7812 94.2179 75.9375C93.6554 75.0937 93.0929 74.25 91.6867 73.6875C91.1242 73.4063 90.5617 73.4062 89.9992 73.4062C89.4367 73.4062 88.8742 73.4063 88.3117 73.6875C87.1867 74.25 86.3429 75.0937 85.7804 75.9375C85.2179 76.7812 85.2179 77.9062 85.2179 78.75C85.2179 79.5937 85.4992 80.4375 86.0617 81.2812C86.6242 82.6875 87.4679 83.8125 88.5929 84.6562C87.7492 85.5 86.9054 86.9062 84.0929 88.875C79.0304 92.25 76.4992 92.25 76.4992 92.25L75.6554 89.7187C75.0929 88.0312 74.5304 86.3438 73.1242 84.6562C72.8429 84.375 72.2804 83.8125 71.4367 83.5313C70.5929 83.25 69.7492 83.25 69.1867 83.5313C67.4992 84.0938 66.9367 85.5 66.6555 86.3438C66.3742 88.5938 67.2179 90.5625 68.6242 92.25C70.3117 93.6562 72.2804 94.2187 74.2492 94.5ZM106.874 90.2812C107.437 88.875 107.999 87.1875 109.124 86.3438C109.405 86.0625 109.687 86.0625 109.687 86.0625H110.249C110.53 86.0625 110.812 86.3437 111.093 87.1875C111.374 88.3125 110.812 90 109.687 90.8437C108.843 91.4062 107.718 91.9687 106.593 92.25C106.593 91.4062 106.593 90.8437 106.874 90.2812ZM88.3117 76.7812C88.8742 76.2187 89.4367 75.6562 89.9992 75.6562C90.5617 75.6562 91.1242 75.9375 91.6867 76.7812C92.2492 77.625 91.9679 78.75 91.4054 79.875C91.1242 80.7187 90.5617 81.5625 89.9992 82.125C89.4367 81.2813 88.8742 80.7187 88.5929 79.875C88.0304 79.0312 87.7492 77.9062 88.3117 76.7812ZM69.1867 86.625C69.1867 86.0625 69.4679 85.7812 70.0304 85.5H70.5929C70.5929 85.5 70.8742 85.7812 71.1554 85.7812C71.9992 86.625 72.8429 88.3125 73.4054 89.7187C73.6867 90.2812 73.6867 90.8437 73.9679 91.4062C72.8429 91.125 71.718 90.8437 70.8742 90C69.7492 89.4375 69.1867 88.0312 69.1867 86.625Z" fill="white"/>
<path d="M70.0312 140.625H110.25V145.687H70.0312V140.625ZM72.8438 150.75H107.438V155.813H72.8438V150.75Z" fill="#94989B"/>
<path d="M72.8438 145.688H107.438V150.75H72.8438V145.688Z" fill="#616466"/>
<path d="M110.25 140.625L72.8438 150.75V156.094L110.25 145.687V140.625ZM75.6562 161.156H104.625V166.219H75.6562V161.156Z" fill="#94989B"/>
<path d="M75.6562 156.094H104.625V161.156H75.6562V156.094Z" fill="#616466"/>
<path d="M107.438 150.75L75.6562 161.156V166.5L107.438 156.094V150.75Z" fill="#94989B"/>
</svg>
