<svg xmlns="http://www.w3.org/2000/svg" width="50" height="50" viewBox="0 0 50 50" fill="none"><g style="mix-blend-mode:luminosity"><g clip-path="url(#clip0_57627_8029)"><g clip-path="url(#clip1_57627_8029)"><path d="M37 17.739C34.5238 18.0485 33.3333 19.4295 32.7143 21.4295C31.5238 25.1676 30.119 29.1438 30.1429 29.12C28.8333 25.1676 28.3571 18.0009 24.5238 18.0009H16.881C13.5952 18.0009 9.04762 24.12 7 32.0485L10.8095 32.0009C13.5 31.739 14.7619 30.2628 15.4048 28.1914C15.9286 26.5247 16.3571 25.0962 16.7381 23.9295C17.6667 22.6438 19.4762 20.62 19.4762 20.62C20.7857 24.5962 21.2619 31.6676 25.0714 31.6676C28.881 31.6676 32.4286 31.6438 32.5238 31.6438C35.3571 31.2866 38.2619 26.0962 42.9762 17.6914L37 17.739Z" fill="url(#paint0_linear_57627_8029)"></path><path d="M19.5 20.5934C20.8095 24.5696 21.2857 31.641 25.0952 31.641C25.381 31.641 25.6905 31.6172 25.9762 31.5458C22.5238 30.7362 22.119 23.7362 20.0238 20.1172C19.8333 20.2839 19.6667 20.4505 19.5 20.5934Z" fill="url(#paint1_linear_57627_8029)"></path><path d="M20 20.1427C22.0952 23.7617 22.5 30.7617 25.9524 31.5712C26.2381 31.5236 26.5 31.4522 26.7619 31.357C23.6667 29.8331 22.8095 23.0474 20.4286 19.7617C20.2857 19.8808 20.1429 19.9998 20 20.1427Z" fill="url(#paint2_linear_57627_8029)"></path><path d="M23.0229 17.9766C22.7372 17.9766 22.4276 18.0004 22.1419 18.048C21.3086 18.2147 20.5229 18.548 19.8086 19.0242C20.0229 19.2385 20.2372 19.4766 20.4276 19.7385C21.1419 19.1194 21.9276 18.6432 22.8086 18.2861C23.0943 18.1908 23.4038 18.0956 23.6895 18.048C23.4753 18.0004 23.261 17.9766 23.0229 17.9766Z" fill="#13569B"></path><path d="M29.1914 29.9524C29.5009 29.6905 29.8343 29.4286 30.1438 29.119C28.8343 25.1667 28.3581 18 24.5247 18C24.239 18 23.9771 18.0238 23.6914 18.0714C27.1914 18.9286 27.6438 26.5 29.1914 29.9524Z" fill="url(#paint3_linear_57627_8029)"></path><path d="M29.1189 30.7844C28.976 30.6416 28.8331 30.4749 28.6903 30.332C28.0951 30.7606 27.4522 31.0939 26.7617 31.3558C26.9998 31.4749 27.2379 31.5463 27.476 31.5939C27.6665 31.6416 27.8808 31.6654 28.0951 31.6654C28.6903 31.6892 29.3093 31.5939 29.857 31.3558C29.5951 31.1654 29.3331 30.9987 29.1189 30.7844Z" fill="#266AB4"></path><path d="M22.8086 18.3084C25.9276 19.9275 26.1895 27.3322 28.6895 30.3322C28.8562 30.2132 29.0229 30.0941 29.1895 29.9513C27.6419 26.4989 27.1895 18.9275 23.7134 18.0703C23.4038 18.1179 23.1181 18.1894 22.8086 18.3084Z" fill="url(#paint4_linear_57627_8029)"></path><path d="M20.4297 19.761C22.8106 23.0229 23.6678 29.8324 26.763 31.3562C27.4535 31.0943 28.0964 30.761 28.6916 30.3324C26.2154 27.3086 25.9297 19.9276 22.8106 18.3086C21.9535 18.6419 21.144 19.1419 20.4297 19.761Z" fill="url(#paint5_linear_57627_8029)"></path><path d="M17.976 20.4996C17.5236 21.6187 17.0951 22.7615 16.7617 23.9044C17.5712 22.7139 18.4998 21.6187 19.4998 20.5949C19.3808 20.2377 19.2379 19.8806 19.0951 19.5234C18.7141 19.833 18.3331 20.1663 17.976 20.4996Z" fill="url(#paint6_linear_57627_8029)"></path><path d="M19.429 19.2852C19.31 19.3566 19.2148 19.4518 19.0957 19.5233C19.2386 19.8804 19.3814 20.2137 19.5005 20.5947C19.6671 20.428 19.8338 20.2852 20.0005 20.1185C19.8338 19.8328 19.6433 19.5471 19.429 19.2852Z" fill="#2C75B2"></path><path d="M19.8091 19.0234C19.69 19.0949 19.5472 19.1901 19.4043 19.2853C19.6186 19.5472 19.8091 19.833 19.9757 20.1187C20.1186 19.9996 20.2614 19.8568 20.4043 19.7377C20.2376 19.4996 20.0472 19.2615 19.8091 19.0234Z" fill="#145B9E"></path><path d="M41.0709 17.6652C39.309 24.4747 35.6185 29.9271 32.5471 31.308C32.4994 31.3318 32.428 31.3557 32.3804 31.3795H32.3566L32.309 31.4033H32.2852L32.2137 31.4271H32.1423L32.0947 31.4509H32.0709C32.0471 31.4509 32.0233 31.4747 31.9994 31.4747H31.928H31.9042L31.8566 31.4985H31.7852C31.928 31.5461 32.0709 31.5699 32.2137 31.5699C35.1423 31.5699 38.0947 26.3318 42.9756 17.5938H41.0471L41.0709 17.6652Z" fill="url(#paint7_linear_57627_8029)"></path><path d="M17.9766 20.4994C18.3337 20.1661 18.7147 19.8328 19.0956 19.5471C19.0242 19.3804 18.9289 19.1899 18.8337 19.0233C18.4766 19.4994 18.1908 19.9756 17.9766 20.4994ZM18.2385 18.309C18.4766 18.5233 18.667 18.7613 18.8337 19.0233C18.8813 18.9518 18.9528 18.9042 19.0004 18.8328C18.7623 18.6185 18.5004 18.428 18.2147 18.2852L18.2385 18.309Z" fill="#1982C5"></path><path d="M9.16602 28.6907C12.166 22.9049 13.5946 19.2383 16.1184 18.2383C13.5232 19.2621 10.5946 23.0954 9.16602 28.6907Z" fill="url(#paint8_linear_57627_8029)"></path><path d="M19.0007 18.832C18.9292 18.9035 18.8816 18.9511 18.834 19.0225C18.9292 19.1892 19.0245 19.3558 19.0959 19.5463C19.2149 19.4511 19.3102 19.3797 19.4292 19.3082C19.2864 19.1416 19.1435 18.9749 19.0007 18.832Z" fill="#277BBF"></path><path d="M10.5467 31.9777H10.3086C13.3562 31.8824 14.7372 30.3586 15.4276 28.1682C15.9515 26.5015 16.38 25.0729 16.761 23.9062C15.3562 25.9301 14.0705 28.0491 12.9038 30.2396C12.4515 31.192 11.5705 31.8348 10.5467 31.9777Z" fill="url(#paint9_linear_57627_8029)"></path><path d="M10.5469 31.9762C11.5707 31.8333 12.4754 31.1667 12.9278 30.2381C14.0707 28.0476 15.3564 25.9524 16.7612 23.9048C17.1183 22.7381 17.5231 21.5952 17.9754 20.5C15.4278 22.9286 12.8802 26.9286 10.5469 31.9762Z" fill="url(#paint10_linear_57627_8029)"></path><path d="M9.16657 28.6914C8.61895 29.739 8.04753 30.8343 7.38086 32.0009H8.52372C8.69038 30.9057 8.90467 29.7866 9.16657 28.6914Z" fill="#269FDA"></path><path d="M34.1907 21.4289C33.6192 23.2861 33.143 24.8099 32.7383 26.0718C34.3335 23.8813 35.8811 21.1432 37.3811 17.9766C35.643 18.5242 34.7145 19.7623 34.1907 21.4289Z" fill="url(#paint11_linear_57627_8029)"></path><path d="M32.785 31.1918C32.7135 31.2394 32.6183 31.2632 32.5469 31.3108C35.6421 29.9299 39.3088 24.4775 41.0707 17.668H40.7135C36.6897 24.9061 35.3802 29.7632 32.785 31.1918Z" fill="url(#paint12_linear_57627_8029)"></path><path d="M30.7851 30.5938C31.4517 29.7842 31.9993 28.3795 32.7613 26.0938C31.9993 27.189 31.1184 28.189 30.166 29.1176C30.3089 29.6176 30.5232 30.1176 30.7851 30.5938Z" fill="#2898D5"></path><path d="M30.786 30.5938C30.5717 30.8557 30.3336 31.0699 30.0479 31.2366C29.9765 31.2604 29.9289 31.308 29.8574 31.3318C30.1431 31.4985 30.4765 31.5938 30.8098 31.6414L30.9765 31.6652H31.6431L31.786 31.6414C31.3336 31.4509 30.9765 31.0938 30.7622 30.6652L30.786 30.5938Z" fill="#266AB4"></path><path d="M25.0957 31.6416C25.3814 31.6416 25.6909 31.6177 25.9767 31.5463C26.2624 31.4987 26.5243 31.4273 26.7862 31.332C27.1909 31.5225 27.6433 31.6416 28.1195 31.6416H25.0957ZM28.0957 31.6416C28.6909 31.6654 29.31 31.5701 29.8576 31.332C30.1433 31.4987 30.4767 31.5939 30.81 31.6416L30.9767 31.6654H31.0481L28.0957 31.6416Z" fill="#295EAC"></path><path d="M31.1195 31.641H31.6195C31.6671 31.641 31.7148 31.6172 31.7624 31.6172C31.9052 31.6648 32.0481 31.6886 32.2148 31.6886H31.0957L31.1195 31.641Z" fill="#2862AE"></path><path d="M30.1438 29.1172C29.8343 29.4267 29.5009 29.7124 29.1914 29.9505C29.0247 30.0934 28.8581 30.2124 28.6914 30.3315C28.8343 30.4981 28.9771 30.6648 29.12 30.8077C29.3343 31.0219 29.5962 31.2124 29.8581 31.3553C29.9295 31.3315 29.9771 31.2839 30.0486 31.26C30.3343 31.0934 30.5724 30.8791 30.7866 30.6172C30.5247 30.1172 30.3105 29.641 30.1438 29.1172Z" fill="#1D60AB"></path><path d="M39.5954 17.668H37.7859C37.6907 17.668 37.5954 17.668 37.5002 17.6918L37.3573 17.9775C35.8573 21.1442 34.3097 23.8823 32.7145 26.0727C31.9764 28.3584 31.4288 29.7632 30.7383 30.5727C30.9526 31.0013 31.3097 31.3584 31.7621 31.5489H31.9526L32.024 31.5251H32.0478L32.0954 31.5013H32.1669L32.2383 31.4775H32.2621L32.3097 31.4537H32.3335L32.5002 31.3823C32.5716 31.3346 32.6669 31.3108 32.7383 31.2632C35.3097 29.8346 36.6192 24.9775 40.6669 17.7394H39.5478L39.5954 17.668Z" fill="url(#paint13_linear_57627_8029)"></path><path d="M19 18.8318C19.1429 18.9747 19.2857 19.1414 19.4286 19.308C19.5476 19.2128 19.6905 19.1176 19.8333 19.0461C19.6667 18.8795 19.4762 18.7128 19.2857 18.5938C19.1905 18.6652 19.0952 18.7366 19 18.8318Z" fill="#61C5EC"></path><path d="M17.191 17.9983H17.4291C18.0957 17.9983 18.7386 18.2126 19.2624 18.5936C19.8338 18.1412 20.5005 17.9983 21.4529 17.9983C21.4767 17.9745 17.0957 17.9745 17.191 17.9983Z" fill="url(#paint14_linear_57627_8029)"></path><path d="M21.4756 17.9769C20.5233 17.9769 19.8566 18.1436 19.2852 18.5722C19.4756 18.715 19.6661 18.8579 19.8328 19.0246C20.5471 18.5484 21.3328 18.215 22.1661 18.0484C22.4518 18.0007 22.7375 17.9769 23.0471 17.9531H21.4756V17.9769Z" fill="url(#paint15_linear_57627_8029)"></path><path d="M32.7374 26.0724C33.1422 24.8105 33.6184 23.2866 34.1898 21.4295C34.7136 19.7628 35.6422 18.5009 37.3803 17.9771L37.5232 17.6914C34.6898 17.8581 33.3803 19.3105 32.7136 21.4295C31.547 25.1438 30.8565 27.5724 30.166 29.0962C31.0946 28.1676 31.9755 27.1676 32.7374 26.0724Z" fill="url(#paint16_linear_57627_8029)"></path><path d="M8.54688 32.0236L10.5469 31.9998C11.5945 29.714 12.8088 27.4759 14.1659 25.3331C15.2612 23.5712 16.5231 21.9521 17.9993 20.4998C18.2135 19.9759 18.4993 19.4759 18.8564 19.0236C18.6897 18.6664 18.3802 18.3569 18.0231 18.1902C17.4516 17.9283 16.785 17.9521 16.2135 18.2379C15.3326 18.5474 14.4993 19.2617 13.7135 20.3807C12.3326 22.4759 10.8088 25.3093 9.18973 28.714C8.90402 29.7855 8.68973 30.9045 8.54688 32.0236Z" fill="url(#paint17_linear_57627_8029)"></path><path d="M7 32.0002H7.40476C8.04762 30.8573 8.64286 29.7383 9.19048 28.6907C9.7619 26.3335 10.7381 24.0716 12.0476 22.024C13.5476 19.7145 15.2619 18.3097 17.2143 17.9764C16.119 17.8335 14.7619 18.3097 12.6905 20.5002C11.381 21.9288 10.1905 23.905 9.07143 26.2383C8.19048 28.0954 7.5 30.024 7 32.0002Z" fill="url(#paint18_linear_57627_8029)"></path><path d="M19.0009 18.8326C18.5009 18.3564 17.8819 18.0707 17.1914 17.9754C17.6676 17.9278 18.12 17.9992 18.5485 18.1659C18.8105 18.2611 19.0485 18.3802 19.2628 18.5707L19.0009 18.8326Z" fill="#7ECBEB"></path></g></g></g><defs><linearGradient id="paint0_linear_57627_8029" x1="9.29048" y1="24.8557" x2="53.0619" y2="24.8557" gradientUnits="userSpaceOnUse"><stop stop-color="#206BB5"></stop><stop offset="0.4" stop-color="#3DADE2"></stop><stop offset="0.85" stop-color="#2397D4"></stop><stop offset="1" stop-color="#2397D4"></stop></linearGradient><linearGradient id="paint1_linear_57627_8029" x1="22.7408" y1="17.7657" x2="22.7408" y2="34.8777" gradientUnits="userSpaceOnUse"><stop stop-color="#2693D1"></stop><stop offset="0.35" stop-color="#67CEF4"></stop><stop offset="0.85" stop-color="#277BBF"></stop><stop offset="1" stop-color="#277BBF"></stop></linearGradient><linearGradient id="paint2_linear_57627_8029" x1="23.362" y1="17.5245" x2="23.362" y2="35.0731" gradientUnits="userSpaceOnUse"><stop stop-color="#1377BC"></stop><stop offset="0.36" stop-color="#3DADE2"></stop><stop offset="0.85" stop-color="#2DABE2"></stop><stop offset="1" stop-color="#2DABE2"></stop></linearGradient><linearGradient id="paint3_linear_57627_8029" x1="26.9109" y1="31.2663" x2="26.9109" y2="17.3028" gradientUnits="userSpaceOnUse"><stop stop-color="#2865B0"></stop><stop offset="0.5" stop-color="#3FBCED"></stop><stop offset="1" stop-color="#3FBCED" stop-opacity="0.42"></stop></linearGradient><linearGradient id="paint4_linear_57627_8029" x1="26.013" y1="15.7891" x2="26.013" y2="34.0097" gradientUnits="userSpaceOnUse"><stop stop-color="#206BB5"></stop><stop offset="0.4" stop-color="#3DADE2"></stop><stop offset="0.85" stop-color="#2397D4"></stop><stop offset="1" stop-color="#2397D4"></stop></linearGradient><linearGradient id="paint5_linear_57627_8029" x1="24.5792" y1="15.6244" x2="24.5792" y2="34.9992" gradientUnits="userSpaceOnUse"><stop stop-color="#174479"></stop><stop offset="0.39" stop-color="#1D87C9"></stop><stop offset="0.78" stop-color="#165297"></stop><stop offset="1" stop-color="#165297"></stop></linearGradient><linearGradient id="paint6_linear_57627_8029" x1="17.0877" y1="21.7278" x2="19.8387" y2="21.7278" gradientUnits="userSpaceOnUse"><stop stop-color="#3FBCED" stop-opacity="0.7"></stop><stop offset="1" stop-color="#20ACD8"></stop></linearGradient><linearGradient id="paint7_linear_57627_8029" x1="37.3881" y1="30.8988" x2="37.3881" y2="17.2965" gradientUnits="userSpaceOnUse"><stop stop-color="#166BB5"></stop><stop offset="0.6" stop-color="#5EC9F4" stop-opacity="0.55"></stop><stop offset="1" stop-color="#5EC9F4" stop-opacity="0.24"></stop></linearGradient><linearGradient id="paint8_linear_57627_8029" x1="12.6544" y1="31.2627" x2="12.6544" y2="17.3347" gradientUnits="userSpaceOnUse"><stop stop-color="#388DCC"></stop><stop offset="1" stop-color="#40A6DE"></stop></linearGradient><linearGradient id="paint9_linear_57627_8029" x1="13.5243" y1="31.1722" x2="13.5243" y2="17.634" gradientUnits="userSpaceOnUse"><stop stop-color="#269FDA"></stop><stop offset="1" stop-color="#269FDA" stop-opacity="0.55"></stop></linearGradient><linearGradient id="paint10_linear_57627_8029" x1="14.267" y1="31.9474" x2="14.267" y2="20.5074" gradientUnits="userSpaceOnUse"><stop stop-color="#1E5BA6"></stop><stop offset="0.5" stop-color="#269FDA"></stop><stop offset="0.92" stop-color="#7FC5E9"></stop><stop offset="1" stop-color="#7FC5E9"></stop></linearGradient><linearGradient id="paint11_linear_57627_8029" x1="35.0569" y1="24.1932" x2="35.0569" y2="17.6974" gradientUnits="userSpaceOnUse"><stop stop-color="#269FDA"></stop><stop offset="0.87" stop-color="#1795D3"></stop><stop offset="1" stop-color="#1795D3"></stop></linearGradient><linearGradient id="paint12_linear_57627_8029" x1="38.1388" y1="17.0602" x2="35.5036" y2="32.0068" gradientUnits="userSpaceOnUse"><stop stop-color="#40A6DE" stop-opacity="0.33"></stop><stop offset="0.96" stop-color="#2687C8"></stop><stop offset="1" stop-color="#2687C8"></stop></linearGradient><linearGradient id="paint13_linear_57627_8029" x1="35.7444" y1="17.7034" x2="35.7444" y2="31.8451" gradientUnits="userSpaceOnUse"><stop stop-color="#258BCC"></stop><stop offset="0.5" stop-color="#2287C9"></stop><stop offset="1" stop-color="#164C8D"></stop></linearGradient><linearGradient id="paint14_linear_57627_8029" x1="17.8694" y1="17.3894" x2="20.9229" y2="18.6558" gradientUnits="userSpaceOnUse"><stop stop-color="#98D5ED"></stop><stop offset="0.7" stop-color="#57C1EA"></stop><stop offset="1" stop-color="#57C1EA"></stop></linearGradient><linearGradient id="paint15_linear_57627_8029" x1="19.3435" y1="19.0568" x2="21.9699" y2="17.8654" gradientUnits="userSpaceOnUse"><stop stop-color="#7BCCEB"></stop><stop offset="1" stop-color="#45B7E9"></stop></linearGradient><linearGradient id="paint16_linear_57627_8029" x1="33.8254" y1="18.4979" x2="33.8254" y2="32.3299" gradientUnits="userSpaceOnUse"><stop stop-color="#2DA6DE"></stop><stop offset="1" stop-color="#3EAAE0" stop-opacity="0"></stop></linearGradient><linearGradient id="paint17_linear_57627_8029" x1="8.54449" y1="25.01" x2="18.8302" y2="25.01" gradientUnits="userSpaceOnUse"><stop stop-color="#165196"></stop><stop offset="1" stop-color="#1982C5"></stop></linearGradient><linearGradient id="paint18_linear_57627_8029" x1="7" y1="24.9835" x2="17.2" y2="24.9835" gradientUnits="userSpaceOnUse"><stop stop-color="#269FDA" stop-opacity="0.25"></stop><stop offset="1" stop-color="#269FDA"></stop></linearGradient><clipPath id="clip0_57627_8029"><rect width="36" height="36" fill="white" transform="translate(7 7)"></rect></clipPath><clipPath id="clip1_57627_8029"><rect width="36" height="35.7143" fill="white" transform="translate(7 7)"></rect></clipPath></defs></svg>