<svg xmlns="http://www.w3.org/2000/svg" width="50" height="50" viewBox="0 0 50 50" fill="none"><g style="mix-blend-mode:luminosity"><path d="M5.21122 22.0005L7.86319 14.1267H10.2511L12.7564 22.0005H10.7792L10.3509 20.6158H7.63437L7.20606 22.0005H5.21122ZM8.10961 19.2253H9.92257L9.03075 16.3445L8.10961 19.2253ZM16.9187 22.1882C16.3555 22.1882 15.8333 22.0944 15.3522 21.9066C14.8711 21.715 14.4799 21.4177 14.1787 21.0148C13.8776 20.608 13.7113 20.08 13.68 19.4307H15.5341C15.5341 19.6693 15.5947 19.8668 15.716 20.0232C15.8372 20.1797 16.0015 20.2951 16.2088 20.3694C16.42 20.4437 16.6527 20.4809 16.907 20.4809C17.1104 20.4809 17.3001 20.4633 17.4761 20.4281C17.656 20.3929 17.8008 20.3303 17.9103 20.2403C18.0198 20.1504 18.0746 20.0272 18.0746 19.8707C18.0746 19.679 18.0159 19.5363 17.8985 19.4424C17.7851 19.3485 17.5778 19.241 17.2766 19.1197L15.5634 18.3746C15.0002 18.1321 14.5621 17.8465 14.2492 17.518C13.9362 17.1894 13.7798 16.7415 13.7798 16.1744C13.7798 15.5094 14.0497 14.9736 14.5895 14.5668C15.1331 14.1561 15.8763 13.9507 16.819 13.9507C17.7773 13.9507 18.5126 14.1776 19.025 14.6313C19.5374 15.0811 19.8249 15.7246 19.8875 16.5616H18.0452C17.9983 16.3035 17.8829 16.0864 17.6991 15.9104C17.5191 15.7343 17.2258 15.6463 16.819 15.6463C16.5256 15.6463 16.289 15.7011 16.1091 15.8106C15.9291 15.9162 15.8392 16.0492 15.8392 16.2096C15.8392 16.3582 15.8959 16.4756 16.0093 16.5616C16.1267 16.6477 16.3007 16.7415 16.5315 16.8432L18.3444 17.6118C18.9468 17.8739 19.3947 18.181 19.688 18.533C19.9853 18.885 20.1339 19.3075 20.1339 19.8003C20.1339 20.3283 20.0068 20.7703 19.7526 21.1263C19.5022 21.4783 19.1365 21.7443 18.6554 21.9242C18.1782 22.1002 17.5993 22.1882 16.9187 22.1882ZM20.5517 14.1267H22.7578L24.2715 17.0779H23.9664L25.5799 14.1267H27.7801L25.0225 18.7325V22.0005H23.1567V18.7325L20.5517 14.1267ZM28.8063 14.1267H30.7659L33.9283 18.8909H33.7992V14.1267H35.6767V22.0005H33.8638L30.3728 16.767H30.6838V22.0005H28.8063V14.1267ZM40.6574 22.1882C39.969 22.1882 39.3627 22.0337 38.8386 21.7247C38.3184 21.4157 37.9116 20.9561 37.6182 20.3459C37.3249 19.7358 37.1782 18.9789 37.1782 18.0753C37.1782 17.1679 37.3229 16.4091 37.6124 15.7989C37.9057 15.1887 38.3145 14.7291 38.8386 14.4201C39.3627 14.1072 39.969 13.9507 40.6574 13.9507C41.6509 13.9507 42.4078 14.1854 42.928 14.6548C43.4483 15.1241 43.7573 15.7324 43.8551 16.4795L41.8602 16.8256C41.7702 16.4892 41.6275 16.2115 41.4319 15.9925C41.2402 15.7695 40.9821 15.6581 40.6574 15.6581C40.368 15.6581 40.1118 15.7461 39.8888 15.9221C39.6698 16.0942 39.4996 16.3582 39.3784 16.7142C39.2571 17.0701 39.1965 17.5238 39.1965 18.0753C39.1965 18.6151 39.2591 19.063 39.3843 19.4189C39.5094 19.771 39.6815 20.033 39.9006 20.2051C40.1235 20.3772 40.3758 20.4633 40.6574 20.4633C41.0603 20.4633 41.3615 20.3577 41.561 20.1465C41.7605 19.9313 41.8602 19.6712 41.8602 19.3661H43.8433C43.8433 19.9724 43.7201 20.4868 43.4737 20.9092C43.2312 21.3277 42.8733 21.6465 42.4 21.8655C41.9267 22.0807 41.3459 22.1882 40.6574 22.1882ZM5.99155 36.0005V28.1267H7.86905V36.0005H5.99155ZM13.0976 36.1882C12.3505 36.1882 11.6973 36.0318 11.138 35.7189C10.5826 35.402 10.1503 34.9366 9.84134 34.3225C9.53234 33.7045 9.37784 32.9437 9.37784 32.0401C9.37784 31.1131 9.53234 30.3484 9.84134 29.7461C10.1503 29.1398 10.5826 28.69 11.138 28.3966C11.6973 28.0993 12.3505 27.9507 13.0976 27.9507C13.8525 27.9507 14.5097 28.1052 15.069 28.4142C15.6323 28.7232 16.0684 29.1809 16.3774 29.7871C16.6864 30.3934 16.8409 31.1444 16.8409 32.0401C16.8409 32.9593 16.6864 33.7279 16.3774 34.3459C16.0684 34.96 15.6323 35.4216 15.069 35.7306C14.5097 36.0357 13.8525 36.1882 13.0976 36.1882ZM13.0976 34.5044C13.6452 34.5044 14.0833 34.2892 14.4119 33.859C14.7404 33.4248 14.9047 32.8146 14.9047 32.0284C14.9047 31.2891 14.7404 30.7063 14.4119 30.28C14.0833 29.8497 13.6452 29.6346 13.0976 29.6346C12.5657 29.6346 12.1354 29.8497 11.8068 30.28C11.4783 30.7063 11.314 31.2931 11.314 32.0401C11.314 32.8185 11.4783 33.4248 11.8068 33.859C12.1354 34.2892 12.5657 34.5044 13.0976 34.5044Z" fill="#2E2E2E"></path></g></svg>