<svg xmlns="http://www.w3.org/2000/svg" width="50" height="50" viewBox="0 0 50 50" fill="none"><g style="mix-blend-mode:luminosity"><path d="M17.2318 22.0898C17.2318 22.528 17.2791 22.8833 17.362 23.1438C17.4568 23.4043 17.5752 23.6885 17.741 23.9964C17.8002 24.0911 17.8239 24.1859 17.8239 24.2688C17.8239 24.3872 17.7528 24.5056 17.5989 24.624L16.8528 25.1214C16.7462 25.1925 16.6397 25.228 16.5449 25.228C16.4265 25.228 16.3081 25.1688 16.1897 25.0622C16.0239 24.8846 15.8818 24.6951 15.7633 24.5056C15.6449 24.3043 15.5265 24.0793 15.3962 23.8069C14.4726 24.8964 13.312 25.4411 11.9147 25.4411C10.9199 25.4411 10.1265 25.1569 9.54624 24.5885C8.96597 24.0201 8.66992 23.2622 8.66992 22.3148C8.66992 21.3082 9.02519 20.4911 9.74755 19.8754C10.4699 19.2596 11.4291 18.9517 12.6489 18.9517C13.0515 18.9517 13.466 18.9872 13.9041 19.0464C14.3423 19.1056 14.7923 19.2004 15.266 19.3069V18.4425C15.266 17.5425 15.0765 16.9148 14.7094 16.5477C14.3304 16.1806 13.691 16.003 12.7791 16.003C12.3647 16.003 11.9383 16.0504 11.5002 16.1569C11.062 16.2635 10.6357 16.3938 10.2212 16.5596C10.0318 16.6425 9.88966 16.6898 9.80676 16.7135C9.72387 16.7372 9.66466 16.749 9.61729 16.749C9.4515 16.749 9.36861 16.6306 9.36861 16.3819V15.8017C9.36861 15.6122 9.39229 15.4701 9.4515 15.3872C9.51071 15.3043 9.61729 15.2214 9.78308 15.1385C10.1976 14.9254 10.6949 14.7477 11.2752 14.6056C11.8554 14.4517 12.4712 14.3806 13.1226 14.3806C14.5318 14.3806 15.562 14.7004 16.2252 15.3398C16.8765 15.9793 17.2081 16.9504 17.2081 18.253V22.0898H17.2318ZM12.4239 23.8898C12.8147 23.8898 13.2173 23.8188 13.6436 23.6767C14.0699 23.5346 14.4489 23.274 14.7686 22.9188C14.9581 22.6938 15.1002 22.4451 15.1712 22.1609C15.2423 21.8767 15.2897 21.5332 15.2897 21.1306V20.6332C14.9462 20.5504 14.5791 20.4793 14.2002 20.4319C13.8212 20.3846 13.4541 20.3609 13.087 20.3609C12.2936 20.3609 11.7133 20.5148 11.3226 20.8346C10.9318 21.1543 10.7423 21.6043 10.7423 22.1964C10.7423 22.753 10.8844 23.1675 11.1804 23.4517C11.4647 23.7477 11.8791 23.8898 12.4239 23.8898ZM21.9331 25.1688C21.7199 25.1688 21.5778 25.1333 21.4831 25.0504C21.3883 24.9793 21.3054 24.8135 21.2344 24.5885L18.4515 15.4346C18.3804 15.1977 18.3449 15.0438 18.3449 14.9609C18.3449 14.7714 18.4397 14.6648 18.6291 14.6648H19.7897C20.0147 14.6648 20.1686 14.7004 20.2515 14.7832C20.3462 14.8543 20.4173 15.0201 20.4883 15.2451L22.4778 23.0846L24.3252 15.2451C24.3844 15.0082 24.4554 14.8543 24.5502 14.7832C24.6449 14.7122 24.8107 14.6648 25.0239 14.6648H25.9712C26.1962 14.6648 26.3502 14.7004 26.4449 14.7832C26.5397 14.8543 26.6226 15.0201 26.6699 15.2451L28.541 23.1793L30.5897 15.2451C30.6607 15.0082 30.7436 14.8543 30.8265 14.7832C30.9212 14.7122 31.0752 14.6648 31.2883 14.6648H32.3897C32.5791 14.6648 32.6857 14.7596 32.6857 14.9609C32.6857 15.0201 32.6739 15.0793 32.662 15.1504C32.6502 15.2214 32.6265 15.3161 32.5791 15.4464L29.7252 24.6004C29.6541 24.8372 29.5712 24.9911 29.4765 25.0622C29.3818 25.1333 29.2278 25.1806 29.0265 25.1806H28.0081C27.7831 25.1806 27.6291 25.1451 27.5344 25.0622C27.4397 24.9793 27.3568 24.8254 27.3094 24.5885L25.4739 16.9504L23.6502 24.5767C23.591 24.8135 23.5199 24.9675 23.4252 25.0504C23.3304 25.1333 23.1647 25.1688 22.9515 25.1688H21.9331ZM37.1502 25.4885C36.5344 25.4885 35.9186 25.4175 35.3265 25.2754C34.7344 25.1333 34.2726 24.9793 33.9647 24.8017C33.7752 24.6951 33.6449 24.5767 33.5976 24.4701C33.5502 24.3635 33.5265 24.2451 33.5265 24.1385V23.5346C33.5265 23.2859 33.6212 23.1675 33.7989 23.1675C33.8699 23.1675 33.941 23.1793 34.012 23.203C34.0831 23.2267 34.1897 23.274 34.3081 23.3214C34.7107 23.499 35.1489 23.6411 35.6107 23.7359C36.0844 23.8306 36.5462 23.878 37.0199 23.878C37.766 23.878 38.3462 23.7477 38.7489 23.4872C39.1515 23.2267 39.3647 22.8477 39.3647 22.3622C39.3647 22.0306 39.2581 21.7582 39.0449 21.5332C38.8318 21.3082 38.4291 21.1069 37.8489 20.9175L36.1318 20.3846C35.2673 20.1122 34.6278 19.7096 34.237 19.1767C33.8462 18.6556 33.6449 18.0754 33.6449 17.4596C33.6449 16.9622 33.7515 16.524 33.9647 16.1451C34.1778 15.7661 34.462 15.4346 34.8173 15.174C35.1726 14.9017 35.5752 14.7004 36.0489 14.5582C36.5226 14.4161 37.0199 14.3569 37.541 14.3569C37.8015 14.3569 38.0739 14.3688 38.3344 14.4043C38.6068 14.4398 38.8554 14.4872 39.1041 14.5346C39.341 14.5938 39.566 14.653 39.7791 14.724C39.9923 14.7951 40.1581 14.8661 40.2765 14.9372C40.4423 15.0319 40.5607 15.1267 40.6318 15.2332C40.7028 15.328 40.7383 15.4582 40.7383 15.624V16.1806C40.7383 16.4293 40.6436 16.5596 40.466 16.5596C40.3712 16.5596 40.2173 16.5122 40.016 16.4175C39.341 16.1096 38.5831 15.9556 37.7423 15.9556C37.0673 15.9556 36.5344 16.0622 36.1673 16.2872C35.8002 16.5122 35.6107 16.8556 35.6107 17.3411C35.6107 17.6727 35.7291 17.9569 35.966 18.1819C36.2028 18.4069 36.641 18.6319 37.2686 18.8333L38.9502 19.3661C39.8028 19.6385 40.4186 20.0175 40.7857 20.503C41.1528 20.9885 41.3304 21.5451 41.3304 22.1609C41.3304 22.6701 41.2239 23.1319 41.0226 23.5346C40.8094 23.9372 40.5252 24.2925 40.1581 24.5767C39.791 24.8727 39.3528 25.0859 38.8436 25.2398C38.3107 25.4056 37.7541 25.4885 37.1502 25.4885Z" fill="#252F3E"></path><path fill-rule="evenodd" clip-rule="evenodd" d="M39.3879 31.2377C35.4918 34.1153 29.8313 35.6429 24.9642 35.6429C18.1432 35.6429 11.9971 33.1206 7.355 28.9285C6.9879 28.5969 7.31948 28.1469 7.75764 28.4074C12.7787 31.3206 18.9721 33.085 25.3787 33.085C29.7011 33.085 34.4497 32.185 38.8195 30.3377C39.4708 30.0416 40.0274 30.764 39.3879 31.2377Z" fill="#FF9900"></path><path fill-rule="evenodd" clip-rule="evenodd" d="M41.0114 29.3919C40.514 28.7524 37.7193 29.084 36.4522 29.2379C36.0732 29.2853 36.014 28.9537 36.3574 28.705C38.5838 27.1419 42.243 27.5919 42.6693 28.1129C43.0956 28.6458 42.5509 32.305 40.4667 34.0576C40.1469 34.33 39.839 34.1879 39.9811 33.8326C40.4548 32.6603 41.5088 30.0195 41.0114 29.3919Z" fill="#FF9900"></path></g></svg>