<svg xmlns="http://www.w3.org/2000/svg" width="50" height="50" viewBox="0 0 50 50" fill="none"><g style="mix-blend-mode:luminosity"><g clip-path="url(#clip0_57627_8011)"><path d="M40.5845 33.9999C40.8355 33.5651 40.9914 33.0752 40.9914 32.6353V17.3645C40.9914 16.9246 40.8357 16.4348 40.5846 16L24.9961 24.9999L40.5845 33.9999Z" fill="#00599C"></path><path d="M26.3798 42.67L39.6047 35.0346C39.9857 34.8147 40.332 34.4349 40.583 33.9999L24.9946 25L9.40625 34.0001C9.65726 34.4349 10.0036 34.8148 10.3845 35.0346L23.6094 42.67C24.3712 43.1099 25.618 43.1099 26.3798 42.67Z" fill="#004482"></path><path d="M40.5838 15.9999C40.3327 15.565 39.9863 15.1852 39.6055 14.9653L26.3806 7.32994C25.6188 6.89002 24.372 6.89002 23.6101 7.32994L10.3852 14.9653C9.6233 15.4051 9 16.4848 9 17.3646V32.6353C9 33.0752 9.15588 33.5651 9.40699 33.9999L24.9954 25L40.5838 15.9999Z" fill="#659AD2"></path><path d="M24.9956 35.6631C19.1157 35.6631 14.332 30.8794 14.332 24.9995C14.332 19.1196 19.1157 14.3359 24.9956 14.3359C28.7897 14.3359 32.3283 16.3777 34.2301 19.6644L29.6152 22.3349C28.6633 20.6898 26.8931 19.6677 24.9956 19.6677C22.0556 19.6677 19.6638 22.0595 19.6638 24.9995C19.6638 27.9394 22.0556 30.3313 24.9956 30.3313C26.8933 30.3313 28.6636 29.3093 29.6155 27.6638L34.2305 30.3342C32.3286 33.6212 28.7899 35.6631 24.9956 35.6631Z" fill="white"></path><path d="M35.658 24.4079H34.4731V23.2231H33.2884V24.4079H32.1035V25.5928H33.2884V26.7777H34.4731V25.5928H35.658V24.4079Z" fill="white"></path><path d="M40.1014 24.4079H38.9165V23.2231H37.7318V24.4079H36.5469V25.5928H37.7318V26.7777H38.9165V25.5928H40.1014V24.4079Z" fill="white"></path></g></g><defs><clipPath id="clip0_57627_8011"><rect width="31.9907" height="36" fill="white" transform="translate(9 7)"></rect></clipPath></defs></svg>