<svg xmlns="http://www.w3.org/2000/svg" width="50" height="50" viewBox="0 0 50 50" fill="none"><g style="mix-blend-mode:luminosity"><path d="M12.7147 26.4764C12.7017 26.9003 12.6023 27.3171 12.4226 27.7013C12.2428 28.0855 11.9865 28.4289 11.6694 28.7105C10.9732 29.2823 10.0891 29.5745 9.18929 29.5304C8.68744 29.5517 8.18724 29.4595 7.72591 29.2608C7.26459 29.0621 6.85401 28.7619 6.52473 28.3826C5.84321 27.4917 5.50165 26.3871 5.56138 25.2671V24.7342C5.55624 23.9664 5.70975 23.2058 6.01231 22.5001C6.28073 21.8879 6.7225 21.3678 7.2831 21.0038C7.86401 20.6544 8.53204 20.4767 9.20979 20.4914C10.0971 20.4476 10.9682 20.7404 11.6489 21.3113C12.2978 21.896 12.6885 22.7141 12.7352 23.5864H10.9315C10.9255 23.1335 10.7584 22.6975 10.4601 22.3566C10.1109 22.0672 9.66158 21.9272 9.20979 21.9672C8.94701 21.9515 8.68462 22.0036 8.44775 22.1185C8.21088 22.2333 8.00747 22.407 7.85701 22.6231C7.5179 23.2506 7.36167 23.9608 7.40608 24.6727V25.3286C7.3554 26.0386 7.5045 26.7486 7.83651 27.3782C7.98407 27.5972 8.18695 27.7732 8.42455 27.8884C8.66214 28.0036 8.92599 28.0539 9.18929 28.0341C9.63831 28.0798 10.0873 27.9473 10.4396 27.6652C10.7157 27.3328 10.8549 26.9077 10.829 26.4764H12.7147ZM21.0774 25.2056C21.1044 25.9886 20.9501 26.7672 20.6264 27.4807C20.3303 28.0963 19.8663 28.6158 19.288 28.9793C18.7096 29.3429 18.0404 29.5357 17.3572 29.5357C16.6741 29.5357 16.0048 29.3429 15.4265 28.9793C14.8481 28.6158 14.3842 28.0963 14.088 27.4807C13.7694 26.7794 13.6085 26.0168 13.6166 25.2466V24.8162C13.5965 24.025 13.7577 23.2398 14.088 22.5206C14.3706 21.8932 14.8346 21.365 15.4203 21.0038C16.0025 20.6379 16.68 20.4525 17.3675 20.4709C18.09 20.426 18.808 20.6127 19.4171 21.0038C20.003 21.3556 20.4677 21.8775 20.7494 22.5001C21.0149 23.2418 21.1265 24.0299 21.0774 24.8162V25.2056ZM19.2532 24.8162C19.2908 24.0998 19.1199 23.3878 18.7612 22.7665C18.6083 22.5343 18.3973 22.3459 18.1493 22.2201C17.9013 22.0943 17.6247 22.0354 17.347 22.0491C17.0748 22.0387 16.8044 22.0971 16.5607 22.2189C16.3171 22.3407 16.1082 22.522 15.9532 22.746C15.5873 23.3651 15.4093 24.0772 15.4408 24.7957V25.2261C15.4105 25.9444 15.5884 26.6562 15.9532 27.2758C16.1123 27.5 16.3228 27.6828 16.5671 27.809C16.8114 27.9351 17.0823 28.001 17.3572 28.001C17.6321 28.001 17.9031 27.9351 18.1473 27.809C18.3916 27.6828 18.6021 27.5 18.7612 27.2758C19.1233 26.6558 19.2944 25.9428 19.2532 25.2261V24.8162ZM22.3892 29.4074V20.6349H25.4637C26.3156 20.5675 27.166 20.7836 27.8823 21.2498C28.1609 21.4524 28.384 21.722 28.5309 22.0337C28.6778 22.3454 28.7437 22.6891 28.7226 23.033C28.7235 23.4418 28.6022 23.8415 28.3742 24.1808C28.1579 24.5101 27.8418 24.7615 27.4723 24.8982C27.8968 24.9896 28.2747 25.2294 28.5382 25.5745C28.7939 25.9401 28.9235 26.379 28.9071 26.8248C28.9355 27.1833 28.8778 27.5433 28.7387 27.8749C28.5997 28.2065 28.3833 28.5 28.1077 28.731C27.4433 29.2141 26.6324 29.4531 25.8121 29.4074H22.3892ZM24.2134 25.5745V27.9521H25.7506C26.1118 27.9763 26.4692 27.8669 26.7549 27.6447C26.8751 27.5419 26.9692 27.4123 27.0298 27.2662C27.0903 27.1202 27.1155 26.962 27.1034 26.8043C27.1235 26.6615 27.115 26.5161 27.0783 26.3766C27.0417 26.2371 26.9776 26.1062 26.8898 25.9918C26.802 25.8773 26.6924 25.7814 26.5671 25.7098C26.4419 25.6382 26.3037 25.5922 26.1605 25.5745H24.1109H24.2134ZM24.2134 24.3038H25.5456C26.4475 24.3038 26.9189 23.9143 26.9189 23.2175C26.9311 23.0568 26.906 22.8955 26.8455 22.7462C26.7851 22.5969 26.691 22.4635 26.5705 22.3566C26.2378 22.1559 25.8512 22.0628 25.4637 22.0901H24.2134V24.3038ZM37.4747 25.2056C37.4919 25.9878 37.338 26.7643 37.0238 27.4807C36.7387 28.1001 36.2838 28.626 35.712 28.9975C35.1162 29.3391 34.4414 29.5188 33.7546 29.5188C33.0678 29.5188 32.3929 29.3391 31.7971 28.9975C31.2268 28.6333 30.7718 28.1143 30.4853 27.5012C30.1573 26.8031 29.9959 26.0383 30.0139 25.2671V24.8367C29.9947 24.0543 30.1487 23.2774 30.4648 22.5616C30.7464 21.9335 31.2107 21.405 31.7971 21.0448C32.3856 20.6927 33.0585 20.5067 33.7443 20.5067C34.4301 20.5067 35.103 20.6927 35.6915 21.0448C36.2773 21.4 36.7363 21.9307 37.0033 22.5616C37.3337 23.2662 37.4951 24.0382 37.4747 24.8162V25.2056ZM35.6505 24.8162C35.6882 24.0998 35.5173 23.3878 35.1586 22.7665C35.0244 22.5803 34.8547 22.4225 34.6593 22.3021C34.4639 22.1817 34.2466 22.1011 34.02 22.0649C33.7933 22.0287 33.5618 22.0376 33.3386 22.0912C33.1154 22.1448 32.905 22.242 32.7195 22.3771C32.5705 22.4781 32.439 22.6028 32.33 22.746C31.9702 23.3669 31.7993 24.0792 31.8381 24.7957V25.2261C31.8005 25.9425 31.9713 26.6545 32.33 27.2758C32.5946 27.6524 32.9974 27.9091 33.4506 27.9898C33.9037 28.0704 34.3704 27.9685 34.7487 27.7062C34.904 27.5897 35.0421 27.4516 35.1586 27.2963C35.5207 26.6763 35.6918 25.9633 35.6505 25.2466V24.8162ZM40.5902 27.9521H44.4436V29.4074H38.807V20.6349H40.6107L40.5902 27.9521Z" fill="#2E3032"></path></g></svg>