<svg xmlns="http://www.w3.org/2000/svg" width="50" height="50" viewBox="0 0 50 50" fill="none"><g style="mix-blend-mode:luminosity"><g clip-path="url(#clip0_57627_8066)"><g clip-path="url(#clip1_57627_8066)"><path d="M39.0625 7H10.9375C8.76288 7 7 8.76288 7 10.9375V39.0625C7 41.2371 8.76288 43 10.9375 43H39.0625C41.2371 43 43 41.2371 43 39.0625V10.9375C43 8.76288 41.2371 7 39.0625 7Z" fill="#092E20"></path><path d="M33.2086 20.2472V29.5603C33.2086 32.7692 32.9738 34.3083 32.2695 35.6388C31.6172 36.9174 30.7562 37.7259 28.9824 38.613L25.2517 36.839C27.0257 36.0042 27.8866 35.274 28.4344 34.1518C29.0084 33.004 29.1912 31.6735 29.1912 28.1778V20.2472H33.2086ZM26.8174 14.043V32.639C24.7564 33.0303 23.2433 33.1868 21.5999 33.1868C16.6953 33.1868 14.1387 30.9695 14.1387 26.717C14.1387 22.6212 16.8519 19.9604 21.0519 19.9604C21.7041 19.9604 22.1997 20.0124 22.7998 20.1689V14.043H26.8174ZM21.4434 23.1951C19.4085 23.1951 18.2345 24.4473 18.2345 26.6386C18.2345 28.7779 19.3563 29.9518 21.4173 29.9518C21.8606 29.9518 22.226 29.9257 22.7998 29.8476V23.4036C22.3303 23.2472 21.939 23.1951 21.4434 23.1951ZM33.2086 14.0643V18.1862H29.1912V14.0643H33.2086Z" fill="#FFFFFD"></path></g></g></g><defs><clipPath id="clip0_57627_8066"><rect width="36" height="36" fill="white" transform="translate(7 7)"></rect></clipPath><clipPath id="clip1_57627_8066"><rect width="36" height="36" fill="white" transform="translate(7 7)"></rect></clipPath></defs></svg>