<svg xmlns="http://www.w3.org/2000/svg" width="50" height="50" viewBox="0 0 50 50" fill="none"><g style="mix-blend-mode:luminosity"><g clip-path="url(#clip0_57627_8121)"><path d="M25.0092 7.00342C34.9459 7.00679 42.9991 15.0634 42.9991 25V25.0068C42.9957 34.9451 34.9358 43 24.9959 42.9967C15.0574 42.9933 7.00249 34.9318 7.00586 24.9934C7.00923 15.0549 15.0692 7.00004 25.0092 7.00342ZM24.9173 11.6319C24.4231 13.5022 22.7567 15.1635 21.0117 16.9085C18.4019 19.525 15.4347 22.4854 15.4347 26.932C15.4415 32.1616 19.6759 36.4012 24.9056 36.4145C30.1453 36.4145 34.3949 32.1699 34.3998 26.932C34.3998 22.4854 31.4411 19.5267 28.8228 16.9085L28.589 16.6745C26.9309 15.0144 25.3879 13.4199 24.9173 11.6319ZM25.0459 25.8315C26.1346 26.992 26.8259 27.7919 27.5421 28.6652C27.5955 28.7303 27.6441 28.8004 27.6875 28.8755C28.5641 30.1395 28.4455 31.8427 27.4019 32.9714C26.1731 34.3022 24.0993 34.384 22.7684 33.1552C21.4376 31.9262 21.3558 29.8524 22.5846 28.5216C23.2827 27.6967 24.1259 26.8852 25.0459 25.8315ZM20.7128 21.4802L21.1703 21.9126L23.2944 24.0849C23.3745 24.1768 23.3745 24.3121 23.2944 24.404L21.0736 26.8585L20.2971 27.8036C20.0017 28.1632 19.7511 28.5574 19.5508 28.9774C19.5224 29.0476 19.4622 29.0993 19.3888 29.1159H19.3103C19.095 29.0977 18.8478 28.7002 18.8478 28.7002L18.8084 28.6407C18.757 28.5607 18.7099 28.478 18.6674 28.393L18.6256 28.3028C18.3225 27.3141 18.2977 26.2609 18.5539 25.2589L18.5826 25.1547C18.8188 24.3219 19.191 23.534 19.6843 22.8227C20.0014 22.3561 20.3448 21.9078 20.7128 21.4802ZM24.9308 17.0887C25.4967 17.7317 26.1346 18.3762 26.7356 18.9772L26.749 19.019C28.006 20.19 29.1427 21.4838 30.1419 22.8812C30.9906 24.0736 31.4544 25.4969 31.4711 26.9603C31.4711 27.5926 31.3759 28.2214 31.1888 28.8255L31.1795 28.8503C31.1549 28.9109 31.1152 28.9642 31.0642 29.0051C31.0133 29.0461 30.9527 29.0733 30.8882 29.0843H30.8282C30.6984 29.0432 30.5888 28.955 30.5208 28.8371L30.4202 28.686C29.8786 27.8828 29.2681 27.1283 28.5956 26.4311L27.7291 25.516L24.8404 22.5072C24.3528 22.0379 23.4812 21.1963 23.1138 20.7388C23.1022 20.7136 23.0882 20.6896 23.0721 20.6671C22.972 20.5301 22.8948 20.3778 22.8433 20.2162V20.1261C22.7934 19.8323 22.833 19.5304 22.9569 19.2594C23.0371 19.0871 23.1474 18.9305 23.2825 18.7968C23.8418 18.2375 24.4013 17.6899 24.9305 17.0887H24.9308Z" fill="#009DDE"></path></g></g><defs><clipPath id="clip0_57627_8121"><rect width="36" height="36" fill="white" transform="translate(7 7)"></rect></clipPath></defs></svg>