<svg xmlns="http://www.w3.org/2000/svg" width="50" height="50" viewBox="0 0 50 50" fill="none"><g style="mix-blend-mode:luminosity"><path d="M12.2442 7.72589C9.75911 10.2968 8.50586 12.8891 8.50586 15.4707C8.50586 16.0598 8.54871 16.5633 8.61297 16.5954C8.67724 16.6276 8.72009 16.7668 8.72009 16.8954C8.72009 17.1953 8.97717 17.9344 9.31994 18.6307C9.76982 19.5626 10.4232 20.2161 12.2013 21.5015C13.5939 22.5084 14.3651 23.6439 14.6222 25.0793L14.7614 25.8506L15.147 25.6899C16.1218 25.2721 16.8716 25.1222 19.1103 24.8865C20.5457 24.7365 21.1027 24.5223 21.7668 23.8689C22.7094 22.9262 22.2595 22.3156 19.3138 20.5696C16.1432 18.6843 15.0078 17.8059 13.7759 16.2741C12.7905 15.0422 12.287 14.0245 12.0407 12.7605C11.805 11.5822 12.1264 9.71832 12.844 8.04725C13.0476 7.5545 13.2189 7.12602 13.2189 7.08317C13.2189 6.85822 12.8655 7.09389 12.2442 7.72589Z" fill="#F0AD4E"></path><path d="M40.8021 8.59308C40.7486 8.63593 40.6093 8.85017 40.5129 9.06441C39.8917 10.3927 37.835 11.646 34.5894 12.6529C34.3002 12.7493 33.7861 12.8993 33.4647 13.0064C33.1434 13.1028 32.5114 13.3064 32.0722 13.4349C26.62 15.0953 25.6667 15.9522 23.7172 20.8797C22.8389 23.0864 22.3783 23.8255 21.4678 24.4254C20.7073 24.9396 20.086 25.111 18.3614 25.3252C15.6193 25.6573 14.5588 25.9786 13.7019 26.7392C13.177 27.1891 13.0056 27.6604 13.0056 28.6031C13.0056 29.0316 12.9628 29.4065 12.92 29.4386C12.8664 29.4708 12.77 29.76 12.695 30.092C12.5879 30.542 12.5879 30.7669 12.6843 31.0561C12.8343 31.4953 13.252 31.8595 13.6269 31.8595C13.8947 31.8595 13.9054 31.7845 13.7019 31.3025C13.6591 31.1847 13.7233 31.0347 13.9054 30.8419C14.1411 30.6062 14.2589 30.5741 14.9873 30.5741C15.8228 30.5741 16.1013 30.4884 16.4976 30.1242C16.7226 29.9207 16.7333 29.9207 17.0332 30.2527C17.6652 30.949 19.3148 31.9345 21.3714 32.8557C22.3461 33.2949 22.9567 33.8198 23.4173 34.6339C23.7279 35.1695 23.7708 35.3195 23.7708 36.0908C23.7708 37.3441 23.3209 38.201 22.4425 38.6081C22.2926 38.6831 22.0783 38.7795 21.9819 38.833C21.8748 38.8866 21.4785 38.9294 21.0929 38.9294H20.3966L20.1717 39.4329C20.0431 39.7221 19.8825 40.0756 19.7968 40.2256C19.6789 40.4613 19.6789 40.5362 19.7968 40.7076C19.936 40.8897 19.9789 40.8683 20.493 40.3434C21.0286 39.7971 21.3607 39.6364 21.3607 39.9364C21.3607 40.0221 21.1679 40.2363 20.9429 40.4184C20.418 40.8362 20.3431 41.1361 20.5894 41.8431C20.7929 42.4216 21.0607 42.5929 21.125 42.1966C21.1464 42.0788 21.3071 41.8431 21.4785 41.6717C21.6499 41.511 21.7891 41.3075 21.7891 41.2325C21.7891 41.1575 21.8641 41.0397 21.9498 40.9647C22.1855 40.7719 22.2819 41.1147 22.1319 41.6503C22.0355 42.0145 22.0462 42.1216 22.1855 42.2716C22.2926 42.3894 22.3247 42.5501 22.2819 42.7322C22.239 42.925 22.2604 43 22.3568 43C22.5068 43 22.8603 42.6679 22.8603 42.5287C22.8603 42.4858 22.9567 42.3037 23.0852 42.1323C23.3102 41.811 23.3209 41.7467 23.1174 40.6112C23.0852 40.397 23.0959 40.2149 23.1388 40.2149C23.3637 40.2149 24.135 40.7076 24.1778 40.879C24.2528 41.1575 24.5741 40.9969 24.5741 40.6755C24.5741 40.2684 24.2849 39.8185 23.9314 39.6579C23.578 39.5079 23.5137 39.2722 23.8029 39.1865C24.4777 38.9723 25.1097 38.5867 25.6774 38.0189C26.363 37.3548 26.4808 37.2155 26.92 36.5728C27.5305 35.6837 28.0982 35.2874 28.7516 35.2874C29.6514 35.2874 32.4793 36.5514 34.6644 37.9332C35.682 38.5759 37.6744 39.9685 38.0064 40.2684C38.0707 40.3327 38.4349 40.6005 38.8205 40.879C39.2061 41.1468 39.8702 41.661 40.2987 42.0252C40.7272 42.3787 41.1128 42.6786 41.1556 42.6786C41.5091 42.6786 41.6269 41.7574 41.3163 41.4789C41.2092 41.3932 40.8343 41.1575 40.4808 40.9647C39.6988 40.5255 38.1885 39.5079 37.5351 38.9616C36.0569 37.7511 34.1717 35.3838 32.9184 33.1664C32.8006 32.9843 32.6185 32.6522 32.5007 32.438C31.6009 30.8633 29.8871 28.8602 29.4265 28.8602C29.2444 28.8602 29.2444 28.8495 29.5336 27.4676C29.6193 27.0284 29.7478 26.2786 29.8121 25.8073C30.0049 24.5004 30.2834 23.0114 30.4869 22.2723C31.0653 20.0978 32.2972 18.5874 34.5359 17.3234C37.6744 15.5345 38.9276 14.4311 39.8274 12.6422C40.3094 11.6888 40.4058 11.4532 40.695 10.382C40.845 9.83567 41.0271 8.50738 40.9521 8.50738C40.9307 8.50738 40.8664 8.55023 40.8021 8.59308Z" fill="#F0AD4E"></path><path d="M22.27 33.926C22.2485 34.001 22.2164 34.2688 22.1843 34.5473C22.12 35.2971 21.6166 36.2934 21.0381 36.829C20.3419 37.4824 19.9134 37.6859 19.5492 37.5467C19.3993 37.4931 18.9708 37.4074 18.6066 37.3753C18.071 37.311 17.8782 37.3431 17.6211 37.4931C17.3426 37.6538 17.2891 37.7609 17.2891 38.093C17.2891 38.5643 17.2784 38.5536 17.6747 38.3394C17.8461 38.2537 18.0496 38.1787 18.1246 38.1787C18.3495 38.1787 18.2638 38.3929 17.9853 38.5215C17.6747 38.6607 17.589 38.9285 17.5676 39.764C17.5569 40.3961 17.7497 40.6424 17.9211 40.1925C17.9746 40.0533 18.1782 39.8605 18.371 39.7533C18.5745 39.6462 18.853 39.3677 19.0029 39.1428C19.2814 38.6714 19.4314 38.5964 19.4314 38.9178C19.4314 39.6034 19.7849 39.6355 20.0848 38.9714C20.2669 38.6072 20.3633 38.5107 20.4918 38.5643C20.8453 38.7143 21.2631 38.7357 21.413 38.6072C21.563 38.4786 21.5523 38.4358 21.3488 38.2215C21.2202 38.0823 21.1238 37.9537 21.156 37.9323C21.3916 37.7609 21.9058 37.6431 22.4306 37.6431C23.3733 37.6431 23.5018 37.4824 23.5018 36.2719C23.5018 35.0401 23.1804 34.1617 22.6556 33.9367C22.3878 33.8296 22.3021 33.8189 22.27 33.926Z" fill="#F0AD4E"></path><path d="M30.8926 36.229C30.8926 36.2826 31.2889 36.529 31.7816 36.7753C34.1489 38.0286 35.6057 39.3891 36.152 40.8995C36.3983 41.5529 36.409 41.7886 36.1948 42.2813C35.927 42.9347 35.8842 42.924 37.6194 42.8705C39.1833 42.8169 40.1045 42.6455 40.1045 42.3991C40.1045 42.2813 38.8191 41.0709 38.3478 40.7602C38.2193 40.6745 38.1015 40.5674 38.0693 40.5353C38.0372 40.5031 37.823 40.3317 37.5873 40.1496C37.3516 39.9782 37.0946 39.7854 37.0303 39.7319C36.9553 39.6676 36.7839 39.539 36.6554 39.4426C36.5161 39.3355 36.2162 39.0998 35.9806 38.9177C35.7449 38.7356 35.3807 38.4893 35.1772 38.3821C34.6845 38.1143 34.3845 37.9215 34.3203 37.8465C34.2453 37.7608 32.7671 36.9574 32.0708 36.6254C31.7495 36.4754 31.396 36.304 31.2996 36.2505C31.064 36.1219 30.8926 36.1112 30.8926 36.229Z" fill="#F0AD4E"></path></g></svg>