<svg xmlns="http://www.w3.org/2000/svg" width="50" height="50" viewBox="0 0 50 50" fill="none"><g style="mix-blend-mode:luminosity"><path d="M10.7872 9.17945C10.4307 9.53603 10.5376 10.0709 11.0547 10.6058L11.5539 11.1228L10.8051 11.8359C10.1276 12.4778 10.0741 12.5847 10.2524 12.977C10.502 13.5297 10.0919 14.225 9.37875 14.4033C8.71909 14.5637 8.43383 14.8133 8.43383 15.2234C8.43383 15.5978 8.71909 15.6513 9.43224 15.3839C9.69967 15.2769 9.94927 15.2234 9.98493 15.2769C10.0206 15.3125 9.64619 15.4908 9.14698 15.6513C8.62995 15.8296 7.95245 16.2218 7.61371 16.5606C6.88273 17.3094 6.81141 18.0938 7.36411 19.4845C7.56022 19.9658 7.97028 21.3565 8.27337 22.551C9.41441 27.0795 10.9477 30.253 13.8359 33.9792C15.7436 36.4396 19.2202 38.8465 22.4294 39.8984C26.4765 41.2177 34.1072 41.4138 37.8869 40.3085C38.5466 40.1123 39.2419 40.0054 39.438 40.0767C39.6341 40.1302 40.169 40.0589 40.6504 39.9162C41.1139 39.7914 41.8449 39.5775 42.2728 39.4527C42.9681 39.2744 43.0394 39.2031 42.986 38.7752C42.9325 38.3116 42.879 38.2938 41.6845 38.1868C41.007 38.1333 40.2938 38.0264 40.1155 37.9551C39.9372 37.8659 39.7055 37.9016 39.5628 38.0085C39.3845 38.1512 38.8675 38.1868 37.9048 38.1155C35.9436 37.9551 35.9436 37.9551 36.4963 37.2419C36.7459 36.9032 36.9598 36.4931 36.9598 36.3505C36.9598 35.8869 36.1041 36.0117 35.5514 36.5466C35.2661 36.8318 34.8382 37.2241 34.5886 37.4559L34.1429 37.8837L32.3957 37.4024C29.757 36.707 27.9563 35.7978 26.013 34.211C24.9789 33.3552 22.7503 30.7344 22.055 29.5399C20.8605 27.5252 20.2365 24.7083 19.8442 19.5914C19.6838 17.4342 19.6838 17.0776 19.9334 16.7032C20.2543 16.204 20.2543 16.204 21.3775 16.5427C22.5899 16.9171 23.2674 16.8993 23.196 16.5071C23.1069 16.0614 22.1798 15.4908 20.6109 14.9203C19.8442 14.6529 19.0063 14.2963 18.7567 14.118C18.5071 13.9397 18.097 13.7436 17.8474 13.6901C17.5978 13.6188 17.3482 13.4227 17.2947 13.2444C17.2412 13.0305 16.9381 12.8522 16.4389 12.7274C14.87 12.3351 14.763 12.2817 14.6739 11.729C14.5848 11.2119 14.5313 11.1941 13.515 11.105L12.4453 11.0158L12.4988 10.1779C12.5344 9.50037 12.481 9.30425 12.1957 9.16162C11.7321 8.89419 11.0547 8.91202 10.7872 9.17945ZM12.0531 9.3934C12.1957 9.73214 12.0352 9.85695 11.4291 9.85695C10.9655 9.85695 10.7694 9.55386 11.0547 9.2686C11.2686 9.05465 11.9639 9.1438 12.0531 9.3934ZM13.3367 11.6398C13.2833 11.729 13.1585 11.8181 13.0515 11.8181C12.9623 11.8181 12.891 11.729 12.891 11.6398C12.891 11.5328 13.0158 11.4615 13.1763 11.4615C13.3189 11.4615 13.3902 11.5328 13.3367 11.6398ZM14.4956 12.977C14.6561 13.1553 14.6739 13.2444 14.5313 13.2444C14.4243 13.2444 14.3708 13.3692 14.4243 13.5118C14.6026 13.9754 13.8359 13.8149 13.4437 13.3157C13.2298 13.0483 13.0693 12.763 13.0693 12.6561C13.0693 12.4065 14.1569 12.6561 14.4956 12.977ZM13.1406 13.4049C13.1941 13.494 12.8554 13.601 12.3562 13.6366C11.5182 13.6901 11.3577 13.5475 12.0887 13.3692C12.6949 13.2266 13.0515 13.2444 13.1406 13.4049ZM15.8328 13.9576C15.7614 14.0645 15.8149 14.2785 15.9576 14.4389C16.1537 14.7064 16.1537 14.7242 15.8862 14.6172C15.6723 14.5459 15.5653 14.5994 15.5653 14.7777C15.5653 15.2412 15.0305 15.2769 14.5669 14.849C14.3351 14.6172 14.139 14.5103 14.139 14.5994C14.139 14.6885 13.6398 14.7599 13.0336 14.7599C12.4096 14.7599 11.6787 14.8312 11.3756 14.9203C11.0903 15.0095 10.8942 15.0273 10.9477 14.956C11.1081 14.7955 14.87 13.8149 15.4405 13.7971C15.7436 13.7793 15.9041 13.8506 15.8328 13.9576ZM20.3256 15.1343C20.4861 15.5621 19.8264 16.311 19.0419 16.5784C18.1148 16.9171 15.8684 17.345 15.1196 17.345C14.7809 17.345 13.8716 17.6303 13.0871 17.969C11.643 18.6109 11.1795 18.7357 11.3756 18.4147C11.5895 18.076 10.5911 18.2365 10.2345 18.6109C9.9671 18.8961 9.82447 18.9496 9.55704 18.7892C8.93304 18.4682 8.71909 18.0938 8.96869 17.7907C9.14698 17.5768 9.14698 17.5233 8.95086 17.5233C8.48732 17.5233 8.27337 17.8086 8.11291 18.5039L7.95245 19.217L7.73851 18.7178C7.47108 18.0582 7.73851 17.5768 8.52297 17.238C9.3431 16.8993 9.62836 16.9171 9.77099 17.3272C9.89579 17.7373 10.7694 18.0938 11.126 17.8799C11.3221 17.7551 11.3043 17.7016 11.0725 17.6125C10.912 17.5411 10.8229 17.3807 10.8764 17.238C10.9299 17.0954 10.8764 16.9884 10.7694 16.9884C10.3593 16.9884 10.5911 16.6319 11.0725 16.5249C11.3399 16.4714 12.5523 16.1505 13.7825 15.8117C15.0126 15.4908 16.3141 15.1699 16.6707 15.0986C17.2769 15.0095 17.3125 15.0273 17.2234 15.366C17.1521 15.6513 17.2056 15.7404 17.5087 15.7404C17.9009 15.7404 18.0079 15.4908 17.687 15.2769C17.3125 15.0451 17.9544 14.849 19.0954 14.849C19.9512 14.849 20.2365 14.9203 20.3256 15.1343ZM22.8038 16.1862C22.9821 16.3288 23.0534 16.4536 22.9464 16.4536C22.8573 16.4536 22.6077 16.3288 22.4116 16.1862C22.2333 16.0435 22.162 15.9187 22.2689 15.9187C22.3581 15.9187 22.6077 16.0435 22.8038 16.1862ZM19.2915 17.4163C19.4163 17.559 19.5055 18.2008 19.5055 18.8961C19.5055 20.6968 19.6125 22.3906 19.7551 22.7293C19.8264 22.9076 19.8264 23.175 19.7729 23.3355C19.7016 23.4959 19.7551 23.7455 19.8799 23.8882C20.0582 24.1021 20.0403 24.2091 19.7907 24.3874C19.6303 24.5122 19.4877 24.7083 19.4877 24.8331C19.4877 25.0114 19.5411 25.0114 19.7551 24.8331C19.969 24.6548 20.0225 24.7083 20.1117 25.1362C20.183 25.4036 20.4148 26.3129 20.6465 27.133C20.9318 28.2206 21.0031 28.7198 20.8783 28.9337C20.7357 29.1477 20.8248 29.3438 21.2527 29.7717C21.5558 30.0748 21.8054 30.2352 21.8054 30.1282C21.8054 29.8608 22.3224 30.4492 23.1782 31.6972C23.5704 32.2855 24.0696 32.9274 24.2836 33.1056C24.4797 33.3018 24.658 33.587 24.658 33.7653C24.658 34.4071 26.9044 36.0652 27.7602 36.0652C27.885 36.0652 28.402 36.3861 28.8656 36.7784C29.347 37.1706 30.0066 37.545 30.3454 37.5985C30.6841 37.6698 31.1655 37.8303 31.4151 37.9551C31.6647 38.0977 32.1461 38.2581 32.467 38.3116C33.198 38.4543 33.3406 38.6682 32.7879 38.8108C32.3244 38.9178 31.1298 38.6504 29.3826 38.0264C28.3664 37.652 27.8137 37.6341 27.0827 37.9372C26.8153 38.062 26.7796 38.0264 26.8866 37.8303C26.9757 37.6876 26.9044 37.7055 26.6726 37.8837C26.2091 38.2938 25.9595 38.2938 25.7277 37.8481C25.6207 37.652 25.3533 37.4915 25.1394 37.4915C24.551 37.4915 24.3193 37.2597 24.3727 36.7605C24.4262 36.3148 24.3727 36.2792 23.5348 36.19C22.2155 36.0296 21.1279 35.1738 22.2689 35.1738C22.5542 35.1738 22.679 35.2451 22.5899 35.3699C22.4294 35.6552 22.8573 35.8869 23.5883 35.8869H24.1944L23.4991 35.1559C22.6077 34.2467 21.6806 33.7475 21.0566 33.8723C20.6109 33.9614 19.7194 33.6405 19.8977 33.4444C19.9512 33.4087 20.1651 33.4622 20.3791 33.5692C20.5752 33.6762 20.8961 33.7475 21.0566 33.7118C21.2527 33.6762 21.0744 33.5157 20.5574 33.2661C20.1117 33.07 19.3629 32.7134 18.8993 32.4995C18.4358 32.2855 18.097 32.0537 18.1505 32.0003C18.204 31.9468 18.6497 32.0894 19.1311 32.3212C19.7907 32.6421 20.076 32.6956 20.2365 32.5351C20.5039 32.2677 19.9869 31.4832 19.345 31.198C19.0776 31.091 18.6497 30.8236 18.3823 30.6096C17.8831 30.2174 17.8831 30.1996 18.2931 30.1461C18.8815 30.0569 18.9171 29.3081 18.3288 28.7554L17.8474 28.3097L17.9722 28.7911C18.1327 29.4151 17.9366 29.4507 17.7048 28.8446C17.4908 28.2919 17.0273 28.0779 16.7777 28.4167C16.6529 28.6128 16.5816 28.6128 16.5103 28.4345C16.4746 28.3275 16.3498 28.274 16.2607 28.3275C15.9932 28.488 15.5653 28.0423 15.5653 27.6144C15.5653 27.4004 15.3336 26.9904 15.0305 26.7051C14.3708 26.0811 14.353 25.9207 14.9413 26.0455C15.494 26.1346 15.5297 25.778 15.0483 25.1718C14.7274 24.7618 14.6917 24.7618 14.3708 25.0649C13.8716 25.4928 13.7825 25.4571 13.7825 24.7261C13.7825 24.3517 13.7111 24.1378 13.6042 24.2091C13.515 24.2626 13.4259 24.5478 13.4259 24.8509C13.4259 25.2253 13.3367 25.368 13.1228 25.368C12.891 25.368 12.9623 25.5106 13.4081 25.9741C13.9964 26.5803 13.9964 26.5803 13.622 26.7943C13.2833 26.9725 13.2119 26.9191 12.891 26.1703C12.6949 25.7245 12.4275 25.368 12.2848 25.368C12.1244 25.368 12.0709 25.2432 12.1244 25.0114C12.1957 24.7796 12.0709 24.53 11.8035 24.3161L11.3756 23.9595L11.7678 23.5673C12.16 23.175 12.1779 23.175 12.5344 23.4959C12.784 23.7277 12.8375 23.8703 12.6949 23.9595C12.4453 24.1021 12.6236 25.0114 12.891 25.0114C12.998 25.0114 13.0693 24.6548 13.0693 24.2269C13.0693 23.389 12.6414 22.8719 11.9818 22.8719C11.8213 22.8719 11.5895 22.7471 11.4647 22.6045C11.1795 22.2479 11.7321 21.4991 12.4453 21.303C13.0158 21.1425 13.0693 20.8929 12.8019 19.7876C12.6771 19.3418 12.7127 19.3062 13.2298 19.3062C13.9429 19.3062 14.4956 19.0209 14.4956 18.6465C14.4956 18.4682 14.6026 18.3969 14.8522 18.4682C15.0483 18.5217 15.3336 18.4504 15.4762 18.2899C15.6545 18.1117 15.9219 18.076 16.2785 18.1473C16.7064 18.2365 16.7955 18.2186 16.7064 17.9869C16.6351 17.7907 16.7777 17.7016 17.2947 17.6125C17.6691 17.5411 18.1683 17.4342 18.4179 17.345C19.0419 17.1311 19.0598 17.1311 19.2915 17.4163ZM12.5166 19.948C12.6949 20.1085 12.267 20.3759 11.857 20.3581C11.5895 20.3581 11.4825 20.3046 11.6073 20.2511C11.7856 20.1798 11.7678 20.0907 11.5182 19.9124C11.2329 19.6628 11.2508 19.6628 11.8213 19.7697C12.16 19.8232 12.481 19.9124 12.5166 19.948ZM10.5733 20.3759C10.5733 20.4651 10.502 20.5542 10.4128 20.5542C10.3058 20.5542 10.181 20.4651 10.1276 20.3759C10.0741 20.2689 10.1454 20.1976 10.288 20.1976C10.4485 20.1976 10.5733 20.2689 10.5733 20.3759ZM10.5733 21.8022C10.8051 21.9448 10.8051 21.9805 10.5376 21.9805C10.3772 21.9805 10.181 21.8914 10.1276 21.8022C9.98493 21.5704 10.2167 21.5704 10.5733 21.8022ZM9.2183 22.444C9.27178 22.5867 9.25395 22.658 9.14698 22.6045C9.04001 22.551 8.96869 22.4262 8.96869 22.3192C8.96869 22.0696 9.09349 22.1231 9.2183 22.444ZM10.5733 22.5154C10.5733 22.6045 10.4485 22.6402 10.3058 22.5867C10.1632 22.5154 10.0384 22.444 10.0384 22.4084C10.0384 22.3727 10.1632 22.3371 10.3058 22.3371C10.4485 22.3371 10.5733 22.4084 10.5733 22.5154ZM10.1454 25.1184C10.0919 25.261 10.1276 25.5106 10.2167 25.6889C10.502 26.2059 10.9299 27.3826 10.8585 27.4539C10.7694 27.5609 9.14698 24.3696 9.14698 24.0843C9.16481 23.9417 9.25395 23.9773 9.43224 24.2091C9.69967 24.5478 9.69967 24.5478 9.5927 24.0308C9.48573 23.5316 9.50356 23.5316 9.86013 24.1734C10.0741 24.5657 10.1989 24.9757 10.1454 25.1184ZM14.9592 27.0974C15.0126 27.3826 15.2801 27.8996 15.5297 28.274C15.7793 28.6306 15.9397 28.9872 15.8684 29.0407C15.8149 29.0942 15.2622 28.8802 14.6561 28.5593C13.5863 28.0244 13.0871 27.6144 13.0693 27.2578C13.0693 27.0974 13.7646 27.2043 14.3886 27.4361C14.6739 27.5431 14.7096 27.5074 14.6382 27.0974C14.5134 26.4555 14.8165 26.4733 14.9592 27.0974ZM10.9299 28.2206C11.2329 28.8089 11.857 29.7895 12.3205 30.3778C13.3902 31.7507 13.3724 31.7507 13.6933 32.5529C13.8538 32.9274 14.1569 33.3018 14.3708 33.3731C14.5848 33.4622 14.8878 33.7296 15.0126 33.9971C15.1553 34.2467 15.387 34.4963 15.5475 34.5498C15.708 34.6033 15.9932 34.8707 16.1893 35.1738C16.3855 35.459 16.6351 35.7086 16.7599 35.7086C17.0451 35.7086 17.99 36.5466 17.8652 36.6714C17.6513 36.9032 16.7599 36.404 15.7258 35.4769C14.1212 34.0684 9.61053 27.1508 10.3058 27.1508C10.3593 27.1508 10.6268 27.6322 10.9299 28.2206ZM16.7064 29.7895C16.7955 29.8251 16.7242 29.95 16.5459 30.0569C16.2963 30.1996 16.2785 30.253 16.4746 30.3778C16.6707 30.5026 16.6885 30.5383 16.4924 30.5383C16.332 30.5383 16.4389 30.7879 16.7599 31.198C17.2769 31.8576 17.5978 32.4995 17.4374 32.4995C17.3839 32.4995 16.849 32.2142 16.2428 31.8755C15.6188 31.5367 15.2266 31.2514 15.3692 31.2514C15.5653 31.2514 15.5475 31.1623 15.2979 30.8949C15.1196 30.6988 15.0483 30.5383 15.1196 30.5383C15.2088 30.5383 15.1909 30.4492 15.084 30.3422C14.7274 29.9856 15.387 29.4329 16.0111 29.5755C16.2963 29.629 16.6172 29.736 16.7064 29.7895ZM18.6854 33.0343C18.7388 33.1413 18.6675 33.1591 18.5249 33.1056C18.204 32.9808 18.1505 32.856 18.4001 32.856C18.5071 32.856 18.6319 32.9274 18.6854 33.0343ZM18.2396 33.694L18.8637 33.9614L18.4001 34.1219C17.8118 34.3358 16.5637 33.9258 16.4924 33.4979C16.4389 33.2304 16.5103 33.1948 17.0273 33.3018C17.3482 33.3731 17.9009 33.5514 18.2396 33.694ZM19.7194 33.8188C20.4504 34.1575 20.5396 34.2823 20.076 34.2823C19.8977 34.2823 19.5233 34.0684 19.2202 33.8188C18.6497 33.3374 18.6675 33.3374 19.7194 33.8188ZM20.4682 34.7815C20.4148 34.835 20.2721 34.7815 20.1473 34.6567C19.9869 34.4785 20.0047 34.4606 20.2543 34.5676C20.4326 34.6211 20.5217 34.7281 20.4682 34.7815ZM20.8248 35.7443C20.9496 35.8691 20.8605 35.8869 20.5574 35.7978C20.3078 35.7265 20.0403 35.5838 19.9334 35.4947C19.8086 35.3699 19.8977 35.3521 20.2008 35.4412C20.4504 35.5125 20.7357 35.6552 20.8248 35.7443ZM21.8945 36.7784C21.948 36.8675 21.9124 36.9567 21.8232 36.9567C21.7163 36.9567 21.6271 36.8675 21.6271 36.7784C21.6271 36.6714 21.6628 36.6001 21.6984 36.6001C21.7519 36.6001 21.8411 36.6714 21.8945 36.7784ZM20.7357 38.276C21.431 38.6147 22.1441 38.8465 22.3046 38.793C22.4651 38.7217 22.5364 38.7574 22.4651 38.8643C22.162 39.3457 26.2448 40.3798 28.3485 40.3441C29.8996 40.3263 32.3065 40.4511 32.4135 40.5581C32.6274 40.772 30.488 40.8611 28.7943 40.7007C25.4425 40.3798 23.3743 39.9697 21.7163 39.31C20.0403 38.6504 18.8815 38.0264 19.2737 38.0264C19.3985 38.0264 19.452 37.9372 19.3985 37.8481C19.2381 37.5807 19.345 37.6163 20.7357 38.276ZM28.9012 38.5256C28.8656 38.7217 28.6695 38.8287 28.3485 38.8287C27.7602 38.8465 27.7424 38.6682 28.2594 38.3116C28.6873 38.0085 28.9904 38.0977 28.9012 38.5256ZM29.5966 38.686C29.4361 38.8465 29.24 38.9178 29.1687 38.8465C29.0974 38.7752 29.1508 38.6504 29.2935 38.5612C29.7392 38.276 29.9175 38.3651 29.5966 38.686ZM36.8707 38.5434C37.3342 38.6504 37.3521 38.686 37.0668 38.793C36.6211 38.9713 34.0894 38.7395 34.2142 38.5434C34.3212 38.3651 36.0684 38.3651 36.8707 38.5434ZM41.8271 38.686C41.5953 38.7217 41.2031 38.7217 40.9356 38.686C40.6504 38.6504 40.8465 38.6147 41.3279 38.6147C41.8271 38.6147 42.041 38.6504 41.8271 38.686ZM29.7392 39.0961C29.6857 39.1852 29.5431 39.2744 29.4539 39.2744C29.347 39.2744 29.3291 39.1852 29.3826 39.0961C29.4361 38.9891 29.5787 38.9178 29.6679 38.9178C29.7748 38.9178 29.7927 38.9891 29.7392 39.0961ZM24.7471 39.3814C25.1394 39.4348 25.5851 39.5775 25.7277 39.6666C26.1734 39.9519 24.6402 39.7023 23.9448 39.3814C23.6061 39.2209 23.4813 39.1318 23.6774 39.1852C23.8735 39.2209 24.3549 39.31 24.7471 39.3814ZM30.7198 39.2744C30.7198 39.3635 30.6306 39.4527 30.5237 39.4527C30.4345 39.4527 30.3989 39.3635 30.4523 39.2744C30.5058 39.1674 30.595 39.0961 30.6485 39.0961C30.6841 39.0961 30.7198 39.1674 30.7198 39.2744ZM31.7004 39.4527C31.6469 39.5418 31.5042 39.631 31.4151 39.631C31.3081 39.631 31.2903 39.5418 31.3438 39.4527C31.3973 39.3457 31.5399 39.2744 31.629 39.2744C31.736 39.2744 31.7538 39.3457 31.7004 39.4527Z" fill="#2E2E2E"></path><path d="M14.0676 16.0803C13.9962 16.1695 14.2815 16.2051 14.7094 16.1516C15.7256 16.009 15.797 15.9199 14.8877 15.9199C14.4955 15.9199 14.121 15.9912 14.0676 16.0803Z" fill="#2E2E2E"></path><path d="M12.7129 16.8115C12.7129 16.9006 12.8733 16.9897 13.0873 16.9897C13.2834 16.9897 13.3904 16.9006 13.3369 16.8115C13.2834 16.7045 13.1051 16.6332 12.9625 16.6332C12.8199 16.6332 12.7129 16.7045 12.7129 16.8115Z" fill="#2E2E2E"></path><path d="M12.0897 17.1475C11.9827 17.3258 12.5354 17.7002 12.9098 17.7002C13.0524 17.7002 12.9989 17.5754 12.8028 17.3436C12.4462 16.9514 12.2501 16.8979 12.0897 17.1475Z" fill="#2E2E2E"></path><path d="M18.5965 19.0566C18.3291 19.7341 18.3826 20.376 18.6857 20.376C18.8283 20.376 18.9531 20.3047 18.9531 20.2155C18.9531 20.1264 19.0066 19.8946 19.0601 19.7163C19.1492 19.4489 19.1314 19.4311 18.9709 19.6628C18.8105 19.8768 18.7926 19.7876 18.8818 19.2528C19.0066 18.4861 18.8461 18.3792 18.5965 19.0566Z" fill="#2E2E2E"></path><path d="M14.4422 20.7328C14.4957 20.9467 14.6739 21.1785 14.8522 21.2676C15.1197 21.4103 15.1553 21.3746 15.084 21.0893C15.0305 20.8754 14.8522 20.6436 14.6739 20.5545C14.4065 20.4119 14.3709 20.4475 14.4422 20.7328Z" fill="#2E2E2E"></path><path d="M13.8733 21.6082C13.5524 21.733 13.5702 21.7865 14.1407 22.1431C14.9965 22.6601 15.2461 22.6067 14.5865 22.054L14.0516 21.5904L14.5865 21.6974C14.9787 21.7865 15.05 21.7687 14.8539 21.6261C14.5508 21.43 14.3725 21.4121 13.8733 21.6082Z" fill="#2E2E2E"></path><path d="M13.3362 22.3368C13.5145 22.5329 13.782 22.6934 13.9424 22.6934C14.1564 22.6755 14.1207 22.6042 13.7998 22.3368C13.2649 21.8732 12.9262 21.8732 13.3362 22.3368Z" fill="#2E2E2E"></path><path d="M13.1602 22.6937C13.2672 22.872 13.2137 22.9076 12.9641 22.8006C12.6967 22.6937 12.7145 22.7472 13.0711 23.1394C13.3563 23.4425 13.5525 23.5316 13.6773 23.4068C13.8912 23.1929 13.6416 22.6758 13.2494 22.551C13.1067 22.4976 13.0711 22.551 13.1602 22.6937Z" fill="#2E2E2E"></path><path d="M17.8828 24.139C17.8828 24.8878 18.1146 25.3691 18.4712 25.3691C18.7029 25.3691 18.4533 24.139 18.1324 23.6932C17.9006 23.3545 17.8828 23.3901 17.8828 24.139Z" fill="#2E2E2E"></path><path d="M15.548 24.0656C15.8333 24.6182 15.7976 24.7787 15.4767 24.3686C15.138 23.9051 15.138 24.3508 15.4767 25.0105C15.7798 25.5988 16.3503 25.7236 16.5286 25.2423C16.6178 25.0461 16.4395 24.743 15.9937 24.3152C15.548 23.8694 15.4054 23.7981 15.548 24.0656Z" fill="#2E2E2E"></path><path d="M20.398 28.3276C20.398 28.5237 20.4515 28.5772 20.505 28.4346C20.5585 28.3098 20.5407 28.1493 20.4872 28.0958C20.4337 28.0245 20.3802 28.1315 20.398 28.3276Z" fill="#2E2E2E"></path><path d="M23.0338 32.8034C23.2477 33.2312 23.5865 33.4987 23.5865 33.2491C23.5865 33.1599 23.4082 32.946 23.2121 32.7499C22.8198 32.4111 22.8198 32.4111 23.0338 32.8034Z" fill="#2E2E2E"></path><path d="M20.1997 38.4705C20.6454 38.7023 21.0911 38.8984 21.1803 38.8984C21.2872 38.8984 21.002 38.7023 20.5563 38.4705C20.1105 38.2388 19.6826 38.0427 19.5757 38.0427C19.4865 38.0427 19.754 38.2388 20.1997 38.4705Z" fill="#2E2E2E"></path></g></svg>