<svg xmlns="http://www.w3.org/2000/svg" width="50" height="50" viewBox="0 0 50 50" fill="none"><g style="mix-blend-mode:luminosity"><g clip-path="url(#clip0_57627_7984)"><path d="M8.0193 21.7411C7.94141 21.7411 7.92193 21.7021 7.96088 21.6437L8.36984 21.1179C8.40879 21.0595 8.50616 21.0205 8.58405 21.0205H15.5363C15.6142 21.0205 15.6337 21.0789 15.5948 21.1374L15.2637 21.6437C15.2248 21.7021 15.1274 21.7605 15.069 21.7605L8.0193 21.7411Z" fill="#00ACD7"></path><path d="M5.0779 23.5311C5 23.5311 4.98053 23.4921 5.01947 23.4337L5.42843 22.9079C5.46738 22.8495 5.56475 22.8105 5.64265 22.8105H14.5229C14.6008 22.8105 14.6397 22.869 14.6203 22.9274L14.4645 23.3948C14.445 23.4727 14.3671 23.5116 14.2892 23.5116L5.0779 23.5311Z" fill="#00ACD7"></path><path d="M9.78883 25.3241C9.71094 25.3241 9.69146 25.2656 9.73041 25.2072L10.0031 24.7204C10.042 24.6619 10.1199 24.6035 10.1978 24.6035H14.0926C14.1705 24.6035 14.2095 24.6619 14.2095 24.7398L14.1705 25.2072C14.1705 25.2851 14.0926 25.3435 14.0342 25.3435L9.78883 25.3241Z" fill="#00ACD7"></path><path d="M30.0057 21.388C28.7788 21.6996 27.9414 21.9333 26.734 22.2449C26.4419 22.3228 26.4225 22.3423 26.1693 22.0502C25.8772 21.7191 25.663 21.5049 25.254 21.3101C24.0271 20.7064 22.8392 20.8817 21.7292 21.6022C20.4049 22.4591 19.7233 23.7249 19.7428 25.3023C19.7623 26.8603 20.8334 28.1456 22.3718 28.3598C23.6961 28.5351 24.8061 28.0677 25.6824 27.0745C25.8577 26.8603 26.0135 26.6266 26.2082 26.354C25.5072 26.354 24.6308 26.354 22.4497 26.354C22.0408 26.354 21.9434 26.1008 22.0797 25.7697C22.3329 25.166 22.8003 24.1534 23.0729 23.647C23.1313 23.5302 23.2676 23.3354 23.5598 23.3354C24.5529 23.3354 28.2141 23.3354 30.6484 23.3354C30.6094 23.8613 30.6094 24.3871 30.5315 24.9129C30.3173 26.315 29.7915 27.6003 28.9346 28.7298C27.5325 30.5799 25.7019 31.7288 23.3845 32.0404C21.476 32.2936 19.7039 31.9236 18.1459 30.7551C16.7048 29.6646 15.8869 28.2235 15.6727 26.4318C15.4195 24.3092 16.0427 22.4007 17.328 20.7259C18.7107 18.9148 20.5413 17.7658 22.7808 17.3569C24.6114 17.0258 26.364 17.24 27.9414 18.3111C28.9736 18.9927 29.7136 19.9275 30.2005 21.057C30.3173 21.2322 30.2394 21.3296 30.0057 21.388Z" fill="#00ACD7"></path><path d="M36.451 32.1581C34.6789 32.1191 33.0625 31.6128 31.6993 30.4444C30.5504 29.4512 29.8298 28.1853 29.5961 26.6858C29.2456 24.4853 29.8493 22.5378 31.1735 20.8046C32.5951 18.9351 34.3089 17.9614 36.6263 17.5524C38.6127 17.2019 40.4822 17.3966 42.1765 18.5456C43.7149 19.5972 44.6692 21.0188 44.9223 22.8884C45.2534 25.5174 44.4939 27.6595 42.6828 29.4901C41.3975 30.7949 39.8201 31.6128 38.009 31.9828C37.4832 32.0802 36.9574 32.0997 36.451 32.1581ZM41.0859 24.2905C41.0664 24.0373 41.0664 23.8426 41.0275 23.6479C40.6769 21.7199 38.9048 20.6294 37.0547 21.0578C35.2436 21.4668 34.0752 22.6157 33.6468 24.4463C33.2962 25.9653 34.0362 27.5038 35.4384 28.1269C36.5095 28.5943 37.5805 28.5359 38.6127 28.0101C40.1511 27.2116 40.9885 25.9653 41.0859 24.2905Z" fill="#00ACD7"></path></g></g><defs><clipPath id="clip0_57627_7984"><rect width="40" height="14.9367" fill="white" transform="translate(5 17.2222)"></rect></clipPath></defs></svg>