<svg xmlns="http://www.w3.org/2000/svg" width="50" height="50" viewBox="0 0 50 50" fill="none"><g style="mix-blend-mode:luminosity"><g clip-path="url(#clip0_57627_8092)"><path fill-rule="evenodd" clip-rule="evenodd" d="M42.7003 15.1441C42.7133 15.1921 42.7199 15.2416 42.7201 15.2913V23.0186C42.7201 23.1178 42.6939 23.2152 42.6442 23.3011C42.5945 23.3869 42.523 23.4581 42.4369 23.5074L35.9513 27.2415V34.6427C35.9513 34.8441 35.8442 35.03 35.6696 35.1315L22.1313 42.925C22.1003 42.9426 22.0665 42.9538 22.0327 42.9658C22.02 42.97 22.008 42.9778 21.9947 42.9813C21.9 43.0062 21.8005 43.0062 21.7059 42.9813C21.6904 42.9771 21.6763 42.9686 21.6615 42.963C21.6306 42.9517 21.5982 42.9419 21.5686 42.925L8.03312 35.1315C7.94713 35.0821 7.87569 35.0109 7.82598 34.9251C7.77628 34.8393 7.75007 34.7419 7.75 34.6427V11.4608C7.75 11.4101 7.75704 11.3608 7.76972 11.3129C7.77395 11.2967 7.78381 11.2819 7.78944 11.2657C7.8 11.2361 7.80986 11.2058 7.82536 11.1784C7.83592 11.1601 7.85142 11.1453 7.86409 11.1284C7.88029 11.1058 7.89508 11.0826 7.9141 11.0629C7.93029 11.0467 7.95142 11.0347 7.96973 11.0206C7.99016 11.0037 8.00847 10.9854 8.03171 10.972H8.03241L14.8005 7.07527C14.8862 7.02595 14.9833 7 15.0822 7C15.1811 7 15.2782 7.02595 15.3639 7.07527L22.132 10.972H22.1334C22.1559 10.9861 22.175 11.0037 22.1954 11.0199C22.2137 11.034 22.2341 11.0467 22.2503 11.0622C22.27 11.0826 22.2841 11.1058 22.301 11.1284C22.313 11.1453 22.3292 11.1601 22.3391 11.1784C22.3553 11.2065 22.3644 11.2361 22.3757 11.2657C22.3813 11.2819 22.3912 11.2967 22.3954 11.3136C22.4084 11.3616 22.415 11.4111 22.4151 11.4608V25.94L28.0549 22.6926V15.2906C28.0549 15.2413 28.062 15.1913 28.0747 15.1441C28.0796 15.1272 28.0888 15.1125 28.0944 15.0963C28.1057 15.0667 28.1155 15.0364 28.131 15.0089C28.1416 14.9906 28.1571 14.9758 28.169 14.9589C28.1859 14.9364 28.2 14.9131 28.2197 14.8934C28.2359 14.8772 28.2564 14.8652 28.2747 14.8512C28.2958 14.8343 28.3141 14.816 28.3367 14.8026H28.3374L35.1061 10.9058C35.1918 10.8564 35.289 10.8304 35.3879 10.8304C35.4867 10.8304 35.5839 10.8564 35.6696 10.9058L42.4376 14.8026C42.4616 14.8167 42.4799 14.8343 42.501 14.8505C42.5186 14.8645 42.5391 14.8772 42.5553 14.8927C42.575 14.9131 42.5891 14.9364 42.606 14.9589C42.6186 14.9758 42.6341 14.9906 42.644 15.0089C42.6602 15.0364 42.6693 15.0667 42.6806 15.0963C42.687 15.1125 42.6961 15.1272 42.7003 15.1441ZM41.5918 22.6926V16.2668L39.2233 17.6302L35.9513 19.5142V25.94L41.5925 22.6926H41.5918ZM34.8237 34.3166V27.8866L31.6052 29.7247L22.4144 34.9702V41.4608L34.8237 34.3166ZM8.87825 12.4362V34.3166L21.2862 41.4601V34.9709L14.804 31.3023L14.8019 31.3009L14.7991 31.2995C14.7773 31.2868 14.7589 31.2685 14.7385 31.253C14.7209 31.2389 14.7005 31.2277 14.685 31.2122L14.6836 31.2101C14.6653 31.1925 14.6526 31.1706 14.6371 31.1509C14.623 31.1319 14.6061 31.1157 14.5948 31.096L14.5941 31.0939C14.5815 31.0727 14.5737 31.0474 14.5646 31.0234C14.5554 31.0023 14.5434 30.9826 14.5378 30.96V30.9593C14.5308 30.9326 14.5293 30.9044 14.5265 30.8769C14.5237 30.8558 14.5181 30.8347 14.5181 30.8136V30.8121V15.6836L11.2467 13.799L8.87825 12.4369V12.4362ZM15.0829 8.21478L9.44378 11.4608L15.0815 14.7068L20.7199 11.4601L15.0815 8.21478H15.0829ZM18.0155 28.4725L21.2869 26.5893V12.4362L18.9184 13.7997L15.6463 15.6836V29.8367L18.0155 28.4725ZM35.3879 12.0453L29.7494 15.2913L35.3879 18.5373L41.0256 15.2906L35.3879 12.0453ZM34.8237 19.5142L31.5517 17.6302L29.1832 16.2668V22.6926L32.4545 24.5758L34.8237 25.94V19.5142ZM21.8496 33.9948L30.1199 29.2733L34.254 26.914L28.6198 23.6701L22.1327 27.4049L16.2203 30.8086L21.8496 33.9948Z" fill="#FF2D20"></path></g></g><defs><clipPath id="clip0_57627_8092"><rect width="36" height="36" fill="white" transform="translate(7 7)"></rect></clipPath></defs></svg>