<svg xmlns="http://www.w3.org/2000/svg" width="50" height="50" viewBox="0 0 50 50" fill="none"><g style="mix-blend-mode:luminosity"><path d="M7 25C7 34.9411 15.0589 43 25 43C34.9411 43 43 34.9411 43 25C43 15.0589 34.9411 7 25 7C15.0589 7 7 15.0589 7 25Z" fill="#00ED64"></path><path d="M26.7616 16.1754C25.7805 15.0011 24.9356 13.8084 24.763 13.5606C24.7448 13.5423 24.7177 13.5423 24.6994 13.5606C24.5269 13.8084 23.6819 15.0011 22.7008 16.1754C14.2796 27.0107 24.0271 34.3229 24.0271 34.3229L24.1088 34.378C24.1817 35.5065 24.3634 37.1305 24.3634 37.1305H24.7268H25.0902C25.0902 37.1305 25.2718 35.5156 25.3445 34.378L25.4262 34.3138C25.4353 34.3229 35.1829 27.0107 26.7616 16.1754ZM24.7268 34.167C24.7268 34.167 24.2905 33.7907 24.1726 33.5982V33.5798L24.6994 21.7812C24.6994 21.7445 24.7539 21.7445 24.7539 21.7812L25.2807 33.5798V33.5982C25.1628 33.7907 24.7268 34.167 24.7268 34.167Z" fill="#001E2B"></path></g></svg>