<svg xmlns="http://www.w3.org/2000/svg" width="50" height="50" viewBox="0 0 50 50" fill="none"><g style="mix-blend-mode:luminosity"><g clip-path="url(#clip0_57627_8113)"><path d="M40.1385 34.5923C38.1812 34.5435 36.6643 34.7393 35.392 35.2774C35.025 35.4242 34.4378 35.4243 34.3888 35.8891C34.5847 36.0849 34.6091 36.403 34.7804 36.672C35.0742 37.1612 35.5877 37.822 36.0527 38.1645C36.5664 38.5559 37.0802 38.9473 37.6184 39.2899C38.5726 39.8772 39.6492 40.2196 40.5789 40.8068C41.1173 41.1491 41.6553 41.5898 42.1936 41.9568C42.4628 42.1523 42.6339 42.4705 42.9765 42.5928V42.5195C42.8052 42.2992 42.7562 41.9812 42.5851 41.7365C42.3406 41.4918 42.0958 41.2716 41.8511 41.0269C41.1415 40.0729 40.2608 39.241 39.3066 38.5559C38.5238 38.0177 36.811 37.2837 36.493 36.3784C36.493 36.3784 36.4685 36.354 36.444 36.3296C36.9823 36.2806 37.6184 36.0849 38.1323 35.938C38.9642 35.7178 39.7226 35.7668 40.5789 35.5466C40.9702 35.4487 41.3618 35.3264 41.7532 35.2041V34.984C41.313 34.5435 40.9948 33.9564 40.5299 33.5404C39.2822 32.4637 37.912 31.4118 36.493 30.5311C35.7345 30.0418 34.7558 29.7236 33.9485 29.3078C33.655 29.1608 33.1655 29.0876 32.9944 28.8429C32.5539 28.3046 32.3092 27.5952 31.9912 26.959C31.2819 25.6132 30.5966 24.121 29.985 22.702C29.5448 21.7478 29.2756 20.7935 28.7373 19.9128C26.2173 15.7536 23.4771 13.2336 19.2689 10.7625C18.3636 10.2488 17.2872 10.0285 16.1373 9.75944C15.5258 9.73488 14.914 9.68608 14.3023 9.66152C13.911 9.49022 13.5194 9.02547 13.1768 8.80521C11.7825 7.92434 8.18585 6.01618 7.15825 8.53615C6.49764 10.1264 8.13689 11.6922 8.69957 12.4997C9.11568 13.0623 9.65381 13.6984 9.94743 14.3346C10.1187 14.7503 10.1675 15.1909 10.3388 15.6313C10.7304 16.7075 11.0972 17.9066 11.6111 18.9098C11.8803 19.4235 12.1738 19.9618 12.5164 20.4265C12.7121 20.6956 13.0545 20.8181 13.128 21.2585C12.7856 21.7478 12.761 22.4818 12.5652 23.0934C11.6845 25.858 12.027 29.2833 13.2747 31.3139C13.6661 31.9254 14.596 33.2713 15.8437 32.7575C16.9446 32.3171 16.7 30.9225 17.018 29.6992C17.0915 29.4054 17.0426 29.2099 17.1893 29.0142C17.1894 29.0386 17.1893 29.0632 17.1893 29.0632C17.5319 29.7482 17.8743 30.4088 18.1923 31.0938C18.9509 32.2925 20.272 33.5404 21.3729 34.3723C21.9603 34.8125 22.4251 35.571 23.1591 35.8403V35.7667H23.1101C22.9632 35.5465 22.7431 35.4487 22.5474 35.2774C22.107 34.8371 21.6176 34.2988 21.2751 33.8095C20.2477 32.4393 19.3423 30.9225 18.5349 29.3566C18.1435 28.5983 17.801 27.7663 17.4829 27.008C17.336 26.7142 17.336 26.274 17.0914 26.1272C16.7244 26.6654 16.1863 27.1303 15.917 27.7909C15.4524 28.8429 15.4033 30.1396 15.232 31.4852C15.1342 31.5098 15.1831 31.4852 15.1341 31.5342C14.3513 31.3383 14.0821 30.5311 13.7885 29.8459C13.0545 28.1089 12.9322 25.3197 13.5684 23.3137C13.7397 22.7998 14.4736 21.1851 14.18 20.6958C14.0333 20.2308 13.5438 19.9618 13.2747 19.5948C12.9567 19.1299 12.6141 18.5428 12.394 18.0289C11.8068 16.6589 11.5132 15.142 10.8771 13.7718C10.5835 13.1356 10.0698 12.4751 9.65381 11.888C9.18905 11.2274 8.67517 10.7625 8.30817 9.97954C8.186 9.71048 8.01455 9.27012 8.21025 8.9765C8.25921 8.7808 8.35698 8.70744 8.55283 8.65847C8.87086 8.38925 9.77613 8.73184 10.0942 8.87857C10.9994 9.24541 11.7578 9.58815 12.5163 10.1019C12.8588 10.3465 13.2258 10.8114 13.6661 10.9338H14.18C14.9629 11.1049 15.8437 10.9827 16.5776 11.2028C17.8745 11.6186 19.0486 12.2304 20.1008 12.8911C23.3059 14.9217 25.9481 17.8088 27.7342 21.2585C28.0278 21.821 28.15 22.335 28.4192 22.9221C28.9331 24.121 29.5692 25.3443 30.0829 26.5186C30.5966 27.6684 31.0859 28.8429 31.8199 29.7971C32.1871 30.3107 33.6549 30.5799 34.3155 30.8492C34.8048 31.0693 35.5633 31.2651 36.0037 31.5342C36.8354 32.0477 37.6673 32.6351 38.4503 33.1978C38.8418 33.4913 40.065 34.1031 40.1385 34.5923Z" fill="#00546B"></path><path d="M15.1827 13.3311C14.7668 13.3311 14.4733 13.3802 14.1797 13.4535C14.1797 13.4535 14.1797 13.4781 14.1797 13.5025H14.2287C14.4245 13.8939 14.7668 14.1631 15.0114 14.5055C15.2073 14.8969 15.3784 15.2885 15.5743 15.68C15.5987 15.6555 15.6231 15.6311 15.6231 15.6311C15.9658 15.3863 16.137 14.9949 16.137 14.4078C15.9901 14.2365 15.9657 14.0652 15.8433 13.8939C15.6966 13.6491 15.3784 13.5269 15.1827 13.3311Z" fill="#00546B"></path></g></g><defs><clipPath id="clip0_57627_8113"><rect width="36" height="36" fill="white" transform="translate(7 7)"></rect></clipPath></defs></svg>