<svg xmlns="http://www.w3.org/2000/svg" width="50" height="50" viewBox="0 0 50 50" fill="none"><g style="mix-blend-mode:luminosity"><g clip-path="url(#clip0_57627_7942)"><g clip-path="url(#clip1_57627_7942)"><path d="M25 43C34.9411 43 43 34.9411 43 25C43 15.0589 34.9411 7 25 7C15.0589 7 7 15.0589 7 25C7 34.9411 15.0589 43 25 43Z" fill="#475C96"></path><path d="M23.2437 18.25H25.1337L24.5996 21.0897H26.2979C27.2293 21.1096 27.923 21.3178 28.3797 21.7142C28.8453 22.1105 28.9823 22.8641 28.7906 23.9741L27.873 28.925H25.9555L26.832 24.1971C26.9233 23.7014 26.8959 23.3496 26.7499 23.1415C26.6039 22.9334 26.2889 22.8293 25.8049 22.8293L24.2846 22.8145L23.1615 28.925H21.2715L23.2437 18.25Z" fill="white"></path><path fill-rule="evenodd" clip-rule="evenodd" d="M14.5835 21.0898H18.2541C19.3314 21.0996 20.1121 21.4368 20.5961 22.1008C21.08 22.7649 21.2398 23.6717 21.0754 24.8216C21.0117 25.3471 20.87 25.8623 20.6509 26.3679C20.4408 26.8734 20.1488 27.3292 19.7744 27.7357C19.3177 28.251 18.8293 28.5781 18.3088 28.717C17.7884 28.8558 17.2496 28.9251 16.6927 28.9251H15.0492L14.5287 31.75H12.625L14.5835 21.0898ZM15.3642 27.2451L16.1832 22.7996H16.4599C16.5604 22.7996 16.6653 22.7946 16.7749 22.7848C17.5054 22.7749 18.1125 22.8492 18.5965 23.0077C19.0895 23.1663 19.2538 23.766 19.0895 24.8067C18.8888 26.0458 18.4959 26.7693 17.9117 26.9774C17.3274 27.1758 16.5968 27.2698 15.7203 27.2599H15.5286C15.4738 27.2599 15.419 27.2548 15.3642 27.2451Z" fill="white"></path><path fill-rule="evenodd" clip-rule="evenodd" d="M34.4904 21.0898H30.8198L28.8613 31.75H30.7651L31.2856 28.9251H32.9291C33.486 28.9251 34.0247 28.8558 34.5452 28.717C35.0657 28.5781 35.5541 28.251 36.0107 27.7357C36.3851 27.3292 36.6772 26.8734 36.8872 26.3679C37.1063 25.8623 37.248 25.3471 37.3118 24.8216C37.4761 23.6717 37.3165 22.7649 36.8324 22.1008C36.3484 21.4368 35.5678 21.0996 34.4904 21.0898ZM32.4196 22.7996L31.6006 27.2451C31.6554 27.2548 31.7102 27.2599 31.765 27.2599H31.9567C32.8333 27.2698 33.5637 27.1758 34.148 26.9774C34.7323 26.7693 35.1251 26.0458 35.3259 24.8067C35.4903 23.766 35.3259 23.1663 34.8328 23.0077C34.3489 22.8492 33.7418 22.7749 33.0112 22.7848C32.9017 22.7946 32.7968 22.7996 32.6962 22.7996H32.4196Z" fill="white"></path></g></g></g><defs><clipPath id="clip0_57627_7942"><rect width="36" height="36" fill="white" transform="translate(7 7)"></rect></clipPath><clipPath id="clip1_57627_7942"><rect width="36" height="36" fill="white" transform="translate(7 7)"></rect></clipPath></defs></svg>