<svg xmlns="http://www.w3.org/2000/svg" width="50" height="50" viewBox="0 0 50 50" fill="none"><g style="mix-blend-mode:luminosity"><g clip-path="url(#clip0_57627_7936)"><path d="M24.5171 6.74834C23.0489 6.75516 21.6468 6.88038 20.4131 7.09869C16.7787 7.74076 16.1188 9.08467 16.1188 11.5631V14.8363H24.7073V15.9274H16.1188H12.8957C10.3996 15.9274 8.21402 17.4276 7.53039 20.2817C6.74183 23.553 6.70685 25.5944 7.53039 29.0103C8.14089 31.5529 9.59884 33.3645 12.0949 33.3645H15.0478V29.4407C15.0478 26.6059 17.5005 24.1054 20.4131 24.1054H28.9915C31.3795 24.1054 33.2857 22.1393 33.2857 19.7411V11.5631C33.2857 9.23556 31.3222 7.48714 28.9915 7.09869C27.5161 6.85309 25.9853 6.74152 24.5171 6.74834ZM19.8725 9.38093C20.7597 9.38093 21.4841 10.1172 21.4841 11.0225C21.4841 11.9247 20.7597 12.6542 19.8725 12.6542C18.9822 12.6542 18.261 11.9247 18.261 11.0225C18.261 10.1172 18.9822 9.38093 19.8725 9.38093Z" fill="url(#paint0_linear_57627_7936)"></path><path d="M34.3571 15.9272V19.741C34.3571 22.6978 31.8503 25.1864 28.9918 25.1864H20.4134C18.0636 25.1864 16.1191 27.1975 16.1191 29.5507V37.7287C16.1191 40.0562 18.1431 41.4253 20.4134 42.093C23.132 42.8924 25.739 43.0369 28.9918 42.093C31.154 41.467 33.286 40.2071 33.286 37.7287V34.4555H24.7076V33.3644H33.286H37.5803C40.0763 33.3644 41.0064 31.6234 41.8745 29.0101C42.7712 26.3198 42.733 23.7327 41.8745 20.2815C41.2576 17.7967 40.0795 15.9272 37.5803 15.9272H34.3571ZM29.5323 36.6376C30.4227 36.6376 31.1439 37.3671 31.1439 38.2692C31.1439 39.1746 30.4227 39.9109 29.5323 39.9109C28.6452 39.9109 27.9208 39.1746 27.9208 38.2692C27.9208 37.3671 28.6452 36.6376 29.5323 36.6376Z" fill="url(#paint1_linear_57627_7936)"></path></g></g><defs><linearGradient id="paint0_linear_57627_7936" x1="6.92578" y1="6.74805" x2="26.7298" y2="23.6238" gradientUnits="userSpaceOnUse"><stop stop-color="#5A9FD4"></stop><stop offset="1" stop-color="#306998"></stop></linearGradient><linearGradient id="paint1_linear_57627_7936" x1="29.326" y1="37.9941" x2="22.221" y2="28.0379" gradientUnits="userSpaceOnUse"><stop stop-color="#FFD43B"></stop><stop offset="1" stop-color="#FFE873"></stop></linearGradient><clipPath id="clip0_57627_7936"><rect width="36" height="36" fill="white" transform="translate(6.72852 6.75)"></rect></clipPath></defs></svg>