<!DOCTYPE svg PUBLIC "-//W3C//DTD SVG 1.1//EN" "http://www.w3.org/Graphics/SVG/1.1/DTD/svg11.dtd">
<!-- Uploaded to: SVG Repo, www.svgrepo.com, Transformed by: SVG Repo Mixer Tools -->
<svg fill="#f41515" version="1.1" xmlns="http://www.w3.org/2000/svg" xmlns:xlink="http://www.w3.org/1999/xlink" width="800px" height="800px" viewBox="0 0 512 512" enable-background="new 0 0 512 512" xml:space="preserve" stroke="#f41515">
<g id="SVGRepo_bgCarrier" stroke-width="0"/>
<g id="SVGRepo_tracerCarrier" stroke-linecap="round" stroke-linejoin="round"/>
<g id="SVGRepo_iconCarrier"> <g id="5151e0c8492e5103c096af88a51f6584"> <path display="inline" d="M511.5,101.762l-11.253,16.879c0,0-28.133-31.879-79.694-26.257 c-51.574,5.626-142.517,58.136-156.585,173.461c-14.064,115.324,41.257,240.965,41.257,240.965H55.821 c0,0-6.562-41.256,9.377-120.014c15.936-78.76,39.377-131.265,79.694-206.276c40.317-75.007,105.011-136.89,198.773-145.324 C437.429,26.755,511.5,101.762,511.5,101.762z M6.126,381.17L0.5,428.053l45.943,5.623l8.442-48.756L6.126,381.17z M96.138,241.468 l-43.128-16.88l-14.064,39.376l44.068,14.064L96.138,241.468z M169.274,122.393l-32.819-21.566l-26.252,29.06l33.754,22.506 L169.274,122.393z M263.968,45.51l-22.502-25.317l-30.939,15.939l22.502,27.188L263.968,45.51z M364.297,31.446l-3.756-24.377 l-40.313-1.879l5.622,27.197L364.297,31.446z M481.496,56.759l-30.939-22.502l-0.939,16.875l26.253,14.064L481.496,56.759z M444.926,120.513l25.317,2.811v-11.249l-25.317-5.626V120.513z M364.297,118.642l12.184,22.498l17.815-14.064l-3.751-15 L364.297,118.642z M344.605,175.838l-18.755-28.128l-19.687,17.815l27.188,30L344.605,175.838z M276.16,249.901l31.876,27.196 l7.502-30.943l-27.188-20.626L276.16,249.901z M273.346,343.668l39.381,16.875l-1.871-30.939l-35.635-18.754L273.346,343.668z M345.537,463.684l-17.811-36.57h-41.253l9.378,33.758L345.537,463.684z"> </path> </g> </g>
</svg>