<svg xmlns="http://www.w3.org/2000/svg" width="50" height="50" viewBox="0 0 50 50" fill="none"><g style="mix-blend-mode:luminosity"><g clip-path="url(#clip0_57627_7963)"><g clip-path="url(#clip1_57627_7963)"><path fill-rule="evenodd" clip-rule="evenodd" d="M34.8897 30.6943L14.3359 42.899L40.9492 41.0931L42.9989 14.2578L34.8897 30.6943Z" fill="url(#paint0_linear_57627_7963)"></path><path fill-rule="evenodd" clip-rule="evenodd" d="M40.9946 41.0769L38.7072 25.2891L32.4766 33.5164L40.9946 41.0769Z" fill="url(#paint1_linear_57627_7963)"></path><path fill-rule="evenodd" clip-rule="evenodd" d="M41.0245 41.0772L24.2666 39.7617L14.4258 42.8671L41.0245 41.0772Z" fill="url(#paint2_linear_57627_7963)"></path><path fill-rule="evenodd" clip-rule="evenodd" d="M14.4496 42.8709L18.636 29.1562L9.42383 31.126L14.4496 42.8709Z" fill="url(#paint3_linear_57627_7963)"></path><path fill-rule="evenodd" clip-rule="evenodd" d="M32.4733 33.5609L28.6213 18.4727L17.5977 28.8059L32.4733 33.5609Z" fill="url(#paint4_linear_57627_7963)"></path><path fill-rule="evenodd" clip-rule="evenodd" d="M42.1269 18.6866L31.7064 10.1758L28.8047 19.5569L42.1269 18.6866Z" fill="url(#paint5_linear_57627_7963)"></path><path fill-rule="evenodd" clip-rule="evenodd" d="M37.2531 7.13917L31.1244 10.526L27.2578 7.09375L37.2531 7.13917Z" fill="url(#paint6_linear_57627_7963)"></path><path fill-rule="evenodd" clip-rule="evenodd" d="M7 35.7254L9.56741 31.043L7.49059 25.4648L7 35.7254Z" fill="url(#paint7_linear_57627_7963)"></path><path fill-rule="evenodd" clip-rule="evenodd" d="M7.35156 25.288L9.4411 31.215L18.5206 29.178L28.8865 19.5443L31.8119 10.2524L27.2056 7L19.3744 9.9308C16.9071 12.2257 12.1193 16.7663 11.9467 16.8517C11.7759 16.9389 8.78517 22.5916 7.35156 25.288Z" fill="white"></path><path fill-rule="evenodd" clip-rule="evenodd" d="M14.6903 14.6424C20.0377 9.3404 26.9313 6.20791 29.5768 8.87706C32.2207 11.5462 29.417 18.0329 24.0696 23.333C18.7222 28.6332 11.9139 31.9383 9.27018 29.2691C6.62464 26.6018 9.34286 19.9425 14.6903 14.6424Z" fill="url(#paint8_linear_57627_7963)"></path><path fill-rule="evenodd" clip-rule="evenodd" d="M14.4492 42.8637L18.6029 29.1055L32.3974 33.5371C27.4098 38.214 21.8625 42.1678 14.4492 42.8637Z" fill="url(#paint9_linear_57627_7963)"></path><path fill-rule="evenodd" clip-rule="evenodd" d="M28.9062 19.5174L32.4476 33.5446C36.6139 29.1638 40.3533 24.4542 42.1846 18.6289L28.9062 19.5174Z" fill="url(#paint10_linear_57627_7963)"></path><path fill-rule="evenodd" clip-rule="evenodd" d="M42.149 18.7009C43.5662 14.4237 43.8933 8.28769 37.2102 7.14844L31.7266 10.1774L42.149 18.7009Z" fill="url(#paint11_linear_57627_7963)"></path><path fill-rule="evenodd" clip-rule="evenodd" d="M7 35.6646C7.19623 42.7237 12.2893 42.8289 14.4587 42.8909L9.44748 31.1875L7 35.6646Z" fill="#9E1209"></path><path fill-rule="evenodd" clip-rule="evenodd" d="M28.9258 19.5378C32.1273 21.5056 38.5796 25.4575 38.7104 25.5302C38.9138 25.6447 41.4923 21.1821 42.0773 18.6602L28.9258 19.5378Z" fill="url(#paint12_radial_57627_7963)"></path><path fill-rule="evenodd" clip-rule="evenodd" d="M18.5977 29.1055L24.1504 39.8184C27.4337 38.0378 30.0047 35.8683 32.3595 33.5444L18.5977 29.1055Z" fill="url(#paint13_radial_57627_7963)"></path><path fill-rule="evenodd" clip-rule="evenodd" d="M9.42543 31.2016L8.63867 40.57C10.1232 42.5977 12.1654 42.774 14.3077 42.6159C12.7578 38.7584 9.66164 31.0453 9.42543 31.2016Z" fill="url(#paint14_linear_57627_7963)"></path><path fill-rule="evenodd" clip-rule="evenodd" d="M31.6934 10.2004L42.7243 11.7485C42.1356 9.25378 40.3277 7.64393 37.2461 7.14062L31.6934 10.2004Z" fill="url(#paint15_linear_57627_7963)"></path></g></g></g><defs><linearGradient id="paint0_linear_57627_7963" x1="38.6279" y1="46.1639" x2="31.0334" y2="32.7554" gradientUnits="userSpaceOnUse"><stop stop-color="#FB7655"></stop><stop offset="0.41" stop-color="#E42B1E"></stop><stop offset="0.99" stop-color="#990000"></stop><stop offset="1" stop-color="#990000"></stop></linearGradient><linearGradient id="paint1_linear_57627_7963" x1="42.4129" y1="34.9023" x2="32.6253" y2="28.3342" gradientUnits="userSpaceOnUse"><stop stop-color="#871101"></stop><stop offset="0.99" stop-color="#911209"></stop><stop offset="1" stop-color="#911209"></stop></linearGradient><linearGradient id="paint2_linear_57627_7963" x1="34.5808" y1="46.5727" x2="24.7935" y2="40.0048" gradientUnits="userSpaceOnUse"><stop stop-color="#871101"></stop><stop offset="0.99" stop-color="#911209"></stop><stop offset="1" stop-color="#911209"></stop></linearGradient><linearGradient id="paint3_linear_57627_7963" x1="14.031" y1="30.1484" x2="15.5483" y2="40.0094" gradientUnits="userSpaceOnUse"><stop stop-color="white"></stop><stop offset="0.23" stop-color="#E57252"></stop><stop offset="0.46" stop-color="#DE3B20"></stop><stop offset="0.99" stop-color="#A60003"></stop><stop offset="1" stop-color="#A60003"></stop></linearGradient><linearGradient id="paint4_linear_57627_7963" x1="24.4664" y1="20.9393" x2="25.0254" y2="31.003" gradientUnits="userSpaceOnUse"><stop stop-color="white"></stop><stop offset="0.23" stop-color="#E4714E"></stop><stop offset="0.56" stop-color="#BE1A0D"></stop><stop offset="0.99" stop-color="#A80D00"></stop><stop offset="1" stop-color="#A80D00"></stop></linearGradient><linearGradient id="paint5_linear_57627_7963" x1="33.7293" y1="11.6386" x2="35.4029" y2="18.8512" gradientUnits="userSpaceOnUse"><stop stop-color="white"></stop><stop offset="0.18" stop-color="#E46342"></stop><stop offset="0.4" stop-color="#C82410"></stop><stop offset="0.99" stop-color="#A80D00"></stop><stop offset="1" stop-color="#A80D00"></stop></linearGradient><linearGradient id="paint6_linear_57627_7963" x1="28.618" y1="9.09634" x2="35.8301" y2="5.49029" gradientUnits="userSpaceOnUse"><stop stop-color="white"></stop><stop offset="0.54" stop-color="#C81F11"></stop><stop offset="0.99" stop-color="#BF0905"></stop><stop offset="1" stop-color="#BF0905"></stop></linearGradient><linearGradient id="paint7_linear_57627_7963" x1="7.70923" y1="27.6334" x2="8.30282" y2="33.5764" gradientUnits="userSpaceOnUse"><stop stop-color="white"></stop><stop offset="0.31" stop-color="#DE4024"></stop><stop offset="0.99" stop-color="#BF190B"></stop><stop offset="1" stop-color="#BF190B"></stop></linearGradient><linearGradient id="paint8_linear_57627_7963" x1="3.62921" y1="35.1842" x2="31.5329" y2="6.49149" gradientUnits="userSpaceOnUse"><stop stop-color="#BD0012"></stop><stop offset="0.07" stop-color="white"></stop><stop offset="0.17" stop-color="white"></stop><stop offset="0.27" stop-color="#C82F1C"></stop><stop offset="0.33" stop-color="#820C01"></stop><stop offset="0.46" stop-color="#A31601"></stop><stop offset="0.72" stop-color="#B31301"></stop><stop offset="0.99" stop-color="#E82609"></stop><stop offset="1" stop-color="#E82609"></stop></linearGradient><linearGradient id="paint9_linear_57627_7963" x1="25.0013" y1="38.0765" x2="16.5965" y2="36.0021" gradientUnits="userSpaceOnUse"><stop stop-color="#8C0C01"></stop><stop offset="0.54" stop-color="#990C00"></stop><stop offset="0.99" stop-color="#A80D0E"></stop><stop offset="1" stop-color="#A80D0E"></stop></linearGradient><linearGradient id="paint10_linear_57627_7963" x1="39.4386" y1="27.9891" x2="31.972" y2="21.297" gradientUnits="userSpaceOnUse"><stop stop-color="#7E110B"></stop><stop offset="0.99" stop-color="#9E0C00"></stop><stop offset="1" stop-color="#9E0C00"></stop></linearGradient><linearGradient id="paint11_linear_57627_7963" x1="42.1823" y1="15.7114" x2="38.4631" y2="11.7352" gradientUnits="userSpaceOnUse"><stop stop-color="#79130D"></stop><stop offset="0.99" stop-color="#9E120B"></stop><stop offset="1" stop-color="#9E120B"></stop></linearGradient><radialGradient id="paint12_radial_57627_7963" cx="0" cy="0" r="1" gradientUnits="userSpaceOnUse" gradientTransform="translate(33.1344 21.4235) scale(9.14992 9.14992)"><stop stop-color="#A80D00"></stop><stop offset="0.99" stop-color="#7E0E08"></stop><stop offset="1" stop-color="#7E0E08"></stop></radialGradient><radialGradient id="paint13_radial_57627_7963" cx="0" cy="0" r="1" gradientUnits="userSpaceOnUse" gradientTransform="translate(20.4623 33.4828) scale(12.1636 12.1636)"><stop stop-color="#A30C00"></stop><stop offset="0.99" stop-color="#800E08"></stop><stop offset="1" stop-color="#800E08"></stop></radialGradient><linearGradient id="paint14_linear_57627_7963" x1="11.8456" y1="42.8568" x2="8.81468" y2="32.5737" gradientUnits="userSpaceOnUse"><stop stop-color="#8B2114"></stop><stop offset="0.43" stop-color="#9E100A"></stop><stop offset="0.99" stop-color="#B3100C"></stop><stop offset="1" stop-color="#B3100C"></stop></linearGradient><linearGradient id="paint15_linear_57627_7963" x1="35.0986" y1="8.78098" x2="41.8938" y2="11.7805" gradientUnits="userSpaceOnUse"><stop stop-color="#B31000"></stop><stop offset="0.44" stop-color="#910F08"></stop><stop offset="0.99" stop-color="#791C12"></stop><stop offset="1" stop-color="#791C12"></stop></linearGradient><clipPath id="clip0_57627_7963"><rect width="36" height="36" fill="white" transform="translate(7 7)"></rect></clipPath><clipPath id="clip1_57627_7963"><rect width="36" height="36" fill="white" transform="translate(6.72852 6.75)"></rect></clipPath></defs></svg>