<svg xmlns="http://www.w3.org/2000/svg" width="50" height="50" viewBox="0 0 50 50" fill="none"><g style="mix-blend-mode:luminosity"><g clip-path="url(#clip0_57627_8007)"><path d="M42.4539 24.5664L40.9685 23.6462C40.956 23.5019 40.942 23.3577 40.9265 23.2137L42.2028 22.0225C42.2672 21.9635 42.3153 21.8889 42.3424 21.8058C42.3696 21.7228 42.3749 21.6342 42.3579 21.5486C42.3409 21.4629 42.3022 21.383 42.2454 21.3167C42.1886 21.2504 42.1156 21.1998 42.0336 21.1698L40.4011 20.5592C40.3604 20.4183 40.318 20.2778 40.2739 20.1378L41.2914 18.7232C41.3426 18.6526 41.3748 18.5701 41.3851 18.4835C41.3953 18.3969 41.3832 18.3091 41.3499 18.2286C41.3167 18.148 41.2634 18.0772 41.195 18.0231C41.1267 17.9689 41.0457 17.9331 40.9596 17.9191L39.2375 17.6393C39.1712 17.5088 39.1015 17.3805 39.0307 17.2522L39.7541 15.665C39.791 15.5858 39.8069 15.4983 39.8003 15.4112C39.7936 15.324 39.7646 15.24 39.716 15.1673C39.6674 15.0946 39.6009 15.0356 39.5229 14.9961C39.4449 14.9566 39.3581 14.9378 39.2707 14.9417L37.5243 15.0025C37.4339 14.8897 37.3417 14.7783 37.2478 14.6685L37.6493 12.9663C37.6697 12.8814 37.6679 12.7927 37.6443 12.7087C37.6206 12.6247 37.5758 12.5482 37.514 12.4865C37.4523 12.4248 37.3758 12.38 37.2918 12.3563C37.2078 12.3326 37.1192 12.3309 37.0343 12.3513L35.3332 12.7517C35.2226 12.6588 35.112 12.567 34.9981 12.4752L35.0589 10.7299C35.0627 10.6425 35.044 10.5556 35.0045 10.4776C34.9649 10.3996 34.906 10.3332 34.8333 10.2846C34.7606 10.236 34.6766 10.207 34.5894 10.2003C34.5022 10.1936 34.4148 10.2096 34.3356 10.2465L32.7484 10.9699C32.6202 10.899 32.4911 10.8297 32.3613 10.7619L32.0815 9.04093C32.0675 8.95497 32.0318 8.87399 31.9778 8.80569C31.9238 8.73738 31.8532 8.68402 31.7728 8.65067C31.6923 8.61732 31.6047 8.60508 31.5182 8.61511C31.4317 8.62515 31.3491 8.65713 31.2785 8.70802L29.8627 9.72557C29.7232 9.68123 29.5831 9.63883 29.4424 9.59838L28.8319 7.96586C28.8018 7.88397 28.7512 7.81117 28.6849 7.75444C28.6186 7.69772 28.5388 7.65895 28.4532 7.64186C28.3677 7.62477 28.2792 7.62992 28.1961 7.65683C28.1131 7.68374 28.0384 7.73149 27.9792 7.79553L26.788 9.07411C26.6442 9.05863 26.5004 9.04315 26.3555 9.03209L25.4353 7.54557C25.3895 7.47148 25.3255 7.41032 25.2494 7.3679C25.1734 7.32549 25.0877 7.30322 25.0006 7.30322C24.9135 7.30322 24.8278 7.32549 24.7518 7.3679C24.6757 7.41032 24.6117 7.47148 24.5659 7.54557L23.6457 9.03209C23.5019 9.04315 23.357 9.05863 23.2132 9.07411L22.022 7.79664C21.9624 7.73345 21.8877 7.68642 21.805 7.65998C21.7222 7.63354 21.6341 7.62853 21.5489 7.64545C21.4636 7.66236 21.3841 7.70063 21.3177 7.75667C21.2513 7.81271 21.2002 7.88469 21.1693 7.96586L20.5587 9.59838C20.4172 9.6393 20.2767 9.68244 20.1384 9.72668L18.7227 8.70802C18.6523 8.65624 18.5697 8.62348 18.4829 8.61291C18.3961 8.60233 18.3081 8.6143 18.2273 8.64764C18.1465 8.68099 18.0756 8.73459 18.0216 8.80329C17.9675 8.87198 17.932 8.95345 17.9186 9.03983L17.6377 10.7619C17.5083 10.8294 17.38 10.8991 17.2506 10.9699L15.6645 10.2465C15.5854 10.2096 15.498 10.1937 15.411 10.2003C15.3239 10.2069 15.24 10.2359 15.1673 10.2843C15.0946 10.3327 15.0356 10.3991 14.996 10.4769C14.9564 10.5548 14.9375 10.6415 14.9412 10.7287L15.002 12.4763C14.8892 12.567 14.7775 12.6588 14.6669 12.7528L12.9658 12.3513C12.881 12.3316 12.7926 12.3339 12.7089 12.3578C12.6252 12.3817 12.5489 12.4265 12.4873 12.488C12.4257 12.5495 12.3807 12.6257 12.3567 12.7094C12.3326 12.793 12.3302 12.8814 12.3497 12.9663L12.7512 14.6685C12.6572 14.7791 12.5654 14.8897 12.4747 15.0025L10.7283 14.9417C10.6411 14.9385 10.5546 14.9576 10.477 14.9973C10.3993 15.037 10.3331 15.0959 10.2847 15.1684C10.2362 15.2409 10.2071 15.3246 10.2002 15.4115C10.1932 15.4985 10.2086 15.5857 10.2449 15.665L10.9683 17.2533C10.8986 17.3805 10.8289 17.5088 10.7614 17.6404L9.04044 17.9191C8.9543 17.933 8.87313 17.9686 8.80467 18.0227C8.73621 18.0768 8.68275 18.1475 8.64937 18.2282C8.61599 18.3088 8.60381 18.3966 8.61399 18.4833C8.62418 18.5699 8.65638 18.6525 8.70753 18.7232L9.72508 20.1378C9.68084 20.2772 9.63881 20.4177 9.59789 20.5581L7.96538 21.1698C7.88378 21.2003 7.81133 21.2511 7.75491 21.3175C7.69849 21.3838 7.65998 21.4635 7.64302 21.549C7.62607 21.6344 7.63124 21.7228 7.65804 21.8056C7.68484 21.8885 7.73238 21.9632 7.79615 22.0225L9.07363 23.2137C9.05704 23.3575 9.04266 23.5013 9.03049 23.6462L7.54508 24.5664C7.47099 24.6122 7.40983 24.6762 7.36741 24.7522C7.325 24.8283 7.30273 24.914 7.30273 25.0011C7.30273 25.0882 7.325 25.1738 7.36741 25.2499C7.40983 25.326 7.47099 25.39 7.54508 25.4358L9.03049 26.3549C9.04266 26.4998 9.05704 26.6447 9.07363 26.7884L7.79615 27.9796C7.73238 28.039 7.68484 28.1136 7.65804 28.1965C7.63124 28.2794 7.62607 28.3678 7.64302 28.4532C7.65998 28.5386 7.69849 28.6183 7.75491 28.6847C7.81133 28.7511 7.88378 28.8019 7.96538 28.8324L9.59789 29.4429C9.63881 29.5845 9.68195 29.725 9.72619 29.8632L8.70753 31.279C8.65664 31.3496 8.62466 31.4321 8.61463 31.5187C8.60459 31.6052 8.61683 31.6928 8.65018 31.7732C8.68353 31.8537 8.7369 31.9243 8.8052 31.9783C8.8735 32.0323 8.95448 32.068 9.04044 32.0819L10.7614 32.3618C10.8289 32.4923 10.8975 32.6217 10.9694 32.7489L10.2449 34.3361C10.2086 34.4153 10.1932 34.5026 10.2002 34.5895C10.2071 34.6764 10.2362 34.7601 10.2847 34.8326C10.3331 34.9052 10.3993 34.9641 10.477 35.0037C10.5546 35.0434 10.6411 35.0626 10.7283 35.0594L12.4747 34.9986C12.5654 35.1125 12.6572 35.2231 12.7512 35.3337L12.3497 37.0359C12.3291 37.1208 12.3308 37.2096 12.3545 37.2937C12.3782 37.3778 12.4232 37.4544 12.4851 37.5161C12.547 37.5778 12.6237 37.6225 12.7079 37.6459C12.7921 37.6693 12.8809 37.6706 12.9658 37.6497L14.6669 37.2494C14.7775 37.3434 14.8892 37.4341 15.002 37.5248L14.9412 39.2723C14.9379 39.3595 14.957 39.446 14.9966 39.5237C15.0363 39.6013 15.0953 39.6675 15.1678 39.7159C15.2404 39.7643 15.3242 39.7932 15.4111 39.8C15.4981 39.8068 15.5853 39.7911 15.6645 39.7545L17.2517 39.0312C17.3789 39.102 17.5083 39.1717 17.6388 39.2391L17.9186 40.959C17.932 41.0454 17.9674 41.1269 18.0214 41.1957C18.0754 41.2645 18.1461 41.3182 18.2269 41.3518C18.3076 41.3853 18.3957 41.3975 18.4825 41.3873C18.5693 41.377 18.652 41.3445 18.7227 41.293L20.1373 40.2733C20.2767 40.3175 20.4172 40.3618 20.5576 40.4016L21.1682 42.0341C21.1982 42.1161 21.2488 42.189 21.3151 42.2458C21.3815 42.3026 21.4613 42.3414 21.547 42.3584C21.6326 42.3754 21.7212 42.3701 21.8043 42.3429C21.8873 42.3158 21.9619 42.2677 22.0209 42.2033L23.2132 40.9258C23.357 40.9424 23.5008 40.9568 23.6457 40.9701L24.5659 42.4555C24.6119 42.5293 24.676 42.5902 24.752 42.6325C24.8281 42.6747 24.9136 42.6968 25.0006 42.6968C25.0876 42.6968 25.1731 42.6747 25.2492 42.6325C25.3252 42.5902 25.3893 42.5293 25.4353 42.4555L26.3544 40.969C26.4993 40.9568 26.6442 40.9424 26.788 40.9258L27.9792 42.2033C28.0382 42.2674 28.1128 42.3152 28.1957 42.3423C28.2785 42.3693 28.3669 42.3745 28.4524 42.3575C28.5379 42.3405 28.6176 42.3019 28.6839 42.2452C28.7501 42.1886 28.8007 42.1159 28.8308 42.0341L29.4424 40.4016C29.5829 40.3618 29.7234 40.3175 29.8627 40.2733L31.2785 41.293C31.3493 41.3436 31.4319 41.3753 31.5184 41.3851C31.6048 41.3949 31.6924 41.3826 31.7728 41.3491C31.8531 41.3157 31.9237 41.2623 31.9777 41.1941C32.0317 41.1258 32.0674 41.0449 32.0815 40.959L32.3624 39.238C32.4918 39.1717 32.6201 39.1009 32.7484 39.0312L34.3356 39.7545C34.4148 39.7912 34.5022 39.8068 34.5892 39.8C34.6763 39.7932 34.7601 39.7641 34.8327 39.7156C34.9053 39.6671 34.9643 39.6008 35.0039 39.523C35.0435 39.4451 35.0624 39.3584 35.0589 39.2712L34.9981 37.5237C35.1109 37.4352 35.2226 37.3434 35.3332 37.2494L37.0343 37.6497C37.1191 37.6704 37.2078 37.6689 37.2918 37.6454C37.3758 37.6219 37.4524 37.5772 37.5142 37.5155C37.5759 37.4539 37.6208 37.3774 37.6444 37.2934C37.6681 37.2094 37.6698 37.1207 37.6493 37.0359L37.2489 35.3337C37.3418 35.2231 37.4336 35.1125 37.5243 34.9986L39.2718 35.0594C39.3591 35.063 39.4458 35.0441 39.5236 35.0045C39.6015 34.9649 39.6678 34.906 39.7163 34.8333C39.7647 34.7606 39.7936 34.6767 39.8003 34.5896C39.8069 34.5025 39.791 34.4152 39.7541 34.3361L39.0307 32.7489C39.1015 32.6217 39.1701 32.4923 39.2375 32.3618L40.9585 32.0819C41.0448 32.0686 41.1262 32.0332 41.1949 31.9793C41.2636 31.9254 41.3172 31.8547 41.3507 31.774C41.3841 31.6933 41.3962 31.6054 41.3859 31.5187C41.3755 31.432 41.343 31.3495 41.2914 31.279L40.2739 29.8632C40.3179 29.7236 40.3603 29.5835 40.4011 29.4429L42.0336 28.8324C42.1156 28.8024 42.1886 28.7518 42.2454 28.6855C42.3022 28.6191 42.3409 28.5393 42.3579 28.4536C42.3749 28.3679 42.3696 28.2793 42.3424 28.1963C42.3153 28.1133 42.2672 28.0387 42.2028 27.9796L40.9253 26.7884C40.9408 26.6447 40.9552 26.4998 40.9685 26.3549L42.4539 25.4358C42.528 25.39 42.5891 25.326 42.6316 25.2499C42.674 25.1738 42.6962 25.0882 42.6962 25.0011C42.6962 24.914 42.674 24.8283 42.6316 24.7522C42.5891 24.6762 42.528 24.6122 42.4539 24.5664ZM32.5095 36.8921C32.243 36.8273 32.0122 36.6611 31.8664 36.4288C31.7206 36.1965 31.6712 35.9164 31.7287 35.6482C31.7862 35.38 31.946 35.1449 32.1743 34.9927C32.4025 34.8406 32.6811 34.7836 32.9508 34.8338C33.2184 34.8977 33.4503 35.0638 33.5969 35.2966C33.7436 35.5293 33.7933 35.8102 33.7355 36.0791C33.6777 36.3481 33.5169 36.5837 33.2876 36.7357C33.0583 36.8876 32.7797 36.9438 32.5095 36.8921ZM32.004 33.4778C31.881 33.4515 31.754 33.4496 31.6303 33.4724C31.5066 33.4952 31.3885 33.5421 31.2829 33.6105C31.1774 33.6789 31.0863 33.7675 31.0149 33.8711C30.9436 33.9747 30.8933 34.0914 30.867 34.2144L30.3394 36.6764C28.6621 37.4371 26.8412 37.8294 24.9995 37.8267C23.0529 37.8267 21.2058 37.3954 19.5478 36.6244L19.0202 34.1635C18.9941 34.0404 18.9439 33.9236 18.8726 33.8199C18.8013 33.7161 18.7102 33.6275 18.6046 33.559C18.4991 33.4905 18.381 33.4434 18.2572 33.4206C18.1334 33.3977 18.0063 33.3995 17.8832 33.4258L15.7099 33.8925C15.306 33.4769 14.9306 33.0346 14.5861 32.5686H25.161C25.2804 32.5686 25.3601 32.5465 25.3601 32.4381V28.6975C25.3601 28.588 25.2804 28.5669 25.161 28.5669H22.0685V26.1945H25.4131C25.7184 26.1945 27.0457 26.2819 27.4704 27.9785C27.6031 28.4995 27.8951 30.1973 28.0942 30.7403C28.2933 31.3497 29.1029 32.5675 29.9656 32.5675H35.2348C35.299 32.5669 35.363 32.5606 35.4261 32.5487C35.0611 33.0453 34.6596 33.5154 34.2283 33.9534L32.0051 33.4767L32.004 33.4778ZM17.3789 36.8401C17.1092 36.8903 16.8306 36.8333 16.6024 36.6811C16.3741 36.529 16.2142 36.2939 16.1567 36.0257C16.0992 35.7575 16.1487 35.4774 16.2945 35.2451C16.4403 35.0128 16.671 34.8466 16.9376 34.7818C17.0728 34.7529 17.2124 34.7509 17.3484 34.7759C17.4844 34.801 17.6141 34.8526 17.7302 34.9277C17.8462 35.0029 17.9463 35.1002 18.0248 35.2141C18.1032 35.328 18.1585 35.4562 18.1874 35.5914C18.2163 35.7266 18.2183 35.8662 18.1932 36.0022C18.1682 36.1382 18.1166 36.2679 18.0414 36.384C17.9662 36.5001 17.8689 36.6002 17.7551 36.6786C17.6412 36.7571 17.513 36.8123 17.3778 36.8412L17.3789 36.8401ZM13.3673 20.5736C13.4233 20.6998 13.4539 20.8357 13.4573 20.9737C13.4608 21.1116 13.437 21.2489 13.3874 21.3777C13.3378 21.5065 13.2633 21.6243 13.1682 21.7243C13.0731 21.8243 12.9592 21.9046 12.8331 21.9606C12.7069 22.0166 12.571 22.0472 12.433 22.0506C12.295 22.0541 12.1577 22.0303 12.0289 21.9807C11.9001 21.9311 11.7824 21.8566 11.6824 21.7615C11.5824 21.6664 11.5021 21.5525 11.4461 21.4264C11.333 21.1716 11.3258 20.8823 11.4259 20.6222C11.5261 20.3621 11.7255 20.1525 11.9803 20.0394C12.2351 19.9263 12.5243 19.9191 12.7844 20.0192C13.0445 20.1194 13.2542 20.3188 13.3673 20.5736ZM12.134 23.4969L14.3981 22.4904C14.6304 22.3868 14.8122 22.1953 14.9034 21.9578C14.9947 21.7204 14.988 21.4565 14.8848 21.224L14.4191 20.1699H16.2529V28.4364H12.5532C12.0965 26.8323 11.9549 25.1551 12.134 23.4969ZM22.0696 22.6939V20.2573H26.4362C26.6619 20.2573 28.0289 20.5183 28.0289 21.5403C28.0289 22.3886 26.9804 22.6939 26.1177 22.6939H22.0696ZM37.9401 24.8872C37.9401 25.2101 37.928 25.5298 37.9036 25.8472H36.5764C36.4437 25.8472 36.3906 25.9357 36.3906 26.0651V26.6745C36.3906 28.1102 35.581 28.4221 34.872 28.5017C34.1973 28.5769 33.4474 28.2185 33.3556 27.8049C32.9574 25.5652 32.2938 25.0862 31.2453 24.2589C32.546 23.4338 33.8998 22.215 33.8998 20.5836C33.8998 18.8216 32.692 17.7123 31.8691 17.1681C30.7144 16.4072 29.4358 16.2545 29.0907 16.2545H15.3604C17.2576 14.1325 19.8023 12.6963 22.5994 12.1688L24.2175 13.8666C24.5836 14.2493 25.1908 14.2648 25.5724 13.8976L27.3841 12.1655C29.2297 12.512 30.9779 13.2558 32.5075 14.3451C34.0371 15.4345 35.3115 16.8435 36.2424 18.4743L35.0025 21.2748C34.8996 21.5074 34.893 21.7712 34.9843 22.0086C35.0755 22.2459 35.257 22.4375 35.4892 22.5413L37.8771 23.6008C37.918 24.0244 37.9401 24.4525 37.9401 24.8872ZM24.2186 10.7243C24.3184 10.6289 24.4361 10.5541 24.5648 10.5041C24.6936 10.4542 24.8309 10.4301 24.969 10.4333C25.107 10.4365 25.2431 10.4669 25.3694 10.5227C25.4958 10.5785 25.6098 10.6587 25.7051 10.7586C25.8006 10.8587 25.8754 10.9766 25.9252 11.1056C25.9751 11.2345 25.9991 11.3721 25.9958 11.5103C25.9925 11.6485 25.962 11.7848 25.9061 11.9113C25.8501 12.0377 25.7698 12.1519 25.6697 12.2473C25.57 12.3427 25.4523 12.4174 25.3236 12.4672C25.1949 12.517 25.0577 12.541 24.9197 12.5377C24.7817 12.5344 24.6458 12.504 24.5196 12.4481C24.3934 12.3922 24.2795 12.3119 24.1843 12.2119C23.9921 12.0099 23.8877 11.7399 23.8942 11.4611C23.9006 11.1822 24.0173 10.9173 24.2186 10.7243ZM36.5211 20.6245C36.6343 20.3697 36.8441 20.1704 37.1043 20.0703C37.3645 19.9702 37.6539 19.9776 37.9086 20.0908C38.1634 20.204 38.3627 20.4138 38.4628 20.6741C38.5629 20.9343 38.5555 21.2236 38.4423 21.4783C38.3862 21.6045 38.3059 21.7184 38.2058 21.8135C38.1057 21.9085 37.9879 21.983 37.8591 22.0325C37.7302 22.0821 37.5929 22.1058 37.4549 22.1023C37.3169 22.0987 37.1809 22.0681 37.0548 22.012C36.9286 21.9559 36.8147 21.8756 36.7197 21.7755C36.6246 21.6754 36.5501 21.5576 36.5006 21.4288C36.451 21.2999 36.4273 21.1626 36.4308 21.0246C36.4344 20.8866 36.465 20.7506 36.5211 20.6245Z" fill="#191B1D"></path></g></g><defs><clipPath id="clip0_57627_8007"><rect width="36" height="36" fill="white" transform="translate(7 7)"></rect></clipPath></defs></svg>