<svg xmlns="http://www.w3.org/2000/svg" width="50" height="50" viewBox="0 0 50 50" fill="none"><g style="mix-blend-mode:luminosity"><g clip-path="url(#clip0_57627_7913)"><path d="M40.2361 8.87718C39.7299 10.0864 39.0878 11.2347 38.3144 12.2892C34.9305 8.9053 30.3374 7.00244 25.5522 7.00244C15.6536 7.00244 7.50781 15.1576 7.50781 25.0702C7.50781 30.0149 9.53253 34.7486 13.1133 38.1606L13.7788 38.7511C17.0315 41.4929 21.1512 43.0021 25.4022 43.0021C34.8134 43.0021 42.7248 35.625 43.395 26.2232C43.8871 21.6207 42.5373 15.7997 40.2361 8.87718ZM15.677 38.2637C15.3864 38.6246 14.9411 38.8355 14.4772 38.8355C13.6288 38.8355 12.9352 38.1372 12.9352 37.2888C12.9352 36.4405 13.6335 35.7422 14.4772 35.7422C14.8287 35.7422 15.1755 35.864 15.4473 36.089C16.1082 36.6233 16.2113 37.6029 15.677 38.2637ZM40.1611 32.8551C35.7086 38.7933 26.199 36.792 20.1014 37.0779C20.1014 37.0779 19.0187 37.1435 17.9314 37.3216C17.9314 37.3216 18.3391 37.1482 18.8687 36.9467C23.1478 35.4563 25.1725 35.1657 27.7737 33.8299C32.6715 31.3365 37.513 25.8811 38.5207 20.2053C36.6553 25.6655 31.003 30.357 25.8521 32.2645C22.3229 33.5675 15.9488 34.8329 15.9488 34.8329L15.691 34.697C11.351 32.5832 11.2198 23.1767 19.1078 20.1397C22.562 18.8086 25.8662 19.5398 29.5969 18.6493C33.5807 17.7025 38.1879 14.7123 40.0626 10.8128C42.1623 17.051 44.6886 26.8184 40.1611 32.8551Z" fill="#77BC1F"></path></g></g><defs><clipPath id="clip0_57627_7913"><rect width="35.9856" height="36" fill="white" transform="translate(7.50781 7)"></rect></clipPath></defs></svg>