<svg xmlns="http://www.w3.org/2000/svg" width="50" height="50" viewBox="0 0 50 50" fill="none"><g clip-path="url(#clip0_57627_8096)"><g clip-path="url(#clip1_57627_8096)"><path d="M37.7968 19.4074C37.7968 26.2608 32.2414 31.8165 25.3883 31.8165C18.5356 31.8165 12.9805 26.2608 12.9805 19.4074C12.9805 12.5551 18.5353 7 25.3883 7C32.2414 7 37.7968 12.5551 37.7968 19.4074Z" fill="#191B1D"></path><path d="M30.8134 11.59C29.553 11.6332 28.4527 12.329 27.6334 13.2892C26.7263 14.3435 26.1236 15.5926 25.6884 16.869C24.911 16.2314 24.3116 15.4063 23.0636 15.0475C22.0991 14.7702 21.0865 14.8844 20.155 15.5782C19.7143 15.9077 19.4101 16.4053 19.2656 16.8745C18.8913 18.091 19.659 19.1746 20.0077 19.5629L20.7703 20.3795C20.9272 20.54 21.3062 20.9577 21.1208 21.5564C20.9216 22.2084 20.136 22.6294 19.3304 22.3818C18.9705 22.2714 18.4536 22.0035 18.5696 21.6267C18.6171 21.4721 18.7278 21.3557 18.7873 21.2238C18.8413 21.1086 18.8676 21.0232 18.8842 20.9716C19.0313 20.4917 18.83 19.8667 18.3156 19.7076C17.8352 19.5603 17.3441 19.6771 17.1536 20.295C16.9374 20.9973 17.2737 22.2719 19.0742 22.8263C21.1838 23.4757 22.9675 22.3265 23.2209 20.8293C23.3804 19.8915 22.9565 19.1939 22.1808 18.298L21.5482 17.5982C21.1655 17.2157 21.034 16.5635 21.4303 16.0623C21.7648 15.6393 22.241 15.4592 23.0213 15.6712C24.1607 15.98 24.668 16.7705 25.515 17.4082C25.1659 18.5558 24.9369 19.7074 24.7302 20.74L24.6032 21.5101C23.9979 24.6855 23.5355 26.4296 22.3341 27.4307C22.0921 27.6031 21.746 27.8606 21.2248 27.8792C20.9509 27.8874 20.8626 27.6991 20.8588 27.6168C20.8528 27.4254 21.0144 27.3371 21.1217 27.2513C21.2825 27.1637 21.5252 27.0183 21.5084 26.553C21.4911 26.0035 21.0356 25.5267 20.3776 25.5483C19.8844 25.5649 19.1331 26.0287 19.1614 26.8783C19.1904 27.756 20.0081 28.4133 21.2414 28.3717C21.9005 28.3491 23.3726 28.0814 24.8229 26.3572C26.5113 24.3804 26.9836 22.1148 27.339 20.4563L27.7356 18.2666C27.9551 18.293 28.1912 18.3109 28.4474 18.3171C30.5501 18.3615 31.6015 17.2728 31.6174 16.4803C31.6283 16.0008 31.3033 15.5285 30.8477 15.5397C30.5223 15.5488 30.1132 15.7659 30.0154 16.2161C29.9189 16.6575 30.6842 17.0564 30.0862 17.4447C29.6614 17.7195 28.9001 17.9129 27.8275 17.756L28.0224 16.6781C28.4204 14.6342 28.9114 12.1204 30.7738 12.0588C30.9099 12.0524 31.4059 12.0646 31.4177 12.3934C31.4208 12.5024 31.3935 12.5312 31.2652 12.7821C31.1342 12.9777 31.0851 13.145 31.0915 13.3361C31.1092 13.8574 31.5059 14.2007 32.0807 14.1808C32.8491 14.1552 33.0695 13.4074 33.0569 13.023C33.0246 12.1192 32.0726 11.5484 30.8134 11.59Z" fill="white"></path><path d="M29.9949 36.9849C31.248 36.9849 32.089 37.8907 32.089 39.1434C32.089 40.3244 31.2321 41.3023 29.9949 41.3023C28.7499 41.3023 27.8926 40.3244 27.8926 39.1434C27.8928 37.8907 28.7335 36.9849 29.9949 36.9849ZM29.9949 40.6881C30.8839 40.6881 31.2801 39.8797 31.2801 39.1434C31.2801 38.3595 30.8035 37.5993 29.9949 37.5993C29.1787 37.5993 28.7015 38.3595 28.7015 39.1434C28.7017 39.8797 29.0975 40.6881 29.9949 40.6881Z" fill="#191B1D"></path><path d="M27.7886 37.3674V37.0805H26.697V36.6886C26.697 36.1309 26.7777 35.7098 27.4324 35.7098C27.445 35.7098 27.4574 35.7107 27.47 35.7112C27.4713 35.7112 27.4713 35.7094 27.4731 35.7094C27.6541 35.7229 27.8054 35.5747 27.8158 35.393L27.8293 35.1441C27.6755 35.1196 27.5134 35.0952 27.3198 35.0952C26.1963 35.0952 25.9374 35.7503 25.9374 36.7532V37.0805H24.9668V37.4006C24.9914 37.5666 25.1336 37.6944 25.3069 37.6944C25.3077 37.6944 25.3086 37.6953 25.3095 37.6953H25.9374V41.2041H26.3562C26.3571 41.2041 26.3567 41.2037 26.3576 41.2037C26.5312 41.2037 26.6739 41.0736 26.6972 40.9059V37.6951H27.4574C27.6368 37.6894 27.7804 37.5464 27.7886 37.3674Z" fill="#191B1D"></path><path d="M17.6651 37.0818C17.6636 37.0818 17.6629 37.0827 17.6612 37.0827C17.5007 37.0827 17.3457 37.1928 17.2782 37.3415L16.2321 40.4943H16.216L15.1931 37.3433C15.1263 37.1937 14.9703 37.0827 14.8093 37.0827C14.8077 37.0827 14.8071 37.0818 14.8053 37.0818H14.2754L15.6741 40.9306C15.723 41.068 15.8199 41.2784 15.8199 41.3671C15.8199 41.4479 15.5934 42.386 14.9139 42.386C14.8971 42.386 14.8803 42.3842 14.8635 42.3829C14.6902 42.3734 14.5593 42.4944 14.53 42.6807L14.5095 42.9437C14.6469 42.9679 14.7847 43.0004 15.0274 43.0004C16.0297 43.0004 16.329 42.0864 16.612 41.2943L18.1322 37.0815H17.6651V37.0818Z" fill="#191B1D"></path><path d="M12.8342 37.9178C12.2063 37.5968 11.5197 37.3784 11.5076 36.7326C11.5095 36.0458 12.1401 35.8657 12.6262 35.8666C12.6282 35.8662 12.6304 35.8662 12.6313 35.8662C12.8423 35.8662 13.0112 35.8869 13.1758 35.9232C13.1782 35.9232 13.1778 35.9206 13.1804 35.9206C13.3545 35.9332 13.5006 35.7969 13.5214 35.6254L13.5351 35.3761C13.2167 35.2971 12.8835 35.2568 12.5939 35.2568C11.537 35.2633 10.7527 35.7954 10.75 36.8096C10.7513 37.6968 11.3494 38.0401 11.9921 38.3519C12.6229 38.6548 13.3134 38.9054 13.3194 39.6371C13.3154 40.4011 12.5786 40.6829 12.0706 40.6836C11.7735 40.6827 11.4509 40.6084 11.1794 40.5228C11.0091 40.4947 10.8695 40.6451 10.8476 40.8438L10.8246 41.0659C11.198 41.187 11.581 41.2918 11.966 41.2918C11.966 41.2918 11.9664 41.2918 11.9671 41.2918C11.9682 41.2918 11.9691 41.2918 11.9708 41.2918C13.1545 41.2832 14.0743 40.8113 14.0778 39.5858C14.076 38.6399 13.4742 38.2432 12.8342 37.9178Z" fill="#191B1D"></path><path d="M24.3299 41.2034C24.3304 41.2034 24.3304 41.203 24.3308 41.203C24.495 41.203 24.6315 41.0884 24.6667 40.9342V38.5597C24.6667 37.6621 24.2868 36.9829 23.235 36.9829C22.8633 36.9829 22.2411 37.1933 21.9581 37.7836C21.7395 37.2254 21.2628 36.9829 20.7857 36.9829C20.1791 36.9829 19.7669 37.2011 19.4762 37.6783H19.4598V37.4221C19.4571 37.2331 19.3047 37.0807 19.1153 37.0807C19.114 37.0807 19.1131 37.0798 19.1118 37.0798H18.748V41.2037H19.1596C19.16 41.2037 19.16 41.2032 19.1605 41.2032C19.3509 41.2032 19.5054 41.049 19.5054 40.8587C19.5054 40.8536 19.5072 40.8514 19.5083 40.8479V39.1259C19.5083 38.3575 19.8151 37.5975 20.5913 37.5975C21.2057 37.5975 21.3276 38.2363 21.3276 38.7456V41.2034H21.7446C21.7451 41.2034 21.7451 41.203 21.746 41.203C21.9256 41.203 22.0714 41.0652 22.0873 40.8897V39.1257C22.0873 38.3573 22.3947 37.5973 23.1706 37.5973C23.785 37.5973 23.9064 38.2361 23.9064 38.7454V41.2032H24.3299V41.2034Z" fill="#191B1D"></path><path d="M36.0743 41.2034C36.0752 41.2034 36.0752 41.203 36.0756 41.203C36.2606 41.203 36.4101 41.057 36.4188 40.8742V38.7538C36.4188 37.6462 35.9413 36.9829 34.874 36.9829C34.3001 36.9829 33.751 37.2659 33.5239 37.7352H33.508V37.427C33.508 37.4265 33.5071 37.4265 33.5071 37.4256C33.5071 37.2351 33.3529 37.0803 33.1627 37.0803C33.1609 37.0803 33.16 37.0794 33.1587 37.0794H32.7715V41.2032H33.1894C33.1894 41.2032 33.1894 41.2028 33.1903 41.2028C33.3708 41.2028 33.5178 41.0627 33.5321 40.8855V39.295C33.5321 38.2929 33.9206 37.5971 34.7853 37.5971C35.4486 37.6378 35.6581 38.1066 35.6581 39.0684V41.203H36.0743V41.2034Z" fill="#191B1D"></path><path d="M40.1647 37.0818C40.1634 37.0818 40.1629 37.0827 40.1607 37.0827C40.0007 37.0827 39.8452 37.1928 39.7779 37.3415L38.7326 40.4943H38.7157L37.6929 37.3433C37.6259 37.1937 37.4699 37.0827 37.3088 37.0827C37.3075 37.0827 37.3066 37.0818 37.3053 37.0818H36.7754L38.1741 40.9306C38.2226 41.068 38.3201 41.2784 38.3201 41.3671C38.3201 41.4479 38.0934 42.386 37.4139 42.386C37.3971 42.386 37.3803 42.3842 37.3632 42.3829C37.1905 42.3734 37.0595 42.4944 37.03 42.6807L37.0097 42.9437C37.1471 42.9679 37.2849 43.0004 37.527 43.0004C38.5299 43.0004 38.829 42.0864 39.112 41.2943L40.6322 37.0815H40.1647V37.0818Z" fill="#191B1D"></path></g></g><defs><clipPath id="clip0_57627_8096"><rect width="36" height="36" fill="white" transform="translate(7 7)"></rect></clipPath><clipPath id="clip1_57627_8096"><rect width="39.75" height="39.75" fill="white" transform="translate(5.5 4.75)"></rect></clipPath></defs></svg>