<svg xmlns="http://www.w3.org/2000/svg" width="50" height="50" viewBox="0 0 50 50" fill="none"><g style="mix-blend-mode:luminosity"><path d="M40.938 32.2V15.4L26.3878 7V13.45L32.0879 16.75C32.3129 16.9 32.3129 17.2 32.0879 17.275L25.3377 21.175C25.1127 21.325 24.8877 21.25 24.7377 21.175L17.9876 17.275C17.7626 17.2 17.7626 16.825 17.9876 16.75L23.6877 13.45V7L9.0625 15.4V32.2L14.6126 28.975V22.375C14.6126 22.15 14.9126 22 15.0626 22.075L21.8127 25.975C22.0377 26.125 22.1127 26.275 22.1127 26.5V34.3C22.1127 34.525 21.8127 34.675 21.6627 34.6L15.9626 31.3L10.4125 34.525L24.9627 43L39.513 34.6L33.9629 31.375L28.2628 34.675C28.0378 34.825 27.8128 34.675 27.8128 34.375V26.575C27.8128 26.35 27.9628 26.125 28.1128 26.05L34.8629 22.15C35.0879 22 35.3129 22.15 35.3129 22.45V29.05L40.938 32.2Z" fill="#4C4C4C"></path><path d="M24.9609 43.0004L39.5112 34.6004L33.9611 31.3754L28.261 34.6754C28.036 34.8254 27.811 34.6754 27.811 34.3754V26.5754C27.811 26.3504 27.961 26.1254 28.111 26.0504L34.8611 22.1504C35.0861 22.0004 35.3111 22.1504 35.3111 22.4504V29.0504L40.8612 32.2754V15.4004L24.9609 24.6254V43.0004Z" fill="#191B1D"></path><path d="M26.3878 7V13.45L32.0879 16.75C32.3129 16.9 32.3129 17.2 32.0879 17.275L25.3377 21.175C25.1127 21.325 24.8877 21.25 24.7377 21.175L17.9876 17.275C17.7626 17.2 17.7626 16.825 17.9876 16.75L23.6877 13.45V7L9.0625 15.4L24.9627 24.625L40.863 15.4L26.3878 7Z" fill="#808080"></path><path d="M21.7377 34.6754L16.0376 31.3754L10.4875 34.6004L25.0377 43.0004V24.6254L9.0625 15.4004V32.2004L14.6126 28.9754V22.3754C14.6126 22.1504 14.9126 22.0004 15.0626 22.0754L21.8127 25.9754C22.0377 26.1254 22.1127 26.2754 22.1127 26.5004V34.3004C22.1877 34.6004 21.9627 34.8254 21.7377 34.6754Z" fill="#4C4C4C"></path></g></svg>