<svg xmlns="http://www.w3.org/2000/svg" width="50" height="50" viewBox="0 0 50 50" fill="none"><g style="mix-blend-mode:luminosity"><path fill-rule="evenodd" clip-rule="evenodd" d="M36.1948 28.088C35.8846 29.5848 34.5038 33.4239 30.1028 35.5035L28.3367 33.5166L25.3564 36.5146C23.6595 36.4918 21.9908 36.0769 20.4807 35.3023C18.9707 34.5278 17.6602 33.4145 16.6517 32.0496C16.9688 32.1482 17.2962 32.2097 17.6275 32.2329C18.1153 32.2417 18.6441 32.0629 18.6441 31.2394V23.1539C18.6514 22.9459 18.6098 22.739 18.5226 22.5499C18.4354 22.3609 18.3051 22.1949 18.1422 22.0653C17.9792 21.9358 17.7882 21.8462 17.5843 21.8039C17.3805 21.7616 17.1695 21.7676 16.9685 21.8216C15.5887 22.1373 14.4849 25.5823 14.4849 25.5823C14.4695 23.9915 14.8009 22.4163 15.4559 20.9665C16.1108 19.5166 17.0737 18.2268 18.2776 17.1867C20.3329 15.4449 22.3408 14.8422 23.8663 14.606C22.3595 15.4647 21.5118 16.8666 21.5118 18.0433C21.5118 19.9297 22.6509 19.7067 22.9887 19.4285V30.3475C23.0458 30.4847 23.12 30.6142 23.2095 30.7328C23.3604 30.9414 23.5591 31.1109 23.789 31.2269C24.0189 31.3429 24.2733 31.4021 24.5308 31.3995C25.6721 31.3995 27.1523 30.097 27.1523 30.097V21.2554C27.1523 20.3558 26.4746 19.2685 25.7957 18.8976C25.7957 18.8976 27.0519 18.6768 28.0232 19.4175C28.2054 19.1944 28.3992 18.9811 28.6038 18.7784C30.8623 16.5597 32.9937 15.9305 34.7687 15.6148C34.7687 15.6148 31.5378 18.1536 31.5378 21.5534C31.5378 24.0845 31.6029 30.2559 31.6029 30.2559C32.805 31.4105 34.5855 29.7437 36.1948 28.088Z" fill="#191B1D"></path><path fill-rule="evenodd" clip-rule="evenodd" d="M25.4989 7.5C21.9388 7.50022 18.4588 8.55611 15.4988 10.5342C12.5389 12.5122 10.2319 15.3236 8.86975 18.6127C7.50758 21.9019 7.15134 25.5211 7.84609 29.0127C8.54084 32.5043 10.2554 35.7115 12.7729 38.2287C15.2904 40.7459 18.4978 42.46 21.9895 43.1543C25.4812 43.8487 29.1003 43.492 32.3893 42.1294C35.6783 40.7668 38.4894 38.4595 40.4671 35.4993C42.4448 32.5391 43.5002 29.059 43.5 25.4989C43.5 23.1351 43.0344 20.7944 42.1297 18.6105C41.225 16.4266 39.8991 14.4424 38.2275 12.771C36.5559 11.0996 34.5714 9.77385 32.3875 8.86945C30.2035 7.96505 27.8627 7.49971 25.4989 7.5ZM25.4989 42.7792C22.0811 42.7794 18.7401 41.7661 15.8982 39.8675C13.0563 37.9688 10.8413 35.2701 9.53319 32.1125C8.22512 28.955 7.88275 25.4805 8.54939 22.1283C9.21603 18.7762 10.8617 15.6971 13.2784 13.2803C15.695 10.8635 18.7741 9.21756 22.1262 8.5507C25.4783 7.88385 28.9528 8.22599 32.1104 9.53387C35.2681 10.8417 37.9669 13.0566 39.8658 15.8984C41.7646 18.7401 42.7781 22.0811 42.7781 25.4989C42.7781 30.0817 40.9577 34.4769 37.7172 37.7175C34.4768 40.9582 30.0817 42.7789 25.4989 42.7792Z" fill="#191B1D"></path></g></svg>