<svg xmlns="http://www.w3.org/2000/svg" width="60" height="60" viewBox="0 0 60 60" fill="none"><path d="M26.1011 42.7526C29.3473 45.1873 33.3871 41.4513 30.9524 38.2051L18.7971 26.5218L5.00075 26.5218L5.00075 39.5066L9.87008 39.5066L23.6664 51.6797L46.3899 51.6797C49.7169 51.3573 49.5641 46.0706 46.3896 45.794L29.4623 45.794L26.1011 42.7526ZM26.1011 42.7526L18.7971 35.4486" stroke="#2E2E2E" stroke-width="1.5"></path><path d="M37.0625 26.6289L34.6017 30.891L37.2079 30.7517L38.3904 33.0783L40.8512 28.8162" stroke="#2E2E2E" stroke-width="1.5"></path><path d="M48.9746 26.6289L51.4355 30.891L48.8292 30.7517L47.6467 33.0783L45.1859 28.8162" stroke="#2E2E2E" stroke-width="1.5"></path><path d="M52.5339 19.4716C52.5339 24.7974 48.2162 29.115 42.89 29.115C37.5638 29.115 33.2461 24.7974 33.2461 19.4716C33.2461 14.1457 37.5638 9.82812 42.89 9.82812C48.2162 9.82812 52.5339 14.1457 52.5339 19.4716Z" stroke="#2E2E2E" stroke-width="1.5"></path><path d="M42.8984 13.75L44.2074 17.7785H48.4432L45.0163 20.2682L46.3253 24.2967L42.8984 21.807L39.4716 24.2967L40.7805 20.2682L37.3537 17.7785H41.5895L42.8984 13.75Z" stroke="#2E2E2E" stroke-width="1.5" stroke-linejoin="round"></path></svg>