<svg xmlns="http://www.w3.org/2000/svg" width="60" height="60" viewBox="0 0 60 60" fill="none"><rect x="39.3555" y="8.02637" width="13.8946" height="14.2446" rx="6.94728" stroke="#2E2E2E" stroke-width="1.5"></rect><path d="M41.873 14.6719L45.1519 17.8751L50.7328 12.4229" stroke="#2E2E2E" stroke-width="1.5"></path><rect x="6.75" y="8.02637" width="13.8946" height="14.2446" rx="6.94728" stroke="#2E2E2E" stroke-width="1.5"></rect><path d="M10.0576 18.7051L17.3365 11.5938" stroke="#2E2E2E" stroke-width="1.5"></path><path d="M10.1427 11.5098L17.2539 18.7888" stroke="#2E2E2E" stroke-width="1.5"></path><rect x="24.4023" y="17.2939" width="10.7571" height="14.5241" rx="2.73983" stroke="#2E2E2E" stroke-width="1.5"></rect><path d="M15.833 40.0419C15.833 38.5006 16.7199 37.1329 18.1121 36.5959C21.103 35.4423 25.8915 33.8789 29.7795 33.8789C33.6675 33.8789 38.456 35.4423 41.4468 36.5959C42.8391 37.1329 43.726 38.5006 43.726 40.0419V51.9744H15.833V40.0419Z" stroke="#2E2E2E" stroke-width="1.5"></path></svg>