<svg xmlns="http://www.w3.org/2000/svg" width="60" height="61" viewBox="0 0 60 61" fill="none"><rect x="5.25" y="10.5547" width="49.5" height="35.7167" rx="2.00677" stroke="#2E2E2E" stroke-width="1.5"></rect><line x1="9" y1="53.1641" x2="51.7297" y2="53.1641" stroke="#2E2E2E" stroke-width="1.5"></line><mask id="path-3-inside-1_49061_8610" fill="white"><rect x="12.0781" y="33.9214" width="6.81429" height="8.33678" rx="1.19097"></rect></mask><rect x="12.0781" y="33.9214" width="6.81429" height="8.33678" rx="1.19097" stroke="#2E2E2E" stroke-width="3" mask="url(#path-3-inside-1_49061_8610)"></rect><mask id="path-4-inside-2_49061_8610" fill="white"><rect x="21.7539" y="26.3276" width="6.81429" height="15.93" rx="1.19097"></rect></mask><rect x="21.7539" y="26.3276" width="6.81429" height="15.93" rx="1.19097" stroke="#2E2E2E" stroke-width="3" mask="url(#path-4-inside-2_49061_8610)"></rect><path d="M32.1797 29.7525C32.1797 29.509 32.3771 29.3115 32.6207 29.3115H37.053C37.2965 29.3115 37.494 29.509 37.494 29.7525V41.0667C37.494 41.3102 37.2965 41.5077 37.053 41.5077H32.6207C32.3771 41.5077 32.1797 41.3102 32.1797 41.0667V29.7525Z" stroke="#2E2E2E" stroke-width="1.5"></path><path d="M41.8555 23.7979C41.8555 23.5544 42.0529 23.3569 42.2964 23.3569H46.7288C46.9723 23.3569 47.1698 23.5544 47.1698 23.7979V41.0669C47.1698 41.3105 46.9723 41.5079 46.7288 41.5079H42.2964C42.0529 41.5079 41.8555 41.3105 41.8555 41.0669V23.7979Z" stroke="#2E2E2E" stroke-width="1.5"></path><circle cx="15.3069" cy="28.5617" r="1.33419" stroke="#2E2E2E" stroke-width="1.5"></circle><circle cx="25.1389" cy="20.2805" r="1.33419" stroke="#2E2E2E" stroke-width="1.5"></circle><circle cx="34.6936" cy="22.6071" r="1.33419" stroke="#2E2E2E" stroke-width="1.5"></circle><circle cx="44.4123" cy="16.6521" r="1.33419" stroke="#2E2E2E" stroke-width="1.5"></circle><path d="M16.4961 27.4358L23.7194 21.1468M26.7022 20.6224L33.0058 22.3599M36.2106 22.079L43.1726 17.6782" stroke="#2E2E2E" stroke-width="1.5" stroke-linecap="round"></path></svg>