<svg xmlns="http://www.w3.org/2000/svg" width="60" height="60" viewBox="0 0 60 60" fill="none"><path d="M18.9219 6.125H40.9219C43.2691 6.125 45.1719 8.02779 45.1719 10.375V33.6752V49.125C45.1719 51.4722 43.2691 53.375 40.9219 53.375H18.9219C16.5747 53.375 14.6719 51.4722 14.6719 49.125V10.375C14.6719 8.02779 16.5747 6.125 18.9219 6.125Z" stroke="#2E2E2E" stroke-width="1.5"></path><path d="M24.9219 9.78906H34.9219" stroke="#2E2E2E" stroke-width="1.5" stroke-linecap="round"></path><path d="M14.5391 44.1523H45.3086" stroke="#2E2E2E" stroke-width="1.5"></path><rect x="28.5078" y="47.1211" width="2.83333" height="2.93182" rx="1.41667" stroke="#2E2E2E" stroke-width="1.5"></rect><path d="M37.324 21.2678C37.324 25.4364 34.0275 28.7855 29.9979 28.7855C25.9684 28.7855 22.6719 25.4364 22.6719 21.2678C22.6719 17.0991 25.9684 13.75 29.9979 13.75C34.0275 13.75 37.324 17.0991 37.324 21.2678Z" stroke="#2E2E2E" stroke-width="1.5"></path><line x1="21.9063" y1="32.7856" x2="38.0942" y2="32.7856" stroke="#2E2E2E" stroke-width="1.5"></line><line x1="21.9063" y1="39.1313" x2="30.9062" y2="39.1313" stroke="#2E2E2E" stroke-width="1.5"></line><line x1="21.9062" y1="36.1235" x2="34.1973" y2="36.1235" stroke="#2E2E2E" stroke-width="1.5"></line><path d="M30.0781 13.4082V21.1123H37.4283" stroke="#2E2E2E" stroke-width="1.5"></path></svg>