<svg xmlns="http://www.w3.org/2000/svg" width="60" height="60" viewBox="0 0 60 60" fill="none"><path d="M16.6708 15.9414L9.96484 24.902" stroke="#2E2E2E" stroke-width="1.5"></path><path d="M43.5684 41.2148L50.6476 49.3015" stroke="#2E2E2E" stroke-width="1.5"></path><path d="M37.1152 49.2325L50.4512 49.2832V24.8628L43.296 15.3398" stroke="#2E2E2E" stroke-width="1.5"></path><rect x="10.1035" y="25.2012" width="26.9922" height="24.0216" stroke="#2E2E2E" stroke-width="1.5"></rect><path d="M37.141 48.9305L37.1039 25.398L43.0633 16.2661C43.2177 16.0295 43.5853 16.1389 43.5852 16.4214L43.5787 41.2819L37.6514 49.1016C37.4871 49.3184 37.1415 49.2025 37.141 48.9305Z" stroke="#2E2E2E" stroke-width="1.5" stroke-linejoin="round"></path><rect x="16.8711" y="8.75" width="26.5868" height="7.1176" stroke="#2E2E2E" stroke-width="1.5"></rect><path d="M31.3717 39.2012V45.0681H25.5059" stroke="#2E2E2E" stroke-width="1.5"></path><path d="M15.474 39.2012V45.0681H21.3398" stroke="#2E2E2E" stroke-width="1.5"></path><path d="M31.3717 35.2266V29.3596H25.5059" stroke="#2E2E2E" stroke-width="1.5"></path><path d="M15.474 35.2266V29.3596H21.3398" stroke="#2E2E2E" stroke-width="1.5"></path><path d="M27.2987 37.2118C27.2987 39.3524 25.5634 41.0877 23.4228 41.0877C21.2822 41.0877 19.5469 39.3524 19.5469 37.2118C19.5469 35.0712 21.2822 33.3359 23.4228 33.3359C25.5634 33.3359 27.2987 35.0712 27.2987 37.2118Z" stroke="#2E2E2E" stroke-width="1.5"></path></svg>