<svg xmlns="http://www.w3.org/2000/svg" width="250" height="276" viewBox="0 0 250 276" fill="none"><rect x="20.4766" y="0.75" width="211.973" height="354.452" rx="19.8738" stroke="#2E2E2E" stroke-width="1.5"></rect><path d="M20.0938 60.8848H232.61" stroke="#2E2E2E" stroke-width="1.5"></path><path d="M20.0938 188.504H232.744" stroke="#2E2E2E" stroke-width="1.5"></path><path d="M20.0938 242.338L232.405 242.338" stroke="#2E2E2E" stroke-width="1.5"></path><path d="M20.0938 188.502L232.553 60.9895" stroke="#2E2E2E" stroke-width="1.5"></path><path d="M232.82 188.502L20.4464 60.6003" stroke="#2E2E2E" stroke-width="1.5"></path><rect x="33.9141" y="201.734" width="185.096" height="29.1134" rx="7.10668" stroke="#2E2E2E" stroke-width="1.5"></rect><path d="M33.3398 331.545L120.107 257.048" stroke="#2E2E2E" stroke-width="1.5"></path><path d="M120.107 331.545L33.923 256.803" stroke="#2E2E2E" stroke-width="1.5"></path><rect x="33.9141" y="256.723" width="86.3314" height="74.531" stroke="#2E2E2E" stroke-width="1.5"></rect><path d="M132.105 331.545L218.872 257.048" stroke="#2E2E2E" stroke-width="1.5"></path><path d="M218.873 331.545L132.689 256.803" stroke="#2E2E2E" stroke-width="1.5"></path><rect x="132.68" y="256.723" width="86.3314" height="74.531" stroke="#2E2E2E" stroke-width="1.5"></rect><rect x="11.9375" y="53.3652" width="226.779" height="141.959" stroke="#2E2E2E" stroke-width="1.5"></rect><rect x="9.22656" y="50.9473" width="5.89251" height="5.89251" fill="#2E2E2E"></rect><rect x="235.299" y="50.9473" width="5.89251" height="5.89251" fill="#2E2E2E"></rect><rect x="9.22656" y="191.912" width="5.89251" height="5.89251" fill="#2E2E2E"></rect><rect x="235.299" y="191.912" width="5.89251" height="5.89251" fill="#2E2E2E"></rect><path d="M32.4414 25.3535H48.1548" stroke="#2E2E2E" stroke-width="1.47313"></path><path d="M32.4414 31.2461H48.1548" stroke="#2E2E2E" stroke-width="1.47313"></path><path d="M32.4414 37.1387H48.1548" stroke="#2E2E2E" stroke-width="1.47313"></path><circle cx="124.795" cy="44.8221" r="2.30847" fill="#2E2E2E"></circle><circle cx="2.30847" cy="124.56" r="2.30847" fill="#2E2E2E"></circle><circle cx="247.691" cy="124.56" r="2.30847" fill="#2E2E2E"></circle><circle cx="212.571" cy="29.8915" r="5.75091" stroke="#2E2E2E" stroke-width="1.5"></circle><path d="M216.363 34.3828L220.481 39.104" stroke="#2E2E2E" stroke-width="1.5"></path><path d="M202.431 128.677L200.832 110.012L215.225 120.42L206.53 121.28L202.431 128.677Z" stroke="#2E2E2E" stroke-width="1.5"></path></svg>