<svg xmlns="http://www.w3.org/2000/svg" width="60" height="60" viewBox="0 0 60 60" fill="none"><rect x="5.25" y="9.75" width="49.5" height="35.7167" rx="2.00677" stroke="#2E2E2E" stroke-width="1.5"></rect><line x1="9" y1="52.3594" x2="51.7297" y2="52.3594" stroke="#2E2E2E" stroke-width="1.5"></line><path d="M22.298 28.0469L13 22.7852M22.298 28.0469V37.6934M22.298 28.0469L31.1532 22.7852M13 22.7852V32.3535C13 32.6709 13.1768 32.9619 13.4586 33.1081L22.298 37.6934M13 22.7852L21.869 17.7662C22.1343 17.6161 22.4597 17.6195 22.7218 17.7753L31.1532 22.7852M22.298 37.6934L30.7098 33.1117C30.9831 32.9628 31.1532 32.6765 31.1532 32.3652V22.7852" stroke="#2E2E2E" stroke-width="1.5" stroke-linecap="square"></path><path d="M36.9141 22.0391H47.9141" stroke="#2E2E2E" stroke-width="1.5"></path><path d="M36.9141 27.6094H47.9141" stroke="#2E2E2E" stroke-width="1.5"></path><path d="M36.9141 33.1719H47.9141" stroke="#2E2E2E" stroke-width="1.5"></path></svg>