<svg width="25" height="26" viewBox="0 0 25 26" fill="none" xmlns="http://www.w3.org/2000/svg">
<g clip-path="url(#clip0_3194_41369)">
<path d="M8.53217 22.2504C8.45172 22.2504 8.37266 22.2293 8.30284 22.1894C8.23302 22.1494 8.17487 22.0918 8.13414 22.0225C6.40895 19.0833 1.8118 12.8281 1.76556 12.7652C1.69987 12.676 1.66851 12.566 1.67721 12.4555C1.6859 12.345 1.73407 12.2414 1.81291 12.1634L3.22605 10.7671C3.30282 10.6912 3.40376 10.6446 3.5113 10.6355C3.61885 10.6263 3.7262 10.6551 3.81469 10.7169L8.43594 13.9438C11.5083 9.99696 14.3635 7.2731 16.2401 5.66814C18.3435 3.86893 19.6809 3.06045 19.7368 3.02676C19.8085 2.9837 19.8906 2.96095 19.9743 2.96094H22.2604C22.354 2.96093 22.4453 2.98936 22.5224 3.04245C22.5994 3.09555 22.6585 3.17081 22.6918 3.25826C22.7251 3.34571 22.731 3.44121 22.7088 3.5321C22.6866 3.623 22.6372 3.70499 22.5674 3.76721C19.1782 6.78567 15.6547 11.5816 13.2956 15.0733C10.7311 18.8687 8.95092 21.9862 8.93325 22.0172C8.89317 22.0876 8.8353 22.1462 8.76544 22.1871C8.69557 22.228 8.61618 22.2498 8.53522 22.2503L8.53217 22.2504Z" fill="url(#paint0_linear_3194_41369)"/>
</g>
<defs>
<linearGradient id="paint0_linear_3194_41369" x1="16.9258" y1="14.9747" x2="5.8387" y2="5.66554" gradientUnits="userSpaceOnUse">
<stop/>
<stop offset="0.57" stop-color="#999999"/>
<stop offset="1" stop-color="#252525"/>
</linearGradient>
<clipPath id="clip0_3194_41369">
<rect width="24" height="25" fill="white" transform="translate(0.199219 0.109375)"/>
</clipPath>
</defs>
</svg>
