<svg width="32" height="33" viewBox="0 0 32 33" fill="none" xmlns="http://www.w3.org/2000/svg">
<g clip-path="url(#clip0_2686_12885)">
<g clip-path="url(#clip1_2686_12885)">
<g clip-path="url(#clip2_2686_12885)">
<path fill-rule="evenodd" clip-rule="evenodd" d="M21.0304 11.185L17.7842 20.9279C17.5892 21.5114 17.9048 22.1439 18.4897 22.3389C19.0746 22.5339 19.7072 22.2183 19.9022 21.6334L23.1483 11.8905C23.3433 11.3071 23.0278 10.6745 22.4428 10.4795C21.8579 10.2846 21.2253 10.6001 21.0304 11.185Z" fill="black"/>
<path fill-rule="evenodd" clip-rule="evenodd" d="M23.8661 13.9453L26.3234 16.4026L23.8661 18.8599C23.43 19.296 23.43 20.003 23.8661 20.4391C24.3022 20.8752 25.0092 20.8752 25.4453 20.4391L28.6914 17.1914C29.1275 16.7554 29.1275 16.0499 28.6914 15.6138L25.4453 12.3661C25.0092 11.9301 24.3022 11.9301 23.8661 12.3661C23.43 12.8022 23.43 13.5092 23.8661 13.9453Z" fill="black"/>
<path fill-rule="evenodd" clip-rule="evenodd" d="M15.4795 12.3661L12.2333 15.6138C11.7972 16.0499 11.7972 16.7554 12.2333 17.1914L15.4795 20.4391C15.9156 20.8752 16.6225 20.8752 17.0586 20.4391C17.4947 20.003 17.4947 19.296 17.0586 18.8599L14.6013 16.4026L17.0586 13.9453C17.4947 13.5092 17.4947 12.8022 17.0586 12.3661C16.6225 11.9301 15.9156 11.9301 15.4795 12.3661Z" fill="black"/>
<path fill-rule="evenodd" clip-rule="evenodd" d="M21.5814 21.2941L21.312 22.1007C20.858 23.4641 19.3816 24.2024 18.0182 23.7484C17.2651 23.4969 16.7025 22.9358 16.4272 22.2526C15.7098 22.2957 14.9775 22.0427 14.4283 21.4949L11.1821 18.2474C10.1641 17.2309 10.1641 15.5816 11.1821 14.5652L14.4283 11.3175C15.4448 10.301 17.0954 10.301 18.112 11.3175C18.5704 11.7759 18.822 12.3623 18.8681 12.9621L19.6182 10.7118C19.9248 9.79192 20.6943 9.15788 21.5814 8.98076V4.49927C21.5814 3.41425 21.1498 2.37239 20.3833 1.60439C19.6153 0.837878 18.5734 0.40625 17.4884 0.40625C13.8508 0.40625 7.7306 0.40625 4.09302 0.40625C3.008 0.40625 1.96614 0.837878 1.19814 1.60439C0.431628 2.37239 0 3.41425 0 4.49927V28.3132C0 29.3983 0.431628 30.4402 1.19814 31.2082C1.96614 31.9747 3.008 32.4062 4.09302 32.4062H17.4884C18.5734 32.4062 19.6153 31.9747 20.3833 31.2082C21.1498 30.4402 21.5814 29.3983 21.5814 28.3132V21.2941ZM7.81395 28.6854H13.7674C14.3836 28.6854 14.8837 28.1852 14.8837 27.569C14.8837 26.9529 14.3836 26.4527 13.7674 26.4527H7.81395C7.19777 26.4527 6.69767 26.9529 6.69767 27.569C6.69767 28.1852 7.19777 28.6854 7.81395 28.6854ZM16.7442 2.63881H4.83721L5.76447 4.9562C6.10381 5.80458 6.92391 6.35974 7.83777 6.35974H13.7436C14.6575 6.35974 15.4776 5.80458 15.8169 4.9562L16.7442 2.63881Z" fill="black"/>
</g>
</g>
</g>
<defs>
<clipPath id="clip0_2686_12885">
<rect width="32" height="32" fill="white" transform="translate(0 0.40625)"/>
</clipPath>
<clipPath id="clip1_2686_12885">
<rect width="30" height="32" fill="white" transform="translate(0 0.40625)"/>
</clipPath>
<clipPath id="clip2_2686_12885">
<rect width="30" height="32" fill="white" transform="translate(0 0.40625)"/>
</clipPath>
</defs>
</svg>
