<svg width="33" height="34" viewBox="0 0 33 34" fill="none" xmlns="http://www.w3.org/2000/svg">
<g clip-path="url(#clip0_2686_12940)">
<g clip-path="url(#clip1_2686_12940)">
<g clip-path="url(#clip2_2686_12940)">
<path fill-rule="evenodd" clip-rule="evenodd" d="M26.8615 10.549C26.8615 8.21757 24.9722 6.32812 22.6406 6.32812H10.3615C8.03007 6.32812 6.14062 8.21757 6.14062 10.549V22.8281C6.14062 25.1596 8.03007 27.049 10.3615 27.049H22.6406C24.9722 27.049 26.8615 25.1596 26.8615 22.8281V10.549ZM19.5709 13.6189V19.7583C19.5709 20.3938 20.0866 20.9095 20.7221 20.9095C21.3574 20.9095 21.8731 20.3938 21.8731 19.7583V13.6189C21.8731 12.9834 21.3574 12.4677 20.7221 12.4677C20.0866 12.4677 19.5709 12.9834 19.5709 13.6189ZM18.036 19.7583V15.1537C18.036 13.671 16.8342 12.4677 15.35 12.4677H13.8151C12.3308 12.4677 11.129 13.671 11.129 15.1537V19.7583C11.129 20.3938 11.6447 20.9095 12.2802 20.9095C12.9156 20.9095 13.4313 20.3938 13.4313 19.7583V18.6072H15.7337V19.7583C15.7337 20.3938 16.2493 20.9095 16.8848 20.9095C17.5202 20.9095 18.036 20.3938 18.036 19.7583ZM13.4313 16.3049H15.7337V15.1537C15.7337 14.9419 15.5618 14.7699 15.35 14.7699H13.8151C13.6032 14.7699 13.4313 14.9419 13.4313 15.1537V16.3049Z" fill="black"/>
<path fill-rule="evenodd" clip-rule="evenodd" d="M25.7059 17.8414H31.8454C32.4809 17.8414 32.9965 17.3257 32.9965 16.6902C32.9965 16.0548 32.4809 15.5391 31.8454 15.5391H25.7059C25.0704 15.5391 24.5547 16.0548 24.5547 16.6902C24.5547 17.3257 25.0704 17.8414 25.7059 17.8414Z" fill="black"/>
<path fill-rule="evenodd" clip-rule="evenodd" d="M17.6539 7.4782V1.33866C17.6539 0.703221 17.1382 0.1875 16.5027 0.1875C15.8673 0.1875 15.3516 0.703221 15.3516 1.33866V7.4782C15.3516 8.11364 15.8673 8.62936 16.5027 8.62936C17.1382 8.62936 17.6539 8.11364 17.6539 7.4782Z" fill="black"/>
<path fill-rule="evenodd" clip-rule="evenodd" d="M15.3516 25.8934V32.0329C15.3516 32.6684 15.8673 33.1841 16.5027 33.1841C17.1382 33.1841 17.6539 32.6684 17.6539 32.0329V25.8934C17.6539 25.2579 17.1382 24.7422 16.5027 24.7422C15.8673 24.7422 15.3516 25.2579 15.3516 25.8934Z" fill="black"/>
<path fill-rule="evenodd" clip-rule="evenodd" d="M7.2907 15.5391H1.15116C0.515721 15.5391 0 16.0548 0 16.6902C0 17.3257 0.515721 17.8414 1.15116 17.8414H7.2907C7.92614 17.8414 8.44186 17.3257 8.44186 16.6902C8.44186 16.0548 7.92614 15.5391 7.2907 15.5391Z" fill="black"/>
<path fill-rule="evenodd" clip-rule="evenodd" d="M25.7059 13.2321H29.5431C30.1785 13.2321 30.6942 12.7163 30.6942 12.0809C30.6942 11.4454 30.1785 10.9297 29.5431 10.9297H25.7059C25.0704 10.9297 24.5547 11.4454 24.5547 12.0809C24.5547 12.7163 25.0704 13.2321 25.7059 13.2321Z" fill="black"/>
<path fill-rule="evenodd" clip-rule="evenodd" d="M13.0445 7.48056V3.64335C13.0445 3.00792 12.5287 2.49219 11.8933 2.49219C11.2579 2.49219 10.7422 3.00792 10.7422 3.64335V7.48056C10.7422 8.11601 11.2579 8.63172 11.8933 8.63172C12.5287 8.63172 13.0445 8.11601 13.0445 7.48056Z" fill="black"/>
<path fill-rule="evenodd" clip-rule="evenodd" d="M10.7422 25.8934V29.7306C10.7422 30.366 11.2579 30.8817 11.8933 30.8817C12.5287 30.8817 13.0445 30.366 13.0445 29.7306V25.8934C13.0445 25.2579 12.5287 24.7422 11.8933 24.7422C11.2579 24.7422 10.7422 25.2579 10.7422 25.8934Z" fill="black"/>
<path fill-rule="evenodd" clip-rule="evenodd" d="M7.29305 10.9297H3.45584C2.82041 10.9297 2.30469 11.4454 2.30469 12.0809C2.30469 12.7163 2.82041 13.2321 3.45584 13.2321H7.29305C7.9285 13.2321 8.44421 12.7163 8.44421 12.0809C8.44421 11.4454 7.9285 10.9297 7.29305 10.9297Z" fill="black"/>
<path fill-rule="evenodd" clip-rule="evenodd" d="M25.7059 22.4429H29.5431C30.1785 22.4429 30.6942 21.9273 30.6942 21.2918C30.6942 20.6564 30.1785 20.1406 29.5431 20.1406H25.7059C25.0704 20.1406 24.5547 20.6564 24.5547 21.2918C24.5547 21.9273 25.0704 22.4429 25.7059 22.4429Z" fill="black"/>
<path fill-rule="evenodd" clip-rule="evenodd" d="M22.2554 7.48056V3.64335C22.2554 3.00792 21.7397 2.49219 21.1042 2.49219C20.4687 2.49219 19.9531 3.00792 19.9531 3.64335V7.48056C19.9531 8.11601 20.4687 8.63172 21.1042 8.63172C21.7397 8.63172 22.2554 8.11601 22.2554 7.48056Z" fill="black"/>
<path fill-rule="evenodd" clip-rule="evenodd" d="M19.9531 25.8934V29.7306C19.9531 30.366 20.4687 30.8817 21.1042 30.8817C21.7397 30.8817 22.2554 30.366 22.2554 29.7306V25.8934C22.2554 25.2579 21.7397 24.7422 21.1042 24.7422C20.4687 24.7422 19.9531 25.2579 19.9531 25.8934Z" fill="black"/>
<path fill-rule="evenodd" clip-rule="evenodd" d="M7.29305 20.1406H3.45584C2.82041 20.1406 2.30469 20.6564 2.30469 21.2918C2.30469 21.9273 2.82041 22.4429 3.45584 22.4429H7.29305C7.9285 22.4429 8.44421 21.9273 8.44421 21.2918C8.44421 20.6564 7.9285 20.1406 7.29305 20.1406Z" fill="black"/>
</g>
</g>
</g>
<defs>
<clipPath id="clip0_2686_12940">
<rect width="33" height="33" fill="white" transform="translate(0 0.1875)"/>
</clipPath>
<clipPath id="clip1_2686_12940">
<rect width="33" height="33" fill="white" transform="translate(0 0.1875)"/>
</clipPath>
<clipPath id="clip2_2686_12940">
<rect width="33" height="33" fill="white" transform="translate(0 0.1875)"/>
</clipPath>
</defs>
</svg>
