<svg width="35" height="35" viewBox="0 0 35 35" fill="none" xmlns="http://www.w3.org/2000/svg">
<g clip-path="url(#clip0_2686_12903)">
<g clip-path="url(#clip1_2686_12903)">
<g clip-path="url(#clip2_2686_12903)">
<path fill-rule="evenodd" clip-rule="evenodd" d="M17.5353 17.0881V30.6343C17.5353 30.6728 17.5599 30.7052 17.5969 30.7159C19.1447 31.1576 19.6821 33.1259 18.5192 34.2887C17.683 35.1251 16.3272 35.125 15.4909 34.2887C14.3282 33.126 14.8653 31.1576 16.4132 30.7159C16.4501 30.7054 16.4748 30.6728 16.4748 30.6343V17.0881C16.4748 17.0415 16.5129 17.0033 16.5597 17.0033H17.4506C17.4972 17.0034 17.5353 17.0415 17.5353 17.0881ZM2.77387 11.6228C2.77387 14.0088 4.70788 15.9428 7.0938 15.9428H28.6035C30.0506 15.9428 31.2363 14.7569 31.2363 13.3099C31.2363 11.8609 30.0438 10.6734 28.6044 10.6749C28.1817 10.6753 27.9164 10.1824 28.181 9.8298C28.966 8.78402 28.862 7.31426 27.9348 6.38703C27.2397 5.69193 26.1912 5.43118 25.239 5.74817C24.697 5.92864 24.5326 6.15515 24.3485 6.21826C24.0716 6.31325 23.7702 6.16575 23.6753 5.88887C22.6745 2.97029 19.9275 0.976562 16.7943 0.976562C13.1411 0.976562 10.0779 3.67527 9.58775 7.26001C9.54062 7.60435 9.17198 7.81655 8.8482 7.67221C6.0375 6.4197 2.77387 8.4653 2.77387 11.6228ZM6.97501 25.6098C7.94265 25.6098 8.77433 26.2556 9.03359 27.1595C9.04418 27.1964 9.07669 27.2209 9.11512 27.2209H11.5564C11.603 27.2209 11.6412 27.1829 11.6412 27.1361V17.0881C11.6412 17.0415 11.6793 17.0033 11.7261 17.0033H12.617C12.6637 17.0033 12.7018 17.0415 12.7018 17.0881V27.7512C12.7018 28.0441 12.4645 28.2815 12.1715 28.2815H9.11512C9.07669 28.2815 9.04418 28.3062 9.03359 28.3432C8.59187 29.8908 6.6237 30.4283 5.46079 29.2654C4.62444 28.4291 4.62444 27.0734 5.46079 26.2369C5.84832 25.8496 6.38375 25.6098 6.97501 25.6098ZM2.14148 20.0801C1.55022 20.0801 1.0148 20.3198 0.627264 20.7073C-0.209088 21.5437 -0.209088 22.8995 0.627264 23.7358C1.79018 24.8987 3.75843 24.3611 4.20005 22.8136C4.21057 22.7766 4.24308 22.752 4.28159 22.752H7.33802C7.63088 22.752 7.86831 22.5145 7.86831 22.2217V17.0878C7.86831 17.0412 7.83058 17.0033 7.78407 17.003L6.89315 16.9966C6.84578 16.9963 6.80773 17.034 6.80773 17.0814V21.6065C6.80773 21.6533 6.76961 21.6914 6.72287 21.6914H4.28159C4.24316 21.6914 4.21065 21.6669 4.20005 21.63C3.94081 20.7258 3.10911 20.0801 2.14148 20.0801ZM25.5209 26.2371C26.3573 25.4007 27.713 25.4007 28.5494 26.2371C29.3857 27.0735 29.3857 28.4292 28.5494 29.2656C27.3864 30.4284 25.4183 29.8909 24.9765 28.3433C24.9659 28.3064 24.9334 28.2817 24.895 28.2817H21.8385C21.5457 28.2817 21.3082 28.0443 21.3082 27.7515V17.0881C21.3082 17.0415 21.3464 17.0033 21.3931 17.0033H22.2841C22.3307 17.0033 22.3689 17.0415 22.3689 17.0881V27.1361C22.3689 27.1829 22.407 27.2209 22.4538 27.2209H24.895C24.9334 27.2209 24.9659 27.1964 24.9765 27.1595C25.0779 26.806 25.2679 26.4901 25.5209 26.2371ZM30.3545 20.7073C30.1015 20.9603 29.9115 21.2764 29.8101 21.6297C29.7995 21.6668 29.767 21.6913 29.7286 21.6913H27.2873C27.2405 21.6913 27.2024 21.6531 27.2024 21.6064V17.0881C27.2024 17.0415 27.1644 17.0033 27.1176 17.0033H26.2267C26.18 17.0033 26.1418 17.0415 26.1418 17.0881V22.2215C26.1418 22.5143 26.3793 22.7518 26.6721 22.7518H29.7286C29.767 22.7518 29.7995 22.7764 29.8101 22.8133C30.2518 24.361 32.2199 24.8984 33.3829 23.7356C34.2193 22.8992 34.2193 21.5435 33.3829 20.7071C32.5465 19.8709 31.1908 19.8709 30.3545 20.7073Z" fill="black"/>
</g>
</g>
</g>
<defs>
<clipPath id="clip0_2686_12903">
<rect width="35" height="33.94" fill="white" transform="translate(0 0.976562)"/>
</clipPath>
<clipPath id="clip1_2686_12903">
<rect width="35" height="33.94" fill="white" transform="translate(0 0.976562)"/>
</clipPath>
<clipPath id="clip2_2686_12903">
<rect width="35" height="33.9394" fill="white" transform="translate(0 0.976562)"/>
</clipPath>
</defs>
</svg>
