<svg width="30" height="30" viewBox="0 0 30 30" fill="none" xmlns="http://www.w3.org/2000/svg">
<g clip-path="url(#clip0_2686_12866)">
<g clip-path="url(#clip1_2686_12866)">
<mask id="mask0_2686_12866" style="mask-type:luminance" maskUnits="userSpaceOnUse" x="0" y="0" width="30" height="30">
<path d="M30 0H0V30H30V0Z" fill="white"/>
</mask>
<g mask="url(#mask0_2686_12866)">
<path d="M29.5425 14.1576L28.8124 13.6875L16.6214 21.5182C16.1314 21.8282 15.5713 21.9982 15.0012 21.9982C14.4312 21.9982 13.8712 21.8382 13.3811 21.5282L1.1901 13.6875L0.460039 14.1576C0.170014 14.3376 0 14.6576 0 14.9977C0 15.3377 0.170014 15.6578 0.460039 15.8377L14.4612 24.8385C14.6312 24.9485 14.8112 24.9984 15.0012 24.9984C15.1913 24.9984 15.3813 24.9485 15.5413 24.8385L29.5425 15.8377C29.8325 15.6578 30.0025 15.3377 30.0025 14.9977C30.0025 14.6576 29.8325 14.3376 29.5425 14.1576Z" fill="black"/>
<path d="M29.5425 19.1576L28.8124 18.6875L16.6214 26.5182C16.1314 26.8282 15.5713 26.9983 15.0012 26.9983C14.4312 26.9983 13.8712 26.8382 13.3811 26.5282L1.1901 18.6875L0.460039 19.1576C0.170014 19.3376 0 19.6576 0 19.9977C0 20.3377 0.170014 20.6578 0.460039 20.8377L14.4612 29.8385C14.6312 29.9485 14.8112 29.9984 15.0012 29.9984C15.1913 29.9984 15.3813 29.9485 15.5413 29.8385L29.5425 20.8377C29.8325 20.6578 30.0025 20.3377 30.0025 19.9977C30.0025 19.6576 29.8325 19.3376 29.5425 19.1576Z" fill="black"/>
<path d="M0.460039 10.8384L14.4612 19.8391C14.6312 19.9492 14.8112 19.9992 15.0012 19.9992C15.1913 19.9992 15.3813 19.9492 15.5413 19.8391L29.5425 10.8384C29.8325 10.6584 30.0025 10.3383 30.0025 9.99838C30.0025 9.65835 29.8325 9.33828 29.5425 9.15827L15.5413 0.157513C15.2113 -0.0525044 14.7912 -0.0525044 14.4612 0.157513L0.460039 9.15827C0.170014 9.33828 0 9.65835 0 9.99838C0 10.3383 0.170014 10.6584 0.460039 10.8384ZM18.3216 8.65823C17.9415 8.25819 17.9515 7.62814 18.3415 7.2481C18.7416 6.86808 19.3717 6.87807 19.7516 7.26811L21.7118 9.29827C22.0918 9.68835 22.0918 10.2984 21.7118 10.6884L19.7516 12.7185C19.5517 12.9186 19.2916 13.0186 19.0316 13.0186C18.7716 13.0186 18.5316 12.9285 18.3315 12.7386C17.9315 12.3585 17.9215 11.7185 18.3115 11.3284L19.6016 9.98835L18.3115 8.64822L18.3216 8.65823ZM13.2411 13.0086L14.8112 6.50804C14.9412 5.968 15.4813 5.63797 16.0213 5.76798C16.5614 5.89799 16.8914 6.43804 16.7614 6.97808L15.1913 13.4787C15.0813 13.9387 14.6712 14.2387 14.2212 14.2387C14.1412 14.2387 14.0612 14.2387 13.9811 14.2087C13.4411 14.0787 13.1111 13.5387 13.2411 12.9986V13.0086ZM8.28069 9.29827L10.2409 7.26811C10.6208 6.86808 11.261 6.85807 11.651 7.2481C12.051 7.62814 12.061 8.26819 11.6709 8.65823L10.3808 9.99838L11.6709 11.3384C12.051 11.7385 12.041 12.3686 11.651 12.7485C11.4609 12.9386 11.201 13.0286 10.9509 13.0286C10.7009 13.0286 10.4309 12.9285 10.2308 12.7286L8.27069 10.6984C7.89066 10.3083 7.89066 9.69829 8.27069 9.30828L8.28069 9.29827Z" fill="black"/>
</g>
</g>
</g>
<defs>
<clipPath id="clip0_2686_12866">
<rect width="30" height="30" fill="white"/>
</clipPath>
<clipPath id="clip1_2686_12866">
<rect width="30" height="30" fill="white"/>
</clipPath>
</defs>
</svg>
