<svg width="32" height="25" viewBox="0 0 32 25" fill="none" xmlns="http://www.w3.org/2000/svg">
<g clip-path="url(#clip0_2686_12921)">
<g clip-path="url(#clip1_2686_12921)">
<g clip-path="url(#clip2_2686_12921)">
<mask id="mask0_2686_12921" style="mask-type:luminance" maskUnits="userSpaceOnUse" x="3" y="0" width="26" height="25">
<path d="M28.5 0H3.5V25H28.5V0Z" fill="white"/>
</mask>
<g mask="url(#mask0_2686_12921)">
<path fill-rule="evenodd" clip-rule="evenodd" d="M24.1094 3.536C19.3948 -1.17867 11.7507 -1.17867 7.036 3.536C2.32133 8.2507 2.32133 15.8948 7.036 20.6094C11.5527 25.126 18.7577 25.3158 23.5002 21.1787L27.0774 24.7559C27.4028 25.0813 27.9305 25.0813 28.2559 24.7559C28.5813 24.4305 28.5813 23.9028 28.2559 23.5774L24.6787 20.0002C28.8158 15.2577 28.626 8.05265 24.1094 3.536ZM15.5834 5C15.9723 5 16.3097 5.26921 16.3959 5.64854L17.0886 8.69468C17.3018 9.6325 18.0341 10.3648 18.972 10.578L22.0181 11.2708C22.3974 11.357 22.6666 11.6943 22.6666 12.0834C22.6666 12.4723 22.3974 12.8097 22.0181 12.8959L18.972 13.5886C18.0341 13.8018 17.3018 14.5341 17.0886 15.472L16.3959 18.5181C16.3097 18.8974 15.9723 19.1666 15.5834 19.1666C15.1943 19.1666 14.857 18.8974 14.7708 18.5181L14.078 15.472C13.8648 14.5341 13.1325 13.8018 12.1947 13.5886L9.14854 12.8959C8.76921 12.8097 8.5 12.4723 8.5 12.0834C8.5 11.6943 8.76921 11.357 9.14854 11.2708L12.1947 10.578C13.1325 10.3648 13.8648 9.6325 14.078 8.69468L14.7708 5.64854C14.857 5.26921 15.1943 5 15.5834 5Z" fill="#1D1D1D"/>
</g>
</g>
</g>
</g>
<defs>
<clipPath id="clip0_2686_12921">
<rect width="25" height="25" fill="white" transform="translate(3.5)"/>
</clipPath>
<clipPath id="clip1_2686_12921">
<rect width="25" height="25" fill="white" transform="translate(3.5)"/>
</clipPath>
<clipPath id="clip2_2686_12921">
<rect width="25" height="25" fill="white" transform="translate(3.5)"/>
</clipPath>
</defs>
</svg>
