<svg width="40" height="22" viewBox="0 0 40 22" fill="none" xmlns="http://www.w3.org/2000/svg">
<g clip-path="url(#clip0_2686_12968)">
<g clip-path="url(#clip1_2686_12968)">
<g clip-path="url(#clip2_2686_12968)">
<path d="M14.0736 1.27967V2.94874e-09H10.2346C8.92378 -3.97821e-05 7.64463 0.402513 6.57008 1.15321C5.49553 1.9039 4.67747 2.96651 4.22656 4.19732C4.9436 3.2899 5.85637 2.5562 6.89672 2.05098C7.93705 1.54577 9.0781 1.28211 10.2346 1.27967H14.0736Z" fill="black"/>
<path d="M15.3594 0H16.6391V1.27967H15.3594V0Z" fill="black"/>
<path d="M17.9141 0H19.1937V1.27967H17.9141V0Z" fill="black"/>
<path d="M29.4293 2.5625H10.2343C8.53734 2.5625 6.9099 3.23661 5.70997 4.43654C4.51005 5.63646 3.83594 7.26388 3.83594 8.96087V15.3592C3.83594 17.0562 4.51005 18.6836 5.70997 19.8835C6.9099 21.0835 8.53734 21.7576 10.2343 21.7576H15.353C15.6924 21.7576 16.0178 21.6228 16.2578 21.3828C16.4978 21.1428 16.6326 20.8173 16.6326 20.4778C16.6326 19.7991 16.9023 19.1481 17.3823 18.6682C17.8623 18.1882 18.5132 17.9185 19.192 17.9185H20.4717C21.1504 17.9185 21.8014 18.1882 22.2813 18.6682C22.7613 19.1481 23.031 19.7991 23.031 20.4778C23.031 20.8173 23.1658 21.1428 23.4058 21.3828C23.6458 21.6228 23.9712 21.7576 24.3107 21.7576H29.4293C31.1263 21.7576 32.7538 21.0835 33.9536 19.8835C35.1536 18.6836 35.8277 17.0562 35.8277 15.3592V8.96087C35.8277 7.26388 35.1536 5.63646 33.9536 4.43654C32.7538 3.23661 31.1263 2.5625 29.4293 2.5625ZM6.39528 13.4397H5.11561V12.16H6.39528V13.4397ZM10.8741 5.12184C9.68625 5.12184 8.54703 5.59372 7.7071 6.43366C6.86716 7.27364 6.39528 8.4128 6.39528 9.60065V10.8804H5.11561V9.60065C5.11561 8.07343 5.72231 6.60873 6.80224 5.5288C7.88218 4.44887 9.34688 3.84217 10.8741 3.84217V5.12184ZM19.192 10.8804C19.1919 10.9952 19.161 11.1079 19.1024 11.2067L17.1829 14.4058C17.1263 14.5014 17.0457 14.5804 16.9493 14.6353C16.8528 14.6903 16.7437 14.7192 16.6326 14.7192C16.5216 14.7192 16.4125 14.6903 16.316 14.6353C16.2196 14.5804 16.139 14.5014 16.0824 14.4058L14.1629 11.2067C14.1043 11.1079 14.0733 10.9952 14.0733 10.8804V7.04136H15.353V10.7012L16.6326 12.8383L17.9123 10.7012V7.04136H19.192V10.8804ZM25.5903 14.7194H24.3107C24.3112 14.108 24.1192 13.5121 23.7621 13.016C23.4049 12.5199 22.9006 12.1487 22.3208 11.9553L21.7513 11.7697V14.7194H20.4717V7.68122C20.4717 7.51146 20.539 7.34872 20.659 7.22872C20.779 7.10872 20.9418 7.04136 21.1115 7.04136H23.3509C23.8873 7.04346 24.4051 7.23799 24.8102 7.58957C25.2152 7.94115 25.4806 8.42648 25.5582 8.95729C25.6357 9.48802 25.52 10.0289 25.2324 10.4817C24.9447 10.9344 24.5041 11.2689 23.9907 11.4242C24.4894 11.8165 24.8925 12.317 25.1696 12.8878C25.4467 13.4586 25.5905 14.0849 25.5903 14.7194Z" fill="black"/>
<path d="M23.3574 8.32031H21.7578V10.2398H23.3574C23.6119 10.2398 23.8561 10.1387 24.0361 9.9587C24.2161 9.7787 24.3172 9.53456 24.3172 9.28003C24.3172 9.02551 24.2161 8.78137 24.0361 8.60137C23.8561 8.42144 23.6119 8.32031 23.3574 8.32031Z" fill="black"/>
<path d="M20.4766 0H21.7562V1.27967H20.4766V0Z" fill="black"/>
<path d="M23.0312 0H24.3109V1.27967H23.0312V0Z" fill="black"/>
<path d="M35.4408 4.19732C34.9899 2.96651 34.1719 1.9039 33.0973 1.15321C32.0227 0.402513 30.7436 -3.97821e-05 29.4328 2.94874e-09H25.5938V1.27967H29.4328C30.5893 1.28211 31.7303 1.54577 32.7707 2.05098C33.811 2.5562 34.7238 3.2899 35.4408 4.19732Z" fill="black"/>
<path d="M38.387 7.67969H36.9922C37.0695 8.10179 37.108 8.53014 37.1073 8.95934V15.3577C37.108 15.7868 37.0695 16.2152 36.9922 16.6374H38.387C38.7264 16.6374 39.0519 16.5025 39.2918 16.2626C39.5318 16.0226 39.6666 15.6971 39.6666 15.3577V8.95934C39.6666 8.61997 39.5318 8.29442 39.2918 8.05449C39.0519 7.81449 38.7264 7.67969 38.387 7.67969Z" fill="black"/>
<path d="M2.67451 7.67969H1.27967C0.940281 7.67969 0.614791 7.81449 0.374806 8.05449C0.134822 8.29442 0 8.61997 0 8.95934V15.3577C0 15.6971 0.134822 16.0226 0.374806 16.2626C0.614791 16.5025 0.940281 16.6374 1.27967 16.6374H2.67451C2.59719 16.2152 2.55863 15.7868 2.55934 15.3577V8.95934C2.55863 8.53014 2.59719 8.10179 2.67451 7.67969Z" fill="black"/>
</g>
</g>
</g>
<defs>
<clipPath id="clip0_2686_12968">
<rect width="40" height="21.75" fill="white"/>
</clipPath>
<clipPath id="clip1_2686_12968">
<rect width="40" height="21.75" fill="white"/>
</clipPath>
<clipPath id="clip2_2686_12968">
<rect width="40" height="21.7544" fill="white"/>
</clipPath>
</defs>
</svg>
