<?xml version="1.0" standalone="no"?>
<!DOCTYPE svg PUBLIC "-//W3C//DTD SVG 20010904//EN"
 "http://www.w3.org/TR/2001/REC-SVG-20010904/DTD/svg10.dtd">
<svg version="1.0" xmlns="http://www.w3.org/2000/svg"
 width="823.000000pt" height="303.000000pt" viewBox="0 0 823.000000 303.000000"
 preserveAspectRatio="xMidYMid meet">

<g transform="translate(0.000000,303.000000) scale(0.100000,-0.100000)"
fill="#000000" stroke="none">
<path d="M2722 1637 l-132 -132 133 -133 132 -132 65 65 c35 35 65 63 67 61 3
-3 63 54 116 111 l28 30 -139 131 -138 131 -132 -132z"/>
<path d="M4005 1738 c-3 -8 -4 -97 -3 -198 l3 -185 35 0 35 0 0 195 0 195 -33
3 c-20 2 -34 -2 -37 -10z"/>
<path d="M4520 1550 l0 -200 23 0 c13 0 28 5 34 11 8 8 17 8 31 0 34 -18 111
-13 147 9 86 53 86 199 0 256 -28 18 -106 24 -142 11 -22 -8 -23 -6 -23 52 l0
61 -35 0 -35 0 0 -200z m202 0 c25 -26 29 -36 24 -62 -9 -47 -33 -68 -78 -68
-51 0 -78 27 -78 79 0 31 6 44 26 60 37 29 70 26 106 -9z"/>
<path d="M3700 1632 c-102 -51 -106 -192 -8 -252 36 -22 88 -26 120 -9 25 13
32 7 24 -24 -3 -15 -18 -30 -37 -38 -28 -11 -36 -10 -73 9 -41 22 -96 30 -96
13 0 -4 9 -20 21 -35 62 -79 191 -74 246 11 15 22 19 53 21 180 l4 153 -24 0
c-13 0 -29 -5 -34 -10 -7 -7 -22 -6 -47 5 -47 19 -74 19 -117 -3z m120 -72
c50 -50 16 -130 -55 -130 -42 0 -69 30 -69 77 0 64 79 98 124 53z"/>
<path d="M4223 1629 c-100 -50 -108 -193 -13 -257 48 -33 146 -28 186 8 82 78
70 198 -26 248 -55 27 -93 28 -147 1z m121 -70 c20 -16 26 -29 26 -61 0 -54
-22 -78 -72 -78 -74 0 -107 82 -53 135 30 30 64 32 99 4z"/>
<path d="M4972 1643 c-13 -3 -38 -20 -57 -39 -59 -58 -59 -148 -1 -211 27 -30
41 -36 84 -41 29 -2 64 1 81 8 23 9 33 9 49 -1 10 -7 27 -9 36 -6 14 5 16 26
16 147 l0 140 -29 0 c-16 0 -31 -5 -33 -10 -2 -7 -16 -5 -40 5 -37 15 -60 17
-106 8z m104 -87 c34 -28 38 -84 9 -116 -40 -44 -133 -15 -136 43 -2 40 2 52
27 75 32 28 66 28 100 -2z"/>
<path d="M5260 1605 l0 -34 54 -3 54 -3 -59 -100 c-32 -55 -59 -103 -59 -107
0 -5 52 -8 115 -8 l115 0 0 35 0 35 -55 0 c-30 0 -55 4 -55 10 0 5 23 48 50
94 75 127 79 116 -49 116 l-111 0 0 -35z"/>
</g>
</svg>
