<?xml version="1.0" standalone="no"?>
<!DOCTYPE svg PUBLIC "-//W3C//DTD SVG 20010904//EN"
 "http://www.w3.org/TR/2001/REC-SVG-20010904/DTD/svg10.dtd">
<svg version="1.0" xmlns="http://www.w3.org/2000/svg"
 width="823.000000pt" height="303.000000pt" viewBox="0 0 823.000000 303.000000"
 preserveAspectRatio="xMidYMid meet">

<g transform="translate(0.000000,303.000000) scale(0.100000,-0.100000)"
fill="#000000" stroke="none">
<path d="M3990 1883 l-22 -28 34 -5 33 -5 0 -95 0 -95 -33 3 c-19 2 -58 12
-87 22 l-53 18 -26 -36 -25 -36 31 -13 c22 -10 34 -10 44 -2 9 8 29 7 71 -2
32 -7 99 -13 148 -13 50 0 116 6 148 13 42 9 62 10 71 2 10 -8 22 -8 44 2 l31
13 -25 36 -25 35 -57 -17 c-32 -10 -71 -20 -87 -21 l-30 -4 0 95 0 95 33 5 34
5 -22 28 c-25 31 -73 37 -100 12 -15 -14 -18 -14 -30 0 -21 26 -75 19 -100
-12z m104 -9 c3 -9 6 -72 6 -140 l0 -124 -42 0 c-24 0 -70 7 -102 14 -42 10
-64 11 -76 4 -11 -7 -23 -7 -34 -1 -16 9 -16 11 1 32 18 22 20 23 73 8 30 -9
72 -18 93 -22 l38 -6 -3 108 -3 108 -27 3 c-19 2 -25 8 -21 18 8 20 89 19 97
-2z m119 2 c4 -10 -2 -16 -21 -18 l-27 -3 -3 -107 c-2 -86 0 -108 11 -108 8 0
49 9 93 20 l79 21 17 -22 c10 -11 15 -25 12 -30 -7 -12 -37 -12 -50 0 -5 6
-32 4 -69 -4 -33 -8 -79 -15 -102 -15 l-43 0 0 124 c0 68 3 131 6 140 8 21 89
22 97 2z"/>
<path d="M2826 1561 c-3 -5 1 -11 9 -15 11 -4 15 -23 15 -80 0 -131 -34 -164
-98 -97 -40 43 -71 51 -91 27 -25 -30 35 -86 91 -86 15 0 40 -19 74 -57 l51
-58 1197 -3 c1348 -3 1231 -9 1305 77 33 40 48 50 84 55 76 12 118 77 55 84
-20 2 -38 -7 -72 -38 -25 -23 -50 -39 -56 -35 -5 3 -10 24 -10 46 0 40 14 51
38 27 8 -8 12 -9 12 -1 0 27 -12 41 -32 35 -16 -4 -19 -1 -16 14 5 26 35 30
60 7 20 -18 20 -17 17 2 -4 17 -13 20 -64 23 l-60 3 0 -86 0 -85 28 0 c15 0
27 -4 27 -8 0 -11 -39 -46 -67 -61 -16 -8 -356 -11 -1237 -11 l-1214 0 -31 26
c-37 31 -39 42 -6 54 39 15 55 59 55 150 0 66 3 80 16 80 8 0 12 5 9 10 -8 12
-82 13 -89 1z m2672 -198 c-2 -9 -15 -20 -30 -24 -32 -8 -35 -3 -11 23 20 23
46 24 41 1z m-2748 -18 c20 -21 21 -25 6 -25 -26 0 -56 19 -56 35 0 23 24 18
50 -10z"/>
<path d="M4305 1561 c-44 -19 -60 -50 -60 -118 0 -61 2 -66 33 -94 30 -27 40
-30 85 -27 52 3 65 13 66 48 0 12 -2 12 -13 -2 -7 -10 -25 -22 -40 -28 -53
-20 -86 20 -86 106 0 94 52 132 114 83 18 -14 26 -16 26 -7 0 20 -13 35 -30
36 -8 0 -28 3 -45 6 -16 3 -39 2 -50 -3z"/>
<path d="M2945 1418 c-16 -40 -36 -78 -44 -85 -14 -11 -11 -12 16 -13 26 0 30
3 26 20 -5 18 0 20 34 20 46 0 57 -8 42 -27 -9 -10 -4 -13 25 -13 20 0 36 1
36 3 0 2 -9 21 -19 43 -10 21 -25 58 -32 82 -9 33 -17 42 -34 42 -18 0 -27
-13 -50 -72z m65 -25 c0 -8 -12 -13 -30 -13 -35 0 -34 -3 -14 46 l17 39 13
-30 c7 -16 13 -36 14 -42z"/>
<path d="M3115 1405 l0 -85 61 0 c48 0 63 4 68 16 5 13 2 14 -11 9 -10 -5 -29
-8 -43 -9 -22 -1 -25 3 -28 42 -3 36 0 42 17 42 10 0 22 -6 25 -12 3 -7 4 -2
3 12 -2 20 -7 24 -25 22 -18 -3 -23 1 -20 15 4 24 41 28 62 8 15 -15 16 -15
16 4 0 19 -6 21 -62 21 l-63 0 0 -85z"/>
<path d="M3295 1467 c-38 -32 -41 -100 -6 -128 43 -35 121 -17 134 31 4 17 0
20 -31 20 -28 0 -33 -3 -22 -10 12 -7 12 -13 4 -27 -6 -10 -17 -19 -25 -20
-28 -6 -41 14 -42 65 -1 74 32 104 75 65 19 -17 34 -12 25 10 -3 7 -22 14 -45
15 -30 2 -47 -3 -67 -21z"/>
<path d="M3450 1480 c0 -5 5 -10 10 -10 14 0 13 -123 -2 -138 -9 -9 4 -12 59
-12 54 0 72 4 77 15 6 17 -9 21 -19 5 -7 -12 -64 -14 -66 -2 -10 69 5 98 36
72 12 -10 15 -10 15 1 0 22 -14 38 -32 36 -9 -1 -17 3 -18 8 -1 15 49 18 67 4
13 -11 15 -10 12 6 -4 17 -14 20 -72 23 -42 2 -67 -1 -67 -8z"/>
<path d="M3628 1478 c16 -16 16 -130 0 -146 -9 -9 -4 -12 26 -12 32 0 37 2 26
14 -16 20 -9 60 12 64 11 2 24 -10 38 -37 16 -32 26 -41 46 -41 l26 0 -33 41
c-26 33 -29 43 -18 50 8 5 17 9 22 9 4 0 7 11 7 25 0 33 -27 45 -101 45 -49 0
-60 -3 -51 -12z m115 -18 c16 -14 -12 -50 -38 -50 -22 0 -25 4 -25 35 0 33 1
35 28 29 15 -4 31 -10 35 -14z"/>
<path d="M3940 1471 c14 -27 13 -124 -2 -139 -9 -9 2 -12 49 -12 45 0 62 4 67
15 7 18 2 19 -23 3 -36 -22 -51 -4 -51 65 0 36 5 68 12 75 9 9 4 12 -25 12
-34 0 -37 -2 -27 -19z"/>
<path d="M4085 1405 l0 -85 61 0 c48 0 63 4 68 16 5 13 2 14 -11 9 -10 -5 -29
-8 -43 -9 -22 -1 -25 3 -28 42 -3 36 0 42 17 42 10 0 22 -6 25 -12 3 -7 4 -2
3 12 -2 20 -7 24 -25 22 -18 -3 -23 1 -20 15 4 24 41 28 62 8 15 -15 16 -15
16 4 0 19 -6 21 -62 21 l-63 0 0 -85z"/>
<path d="M4485 1465 c-75 -74 25 -190 109 -124 21 16 26 29 26 64 0 35 -5 48
-26 64 -36 28 -79 27 -109 -4z m83 3 c7 -7 12 -35 12 -64 0 -62 -17 -83 -55
-66 -22 10 -25 18 -25 65 0 54 12 77 40 77 9 0 21 -5 28 -12z"/>
<path d="M4658 1443 c6 -98 22 -123 77 -123 45 0 62 27 67 108 4 51 2 62 -11
62 -13 0 -15 -11 -13 -65 5 -87 -22 -120 -62 -79 -19 19 -22 114 -4 132 9 9 4
12 -23 12 l-34 0 3 -47z"/>
<path d="M4848 1478 c16 -16 16 -130 0 -146 -9 -9 2 -12 49 -12 34 0 65 5 68
11 11 17 -2 21 -23 8 -17 -10 -23 -10 -36 0 -19 16 -22 121 -4 139 9 9 3 12
-27 12 -30 0 -36 -3 -27 -12z"/>
<path d="M4955 1479 c-4 -6 -4 -13 0 -17 3 -3 10 0 15 7 4 8 15 11 25 7 14 -5
16 -18 13 -81 l-3 -75 35 1 c19 0 29 3 23 6 -18 7 -18 153 0 153 7 0 18 -5 25
-12 13 -13 27 -5 17 11 -3 6 -37 11 -75 11 -38 0 -72 -5 -75 -11z"/>
<path d="M5135 1405 l0 -85 35 0 c26 0 31 3 22 12 -7 7 -12 25 -12 40 0 41 25
35 55 -12 19 -30 32 -40 52 -40 23 0 25 2 12 13 -9 6 -23 25 -33 40 -17 28
-17 29 3 44 26 18 27 49 2 63 -11 5 -46 10 -78 10 l-58 0 0 -85z m101 65 c8 0
14 -10 14 -25 0 -18 -7 -26 -24 -31 -32 -8 -46 2 -46 30 0 28 9 38 28 31 7 -3
20 -5 28 -5z"/>
<path d="M3820 1406 c0 -12 11 -16 41 -16 52 0 48 24 -4 28 -28 2 -37 -1 -37
-12z"/>
</g>
</svg>
