<?xml version="1.0" standalone="no"?>
<!DOCTYPE svg PUBLIC "-//W3C//DTD SVG 20010904//EN"
 "http://www.w3.org/TR/2001/REC-SVG-20010904/DTD/svg10.dtd">
<svg version="1.0" xmlns="http://www.w3.org/2000/svg"
 width="823.000000pt" height="303.000000pt" viewBox="0 0 823.000000 303.000000"
 preserveAspectRatio="xMidYMid meet">

<g transform="translate(0.000000,303.000000) scale(0.100000,-0.100000)"
fill="#000000" stroke="none">
<path d="M4715 1662 c-25 -53 -155 -344 -155 -348 0 -2 11 -4 26 -4 21 0 29 8
46 50 l21 50 79 0 80 0 21 -50 c18 -43 25 -50 49 -50 l27 0 -18 43 c-10 23
-32 71 -48 107 -17 36 -47 103 -68 150 -21 47 -39 86 -40 87 -1 2 -10 -14 -20
-35z m50 -134 c35 -75 34 -78 -30 -78 -30 0 -55 4 -55 10 0 15 48 120 55 120
3 0 17 -24 30 -52z"/>
<path d="M3147 1683 c-2 -4 -8 -24 -12 -43 -12 -63 -63 -285 -71 -312 -4 -14
1 -18 20 -18 25 0 27 4 41 80 15 80 29 136 36 144 5 5 17 -10 27 -35 11 -24
36 -80 56 -124 l37 -79 56 117 c31 64 59 117 63 117 7 0 50 -176 50 -204 0
-10 9 -16 25 -16 14 0 25 3 25 8 0 4 -19 90 -42 191 l-42 183 -36 -73 c-19
-41 -48 -102 -62 -136 -15 -35 -31 -63 -36 -63 -4 0 -34 60 -66 133 -65 147
-62 141 -69 130z"/>
<path d="M3550 1500 l0 -190 25 0 25 0 0 190 0 190 -25 0 -25 0 0 -190z"/>
<path d="M3680 1500 l0 -190 28 0 27 0 -1 74 c-1 41 2 80 7 87 9 16 8 17 86
-93 l48 -68 51 0 51 0 23 50 23 50 79 0 79 0 21 -50 c17 -40 25 -50 44 -50 13
0 24 3 24 8 0 12 -164 372 -170 372 -3 0 -42 -80 -86 -177 -44 -98 -84 -178
-90 -177 -10 0 -113 134 -114 147 0 4 8 7 18 7 24 0 59 37 67 72 9 35 -11 94
-38 113 -15 10 -46 15 -99 15 l-78 0 0 -190z m138 134 c15 -10 22 -25 22 -48
0 -40 -15 -55 -61 -58 l-34 -3 -3 63 -3 62 28 0 c16 0 39 -7 51 -16z m317
-114 c13 -30 21 -58 19 -62 -6 -9 -98 -11 -106 -2 -9 8 44 125 55 121 5 -1 19
-27 32 -57z"/>
<path d="M4310 1500 l0 -190 88 0 c100 0 124 11 142 65 16 47 4 91 -30 116
l-27 21 23 23 c28 28 31 72 9 114 -19 37 -31 41 -126 41 l-79 0 0 -190z m150
130 c40 -40 15 -96 -45 -100 -55 -4 -55 -3 -55 60 l0 60 40 0 c27 0 47 -7 60
-20z m11 -166 c25 -22 24 -69 -1 -94 -14 -14 -33 -20 -65 -20 l-45 0 0 63 c0
35 3 67 8 71 12 13 82 -1 103 -20z"/>
<path d="M4932 1530 l3 -160 32 -32 c28 -28 40 -33 96 -36 80 -5 129 14 154
60 14 26 18 62 21 181 l4 147 -26 0 c-29 0 -29 2 -26 -141 3 -151 -25 -202
-112 -202 -34 0 -47 6 -70 32 -28 31 -28 32 -28 171 l0 140 -26 0 -25 0 3
-160z"/>
<path d="M5300 1500 l0 -190 98 0 c82 0 103 4 136 23 55 31 81 85 81 167 0
138 -61 190 -222 190 l-93 0 0 -190z m180 137 c20 -7 44 -27 58 -47 20 -30 23
-44 20 -102 -3 -54 -8 -72 -28 -93 -28 -29 -85 -47 -138 -43 l-37 3 -3 134
c-1 74 0 141 2 148 7 16 78 16 126 0z"/>
</g>
</svg>
