<?xml version="1.0" standalone="no"?>
<!DOCTYPE svg PUBLIC "-//W3C//DTD SVG 20010904//EN"
 "http://www.w3.org/TR/2001/REC-SVG-20010904/DTD/svg10.dtd">
<svg version="1.0" xmlns="http://www.w3.org/2000/svg"
 width="823.000000pt" height="303.000000pt" viewBox="0 0 823.000000 303.000000"
 preserveAspectRatio="xMidYMid meet">

<g transform="translate(0.000000,303.000000) scale(0.100000,-0.100000)"
fill="#000000" stroke="none">
<path d="M3374 1756 c-10 -26 4 -48 28 -44 17 2 23 10 23 28 0 18 -6 26 -23
28 -13 2 -25 -3 -28 -12z"/>
<path d="M2235 1663 c-11 -3 -32 -14 -47 -25 -28 -19 -28 -19 -28 1 0 17 -6
21 -34 21 -19 0 -38 -4 -41 -10 -3 -5 1 -10 9 -10 24 0 24 -377 1 -394 -13 -9
-2 -12 50 -14 69 -3 81 2 40 18 -23 9 -25 14 -25 80 l0 70 40 -21 c51 -27 101
-19 141 20 72 73 52 220 -36 257 -36 15 -38 15 -70 7z m64 -37 c5 -4 17 -26
26 -51 35 -91 -9 -195 -83 -195 -23 0 -44 8 -59 22 -20 19 -23 31 -23 104 0
45 3 90 6 99 14 37 89 48 133 21z"/>
<path d="M2594 1662 c-12 -2 -32 -15 -45 -30 -18 -20 -19 -23 -3 -9 29 24 51
21 71 -9 15 -24 17 -25 24 -8 18 47 3 64 -47 56z"/>
<path d="M2841 1647 c46 -31 92 -118 92 -175 0 -38 -5 -50 -31 -74 -38 -33
-27 -38 13 -6 85 67 69 214 -29 259 -60 27 -88 25 -45 -4z"/>
<path d="M3186 1655 c18 -8 41 -26 53 -41 24 -30 26 -30 35 8 6 25 3 27 -45
37 -66 14 -82 13 -43 -4z"/>
<path d="M3699 1658 c-13 -5 -36 -21 -51 -35 l-28 -27 0 32 c0 28 -3 32 -27
32 -37 0 -61 -15 -39 -23 13 -5 16 -26 16 -126 0 -104 -2 -121 -17 -130 -14
-8 -4 -10 42 -10 46 0 56 2 43 10 -15 8 -18 25 -18 105 0 92 1 97 29 125 29
28 64 37 88 21 22 -14 33 -63 33 -151 0 -81 -2 -89 -22 -99 -19 -9 -12 -11 42
-11 54 0 61 2 43 11 -22 10 -23 17 -23 109 0 96 0 97 31 123 37 31 72 33 99 6
17 -17 20 -33 20 -125 0 -100 -1 -106 -22 -115 -18 -7 -7 -9 41 -9 54 -1 62 1
49 12 -12 9 -17 38 -21 118 -2 58 -10 116 -16 128 -26 48 -99 46 -152 -5 l-27
-26 -16 30 c-17 33 -56 45 -97 30z"/>
<path d="M4265 1656 c-17 -7 -37 -21 -45 -31 -14 -18 -14 -18 10 -2 33 23 66
21 90 -3 17 -17 20 -33 20 -125 0 -100 -1 -106 -22 -115 -18 -7 -7 -9 41 -9
54 -1 62 1 48 12 -13 9 -17 33 -18 111 -3 99 -3 99 27 122 35 29 75 31 97 6
14 -15 17 -40 17 -126 0 -101 -1 -107 -22 -116 -18 -7 -7 -9 41 -9 54 -1 62 1
49 12 -13 9 -17 36 -20 124 -3 99 -6 115 -24 134 -33 32 -87 28 -134 -10 -36
-29 -39 -29 -45 -12 -12 40 -63 57 -110 37z"/>
<path d="M4807 1656 c38 -18 90 -102 99 -163 5 -33 2 -51 -15 -80 l-22 -38 35
36 c48 51 56 104 24 166 -27 55 -58 79 -113 87 l-40 6 32 -14z"/>
<path d="M2452 1651 c-11 -7 -11 -9 2 -14 13 -5 16 -26 16 -126 0 -104 -2
-121 -17 -130 -14 -8 -2 -10 47 -10 50 0 60 2 42 10 -23 9 -23 13 -22 111 3
174 4 168 -27 168 -16 0 -34 -4 -41 -9z"/>
<path d="M2747 1639 c-39 -29 -57 -70 -57 -126 0 -84 51 -141 132 -149 42 -4
42 -4 10 6 -38 12 -77 66 -98 136 -18 61 -11 97 28 129 35 30 25 33 -15 4z"/>
<path d="M3093 1638 c-110 -77 -71 -253 60 -275 37 -6 127 29 127 49 0 5 -12
0 -26 -11 -15 -12 -41 -21 -59 -21 -113 0 -172 212 -74 266 13 7 19 13 14 14
-6 0 -25 -10 -42 -22z"/>
<path d="M3355 1650 c-3 -5 1 -10 9 -10 14 0 16 -18 16 -125 0 -108 -2 -125
-17 -134 -14 -8 -4 -10 42 -10 46 0 56 2 43 10 -16 9 -18 27 -18 144 l0 135
-34 0 c-19 0 -38 -4 -41 -10z"/>
<path d="M4120 1650 c-13 -8 -13 -10 1 -10 25 0 30 -24 28 -137 -1 -93 -3
-105 -22 -118 -20 -14 -17 -15 43 -14 51 0 60 2 42 10 -23 9 -23 13 -22 111 3
174 4 168 -27 168 -16 0 -35 -5 -43 -10z"/>
<path d="M4718 1637 c-60 -50 -74 -133 -35 -201 35 -61 122 -95 167 -66 11 7
5 8 -18 4 -41 -8 -75 20 -108 91 -40 83 -27 162 30 185 12 5 15 9 6 9 -8 1
-27 -9 -42 -22z"/>
<path d="M5064 1568 c1 -41 2 -43 31 -43 26 0 30 4 31 30 2 44 -5 55 -35 55
-26 0 -27 -3 -27 -42z m46 17 c0 -8 -7 -15 -15 -15 -8 0 -15 7 -15 15 0 8 7
15 15 15 8 0 15 -7 15 -15z m3 -40 c1 -5 -6 -11 -15 -13 -11 -2 -18 3 -18 13
0 17 30 18 33 0z"/>
<path d="M5172 1568 c3 -40 5 -43 33 -43 29 0 30 2 31 45 l2 45 -7 -40 c-4
-27 -12 -41 -23 -43 -18 -3 -22 5 -19 45 1 11 -3 24 -9 28 -8 5 -10 -6 -8 -37z"/>
<path d="M5293 1565 c0 -27 2 -38 4 -22 2 15 2 37 0 50 -2 12 -4 0 -4 -28z"/>
<path d="M5348 1604 c-5 -4 -8 -25 -8 -46 0 -37 1 -38 33 -37 22 1 25 3 10 6
-18 3 -23 12 -25 45 -2 22 -6 36 -10 32z"/>
<path d="M5430 1565 c0 -43 1 -45 28 -45 33 0 52 16 52 45 0 29 -19 45 -52 45
-27 0 -28 -2 -28 -45z m63 13 c8 -12 7 -21 -2 -32 -23 -28 -41 -19 -41 20 0
28 4 35 16 32 9 -2 22 -10 27 -20z"/>
<path d="M5550 1565 c0 -25 5 -45 10 -45 6 0 10 20 10 45 0 25 -4 45 -10 45
-5 0 -10 -20 -10 -45z"/>
<path d="M5610 1565 c0 -25 5 -45 10 -45 6 0 10 12 10 28 l0 27 25 -30 24 -30
-1 50 c0 40 -2 44 -7 20 l-6 -29 -21 27 c-12 15 -25 27 -28 27 -3 0 -6 -20 -6
-45z"/>
<path d="M5742 1598 c-7 -7 -12 -25 -12 -40 0 -22 6 -29 27 -34 29 -8 56 5 61
29 2 11 -3 15 -17 14 -23 -1 -28 -13 -8 -20 8 -3 6 -7 -6 -12 -12 -5 -24 -2
-35 9 -23 23 -4 52 32 49 15 -1 24 2 21 8 -9 13 -49 11 -63 -3z"/>
<path d="M5060 1421 c0 -22 5 -43 10 -46 6 -4 10 12 10 39 0 25 -4 46 -10 46
-5 0 -10 -18 -10 -39z"/>
<path d="M5120 1415 c0 -25 5 -45 10 -45 6 0 10 12 10 28 l1 27 24 -30 25 -30
-1 50 c-1 41 -3 45 -8 20 l-7 -30 -18 28 c-26 39 -36 34 -36 -18z"/>
<path d="M5247 1415 c8 -25 20 -44 26 -42 12 4 40 78 32 85 -3 3 -10 -9 -16
-26 -14 -40 -26 -41 -34 -2 -4 17 -10 30 -15 30 -5 0 -2 -20 7 -45z"/>
<path d="M5350 1415 c0 -44 1 -45 33 -44 27 1 29 2 9 7 -28 8 -30 24 -5 33 16
7 16 8 1 8 -27 1 -31 20 -6 30 23 10 22 10 -4 10 -27 1 -28 -1 -28 -44z"/>
<path d="M5450 1439 c0 -12 8 -23 20 -26 11 -3 20 -12 20 -20 0 -12 -7 -14
-27 -8 -21 5 -25 4 -17 -5 17 -17 58 -8 62 12 2 12 -6 21 -22 28 -31 11 -35
35 -6 27 11 -3 20 -1 20 4 0 5 -11 9 -25 9 -19 0 -25 -5 -25 -21z"/>
<path d="M5552 1453 c12 -3 18 -17 21 -46 l4 -42 1 42 c2 30 7 43 20 46 9 3
-1 5 -23 5 -22 0 -32 -2 -23 -5z"/>
<path d="M5643 1420 c4 -47 17 -66 17 -25 0 23 2 26 15 15 12 -10 18 -10 29
-1 12 10 15 7 19 -16 3 -18 5 -11 6 20 1 48 -12 63 -24 27 -3 -11 -9 -20 -13
-20 -4 0 -13 9 -20 20 -20 33 -33 24 -29 -20z"/>
<path d="M5780 1415 c0 -44 1 -45 33 -44 27 1 29 2 9 7 -28 8 -30 24 -6 32 15
6 14 8 -6 13 -27 7 -19 22 15 30 13 3 9 5 -12 6 -33 1 -33 0 -33 -44z"/>
<path d="M5882 1415 c0 -28 3 -38 5 -22 5 34 16 34 33 2 20 -38 30 -30 29 23
0 26 -3 40 -6 32 -2 -8 -7 -22 -9 -30 -4 -10 -11 -6 -29 15 l-24 30 1 -50z"/>
<path d="M5993 1453 c12 -3 17 -15 17 -44 0 -21 4 -39 9 -39 5 0 9 16 9 36 0
20 6 40 14 45 8 6 -1 8 -27 8 -22 -1 -32 -3 -22 -6z"/>
<path d="M6090 1440 c0 -13 10 -24 26 -30 29 -11 23 -34 -7 -25 -11 4 -19 2
-19 -5 0 -6 12 -10 27 -8 38 4 43 35 9 48 -35 13 -34 34 0 26 17 -5 23 -3 19
4 -3 5 -17 10 -31 10 -17 0 -24 -5 -24 -20z"/>
</g>
</svg>
