<?xml version="1.0" standalone="no"?>
<!DOCTYPE svg PUBLIC "-//W3C//DTD SVG 20010904//EN"
 "http://www.w3.org/TR/2001/REC-SVG-20010904/DTD/svg10.dtd">
<svg version="1.0" xmlns="http://www.w3.org/2000/svg"
 width="823.000000pt" height="303.000000pt" viewBox="0 0 823.000000 303.000000"
 preserveAspectRatio="xMidYMid meet">

<g transform="translate(0.000000,303.000000) scale(0.100000,-0.100000)"
fill="#000000" stroke="none">
<path d="M4170 1915 c-13 -14 -20 -25 -15 -25 5 0 1 -6 -10 -13 -24 -18 -11
-37 26 -37 27 0 30 -3 27 -27 -2 -23 -8 -29 -35 -31 -28 -3 -32 -7 -35 -35 -3
-31 -7 -33 -48 -28 -5 0 -10 15 -10 31 0 36 -18 39 -53 8 l-25 -22 20 -28 c25
-36 74 -61 102 -54 36 9 75 44 97 87 16 32 19 55 17 117 -3 87 -15 99 -58 57z"/>
<path d="M4270 1900 c0 -22 3 -40 8 -40 4 0 6 18 4 40 -2 22 -6 40 -8 40 -2 0
-4 -18 -4 -40z"/>
<path d="M4256 1769 c-8 -40 -52 -101 -94 -129 -31 -22 -32 -24 -17 -46 8 -13
15 -27 15 -31 0 -4 -5 -1 -10 7 -8 12 -10 12 -10 -5 0 -11 9 -31 20 -45 11
-14 20 -29 20 -35 0 -5 50 -41 112 -80 120 -76 134 -83 124 -67 -3 6 -1 23 5
39 15 39 30 122 29 161 -1 40 -25 103 -58 154 -22 34 -106 108 -122 108 -4 0
-10 -14 -14 -31z m123 -155 c12 -15 21 -31 21 -35 0 -15 -50 -10 -66 6 -31 31
-68 -21 -44 -64 13 -24 38 -28 46 -6 4 9 19 15 35 15 36 0 38 -22 4 -55 -65
-66 -174 7 -151 100 11 43 41 65 90 65 36 0 48 -5 65 -26z m-215 -10 c3 -8 2
-12 -4 -9 -6 3 -10 10 -10 16 0 14 7 11 14 -7z"/>
<path d="M4471 1675 c104 -212 13 -468 -200 -568 -51 -24 -85 -32 -161 -38
l-95 -7 101 2 c92 1 107 5 168 35 200 98 293 328 216 535 -12 30 -30 65 -40
78 -12 14 -8 1 11 -37z"/>
<path d="M4032 1634 c10 -10 20 -16 22 -13 3 3 -5 11 -17 18 -21 13 -21 12 -5
-5z"/>
<path d="M3784 1428 c3 -14 2 -28 -3 -30 -5 -2 -7 -18 -3 -36 l7 -32 40 26
c48 32 68 51 38 35 -32 -16 -38 -14 -19 8 12 13 14 21 6 26 -6 3 -9 1 -8 -5 2
-7 -8 -16 -21 -21 -18 -7 -22 -6 -18 4 3 7 -2 22 -10 32 -15 19 -15 19 -9 -7z"/>
<path d="M3925 1352 l-125 -62 22 -31 c27 -37 68 -69 128 -99 34 -18 67 -25
133 -28 56 -3 87 -1 87 6 0 5 10 8 22 4 16 -4 19 -2 13 8 -6 10 -3 12 13 8 14
-4 20 -2 15 5 -4 7 0 8 11 4 9 -4 15 -3 11 2 -3 5 10 19 29 31 19 11 48 36 63
54 16 18 36 30 44 28 54 -17 -126 82 -221 120 -14 6 -46 11 -73 12 -39 1 -68
-9 -172 -62z m135 28 c-22 -14 0 -30 41 -30 38 0 79 -26 79 -50 0 -14 -54 -12
-68 2 -9 9 -15 9 -23 1 -9 -9 0 -15 31 -24 98 -30 80 -119 -24 -119 -38 0 -76
28 -76 55 0 20 39 19 61 -1 11 -10 25 -14 35 -10 22 9 9 20 -39 36 -48 15 -65
51 -42 86 8 13 14 24 13 25 -2 0 -13 2 -25 3 -19 2 -21 0 -10 -13 11 -14 10
-14 -5 -2 -26 19 -22 29 15 45 32 13 60 10 37 -4z m56 -2 c-10 -6 -22 -6 -26
-2 -5 5 3 10 18 11 22 1 24 0 8 -9z"/>
<path d="M3988 1073 c7 -3 16 -2 19 1 4 3 -2 6 -13 5 -11 0 -14 -3 -6 -6z"/>
</g>
</svg>
