<?xml version="1.0" standalone="no"?>
<!DOCTYPE svg PUBLIC "-//W3C//DTD SVG 20010904//EN"
 "http://www.w3.org/TR/2001/REC-SVG-20010904/DTD/svg10.dtd">
<svg version="1.0" xmlns="http://www.w3.org/2000/svg"
 width="823.000000pt" height="303.000000pt" viewBox="0 0 823.000000 303.000000"
 preserveAspectRatio="xMidYMid meet">

<g transform="translate(0.000000,303.000000) scale(0.100000,-0.100000)"
fill="#000000" stroke="none">
<path d="M4588 2050 c-136 -17 -238 -63 -331 -150 -145 -136 -193 -342 -124
-533 89 -244 374 -376 700 -326 115 18 297 93 284 117 -6 11 -110 187 -113
190 -1 2 -22 -8 -47 -22 -75 -44 -153 -66 -237 -66 -141 0 -239 49 -292 145
-24 43 -28 62 -28 133 0 97 15 140 68 195 104 108 279 124 451 42 l70 -34 60
97 c69 111 69 111 -24 152 -114 52 -299 77 -437 60z"/>
<path d="M2950 1748 c0 -161 5 -322 10 -358 14 -88 70 -200 122 -245 90 -76
219 -114 393 -114 260 -1 425 107 475 311 6 24 14 190 17 371 l6 327 -150 0
-150 0 -5 -329 -4 -329 -27 -41 c-90 -136 -334 -108 -376 44 -7 25 -11 154
-11 348 l0 307 -150 0 -150 0 0 -292z"/>
<path d="M5250 1540 l0 -500 145 0 145 0 0 500 0 500 -145 0 -145 0 0 -500z"/>
<path d="M2347 1699 c-4 -84 -7 -174 -7 -201 l0 -48 220 0 220 0 0 199 0 200
-213 1 -214 1 -6 -152z"/>
</g>
</svg>
